<?xml version="1.0" encoding="UTF-8"?>
<svg xmlns="http://www.w3.org/2000/svg" xmlns:xlink="http://www.w3.org/1999/xlink" width="13.5pt" height="13.5pt" viewBox="0 0 13.5 13.5" version="1.1">
<g id="surface4359">
<path style=" stroke:none;fill-rule:nonzero;fill:rgb(54.509807%,71.764708%,94.117647%);fill-opacity:1;" d="M 8.109375 3.65625 L 2.84375 0.695312 L 2.84375 6.617188 Z M 8.109375 3.65625 "/>
<path style=" stroke:none;fill-rule:nonzero;fill:rgb(30.588236%,47.843137%,70.980394%);fill-opacity:1;" d="M 3.25 1.390625 L 3.25 5.921875 L 7.28125 3.65625 L 3.25 1.390625 M 2.4375 0 L 8.9375 3.65625 L 2.4375 7.3125 Z M 2.4375 0 "/>
<path style=" stroke:none;fill-rule:nonzero;fill:rgb(54.509807%,71.764708%,94.117647%);fill-opacity:1;" d="M 9.34375 0.40625 L 8.53125 0.40625 L 8.53125 6.90625 L 9.34375 6.90625 Z M 9.34375 0.40625 "/>
<path style=" stroke:none;fill-rule:nonzero;fill:rgb(30.588236%,47.843137%,70.980394%);fill-opacity:1;" d="M 8.9375 0.8125 L 8.9375 6.5 L 8.9375 0.8125 M 8.125 0 L 9.75 0 L 9.75 7.3125 L 8.125 7.3125 Z M 8.125 0 "/>
<path style=" stroke:none;fill-rule:nonzero;fill:rgb(40.000001%,47.450981%,56.078434%);fill-opacity:1;" d="M 4.0625 10.5625 L 6.09375 13 L 8.125 10.5625 Z M 0 0 L 0.8125 0 L 0.8125 8.9375 L 0 8.9375 Z M 11.375 0 L 12.1875 0 L 12.1875 8.9375 L 11.375 8.9375 Z M 5.6875 8.125 L 6.5 8.125 L 6.5 10.5625 L 5.6875 10.5625 Z M 5.6875 8.125 "/>
<path style=" stroke:none;fill-rule:nonzero;fill:rgb(40.000001%,47.450981%,56.078434%);fill-opacity:1;" d="M 0 8.9375 L 0 8.125 L 12.1875 8.125 L 12.1875 8.9375 Z M 0 8.9375 "/>
</g>
</svg>
