<?xml version="1.0" encoding="UTF-8"?>
<svg xmlns="http://www.w3.org/2000/svg" xmlns:xlink="http://www.w3.org/1999/xlink" width="13.5pt" height="13.5pt" viewBox="0 0 13.5 13.5" version="1.1">
<g id="surface1973">
<path style=" stroke:none;fill-rule:nonzero;fill:rgb(9.019608%,9.019608%,9.411765%);fill-opacity:1;" d="M 0.78125 1.039062 C 0.351562 1.039062 0 1.390625 0 1.820312 L 0 11.414062 C -0.015625 11.476562 -0.0117188 11.539062 0.015625 11.59375 C 0.0898438 11.949219 0.40625 12.21875 0.78125 12.21875 L 10.921875 12.21875 C 11.308594 12.21875 11.625 11.925781 11.683594 11.554688 C 11.6875 11.539062 11.691406 11.519531 11.691406 11.503906 C 11.691406 11.5 11.691406 11.492188 11.691406 11.488281 L 11.699219 11.449219 C 11.699219 11.445312 11.699219 11.441406 11.699219 11.441406 L 12.992188 4.46875 L 13 4.445312 L 13 4.421875 C 13 3.992188 12.648438 3.640625 12.21875 3.640625 L 12.21875 2.859375 C 12.21875 2.433594 11.867188 2.078125 11.441406 2.078125 L 4.6875 2.078125 C 4.6875 2.082031 4.6875 2.078125 4.679688 2.078125 C 4.671875 2.074219 4.648438 2.054688 4.605469 2.007812 C 4.542969 1.933594 4.46875 1.8125 4.386719 1.683594 C 4.304688 1.550781 4.21875 1.414062 4.109375 1.292969 C 4.003906 1.171875 3.851562 1.039062 3.640625 1.039062 Z M 0.78125 1.558594 L 3.640625 1.558594 C 3.625 1.558594 3.65625 1.558594 3.722656 1.632812 C 3.785156 1.707031 3.859375 1.828125 3.941406 1.957031 C 4.023438 2.089844 4.109375 2.226562 4.21875 2.347656 C 4.324219 2.46875 4.464844 2.601562 4.679688 2.601562 L 11.441406 2.601562 C 11.585938 2.601562 11.699219 2.714844 11.699219 2.859375 L 11.699219 3.640625 L 2.078125 3.640625 C 1.671875 3.640625 1.34375 3.96875 1.316406 4.371094 L 1.308594 4.371094 L 1.300781 4.421875 L 0.519531 8.628906 L 0.519531 1.820312 C 0.519531 1.671875 0.632812 1.558594 0.78125 1.558594 Z M 2.078125 4.160156 L 12.21875 4.160156 C 12.367188 4.160156 12.480469 4.273438 12.480469 4.421875 L 11.203125 11.316406 L 11.195312 11.335938 C 11.191406 11.34375 11.191406 11.355469 11.1875 11.367188 C 11.183594 11.378906 11.183594 11.386719 11.179688 11.398438 C 11.179688 11.40625 11.179688 11.410156 11.179688 11.414062 C 11.179688 11.417969 11.179688 11.421875 11.179688 11.421875 C 11.175781 11.4375 11.175781 11.449219 11.171875 11.464844 C 11.171875 11.472656 11.171875 11.480469 11.171875 11.488281 C 11.171875 11.5 11.171875 11.511719 11.171875 11.519531 C 11.140625 11.625 11.039062 11.699219 10.921875 11.699219 L 0.78125 11.699219 C 0.632812 11.699219 0.519531 11.585938 0.519531 11.441406 L 1.8125 4.46875 L 1.820312 4.445312 L 1.820312 4.421875 C 1.820312 4.273438 1.933594 4.160156 2.078125 4.160156 Z M 2.078125 4.160156 "/>
</g>
</svg>
