<?xml version="1.0" encoding="UTF-8"?>
<svg xmlns="http://www.w3.org/2000/svg" xmlns:xlink="http://www.w3.org/1999/xlink" width="13.5pt" height="13.5pt" viewBox="0 0 13.5 13.5" version="1.1">
<g id="surface3614">
<path style=" stroke:none;fill-rule:nonzero;fill:rgb(100%,100%,100%);fill-opacity:1;" d="M 2.03125 11.78125 L 2.03125 0.40625 L 8.015625 0.40625 L 10.96875 3.414062 L 10.96875 11.78125 Z M 2.03125 11.78125 "/>
<path style=" stroke:none;fill-rule:nonzero;fill:rgb(47.058824%,54.509807%,61.176473%);fill-opacity:1;" d="M 7.847656 0.8125 L 10.5625 3.582031 L 10.5625 11.375 L 2.4375 11.375 L 2.4375 0.8125 L 7.847656 0.8125 M 8.1875 0 L 1.625 0 L 1.625 12.1875 L 11.375 12.1875 L 11.375 3.25 Z M 8.1875 0 "/>
<path style=" stroke:none;fill-rule:nonzero;fill:rgb(100%,100%,100%);fill-opacity:1;" d="M 7.71875 3.65625 L 7.71875 0.40625 L 7.988281 0.40625 L 10.96875 3.417969 L 10.96875 3.65625 Z M 7.71875 3.65625 "/>
<path style=" stroke:none;fill-rule:nonzero;fill:rgb(47.058824%,54.509807%,61.176473%);fill-opacity:1;" d="M 8.125 1.121094 L 10.230469 3.25 L 8.125 3.25 L 8.125 1.121094 M 8.15625 0 L 7.3125 0 L 7.3125 4.0625 L 11.375 4.0625 L 11.375 3.25 Z M 8.15625 0 "/>
<path style=" stroke:none;fill-rule:nonzero;fill:rgb(54.509807%,45.882353%,63.137257%);fill-opacity:1;" d="M 5.6875 8.125 L 7.3125 8.125 L 7.3125 9.75 L 5.6875 9.75 Z M 5.6875 8.125 "/>
<path style=" stroke:none;fill-rule:nonzero;fill:rgb(100%,93.333334%,63.921571%);fill-opacity:1;" d="M 6.09375 8.53125 L 6.09375 8.449219 C 6.09375 8.035156 5.875 7.761719 5.6875 7.519531 C 5.476562 7.257812 5.28125 7.007812 5.28125 6.5 C 5.28125 5.828125 5.828125 5.28125 6.5 5.28125 C 7.171875 5.28125 7.71875 5.828125 7.71875 6.5 C 7.71875 7.007812 7.523438 7.257812 7.3125 7.519531 C 7.125 7.761719 6.90625 8.035156 6.90625 8.449219 L 6.90625 8.53125 Z M 6.09375 8.53125 "/>
<path style=" stroke:none;fill-rule:nonzero;fill:rgb(72.941178%,60.784316%,28.235295%);fill-opacity:1;" d="M 6.5 5.6875 C 6.949219 5.6875 7.3125 6.050781 7.3125 6.5 C 7.3125 6.867188 7.191406 7.015625 6.996094 7.265625 C 6.828125 7.476562 6.617188 7.746094 6.535156 8.125 L 6.464844 8.125 C 6.382812 7.746094 6.171875 7.476562 6.003906 7.265625 C 5.808594 7.015625 5.6875 6.867188 5.6875 6.5 C 5.6875 6.050781 6.050781 5.6875 6.5 5.6875 M 6.5 4.875 C 5.601562 4.875 4.875 5.601562 4.875 6.5 C 4.875 7.636719 5.6875 7.808594 5.6875 8.449219 L 5.6875 8.9375 L 7.3125 8.9375 L 7.3125 8.449219 C 7.3125 7.808594 8.125 7.636719 8.125 6.5 C 8.125 5.601562 7.398438 4.875 6.5 4.875 Z M 6.5 4.875 "/>
</g>
</svg>
