<?xml version="1.0" encoding="UTF-8"?>
<svg xmlns="http://www.w3.org/2000/svg" xmlns:xlink="http://www.w3.org/1999/xlink" width="13.5pt" height="13.5pt" viewBox="0 0 13.5 13.5" version="1.1">
<g id="surface3758">
<path style=" stroke:none;fill-rule:nonzero;fill:rgb(100%,100%,100%);fill-opacity:1;" d="M 4.46875 12.59375 L 4.46875 8.53125 L 0.40625 8.53125 L 0.40625 0.40625 L 8.53125 0.40625 L 8.53125 4.46875 L 12.59375 4.46875 L 12.59375 12.59375 Z M 4.46875 12.59375 "/>
<path style=" stroke:none;fill-rule:nonzero;fill:rgb(47.058824%,54.509807%,61.176473%);fill-opacity:1;" d="M 8.125 0.8125 L 8.125 4.875 L 12.1875 4.875 L 12.1875 12.1875 L 4.875 12.1875 L 4.875 8.125 L 0.8125 8.125 L 0.8125 0.8125 L 8.125 0.8125 M 8.9375 0 L 0 0 L 0 8.9375 L 4.0625 8.9375 L 4.0625 13 L 13 13 L 13 4.0625 L 8.9375 4.0625 Z M 8.9375 0 "/>
<path style=" stroke:none;fill-rule:nonzero;fill:rgb(47.058824%,54.509807%,61.176473%);fill-opacity:1;" d="M 4.414062 8.042969 L 4.699219 7.753906 L 5.273438 8.332031 L 4.988281 8.617188 Z M 4.414062 8.042969 "/>
<path style=" stroke:none;fill-rule:nonzero;fill:rgb(47.058824%,54.509807%,61.176473%);fill-opacity:1;" d="M 5.851562 7.71875 L 5.28125 7.148438 L 5.929688 6.5 L 6.5 7.070312 Z M 7.070312 6.5 L 6.5 5.929688 L 7.148438 5.28125 L 7.71875 5.851562 Z M 7.070312 6.5 "/>
<path style=" stroke:none;fill-rule:nonzero;fill:rgb(47.058824%,54.509807%,61.176473%);fill-opacity:1;" d="M 7.726562 4.667969 L 8.011719 4.382812 L 8.585938 4.957031 L 8.300781 5.246094 Z M 7.726562 4.667969 "/>
<path style=" stroke:none;fill-rule:nonzero;fill:rgb(30.588236%,47.843137%,70.980394%);fill-opacity:1;" d="M 2.453125 3.257812 L 3.257812 2.453125 L 5.730469 4.925781 L 4.925781 5.730469 Z M 2.453125 3.257812 "/>
<path style=" stroke:none;fill-rule:nonzero;fill:rgb(30.588236%,47.843137%,70.980394%);fill-opacity:1;" d="M 2.4375 5.6875 L 5.6875 2.4375 L 2.4375 2.4375 Z M 2.4375 5.6875 "/>
<path style=" stroke:none;fill-rule:nonzero;fill:rgb(30.588236%,47.843137%,70.980394%);fill-opacity:1;" d="M 7.328125 8.132812 L 8.132812 7.328125 L 10.605469 9.800781 L 9.800781 10.605469 Z M 7.328125 8.132812 "/>
<path style=" stroke:none;fill-rule:nonzero;fill:rgb(30.588236%,47.843137%,70.980394%);fill-opacity:1;" d="M 10.5625 7.3125 L 7.3125 10.5625 L 10.5625 10.5625 Z M 10.5625 7.3125 "/>
</g>
</svg>
