<?xml version="1.0" encoding="UTF-8"?>
<svg xmlns="http://www.w3.org/2000/svg" xmlns:xlink="http://www.w3.org/1999/xlink" width="24pt" height="24pt" viewBox="0 0 24 24" version="1.1">
<g id="surface51347">
<path style=" stroke:none;fill-rule:nonzero;fill:rgb(54.509807%,71.764708%,94.117647%);fill-opacity:1;" d="M 22.648438 19.351562 L 19.050781 16.050781 L 19.050781 18.449219 L 4.351562 18.449219 L 4.351562 20.25 L 19.050781 20.25 L 19.050781 22.648438 Z M 22.648438 19.351562 "/>
<path style=" stroke:none;fill-rule:nonzero;fill:rgb(30.588236%,47.843137%,70.980394%);fill-opacity:1;" d="M 18.898438 22.992188 L 18.898438 20.398438 L 4.199219 20.398438 L 4.199219 18.300781 L 18.898438 18.300781 L 18.898438 15.707031 L 22.871094 19.351562 Z M 4.5 20.101562 L 19.199219 20.101562 L 19.199219 22.308594 L 22.429688 19.351562 L 19.199219 16.390625 L 19.199219 18.601562 L 4.5 18.601562 Z M 4.5 20.101562 "/>
<path style=" stroke:none;fill-rule:nonzero;fill:rgb(88.235295%,92.156863%,94.901961%);fill-opacity:1;" d="M 4.949219 1.351562 L 1.648438 4.949219 L 4.050781 4.949219 L 4.050781 19.648438 L 5.851562 19.648438 L 5.851562 4.949219 L 8.25 4.949219 Z M 4.949219 1.351562 "/>
<path style=" stroke:none;fill-rule:nonzero;fill:rgb(47.058824%,54.509807%,61.176473%);fill-opacity:1;" d="M 6 19.800781 L 3.898438 19.800781 L 3.898438 5.101562 L 1.308594 5.101562 L 4.949219 1.128906 L 8.589844 5.101562 L 6 5.101562 Z M 4.199219 19.5 L 5.699219 19.5 L 5.699219 4.800781 L 7.910156 4.800781 L 4.949219 1.570312 L 1.992188 4.800781 L 4.199219 4.800781 Z M 4.199219 19.5 "/>
<path style=" stroke:none;fill-rule:nonzero;fill:rgb(96.862745%,56.078434%,56.078434%);fill-opacity:1;" d="M 6.75 19.351562 C 6.75 20.34375 5.945312 21.148438 4.949219 21.148438 C 3.957031 21.148438 3.148438 20.34375 3.148438 19.351562 C 3.148438 18.355469 3.957031 17.550781 4.949219 17.550781 C 5.945312 17.550781 6.75 18.355469 6.75 19.351562 Z M 6.75 19.351562 "/>
<path style=" stroke:none;fill-rule:nonzero;fill:rgb(78.039217%,26.274511%,26.274511%);fill-opacity:1;" d="M 4.949219 21.300781 C 3.875 21.300781 3 20.425781 3 19.351562 C 3 18.273438 3.875 17.398438 4.949219 17.398438 C 6.023438 17.398438 6.898438 18.273438 6.898438 19.351562 C 6.898438 20.425781 6.023438 21.300781 4.949219 21.300781 Z M 4.949219 17.699219 C 4.039062 17.699219 3.300781 18.441406 3.300781 19.351562 C 3.300781 20.257812 4.039062 21 4.949219 21 C 5.859375 21 6.601562 20.257812 6.601562 19.351562 C 6.601562 18.441406 5.859375 17.699219 4.949219 17.699219 Z M 4.949219 17.699219 "/>
</g>
</svg>
