<?xml version="1.0" encoding="UTF-8"?>
<svg xmlns="http://www.w3.org/2000/svg" xmlns:xlink="http://www.w3.org/1999/xlink" width="24pt" height="24pt" viewBox="0 0 24 24" version="1.1">
<g id="surface8796">
<path style=" stroke:none;fill-rule:nonzero;fill:rgb(75.686276%,89.019608%,96.862745%);fill-opacity:1;" d="M 11.851562 0.902344 C 5.800781 0.902344 0.898438 5.804688 0.898438 11.851562 C 0.898438 17.898438 5.800781 22.800781 11.851562 22.800781 C 17.898438 22.800781 22.800781 17.898438 22.800781 11.851562 C 22.800781 5.804688 17.898438 0.902344 11.851562 0.902344 Z M 11.851562 0.902344 "/>
<path style=" stroke:none;fill-rule:nonzero;fill:rgb(44.705883%,56.470591%,73.333335%);fill-opacity:1;" d="M 11.851562 1.203125 C 17.722656 1.203125 22.5 5.976562 22.5 11.851562 C 22.5 17.722656 17.722656 22.5 11.851562 22.5 C 5.976562 22.5 1.199219 17.722656 1.199219 11.851562 C 1.199219 5.980469 5.976562 1.203125 11.851562 1.203125 M 11.851562 0.902344 C 5.800781 0.902344 0.898438 5.804688 0.898438 11.851562 C 0.898438 17.898438 5.800781 22.800781 11.851562 22.800781 C 17.898438 22.800781 22.800781 17.898438 22.800781 11.851562 C 22.800781 5.804688 17.898438 0.902344 11.851562 0.902344 Z M 11.851562 0.902344 "/>
<path style=" stroke:none;fill-rule:nonzero;fill:rgb(98.431373%,81.176472%,81.176472%);fill-opacity:1;" d="M 11.851562 4.5 C 7.789062 4.5 4.5 7.792969 4.5 11.851562 C 4.5 15.910156 7.789062 19.203125 11.851562 19.203125 C 15.910156 19.203125 19.199219 15.910156 19.199219 11.851562 C 19.199219 7.792969 15.910156 4.5 11.851562 4.5 Z M 11.851562 4.5 "/>
<path style=" stroke:none;fill-rule:nonzero;fill:rgb(74.509805%,26.274511%,26.274511%);fill-opacity:1;" d="M 11.851562 4.800781 C 15.738281 4.800781 18.898438 7.964844 18.898438 11.851562 C 18.898438 15.738281 15.738281 18.902344 11.851562 18.902344 C 7.960938 18.902344 4.800781 15.738281 4.800781 11.851562 C 4.800781 7.964844 7.960938 4.800781 11.851562 4.800781 M 11.851562 4.5 C 7.789062 4.5 4.5 7.792969 4.5 11.851562 C 4.5 15.910156 7.789062 19.203125 11.851562 19.203125 C 15.910156 19.203125 19.199219 15.910156 19.199219 11.851562 C 19.199219 7.792969 15.910156 4.5 11.851562 4.5 Z M 11.851562 4.5 "/>
<path style=" stroke:none;fill-rule:nonzero;fill:rgb(21.176471%,25.098041%,29.803923%);fill-opacity:1;" d="M 11.699219 0 L 12 0 L 12 24 L 11.699219 24 Z M 11.699219 0 "/>
<path style=" stroke:none;fill-rule:nonzero;fill:rgb(21.176471%,25.098041%,29.803923%);fill-opacity:1;" d="M 0 11.703125 L 0 12 L 24 12 L 24 11.699219 Z M 0 11.703125 "/>
<path style=" stroke:none;fill-rule:nonzero;fill:rgb(97.254902%,90.980393%,63.137257%);fill-opacity:1;" d="M 11.851562 8.703125 C 10.109375 8.703125 8.699219 10.113281 8.699219 11.851562 C 8.699219 13.589844 10.109375 15 11.851562 15 C 13.589844 15 15 13.589844 15 11.851562 C 15 10.113281 13.589844 8.703125 11.851562 8.703125 Z M 11.851562 8.703125 "/>
<path style=" stroke:none;fill-rule:nonzero;fill:rgb(70.980394%,59.215689%,29.019609%);fill-opacity:1;" d="M 11.851562 9 C 13.421875 9 14.699219 10.28125 14.699219 11.851562 C 14.699219 13.421875 13.421875 14.703125 11.851562 14.703125 C 10.277344 14.703125 9 13.421875 9 11.851562 C 9 10.28125 10.277344 9 11.851562 9 M 11.851562 8.703125 C 10.109375 8.703125 8.699219 10.113281 8.699219 11.851562 C 8.699219 13.589844 10.109375 15 11.851562 15 C 13.589844 15 15 13.589844 15 11.851562 C 15 10.113281 13.589844 8.703125 11.851562 8.703125 Z M 11.851562 8.703125 "/>
</g>
</svg>
