<?xml version="1.0" encoding="UTF-8"?>
<svg xmlns="http://www.w3.org/2000/svg" xmlns:xlink="http://www.w3.org/1999/xlink" width="24pt" height="24pt" viewBox="0 0 24 24" version="1.1">
<g id="surface6737">
<path style=" stroke:none;fill-rule:nonzero;fill:rgb(30.588236%,47.843137%,70.980394%);fill-opacity:1;" d="M 19.199219 18.601562 L 19.199219 1.199219 L 17.398438 1.199219 L 17.398438 18.601562 L 14.398438 18.601562 L 18.300781 22.800781 L 22.199219 18.601562 Z M 19.199219 18.601562 "/>
<path style=" stroke:none;fill-rule:nonzero;fill:rgb(21.176471%,25.098041%,30.19608%);fill-opacity:1;" d="M 9.539062 9.601562 L 8.066406 9.601562 L 7.335938 7.460938 L 4.148438 7.460938 L 3.449219 9.601562 L 1.980469 9.601562 L 5.015625 1.199219 L 6.527344 1.199219 Z M 6.980469 6.324219 L 5.855469 2.976562 C 5.824219 2.867188 5.785156 2.691406 5.75 2.449219 L 5.726562 2.449219 C 5.691406 2.671875 5.65625 2.847656 5.613281 2.976562 L 4.5 6.324219 Z M 9.121094 15.007812 L 4.398438 21.621094 L 9.058594 21.621094 L 9.058594 22.800781 L 2.398438 22.800781 L 2.398438 22.160156 L 7.136719 15.582031 L 2.765625 15.582031 L 2.765625 14.398438 L 9.121094 14.398438 Z M 9.121094 15.007812 "/>
</g>
</svg>
