<?xml version="1.0" encoding="UTF-8"?>
<svg xmlns="http://www.w3.org/2000/svg" xmlns:xlink="http://www.w3.org/1999/xlink" width="24pt" height="24pt" viewBox="0 0 24 24" version="1.1">
<g id="surface51510">
<path style=" stroke:none;fill-rule:nonzero;fill:rgb(54.509807%,71.764708%,94.117647%);fill-opacity:1;" d="M 9.058594 22.050781 C 5.042969 22.050781 1.648438 17.777344 1.648438 12.71875 L 1.648438 11.039062 C 1.648438 5.941406 4.484375 1.949219 8.101562 1.949219 C 11.820312 1.949219 13.402344 5.074219 14.558594 8.449219 L 14.738281 8.972656 L 16.023438 2.550781 L 18.71875 2.550781 L 16.460938 13.832031 L 16.601562 14.316406 C 17.324219 16.828125 18.230469 19.949219 19.800781 19.949219 C 21.1875 19.949219 22.050781 18.742188 22.050781 16.800781 L 22.050781 16.351562 L 22.351562 16.351562 L 22.351562 16.800781 C 22.351562 20.671875 21.375 21.449219 19.800781 21.449219 C 17.34375 21.449219 15.960938 16.796875 15.949219 16.75 L 15.816406 16.296875 L 15.660156 16.746094 C 14.832031 19.164062 13.015625 22.050781 9.058594 22.050781 Z M 9.058594 3.449219 C 6.671875 3.449219 4.558594 6.851562 4.351562 11.03125 L 4.351562 12.71875 C 4.5625 16.96875 6.71875 20.550781 9.058594 20.550781 C 12.105469 20.550781 14.160156 12.382812 14.246094 12.035156 L 14.253906 12 L 14.246094 11.964844 C 13.363281 8.429688 11.167969 3.449219 9.058594 3.449219 Z M 9.058594 3.449219 "/>
<path style=" stroke:none;fill-rule:nonzero;fill:rgb(30.588236%,47.843137%,70.980394%);fill-opacity:1;" d="M 8.101562 2.101562 C 11.726562 2.101562 13.277344 5.175781 14.417969 8.496094 L 14.777344 9.550781 L 14.996094 8.457031 L 16.144531 2.699219 L 18.535156 2.699219 L 16.320312 13.769531 L 16.304688 13.839844 L 16.328125 13.910156 L 16.457031 14.359375 C 17.234375 17.050781 18.117188 20.101562 19.800781 20.101562 C 21.28125 20.101562 22.199219 18.835938 22.199219 16.800781 C 22.199219 20.953125 21.015625 21.300781 19.800781 21.300781 C 17.457031 21.300781 16.105469 16.753906 16.09375 16.710938 L 15.828125 15.800781 L 15.519531 16.695312 C 14.707031 19.070312 12.925781 21.898438 9.058594 21.898438 C 5.125 21.898438 1.800781 17.695312 1.800781 12.71875 L 1.800781 11.039062 C 1.800781 8.625 2.457031 6.363281 3.652344 4.679688 C 4.832031 3.015625 6.414062 2.101562 8.101562 2.101562 M 9.058594 20.699219 C 12.171875 20.699219 14.171875 12.957031 14.390625 12.070312 L 14.410156 12 L 14.390625 11.925781 C 13.6875 9.113281 11.457031 3.300781 9.058594 3.300781 C 6.59375 3.300781 4.410156 6.765625 4.199219 11.039062 L 4.199219 12.734375 C 4.414062 17.050781 6.640625 20.699219 9.058594 20.699219 M 8.101562 1.800781 C 4.390625 1.800781 1.5 5.9375 1.5 11.039062 L 1.5 12.71875 C 1.5 17.824219 4.882812 22.199219 9.058594 22.199219 C 12.503906 22.199219 14.691406 20.042969 15.804688 16.792969 C 15.804688 16.792969 17.199219 21.601562 19.800781 21.601562 C 21.5 21.601562 22.5 20.6875 22.5 16.800781 L 22.5 16.199219 L 21.898438 16.199219 L 21.898438 16.800781 C 21.898438 18.425781 21.261719 19.800781 19.800781 19.800781 C 18.25 19.800781 17.339844 16.3125 16.613281 13.828125 L 18.898438 2.398438 L 15.898438 2.398438 L 14.699219 8.398438 C 13.417969 4.652344 11.726562 1.800781 8.101562 1.800781 Z M 9.058594 20.398438 C 6.882812 20.398438 4.710938 16.964844 4.5 12.71875 L 4.5 11.039062 C 4.710938 6.796875 6.882812 3.601562 9.058594 3.601562 C 11.066406 3.601562 13.257812 8.625 14.101562 12 C 14.101562 12 12.023438 20.398438 9.058594 20.398438 Z M 9.058594 20.398438 "/>
</g>
</svg>
