<?xml version="1.0" encoding="UTF-8"?>
<svg xmlns="http://www.w3.org/2000/svg" xmlns:xlink="http://www.w3.org/1999/xlink" width="24pt" height="24pt" viewBox="0 0 24 24" version="1.1">
<g id="surface35402">
<path style=" stroke:none;fill-rule:nonzero;fill:rgb(76.078433%,90.980393%,100%);fill-opacity:1;" d="M 23.101562 12 C 23.101562 18.179688 18.066406 23.101562 12 23.101562 C 5.933594 23.101562 0.898438 18.179688 0.898438 12 C 0.898438 5.820312 5.820312 0.898438 12 0.898438 C 18.179688 0.898438 23.101562 5.820312 23.101562 12 Z M 23.101562 12 "/>
<path style=" stroke:none;fill-rule:nonzero;fill:rgb(72.941178%,87.843138%,74.117649%);fill-opacity:1;" d="M 13.722656 22.402344 L 14.125 22 L 14.222656 22 C 14.265625 22 14.308594 21.980469 14.339844 21.949219 L 14.671875 21.617188 C 14.703125 21.585938 14.722656 21.542969 14.722656 21.5 L 14.722656 21.234375 L 14.957031 21 L 15.554688 21 C 15.601562 21 15.640625 20.980469 15.671875 20.949219 L 15.957031 20.664062 L 16.222656 20.664062 C 16.257812 20.664062 16.292969 20.652344 16.324219 20.632812 L 17.65625 19.632812 C 17.699219 19.601562 17.722656 19.550781 17.722656 19.5 L 17.722656 19.234375 L 18.292969 18.664062 L 18.890625 18.664062 C 18.933594 18.664062 18.976562 18.648438 19.007812 18.617188 L 19.507812 18.117188 C 19.53125 18.09375 19.546875 18.0625 19.550781 18.03125 L 19.710938 17.234375 L 20.691406 15.933594 C 20.710938 15.902344 20.722656 15.867188 20.722656 15.832031 L 20.722656 15.164062 C 20.722656 15.101562 20.6875 15.042969 20.628906 15.015625 L 19.964844 14.683594 C 19.941406 14.671875 19.914062 14.664062 19.890625 14.664062 L 19.125 14.664062 L 18.839844 14.378906 C 18.808594 14.347656 18.765625 14.332031 18.722656 14.332031 L 18.390625 14.332031 L 18.390625 13.996094 C 18.390625 13.945312 18.363281 13.894531 18.324219 13.863281 L 17.65625 13.363281 C 17.628906 13.34375 17.59375 13.332031 17.554688 13.332031 L 16.78125 13.332031 L 15.992188 12.699219 C 15.964844 12.675781 15.925781 12.664062 15.890625 12.664062 L 14.957031 12.664062 L 14.671875 12.378906 C 14.640625 12.347656 14.601562 12.332031 14.554688 12.332031 L 14.292969 12.332031 L 14.007812 12.046875 C 13.976562 12.015625 13.933594 11.996094 13.890625 11.996094 L 13.554688 11.996094 C 13.507812 11.996094 13.464844 12.019531 13.433594 12.054688 L 13.160156 12.355469 L 12.589844 12.628906 L 12.339844 12.378906 C 12.308594 12.347656 12.265625 12.332031 12.222656 12.332031 L 12.054688 12.332031 C 12.011719 12.332031 11.96875 12.347656 11.9375 12.378906 L 11.769531 12.550781 L 11.722656 12.457031 L 11.722656 11.832031 C 11.722656 11.785156 11.707031 11.742188 11.671875 11.714844 L 11.007812 11.046875 C 10.976562 11.015625 10.933594 10.996094 10.890625 10.996094 L 10.722656 10.996094 L 10.722656 10.898438 L 11.007812 10.613281 C 11.039062 10.585938 11.054688 10.542969 11.054688 10.496094 L 11.054688 10.164062 C 11.054688 10.070312 10.980469 9.996094 10.890625 9.996094 L 10.390625 9.996094 C 10.363281 9.996094 10.335938 10.003906 10.316406 10.015625 L 9.980469 10.183594 C 9.941406 10.203125 9.910156 10.234375 9.898438 10.277344 L 9.769531 10.664062 L 9.261719 10.664062 L 9.011719 10.539062 L 8.722656 9.957031 L 8.722656 9.382812 L 9.007812 8.949219 L 9.441406 8.664062 L 9.890625 8.664062 C 9.933594 8.664062 9.976562 8.644531 10.007812 8.613281 L 10.292969 8.332031 L 10.839844 8.332031 L 11.257812 8.609375 L 11.390625 8.871094 L 11.390625 9.332031 C 11.390625 9.394531 11.425781 9.453125 11.480469 9.480469 L 11.816406 9.648438 C 11.863281 9.671875 11.917969 9.671875 11.964844 9.648438 L 12.296875 9.480469 C 12.351562 9.453125 12.390625 9.394531 12.390625 9.332031 L 12.390625 8.832031 C 12.390625 8.804688 12.382812 8.78125 12.371094 8.757812 L 12.089844 8.199219 L 12.292969 7.996094 L 12.554688 7.996094 C 12.601562 7.996094 12.640625 7.980469 12.671875 7.949219 L 13.007812 7.617188 C 13.039062 7.585938 13.054688 7.542969 13.054688 7.496094 L 13.054688 6.871094 L 13.175781 6.632812 L 13.609375 6.488281 C 13.675781 6.464844 13.722656 6.402344 13.722656 6.332031 L 13.722656 6.085938 L 14.113281 5.828125 L 14.734375 5.777344 C 14.824219 5.769531 14.890625 5.699219 14.890625 5.609375 L 14.890625 5.332031 L 15.222656 5.332031 C 15.265625 5.332031 15.304688 5.316406 15.335938 5.285156 L 15.667969 4.980469 C 15.703125 4.949219 15.722656 4.902344 15.722656 4.859375 L 15.722656 4.496094 C 15.722656 4.453125 15.703125 4.410156 15.671875 4.378906 L 15.339844 4.046875 C 15.308594 4.015625 15.265625 3.996094 15.222656 3.996094 L 14.976562 3.996094 L 14.695312 3.570312 C 14.6875 3.5625 14.679688 3.554688 14.671875 3.546875 L 14.507812 3.378906 C 14.476562 3.347656 14.433594 3.332031 14.390625 3.332031 L 14.125 3.332031 L 13.839844 3.046875 C 13.773438 2.980469 13.667969 2.980469 13.605469 3.046875 C 13.59375 3.058594 13.582031 3.074219 13.574219 3.089844 L 13.453125 3.332031 L 13.3125 3.332031 L 13.027344 2.90625 C 13.003906 2.871094 12.96875 2.847656 12.929688 2.835938 L 12.261719 2.667969 C 12.207031 2.65625 12.144531 2.671875 12.105469 2.714844 L 11.769531 3.046875 C 11.738281 3.078125 11.722656 3.121094 11.722656 3.164062 L 11.722656 3.496094 C 11.722656 3.542969 11.738281 3.585938 11.769531 3.617188 L 12.054688 3.898438 L 12.054688 4.429688 L 11.820312 4.664062 L 11.792969 4.664062 L 11.722656 4.59375 L 11.722656 4.332031 C 11.722656 4.265625 11.6875 4.210938 11.628906 4.183594 L 11.320312 4.027344 L 11.007812 3.714844 C 10.976562 3.683594 10.933594 3.664062 10.890625 3.664062 L 10.625 3.664062 L 10.054688 3.09375 L 10.054688 2.996094 L 10.554688 2.996094 C 10.582031 2.996094 10.605469 2.992188 10.628906 2.980469 L 11.296875 2.644531 C 11.3125 2.636719 11.328125 2.628906 11.339844 2.613281 L 11.671875 2.28125 C 11.738281 2.214844 11.738281 2.109375 11.671875 2.046875 L 11.339844 1.710938 C 11.289062 1.660156 11.210938 1.648438 11.148438 1.679688 L 10.515625 1.996094 L 9.929688 1.996094 L 9.332031 1.699219 L 9.148438 1.453125 C 8.167969 1.722656 7.246094 2.121094 6.398438 2.636719 L 6.546875 3.007812 L 6.398438 3.597656 L 6.082031 4.070312 C 6.074219 4.085938 6.066406 4.097656 6.0625 4.113281 L 5.910156 4.574219 L 5.4375 5.046875 C 5.40625 5.078125 5.386719 5.121094 5.386719 5.164062 L 5.386719 5.59375 L 5.105469 5.878906 C 5.074219 5.910156 5.054688 5.953125 5.054688 5.996094 L 5.054688 7.382812 C 5.054688 7.429688 5.074219 7.476562 5.113281 7.507812 L 5.386719 7.742188 L 5.386719 8.164062 C 5.386719 8.207031 5.40625 8.25 5.4375 8.28125 L 5.722656 8.566406 L 5.722656 8.832031 C 5.722656 8.875 5.738281 8.917969 5.769531 8.949219 L 6.054688 9.234375 L 6.054688 9.664062 C 6.054688 9.707031 6.074219 9.75 6.101562 9.78125 L 6.4375 10.117188 C 6.5 10.183594 6.605469 10.183594 6.671875 10.121094 C 6.738281 10.054688 6.742188 9.953125 6.675781 9.882812 C 6.675781 9.882812 6.675781 9.882812 6.671875 9.878906 L 6.386719 9.59375 L 6.386719 9.164062 C 6.386719 9.121094 6.371094 9.078125 6.339844 9.046875 L 6.054688 8.761719 L 6.054688 8.496094 C 6.054688 8.472656 6.050781 8.449219 6.039062 8.425781 L 6.148438 8.480469 C 6.171875 8.492188 6.195312 8.496094 6.222656 8.496094 L 6.453125 8.496094 L 6.738281 9.070312 C 6.742188 9.078125 6.746094 9.085938 6.75 9.089844 L 7.054688 9.546875 L 7.054688 10.332031 C 7.054688 10.375 7.074219 10.417969 7.105469 10.449219 L 7.605469 10.949219 C 7.613281 10.957031 7.621094 10.964844 7.628906 10.96875 L 8.628906 11.636719 C 8.65625 11.65625 8.6875 11.664062 8.722656 11.664062 L 9.003906 11.664062 L 9.464844 11.96875 C 9.480469 11.980469 9.5 11.992188 9.523438 11.996094 L 10.296875 12.148438 L 10.582031 12.511719 L 10.734375 12.894531 C 10.757812 12.957031 10.820312 13 10.890625 13 L 11.722656 13 C 11.738281 13 11.753906 12.996094 11.769531 12.992188 C 11.785156 12.984375 11.800781 12.980469 11.816406 12.96875 C 11.820312 12.964844 11.824219 12.960938 11.828125 12.960938 C 11.832031 12.957031 11.835938 12.953125 11.839844 12.949219 L 12.125 12.664062 L 12.152344 12.664062 L 12.390625 12.898438 L 12.390625 13.761719 L 11.769531 14.378906 C 11.738281 14.410156 11.722656 14.453125 11.722656 14.5 L 11.722656 14.929688 L 11.4375 15.222656 C 11.40625 15.253906 11.390625 15.292969 11.390625 15.335938 L 11.390625 15.722656 C 11.390625 15.757812 11.402344 15.792969 11.421875 15.820312 L 11.738281 16.242188 L 12.0625 17.21875 C 12.074219 17.242188 12.085938 17.265625 12.105469 17.28125 L 12.605469 17.78125 C 12.625 17.804688 12.652344 17.820312 12.683594 17.824219 L 13.304688 17.980469 L 13.722656 18.398438 L 13.722656 19.09375 L 13.4375 19.378906 C 13.40625 19.410156 13.390625 19.453125 13.390625 19.496094 L 13.390625 20.261719 L 13.105469 20.546875 C 13.074219 20.578125 13.054688 20.621094 13.054688 20.664062 L 13.054688 21.097656 L 12.773438 21.378906 C 12.742188 21.410156 12.722656 21.453125 12.722656 21.5 L 12.722656 21.714844 L 12.429688 22.054688 C 12.402344 22.085938 12.390625 22.125 12.390625 22.164062 L 12.390625 22.832031 C 12.390625 22.859375 12.394531 22.882812 12.40625 22.90625 L 12.417969 22.925781 C 12.859375 22.914062 13.296875 22.875 13.722656 22.808594 Z M 13.722656 22.402344 "/>
<path style=" stroke:none;fill-rule:nonzero;fill:rgb(36.862746%,61.176473%,46.27451%);fill-opacity:1;" d="M 12.324219 23.082031 L 12.273438 22.972656 C 12.25 22.929688 12.238281 22.882812 12.238281 22.832031 L 12.238281 22.164062 C 12.238281 22.089844 12.265625 22.015625 12.316406 21.957031 L 12.570312 21.660156 L 12.570312 21.5 C 12.570312 21.414062 12.605469 21.332031 12.664062 21.273438 L 12.90625 21.035156 L 12.90625 20.664062 C 12.90625 20.582031 12.9375 20.5 13 20.441406 L 13.238281 20.199219 L 13.238281 19.5 C 13.238281 19.414062 13.273438 19.335938 13.332031 19.273438 L 13.574219 19.035156 L 13.574219 18.460938 L 13.226562 18.117188 L 12.644531 17.972656 C 12.589844 17.957031 12.539062 17.929688 12.5 17.890625 L 12 17.390625 C 11.964844 17.355469 11.9375 17.3125 11.921875 17.265625 L 11.605469 16.3125 L 11.300781 15.910156 C 11.261719 15.855469 11.238281 15.789062 11.238281 15.722656 L 11.238281 15.339844 C 11.238281 15.253906 11.269531 15.175781 11.328125 15.117188 L 11.570312 14.867188 L 11.570312 14.5 C 11.570312 14.414062 11.605469 14.332031 11.664062 14.273438 L 12.238281 13.699219 L 12.238281 12.960938 L 12.140625 12.863281 L 11.898438 13.09375 C 11.875 13.113281 11.84375 13.125 11.8125 13.136719 C 11.78125 13.144531 11.753906 13.148438 11.722656 13.148438 L 10.886719 13.148438 C 10.757812 13.148438 10.640625 13.070312 10.59375 12.949219 L 10.449219 12.589844 L 10.210938 12.285156 L 9.492188 12.140625 C 9.453125 12.132812 9.414062 12.117188 9.378906 12.09375 L 8.957031 11.816406 L 8.722656 11.816406 C 8.660156 11.816406 8.597656 11.796875 8.546875 11.761719 L 7.546875 11.09375 C 7.527344 11.082031 7.511719 11.070312 7.496094 11.054688 L 6.996094 10.554688 C 6.9375 10.496094 6.90625 10.414062 6.90625 10.332031 L 6.90625 9.59375 L 6.605469 9.136719 L 6.359375 8.648438 L 6.222656 8.648438 C 6.214844 8.648438 6.210938 8.648438 6.203125 8.648438 L 6.203125 8.699219 L 6.445312 8.941406 C 6.503906 9 6.539062 9.082031 6.539062 9.164062 L 6.539062 9.535156 L 6.777344 9.773438 C 6.90625 9.90625 6.902344 10.109375 6.777344 10.230469 C 6.65625 10.34375 6.445312 10.339844 6.328125 10.21875 L 5.996094 9.886719 C 5.9375 9.828125 5.90625 9.75 5.90625 9.664062 L 5.90625 9.296875 L 5.664062 9.054688 C 5.605469 8.996094 5.570312 8.914062 5.570312 8.832031 L 5.570312 8.628906 L 5.332031 8.386719 C 5.269531 8.328125 5.238281 8.25 5.238281 8.164062 L 5.238281 7.8125 L 5.015625 7.621094 C 4.945312 7.5625 4.902344 7.472656 4.902344 7.382812 L 4.902344 5.996094 C 4.90625 5.914062 4.9375 5.832031 4.996094 5.773438 L 5.238281 5.53125 L 5.238281 5.164062 C 5.238281 5.082031 5.273438 5 5.332031 4.941406 L 5.777344 4.492188 L 5.921875 4.0625 C 5.929688 4.039062 5.941406 4.011719 5.957031 3.988281 L 6.261719 3.535156 L 6.390625 3.019531 L 6.210938 2.574219 L 6.320312 2.507812 C 7.183594 1.984375 8.125 1.578125 9.109375 1.308594 L 9.207031 1.28125 L 9.429688 1.582031 L 9.964844 1.847656 L 10.480469 1.847656 L 11.082031 1.546875 C 11.199219 1.488281 11.351562 1.511719 11.445312 1.605469 L 11.78125 1.941406 C 11.839844 2 11.871094 2.078125 11.871094 2.164062 C 11.871094 2.25 11.839844 2.328125 11.78125 2.386719 L 11.445312 2.722656 C 11.421875 2.746094 11.394531 2.765625 11.363281 2.78125 L 10.695312 3.113281 C 10.652344 3.136719 10.605469 3.148438 10.554688 3.148438 L 10.320312 3.148438 L 10.6875 3.515625 L 10.890625 3.515625 C 10.972656 3.515625 11.054688 3.546875 11.113281 3.605469 L 11.410156 3.902344 L 11.699219 4.046875 C 11.804688 4.101562 11.871094 4.210938 11.875 4.332031 L 11.875 4.398438 L 11.90625 4.367188 L 11.90625 3.960938 L 11.664062 3.722656 C 11.605469 3.660156 11.574219 3.582031 11.574219 3.496094 L 11.574219 3.164062 C 11.574219 3.078125 11.605469 3 11.664062 2.941406 L 12 2.605469 C 12.078125 2.527344 12.191406 2.496094 12.300781 2.523438 L 12.964844 2.691406 C 13.042969 2.710938 13.109375 2.753906 13.152344 2.820312 L 13.375 3.152344 L 13.441406 3.023438 C 13.453125 2.992188 13.476562 2.964844 13.5 2.941406 C 13.617188 2.820312 13.828125 2.820312 13.945312 2.941406 L 14.1875 3.179688 L 14.390625 3.179688 C 14.472656 3.179688 14.554688 3.214844 14.613281 3.273438 L 14.78125 3.441406 C 14.796875 3.457031 14.808594 3.472656 14.820312 3.488281 L 15.058594 3.847656 L 15.222656 3.847656 C 15.308594 3.847656 15.386719 3.878906 15.449219 3.941406 L 15.78125 4.273438 C 15.839844 4.332031 15.875 4.414062 15.875 4.496094 L 15.875 4.859375 C 15.875 4.945312 15.835938 5.03125 15.769531 5.089844 L 15.4375 5.398438 C 15.378906 5.449219 15.304688 5.480469 15.222656 5.480469 L 15.039062 5.480469 L 15.039062 5.609375 C 15.039062 5.773438 14.910156 5.914062 14.746094 5.925781 L 14.164062 5.972656 L 13.875 6.167969 L 13.875 6.332031 C 13.875 6.46875 13.785156 6.589844 13.65625 6.632812 L 13.28125 6.757812 L 13.207031 6.90625 L 13.207031 7.496094 C 13.207031 7.582031 13.171875 7.664062 13.113281 7.722656 L 12.78125 8.054688 C 12.71875 8.113281 12.640625 8.148438 12.554688 8.148438 L 12.355469 8.148438 L 12.273438 8.226562 L 12.507812 8.691406 C 12.527344 8.734375 12.539062 8.78125 12.539062 8.832031 L 12.539062 9.332031 C 12.539062 9.453125 12.472656 9.5625 12.363281 9.613281 L 12.03125 9.78125 C 11.941406 9.824219 11.835938 9.824219 11.75 9.78125 L 11.414062 9.613281 C 11.308594 9.5625 11.238281 9.453125 11.238281 9.332031 L 11.238281 8.90625 L 11.144531 8.714844 L 10.792969 8.480469 L 10.351562 8.480469 L 10.113281 8.722656 C 10.054688 8.78125 9.972656 8.816406 9.886719 8.816406 L 9.484375 8.816406 L 9.117188 9.058594 L 8.871094 9.429688 L 8.871094 9.921875 L 9.125 10.429688 L 9.296875 10.515625 L 9.660156 10.515625 L 9.753906 10.230469 C 9.78125 10.152344 9.839844 10.085938 9.914062 10.046875 L 10.246094 9.882812 C 10.289062 9.859375 10.339844 9.847656 10.386719 9.847656 L 10.886719 9.847656 C 11.0625 9.847656 11.207031 9.992188 11.207031 10.164062 L 11.207031 10.5 C 11.207031 10.582031 11.171875 10.664062 11.113281 10.722656 L 10.972656 10.859375 C 11.027344 10.875 11.074219 10.902344 11.113281 10.941406 L 11.777344 11.609375 C 11.839844 11.667969 11.871094 11.75 11.871094 11.832031 L 11.871094 12.238281 C 11.925781 12.203125 11.988281 12.179688 12.054688 12.179688 L 12.222656 12.179688 C 12.304688 12.179688 12.386719 12.214844 12.445312 12.273438 L 12.621094 12.449219 L 13.070312 12.234375 L 13.320312 11.953125 C 13.378906 11.886719 13.464844 11.847656 13.554688 11.847656 L 13.890625 11.847656 C 13.972656 11.847656 14.054688 11.882812 14.113281 11.941406 L 14.355469 12.179688 L 14.554688 12.179688 C 14.640625 12.179688 14.722656 12.214844 14.78125 12.273438 L 15.019531 12.515625 L 15.890625 12.515625 C 15.960938 12.515625 16.03125 12.539062 16.085938 12.582031 L 16.835938 13.179688 L 17.558594 13.179688 C 17.625 13.179688 17.691406 13.203125 17.746094 13.246094 L 18.414062 13.746094 C 18.492188 13.804688 18.539062 13.898438 18.539062 13.996094 L 18.539062 14.179688 L 18.722656 14.179688 C 18.808594 14.179688 18.890625 14.214844 18.949219 14.273438 L 19.1875 14.515625 L 19.890625 14.515625 C 19.941406 14.515625 19.988281 14.527344 20.03125 14.546875 L 20.699219 14.882812 C 20.808594 14.933594 20.875 15.042969 20.875 15.164062 L 20.875 15.832031 C 20.875 15.898438 20.851562 15.96875 20.8125 16.023438 L 19.855469 17.296875 L 19.703125 18.058594 C 19.6875 18.121094 19.660156 18.175781 19.613281 18.222656 L 19.113281 18.722656 C 19.054688 18.78125 18.972656 18.816406 18.890625 18.816406 L 18.355469 18.816406 L 17.875 19.296875 L 17.875 19.5 C 17.875 19.597656 17.828125 19.691406 17.746094 19.753906 L 16.414062 20.753906 C 16.359375 20.792969 16.292969 20.816406 16.222656 20.816406 L 16.019531 20.816406 L 15.78125 21.054688 C 15.71875 21.117188 15.640625 21.148438 15.554688 21.148438 L 15.019531 21.148438 L 14.871094 21.296875 L 14.871094 21.5 C 14.871094 21.582031 14.839844 21.664062 14.777344 21.722656 L 14.445312 22.054688 C 14.386719 22.117188 14.308594 22.148438 14.222656 22.148438 L 14.1875 22.148438 L 13.871094 22.464844 L 13.871094 22.9375 L 13.746094 22.957031 C 13.328125 23.023438 12.882812 23.0625 12.421875 23.078125 Z M 12.0625 12.515625 L 12.1875 12.515625 L 12.257812 12.558594 L 12.539062 12.839844 L 12.539062 13.824219 L 11.878906 14.488281 L 11.871094 14.992188 L 11.542969 15.328125 L 11.539062 15.722656 L 11.882812 16.195312 L 12.207031 17.171875 L 12.710938 17.675781 L 13.378906 17.847656 L 13.871094 18.339844 L 13.871094 19.160156 L 13.542969 19.488281 L 13.539062 20.324219 L 13.210938 20.652344 L 13.207031 21.160156 L 12.878906 21.488281 L 12.871094 21.773438 L 12.542969 22.15625 L 12.539062 22.773438 C 12.894531 22.757812 13.242188 22.726562 13.574219 22.679688 L 13.574219 22.339844 L 14.0625 21.847656 L 14.222656 21.847656 L 14.566406 21.511719 L 14.570312 21.171875 L 14.894531 20.847656 L 15.554688 20.847656 L 15.894531 20.515625 L 16.222656 20.515625 L 17.566406 19.511719 L 17.574219 19.171875 L 18.230469 18.515625 L 18.890625 18.515625 L 19.402344 18.011719 L 19.59375 17.144531 L 20.570312 15.84375 L 20.574219 15.164062 L 19.898438 14.816406 L 19.0625 14.816406 L 18.734375 14.488281 L 18.238281 14.480469 L 18.238281 14 L 17.566406 13.484375 L 16.730469 13.480469 L 15.898438 12.820312 L 14.894531 12.816406 L 14.566406 12.488281 L 14.230469 12.480469 L 13.902344 12.152344 L 13.554688 12.148438 L 13.226562 12.492188 L 12.558594 12.8125 L 12.234375 12.488281 L 12.054688 12.480469 L 11.726562 12.804688 L 11.570312 12.496094 L 11.570312 11.832031 L 10.898438 11.152344 L 10.570312 11.148438 L 10.570312 10.839844 L 10.898438 10.511719 L 10.90625 10.164062 L 10.386719 10.148438 L 10.046875 10.316406 L 9.875 10.816406 L 9.226562 10.816406 L 8.902344 10.652344 L 8.570312 9.992188 L 8.570312 9.335938 L 8.925781 8.828125 L 9.394531 8.515625 L 9.886719 8.515625 L 10.230469 8.183594 L 10.882812 8.183594 L 11.375 8.511719 L 11.539062 8.835938 L 11.539062 9.332031 L 11.882812 9.511719 L 12.230469 9.347656 L 12.238281 8.832031 L 11.910156 8.167969 L 12.230469 7.847656 L 12.554688 7.847656 L 12.898438 7.511719 L 12.90625 6.835938 L 13.066406 6.511719 L 13.5625 6.347656 L 13.574219 6.007812 L 14.0625 5.683594 L 14.722656 5.628906 L 14.738281 5.183594 L 15.222656 5.183594 L 15.566406 4.871094 L 15.574219 4.5 L 15.234375 4.152344 L 14.898438 4.148438 L 14.570312 3.65625 L 14.402344 3.488281 L 14.0625 3.480469 L 13.734375 3.152344 L 13.546875 3.480469 L 13.230469 3.480469 L 12.902344 2.988281 L 12.226562 2.816406 L 11.875 3.152344 L 11.871094 3.496094 L 12.207031 3.835938 L 12.207031 4.492188 L 11.882812 4.8125 L 11.757812 4.8125 L 11.683594 4.769531 L 11.570312 4.65625 L 11.570312 4.332031 L 11.214844 4.132812 L 10.902344 3.820312 L 10.5625 3.816406 L 9.90625 3.15625 L 9.90625 2.847656 L 10.554688 2.847656 L 11.230469 2.511719 L 11.566406 2.175781 L 11.234375 1.820312 L 10.550781 2.148438 L 9.890625 2.148438 L 9.234375 1.816406 L 9.089844 1.625 C 8.207031 1.875 7.367188 2.238281 6.585938 2.699219 L 6.703125 2.996094 L 6.523438 3.679688 L 6.207031 4.152344 L 6.039062 4.65625 L 5.542969 5.152344 L 5.539062 5.65625 L 5.210938 5.984375 L 5.203125 7.378906 L 5.539062 7.671875 L 5.539062 8.164062 L 5.871094 8.503906 L 5.871094 8.832031 L 6.203125 9.171875 L 6.203125 9.664062 L 6.542969 10.007812 L 6.566406 9.984375 L 6.238281 9.65625 L 6.238281 9.164062 L 5.902344 8.824219 L 5.902344 8.496094 L 5.71875 8.101562 L 6.214844 8.34375 L 6.542969 8.347656 L 6.871094 9.003906 L 7.203125 9.5 L 7.203125 10.328125 L 7.707031 10.839844 L 8.710938 11.511719 L 9.046875 11.511719 L 9.542969 11.84375 L 10.378906 12.011719 L 10.71875 12.457031 L 10.871094 12.835938 L 11.71875 12.847656 L 11.738281 12.835938 Z M 12.0625 12.515625 "/>
<path style=" stroke:none;fill-rule:nonzero;fill:rgb(72.941178%,87.843138%,74.117649%);fill-opacity:1;" d="M 15.464844 1.605469 C 14.542969 1.300781 13.570312 1.117188 12.5625 1.074219 L 12.769531 1.28125 C 12.789062 1.300781 12.8125 1.3125 12.835938 1.320312 L 13.285156 1.472656 L 13.753906 2.097656 C 13.765625 2.113281 13.78125 2.125 13.796875 2.136719 L 14.796875 2.800781 C 14.808594 2.8125 14.824219 2.816406 14.835938 2.820312 L 15.335938 2.988281 C 15.355469 2.996094 15.371094 2.996094 15.390625 2.996094 L 15.554688 2.996094 C 15.648438 2.996094 15.722656 2.921875 15.722656 2.832031 C 15.722656 2.808594 15.71875 2.789062 15.710938 2.769531 L 15.390625 1.964844 L 15.390625 1.714844 Z M 15.464844 1.605469 "/>
<path style=" stroke:none;fill-rule:nonzero;fill:rgb(36.862746%,61.176473%,46.27451%);fill-opacity:1;" d="M 15.554688 3.148438 L 15.390625 3.148438 C 15.355469 3.148438 15.320312 3.140625 15.289062 3.132812 L 14.789062 2.964844 C 14.761719 2.957031 14.738281 2.941406 14.714844 2.925781 L 13.714844 2.261719 C 13.683594 2.242188 13.65625 2.21875 13.636719 2.1875 L 13.195312 1.601562 L 12.789062 1.464844 C 12.742188 1.449219 12.699219 1.421875 12.664062 1.386719 L 12.183594 0.90625 L 12.566406 0.921875 C 13.566406 0.96875 14.558594 1.148438 15.507812 1.460938 L 15.695312 1.523438 L 15.539062 1.761719 L 15.539062 1.9375 L 15.847656 2.714844 C 15.863281 2.75 15.871094 2.789062 15.871094 2.832031 C 15.871094 3.003906 15.730469 3.148438 15.554688 3.148438 Z M 13.140625 1.265625 L 13.378906 1.34375 L 13.875 2.007812 L 14.878906 2.679688 L 15.382812 2.847656 L 15.554688 2.847656 C 15.566406 2.847656 15.574219 2.839844 15.574219 2.832031 L 15.238281 1.964844 L 15.238281 1.691406 C 14.554688 1.480469 13.851562 1.335938 13.140625 1.265625 Z M 13.140625 1.265625 "/>
<path style=" stroke:none;fill-rule:nonzero;fill:rgb(72.941178%,87.843138%,74.117649%);fill-opacity:1;" d="M 14.890625 10.996094 L 14.492188 10.996094 L 14.371094 10.757812 C 14.34375 10.699219 14.289062 10.664062 14.226562 10.664062 C 14.132812 10.660156 14.054688 10.734375 14.054688 10.824219 C 14.054688 10.851562 14.058594 10.878906 14.074219 10.90625 L 14.238281 11.238281 C 14.269531 11.296875 14.324219 11.332031 14.390625 11.332031 L 14.890625 11.332031 C 14.980469 11.332031 15.058594 11.257812 15.058594 11.167969 C 15.058594 11.074219 14.984375 11 14.894531 10.996094 C 14.890625 10.996094 14.890625 10.996094 14.890625 10.996094 Z M 14.890625 10.996094 "/>
<path style=" stroke:none;fill-rule:nonzero;fill:rgb(36.862746%,61.176473%,46.27451%);fill-opacity:1;" d="M 14.890625 11.480469 L 14.390625 11.480469 C 14.269531 11.480469 14.160156 11.414062 14.105469 11.304688 L 13.9375 10.972656 C 13.914062 10.925781 13.902344 10.875 13.90625 10.824219 C 13.910156 10.652344 14.050781 10.511719 14.222656 10.511719 C 14.347656 10.515625 14.453125 10.585938 14.507812 10.691406 L 14.585938 10.847656 L 14.890625 10.847656 C 14.980469 10.847656 15.058594 10.882812 15.117188 10.945312 C 15.175781 11.003906 15.210938 11.085938 15.207031 11.167969 C 15.207031 11.339844 15.0625 11.480469 14.890625 11.480469 Z M 14.238281 10.824219 L 14.203125 10.828125 L 14.375 11.171875 L 14.890625 11.183594 C 14.902344 11.183594 14.90625 11.175781 14.90625 11.164062 L 14.398438 11.148438 Z M 14.238281 10.824219 "/>
<path style=" stroke:none;fill-rule:nonzero;fill:rgb(72.941178%,87.843138%,74.117649%);fill-opacity:1;" d="M 13.554688 11.332031 C 13.644531 11.335938 13.722656 11.261719 13.722656 11.167969 C 13.722656 11.167969 13.722656 11.167969 13.722656 11.164062 L 13.722656 10.832031 C 13.722656 10.738281 13.648438 10.664062 13.554688 10.664062 L 13.292969 10.664062 L 13.007812 10.378906 C 12.976562 10.347656 12.933594 10.332031 12.890625 10.332031 L 12.722656 10.332031 C 12.660156 10.332031 12.601562 10.367188 12.574219 10.421875 L 12.507812 10.550781 L 12.339844 10.378906 C 12.308594 10.347656 12.265625 10.332031 12.222656 10.332031 L 11.890625 10.332031 C 11.796875 10.328125 11.722656 10.402344 11.71875 10.496094 C 11.71875 10.585938 11.792969 10.664062 11.882812 10.664062 C 11.886719 10.664062 11.886719 10.664062 11.890625 10.664062 L 12.152344 10.664062 L 12.4375 10.949219 C 12.503906 11.015625 12.609375 11.015625 12.671875 10.949219 C 12.6875 10.9375 12.695312 10.921875 12.703125 10.90625 L 12.824219 10.667969 L 13.105469 10.949219 C 13.136719 10.980469 13.179688 10.996094 13.222656 10.996094 L 13.390625 10.996094 L 13.390625 11.164062 C 13.386719 11.257812 13.460938 11.332031 13.554688 11.332031 Z M 13.554688 11.332031 "/>
<path style=" stroke:none;fill-rule:nonzero;fill:rgb(36.862746%,61.176473%,46.27451%);fill-opacity:1;" d="M 13.554688 11.484375 L 13.550781 11.484375 C 13.375 11.480469 13.234375 11.335938 13.238281 11.164062 L 13.238281 11.148438 L 13.222656 11.148438 C 13.136719 11.148438 13.058594 11.113281 12.996094 11.054688 L 12.863281 10.921875 L 12.839844 10.972656 C 12.824219 11.003906 12.804688 11.03125 12.777344 11.054688 C 12.660156 11.175781 12.453125 11.175781 12.332031 11.054688 L 12.089844 10.816406 L 11.886719 10.816406 C 11.796875 10.8125 11.71875 10.78125 11.660156 10.71875 C 11.601562 10.65625 11.566406 10.578125 11.570312 10.492188 C 11.570312 10.320312 11.714844 10.179688 11.886719 10.179688 L 12.222656 10.179688 C 12.304688 10.179688 12.386719 10.214844 12.445312 10.273438 L 12.472656 10.300781 C 12.53125 10.226562 12.625 10.179688 12.722656 10.179688 L 12.890625 10.179688 C 12.972656 10.179688 13.054688 10.214844 13.113281 10.273438 L 13.351562 10.515625 L 13.554688 10.515625 C 13.730469 10.515625 13.871094 10.65625 13.871094 10.832031 L 13.871094 11.164062 C 13.871094 11.34375 13.726562 11.484375 13.554688 11.484375 Z M 12.851562 10.484375 L 13.210938 10.84375 L 13.539062 10.847656 L 13.539062 11.164062 L 13.554688 11.183594 C 13.566406 11.183594 13.570312 11.175781 13.570312 11.167969 L 13.570312 10.832031 L 13.230469 10.8125 L 12.898438 10.484375 Z M 12.152344 10.515625 L 12.214844 10.515625 L 12.542969 10.84375 L 12.75 10.480469 L 12.722656 10.480469 L 12.550781 10.804688 L 12.234375 10.484375 L 11.890625 10.480469 L 11.894531 10.480469 L 11.898438 10.515625 Z M 12.152344 10.515625 "/>
<path style=" stroke:none;fill-rule:nonzero;fill:rgb(45.490196%,58.823532%,76.862746%);fill-opacity:1;" d="M 12 1.199219 C 14.910156 1.199219 17.628906 2.316406 19.65625 4.34375 C 21.683594 6.371094 22.800781 9.089844 22.800781 12 C 22.800781 17.953125 17.953125 22.800781 12 22.800781 C 6.046875 22.800781 1.199219 17.953125 1.199219 12 C 1.199219 9.089844 2.316406 6.371094 4.34375 4.34375 C 6.371094 2.316406 9.089844 1.199219 12 1.199219 M 12 0.898438 C 5.820312 0.898438 0.898438 5.820312 0.898438 12 C 0.898438 18.179688 5.933594 23.101562 12 23.101562 C 18.066406 23.101562 23.101562 18.179688 23.101562 12 C 23.101562 5.820312 18.179688 0.898438 12 0.898438 Z M 12 0.898438 "/>
</g>
</svg>
