<?xml version="1.0" encoding="UTF-8"?>
<svg xmlns="http://www.w3.org/2000/svg" xmlns:xlink="http://www.w3.org/1999/xlink" width="24pt" height="24pt" viewBox="0 0 24 24" version="1.1">
<g id="surface55444">
<path style=" stroke:none;fill-rule:nonzero;fill:rgb(100%,76.862746%,61.176473%);fill-opacity:1;" d="M 19.59375 22.949219 L 8.101562 22.949219 C 8.101562 22.949219 7.675781 22.707031 7.621094 22.65625 C 6.554688 21.960938 5.800781 21.238281 5.105469 20.382812 C 4.253906 19.042969 2.488281 17.230469 2.488281 11.457031 C 2.488281 8.839844 3.929688 6.113281 6.390625 3.976562 C 8.742188 1.941406 11.628906 0.820312 13.605469 1.089844 C 17.453125 1.675781 22.585938 9.425781 21.625 17.816406 C 21.460938 19.316406 19.929688 22.949219 19.929688 22.949219 Z M 19.59375 22.949219 "/>
<path style=" stroke:none;fill-rule:nonzero;fill:rgb(63.137257%,41.568628%,29.019609%);fill-opacity:1;" d="M 20.027344 23.101562 L 8.058594 23.101562 L 8.023438 23.082031 C 7.859375 22.984375 7.578125 22.820312 7.519531 22.761719 C 6.542969 22.128906 5.753906 21.421875 4.988281 20.480469 C 4.878906 20.308594 4.769531 20.148438 4.648438 19.972656 C 3.730469 18.632812 2.335938 16.601562 2.335938 11.457031 C 2.335938 8.816406 3.777344 6.046875 6.292969 3.859375 C 8.40625 2.035156 10.976562 0.898438 13 0.898438 C 13.21875 0.898438 13.425781 0.914062 13.625 0.941406 C 17.539062 1.539062 22.746094 9.34375 21.773438 17.835938 C 21.609375 19.335938 20.128906 22.859375 20.066406 23.007812 Z M 8.140625 22.800781 L 19.828125 22.800781 C 20.066406 22.226562 21.332031 19.128906 21.472656 17.800781 C 22.429688 9.46875 17.382812 1.816406 13.582031 1.238281 C 13.402344 1.210938 13.203125 1.199219 13 1.199219 C 11.074219 1.199219 8.519531 2.332031 6.488281 4.089844 C 4.039062 6.214844 2.636719 8.902344 2.636719 11.457031 C 2.636719 16.511719 3.996094 18.492188 4.898438 19.804688 C 5.019531 19.980469 5.132812 20.144531 5.230469 20.304688 C 5.964844 21.207031 6.730469 21.898438 7.703125 22.527344 C 7.757812 22.574219 7.960938 22.695312 8.140625 22.800781 Z M 8.140625 22.800781 "/>
<path style=" stroke:none;fill-rule:nonzero;fill:rgb(96.862745%,56.078434%,56.078434%);fill-opacity:1;" d="M 10.613281 9.582031 C 10.613281 9.582031 9.113281 7.550781 7.085938 8.082031 C 5.054688 8.617188 5.589844 11.132812 5.589844 12.148438 C 5.589844 13.160156 6.601562 13.644531 8.101562 13.160156 C 9.597656 12.628906 10.613281 9.582031 10.613281 9.582031 Z M 10.613281 9.582031 "/>
<path style=" stroke:none;fill-rule:nonzero;fill:rgb(78.039217%,26.274511%,26.274511%);fill-opacity:1;" d="M 7.019531 13.5 C 6.042969 13.5 5.4375 12.980469 5.4375 12.148438 C 5.4375 11.996094 5.410156 11.808594 5.414062 11.601562 C 5.425781 10.398438 5.203125 8.421875 7.046875 7.9375 C 7.285156 7.875 7.527344 7.84375 7.769531 7.84375 C 9.5 7.84375 10.683594 9.425781 10.734375 9.492188 L 10.777344 9.554688 L 10.753906 9.628906 C 10.710938 9.757812 9.699219 12.75 8.148438 13.304688 C 7.742188 13.433594 7.363281 13.5 7.019531 13.5 Z M 7.769531 8.144531 C 7.554688 8.144531 7.335938 8.171875 7.125 8.230469 C 5.519531 8.652344 5.636719 10.414062 5.710938 11.582031 C 5.726562 11.796875 5.738281 11.988281 5.738281 12.148438 C 5.738281 12.804688 6.214844 13.199219 7.019531 13.199219 C 7.332031 13.199219 7.679688 13.140625 8.054688 13.019531 C 9.332031 12.5625 10.277344 10.078125 10.441406 9.609375 C 10.210938 9.324219 9.164062 8.144531 7.769531 8.144531 Z M 7.769531 8.144531 "/>
<path style=" stroke:none;fill-rule:nonzero;fill:rgb(96.862745%,56.078434%,56.078434%);fill-opacity:1;" d="M 15.636719 5.550781 C 15.636719 5.550781 12.375 7.207031 13.605469 9.078125 C 14.621094 10.578125 15.742188 10.949219 16.757812 10.949219 C 17.773438 10.949219 19.164062 10.578125 18.683594 9.5625 C 18.203125 8.597656 16.652344 5.550781 15.636719 5.550781 Z M 15.636719 5.550781 "/>
<path style=" stroke:none;fill-rule:nonzero;fill:rgb(78.039217%,26.274511%,26.274511%);fill-opacity:1;" d="M 16.757812 11.101562 C 15.4375 11.101562 14.382812 10.441406 13.5 9.140625 C 13.210938 8.699219 13.152344 8.160156 13.253906 7.757812 C 13.59375 6.40625 15.488281 5.460938 15.570312 5.417969 L 15.601562 5.402344 L 15.636719 5.402344 C 16.398438 5.402344 17.40625 6.695312 18.789062 9.449219 C 18.980469 9.859375 18.890625 10.152344 18.777344 10.328125 C 18.4375 10.867188 17.492188 11.101562 16.757812 11.101562 Z M 15.671875 5.703125 C 15.417969 5.839844 13.824219 6.734375 13.527344 7.855469 C 13.421875 8.253906 13.488281 8.625 13.730469 8.996094 C 14.554688 10.210938 15.542969 10.800781 16.757812 10.800781 C 17.445312 10.800781 18.300781 10.617188 18.554688 10.210938 C 18.660156 10.046875 18.65625 9.855469 18.546875 9.625 C 16.890625 6.316406 16.042969 5.738281 15.671875 5.703125 Z M 15.671875 5.703125 "/>
<path style=" stroke:none;fill-rule:nonzero;fill:rgb(96.862745%,56.078434%,56.078434%);fill-opacity:1;" d="M 8.476562 19.84375 C 8.476562 19.84375 9.976562 17.929688 9.976562 15.898438 C 9.976562 14.027344 10.941406 10.675781 13.933594 11.851562 C 16.445312 12.867188 18.003906 14.179688 18.539062 15.195312 C 19.074219 16.210938 18.554688 17.355469 17.007812 17.355469 C 15.457031 17.355469 12.058594 21.769531 8.476562 19.84375 Z M 8.476562 19.84375 "/>
<path style=" stroke:none;fill-rule:nonzero;fill:rgb(21.176471%,25.098041%,30.19608%);fill-opacity:1;" d="M 7.199219 11.550781 C 7.199219 11.964844 6.863281 12.300781 6.449219 12.300781 C 6.035156 12.300781 5.699219 11.964844 5.699219 11.550781 C 5.699219 11.136719 6.035156 10.800781 6.449219 10.800781 C 6.863281 10.800781 7.199219 11.136719 7.199219 11.550781 Z M 7.199219 11.550781 "/>
<path style=" stroke:none;fill-rule:nonzero;fill:rgb(21.176471%,25.098041%,30.19608%);fill-opacity:1;" d="M 16.800781 7.050781 C 16.800781 7.464844 16.464844 7.800781 16.050781 7.800781 C 15.636719 7.800781 15.300781 7.464844 15.300781 7.050781 C 15.300781 6.636719 15.636719 6.300781 16.050781 6.300781 C 16.464844 6.300781 16.800781 6.636719 16.800781 7.050781 Z M 16.800781 7.050781 "/>
<path style=" stroke:none;fill-rule:nonzero;fill:rgb(63.137257%,41.568628%,29.019609%);fill-opacity:1;" d="M 10.507812 10.398438 L 10.355469 9.976562 C 8.921875 6.097656 3.996094 6.050781 3.945312 6.050781 L 3.621094 6.042969 L 3.621094 5.144531 L 3.945312 5.152344 C 4.175781 5.152344 9.554688 5.203125 11.199219 9.664062 L 11.355469 10.085938 Z M 10.507812 10.398438 "/>
<path style=" stroke:none;fill-rule:nonzero;fill:rgb(63.137257%,41.568628%,29.019609%);fill-opacity:1;" d="M 12.597656 8.101562 L 11.699219 8.097656 L 11.699219 7.648438 C 11.699219 7.492188 11.75 3.792969 16.050781 2.152344 L 16.472656 1.992188 L 16.792969 2.832031 L 16.375 2.992188 C 12.667969 4.40625 12.601562 7.519531 12.601562 7.652344 Z M 12.597656 8.101562 "/>
<path style=" stroke:none;fill-rule:nonzero;fill:rgb(63.137257%,41.568628%,29.019609%);fill-opacity:1;" d="M 11.695312 7.46875 C 10.933594 5.019531 12.160156 3.378906 12.203125 3.320312 L 12.929688 3.851562 C 12.894531 3.898438 12.046875 5.25 12.582031 7.3125 Z M 11.695312 7.46875 "/>
<path style=" stroke:none;fill-rule:nonzero;fill:rgb(99.215686%,99.215686%,99.215686%);fill-opacity:1;" d="M 14.140625 13.800781 C 15.582031 13.800781 15.210938 12.421875 15.15625 12.3125 C 14.78125 12.152344 14.40625 11.9375 14.035156 11.777344 C 13.285156 11.511719 12.699219 11.511719 12.164062 11.671875 C 12.214844 11.671875 12.644531 13.800781 14.140625 13.800781 Z M 14.140625 13.800781 "/>
<path style=" stroke:none;fill-rule:nonzero;fill:rgb(99.215686%,99.215686%,99.215686%);fill-opacity:1;" d="M 17.1875 17.285156 C 17.453125 17.285156 17.777344 17.230469 17.933594 17.125 C 17.722656 16.640625 17.082031 15.304688 16.222656 15.734375 C 15.210938 16.214844 15.261719 18.195312 15.261719 18.195312 C 15.261719 18.195312 14.621094 16.75 13.660156 17.285156 C 12.699219 17.816406 12.644531 19.742188 12.644531 19.742188 C 12.644531 19.742188 12.300781 18.121094 11.144531 18.300781 C 10.132812 18.78125 9.597656 20.171875 9.597656 20.171875 C 12.480469 21.078125 15.796875 17.285156 17.1875 17.285156 Z M 17.1875 17.285156 "/>
<path style=" stroke:none;fill-rule:nonzero;fill:rgb(99.215686%,99.215686%,99.215686%);fill-opacity:1;" d="M 12.109375 14.699219 C 13.015625 14.21875 12.214844 12.097656 12.054688 11.726562 C 11.253906 11.992188 10.71875 12.792969 10.398438 13.703125 C 10.449219 13.757812 10.980469 14.964844 12.109375 14.699219 Z M 12.109375 14.699219 "/>
<path style=" stroke:none;fill-rule:nonzero;fill:rgb(63.137257%,41.568628%,29.019609%);fill-opacity:1;" d="M 2.355469 20.582031 L 2.125 20.03125 C 1.355469 18.183594 1.21875 13.261719 2.160156 10.367188 L 2.347656 9.796875 L 3.488281 10.167969 L 3.300781 10.738281 C 2.46875 13.289062 2.558594 17.953125 3.234375 19.566406 L 3.464844 20.121094 Z M 2.355469 20.582031 "/>
<path style=" stroke:none;fill-rule:nonzero;fill:rgb(63.137257%,41.568628%,29.019609%);fill-opacity:1;" d="M 4.765625 22.800781 L 4.511719 22.257812 C 3.707031 20.558594 2.285156 16.359375 2.636719 12.644531 L 2.695312 12.046875 L 3.886719 12.160156 L 3.832031 12.757812 C 3.527344 15.964844 4.71875 19.890625 5.59375 21.746094 L 5.851562 22.289062 Z M 4.765625 22.800781 "/>
<path style=" stroke:none;fill-rule:nonzero;fill:rgb(78.039217%,26.274511%,26.274511%);fill-opacity:1;" d="M 10.457031 20.398438 C 9.777344 20.398438 9.125 20.257812 8.507812 19.929688 L 8.355469 19.847656 L 8.460938 19.707031 C 8.476562 19.6875 9.925781 17.742188 9.925781 15.789062 C 9.925781 14.039062 10.703125 11.433594 12.84375 11.433594 C 13.230469 11.433594 13.648438 11.519531 14.089844 11.691406 C 16.800781 12.789062 18.195312 14.125 18.683594 15.050781 C 18.964844 15.589844 18.898438 16.234375 18.738281 16.523438 C 18.476562 17 17.992188 17.382812 17.1875 17.382812 C 16.722656 17.382812 16.007812 17.867188 15.179688 18.425781 C 13.863281 19.316406 12.226562 20.398438 10.457031 20.398438 Z M 8.804688 19.742188 C 9.328125 19.996094 9.882812 20.125 10.457031 20.125 C 12.132812 20.125 13.730469 19.046875 15.011719 18.179688 C 15.914062 17.566406 16.628906 17.082031 17.1875 17.082031 C 17.882812 17.082031 18.257812 16.742188 18.480469 16.367188 C 18.671875 16.050781 18.648438 15.632812 18.417969 15.1875 C 17.953125 14.308594 16.613281 13.039062 13.976562 11.96875 C 12.578125 11.421875 11.496094 11.828125 10.820312 13.15625 C 10.449219 13.882812 10.199219 14.867188 10.199219 15.789062 C 10.199219 17.550781 9.148438 19.242188 8.804688 19.742188 Z M 8.804688 19.742188 "/>
</g>
</svg>
