<?xml version="1.0" encoding="UTF-8"?>
<svg xmlns="http://www.w3.org/2000/svg" xmlns:xlink="http://www.w3.org/1999/xlink" width="24pt" height="24pt" viewBox="0 0 24 24" version="1.1">
<g id="surface22331">
<path style=" stroke:none;fill-rule:nonzero;fill:rgb(45.490196%,58.823532%,76.862746%);fill-opacity:1;" d="M 22.800781 2.101562 L 23.398438 2.101562 L 23.398438 22.800781 L 22.800781 22.800781 Z M 22.800781 2.101562 "/>
<path style=" stroke:none;fill-rule:nonzero;fill:rgb(45.490196%,58.823532%,76.862746%);fill-opacity:1;" d="M 19.199219 22.5 L 23.398438 22.5 L 23.398438 23.101562 L 19.199219 23.101562 Z M 19.199219 11.699219 L 23.398438 11.699219 L 23.398438 12.300781 L 19.199219 12.300781 Z M 19.199219 11.699219 "/>
<path style=" stroke:none;fill-rule:nonzero;fill:rgb(78.039217%,26.274511%,26.274511%);fill-opacity:1;" d="M 19.199219 0.898438 L 23.398438 0.898438 L 23.398438 1.5 L 19.199219 1.5 Z M 19.199219 0.898438 "/>
<path style=" stroke:none;fill-rule:nonzero;fill:rgb(45.490196%,58.823532%,76.862746%);fill-opacity:1;" d="M 21 19.800781 L 23.398438 19.800781 L 23.398438 20.398438 L 21 20.398438 Z M 21 17.101562 L 23.398438 17.101562 L 23.398438 17.699219 L 21 17.699219 Z M 21 14.398438 L 23.398438 14.398438 L 23.398438 15 L 21 15 Z M 21 14.398438 "/>
<path style=" stroke:none;fill-rule:nonzero;fill:rgb(78.039217%,26.274511%,26.274511%);fill-opacity:1;" d="M 21 6.300781 L 23.398438 6.300781 L 23.398438 6.898438 L 21 6.898438 Z M 21 9 L 23.398438 9 L 23.398438 9.601562 L 21 9.601562 Z M 21 9 "/>
<path style=" stroke:none;fill-rule:nonzero;fill:rgb(78.039217%,26.274511%,26.274511%);fill-opacity:1;" d="M 22.800781 1.199219 L 23.398438 1.199219 L 23.398438 9.601562 L 22.800781 9.601562 Z M 22.800781 1.199219 "/>
<path style=" stroke:none;fill-rule:nonzero;fill:rgb(78.039217%,26.274511%,26.274511%);fill-opacity:1;" d="M 21 3.601562 L 23.398438 3.601562 L 23.398438 4.199219 L 21 4.199219 Z M 21 3.601562 "/>
<path style=" stroke:none;fill-rule:nonzero;fill:rgb(30.588236%,47.843137%,70.980394%);fill-opacity:1;" d="M 11.101562 20.101562 L 13.5 23.101562 L 15.898438 20.101562 Z M 5.699219 20.101562 L 8.101562 23.101562 L 10.5 20.101562 Z M 0.300781 20.101562 L 2.699219 23.101562 L 5.101562 20.101562 Z M 13.800781 20.101562 L 13.199219 20.101562 C 13.199219 16.800781 13.199219 15 14.910156 11.339844 C 17.128906 6.539062 17.398438 5.460938 17.398438 0.898438 L 18 0.898438 C 18 5.578125 17.730469 6.691406 15.449219 11.578125 C 13.800781 15.121094 13.800781 16.890625 13.800781 20.101562 Z M 8.398438 20.101562 L 7.800781 20.101562 C 7.800781 16.800781 7.800781 15 9.511719 11.339844 C 11.730469 6.539062 12 5.460938 12 0.898438 L 12.601562 0.898438 C 12.601562 5.578125 12.328125 6.691406 10.050781 11.578125 C 8.398438 15.121094 8.398438 16.890625 8.398438 20.101562 Z M 3 20.101562 L 2.398438 20.101562 C 2.398438 16.800781 2.398438 15 4.109375 11.339844 C 6.328125 6.539062 6.601562 5.460938 6.601562 0.898438 L 7.199219 0.898438 C 7.199219 5.578125 6.929688 6.691406 4.648438 11.578125 C 3 15.121094 3 16.890625 3 20.101562 Z M 3 20.101562 "/>
</g>
</svg>
