<?xml version="1.0" encoding="UTF-8"?>
<svg xmlns="http://www.w3.org/2000/svg" xmlns:xlink="http://www.w3.org/1999/xlink" width="24pt" height="24pt" viewBox="0 0 24 24" version="1.1">
<g id="surface4729">
<path style=" stroke:none;fill-rule:nonzero;fill:rgb(88.235295%,92.156863%,94.901961%);fill-opacity:1;" d="M 17.761719 21.75 L 2.550781 21.75 L 2.550781 19.648438 L 17.761719 19.648438 C 19.296875 19.648438 20.550781 18.371094 20.550781 16.800781 C 20.550781 15.230469 19.296875 13.949219 17.761719 13.949219 L 6.238281 13.949219 C 3.542969 13.949219 1.351562 11.730469 1.351562 9 C 1.351562 6.269531 3.542969 4.050781 6.238281 4.050781 L 15.273438 4.050781 L 15.273438 6.148438 L 6.238281 6.148438 C 4.703125 6.148438 3.449219 7.429688 3.449219 9 C 3.449219 10.570312 4.703125 11.851562 6.238281 11.851562 L 17.761719 11.851562 C 20.457031 11.851562 22.648438 14.070312 22.648438 16.800781 C 22.648438 19.53125 20.457031 21.75 17.761719 21.75 Z M 17.761719 21.75 "/>
<path style=" stroke:none;fill-rule:nonzero;fill:rgb(47.058824%,54.509807%,61.176473%);fill-opacity:1;" d="M 17.761719 21.898438 L 2.398438 21.898438 L 2.398438 19.5 L 17.761719 19.5 C 19.214844 19.5 20.398438 18.289062 20.398438 16.800781 C 20.398438 15.3125 19.214844 14.101562 17.761719 14.101562 L 6.238281 14.101562 C 3.460938 14.101562 1.199219 11.8125 1.199219 9 C 1.199219 6.1875 3.460938 3.898438 6.238281 3.898438 L 15.421875 3.898438 L 15.421875 6.300781 L 6.238281 6.300781 C 4.785156 6.300781 3.601562 7.511719 3.601562 9 C 3.601562 10.488281 4.785156 11.699219 6.238281 11.699219 L 17.761719 11.699219 C 20.539062 11.699219 22.800781 13.988281 22.800781 16.800781 C 22.800781 19.613281 20.539062 21.898438 17.761719 21.898438 Z M 2.699219 21.601562 L 17.761719 21.601562 C 20.375 21.601562 22.5 19.445312 22.5 16.800781 C 22.5 14.152344 20.375 12 17.761719 12 L 6.238281 12 C 4.617188 12 3.300781 10.652344 3.300781 9 C 3.300781 7.347656 4.617188 6 6.238281 6 L 15.121094 6 L 15.121094 4.199219 L 6.238281 4.199219 C 3.625 4.199219 1.5 6.351562 1.5 9 C 1.5 11.648438 3.625 13.800781 6.238281 13.800781 L 17.761719 13.800781 C 19.382812 13.800781 20.699219 15.144531 20.699219 16.800781 C 20.699219 18.453125 19.382812 19.800781 17.761719 19.800781 L 2.699219 19.800781 Z M 2.699219 21.601562 "/>
<path style=" stroke:none;fill-rule:nonzero;fill:rgb(100%,93.333334%,63.921571%);fill-opacity:1;" d="M 20.84375 6.308594 L 19.082031 5.71875 L 19.082031 4.542969 L 20.84375 3.957031 L 22.019531 5.132812 Z M 20.84375 6.308594 "/>
<path style=" stroke:none;fill-rule:nonzero;fill:rgb(72.941178%,60.784316%,28.235295%);fill-opacity:1;" d="M 20.882812 6.480469 L 18.929688 5.828125 L 18.929688 4.4375 L 20.882812 3.785156 L 22.230469 5.132812 Z M 19.230469 5.613281 L 20.804688 6.136719 L 21.808594 5.132812 L 20.804688 4.128906 L 19.230469 4.652344 Z M 19.230469 5.613281 "/>
<path style=" stroke:none;fill-rule:nonzero;fill:rgb(100%,93.333334%,63.921571%);fill-opacity:1;" d="M 13.851562 3.75 L 18.554688 3.75 L 18.554688 6.449219 L 13.851562 6.449219 Z M 13.851562 3.75 "/>
<path style=" stroke:none;fill-rule:nonzero;fill:rgb(72.941178%,60.784316%,28.235295%);fill-opacity:1;" d="M 18.703125 6.601562 L 13.703125 6.601562 L 13.703125 3.601562 L 18.703125 3.601562 Z M 14.003906 6.300781 L 18.402344 6.300781 L 18.402344 3.898438 L 14.003906 3.898438 Z M 14.003906 6.300781 "/>
<path style=" stroke:none;fill-rule:nonzero;fill:rgb(69.01961%,75.686276%,83.137256%);fill-opacity:1;" d="M 17.851562 3.75 L 19.050781 3.75 L 19.050781 6.449219 L 17.851562 6.449219 Z M 17.851562 3.75 "/>
<path style=" stroke:none;fill-rule:nonzero;fill:rgb(40.000001%,47.450981%,56.078434%);fill-opacity:1;" d="M 19.199219 6.601562 L 17.699219 6.601562 L 17.699219 3.601562 L 19.199219 3.601562 Z M 18 6.300781 L 18.898438 6.300781 L 18.898438 3.898438 L 18 3.898438 Z M 18 6.300781 "/>
<path style=" stroke:none;fill-rule:nonzero;fill:rgb(69.01961%,75.686276%,83.137256%);fill-opacity:1;" d="M 15.449219 3.75 L 16.648438 3.75 L 16.648438 6.449219 L 15.449219 6.449219 Z M 15.449219 3.75 "/>
<path style=" stroke:none;fill-rule:nonzero;fill:rgb(40.000001%,47.450981%,56.078434%);fill-opacity:1;" d="M 16.800781 6.601562 L 15.300781 6.601562 L 15.300781 3.601562 L 16.800781 3.601562 Z M 15.601562 6.300781 L 16.5 6.300781 L 16.5 3.898438 L 15.601562 3.898438 Z M 15.601562 6.300781 "/>
<path style=" stroke:none;fill-rule:nonzero;fill:rgb(77.254903%,83.137256%,87.058824%);fill-opacity:1;" d="M 6.148438 3.148438 L 14.25 3.148438 L 14.25 7.050781 L 6.148438 7.050781 Z M 6.148438 3.148438 "/>
<path style=" stroke:none;fill-rule:nonzero;fill:rgb(47.058824%,54.509807%,61.176473%);fill-opacity:1;" d="M 14.398438 7.199219 L 6 7.199219 L 6 3 L 14.398438 3 Z M 6.300781 6.898438 L 14.101562 6.898438 L 14.101562 3.300781 L 6.300781 3.300781 Z M 6.300781 6.898438 "/>
<path style=" stroke:none;fill-rule:nonzero;fill:rgb(88.235295%,92.156863%,94.901961%);fill-opacity:1;" d="M 2.398438 19.800781 L 3 19.800781 L 3 21.601562 L 2.398438 21.601562 Z M 2.398438 19.800781 "/>
</g>
</svg>
