<?xml version="1.0" encoding="UTF-8"?>
<svg xmlns="http://www.w3.org/2000/svg" xmlns:xlink="http://www.w3.org/1999/xlink" width="24pt" height="24pt" viewBox="0 0 24 24" version="1.1">
<g id="surface35758">
<path style=" stroke:none;fill-rule:nonzero;fill:rgb(47.058824%,54.509807%,61.176473%);fill-opacity:1;" d="M 3.898438 2.5 L 4.800781 2.5 L 4.800781 3.398438 L 3.898438 3.398438 Z M 3.898438 2.5 "/>
<path style=" stroke:none;fill-rule:nonzero;fill:rgb(47.058824%,54.509807%,61.176473%);fill-opacity:1;" d="M 4.800781 20.699219 L 3.898438 20.699219 L 3.898438 18.601562 L 4.800781 18.601562 Z M 4.800781 17.699219 L 3.898438 17.699219 L 3.898438 15.601562 L 4.800781 15.601562 Z M 4.800781 14.699219 L 3.898438 14.699219 L 3.898438 12.601562 L 4.800781 12.601562 Z M 4.800781 11.699219 L 3.898438 11.699219 L 3.898438 9.898438 L 4.800781 9.898438 Z M 4.800781 9 L 3.898438 9 L 3.898438 7.199219 L 4.800781 7.199219 Z M 4.800781 6.300781 L 3.898438 6.300781 L 3.898438 4.359375 L 4.800781 4.359375 Z M 4.800781 6.300781 "/>
<path style=" stroke:none;fill-rule:nonzero;fill:rgb(47.058824%,54.509807%,61.176473%);fill-opacity:1;" d="M 3.898438 23.371094 L 3.898438 21.601562 L 4.800781 21.601562 L 4.800781 21.628906 L 4.824219 21.613281 L 5.34375 22.347656 Z M 3.898438 23.371094 "/>
<path style=" stroke:none;fill-rule:nonzero;fill:rgb(47.058824%,54.509807%,61.176473%);fill-opacity:1;" d="M 6.121094 21.796875 L 5.597656 21.0625 L 7.148438 19.960938 L 7.671875 20.695312 Z M 8.445312 20.144531 L 7.925781 19.410156 L 9.476562 18.308594 L 9.996094 19.042969 Z M 10.773438 18.492188 L 10.25 17.757812 L 11.800781 16.660156 L 12.324219 17.390625 Z M 13.097656 16.839844 L 12.578125 16.109375 L 14.128906 15.007812 L 14.648438 15.742188 Z M 15.425781 15.191406 L 14.902344 14.457031 L 16.453125 13.355469 L 16.976562 14.089844 Z M 17.75 13.539062 L 17.230469 12.804688 L 18.78125 11.703125 L 19.300781 12.4375 Z M 17.75 13.539062 "/>
<path style=" stroke:none;fill-rule:nonzero;fill:rgb(47.058824%,54.509807%,61.176473%);fill-opacity:1;" d="M 20.289062 10.632812 L 20.808594 11.367188 L 20.078125 11.886719 L 19.554688 11.15625 Z M 20.289062 10.632812 "/>
<path style=" stroke:none;fill-rule:nonzero;fill:rgb(54.509807%,71.764708%,94.117647%);fill-opacity:1;" d="M 6.75 3.148438 C 6.75 4.476562 5.675781 5.550781 4.351562 5.550781 C 3.023438 5.550781 1.949219 4.476562 1.949219 3.148438 C 1.949219 1.824219 3.023438 0.75 4.351562 0.75 C 5.675781 0.75 6.75 1.824219 6.75 3.148438 Z M 6.75 3.148438 "/>
<path style=" stroke:none;fill-rule:nonzero;fill:rgb(30.588236%,47.843137%,70.980394%);fill-opacity:1;" d="M 4.351562 5.699219 C 2.945312 5.699219 1.800781 4.554688 1.800781 3.148438 C 1.800781 1.742188 2.945312 0.601562 4.351562 0.601562 C 5.757812 0.601562 6.898438 1.742188 6.898438 3.148438 C 6.898438 4.554688 5.757812 5.699219 4.351562 5.699219 Z M 4.351562 0.898438 C 3.109375 0.898438 2.101562 1.910156 2.101562 3.148438 C 2.101562 4.390625 3.109375 5.398438 4.351562 5.398438 C 5.589844 5.398438 6.601562 4.390625 6.601562 3.148438 C 6.601562 1.910156 5.589844 0.898438 4.351562 0.898438 Z M 4.351562 0.898438 "/>
<path style=" stroke:none;fill-rule:nonzero;fill:rgb(77.254903%,83.137256%,87.058824%);fill-opacity:1;" d="M 22.351562 11.25 C 22.351562 12.574219 21.277344 13.648438 19.949219 13.648438 C 18.625 13.648438 17.550781 12.574219 17.550781 11.25 C 17.550781 9.925781 18.625 8.851562 19.949219 8.851562 C 21.277344 8.851562 22.351562 9.925781 22.351562 11.25 Z M 22.351562 11.25 "/>
<path style=" stroke:none;fill-rule:nonzero;fill:rgb(47.058824%,54.509807%,61.176473%);fill-opacity:1;" d="M 19.949219 13.800781 C 18.542969 13.800781 17.398438 12.65625 17.398438 11.25 C 17.398438 9.84375 18.542969 8.699219 19.949219 8.699219 C 21.355469 8.699219 22.5 9.84375 22.5 11.25 C 22.5 12.65625 21.355469 13.800781 19.949219 13.800781 Z M 19.949219 9 C 18.710938 9 17.699219 10.007812 17.699219 11.25 C 17.699219 12.492188 18.710938 13.5 19.949219 13.5 C 21.191406 13.5 22.199219 12.492188 22.199219 11.25 C 22.199219 10.007812 21.191406 9 19.949219 9 Z M 19.949219 9 "/>
<path style=" stroke:none;fill-rule:nonzero;fill:rgb(86.274511%,83.529413%,94.901961%);fill-opacity:1;" d="M 12.539062 11.773438 C 10.5625 10.214844 8.144531 9.359375 5.609375 9.15625 L 5.550781 9.15625 L 5.550781 10.660156 C 7.707031 10.84375 9.765625 11.546875 11.46875 12.84375 L 10.0625 14.25 L 13.949219 14.25 L 13.949219 10.359375 Z M 12.539062 11.773438 "/>
<path style=" stroke:none;fill-rule:nonzero;fill:rgb(54.509807%,45.882353%,63.137257%);fill-opacity:1;" d="M 14.101562 14.398438 L 9.699219 14.398438 L 11.238281 12.859375 C 9.65625 11.699219 7.691406 10.992188 5.539062 10.808594 L 5.398438 10.796875 L 5.398438 9 L 5.617188 9.007812 C 8.234375 9.214844 10.617188 10.101562 12.527344 11.570312 L 14.101562 10 Z M 10.421875 14.101562 L 13.800781 14.101562 L 13.800781 10.722656 L 12.550781 11.972656 L 12.445312 11.890625 C 10.589844 10.425781 8.261719 9.539062 5.699219 9.316406 L 5.699219 10.519531 C 7.917969 10.734375 9.941406 11.492188 11.558594 12.722656 L 11.695312 12.828125 Z M 10.421875 14.101562 "/>
</g>
</svg>
