<?xml version="1.0" encoding="UTF-8"?>
<svg xmlns="http://www.w3.org/2000/svg" xmlns:xlink="http://www.w3.org/1999/xlink" width="24pt" height="24pt" viewBox="0 0 24 24" version="1.1">
<g id="surface40623">
<path style=" stroke:none;fill-rule:nonzero;fill:rgb(94.901961%,98.039216%,100%);fill-opacity:1;" d="M 0.148438 19.351562 L 0.148438 5.25 L 22.648438 5.25 L 22.648438 8.25 L 23.851562 8.25 L 23.851562 16.351562 L 22.648438 16.351562 L 22.648438 19.351562 Z M 0.148438 19.351562 "/>
<path style=" stroke:none;fill-rule:nonzero;fill:rgb(47.058824%,54.509807%,61.176473%);fill-opacity:1;" d="M 22.5 5.398438 L 22.5 8.398438 L 23.699219 8.398438 L 23.699219 16.199219 L 22.5 16.199219 L 22.5 19.199219 L 0.300781 19.199219 L 0.300781 5.398438 L 22.5 5.398438 M 22.800781 5.101562 L 0 5.101562 L 0 19.5 L 22.800781 19.5 L 22.800781 16.5 L 24 16.5 L 24 8.101562 L 22.800781 8.101562 Z M 22.800781 5.101562 "/>
<path style=" stroke:none;fill-rule:nonzero;fill:rgb(65.882355%,87.058824%,100%);fill-opacity:1;" d="M 0.300781 5.398438 L 12.300781 5.398438 L 12.300781 19.199219 L 0.300781 19.199219 Z M 0.300781 5.398438 "/>
</g>
</svg>
