<?xml version="1.0" encoding="UTF-8"?>
<svg xmlns="http://www.w3.org/2000/svg" xmlns:xlink="http://www.w3.org/1999/xlink" width="24pt" height="24pt" viewBox="0 0 24 24" version="1.1">
<g id="surface51526">
<path style=" stroke:none;fill-rule:nonzero;fill:rgb(54.509807%,71.764708%,94.117647%);fill-opacity:1;" d="M 5.480469 23.550781 C 5.765625 23.027344 5.851562 21.949219 5.851562 21.300781 L 5.851562 6.300781 C 5.851562 3.257812 8.308594 1.050781 11.699219 1.050781 C 14.691406 1.050781 16.949219 2.910156 16.949219 5.378906 C 16.949219 6.957031 16.277344 8.113281 14.945312 8.8125 L 14.671875 8.957031 L 14.953125 9.082031 C 17.507812 10.214844 18.75 11.933594 18.75 14.335938 C 18.75 17.429688 16.570312 20.550781 11.699219 20.550781 C 10.894531 20.550781 9.847656 20.339844 8.75 19.957031 L 8.550781 19.890625 L 8.550781 21.300781 C 8.550781 22.761719 8.230469 23.550781 8.101562 23.550781 Z M 11.699219 2.550781 C 9.992188 2.550781 8.550781 4.265625 8.550781 6.300781 L 8.550781 17.75 L 8.578125 17.789062 C 9.078125 18.472656 10.507812 19.050781 11.699219 19.050781 C 14.519531 19.050781 16.644531 16.9375 16.644531 14.132812 C 16.644531 11.570312 14.757812 9.980469 13.761719 9.496094 L 13.707031 9.46875 L 13.652344 9.488281 C 13.214844 9.628906 12.304688 9.75 11.699219 9.75 C 11.285156 9.75 10.949219 9.414062 10.949219 9 C 10.949219 8.585938 11.285156 8.25 11.699219 8.25 C 12.386719 8.25 12.976562 8.332031 13.605469 8.515625 L 13.707031 8.542969 L 13.859375 8.339844 C 14.347656 7.710938 14.851562 7.0625 14.851562 5.699219 C 14.851562 3.84375 13.191406 2.550781 11.699219 2.550781 Z M 11.699219 2.550781 "/>
<path style=" stroke:none;fill-rule:nonzero;fill:rgb(30.588236%,47.843137%,70.980394%);fill-opacity:1;" d="M 11.699219 1.199219 C 14.609375 1.199219 16.800781 2.996094 16.800781 5.378906 C 16.800781 6.898438 16.152344 8.007812 14.875 8.679688 L 14.328125 8.96875 L 14.894531 9.21875 C 17.386719 10.324219 18.601562 12 18.601562 14.335938 C 18.601562 17.355469 16.464844 20.398438 11.699219 20.398438 C 10.910156 20.398438 9.878906 20.191406 8.796875 19.816406 L 8.398438 19.679688 L 8.398438 21.300781 C 8.398438 22.507812 8.179688 23.246094 8.050781 23.398438 L 5.714844 23.398438 C 5.980469 22.699219 6 21.601562 6 21.300781 L 6 6.300781 C 6 3.34375 8.398438 1.199219 11.699219 1.199219 M 11.699219 19.199219 C 14.605469 19.199219 16.792969 17.019531 16.792969 14.132812 C 16.792969 11.496094 14.855469 9.859375 13.828125 9.359375 L 13.71875 9.308594 L 13.605469 9.34375 C 13.183594 9.480469 12.292969 9.601562 11.699219 9.601562 C 11.367188 9.601562 11.101562 9.332031 11.101562 9 C 11.101562 8.667969 11.367188 8.398438 11.699219 8.398438 C 12.371094 8.398438 12.945312 8.480469 13.566406 8.660156 L 13.761719 8.714844 L 13.886719 8.550781 L 13.980469 8.433594 C 14.480469 7.785156 15 7.113281 15 5.699219 C 15 3.753906 13.261719 2.398438 11.699219 2.398438 C 9.910156 2.398438 8.398438 4.1875 8.398438 6.300781 L 8.398438 17.796875 L 8.457031 17.875 C 8.980469 18.59375 10.464844 19.199219 11.699219 19.199219 M 11.699219 0.898438 C 8.300781 0.898438 5.699219 3.148438 5.699219 6.300781 L 5.699219 21.300781 C 5.699219 22.625 5.429688 23.699219 5.101562 23.699219 L 8.101562 23.699219 C 8.429688 23.699219 8.699219 22.625 8.699219 21.300781 L 8.699219 20.101562 C 9.132812 20.25 10.480469 20.699219 11.699219 20.699219 C 16.460938 20.699219 18.898438 17.707031 18.898438 14.335938 C 18.898438 11.632812 17.328125 9.972656 15.015625 8.945312 C 16.355469 8.242188 17.101562 7.046875 17.101562 5.378906 C 17.101562 2.902344 14.851562 0.898438 11.699219 0.898438 Z M 11.699219 18.898438 C 10.5 18.898438 9.136719 18.300781 8.699219 17.699219 L 8.699219 6.898438 C 8.699219 6.898438 8.699219 6.4375 8.699219 6.300781 C 8.699219 4.273438 10.132812 2.699219 11.699219 2.699219 C 13.125 2.699219 14.699219 3.929688 14.699219 5.699219 C 14.699219 7.09375 14.160156 7.703125 13.648438 8.371094 C 12.914062 8.15625 12.292969 8.101562 11.699219 8.101562 C 11.203125 8.101562 10.800781 8.503906 10.800781 9 C 10.800781 9.496094 11.203125 9.898438 11.699219 9.898438 C 12.285156 9.898438 13.214844 9.785156 13.695312 9.628906 C 14.835938 10.183594 16.496094 11.804688 16.496094 14.132812 C 16.496094 16.742188 14.558594 18.898438 11.699219 18.898438 Z M 11.699219 18.898438 "/>
</g>
</svg>
