<?xml version="1.0" encoding="UTF-8"?>
<svg xmlns="http://www.w3.org/2000/svg" xmlns:xlink="http://www.w3.org/1999/xlink" width="24pt" height="24pt" viewBox="0 0 24 24" version="1.1">
<g id="surface24037">
<path style=" stroke:none;fill-rule:nonzero;fill:rgb(100%,100%,100%);fill-opacity:1;" d="M 3.75 22.648438 L 3.75 1.351562 L 14.941406 1.351562 L 20.25 6.660156 L 20.25 22.648438 Z M 3.75 22.648438 "/>
<path style=" stroke:none;fill-rule:nonzero;fill:rgb(47.058824%,54.509807%,61.176473%);fill-opacity:1;" d="M 14.878906 1.5 L 20.101562 6.71875 L 20.101562 22.5 L 3.898438 22.5 L 3.898438 1.5 L 14.878906 1.5 M 15 1.199219 L 3.601562 1.199219 L 3.601562 22.800781 L 20.398438 22.800781 L 20.398438 6.601562 Z M 15 1.199219 "/>
<path style=" stroke:none;fill-rule:nonzero;fill:rgb(100%,100%,100%);fill-opacity:1;" d="M 14.851562 6.75 L 14.851562 1.351562 L 14.941406 1.351562 L 20.25 6.660156 L 20.25 6.75 Z M 14.851562 6.75 "/>
<path style=" stroke:none;fill-rule:nonzero;fill:rgb(47.058824%,54.509807%,61.176473%);fill-opacity:1;" d="M 15 1.621094 L 19.980469 6.601562 L 15 6.601562 L 15 1.621094 M 15 1.199219 L 14.699219 1.199219 L 14.699219 6.898438 L 20.398438 6.898438 L 20.398438 6.601562 Z M 9 13.800781 L 8.398438 13.800781 L 8.398438 11.398438 L 8.101562 11.398438 L 8.101562 10.800781 L 9 10.800781 Z M 11.699219 13.800781 C 11.191406 13.800781 10.800781 13.410156 10.800781 12.898438 L 10.800781 11.699219 C 10.800781 11.191406 11.191406 10.800781 11.699219 10.800781 C 12.210938 10.800781 12.601562 11.191406 12.601562 11.699219 L 12.601562 12.898438 C 12.601562 13.410156 12.210938 13.800781 11.699219 13.800781 Z M 11.699219 11.398438 C 11.519531 11.398438 11.398438 11.519531 11.398438 11.699219 L 11.398438 12.898438 C 11.398438 13.078125 11.519531 13.199219 11.699219 13.199219 C 11.878906 13.199219 12 13.078125 12 12.898438 L 12 11.699219 C 12 11.519531 11.878906 11.398438 11.699219 11.398438 Z M 15.300781 13.800781 C 14.789062 13.800781 14.398438 13.410156 14.398438 12.898438 L 14.398438 11.699219 C 14.398438 11.191406 14.789062 10.800781 15.300781 10.800781 C 15.808594 10.800781 16.199219 11.191406 16.199219 11.699219 L 16.199219 12.898438 C 16.199219 13.410156 15.808594 13.800781 15.300781 13.800781 Z M 15.300781 11.398438 C 15.121094 11.398438 15 11.519531 15 11.699219 L 15 12.898438 C 15 13.078125 15.121094 13.199219 15.300781 13.199219 C 15.480469 13.199219 15.601562 13.078125 15.601562 12.898438 L 15.601562 11.699219 C 15.601562 11.519531 15.480469 11.398438 15.300781 11.398438 Z M 16.199219 18 L 15.601562 18 L 15.601562 15.601562 L 15.300781 15.601562 L 15.300781 15 L 16.199219 15 Z M 12.300781 18 C 11.789062 18 11.398438 17.609375 11.398438 17.101562 L 11.398438 15.898438 C 11.398438 15.390625 11.789062 15 12.300781 15 C 12.808594 15 13.199219 15.390625 13.199219 15.898438 L 13.199219 17.101562 C 13.199219 17.609375 12.808594 18 12.300781 18 Z M 12.300781 15.601562 C 12.121094 15.601562 12 15.71875 12 15.898438 L 12 17.101562 C 12 17.28125 12.121094 17.398438 12.300781 17.398438 C 12.480469 17.398438 12.601562 17.28125 12.601562 17.101562 L 12.601562 15.898438 C 12.601562 15.71875 12.480469 15.601562 12.300781 15.601562 Z M 8.699219 18 C 8.191406 18 7.800781 17.609375 7.800781 17.101562 L 7.800781 15.898438 C 7.800781 15.390625 8.191406 15 8.699219 15 C 9.210938 15 9.601562 15.390625 9.601562 15.898438 L 9.601562 17.101562 C 9.601562 17.609375 9.210938 18 8.699219 18 Z M 8.699219 15.601562 C 8.519531 15.601562 8.398438 15.71875 8.398438 15.898438 L 8.398438 17.101562 C 8.398438 17.28125 8.519531 17.398438 8.699219 17.398438 C 8.878906 17.398438 9 17.28125 9 17.101562 L 9 15.898438 C 9 15.71875 8.878906 15.601562 8.699219 15.601562 Z M 8.699219 15.601562 "/>
</g>
</svg>
