<?xml version="1.0" encoding="UTF-8"?>
<svg xmlns="http://www.w3.org/2000/svg" xmlns:xlink="http://www.w3.org/1999/xlink" width="24pt" height="24pt" viewBox="0 0 24 24" version="1.1">
<g id="surface30462">
<path style=" stroke:none;fill-rule:nonzero;fill:rgb(100%,93.333334%,63.921571%);fill-opacity:1;" d="M 9.148438 13.949219 L 10.351562 13.949219 L 10.351562 22.648438 L 9.148438 22.648438 Z M 9.148438 13.949219 "/>
<path style=" stroke:none;fill-rule:nonzero;fill:rgb(96.078432%,76.078433%,46.27451%);fill-opacity:1;" d="M 10.199219 14.101562 L 10.199219 22.5 L 9.300781 22.5 L 9.300781 14.101562 L 10.199219 14.101562 M 10.5 13.800781 L 9 13.800781 L 9 22.800781 L 10.5 22.800781 Z M 10.5 13.800781 "/>
<path style=" stroke:none;fill-rule:nonzero;fill:rgb(100%,93.333334%,63.921571%);fill-opacity:1;" d="M 13.648438 13.949219 L 14.851562 13.949219 L 14.851562 22.648438 L 13.648438 22.648438 Z M 13.648438 13.949219 "/>
<path style=" stroke:none;fill-rule:nonzero;fill:rgb(96.078432%,76.078433%,46.27451%);fill-opacity:1;" d="M 14.699219 14.101562 L 14.699219 22.5 L 13.800781 22.5 L 13.800781 14.101562 L 14.699219 14.101562 M 15 13.800781 L 13.5 13.800781 L 13.5 22.800781 L 15 22.800781 Z M 15 13.800781 "/>
<path style=" stroke:none;fill-rule:nonzero;fill:rgb(54.509807%,71.764708%,94.117647%);fill-opacity:1;" d="M 7.800781 14.550781 C 7.222656 14.550781 6.75 14.078125 6.75 13.5 L 6.75 12.742188 C 7.425781 12.667969 7.949219 12.09375 7.949219 11.398438 C 7.949219 10.707031 7.425781 10.132812 6.75 10.058594 L 6.75 2.398438 C 6.75 1.820312 7.222656 1.351562 7.800781 1.351562 L 16.199219 1.351562 C 16.777344 1.351562 17.25 1.820312 17.25 2.398438 L 17.25 10.058594 C 16.574219 10.132812 16.050781 10.707031 16.050781 11.398438 C 16.050781 12.09375 16.574219 12.667969 17.25 12.742188 L 17.25 13.5 C 17.25 14.078125 16.777344 14.550781 16.199219 14.550781 Z M 7.800781 14.550781 "/>
<path style=" stroke:none;fill-rule:nonzero;fill:rgb(30.588236%,47.843137%,70.980394%);fill-opacity:1;" d="M 16.199219 1.5 C 16.695312 1.5 17.101562 1.902344 17.101562 2.398438 L 17.101562 9.929688 C 16.417969 10.070312 15.898438 10.675781 15.898438 11.398438 C 15.898438 12.125 16.417969 12.730469 17.101562 12.871094 L 17.101562 13.5 C 17.101562 13.996094 16.695312 14.398438 16.199219 14.398438 L 7.800781 14.398438 C 7.304688 14.398438 6.898438 13.996094 6.898438 13.5 L 6.898438 12.871094 C 7.582031 12.730469 8.101562 12.125 8.101562 11.398438 C 8.101562 10.675781 7.582031 10.070312 6.898438 9.929688 L 6.898438 2.398438 C 6.898438 1.902344 7.304688 1.5 7.800781 1.5 L 16.199219 1.5 M 16.199219 1.199219 L 7.800781 1.199219 C 7.136719 1.199219 6.601562 1.738281 6.601562 2.398438 L 6.601562 10.199219 C 7.261719 10.199219 7.800781 10.738281 7.800781 11.398438 C 7.800781 12.0625 7.261719 12.601562 6.601562 12.601562 L 6.601562 13.5 C 6.601562 14.164062 7.136719 14.699219 7.800781 14.699219 L 16.199219 14.699219 C 16.863281 14.699219 17.398438 14.164062 17.398438 13.5 L 17.398438 12.601562 C 16.738281 12.601562 16.199219 12.0625 16.199219 11.398438 C 16.199219 10.738281 16.738281 10.199219 17.398438 10.199219 L 17.398438 2.398438 C 17.398438 1.738281 16.863281 1.199219 16.199219 1.199219 Z M 16.199219 1.199219 "/>
<path style=" stroke:none;fill-rule:nonzero;fill:rgb(45.490196%,58.823532%,76.862746%);fill-opacity:1;" d="M 16.5 10.199219 L 7.5 10.199219 C 7.875 10.480469 8.101562 10.9375 8.101562 11.398438 C 8.101562 11.863281 7.875 12.335938 7.5 12.601562 L 16.5 12.601562 C 16.070312 12.226562 15.898438 11.863281 15.898438 11.398438 C 15.898438 10.9375 16.105469 10.5 16.5 10.199219 Z M 16.5 10.199219 "/>
</g>
</svg>
