<?xml version="1.0" encoding="UTF-8"?>
<svg xmlns="http://www.w3.org/2000/svg" xmlns:xlink="http://www.w3.org/1999/xlink" width="24pt" height="24pt" viewBox="0 0 24 24" version="1.1">
<g id="surface40535">
<path style=" stroke:none;fill-rule:nonzero;fill:rgb(69.01961%,75.686276%,83.137256%);fill-opacity:1;" d="M 10.589844 22.949219 L 11.339844 12.148438 L 12.660156 12.148438 L 13.410156 22.949219 Z M 10.589844 22.949219 "/>
<path style=" stroke:none;fill-rule:nonzero;fill:rgb(40.000001%,47.450981%,56.078434%);fill-opacity:1;" d="M 12.511719 12.300781 L 13.261719 22.800781 L 10.738281 22.800781 L 11.488281 12.300781 L 12.511719 12.300781 M 12.78125 12 L 11.191406 12 L 10.410156 23.101562 L 13.589844 23.101562 Z M 12.78125 12 "/>
<path style=" stroke:none;fill-rule:nonzero;fill:rgb(54.509807%,71.764708%,94.117647%);fill-opacity:1;" d="M 16.019531 22.648438 C 15.898438 22.648438 15.78125 22.589844 15.75 22.46875 C 15.691406 22.320312 15.78125 22.140625 15.929688 22.078125 C 20.101562 20.429688 22.800781 16.46875 22.800781 12 C 22.800781 6.03125 17.96875 1.199219 12 1.199219 C 6.03125 1.199219 1.199219 6.03125 1.199219 12 C 1.199219 16.46875 3.898438 20.429688 8.070312 22.050781 C 8.21875 22.109375 8.308594 22.289062 8.25 22.441406 C 8.191406 22.589844 8.011719 22.679688 7.859375 22.621094 C 3.449219 20.910156 0.601562 16.738281 0.601562 12 C 0.601562 5.699219 5.699219 0.601562 12 0.601562 C 18.300781 0.601562 23.398438 5.699219 23.398438 12 C 23.398438 16.738281 20.550781 20.910156 16.140625 22.621094 C 16.109375 22.648438 16.078125 22.648438 16.019531 22.648438 Z M 16.019531 22.648438 "/>
<path style=" stroke:none;fill-rule:nonzero;fill:rgb(54.509807%,71.764708%,94.117647%);fill-opacity:1;" d="M 8.128906 19.378906 C 8.070312 19.378906 8.039062 19.378906 7.980469 19.351562 C 5.28125 17.878906 3.601562 15.058594 3.601562 11.96875 C 3.601562 7.351562 7.378906 3.570312 12 3.570312 C 16.621094 3.570312 20.398438 7.351562 20.398438 11.96875 C 20.398438 15.03125 18.75 17.851562 16.078125 19.320312 C 15.929688 19.410156 15.75 19.351562 15.660156 19.199219 C 15.570312 19.050781 15.628906 18.871094 15.78125 18.78125 C 18.269531 17.398438 19.800781 14.789062 19.800781 11.96875 C 19.800781 7.679688 16.289062 4.171875 12 4.171875 C 7.710938 4.171875 4.199219 7.679688 4.199219 11.96875 C 4.199219 14.820312 5.761719 17.460938 8.28125 18.839844 C 8.429688 18.929688 8.488281 19.109375 8.398438 19.261719 C 8.339844 19.320312 8.25 19.378906 8.128906 19.378906 Z M 8.128906 19.378906 "/>
<path style=" stroke:none;fill-rule:nonzero;fill:rgb(54.509807%,71.764708%,94.117647%);fill-opacity:1;" d="M 8.070312 15.539062 C 7.980469 15.539062 7.890625 15.511719 7.828125 15.421875 C 7.050781 14.460938 6.601562 13.261719 6.601562 12 C 6.601562 9.03125 9.03125 6.601562 12 6.601562 C 14.96875 6.601562 17.398438 9.03125 17.398438 12 C 17.398438 13.230469 16.980469 14.460938 16.171875 15.421875 C 16.078125 15.539062 15.871094 15.570312 15.75 15.449219 C 15.628906 15.359375 15.601562 15.148438 15.71875 15.03125 C 16.410156 14.191406 16.800781 13.109375 16.800781 12 C 16.800781 9.359375 14.640625 7.199219 12 7.199219 C 9.359375 7.199219 7.199219 9.359375 7.199219 12 C 7.199219 13.109375 7.589844 14.191406 8.308594 15.058594 C 8.429688 15.179688 8.398438 15.390625 8.28125 15.480469 C 8.191406 15.511719 8.128906 15.539062 8.070312 15.539062 Z M 8.070312 15.539062 "/>
<path style=" stroke:none;fill-rule:nonzero;fill:rgb(54.509807%,71.764708%,94.117647%);fill-opacity:1;" d="M 12 10.050781 C 10.921875 10.050781 10.050781 10.921875 10.050781 12 C 10.050781 13.078125 10.921875 13.949219 12 13.949219 C 13.078125 13.949219 13.949219 13.078125 13.949219 12 C 13.949219 10.921875 13.078125 10.050781 12 10.050781 Z M 12 10.050781 "/>
<path style=" stroke:none;fill-rule:nonzero;fill:rgb(30.588236%,47.843137%,70.980394%);fill-opacity:1;" d="M 12 10.199219 C 12.988281 10.199219 13.800781 11.011719 13.800781 12 C 13.800781 12.988281 12.988281 13.800781 12 13.800781 C 11.011719 13.800781 10.199219 12.988281 10.199219 12 C 10.199219 11.011719 11.011719 10.199219 12 10.199219 M 12 9.898438 C 10.828125 9.898438 9.898438 10.828125 9.898438 12 C 9.898438 13.171875 10.828125 14.101562 12 14.101562 C 13.171875 14.101562 14.101562 13.171875 14.101562 12 C 14.101562 10.828125 13.171875 9.898438 12 9.898438 Z M 12 9.898438 "/>
</g>
</svg>
