<?xml version="1.0" encoding="UTF-8"?>
<svg xmlns="http://www.w3.org/2000/svg" xmlns:xlink="http://www.w3.org/1999/xlink" width="24pt" height="24pt" viewBox="0 0 24 24" version="1.1">
<g id="surface7613">
<path style=" stroke:none;fill-rule:nonzero;fill:rgb(96.862745%,56.078434%,56.078434%);fill-opacity:1;" d="M 12 14.703125 L 4.714844 21.988281 L 2.011719 19.285156 L 9.296875 12 L 2.011719 4.714844 L 4.714844 2.011719 L 12 9.296875 L 19.285156 2.011719 L 21.988281 4.714844 L 14.703125 12 L 21.988281 19.285156 L 19.285156 21.988281 Z M 12 14.703125 "/>
<path style=" stroke:none;fill-rule:nonzero;fill:rgb(78.039217%,26.274511%,26.274511%);fill-opacity:1;" d="M 4.714844 2.222656 L 11.789062 9.296875 L 12 9.511719 L 12.210938 9.296875 L 19.285156 2.222656 L 21.777344 4.714844 L 14.703125 11.789062 L 14.488281 12 L 14.703125 12.210938 L 21.777344 19.285156 L 19.285156 21.777344 L 12.210938 14.703125 L 12 14.488281 L 11.789062 14.703125 L 4.714844 21.777344 L 2.222656 19.285156 L 9.296875 12.210938 L 9.511719 12 L 9.296875 11.789062 L 2.222656 4.714844 L 4.714844 2.222656 M 19.285156 1.800781 L 12 9.085938 L 4.714844 1.800781 L 1.800781 4.714844 L 9.085938 12 L 1.800781 19.285156 L 4.714844 22.199219 L 12 14.914062 L 19.285156 22.199219 L 22.199219 19.285156 L 14.914062 12 L 22.199219 4.714844 Z M 19.285156 1.800781 "/>
</g>
</svg>
