<?xml version="1.0" encoding="UTF-8"?>
<svg xmlns="http://www.w3.org/2000/svg" xmlns:xlink="http://www.w3.org/1999/xlink" width="24pt" height="24pt" viewBox="0 0 24 24" version="1.1">
<g id="surface22225">
<path style=" stroke:none;fill-rule:nonzero;fill:rgb(69.01961%,75.686276%,83.137256%);fill-opacity:1;" d="M 4.199219 16.648438 C 1.96875 16.648438 0.148438 14.832031 0.148438 12.601562 C 0.148438 11.042969 1.0625 9.609375 2.472656 8.941406 L 2.554688 8.902344 L 2.558594 8.8125 C 2.660156 6.644531 4.433594 4.949219 6.601562 4.949219 C 6.785156 4.949219 6.980469 4.964844 7.210938 5 L 7.363281 5.023438 L 7.382812 4.871094 C 7.648438 2.519531 9.632812 0.75 12 0.75 C 13.671875 0.75 15.222656 1.65625 16.050781 3.117188 L 16.097656 3.207031 L 16.199219 3.195312 C 16.425781 3.164062 16.617188 3.148438 16.800781 3.148438 C 19.363281 3.148438 21.449219 5.234375 21.449219 7.800781 L 21.449219 7.84375 L 21.445312 7.933594 L 21.523438 7.976562 C 22.957031 8.804688 23.851562 10.347656 23.851562 12 C 23.851562 14.5625 21.765625 16.648438 19.199219 16.648438 Z M 4.199219 16.648438 "/>
<path style=" stroke:none;fill-rule:nonzero;fill:rgb(47.058824%,54.509807%,61.176473%);fill-opacity:1;" d="M 12 0.898438 C 13.617188 0.898438 15.121094 1.777344 15.917969 3.191406 L 16.019531 3.367188 L 16.21875 3.34375 C 16.441406 3.3125 16.625 3.300781 16.800781 3.300781 C 19.28125 3.300781 21.300781 5.320312 21.300781 7.800781 C 21.296875 7.816406 21.296875 7.828125 21.296875 7.84375 L 21.296875 8.019531 L 21.449219 8.105469 C 22.835938 8.910156 23.699219 10.402344 23.699219 12 C 23.699219 14.480469 21.679688 16.5 19.199219 16.5 L 4.199219 16.5 C 2.050781 16.5 0.300781 14.75 0.300781 12.601562 C 0.300781 11.101562 1.179688 9.71875 2.539062 9.078125 L 2.703125 9 L 2.710938 8.820312 C 2.804688 6.734375 4.515625 5.101562 6.601562 5.101562 C 6.777344 5.101562 6.964844 5.117188 7.1875 5.148438 L 7.496094 5.195312 L 7.53125 4.886719 C 7.789062 2.613281 9.710938 0.898438 12 0.898438 M 12 0.601562 C 9.535156 0.601562 7.503906 2.460938 7.234375 4.851562 C 7.027344 4.820312 6.816406 4.800781 6.601562 4.800781 C 4.347656 4.800781 2.511719 6.578125 2.410156 8.804688 C 0.988281 9.476562 0 10.921875 0 12.601562 C 0 14.917969 1.878906 16.800781 4.199219 16.800781 L 19.199219 16.800781 C 21.851562 16.800781 24 14.652344 24 12 C 24 10.222656 23.03125 8.675781 21.597656 7.847656 C 21.597656 7.832031 21.601562 7.816406 21.601562 7.800781 C 21.601562 5.148438 19.449219 3 16.800781 3 C 16.589844 3 16.382812 3.019531 16.179688 3.042969 C 15.355469 1.585938 13.792969 0.601562 12 0.601562 Z M 12 0.601562 "/>
<path style=" stroke:none;fill-rule:nonzero;fill:rgb(88.235295%,92.156863%,94.901961%);fill-opacity:1;" d="M 23.382812 12.300781 C 23.230469 14.476562 21.414062 16.199219 19.199219 16.199219 L 4.199219 16.199219 C 2.214844 16.199219 0.601562 14.585938 0.601562 12.601562 L 0.300781 12.601562 C 0.300781 14.75 2.050781 16.5 4.199219 16.5 L 19.199219 16.5 C 21.582031 16.5 23.53125 14.640625 23.683594 12.300781 Z M 23.382812 12.300781 "/>
<path style=" stroke:none;fill-rule:nonzero;fill:rgb(100%,93.333334%,63.921571%);fill-opacity:1;" d="M 9.230469 23.25 L 11.632812 17.851562 L 8.625 17.851562 L 11.5 10.949219 L 15.957031 10.949219 L 13.558594 15.75 L 15.875 15.75 L 9.53125 23.25 Z M 9.230469 23.25 "/>
<path style=" stroke:none;fill-rule:nonzero;fill:rgb(76.078433%,58.823532%,32.549021%);fill-opacity:1;" d="M 15.714844 11.101562 L 13.53125 15.464844 L 13.316406 15.898438 L 15.554688 15.898438 L 9.460938 23.097656 L 11.675781 18.121094 L 11.863281 17.699219 L 8.851562 17.699219 L 11.601562 11.101562 L 15.714844 11.101562 M 16.199219 10.800781 L 11.398438 10.800781 L 8.398438 18 L 11.398438 18 L 9 23.398438 L 9.601562 23.398438 L 16.199219 15.601562 L 13.800781 15.601562 Z M 16.199219 10.800781 "/>
<path style=" stroke:none;fill-rule:nonzero;fill:rgb(100%,93.333334%,63.921571%);fill-opacity:1;" d="M 13.429688 21.449219 L 15.832031 16.050781 L 12.824219 16.050781 L 15.699219 9.148438 L 20.144531 9.148438 L 17.445312 13.949219 L 20.078125 13.949219 L 13.730469 21.449219 Z M 13.429688 21.449219 "/>
<path style=" stroke:none;fill-rule:nonzero;fill:rgb(76.078433%,58.823532%,32.549021%);fill-opacity:1;" d="M 19.886719 9.300781 L 17.4375 13.652344 L 17.1875 14.101562 L 19.753906 14.101562 L 13.664062 21.296875 L 15.875 16.320312 L 16.0625 15.898438 L 13.050781 15.898438 L 15.800781 9.300781 L 19.886719 9.300781 M 20.398438 9 L 15.601562 9 L 12.601562 16.199219 L 15.601562 16.199219 L 13.199219 21.601562 L 13.800781 21.601562 L 20.398438 13.800781 L 17.699219 13.800781 Z M 20.398438 9 "/>
</g>
</svg>
