<?xml version="1.0" encoding="UTF-8"?>
<svg xmlns="http://www.w3.org/2000/svg" xmlns:xlink="http://www.w3.org/1999/xlink" width="24pt" height="24pt" viewBox="0 0 24 24" version="1.1">
<g id="surface22251">
<path style=" stroke:none;fill-rule:nonzero;fill:rgb(88.235295%,92.156863%,94.901961%);fill-opacity:1;" d="M 4.800781 16.648438 C 2.234375 16.648438 0.148438 14.5625 0.148438 12 C 0.148438 9.871094 1.59375 8.019531 3.660156 7.496094 L 3.78125 7.464844 L 3.769531 7.292969 C 3.757812 7.164062 3.75 7.03125 3.75 6.898438 C 3.75 3.507812 6.507812 0.75 9.898438 0.75 C 12.78125 0.75 15.242188 2.710938 15.886719 5.515625 L 15.921875 5.660156 L 16.066406 5.628906 C 16.3125 5.578125 16.558594 5.550781 16.800781 5.550781 C 18.507812 5.550781 19.941406 6.773438 20.203125 8.464844 L 20.222656 8.574219 L 20.332031 8.589844 C 22.335938 8.851562 23.851562 10.578125 23.851562 12.601562 C 23.851562 14.832031 22.03125 16.648438 19.800781 16.648438 Z M 4.800781 16.648438 "/>
<path style=" stroke:none;fill-rule:nonzero;fill:rgb(69.01961%,75.686276%,83.137256%);fill-opacity:1;" d="M 9.898438 0.898438 C 12.710938 0.898438 15.113281 2.8125 15.742188 5.550781 L 15.808594 5.839844 L 16.097656 5.777344 C 16.332031 5.726562 16.570312 5.699219 16.800781 5.699219 C 18.433594 5.699219 19.804688 6.871094 20.054688 8.488281 L 20.089844 8.707031 L 20.3125 8.738281 C 22.242188 8.992188 23.699219 10.652344 23.699219 12.601562 C 23.699219 14.75 21.949219 16.5 19.800781 16.5 L 4.800781 16.5 C 2.320312 16.5 0.300781 14.480469 0.300781 12 C 0.300781 9.941406 1.695312 8.148438 3.695312 7.640625 L 3.941406 7.582031 L 3.921875 7.332031 L 3.917969 7.28125 C 3.910156 7.148438 3.898438 7.023438 3.898438 6.898438 C 3.898438 3.589844 6.589844 0.898438 9.898438 0.898438 M 9.898438 0.601562 C 6.421875 0.601562 3.601562 3.421875 3.601562 6.898438 C 3.601562 7.050781 3.613281 7.203125 3.621094 7.351562 C 1.542969 7.878906 0 9.757812 0 12 C 0 14.652344 2.148438 16.800781 4.800781 16.800781 L 19.800781 16.800781 C 22.121094 16.800781 24 14.917969 24 12.601562 C 24 10.46875 22.410156 8.710938 20.351562 8.441406 C 20.082031 6.71875 18.597656 5.398438 16.800781 5.398438 C 16.535156 5.398438 16.28125 5.429688 16.035156 5.484375 C 15.390625 2.6875 12.890625 0.601562 9.898438 0.601562 Z M 9.898438 0.601562 "/>
</g>
</svg>
