<?xml version="1.0" encoding="UTF-8"?>
<svg xmlns="http://www.w3.org/2000/svg" xmlns:xlink="http://www.w3.org/1999/xlink" width="24pt" height="24pt" viewBox="0 0 24 24" version="1.1">
<g id="surface49255">
<path style=" stroke:none;fill-rule:nonzero;fill:rgb(25.882354%,30.588236%,36.078432%);fill-opacity:1;" d="M 1.351562 1.949219 L 22.648438 1.949219 L 22.648438 22.050781 L 1.351562 22.050781 Z M 1.351562 1.949219 "/>
<path style=" stroke:none;fill-rule:nonzero;fill:rgb(68.627453%,77.254903%,84.705883%);fill-opacity:1;" d="M 22.5 2.101562 L 22.5 21.898438 L 1.5 21.898438 L 1.5 2.101562 L 22.5 2.101562 M 22.800781 1.800781 L 1.199219 1.800781 L 1.199219 22.199219 L 22.800781 22.199219 Z M 22.800781 1.800781 "/>
<path style=" stroke:none;fill-rule:nonzero;fill:rgb(68.627453%,77.254903%,84.705883%);fill-opacity:1;" d="M 1.199219 1.800781 L 22.800781 1.800781 L 22.800781 5.398438 L 1.199219 5.398438 Z M 1.199219 1.800781 "/>
<path style=" stroke:none;fill-rule:nonzero;fill:rgb(72.941178%,87.843138%,74.117649%);fill-opacity:1;" d="M 10.21875 17.144531 L 13.21875 9.042969 L 13.78125 9.253906 L 10.78125 17.355469 Z M 10.21875 17.144531 "/>
<path style=" stroke:none;fill-rule:nonzero;fill:rgb(72.941178%,87.843138%,74.117649%);fill-opacity:1;" d="M 8.371094 16.320312 L 4.800781 13.199219 L 8.371094 10.078125 L 8.761719 10.53125 L 5.699219 13.199219 L 8.761719 15.871094 Z M 15.660156 16.351562 L 15.269531 15.898438 L 18.300781 13.230469 L 15.269531 10.53125 L 15.660156 10.078125 L 19.199219 13.230469 Z M 15.660156 16.351562 "/>
</g>
</svg>
