<?xml version="1.0" encoding="UTF-8"?>
<svg xmlns="http://www.w3.org/2000/svg" xmlns:xlink="http://www.w3.org/1999/xlink" width="24pt" height="24pt" viewBox="0 0 24 24" version="1.1">
<g id="surface49274">
<path style=" stroke:none;fill-rule:nonzero;fill:rgb(63.921571%,71.764708%,80.000001%);fill-opacity:1;" d="M 4.199219 21 L 3.601562 21 L 3.601562 18.121094 C 3.601562 14.730469 6.328125 12 9.71875 12 L 14.28125 12 C 17.339844 12 19.800781 9.539062 19.800781 6.480469 L 19.800781 3.570312 L 20.398438 3.570312 L 20.398438 6.480469 C 20.398438 9.871094 17.671875 12.601562 14.28125 12.601562 L 9.71875 12.601562 C 6.660156 12.601562 4.199219 15.058594 4.199219 18.121094 Z M 4.199219 21 "/>
<path style=" stroke:none;fill-rule:nonzero;fill:rgb(63.921571%,71.764708%,80.000001%);fill-opacity:1;" d="M 3.601562 3.898438 L 4.199219 3.898438 L 4.199219 19.5 L 3.601562 19.5 Z M 3.601562 3.898438 "/>
<path style=" stroke:none;fill-rule:nonzero;fill:rgb(54.509807%,71.764708%,94.117647%);fill-opacity:1;" d="M 3.898438 6.449219 C 2.488281 6.449219 1.351562 5.308594 1.351562 3.898438 C 1.351562 2.488281 2.488281 1.351562 3.898438 1.351562 C 5.308594 1.351562 6.449219 2.488281 6.449219 3.898438 C 6.449219 5.308594 5.308594 6.449219 3.898438 6.449219 Z M 3.898438 6.449219 "/>
<path style=" stroke:none;fill-rule:nonzero;fill:rgb(30.588236%,47.843137%,70.980394%);fill-opacity:1;" d="M 3.898438 1.5 C 5.21875 1.5 6.300781 2.578125 6.300781 3.898438 C 6.300781 5.21875 5.21875 6.300781 3.898438 6.300781 C 2.578125 6.300781 1.5 5.21875 1.5 3.898438 C 1.5 2.578125 2.578125 1.5 3.898438 1.5 M 3.898438 1.199219 C 2.398438 1.199219 1.199219 2.398438 1.199219 3.898438 C 1.199219 5.398438 2.398438 6.601562 3.898438 6.601562 C 5.398438 6.601562 6.601562 5.398438 6.601562 3.898438 C 6.601562 2.398438 5.398438 1.199219 3.898438 1.199219 Z M 3.898438 1.199219 "/>
<path style=" stroke:none;fill-rule:nonzero;fill:rgb(54.509807%,71.764708%,94.117647%);fill-opacity:1;" d="M 20.101562 6.449219 C 18.691406 6.449219 17.550781 5.308594 17.550781 3.898438 C 17.550781 2.488281 18.691406 1.351562 20.101562 1.351562 C 21.511719 1.351562 22.648438 2.488281 22.648438 3.898438 C 22.648438 5.308594 21.511719 6.449219 20.101562 6.449219 Z M 20.101562 6.449219 "/>
<path style=" stroke:none;fill-rule:nonzero;fill:rgb(30.588236%,47.843137%,70.980394%);fill-opacity:1;" d="M 20.101562 1.5 C 21.421875 1.5 22.5 2.578125 22.5 3.898438 C 22.5 5.21875 21.421875 6.300781 20.101562 6.300781 C 18.78125 6.300781 17.699219 5.21875 17.699219 3.898438 C 17.699219 2.578125 18.78125 1.5 20.101562 1.5 M 20.101562 1.199219 C 18.601562 1.199219 17.398438 2.398438 17.398438 3.898438 C 17.398438 5.398438 18.601562 6.601562 20.101562 6.601562 C 21.601562 6.601562 22.800781 5.398438 22.800781 3.898438 C 22.800781 2.398438 21.601562 1.199219 20.101562 1.199219 Z M 20.101562 1.199219 "/>
<path style=" stroke:none;fill-rule:nonzero;fill:rgb(54.509807%,71.764708%,94.117647%);fill-opacity:1;" d="M 3.898438 22.648438 C 2.488281 22.648438 1.351562 21.511719 1.351562 20.101562 C 1.351562 18.691406 2.488281 17.550781 3.898438 17.550781 C 5.308594 17.550781 6.449219 18.691406 6.449219 20.101562 C 6.449219 21.511719 5.308594 22.648438 3.898438 22.648438 Z M 3.898438 22.648438 "/>
<path style=" stroke:none;fill-rule:nonzero;fill:rgb(30.588236%,47.843137%,70.980394%);fill-opacity:1;" d="M 3.898438 17.699219 C 5.21875 17.699219 6.300781 18.78125 6.300781 20.101562 C 6.300781 21.421875 5.21875 22.5 3.898438 22.5 C 2.578125 22.5 1.5 21.421875 1.5 20.101562 C 1.5 18.78125 2.578125 17.699219 3.898438 17.699219 M 3.898438 17.398438 C 2.398438 17.398438 1.199219 18.601562 1.199219 20.101562 C 1.199219 21.601562 2.398438 22.800781 3.898438 22.800781 C 5.398438 22.800781 6.601562 21.601562 6.601562 20.101562 C 6.601562 18.601562 5.398438 17.398438 3.898438 17.398438 Z M 3.898438 17.398438 "/>
</g>
</svg>
