<?xml version="1.0" encoding="UTF-8"?>
<svg xmlns="http://www.w3.org/2000/svg" xmlns:xlink="http://www.w3.org/1999/xlink" width="24pt" height="24pt" viewBox="0 0 24 24" version="1.1">
<g id="surface53404">
<path style=" stroke:none;fill-rule:nonzero;fill:rgb(30.588236%,47.843137%,70.980394%);fill-opacity:1;" d="M 2 15 L 5.480469 15 L 5.480469 15.601562 L 2 15.601562 Z M 2 15 "/>
<path style=" stroke:none;fill-rule:nonzero;fill:rgb(54.509807%,71.764708%,94.117647%);fill-opacity:1;" d="M 2.25 15.300781 C 2.25 15.878906 1.78125 16.351562 1.199219 16.351562 C 0.621094 16.351562 0.148438 15.878906 0.148438 15.300781 C 0.148438 14.71875 0.621094 14.25 1.199219 14.25 C 1.78125 14.25 2.25 14.71875 2.25 15.300781 Z M 2.25 15.300781 "/>
<path style=" stroke:none;fill-rule:nonzero;fill:rgb(30.588236%,47.843137%,70.980394%);fill-opacity:1;" d="M 1.199219 16.5 C 0.539062 16.5 0 15.960938 0 15.300781 C 0 14.636719 0.539062 14.101562 1.199219 14.101562 C 1.863281 14.101562 2.398438 14.636719 2.398438 15.300781 C 2.398438 15.960938 1.863281 16.5 1.199219 16.5 Z M 1.199219 14.398438 C 0.703125 14.398438 0.300781 14.804688 0.300781 15.300781 C 0.300781 15.796875 0.703125 16.199219 1.199219 16.199219 C 1.695312 16.199219 2.101562 15.796875 2.101562 15.300781 C 2.101562 14.804688 1.695312 14.398438 1.199219 14.398438 Z M 1.199219 14.398438 "/>
<path style=" stroke:none;fill-rule:nonzero;fill:rgb(30.588236%,47.843137%,70.980394%);fill-opacity:1;" d="M 19.15625 11.699219 L 22.632812 11.699219 L 22.632812 12.300781 L 19.15625 12.300781 Z M 19.15625 11.699219 "/>
<path style=" stroke:none;fill-rule:nonzero;fill:rgb(30.588236%,47.843137%,70.980394%);fill-opacity:1;" d="M 2 9.300781 L 5.480469 9.300781 L 5.480469 9.898438 L 2 9.898438 Z M 2 9.300781 "/>
<path style=" stroke:none;fill-rule:nonzero;fill:rgb(70.980394%,86.666667%,96.078432%);fill-opacity:1;" d="M 3.449219 1.125 L 3.449219 22.875 L 20.851562 12 Z M 3.449219 1.125 "/>
<path style=" stroke:none;fill-rule:nonzero;fill:rgb(45.490196%,58.823532%,76.862746%);fill-opacity:1;" d="M 3.300781 23.144531 L 3.300781 0.855469 L 21.132812 12 Z M 3.601562 1.394531 L 3.601562 22.605469 L 20.566406 12 Z M 3.601562 1.394531 "/>
<path style=" stroke:none;fill-rule:nonzero;fill:rgb(54.509807%,71.764708%,94.117647%);fill-opacity:1;" d="M 5.851562 14.550781 L 9.449219 14.550781 L 9.449219 15.75 L 5.851562 15.75 Z M 5.851562 14.550781 "/>
<path style=" stroke:none;fill-rule:nonzero;fill:rgb(30.588236%,47.843137%,70.980394%);fill-opacity:1;" d="M 9.601562 15.898438 L 5.699219 15.898438 L 5.699219 14.398438 L 9.601562 14.398438 Z M 6 15.601562 L 9.300781 15.601562 L 9.300781 14.699219 L 6 14.699219 Z M 6 15.601562 "/>
<path style=" stroke:none;fill-rule:nonzero;fill:rgb(54.509807%,71.764708%,94.117647%);fill-opacity:1;" d="M 9.449219 8.851562 L 8.25 8.851562 L 8.25 7.648438 L 7.050781 7.648438 L 7.050781 8.851562 L 5.851562 8.851562 L 5.851562 10.050781 L 7.050781 10.050781 L 7.050781 11.25 L 8.25 11.25 L 8.25 10.050781 L 9.449219 10.050781 Z M 9.449219 8.851562 "/>
<path style=" stroke:none;fill-rule:nonzero;fill:rgb(30.588236%,47.843137%,70.980394%);fill-opacity:1;" d="M 8.398438 11.398438 L 6.898438 11.398438 L 6.898438 10.199219 L 5.699219 10.199219 L 5.699219 8.699219 L 6.898438 8.699219 L 6.898438 7.5 L 8.398438 7.5 L 8.398438 8.699219 L 9.601562 8.699219 L 9.601562 10.199219 L 8.398438 10.199219 Z M 7.199219 11.101562 L 8.101562 11.101562 L 8.101562 9.898438 L 9.300781 9.898438 L 9.300781 9 L 8.101562 9 L 8.101562 7.800781 L 7.199219 7.800781 L 7.199219 9 L 6 9 L 6 9.898438 L 7.199219 9.898438 Z M 7.199219 11.101562 "/>
<path style=" stroke:none;fill-rule:nonzero;fill:rgb(54.509807%,71.764708%,94.117647%);fill-opacity:1;" d="M 23.851562 12 C 23.851562 12.578125 23.378906 13.050781 22.800781 13.050781 C 22.21875 13.050781 21.75 12.578125 21.75 12 C 21.75 11.421875 22.21875 10.949219 22.800781 10.949219 C 23.378906 10.949219 23.851562 11.421875 23.851562 12 Z M 23.851562 12 "/>
<path style=" stroke:none;fill-rule:nonzero;fill:rgb(30.588236%,47.843137%,70.980394%);fill-opacity:1;" d="M 22.800781 13.199219 C 22.136719 13.199219 21.601562 12.660156 21.601562 12 C 21.601562 11.339844 22.136719 10.800781 22.800781 10.800781 C 23.460938 10.800781 24 11.339844 24 12 C 24 12.660156 23.460938 13.199219 22.800781 13.199219 Z M 22.800781 11.101562 C 22.304688 11.101562 21.898438 11.503906 21.898438 12 C 21.898438 12.496094 22.304688 12.898438 22.800781 12.898438 C 23.296875 12.898438 23.699219 12.496094 23.699219 12 C 23.699219 11.503906 23.296875 11.101562 22.800781 11.101562 Z M 22.800781 11.101562 "/>
<path style=" stroke:none;fill-rule:nonzero;fill:rgb(54.509807%,71.764708%,94.117647%);fill-opacity:1;" d="M 2.25 9.601562 C 2.25 10.179688 1.78125 10.648438 1.199219 10.648438 C 0.621094 10.648438 0.148438 10.179688 0.148438 9.601562 C 0.148438 9.019531 0.621094 8.550781 1.199219 8.550781 C 1.78125 8.550781 2.25 9.019531 2.25 9.601562 Z M 2.25 9.601562 "/>
<path style=" stroke:none;fill-rule:nonzero;fill:rgb(30.588236%,47.843137%,70.980394%);fill-opacity:1;" d="M 1.199219 10.800781 C 0.539062 10.800781 0 10.261719 0 9.601562 C 0 8.9375 0.539062 8.398438 1.199219 8.398438 C 1.863281 8.398438 2.398438 8.9375 2.398438 9.601562 C 2.398438 10.261719 1.863281 10.800781 1.199219 10.800781 Z M 1.199219 8.699219 C 0.703125 8.699219 0.300781 9.105469 0.300781 9.601562 C 0.300781 10.097656 0.703125 10.5 1.199219 10.5 C 1.695312 10.5 2.101562 10.097656 2.101562 9.601562 C 2.101562 9.105469 1.695312 8.699219 1.199219 8.699219 Z M 1.199219 8.699219 "/>
</g>
</svg>
