<?xml version="1.0" encoding="UTF-8"?>
<svg xmlns="http://www.w3.org/2000/svg" xmlns:xlink="http://www.w3.org/1999/xlink" width="24pt" height="24pt" viewBox="0 0 24 24" version="1.1">
<g id="surface42830">
<path style=" stroke:none;fill-rule:nonzero;fill:rgb(69.01961%,75.686276%,83.137256%);fill-opacity:1;" d="M 9.738281 7.03125 L 12.738281 4.03125 C 13.304688 3.460938 14.0625 3.148438 14.863281 3.148438 C 15.667969 3.148438 16.421875 3.460938 16.992188 4.03125 L 17.6875 4.726562 L 21.601562 0.8125 L 23.1875 2.398438 L 19.273438 6.3125 L 19.96875 7.007812 C 20.535156 7.578125 20.851562 8.332031 20.851562 9.136719 C 20.851562 9.9375 20.535156 10.695312 19.96875 11.261719 L 16.96875 14.261719 Z M 9.738281 7.03125 "/>
<path style=" stroke:none;fill-rule:nonzero;fill:rgb(40.000001%,47.450981%,56.078434%);fill-opacity:1;" d="M 21.601562 1.023438 L 22.976562 2.398438 L 19.0625 6.3125 L 19.273438 6.527344 L 19.863281 7.113281 C 20.976562 8.230469 20.976562 10.042969 19.863281 11.15625 L 16.96875 14.050781 L 9.949219 7.03125 L 12.84375 4.136719 C 13.382812 3.597656 14.101562 3.300781 14.863281 3.300781 C 15.628906 3.300781 16.347656 3.597656 16.886719 4.136719 L 17.6875 4.9375 L 21.601562 1.023438 M 21.601562 0.601562 L 17.6875 4.515625 L 17.097656 3.925781 C 16.480469 3.308594 15.671875 3 14.863281 3 C 14.054688 3 13.246094 3.308594 12.632812 3.925781 L 9.527344 7.03125 L 16.96875 14.472656 L 20.074219 11.367188 C 21.308594 10.136719 21.308594 8.136719 20.074219 6.902344 L 19.488281 6.3125 L 23.398438 2.398438 Z M 21.601562 0.601562 "/>
<path style=" stroke:none;fill-rule:nonzero;fill:rgb(69.01961%,75.686276%,83.137256%);fill-opacity:1;" d="M 7.351562 8.148438 L 8.699219 6.800781 C 9.113281 6.386719 9.644531 6.148438 10.160156 6.148438 C 10.539062 6.148438 10.863281 6.277344 11.105469 6.515625 L 17.484375 12.894531 C 17.761719 13.175781 17.890625 13.574219 17.839844 14.023438 C 17.789062 14.484375 17.5625 14.9375 17.199219 15.300781 L 15.851562 16.648438 Z M 7.351562 8.148438 "/>
<path style=" stroke:none;fill-rule:nonzero;fill:rgb(40.000001%,47.450981%,56.078434%);fill-opacity:1;" d="M 10.160156 6.300781 C 10.496094 6.300781 10.789062 6.410156 11 6.625 L 17.375 13 C 17.625 13.246094 17.734375 13.605469 17.691406 14.007812 C 17.644531 14.433594 17.433594 14.855469 17.09375 15.195312 L 15.851562 16.4375 L 7.5625 8.148438 L 8.804688 6.90625 C 9.191406 6.523438 9.683594 6.300781 10.160156 6.300781 M 10.160156 6 C 9.628906 6 9.050781 6.238281 8.589844 6.695312 L 7.140625 8.148438 L 15.851562 16.859375 L 17.304688 15.410156 C 18.105469 14.605469 18.234375 13.433594 17.589844 12.789062 L 11.210938 6.410156 C 10.933594 6.132812 10.558594 6 10.160156 6 Z M 10.160156 6 "/>
<path style=" stroke:none;fill-rule:nonzero;fill:rgb(69.01961%,75.686276%,83.137256%);fill-opacity:1;" d="M 0.8125 21.601562 L 4.726562 17.6875 L 4.03125 16.992188 C 3.464844 16.421875 3.148438 15.667969 3.148438 14.863281 C 3.148438 14.0625 3.464844 13.304688 4.03125 12.738281 L 7.03125 9.738281 L 14.261719 16.96875 L 11.261719 19.96875 C 10.695312 20.535156 9.9375 20.851562 9.136719 20.851562 C 8.332031 20.851562 7.578125 20.535156 7.007812 19.96875 L 6.3125 19.273438 L 2.398438 23.1875 Z M 0.8125 21.601562 "/>
<path style=" stroke:none;fill-rule:nonzero;fill:rgb(40.000001%,47.450981%,56.078434%);fill-opacity:1;" d="M 7.03125 9.949219 L 14.050781 16.96875 L 11.15625 19.863281 C 10.617188 20.402344 9.898438 20.699219 9.136719 20.699219 C 8.371094 20.699219 7.65625 20.402344 7.113281 19.863281 L 6.527344 19.273438 L 6.3125 19.0625 L 2.398438 22.976562 L 1.023438 21.601562 L 4.9375 17.6875 L 4.726562 17.472656 L 4.136719 16.886719 C 3.597656 16.34375 3.300781 15.628906 3.300781 14.863281 C 3.300781 14.101562 3.597656 13.382812 4.136719 12.84375 L 7.03125 9.949219 M 7.03125 9.527344 L 3.925781 12.632812 C 2.691406 13.863281 2.691406 15.863281 3.925781 17.097656 L 4.511719 17.6875 L 0.601562 21.601562 L 2.398438 23.398438 L 6.3125 19.484375 L 6.902344 20.074219 C 7.519531 20.691406 8.328125 21 9.136719 21 C 9.945312 21 10.753906 20.691406 11.367188 20.074219 L 14.472656 16.96875 Z M 7.03125 9.527344 "/>
<path style=" stroke:none;fill-rule:nonzero;fill:rgb(69.01961%,75.686276%,83.137256%);fill-opacity:1;" d="M 13.996094 17.828125 C 13.601562 17.828125 13.238281 17.679688 12.96875 17.410156 L 6.589844 11.03125 C 6.308594 10.75 6.160156 10.367188 6.171875 9.953125 C 6.1875 9.535156 6.363281 9.136719 6.667969 8.828125 L 7.808594 7.6875 L 16.3125 16.191406 L 15.167969 17.332031 C 14.855469 17.648438 14.425781 17.828125 13.996094 17.828125 Z M 13.996094 17.828125 "/>
<path style=" stroke:none;fill-rule:nonzero;fill:rgb(40.000001%,47.450981%,56.078434%);fill-opacity:1;" d="M 7.808594 7.902344 L 16.097656 16.191406 L 15.0625 17.226562 C 14.777344 17.511719 14.386719 17.679688 13.996094 17.679688 C 13.640625 17.679688 13.316406 17.546875 13.074219 17.304688 L 6.695312 10.925781 C 6.445312 10.675781 6.3125 10.332031 6.324219 9.957031 C 6.335938 9.578125 6.496094 9.214844 6.777344 8.9375 L 7.808594 7.902344 M 7.808594 7.476562 L 6.5625 8.722656 C 5.875 9.414062 5.839844 10.492188 6.484375 11.136719 L 12.863281 17.515625 C 13.171875 17.824219 13.578125 17.976562 13.996094 17.976562 C 14.449219 17.976562 14.917969 17.796875 15.277344 17.4375 L 16.523438 16.191406 Z M 7.808594 7.476562 "/>
</g>
</svg>
