<?xml version="1.0" encoding="UTF-8"?>
<svg xmlns="http://www.w3.org/2000/svg" xmlns:xlink="http://www.w3.org/1999/xlink" width="24pt" height="24pt" viewBox="0 0 24 24" version="1.1">
<g id="surface33197">
<path style=" stroke:none;fill-rule:nonzero;fill:rgb(100%,100%,100%);fill-opacity:1;" d="M 0.148438 4.351562 L 23.851562 4.351562 L 23.851562 19.648438 L 0.148438 19.648438 Z M 0.148438 4.351562 "/>
<path style=" stroke:none;fill-rule:nonzero;fill:rgb(47.058824%,54.509807%,61.176473%);fill-opacity:1;" d="M 23.699219 4.5 L 23.699219 19.5 L 0.300781 19.5 L 0.300781 4.5 L 23.699219 4.5 M 24 4.199219 L 0 4.199219 L 0 19.800781 L 24 19.800781 Z M 24 4.199219 "/>
<path style=" stroke:none;fill-rule:nonzero;fill:rgb(83.92157%,89.019608%,92.941177%);fill-opacity:1;" d="M 0.300781 18.300781 L 23.699219 18.300781 L 23.699219 19.5 L 0.300781 19.5 Z M 0.300781 4.5 L 23.699219 4.5 L 23.699219 5.699219 L 0.300781 5.699219 Z M 0.300781 4.5 "/>
<path style=" stroke:none;fill-rule:nonzero;fill:rgb(47.058824%,54.509807%,61.176473%);fill-opacity:1;" d="M 15.898438 4.199219 L 16.199219 4.199219 L 16.199219 19.800781 L 15.898438 19.800781 Z M 7.800781 4.199219 L 8.101562 4.199219 L 8.101562 19.800781 L 7.800781 19.800781 Z M 7.800781 4.199219 "/>
<path style=" stroke:none;fill-rule:nonzero;fill:rgb(21.176471%,25.098041%,30.19608%);fill-opacity:1;" d="M 4.289062 8.820312 C 3.570312 8.820312 3.03125 9.089844 2.671875 9.660156 C 2.28125 10.199219 2.101562 11.039062 2.101562 12.121094 C 2.101562 13.109375 2.28125 13.859375 2.640625 14.398438 C 3 14.910156 3.511719 15.179688 4.140625 15.179688 C 4.828125 15.179688 5.371094 14.910156 5.730469 14.371094 C 6.121094 13.828125 6.300781 13.019531 6.300781 11.96875 C 6.300781 9.871094 5.640625 8.820312 4.289062 8.820312 Z M 4.199219 14.398438 C 3.480469 14.398438 3.089844 13.621094 3.089844 12.089844 C 3.089844 10.441406 3.449219 9.628906 4.199219 9.628906 C 4.921875 9.628906 5.25 10.441406 5.25 12.058594 C 5.28125 13.621094 4.921875 14.398438 4.199219 14.398438 Z M 12.089844 8.820312 C 11.371094 8.820312 10.828125 9.089844 10.46875 9.660156 C 10.078125 10.199219 9.898438 11.039062 9.898438 12.121094 C 9.898438 13.109375 10.078125 13.859375 10.441406 14.398438 C 10.800781 14.910156 11.308594 15.179688 11.941406 15.179688 C 12.628906 15.179688 13.171875 14.910156 13.53125 14.371094 C 13.921875 13.828125 14.101562 13.019531 14.101562 11.96875 C 14.101562 9.871094 13.441406 8.820312 12.089844 8.820312 Z M 12 14.398438 C 11.28125 14.398438 10.890625 13.621094 10.890625 12.089844 C 10.890625 10.441406 11.25 9.628906 12 9.628906 C 12.71875 9.628906 13.050781 10.441406 13.050781 12.058594 C 13.078125 13.621094 12.71875 14.398438 12 14.398438 Z M 17.789062 12.449219 L 17.789062 13.289062 L 20.699219 13.289062 C 20.460938 13.738281 20.21875 14.191406 20.011719 14.640625 C 19.800781 15.089844 19.589844 15.539062 19.441406 15.960938 C 19.261719 16.410156 19.109375 16.828125 18.988281 17.28125 C 18.871094 17.730469 18.75 18.148438 18.691406 18.601562 L 19.738281 18.601562 C 19.800781 18.089844 19.921875 17.609375 20.070312 17.160156 C 20.21875 16.679688 20.371094 16.230469 20.550781 15.75 C 20.730469 15.269531 20.941406 14.820312 21.179688 14.371094 C 21.421875 13.921875 21.660156 13.441406 21.898438 12.960938 L 21.898438 12.449219 Z M 20.761719 4.5 C 20.878906 4.890625 20.851562 6.089844 19.800781 6.089844 C 18.71875 6.089844 18.660156 4.679688 18.78125 4.5 L 17.699219 4.5 C 17.699219 5.070312 18.03125 6.898438 19.800781 6.898438 C 21.570312 6.898438 21.871094 5.25 21.808594 4.800781 C 21.808594 4.679688 21.808594 4.589844 21.78125 4.5 Z M 20.761719 4.5 "/>
</g>
</svg>
