<?xml version="1.0" encoding="UTF-8"?>
<svg xmlns="http://www.w3.org/2000/svg" xmlns:xlink="http://www.w3.org/1999/xlink" width="24pt" height="24pt" viewBox="0 0 24 24" version="1.1">
<g id="surface49784">
<path style=" stroke:none;fill-rule:nonzero;fill:rgb(100%,100%,100%);fill-opacity:1;" d="M 1.351562 1.949219 L 22.648438 1.949219 L 22.648438 22.050781 L 1.351562 22.050781 Z M 1.351562 1.949219 "/>
<path style=" stroke:none;fill-rule:nonzero;fill:rgb(47.058824%,54.509807%,61.176473%);fill-opacity:1;" d="M 22.5 2.101562 L 22.5 21.898438 L 1.5 21.898438 L 1.5 2.101562 L 22.5 2.101562 M 22.800781 1.800781 L 1.199219 1.800781 L 1.199219 22.199219 L 22.800781 22.199219 Z M 22.800781 1.800781 "/>
<path style=" stroke:none;fill-rule:nonzero;fill:rgb(47.058824%,54.509807%,61.176473%);fill-opacity:1;" d="M 1.199219 1.800781 L 22.800781 1.800781 L 22.800781 5.398438 L 1.199219 5.398438 Z M 1.199219 1.800781 "/>
<path style=" stroke:none;fill-rule:nonzero;fill:rgb(54.509807%,71.764708%,94.117647%);fill-opacity:1;" d="M 7.800781 9.898438 L 18.601562 9.898438 L 18.601562 10.199219 L 7.800781 10.199219 Z M 5.398438 9.898438 L 6.300781 9.898438 L 6.300781 10.199219 L 5.398438 10.199219 Z M 7.800781 12.300781 L 18.601562 12.300781 L 18.601562 12.601562 L 7.800781 12.601562 Z M 5.398438 12.300781 L 6.300781 12.300781 L 6.300781 12.601562 L 5.398438 12.601562 Z M 7.800781 14.699219 L 18.601562 14.699219 L 18.601562 15 L 7.800781 15 Z M 5.398438 14.699219 L 6.300781 14.699219 L 6.300781 15 L 5.398438 15 Z M 7.800781 17.101562 L 18.601562 17.101562 L 18.601562 17.398438 L 7.800781 17.398438 Z M 5.398438 17.101562 L 6.300781 17.101562 L 6.300781 17.398438 L 5.398438 17.398438 Z M 5.398438 17.101562 "/>
<path style=" stroke:none;fill-rule:nonzero;fill:rgb(78.431374%,81.960785%,85.882354%);fill-opacity:1;" d="M 13.199219 22.199219 L 22.800781 22.199219 L 22.800781 13.710938 C 22.710938 13.621094 22.589844 13.53125 22.5 13.441406 L 22.5 21.898438 L 12.988281 21.898438 C 13.050781 21.988281 13.140625 22.109375 13.199219 22.199219 Z M 13.199219 22.199219 "/>
<path style=" stroke:none;fill-rule:nonzero;fill:rgb(76.078433%,90.980393%,100%);fill-opacity:1;" d="M 13.441406 14.699219 C 13.351562 14.789062 13.289062 14.910156 13.199219 15 L 18.601562 15 L 18.601562 14.699219 Z M 12.210938 17.101562 C 12.179688 17.191406 12.148438 17.308594 12.121094 17.398438 L 18.601562 17.398438 L 18.601562 17.101562 Z M 12.210938 17.101562 "/>
<path style=" stroke:none;fill-rule:nonzero;fill:rgb(96.862745%,56.078434%,56.078434%);fill-opacity:1;" d="M 18.601562 23.851562 C 15.71875 23.851562 13.351562 21.480469 13.351562 18.601562 C 13.351562 15.71875 15.71875 13.351562 18.601562 13.351562 C 21.480469 13.351562 23.851562 15.71875 23.851562 18.601562 C 23.851562 21.480469 21.480469 23.851562 18.601562 23.851562 Z M 18.601562 23.851562 "/>
<path style=" stroke:none;fill-rule:nonzero;fill:rgb(78.039217%,26.274511%,26.274511%);fill-opacity:1;" d="M 18.601562 13.5 C 21.421875 13.5 23.699219 15.78125 23.699219 18.601562 C 23.699219 21.421875 21.421875 23.699219 18.601562 23.699219 C 15.78125 23.699219 13.5 21.421875 13.5 18.601562 C 13.5 15.78125 15.78125 13.5 18.601562 13.5 M 18.601562 13.199219 C 15.628906 13.199219 13.199219 15.628906 13.199219 18.601562 C 13.199219 21.570312 15.628906 24 18.601562 24 C 21.570312 24 24 21.570312 24 18.601562 C 24 15.628906 21.570312 13.199219 18.601562 13.199219 Z M 18.601562 13.199219 "/>
<path style=" stroke:none;fill-rule:nonzero;fill:rgb(100%,100%,100%);fill-opacity:1;" d="M 16.074219 20.277344 L 20.277344 16.074219 L 21.125 16.925781 L 16.925781 21.125 Z M 16.074219 20.277344 "/>
<path style=" stroke:none;fill-rule:nonzero;fill:rgb(100%,100%,100%);fill-opacity:1;" d="M 16.074219 16.925781 L 16.925781 16.074219 L 21.125 20.277344 L 20.277344 21.125 Z M 16.074219 16.925781 "/>
</g>
</svg>
