<?xml version="1.0" encoding="UTF-8"?>
<svg xmlns="http://www.w3.org/2000/svg" xmlns:xlink="http://www.w3.org/1999/xlink" width="24pt" height="24pt" viewBox="0 0 24 24" version="1.1">
<g id="surface22111">
<path style=" stroke:none;fill-rule:nonzero;fill:rgb(88.235295%,92.156863%,94.901961%);fill-opacity:1;" d="M 6 13.480469 C 4.429688 13.480469 3.148438 12.199219 3.148438 10.628906 L 3.148438 3.601562 C 3.148438 2.027344 4.429688 0.75 6 0.75 C 7.570312 0.75 8.851562 2.027344 8.851562 3.601562 L 8.851562 10.628906 C 8.851562 12.199219 7.570312 13.480469 6 13.480469 Z M 6 13.480469 "/>
<path style=" stroke:none;fill-rule:nonzero;fill:rgb(47.058824%,54.509807%,61.176473%);fill-opacity:1;" d="M 6 0.898438 C 7.488281 0.898438 8.699219 2.109375 8.699219 3.601562 L 8.699219 10.628906 C 8.699219 12.117188 7.488281 13.328125 6 13.328125 C 4.511719 13.328125 3.300781 12.117188 3.300781 10.628906 L 3.300781 3.601562 C 3.300781 2.109375 4.511719 0.898438 6 0.898438 M 6 0.601562 C 4.351562 0.601562 3 1.949219 3 3.601562 L 3 10.628906 C 3 12.277344 4.351562 13.628906 6 13.628906 C 7.648438 13.628906 9 12.277344 9 10.628906 L 9 3.601562 C 9 1.949219 7.648438 0.601562 6 0.601562 Z M 6 0.601562 "/>
<path style=" stroke:none;fill-rule:nonzero;fill:rgb(54.509807%,71.764708%,94.117647%);fill-opacity:1;" d="M 6 23.25 C 3.4375 23.25 1.351562 21.164062 1.351562 18.601562 C 1.351562 17.183594 1.984375 15.863281 3.09375 14.972656 L 3.148438 14.929688 L 3.148438 9.449219 L 8.851562 9.449219 L 8.851562 14.929688 L 8.90625 14.972656 C 10.015625 15.863281 10.648438 17.183594 10.648438 18.601562 C 10.648438 21.164062 8.5625 23.25 6 23.25 Z M 6 23.25 "/>
<path style=" stroke:none;fill-rule:nonzero;fill:rgb(30.588236%,47.843137%,70.980394%);fill-opacity:1;" d="M 8.699219 9.601562 L 8.699219 15 L 8.8125 15.089844 C 9.882812 15.949219 10.5 17.230469 10.5 18.601562 C 10.5 21.082031 8.480469 23.101562 6 23.101562 C 3.519531 23.101562 1.5 21.082031 1.5 18.601562 C 1.5 17.230469 2.117188 15.949219 3.1875 15.089844 L 3.300781 15 L 3.300781 9.601562 L 8.699219 9.601562 M 9 9.300781 L 3 9.300781 L 3 14.855469 C 1.902344 15.734375 1.199219 17.085938 1.199219 18.601562 C 1.199219 21.25 3.347656 23.398438 6 23.398438 C 8.652344 23.398438 10.800781 21.25 10.800781 18.601562 C 10.800781 17.085938 10.097656 15.734375 9 14.855469 Z M 9 9.300781 "/>
<path style=" stroke:none;fill-rule:nonzero;fill:rgb(76.078433%,90.980393%,100%);fill-opacity:1;" d="M 15 15.148438 C 13.261719 15.148438 11.851562 13.652344 11.851562 11.808594 C 11.851562 10.15625 14.414062 6.710938 15 5.945312 C 15.585938 6.710938 18.148438 10.160156 18.148438 11.808594 C 18.148438 13.652344 16.738281 15.148438 15 15.148438 Z M 15 15.148438 "/>
<path style=" stroke:none;fill-rule:nonzero;fill:rgb(45.490196%,58.823532%,76.862746%);fill-opacity:1;" d="M 15 6.191406 C 16.015625 7.527344 18 10.429688 18 11.808594 C 18 13.570312 16.652344 15 15 15 C 13.347656 15 12 13.570312 12 11.808594 C 12 10.429688 13.984375 7.527344 15 6.191406 M 15 5.699219 C 15 5.699219 11.699219 9.882812 11.699219 11.808594 C 11.699219 13.738281 13.175781 15.300781 15 15.300781 C 16.824219 15.300781 18.300781 13.738281 18.300781 11.808594 C 18.300781 9.882812 15 5.699219 15 5.699219 Z M 15 5.699219 "/>
<path style=" stroke:none;fill-rule:nonzero;fill:rgb(76.078433%,90.980393%,100%);fill-opacity:1;" d="M 20.699219 7.648438 C 19.625 7.648438 18.75 6.707031 18.75 5.550781 C 18.75 4.539062 20.265625 2.578125 20.699219 2.039062 C 21.132812 2.578125 22.648438 4.539062 22.648438 5.550781 C 22.648438 6.707031 21.773438 7.648438 20.699219 7.648438 Z M 20.699219 7.648438 "/>
<path style=" stroke:none;fill-rule:nonzero;fill:rgb(45.490196%,58.823532%,76.862746%);fill-opacity:1;" d="M 20.699219 2.277344 C 21.355469 3.109375 22.5 4.730469 22.5 5.550781 C 22.5 6.625 21.691406 7.5 20.699219 7.5 C 19.707031 7.5 18.898438 6.625 18.898438 5.550781 C 18.898438 4.730469 20.042969 3.109375 20.699219 2.277344 M 20.699219 1.800781 C 20.699219 1.800781 18.601562 4.308594 18.601562 5.550781 C 18.601562 6.792969 19.539062 7.800781 20.699219 7.800781 C 21.859375 7.800781 22.800781 6.792969 22.800781 5.550781 C 22.800781 4.308594 20.699219 1.800781 20.699219 1.800781 Z M 20.699219 1.800781 "/>
<path style=" stroke:none;fill-rule:nonzero;fill:rgb(76.078433%,90.980393%,100%);fill-opacity:1;" d="M 19.5 22.050781 C 18.257812 22.050781 17.25 21.007812 17.25 19.726562 C 17.25 18.59375 19.027344 16.394531 19.5 15.832031 C 19.972656 16.394531 21.75 18.59375 21.75 19.726562 C 21.75 21.007812 20.742188 22.050781 19.5 22.050781 Z M 19.5 22.050781 "/>
<path style=" stroke:none;fill-rule:nonzero;fill:rgb(45.490196%,58.823532%,76.862746%);fill-opacity:1;" d="M 19.5 16.066406 C 20.246094 16.96875 21.601562 18.800781 21.601562 19.726562 C 21.601562 20.925781 20.65625 21.898438 19.5 21.898438 C 18.34375 21.898438 17.398438 20.925781 17.398438 19.726562 C 17.398438 18.800781 18.753906 16.96875 19.5 16.066406 M 19.5 15.601562 C 19.5 15.601562 17.101562 18.359375 17.101562 19.726562 C 17.101562 21.09375 18.175781 22.199219 19.5 22.199219 C 20.824219 22.199219 21.898438 21.09375 21.898438 19.726562 C 21.898438 18.359375 19.5 15.601562 19.5 15.601562 Z M 19.5 15.601562 "/>
<path style=" stroke:none;fill-rule:nonzero;fill:rgb(30.588236%,47.843137%,70.980394%);fill-opacity:1;" d="M 5.398438 12 L 9 12 L 9 12.300781 L 5.398438 12.300781 Z M 5.398438 14.699219 L 9 14.699219 L 9 15 L 5.398438 15 Z M 5.398438 14.699219 "/>
<path style=" stroke:none;fill-rule:nonzero;fill:rgb(47.058824%,54.509807%,61.176473%);fill-opacity:1;" d="M 5.398438 6.601562 L 9 6.601562 L 9 6.898438 L 5.398438 6.898438 Z M 5.398438 3.898438 L 9 3.898438 L 9 4.199219 L 5.398438 4.199219 Z M 5.398438 3.898438 "/>
</g>
</svg>
