<?xml version="1.0" encoding="UTF-8"?>
<svg xmlns="http://www.w3.org/2000/svg" xmlns:xlink="http://www.w3.org/1999/xlink" width="24pt" height="24pt" viewBox="0 0 24 24" version="1.1">
<g id="surface42878">
<path style=" stroke:none;fill-rule:nonzero;fill:rgb(100%,93.333334%,63.921571%);fill-opacity:1;" d="M 9.40625 10.113281 L 13.003906 6.511719 L 13.890625 7.398438 L 10.292969 11 Z M 9.40625 10.113281 "/>
<path style=" stroke:none;fill-rule:nonzero;fill:rgb(72.941178%,60.784316%,28.235295%);fill-opacity:1;" d="M 13.003906 6.726562 L 13.679688 7.398438 L 10.292969 10.785156 L 9.617188 10.113281 L 13.003906 6.726562 M 13.003906 6.300781 L 9.191406 10.113281 L 9.40625 10.324219 L 10.292969 11.210938 L 14.105469 7.398438 L 13.890625 7.1875 Z M 13.003906 6.300781 "/>
<path style=" stroke:none;fill-rule:nonzero;fill:rgb(100%,93.333334%,63.921571%);fill-opacity:1;" d="M 13 13.707031 L 16.601562 10.109375 L 17.488281 10.996094 L 13.886719 14.59375 Z M 13 13.707031 "/>
<path style=" stroke:none;fill-rule:nonzero;fill:rgb(72.941178%,60.784316%,28.235295%);fill-opacity:1;" d="M 16.601562 10.320312 L 17.273438 10.996094 L 13.886719 14.382812 L 13.214844 13.707031 L 16.601562 10.320312 M 16.601562 9.894531 L 12.789062 13.707031 L 13.675781 14.59375 L 13.886719 14.808594 L 17.699219 10.996094 L 16.8125 10.109375 Z M 16.601562 9.894531 "/>
<path style=" stroke:none;fill-rule:nonzero;fill:rgb(69.01961%,75.686276%,83.137256%);fill-opacity:1;" d="M 12.152344 4.625 L 15.148438 1.628906 C 15.714844 1.0625 16.46875 0.75 17.273438 0.75 C 18.074219 0.75 18.828125 1.0625 19.398438 1.628906 L 20.089844 2.324219 L 21.601562 0.8125 L 23.1875 2.398438 L 21.675781 3.910156 L 22.371094 4.601562 C 22.9375 5.171875 23.25 5.925781 23.25 6.726562 C 23.25 7.53125 22.9375 8.285156 22.371094 8.851562 L 19.375 11.847656 Z M 12.152344 4.625 "/>
<path style=" stroke:none;fill-rule:nonzero;fill:rgb(40.000001%,47.450981%,56.078434%);fill-opacity:1;" d="M 17.273438 0.898438 C 18.035156 0.898438 18.75 1.195312 19.289062 1.734375 L 20.089844 2.535156 L 21.601562 1.023438 L 22.976562 2.398438 L 21.464844 3.910156 L 22.265625 4.710938 C 23.375 5.824219 23.375 7.632812 22.265625 8.746094 L 19.375 11.636719 L 12.363281 4.625 L 15.253906 1.734375 C 15.792969 1.195312 16.511719 0.898438 17.273438 0.898438 M 17.273438 0.601562 C 16.464844 0.601562 15.65625 0.90625 15.042969 1.523438 L 11.941406 4.625 L 19.375 12.058594 L 22.476562 8.957031 C 23.707031 7.726562 23.707031 5.730469 22.476562 4.496094 L 21.886719 3.910156 L 23.398438 2.398438 L 21.601562 0.601562 L 20.089844 2.113281 L 19.503906 1.523438 C 18.886719 0.90625 18.078125 0.601562 17.273438 0.601562 Z M 17.273438 0.601562 "/>
<path style=" stroke:none;fill-rule:nonzero;fill:rgb(69.01961%,75.686276%,83.137256%);fill-opacity:1;" d="M 9.609375 5.902344 L 10.953125 4.558594 C 11.367188 4.144531 11.898438 3.90625 12.414062 3.90625 C 12.792969 3.90625 13.117188 4.03125 13.359375 4.273438 L 19.726562 10.640625 C 20.007812 10.921875 20.132812 11.320312 20.082031 11.769531 C 20.035156 12.230469 19.804688 12.683594 19.441406 13.046875 L 18.097656 14.390625 Z M 9.609375 5.902344 "/>
<path style=" stroke:none;fill-rule:nonzero;fill:rgb(40.000001%,47.450981%,56.078434%);fill-opacity:1;" d="M 12.414062 4.054688 C 12.75 4.054688 13.039062 4.167969 13.25 4.378906 L 19.621094 10.75 C 19.867188 10.992188 19.980469 11.351562 19.933594 11.753906 C 19.886719 12.179688 19.675781 12.601562 19.335938 12.941406 L 18.097656 14.179688 L 9.820312 5.902344 L 11.058594 4.664062 C 11.445312 4.277344 11.9375 4.054688 12.414062 4.054688 M 12.414062 3.753906 C 11.882812 3.753906 11.304688 3.992188 10.847656 4.449219 L 9.398438 5.902344 L 18.097656 14.601562 L 19.550781 13.152344 C 20.351562 12.351562 20.476562 11.179688 19.832031 10.535156 L 13.464844 4.167969 C 13.1875 3.890625 12.8125 3.753906 12.414062 3.753906 Z M 12.414062 3.753906 "/>
<path style=" stroke:none;fill-rule:nonzero;fill:rgb(69.01961%,75.686276%,83.137256%);fill-opacity:1;" d="M 6.726562 23.25 C 5.925781 23.25 5.171875 22.9375 4.601562 22.371094 L 3.910156 21.675781 L 2.425781 23.160156 L 0.839844 21.574219 L 2.324219 20.089844 L 1.628906 19.398438 C 1.0625 18.828125 0.75 18.074219 0.75 17.273438 C 0.75 16.46875 1.0625 15.714844 1.628906 15.148438 L 4.625 12.152344 L 11.847656 19.375 L 8.851562 22.371094 C 8.285156 22.9375 7.53125 23.25 6.726562 23.25 Z M 6.726562 23.25 "/>
<path style=" stroke:none;fill-rule:nonzero;fill:rgb(40.000001%,47.450981%,56.078434%);fill-opacity:1;" d="M 4.625 12.363281 L 11.636719 19.375 L 8.746094 22.265625 C 8.207031 22.804688 7.488281 23.101562 6.726562 23.101562 C 5.964844 23.101562 5.25 22.804688 4.710938 22.265625 L 3.910156 21.464844 L 3.699219 21.675781 L 2.425781 22.945312 L 1.054688 21.574219 L 2.324219 20.300781 L 2.535156 20.089844 L 1.734375 19.289062 C 1.195312 18.75 0.898438 18.035156 0.898438 17.273438 C 0.898438 16.511719 1.195312 15.792969 1.734375 15.253906 L 4.625 12.363281 M 4.625 11.941406 L 1.523438 15.042969 C 0.292969 16.273438 0.292969 18.269531 1.523438 19.503906 L 2.113281 20.089844 L 0.628906 21.574219 L 2.425781 23.371094 L 3.910156 21.886719 L 4.496094 22.476562 C 5.113281 23.09375 5.921875 23.398438 6.726562 23.398438 C 7.535156 23.398438 8.34375 23.09375 8.957031 22.476562 L 12.058594 19.375 Z M 4.625 11.941406 "/>
<path style=" stroke:none;fill-rule:nonzero;fill:rgb(69.01961%,75.686276%,83.137256%);fill-opacity:1;" d="M 11.582031 20.230469 C 11.1875 20.230469 10.824219 20.082031 10.554688 19.816406 L 4.183594 13.445312 C 3.902344 13.164062 3.757812 12.78125 3.769531 12.367188 C 3.785156 11.949219 3.960938 11.550781 4.265625 11.246094 L 5.402344 10.105469 L 13.894531 18.597656 L 12.753906 19.734375 C 12.4375 20.050781 12.011719 20.230469 11.582031 20.230469 Z M 11.582031 20.230469 "/>
<path style=" stroke:none;fill-rule:nonzero;fill:rgb(40.000001%,47.450981%,56.078434%);fill-opacity:1;" d="M 5.402344 10.320312 L 13.679688 18.597656 L 12.648438 19.628906 C 12.359375 19.917969 11.972656 20.082031 11.582031 20.082031 C 11.230469 20.082031 10.902344 19.949219 10.660156 19.707031 L 4.292969 13.339844 C 4.039062 13.085938 3.90625 12.742188 3.917969 12.371094 C 3.933594 11.992188 4.09375 11.628906 4.371094 11.351562 L 5.402344 10.320312 M 5.402344 9.894531 L 4.160156 11.140625 C 3.472656 11.828125 3.4375 12.90625 4.078125 13.550781 L 10.449219 19.921875 C 10.757812 20.230469 11.164062 20.382812 11.582031 20.382812 C 12.035156 20.382812 12.5 20.199219 12.859375 19.839844 L 14.105469 18.597656 Z M 5.402344 9.894531 "/>
</g>
</svg>
