<?xml version="1.0" encoding="UTF-8"?>
<svg xmlns="http://www.w3.org/2000/svg" xmlns:xlink="http://www.w3.org/1999/xlink" width="24pt" height="24pt" viewBox="0 0 24 24" version="1.1">
<g id="surface30493">
<path style=" stroke:none;fill-rule:nonzero;fill:rgb(54.509807%,71.764708%,94.117647%);fill-opacity:1;" d="M 2.230469 20.851562 C 1.414062 20.851562 0.75 20.183594 0.75 19.367188 L 0.75 4.632812 C 0.75 3.816406 1.414062 3.148438 2.230469 3.148438 L 21.765625 3.148438 C 22.585938 3.148438 23.25 3.816406 23.25 4.632812 L 23.25 19.367188 C 23.25 20.183594 22.585938 20.851562 21.765625 20.851562 Z M 2.230469 20.851562 "/>
<path style=" stroke:none;fill-rule:nonzero;fill:rgb(45.490196%,58.823532%,76.862746%);fill-opacity:1;" d="M 21.765625 3.300781 C 22.503906 3.300781 23.101562 3.898438 23.101562 4.632812 L 23.101562 19.367188 C 23.101562 20.101562 22.503906 20.699219 21.765625 20.699219 L 2.234375 20.699219 C 1.496094 20.699219 0.898438 20.101562 0.898438 19.367188 L 0.898438 4.632812 C 0.898438 3.898438 1.496094 3.300781 2.234375 3.300781 L 21.765625 3.300781 M 21.765625 3 L 2.234375 3 C 1.332031 3 0.601562 3.730469 0.601562 4.632812 L 0.601562 19.367188 C 0.601562 20.269531 1.332031 21 2.234375 21 L 21.769531 21 C 22.667969 21 23.398438 20.269531 23.398438 19.367188 L 23.398438 4.632812 C 23.398438 3.730469 22.667969 3 21.765625 3 Z M 21.765625 3 "/>
<path style=" stroke:none;fill-rule:nonzero;fill:rgb(100%,100%,100%);fill-opacity:1;" d="M 18.898438 6.300781 L 18 7.199219 L 15.601562 7.199219 L 14.699219 6.300781 L 15.601562 5.398438 L 18 5.398438 Z M 15 16.199219 L 15 7.800781 L 14.101562 6.898438 L 13.199219 7.800781 L 13.199219 16.199219 L 14.101562 17.101562 Z M 18 16.800781 L 15.601562 16.800781 L 14.699219 17.699219 L 15.601562 18.601562 L 18 18.601562 L 18.898438 17.699219 Z M 19.5 6.898438 L 18.601562 7.800781 L 18.601562 16.199219 L 19.5 17.101562 L 20.398438 16.199219 L 20.398438 7.800781 Z M 9.300781 6.300781 L 8.398438 7.199219 L 6 7.199219 L 5.101562 6.300781 L 6 5.398438 L 8.398438 5.398438 Z M 5.398438 16.199219 L 5.398438 7.800781 L 4.5 6.898438 L 3.601562 7.800781 L 3.601562 16.199219 L 4.5 17.101562 Z M 8.398438 16.800781 L 6 16.800781 L 5.101562 17.699219 L 6 18.601562 L 8.398438 18.601562 L 9.300781 17.699219 Z M 9.898438 6.898438 L 9 7.800781 L 9 16.199219 L 9.898438 17.101562 L 10.800781 16.199219 L 10.800781 7.800781 Z M 9.898438 6.898438 "/>
</g>
</svg>
