<?xml version="1.0" encoding="UTF-8"?>
<svg xmlns="http://www.w3.org/2000/svg" xmlns:xlink="http://www.w3.org/1999/xlink" width="24pt" height="24pt" viewBox="0 0 24 24" version="1.1">
<g id="surface7630">
<path style=" stroke:none;fill-rule:nonzero;fill:rgb(96.078432%,80.784315%,52.156866%);fill-opacity:1;" d="M 3.464844 17.5 L 5.136719 15.828125 L 8.390625 18.660156 L 6.515625 20.539062 L 1.1875 22.8125 Z M 3.464844 17.5 "/>
<path style=" stroke:none;fill-rule:nonzero;fill:rgb(58.823532%,47.843137%,26.666668%);fill-opacity:1;" d="M 5.144531 16.03125 L 8.171875 18.667969 L 6.429688 20.410156 L 1.472656 22.527344 L 3.589844 17.585938 L 5.144531 16.03125 M 5.128906 15.621094 L 3.335938 17.414062 L 0.902344 23.097656 L 6.601562 20.664062 L 8.609375 18.652344 Z M 5.128906 15.621094 "/>
<path style=" stroke:none;fill-rule:nonzero;fill:rgb(21.176471%,25.098041%,30.19608%);fill-opacity:1;" d="M 2.28125 19.878906 L 0.902344 23.101562 L 4.132812 21.71875 Z M 2.28125 19.878906 "/>
<path style=" stroke:none;fill-rule:nonzero;fill:rgb(96.862745%,56.078434%,56.078434%);fill-opacity:1;" d="M 17.824219 3.128906 L 19.273438 1.679688 C 19.679688 1.273438 20.222656 1.050781 20.796875 1.050781 C 21.371094 1.050781 21.910156 1.273438 22.320312 1.679688 C 23.15625 2.519531 23.15625 3.886719 22.320312 4.726562 L 20.871094 6.171875 Z M 17.824219 3.128906 "/>
<path style=" stroke:none;fill-rule:nonzero;fill:rgb(78.039217%,26.274511%,26.274511%);fill-opacity:1;" d="M 20.796875 1.199219 C 21.332031 1.199219 21.835938 1.40625 22.210938 1.785156 C 22.992188 2.566406 22.992188 3.839844 22.210938 4.621094 L 20.871094 5.960938 L 18.039062 3.128906 L 19.378906 1.785156 C 19.757812 1.40625 20.261719 1.199219 20.796875 1.199219 M 20.796875 0.898438 C 20.207031 0.898438 19.617188 1.125 19.167969 1.574219 L 17.613281 3.128906 L 20.871094 6.386719 L 22.425781 4.832031 C 23.324219 3.933594 23.324219 2.472656 22.425781 1.574219 C 21.976562 1.125 21.386719 0.898438 20.796875 0.898438 Z M 20.796875 0.898438 "/>
<path style=" stroke:none;fill-rule:nonzero;fill:rgb(100%,93.333334%,63.921571%);fill-opacity:1;" d="M 6.734375 20.316406 C 6.707031 20.171875 6.648438 20.003906 6.523438 19.859375 C 6.34375 19.644531 6.074219 19.527344 5.71875 19.5 C 5.648438 18.675781 4.976562 18.375 4.523438 18.3125 C 4.46875 17.675781 4.042969 17.394531 3.660156 17.300781 L 16.832031 4.121094 L 19.875 7.167969 Z M 6.734375 20.316406 "/>
<path style=" stroke:none;fill-rule:nonzero;fill:rgb(72.941178%,60.784316%,28.235295%);fill-opacity:1;" d="M 16.832031 4.335938 L 19.664062 7.167969 L 6.808594 20.03125 C 6.765625 19.941406 6.710938 19.847656 6.636719 19.761719 C 6.453125 19.542969 6.1875 19.410156 5.851562 19.363281 C 5.730469 18.605469 5.128906 18.28125 4.660156 18.183594 C 4.578125 17.667969 4.269531 17.378906 3.9375 17.238281 L 16.832031 4.335938 M 16.832031 3.910156 L 3.335938 17.414062 C 3.335938 17.414062 3.339844 17.414062 3.347656 17.414062 C 3.46875 17.414062 4.378906 17.445312 4.378906 18.453125 C 4.378906 18.453125 5.574219 18.488281 5.574219 19.644531 C 6.761719 19.644531 6.601562 20.664062 6.601562 20.664062 L 20.089844 7.167969 Z M 16.832031 3.910156 "/>
<path style=" stroke:none;fill-rule:nonzero;fill:rgb(85.09804%,90.588236%,96.078432%);fill-opacity:1;" d="M 16.324219 4.628906 L 18.902344 2.050781 L 21.949219 5.09375 L 19.371094 7.671875 Z M 16.324219 4.628906 "/>
<path style=" stroke:none;fill-rule:nonzero;fill:rgb(47.058824%,54.509807%,61.176473%);fill-opacity:1;" d="M 18.90625 2.261719 L 21.738281 5.09375 L 19.371094 7.460938 L 16.539062 4.628906 L 18.90625 2.261719 M 18.90625 1.835938 L 16.113281 4.628906 L 19.371094 7.886719 L 22.160156 5.09375 Z M 18.90625 1.835938 "/>
</g>
</svg>
