<?xml version="1.0" encoding="UTF-8"?>
<svg xmlns="http://www.w3.org/2000/svg" xmlns:xlink="http://www.w3.org/1999/xlink" width="24pt" height="24pt" viewBox="0 0 24 24" version="1.1">
<g id="surface49865">
<path style=" stroke:none;fill-rule:nonzero;fill:rgb(100%,100%,100%);fill-opacity:1;" d="M 1.351562 1.949219 L 22.648438 1.949219 L 22.648438 22.050781 L 1.351562 22.050781 Z M 1.351562 1.949219 "/>
<path style=" stroke:none;fill-rule:nonzero;fill:rgb(47.058824%,54.509807%,61.176473%);fill-opacity:1;" d="M 22.5 2.101562 L 22.5 21.898438 L 1.5 21.898438 L 1.5 2.101562 L 22.5 2.101562 M 22.800781 1.800781 L 1.199219 1.800781 L 1.199219 22.199219 L 22.800781 22.199219 Z M 22.800781 1.800781 "/>
<path style=" stroke:none;fill-rule:nonzero;fill:rgb(47.058824%,54.509807%,61.176473%);fill-opacity:1;" d="M 1.199219 1.800781 L 22.800781 1.800781 L 22.800781 5.398438 L 1.199219 5.398438 Z M 1.199219 1.800781 "/>
<path style=" stroke:none;fill-rule:nonzero;fill:rgb(54.509807%,71.764708%,94.117647%);fill-opacity:1;" d="M 7.800781 9.898438 L 18.601562 9.898438 L 18.601562 10.199219 L 7.800781 10.199219 Z M 5.398438 9.898438 L 6.300781 9.898438 L 6.300781 10.199219 L 5.398438 10.199219 Z M 7.800781 12.300781 L 18.601562 12.300781 L 18.601562 12.601562 L 7.800781 12.601562 Z M 5.398438 12.300781 L 6.300781 12.300781 L 6.300781 12.601562 L 5.398438 12.601562 Z M 7.800781 14.699219 L 18.601562 14.699219 L 18.601562 15 L 7.800781 15 Z M 5.398438 14.699219 L 6.300781 14.699219 L 6.300781 15 L 5.398438 15 Z M 7.800781 17.101562 L 18.601562 17.101562 L 18.601562 17.398438 L 7.800781 17.398438 Z M 5.398438 17.101562 L 6.300781 17.101562 L 6.300781 17.398438 L 5.398438 17.398438 Z M 5.398438 17.101562 "/>
<path style=" stroke:none;fill-rule:nonzero;fill:rgb(78.431374%,81.960785%,85.882354%);fill-opacity:1;" d="M 22.5 12 L 22.5 21.898438 L 12.628906 21.898438 L 12.539062 22.199219 L 22.800781 22.199219 L 22.800781 12.03125 C 22.710938 12 22.621094 12 22.5 12 Z M 22.5 12 "/>
<path style=" stroke:none;fill-rule:nonzero;fill:rgb(76.078433%,90.980393%,100%);fill-opacity:1;" d="M 16.558594 17.101562 L 16.261719 17.398438 L 18.601562 17.398438 L 18.601562 17.101562 Z M 16.558594 17.101562 "/>
<path style=" stroke:none;fill-rule:nonzero;fill:rgb(96.078432%,80.784315%,52.156866%);fill-opacity:1;" d="M 14.308594 21 L 15.328125 19.980469 L 17.371094 21.71875 L 16.199219 22.890625 L 13.441406 23.761719 Z M 14.308594 21 "/>
<path style=" stroke:none;fill-rule:nonzero;fill:rgb(58.823532%,47.843137%,26.666668%);fill-opacity:1;" d="M 15.359375 20.160156 L 17.160156 21.71875 L 16.140625 22.738281 L 13.679688 23.519531 L 14.460938 21.058594 L 15.359375 20.160156 M 15.328125 19.769531 L 14.160156 20.941406 L 13.199219 24 L 16.289062 23.039062 L 17.578125 21.75 Z M 15.328125 19.769531 "/>
<path style=" stroke:none;fill-rule:nonzero;fill:rgb(21.176471%,25.098041%,30.19608%);fill-opacity:1;" d="M 13.738281 22.289062 L 13.199219 24 L 14.910156 23.460938 Z M 13.738281 22.289062 "/>
<path style=" stroke:none;fill-rule:nonzero;fill:rgb(96.862745%,56.078434%,56.078434%);fill-opacity:1;" d="M 20.96875 14.339844 L 21.539062 13.769531 C 21.78125 13.53125 22.140625 13.378906 22.5 13.378906 C 22.859375 13.378906 23.191406 13.53125 23.460938 13.769531 C 23.96875 14.28125 23.96875 15.148438 23.460938 15.660156 L 22.890625 16.230469 Z M 20.96875 14.339844 "/>
<path style=" stroke:none;fill-rule:nonzero;fill:rgb(78.039217%,26.274511%,26.274511%);fill-opacity:1;" d="M 22.5 13.5 C 22.828125 13.5 23.128906 13.621094 23.339844 13.859375 C 23.789062 14.308594 23.789062 15.089844 23.339844 15.539062 L 22.859375 16.019531 L 21.179688 14.339844 L 21.660156 13.859375 C 21.898438 13.621094 22.199219 13.5 22.5 13.5 M 22.5 13.199219 C 22.109375 13.199219 21.75 13.351562 21.449219 13.648438 L 20.761719 14.339844 L 22.859375 16.441406 L 23.550781 15.75 C 24.121094 15.179688 24.121094 14.21875 23.550781 13.648438 C 23.28125 13.351562 22.890625 13.199219 22.5 13.199219 Z M 22.5 13.199219 "/>
<path style=" stroke:none;fill-rule:nonzero;fill:rgb(100%,93.333334%,63.921571%);fill-opacity:1;" d="M 16.410156 22.710938 C 16.378906 22.621094 16.351562 22.558594 16.289062 22.46875 C 16.171875 22.320312 15.988281 22.261719 15.78125 22.230469 C 15.71875 21.71875 15.300781 21.511719 15 21.480469 C 14.941406 21.121094 14.730469 20.941406 14.488281 20.851562 L 20.28125 15.058594 L 22.171875 16.949219 Z M 16.410156 22.710938 "/>
<path style=" stroke:none;fill-rule:nonzero;fill:rgb(72.941178%,60.784316%,28.235295%);fill-opacity:1;" d="M 20.25 15.238281 L 21.929688 16.921875 L 16.441406 22.441406 C 16.410156 22.410156 16.410156 22.378906 16.378906 22.378906 C 16.289062 22.261719 16.140625 22.140625 15.871094 22.109375 C 15.78125 21.660156 15.421875 21.449219 15.089844 21.359375 C 15.03125 21.121094 14.878906 20.910156 14.699219 20.820312 L 20.25 15.238281 M 20.25 14.820312 L 14.191406 20.910156 C 14.28125 20.910156 14.851562 20.941406 14.851562 21.570312 C 14.851562 21.570312 15.628906 21.601562 15.628906 22.351562 C 16.410156 22.351562 16.289062 23.011719 16.289062 23.011719 L 22.378906 16.921875 Z M 20.25 14.820312 "/>
<path style=" stroke:none;fill-rule:nonzero;fill:rgb(85.09804%,90.588236%,96.078432%);fill-opacity:1;" d="M 19.710938 15.601562 L 21.300781 14.011719 L 23.191406 15.898438 L 21.601562 17.488281 Z M 19.710938 15.601562 "/>
<path style=" stroke:none;fill-rule:nonzero;fill:rgb(47.058824%,54.509807%,61.176473%);fill-opacity:1;" d="M 21.300781 14.21875 L 22.980469 15.898438 L 21.601562 17.28125 L 19.921875 15.601562 L 21.300781 14.21875 M 21.300781 13.800781 L 19.5 15.601562 L 21.601562 17.699219 L 23.398438 15.898438 Z M 21.300781 13.800781 "/>
</g>
</svg>
