<?xml version="1.0" encoding="UTF-8"?>
<svg xmlns="http://www.w3.org/2000/svg" xmlns:xlink="http://www.w3.org/1999/xlink" width="24pt" height="24pt" viewBox="0 0 24 24" version="1.1">
<g id="surface33607">
<path style=" stroke:none;fill-rule:nonzero;fill:rgb(54.509807%,71.764708%,94.117647%);fill-opacity:1;" d="M 7.289062 13.648438 L 8.972656 16.835938 L 13.460938 11.316406 L 4.46875 8.914062 L 10.871094 1.351562 L 15.863281 1.351562 L 10.523438 7.28125 L 19.523438 9.679688 L 11.136719 18.789062 L 14.019531 20.351562 L 5.589844 22.59375 Z M 7.289062 13.648438 "/>
<path style=" stroke:none;fill-rule:nonzero;fill:rgb(30.588236%,47.843137%,70.980394%);fill-opacity:1;" d="M 15.527344 1.5 L 10.578125 7 L 10.25 7.363281 L 10.722656 7.488281 L 19.242188 9.761719 L 11.15625 18.546875 L 10.898438 18.832031 L 11.234375 19.015625 L 13.613281 20.304688 L 5.785156 22.386719 L 7.355469 14.097656 L 8.734375 16.703125 L 8.945312 17.105469 L 9.234375 16.753906 L 13.433594 11.589844 L 13.726562 11.230469 L 13.277344 11.109375 L 4.734375 8.832031 L 10.9375 1.5 L 15.527344 1.5 M 16.199219 1.199219 L 10.800781 1.199219 L 4.199219 9 L 13.199219 11.398438 L 9 16.5625 L 7.222656 13.199219 L 5.398438 22.800781 L 14.421875 20.398438 L 11.378906 18.75 L 19.800781 9.601562 L 10.800781 7.199219 Z M 16.199219 1.199219 "/>
</g>
</svg>
