<?xml version="1.0" encoding="UTF-8"?>
<svg xmlns="http://www.w3.org/2000/svg" xmlns:xlink="http://www.w3.org/1999/xlink" width="24pt" height="24pt" viewBox="0 0 24 24" version="1.1">
<g id="surface19592">
<path style=" stroke:none;fill-rule:nonzero;fill:rgb(94.901961%,98.039216%,100%);fill-opacity:1;" d="M 8.605469 23.25 C 8.183594 23.25 7.785156 23.085938 7.488281 22.785156 L 1.214844 16.511719 C 0.914062 16.214844 0.75 15.816406 0.75 15.394531 C 0.75 14.972656 0.914062 14.574219 1.214844 14.277344 L 14.277344 1.214844 C 14.574219 0.914062 14.972656 0.75 15.394531 0.75 C 15.816406 0.75 16.214844 0.914062 16.511719 1.214844 L 22.785156 7.488281 C 23.085938 7.785156 23.25 8.183594 23.25 8.605469 C 23.25 9.027344 23.085938 9.421875 22.785156 9.722656 L 9.722656 22.785156 C 9.425781 23.085938 9.027344 23.25 8.605469 23.25 Z M 8.605469 23.25 "/>
<path style=" stroke:none;fill-rule:nonzero;fill:rgb(47.058824%,54.509807%,61.176473%);fill-opacity:1;" d="M 15.394531 0.898438 C 15.777344 0.898438 16.136719 1.046875 16.40625 1.320312 L 22.679688 7.59375 C 22.953125 7.863281 23.101562 8.222656 23.101562 8.605469 C 23.101562 8.988281 22.953125 9.347656 22.679688 9.617188 L 9.617188 22.679688 C 9.347656 22.953125 8.988281 23.101562 8.605469 23.101562 C 8.222656 23.101562 7.863281 22.953125 7.59375 22.679688 L 1.320312 16.40625 C 1.046875 16.136719 0.898438 15.777344 0.898438 15.394531 C 0.898438 15.011719 1.046875 14.652344 1.320312 14.382812 L 14.382812 1.320312 C 14.652344 1.046875 15.011719 0.898438 15.394531 0.898438 M 15.394531 0.601562 C 14.953125 0.601562 14.507812 0.769531 14.171875 1.105469 L 1.105469 14.171875 C 0.429688 14.847656 0.429688 15.945312 1.105469 16.621094 L 7.378906 22.894531 C 7.71875 23.230469 8.160156 23.398438 8.605469 23.398438 C 9.046875 23.398438 9.492188 23.230469 9.828125 22.894531 L 22.894531 9.828125 C 23.570312 9.152344 23.570312 8.054688 22.894531 7.378906 L 16.621094 1.105469 C 16.28125 0.769531 15.839844 0.601562 15.394531 0.601562 Z M 15.394531 0.601562 "/>
<path style=" stroke:none;fill-rule:nonzero;fill:rgb(69.01961%,75.686276%,83.137256%);fill-opacity:1;" d="M 7.609375 7.882812 L 14.277344 1.214844 C 14.574219 0.914062 14.972656 0.75 15.394531 0.75 C 15.816406 0.75 16.214844 0.914062 16.511719 1.214844 L 22.785156 7.488281 C 23.085938 7.785156 23.25 8.183594 23.25 8.605469 C 23.25 9.027344 23.085938 9.421875 22.785156 9.722656 L 16.117188 16.390625 Z M 7.609375 7.882812 "/>
<path style=" stroke:none;fill-rule:nonzero;fill:rgb(40.000001%,47.450981%,56.078434%);fill-opacity:1;" d="M 15.394531 0.898438 C 15.777344 0.898438 16.136719 1.046875 16.40625 1.320312 L 22.679688 7.59375 C 22.953125 7.863281 23.101562 8.222656 23.101562 8.605469 C 23.101562 8.988281 22.953125 9.347656 22.679688 9.617188 L 16.117188 16.179688 L 7.820312 7.882812 L 14.382812 1.320312 C 14.652344 1.046875 15.011719 0.898438 15.394531 0.898438 M 15.394531 0.601562 C 14.953125 0.601562 14.507812 0.769531 14.171875 1.105469 L 7.398438 7.882812 L 16.117188 16.601562 L 22.894531 9.828125 C 23.570312 9.152344 23.570312 8.054688 22.894531 7.378906 L 16.621094 1.105469 C 16.28125 0.769531 15.839844 0.601562 15.394531 0.601562 Z M 15.394531 0.601562 "/>
<path style=" stroke:none;fill-rule:nonzero;fill:rgb(79.215688%,83.529413%,89.019608%);fill-opacity:1;" d="M 13.894531 1.804688 L 14.335938 1.367188 C 14.921875 0.78125 15.871094 0.78125 16.457031 1.367188 L 22.632812 7.542969 C 23.21875 8.128906 23.21875 9.078125 22.632812 9.664062 L 22.195312 10.101562 Z M 13.894531 1.804688 "/>
</g>
</svg>
