<?xml version="1.0" encoding="UTF-8"?>
<svg xmlns="http://www.w3.org/2000/svg" xmlns:xlink="http://www.w3.org/1999/xlink" width="24pt" height="24pt" viewBox="0 0 24 24" version="1.1">
<g id="surface12387">
<path style=" stroke:none;fill-rule:nonzero;fill:rgb(100%,93.333334%,63.921571%);fill-opacity:1;" d="M 7.949219 15 L 16.949219 15 L 16.949219 23.234375 L 7.949219 23.234375 Z M 7.949219 15 "/>
<path style=" stroke:none;fill-rule:nonzero;fill:rgb(72.941178%,60.784316%,28.235295%);fill-opacity:1;" d="M 17.101562 23.382812 L 7.800781 23.382812 L 7.800781 14.851562 L 17.101562 14.851562 Z M 8.101562 23.085938 L 16.800781 23.085938 L 16.800781 15.148438 L 8.101562 15.148438 Z M 8.101562 23.085938 "/>
<path style=" stroke:none;fill-rule:nonzero;fill:rgb(72.941178%,60.784316%,28.235295%);fill-opacity:1;" d="M 15 16.949219 L 15.300781 16.949219 L 15.300781 22.425781 L 15 22.425781 Z M 15 16.949219 "/>
<path style=" stroke:none;fill-rule:nonzero;fill:rgb(72.941178%,60.784316%,28.235295%);fill-opacity:1;" d="M 13.199219 16.949219 L 13.5 16.949219 L 13.5 22.425781 L 13.199219 22.425781 Z M 13.199219 16.949219 "/>
<path style=" stroke:none;fill-rule:nonzero;fill:rgb(72.941178%,60.784316%,28.235295%);fill-opacity:1;" d="M 11.398438 16.949219 L 11.699219 16.949219 L 11.699219 22.425781 L 11.398438 22.425781 Z M 11.398438 16.949219 "/>
<path style=" stroke:none;fill-rule:nonzero;fill:rgb(72.941178%,60.784316%,28.235295%);fill-opacity:1;" d="M 7.550781 20.101562 L 16.949219 20.101562 L 16.949219 20.398438 L 7.550781 20.398438 Z M 7.550781 20.101562 "/>
<path style=" stroke:none;fill-rule:nonzero;fill:rgb(77.254903%,83.137256%,87.058824%);fill-opacity:1;" d="M 11.339844 21.75 C 10.21875 21.75 9.296875 20.871094 9.296875 19.800781 C 9.296875 18.726562 10.21875 17.851562 11.339844 17.851562 L 18.148438 17.851562 L 18.148438 8.25 C 18.148438 5.609375 15.84375 3.449219 13.023438 3.449219 L 10.375 3.449219 C 7.554688 3.449219 5.25 5.609375 5.25 8.25 L 5.25 23.695312 L 16.910156 23.695312 L 16.910156 21.75 Z M 11.339844 21.75 "/>
<path style=" stroke:none;fill-rule:nonzero;fill:rgb(100%,100%,100%);fill-opacity:1;" d="M 7.351562 22 C 7.265625 22 7.199219 21.933594 7.199219 21.851562 L 7.199219 8.050781 C 7.199219 6.257812 8.65625 4.800781 10.449219 4.800781 C 10.53125 4.800781 10.601562 4.867188 10.601562 4.949219 C 10.601562 5.03125 10.53125 5.101562 10.449219 5.101562 C 8.824219 5.101562 7.5 6.421875 7.5 8.050781 L 7.5 21.851562 C 7.5 21.933594 7.433594 22 7.351562 22 Z M 7.351562 22 "/>
<path style=" stroke:none;fill-rule:nonzero;fill:rgb(69.01961%,75.686276%,83.137256%);fill-opacity:1;" d="M 9.851562 15.625 L 12.277344 17.851562 L 18.207031 17.851562 L 18.207031 15.90625 Z M 9.851562 15.625 "/>
<path style=" stroke:none;fill-rule:nonzero;fill:rgb(77.254903%,83.137256%,87.058824%);fill-opacity:1;" d="M 10.648438 0.148438 L 11.851562 0.148438 L 11.851562 2.648438 L 10.648438 2.648438 Z M 10.648438 0.148438 "/>
<path style=" stroke:none;fill-rule:nonzero;fill:rgb(47.058824%,54.509807%,61.176473%);fill-opacity:1;" d="M 12 2.800781 L 10.5 2.800781 L 10.5 0 L 12 0 Z M 10.800781 2.5 L 11.699219 2.5 L 11.699219 0.300781 L 10.800781 0.300781 Z M 10.800781 2.5 "/>
<path style=" stroke:none;fill-rule:nonzero;fill:rgb(88.235295%,92.156863%,94.901961%);fill-opacity:1;" d="M 12.316406 2.25 L 10.183594 2.25 L 9.476562 3.449219 L 13.023438 3.449219 Z M 12.316406 2.25 "/>
<path style=" stroke:none;fill-rule:nonzero;fill:rgb(47.058824%,54.509807%,61.176473%);fill-opacity:1;" d="M 13.285156 3.601562 L 9.214844 3.601562 L 10.097656 2.101562 L 12.402344 2.101562 Z M 9.738281 3.300781 L 12.761719 3.300781 L 12.230469 2.398438 L 10.269531 2.398438 Z M 9.738281 3.300781 "/>
<path style=" stroke:none;fill-rule:nonzero;fill:rgb(77.254903%,83.137256%,87.058824%);fill-opacity:1;" d="M 10.800781 0 L 11.699219 0 L 11.699219 1.199219 L 10.800781 1.199219 Z M 10.800781 0 "/>
<path style=" stroke:none;fill-rule:nonzero;fill:rgb(47.058824%,54.509807%,61.176473%);fill-opacity:1;" d="M 17.101562 23.699219 L 5.101562 23.699219 L 5.101562 8.25 C 5.101562 5.519531 7.464844 3.300781 10.375 3.300781 L 13.023438 3.300781 C 15.933594 3.300781 18.300781 5.519531 18.300781 8.25 L 18.300781 18 L 11.339844 18 C 10.253906 18 9.300781 18.839844 9.300781 19.800781 C 9.300781 20.757812 10.253906 21.601562 11.339844 21.601562 L 17.101562 21.601562 Z M 5.398438 23.398438 L 16.800781 23.398438 L 16.800781 21.898438 L 11.339844 21.898438 C 10.09375 21.898438 9 20.917969 9 19.800781 C 9 18.679688 10.09375 17.699219 11.339844 17.699219 L 18 17.699219 L 18 8.25 C 18 5.6875 15.769531 3.601562 13.023438 3.601562 L 10.375 3.601562 C 7.632812 3.601562 5.398438 5.6875 5.398438 8.25 Z M 5.398438 23.398438 "/>
<path style="fill-rule:nonzero;fill:rgb(88.235295%,92.156863%,94.901961%);fill-opacity:1;stroke-width:1;stroke-linecap:butt;stroke-linejoin:miter;stroke:rgb(47.058824%,54.509807%,61.176473%);stroke-opacity:1;stroke-miterlimit:10;" d="M 71.263021 35.598958 L 66.523438 32.109375 C 64.661458 30.494792 62.239583 29.505208 59.596354 29.505208 L 33.098958 29.505208 C 27.265625 29.505208 22.5 34.270833 22.5 40.104167 C 22.5 44.127604 24.778646 47.65625 28.111979 49.440104 L 32.669271 52.369792 L 33.75 50.703125 L 59.596354 50.703125 C 65.429688 50.703125 70.195312 45.924479 70.195312 40.104167 C 70.195312 39.960938 70.182292 39.830729 70.182292 39.700521 L 71.002604 39.804688 Z M 71.263021 35.598958 " transform="matrix(0.3,0,0,0.3,0,0)"/>
<path style=" stroke:none;fill-rule:nonzero;fill:rgb(40.000001%,47.450981%,56.078434%);fill-opacity:1;" d="M 19.46875 15.582031 L 12.050781 15.582031 C 10.621094 15.582031 9.453125 14.414062 9.453125 12.984375 C 9.453125 11.554688 10.621094 10.386719 12.050781 10.386719 L 19.46875 10.386719 C 20.898438 10.386719 22.066406 11.554688 22.066406 12.984375 C 22.066406 14.414062 20.898438 15.582031 19.46875 15.582031 Z M 19.46875 15.582031 "/>
<path style=" stroke:none;fill-rule:nonzero;fill:rgb(100%,93.333334%,63.921571%);fill-opacity:1;" d="M 19.050781 13.144531 C 19.050781 14.636719 17.839844 15.847656 16.347656 15.847656 C 14.855469 15.847656 13.644531 14.636719 13.644531 13.144531 C 13.644531 11.648438 14.855469 10.441406 16.347656 10.441406 C 17.839844 10.441406 19.050781 11.648438 19.050781 13.144531 Z M 19.050781 13.144531 "/>
<path style=" stroke:none;fill-rule:nonzero;fill:rgb(72.941178%,60.784316%,28.235295%);fill-opacity:1;" d="M 16.347656 15.996094 C 14.773438 15.996094 13.492188 14.714844 13.492188 13.144531 C 13.492188 11.570312 14.773438 10.289062 16.347656 10.289062 C 17.921875 10.289062 19.199219 11.570312 19.199219 13.144531 C 19.199219 14.714844 17.921875 15.996094 16.347656 15.996094 Z M 16.347656 10.589844 C 14.9375 10.589844 13.792969 11.734375 13.792969 13.144531 C 13.792969 14.550781 14.9375 15.695312 16.347656 15.695312 C 17.753906 15.695312 18.898438 14.550781 18.898438 13.144531 C 18.898438 11.734375 17.753906 10.589844 16.347656 10.589844 Z M 16.347656 10.589844 "/>
<path style=" stroke:none;fill-rule:nonzero;fill:rgb(100%,93.333334%,63.921571%);fill-opacity:1;" d="M 14.25 13.144531 C 14.25 14.636719 13.039062 15.847656 11.546875 15.847656 C 10.054688 15.847656 8.84375 14.636719 8.84375 13.144531 C 8.84375 11.648438 10.054688 10.441406 11.546875 10.441406 C 13.039062 10.441406 14.25 11.648438 14.25 13.144531 Z M 14.25 13.144531 "/>
<path style=" stroke:none;fill-rule:nonzero;fill:rgb(72.941178%,60.784316%,28.235295%);fill-opacity:1;" d="M 11.546875 15.996094 C 9.972656 15.996094 8.695312 14.714844 8.695312 13.144531 C 8.695312 11.570312 9.972656 10.289062 11.546875 10.289062 C 13.121094 10.289062 14.398438 11.570312 14.398438 13.144531 C 14.398438 14.714844 13.121094 15.996094 11.546875 15.996094 Z M 11.546875 10.589844 C 10.140625 10.589844 8.992188 11.734375 8.992188 13.144531 C 8.992188 14.550781 10.140625 15.695312 11.546875 15.695312 C 12.953125 15.695312 14.101562 14.550781 14.101562 13.144531 C 14.101562 11.734375 12.953125 10.589844 11.546875 10.589844 Z M 11.546875 10.589844 "/>
<path style=" stroke:none;fill-rule:nonzero;fill:rgb(40.000001%,47.450981%,56.078434%);fill-opacity:1;" d="M 15.898438 13.050781 C 15.898438 13.296875 15.699219 13.5 15.449219 13.5 C 15.203125 13.5 15 13.296875 15 13.050781 C 15 12.800781 15.203125 12.601562 15.449219 12.601562 C 15.699219 12.601562 15.898438 12.800781 15.898438 13.050781 Z M 15.898438 13.050781 "/>
<path style=" stroke:none;fill-rule:nonzero;fill:rgb(40.000001%,47.450981%,56.078434%);fill-opacity:1;" d="M 10.800781 13.050781 C 10.800781 13.296875 10.597656 13.5 10.351562 13.5 C 10.101562 13.5 9.898438 13.296875 9.898438 13.050781 C 9.898438 12.800781 10.101562 12.601562 10.351562 12.601562 C 10.597656 12.601562 10.800781 12.800781 10.800781 13.050781 Z M 10.800781 13.050781 "/>
<path style=" stroke:none;fill-rule:nonzero;fill:rgb(88.235295%,92.156863%,94.901961%);fill-opacity:1;" d="M 19.609375 10.050781 L 11.289062 10.050781 C 9.617188 10.050781 8.25 11.398438 8.25 13.050781 C 8.25 14.699219 9.617188 16.050781 11.289062 16.050781 L 19.609375 16.050781 C 21.28125 16.050781 22.648438 14.699219 22.648438 13.050781 C 22.648438 11.398438 21.28125 10.050781 19.609375 10.050781 Z M 19.578125 15.148438 L 11.292969 15.148438 C 10.148438 15.148438 9.148438 14.1875 9.148438 13.054688 C 9.148438 11.921875 10.148438 10.949219 11.292969 10.949219 L 19.578125 10.949219 C 20.726562 10.949219 21.75 11.921875 21.75 13.054688 C 21.75 14.1875 20.726562 15.148438 19.578125 15.148438 Z M 19.578125 15.148438 "/>
<path style=" stroke:none;fill-rule:nonzero;fill:rgb(47.058824%,54.509807%,61.176473%);fill-opacity:1;" d="M 19.609375 16.199219 L 11.289062 16.199219 C 9.53125 16.199219 8.101562 14.785156 8.101562 13.050781 C 8.101562 11.3125 9.53125 9.898438 11.289062 9.898438 L 19.609375 9.898438 C 21.367188 9.898438 22.800781 11.3125 22.800781 13.050781 C 22.800781 14.785156 21.367188 16.199219 19.609375 16.199219 Z M 11.289062 10.199219 C 9.695312 10.199219 8.398438 11.480469 8.398438 13.050781 C 8.398438 14.621094 9.695312 15.898438 11.289062 15.898438 L 19.609375 15.898438 C 21.203125 15.898438 22.5 14.621094 22.5 13.050781 C 22.5 11.480469 21.203125 10.199219 19.609375 10.199219 Z M 19.578125 15.300781 L 11.292969 15.300781 C 10.050781 15.300781 9 14.273438 9 13.054688 C 9 11.855469 10.070312 10.800781 11.292969 10.800781 L 19.578125 10.800781 C 20.816406 10.800781 21.898438 11.855469 21.898438 13.054688 C 21.898438 14.25 20.816406 15.300781 19.578125 15.300781 Z M 11.292969 11.101562 C 10.230469 11.101562 9.300781 12.011719 9.300781 13.054688 C 9.300781 14.089844 10.230469 15 11.292969 15 L 19.578125 15 C 20.65625 15 21.601562 14.089844 21.601562 13.054688 C 21.601562 12.011719 20.65625 11.101562 19.578125 11.101562 Z M 11.292969 11.101562 "/>
</g>
</svg>
