<?xml version="1.0" encoding="UTF-8"?>
<svg xmlns="http://www.w3.org/2000/svg" xmlns:xlink="http://www.w3.org/1999/xlink" width="24pt" height="24pt" viewBox="0 0 24 24" version="1.1">
<g id="surface51539">
<path style=" stroke:none;fill-rule:nonzero;fill:rgb(54.509807%,71.764708%,94.117647%);fill-opacity:1;" d="M 12 23.25 C 10.882812 23.25 9.75 22.269531 9.75 20.398438 C 9.75 18.296875 10.644531 15.605469 11.535156 13.867188 L 11.558594 13.820312 L 9.710938 5.140625 C 9.382812 3.746094 8.585938 2.851562 7.679688 2.851562 C 6.542969 2.851562 5.316406 3.992188 5.253906 5.851562 L 4.949219 5.851562 L 4.949219 5.398438 C 4.949219 2.835938 6.34375 0.75 8.058594 0.75 C 9.410156 0.75 10.757812 2.113281 11.1875 3.921875 C 11.1875 3.921875 11.238281 4.152344 11.253906 4.226562 L 12.648438 11.464844 L 16.308594 0.75 L 18.96875 0.75 L 13.179688 13.789062 L 13.191406 13.839844 C 13.617188 15.40625 14.25 18.378906 14.25 20.144531 C 14.25 22.160156 13.089844 23.25 12 23.25 Z M 12 23.25 "/>
<path style=" stroke:none;fill-rule:nonzero;fill:rgb(30.588236%,47.843137%,70.980394%);fill-opacity:1;" d="M 18.738281 0.898438 L 13.0625 13.679688 L 13.019531 13.777344 L 13.046875 13.878906 C 13.472656 15.4375 14.101562 18.394531 14.101562 20.144531 C 14.101562 22.0625 13.019531 23.101562 12 23.101562 C 10.957031 23.101562 9.898438 22.171875 9.898438 20.398438 C 9.898438 18.324219 10.789062 15.65625 11.667969 13.9375 L 11.714844 13.839844 L 11.691406 13.738281 L 9.855469 5.101562 C 9.511719 3.644531 8.660156 2.699219 7.679688 2.699219 C 6.5 2.699219 5.234375 3.839844 5.109375 5.699219 L 5.101562 5.699219 L 5.101562 5.398438 C 5.101562 2.917969 6.425781 0.898438 8.058594 0.898438 C 9.34375 0.898438 10.625 2.214844 11.039062 3.953125 C 11.039062 3.953125 11.089844 4.183594 11.105469 4.257812 L 12.390625 10.9375 L 12.605469 12.046875 L 12.972656 10.980469 L 16.414062 0.898438 L 18.738281 0.898438 M 19.199219 0.601562 L 16.199219 0.601562 L 12.6875 10.882812 L 11.398438 4.199219 C 11.386719 4.125 11.332031 3.886719 11.332031 3.886719 C 10.882812 1.996094 9.472656 0.601562 8.058594 0.601562 C 6.257812 0.601562 4.800781 2.703125 4.800781 5.398438 C 4.800781 5.539062 4.800781 6 4.800781 6 L 5.398438 6 C 5.398438 4.203125 6.554688 3 7.679688 3 C 8.550781 3 9.273438 3.933594 9.5625 5.171875 L 11.398438 13.800781 C 10.535156 15.492188 9.601562 18.230469 9.601562 20.398438 C 9.601562 22.449219 10.875 23.398438 12 23.398438 C 13.203125 23.398438 14.398438 22.226562 14.398438 20.144531 C 14.398438 18.433594 13.800781 15.507812 13.335938 13.800781 Z M 19.199219 0.601562 "/>
</g>
</svg>
