<?xml version="1.0" encoding="UTF-8"?>
<svg xmlns="http://www.w3.org/2000/svg" xmlns:xlink="http://www.w3.org/1999/xlink" width="24pt" height="24pt" viewBox="0 0 24 24" version="1.1">
<g id="surface33279">
<path style=" stroke:none;fill-rule:nonzero;fill:rgb(86.274511%,83.529413%,94.901961%);fill-opacity:1;" d="M 16.648438 22.648438 L 16.648438 21.011719 L 16.542969 20.980469 C 15.941406 20.800781 15.378906 20.476562 14.917969 20.039062 L 14.835938 19.960938 L 13.414062 20.78125 L 12.367188 18.960938 L 13.789062 18.140625 L 13.761719 18.03125 C 13.6875 17.714844 13.648438 17.402344 13.648438 17.101562 C 13.648438 16.804688 13.683594 16.5 13.753906 16.195312 L 13.78125 16.085938 L 12.355469 15.277344 L 13.390625 13.449219 L 14.816406 14.257812 L 14.898438 14.179688 C 15.363281 13.734375 15.929688 13.402344 16.542969 13.21875 L 16.648438 13.1875 L 16.648438 11.550781 L 18.75 11.550781 L 18.75 13.1875 L 18.855469 13.21875 C 19.457031 13.398438 20.019531 13.726562 20.484375 14.164062 L 20.5625 14.238281 L 21.984375 13.421875 L 23.035156 15.242188 L 21.613281 16.058594 L 21.636719 16.167969 C 21.710938 16.484375 21.75 16.796875 21.75 17.101562 C 21.75 17.394531 21.714844 17.699219 21.644531 18.003906 L 21.621094 18.113281 L 23.046875 18.921875 L 22.011719 20.75 L 20.582031 19.941406 L 20.503906 20.019531 C 20.039062 20.464844 19.46875 20.796875 18.855469 20.980469 L 18.75 21.011719 L 18.75 22.648438 Z M 17.699219 15.148438 C 16.625 15.148438 15.75 16.023438 15.75 17.101562 C 15.75 18.175781 16.625 19.050781 17.699219 19.050781 C 18.773438 19.050781 19.648438 18.175781 19.648438 17.101562 C 19.648438 16.023438 18.773438 15.148438 17.699219 15.148438 Z M 17.699219 15.148438 "/>
<path style=" stroke:none;fill-rule:nonzero;fill:rgb(54.509807%,45.882353%,63.137257%);fill-opacity:1;" d="M 18.601562 11.699219 L 18.601562 13.300781 L 18.816406 13.363281 C 19.394531 13.535156 19.933594 13.851562 20.378906 14.273438 L 20.542969 14.425781 L 20.734375 14.3125 L 21.929688 13.625 L 22.828125 15.1875 L 21.632812 15.875 L 21.441406 15.984375 L 21.492188 16.203125 C 21.5625 16.507812 21.601562 16.808594 21.601562 17.101562 C 21.601562 17.382812 21.566406 17.675781 21.5 17.972656 L 21.449219 18.191406 L 21.644531 18.300781 L 22.84375 18.980469 L 21.953125 20.542969 L 20.753906 19.867188 L 20.5625 19.753906 L 20.398438 19.910156 C 19.953125 20.339844 19.402344 20.660156 18.816406 20.835938 L 18.601562 20.898438 L 18.601562 22.5 L 16.800781 22.5 L 16.800781 20.898438 L 16.585938 20.835938 C 16.007812 20.664062 15.464844 20.351562 15.019531 19.929688 L 14.859375 19.773438 L 14.664062 19.886719 L 13.46875 20.574219 L 12.570312 19.015625 L 13.765625 18.328125 L 13.960938 18.214844 L 13.90625 17.996094 C 13.835938 17.695312 13.800781 17.390625 13.800781 17.101562 C 13.800781 16.816406 13.835938 16.523438 13.902344 16.226562 L 13.953125 16.011719 L 13.757812 15.898438 L 12.558594 15.222656 L 13.445312 13.65625 L 14.644531 14.335938 L 14.839844 14.445312 L 15 14.289062 C 15.449219 13.859375 15.996094 13.539062 16.585938 13.363281 L 16.800781 13.300781 L 16.800781 11.699219 L 18.601562 11.699219 M 17.699219 19.199219 C 18.859375 19.199219 19.800781 18.257812 19.800781 17.101562 C 19.800781 15.941406 18.859375 15 17.699219 15 C 16.542969 15 15.601562 15.941406 15.601562 17.101562 C 15.601562 18.257812 16.542969 19.199219 17.699219 19.199219 M 18.898438 11.398438 L 16.5 11.398438 L 16.5 13.074219 C 15.851562 13.269531 15.269531 13.617188 14.792969 14.074219 L 13.332031 13.246094 L 12.148438 15.332031 L 13.609375 16.160156 C 13.539062 16.464844 13.5 16.777344 13.5 17.101562 C 13.5 17.433594 13.542969 17.753906 13.617188 18.066406 L 12.160156 18.902344 L 13.359375 20.984375 L 14.8125 20.144531 C 15.285156 20.59375 15.859375 20.933594 16.5 21.125 L 16.5 22.800781 L 18.898438 22.800781 L 18.898438 21.125 C 19.550781 20.929688 20.132812 20.582031 20.609375 20.125 L 22.066406 20.953125 L 23.25 18.867188 L 21.792969 18.039062 C 21.859375 17.734375 21.898438 17.421875 21.898438 17.101562 C 21.898438 16.765625 21.855469 16.445312 21.785156 16.132812 L 23.238281 15.296875 L 22.039062 13.214844 L 20.585938 14.054688 C 20.113281 13.605469 19.539062 13.265625 18.898438 13.078125 Z M 17.699219 18.898438 C 16.707031 18.898438 15.898438 18.09375 15.898438 17.101562 C 15.898438 16.105469 16.707031 15.300781 17.699219 15.300781 C 18.695312 15.300781 19.5 16.105469 19.5 17.101562 C 19.5 18.09375 18.695312 18.898438 17.699219 18.898438 Z M 17.699219 18.898438 "/>
<path style=" stroke:none;fill-rule:nonzero;fill:rgb(76.078433%,90.980393%,100%);fill-opacity:1;" d="M 5.25 20.851562 L 5.25 19.210938 L 5.144531 19.179688 C 4.542969 19 3.980469 18.675781 3.515625 18.238281 L 3.4375 18.160156 L 2.015625 18.980469 L 0.964844 17.160156 L 2.386719 16.339844 L 2.363281 16.230469 C 2.289062 15.917969 2.25 15.601562 2.25 15.300781 C 2.25 15.003906 2.285156 14.699219 2.355469 14.394531 L 2.378906 14.285156 L 0.953125 13.476562 L 1.988281 11.652344 L 3.417969 12.460938 L 3.496094 12.382812 C 3.960938 11.933594 4.53125 11.601562 5.144531 11.417969 L 5.25 11.386719 L 5.25 9.75 L 7.351562 9.75 L 7.351562 11.386719 L 7.457031 11.417969 C 8.058594 11.597656 8.621094 11.925781 9.082031 12.363281 L 9.164062 12.4375 L 10.585938 11.621094 L 11.632812 13.441406 L 10.210938 14.257812 L 10.238281 14.367188 C 10.3125 14.683594 10.351562 14.996094 10.351562 15.300781 C 10.351562 15.59375 10.316406 15.898438 10.246094 16.207031 L 10.21875 16.3125 L 11.644531 17.121094 L 10.609375 18.949219 L 9.183594 18.140625 L 9.101562 18.21875 C 8.636719 18.664062 8.070312 18.996094 7.457031 19.179688 L 7.351562 19.210938 L 7.351562 20.851562 Z M 6.300781 13.351562 C 5.226562 13.351562 4.351562 14.226562 4.351562 15.300781 C 4.351562 16.375 5.226562 17.25 6.300781 17.25 C 7.375 17.25 8.25 16.375 8.25 15.300781 C 8.25 14.226562 7.375 13.351562 6.300781 13.351562 Z M 6.300781 13.351562 "/>
<path style=" stroke:none;fill-rule:nonzero;fill:rgb(47.058824%,54.509807%,61.176473%);fill-opacity:1;" d="M 7.199219 9.898438 L 7.199219 11.5 L 7.414062 11.5625 C 7.992188 11.734375 8.535156 12.050781 8.980469 12.472656 L 9.140625 12.625 L 9.335938 12.515625 L 10.53125 11.824219 L 11.429688 13.386719 L 10.234375 14.074219 L 10.039062 14.183594 L 10.09375 14.402344 C 10.164062 14.707031 10.199219 15.007812 10.199219 15.300781 C 10.199219 15.582031 10.164062 15.878906 10.097656 16.171875 L 10.046875 16.390625 L 10.242188 16.5 L 11.441406 17.179688 L 10.554688 18.746094 L 9.355469 18.066406 L 9.160156 17.957031 L 9 18.109375 C 8.550781 18.539062 8.003906 18.859375 7.414062 19.035156 L 7.199219 19.101562 L 7.199219 20.699219 L 5.398438 20.699219 L 5.398438 19.101562 L 5.183594 19.035156 C 4.605469 18.863281 4.066406 18.550781 3.621094 18.128906 L 3.457031 17.972656 L 3.265625 18.085938 L 2.070312 18.773438 L 1.171875 17.214844 L 2.367188 16.527344 L 2.558594 16.414062 L 2.507812 16.199219 C 2.4375 15.894531 2.398438 15.589844 2.398438 15.300781 C 2.398438 15.015625 2.433594 14.722656 2.5 14.429688 L 2.550781 14.210938 L 2.355469 14.101562 L 1.15625 13.421875 L 2.046875 11.855469 L 3.246094 12.535156 L 3.4375 12.644531 L 3.601562 12.488281 C 4.046875 12.058594 4.597656 11.738281 5.183594 11.5625 L 5.398438 11.5 L 5.398438 9.898438 L 7.199219 9.898438 M 6.300781 17.398438 C 7.457031 17.398438 8.398438 16.457031 8.398438 15.300781 C 8.398438 14.140625 7.457031 13.199219 6.300781 13.199219 C 5.140625 13.199219 4.199219 14.140625 4.199219 15.300781 C 4.199219 16.457031 5.140625 17.398438 6.300781 17.398438 M 7.5 9.601562 L 5.101562 9.601562 L 5.101562 11.277344 C 4.449219 11.46875 3.867188 11.816406 3.390625 12.273438 L 1.933594 11.445312 L 0.75 13.535156 L 2.207031 14.359375 C 2.140625 14.664062 2.101562 14.976562 2.101562 15.300781 C 2.101562 15.632812 2.144531 15.957031 2.214844 16.265625 L 0.761719 17.105469 L 1.960938 19.183594 L 3.414062 18.347656 C 3.886719 18.792969 4.460938 19.132812 5.101562 19.324219 L 5.101562 21 L 7.5 21 L 7.5 19.324219 C 8.148438 19.128906 8.730469 18.785156 9.207031 18.328125 L 10.667969 19.152344 L 11.851562 17.066406 L 10.390625 16.238281 C 10.460938 15.9375 10.5 15.625 10.5 15.300781 C 10.5 14.964844 10.457031 14.644531 10.382812 14.332031 L 11.839844 13.496094 L 10.640625 11.414062 L 9.1875 12.253906 C 8.714844 11.804688 8.140625 11.46875 7.5 11.277344 Z M 6.300781 17.101562 C 5.304688 17.101562 4.5 16.292969 4.5 15.300781 C 4.5 14.304688 5.304688 13.5 6.300781 13.5 C 7.292969 13.5 8.101562 14.304688 8.101562 15.300781 C 8.101562 16.292969 7.292969 17.101562 6.300781 17.101562 Z M 6.300781 17.101562 "/>
<path style=" stroke:none;fill-rule:nonzero;fill:rgb(54.509807%,71.764708%,94.117647%);fill-opacity:1;" d="M 12.75 12.449219 L 12.75 10.8125 L 12.644531 10.78125 C 12.042969 10.601562 11.480469 10.273438 11.015625 9.835938 L 10.9375 9.761719 L 9.515625 10.578125 L 8.464844 8.757812 L 9.886719 7.941406 L 9.863281 7.832031 C 9.789062 7.515625 9.75 7.203125 9.75 6.898438 C 9.75 6.605469 9.785156 6.300781 9.855469 5.996094 L 9.878906 5.886719 L 8.453125 5.078125 L 9.488281 3.25 L 10.917969 4.058594 L 10.996094 3.980469 C 11.460938 3.535156 12.03125 3.203125 12.644531 3.019531 L 12.75 2.988281 L 12.75 1.351562 L 14.851562 1.351562 L 14.851562 2.988281 L 14.957031 3.019531 C 15.558594 3.199219 16.121094 3.523438 16.582031 3.960938 L 16.664062 4.039062 L 18.085938 3.21875 L 19.132812 5.039062 L 17.710938 5.859375 L 17.738281 5.96875 C 17.8125 6.285156 17.851562 6.597656 17.851562 6.898438 C 17.851562 7.195312 17.816406 7.5 17.746094 7.804688 L 17.71875 7.914062 L 19.144531 8.722656 L 18.109375 10.550781 L 16.683594 9.742188 L 16.601562 9.820312 C 16.136719 10.265625 15.570312 10.597656 14.957031 10.78125 L 14.851562 10.8125 L 14.851562 12.449219 Z M 13.800781 4.949219 C 12.726562 4.949219 11.851562 5.824219 11.851562 6.898438 C 11.851562 7.976562 12.726562 8.851562 13.800781 8.851562 C 14.875 8.851562 15.75 7.976562 15.75 6.898438 C 15.75 5.824219 14.875 4.949219 13.800781 4.949219 Z M 13.800781 4.949219 "/>
<path style=" stroke:none;fill-rule:nonzero;fill:rgb(30.588236%,47.843137%,70.980394%);fill-opacity:1;" d="M 14.699219 1.5 L 14.699219 3.101562 L 14.914062 3.164062 C 15.492188 3.335938 16.035156 3.648438 16.480469 4.070312 L 16.640625 4.226562 L 16.835938 4.113281 L 18.03125 3.425781 L 18.929688 4.984375 L 17.734375 5.671875 L 17.539062 5.785156 L 17.59375 6.003906 C 17.664062 6.304688 17.699219 6.609375 17.699219 6.898438 C 17.699219 7.183594 17.664062 7.476562 17.597656 7.773438 L 17.546875 7.988281 L 17.742188 8.101562 L 18.941406 8.777344 L 18.054688 10.34375 L 16.855469 9.664062 L 16.660156 9.554688 L 16.5 9.710938 C 16.050781 10.140625 15.503906 10.460938 14.914062 10.636719 L 14.699219 10.699219 L 14.699219 12.300781 L 12.898438 12.300781 L 12.898438 10.699219 L 12.683594 10.636719 C 12.105469 10.464844 11.566406 10.148438 11.121094 9.726562 L 10.957031 9.574219 L 10.765625 9.6875 L 9.570312 10.375 L 8.671875 8.8125 L 9.867188 8.125 L 10.058594 8.015625 L 10.007812 7.796875 C 9.9375 7.492188 9.898438 7.191406 9.898438 6.898438 C 9.898438 6.617188 9.933594 6.324219 10 6.027344 L 10.050781 5.808594 L 9.855469 5.699219 L 8.65625 5.019531 L 9.546875 3.457031 L 10.746094 4.132812 L 10.9375 4.246094 L 11.101562 4.089844 C 11.546875 3.660156 12.097656 3.339844 12.683594 3.164062 L 12.898438 3.101562 L 12.898438 1.5 L 14.699219 1.5 M 13.800781 9 C 14.957031 9 15.898438 8.058594 15.898438 6.898438 C 15.898438 5.742188 14.957031 4.800781 13.800781 4.800781 C 12.640625 4.800781 11.699219 5.742188 11.699219 6.898438 C 11.699219 8.058594 12.640625 9 13.800781 9 M 15 1.199219 L 12.601562 1.199219 L 12.601562 2.875 C 11.949219 3.070312 11.367188 3.417969 10.890625 3.875 L 9.433594 3.046875 L 8.25 5.132812 L 9.707031 5.960938 C 9.640625 6.265625 9.601562 6.578125 9.601562 6.898438 C 9.601562 7.234375 9.644531 7.554688 9.714844 7.867188 L 8.261719 8.703125 L 9.460938 10.785156 L 10.914062 9.945312 C 11.386719 10.394531 11.960938 10.734375 12.601562 10.921875 L 12.601562 12.601562 L 15 12.601562 L 15 10.925781 C 15.648438 10.730469 16.230469 10.382812 16.707031 9.925781 L 18.167969 10.753906 L 19.351562 8.667969 L 17.890625 7.839844 C 17.960938 7.535156 18 7.222656 18 6.898438 C 18 6.566406 17.957031 6.246094 17.882812 5.933594 L 19.339844 5.097656 L 18.140625 3.015625 L 16.6875 3.855469 C 16.214844 3.40625 15.640625 3.066406 15 2.875 Z M 13.800781 8.699219 C 12.804688 8.699219 12 7.894531 12 6.898438 C 12 5.90625 12.804688 5.101562 13.800781 5.101562 C 14.792969 5.101562 15.601562 5.90625 15.601562 6.898438 C 15.601562 7.894531 14.792969 8.699219 13.800781 8.699219 Z M 13.800781 8.699219 "/>
</g>
</svg>
