<?xml version="1.0" encoding="UTF-8"?>
<svg xmlns="http://www.w3.org/2000/svg" xmlns:xlink="http://www.w3.org/1999/xlink" width="24pt" height="24pt" viewBox="0 0 24 24" version="1.1">
<g id="surface52523">
<path style=" stroke:none;fill-rule:nonzero;fill:rgb(88.235295%,92.156863%,94.901961%);fill-opacity:1;" d="M 0.207031 12 L 12 0.207031 L 23.792969 12 L 12 23.792969 Z M 0.207031 12 "/>
<path style=" stroke:none;fill-rule:nonzero;fill:rgb(47.058824%,54.509807%,61.176473%);fill-opacity:1;" d="M 12 0.421875 L 23.578125 12 L 12 23.578125 L 0.421875 12 L 12 0.421875 M 12 0 L 0 12 L 12 24 L 24 12 Z M 12 0 "/>
<path style=" stroke:none;fill-rule:nonzero;fill:rgb(47.058824%,54.509807%,61.176473%);fill-opacity:1;" d="M 11.671875 10.648438 L 21.132812 9.21875 L 21.179688 9.515625 L 11.714844 10.945312 Z M 11.671875 10.648438 "/>
<path style=" stroke:none;fill-rule:nonzero;fill:rgb(47.058824%,54.509807%,61.176473%);fill-opacity:1;" d="M 11.6875 7.660156 L 18.539062 6.625 L 18.585938 6.917969 L 11.734375 7.957031 Z M 11.6875 7.660156 "/>
<path style=" stroke:none;fill-rule:nonzero;fill:rgb(47.058824%,54.509807%,61.176473%);fill-opacity:1;" d="M 11.671875 4.644531 L 15.914062 4 L 15.957031 4.296875 L 11.714844 4.9375 Z M 11.671875 4.644531 "/>
<path style=" stroke:none;fill-rule:nonzero;fill:rgb(76.078433%,90.980393%,100%);fill-opacity:1;" d="M 0.238281 12.03125 L 0.210938 12 L 12 0.210938 L 12.058594 0.269531 L 14.25 13.46875 Z M 0.238281 12.03125 "/>
<path style=" stroke:none;fill-rule:nonzero;fill:rgb(47.058824%,54.509807%,61.176473%);fill-opacity:1;" d="M 11.941406 0.480469 L 14.070312 13.289062 L 0.511719 11.910156 L 11.941406 0.480469 M 12 0 L 0 12 L 0.179688 12.179688 L 14.371094 13.648438 L 14.398438 13.5 L 12.179688 0.179688 Z M 12 0 "/>
<path style=" stroke:none;fill-rule:nonzero;fill:rgb(71.372551%,78.823531%,83.92157%);fill-opacity:1;" d="M 14.128906 13.5 L 23.761719 12.03125 L 12.058594 23.730469 Z M 14.128906 13.5 "/>
<path style=" stroke:none;fill-rule:nonzero;fill:rgb(47.058824%,54.509807%,61.176473%);fill-opacity:1;" d="M 23.308594 12.269531 L 12.300781 23.28125 L 14.25 13.621094 L 23.308594 12.269531 M 23.878906 11.878906 L 14.101562 13.351562 L 14.011719 13.378906 L 11.878906 23.851562 L 12 24 L 24 12 Z M 23.878906 11.878906 "/>
<path style=" stroke:none;fill-rule:nonzero;fill:rgb(54.509807%,71.764708%,94.117647%);fill-opacity:1;" d="M 0.238281 12.03125 L 14.25 13.46875 L 14.25 13.5 L 12.058594 23.730469 L 12 23.789062 Z M 0.238281 12.03125 "/>
<path style=" stroke:none;fill-rule:nonzero;fill:rgb(47.058824%,54.509807%,61.176473%);fill-opacity:1;" d="M 0.628906 12.210938 L 14.070312 13.621094 L 11.941406 23.519531 L 0.628906 12.210938 M 0.148438 11.851562 L 0 12 L 12 24 L 12.210938 23.789062 L 14.398438 13.5 L 14.371094 13.351562 Z M 0.148438 11.851562 "/>
</g>
</svg>
