<?xml version="1.0" encoding="UTF-8"?>
<svg xmlns="http://www.w3.org/2000/svg" xmlns:xlink="http://www.w3.org/1999/xlink" width="24pt" height="24pt" viewBox="0 0 24 24" version="1.1">
<g id="surface35473">
<path style=" stroke:none;fill-rule:nonzero;fill:rgb(21.176471%,25.098041%,30.19608%);fill-opacity:1;" d="M 15 16.5 L 14.398438 16.5 L 14.398438 8.101562 L 6.601562 8.101562 L 6.601562 7.5 L 15 7.5 Z M 15 16.5 "/>
<path style=" stroke:none;fill-rule:nonzero;fill:rgb(54.509807%,71.764708%,94.117647%);fill-opacity:1;" d="M 3.75 21.148438 L 3.75 20.207031 L 7.585938 13.949219 L 8.550781 13.949219 L 8.566406 21.148438 Z M 3.75 21.148438 "/>
<path style=" stroke:none;fill-rule:nonzero;fill:rgb(30.588236%,47.843137%,70.980394%);fill-opacity:1;" d="M 8.402344 14.101562 L 8.414062 21 L 3.898438 21 L 3.898438 20.246094 L 7.667969 14.101562 L 8.402344 14.101562 M 8.699219 13.800781 L 7.5 13.800781 L 3.601562 20.164062 L 3.601562 21.300781 L 8.714844 21.300781 Z M 8.699219 13.800781 "/>
<path style=" stroke:none;fill-rule:nonzero;fill:rgb(76.078433%,90.980393%,100%);fill-opacity:1;" d="M 13.035156 19.351562 C 10.410156 19.351562 7.9375 18.328125 6.078125 16.46875 C 2.277344 12.667969 2.242188 6.503906 5.972656 2.660156 L 19.886719 16.574219 C 18.042969 18.363281 15.613281 19.351562 13.035156 19.351562 Z M 13.035156 19.351562 "/>
<path style=" stroke:none;fill-rule:nonzero;fill:rgb(45.490196%,58.823532%,76.862746%);fill-opacity:1;" d="M 5.976562 2.875 L 19.671875 16.570312 C 17.871094 18.269531 15.523438 19.199219 13.035156 19.199219 C 10.449219 19.199219 8.015625 18.191406 6.183594 16.363281 C 4.355469 14.53125 3.347656 12.097656 3.347656 9.511719 C 3.347656 7.023438 4.277344 4.679688 5.976562 2.875 M 5.972656 2.449219 C 2.070312 6.347656 2.070312 12.671875 5.972656 16.574219 C 7.921875 18.523438 10.480469 19.5 13.035156 19.5 C 15.59375 19.5 18.148438 18.523438 20.101562 16.574219 Z M 5.972656 2.449219 "/>
<path style=" stroke:none;fill-rule:nonzero;fill:rgb(76.078433%,90.980393%,100%);fill-opacity:1;" d="M 1.648438 22.648438 L 1.648438 21.300781 C 1.648438 20.722656 2.121094 20.25 2.699219 20.25 L 8.699219 20.25 C 9.277344 20.25 9.75 20.722656 9.75 21.300781 L 9.75 22.648438 Z M 1.648438 22.648438 "/>
<path style=" stroke:none;fill-rule:nonzero;fill:rgb(45.490196%,58.823532%,76.862746%);fill-opacity:1;" d="M 8.699219 20.398438 C 9.195312 20.398438 9.601562 20.804688 9.601562 21.300781 L 9.601562 22.5 L 1.800781 22.5 L 1.800781 21.300781 C 1.800781 20.804688 2.203125 20.398438 2.699219 20.398438 L 8.699219 20.398438 M 8.699219 20.101562 L 2.699219 20.101562 C 2.039062 20.101562 1.5 20.636719 1.5 21.300781 L 1.5 22.800781 L 9.898438 22.800781 L 9.898438 21.300781 C 9.898438 20.636719 9.363281 20.101562 8.699219 20.101562 Z M 8.699219 20.101562 "/>
<path style=" stroke:none;fill-rule:nonzero;fill:rgb(29.411766%,39.215687%,46.666667%);fill-opacity:1;" d="M 15 8.550781 C 14.421875 8.550781 13.949219 8.078125 13.949219 7.5 C 13.949219 6.921875 14.421875 6.449219 15 6.449219 C 15.578125 6.449219 16.050781 6.921875 16.050781 7.5 C 16.050781 8.078125 15.578125 8.550781 15 8.550781 Z M 15 8.550781 "/>
<path style=" stroke:none;fill-rule:nonzero;fill:rgb(21.176471%,25.098041%,30.19608%);fill-opacity:1;" d="M 15 6.601562 C 15.496094 6.601562 15.898438 7.003906 15.898438 7.5 C 15.898438 7.996094 15.496094 8.398438 15 8.398438 C 14.503906 8.398438 14.101562 7.996094 14.101562 7.5 C 14.101562 7.003906 14.503906 6.601562 15 6.601562 M 15 6.300781 C 14.335938 6.300781 13.800781 6.835938 13.800781 7.5 C 13.800781 8.164062 14.335938 8.699219 15 8.699219 C 15.664062 8.699219 16.199219 8.164062 16.199219 7.5 C 16.199219 6.835938 15.664062 6.300781 15 6.300781 Z M 15 6.300781 "/>
<path style=" stroke:none;fill-rule:nonzero;fill:rgb(96.862745%,56.078434%,56.078434%);fill-opacity:1;" d="M 17.3125 5.519531 L 18.933594 3.898438 L 17.3125 2.28125 L 18.179688 1.410156 L 19.800781 3.03125 L 21.421875 1.410156 L 22.289062 2.28125 L 20.667969 3.898438 L 22.289062 5.519531 L 21.421875 6.386719 L 19.800781 4.769531 L 18.179688 6.386719 Z M 17.3125 5.519531 "/>
<path style=" stroke:none;fill-rule:nonzero;fill:rgb(78.039217%,26.274511%,26.274511%);fill-opacity:1;" d="M 21.421875 1.625 L 22.074219 2.28125 L 20.457031 3.898438 L 20.667969 4.113281 L 22.074219 5.519531 L 21.421875 6.175781 L 20.011719 4.769531 L 19.800781 4.554688 L 19.589844 4.769531 L 18.179688 6.175781 L 17.523438 5.519531 L 18.933594 4.113281 L 19.144531 3.898438 L 18.933594 3.6875 L 17.523438 2.28125 L 18.179688 1.625 L 19.589844 3.03125 L 19.800781 3.246094 L 20.011719 3.03125 L 21.421875 1.625 M 21.421875 1.199219 L 19.800781 2.820312 L 18.179688 1.199219 L 17.101562 2.28125 L 18.71875 3.898438 L 17.101562 5.519531 L 18.179688 6.601562 L 19.800781 4.980469 L 21.421875 6.601562 L 22.5 5.519531 L 20.878906 3.898438 L 22.5 2.28125 Z M 21.421875 1.199219 "/>
</g>
</svg>
