<?xml version="1.0" encoding="UTF-8"?>
<svg xmlns="http://www.w3.org/2000/svg" xmlns:xlink="http://www.w3.org/1999/xlink" width="24pt" height="24pt" viewBox="0 0 24 24" version="1.1">
<g id="surface33243">
<path style=" stroke:none;fill-rule:nonzero;fill:rgb(76.078433%,58.823532%,32.549021%);fill-opacity:1;" d="M 16.53125 18.148438 C 15.929688 18.148438 15.148438 17.910156 14.28125 17.460938 C 12.929688 16.769531 11.339844 15.570312 9.898438 14.101562 C 8.429688 12.628906 7.230469 11.070312 6.539062 9.691406 C 5.519531 7.679688 5.851562 6.71875 6.300781 6.269531 C 6.601562 5.96875 6.988281 5.851562 7.46875 5.851562 C 8.070312 5.851562 8.851562 6.089844 9.71875 6.539062 C 11.101562 7.261719 12.660156 8.429688 14.128906 9.898438 C 15.601562 11.371094 16.800781 12.929688 17.488281 14.308594 C 18.511719 16.320312 18.179688 17.28125 17.730469 17.730469 C 17.429688 18 17.039062 18.148438 16.53125 18.148438 Z M 7.46875 6.449219 C 7.140625 6.449219 6.898438 6.539062 6.71875 6.71875 C 6.269531 7.171875 6.421875 8.160156 7.078125 9.449219 C 7.769531 10.769531 8.910156 12.300781 10.351562 13.710938 C 11.761719 15.121094 13.289062 16.289062 14.609375 16.949219 C 15.601562 17.460938 16.230469 17.550781 16.589844 17.550781 C 16.921875 17.550781 17.160156 17.460938 17.339844 17.28125 C 17.789062 16.828125 17.640625 15.839844 16.980469 14.550781 C 16.289062 13.230469 15.148438 11.699219 13.738281 10.289062 C 12.328125 8.878906 10.800781 7.710938 9.480469 7.019531 C 8.429688 6.570312 7.800781 6.449219 7.46875 6.449219 Z M 7.46875 6.449219 "/>
<path style=" stroke:none;fill-rule:nonzero;fill:rgb(58.823532%,47.843137%,26.666668%);fill-opacity:1;" d="M 7.46875 6 C 8.070312 6 8.789062 6.210938 9.660156 6.660156 C 11.039062 7.351562 12.570312 8.550781 14.039062 9.988281 C 15.480469 11.429688 16.679688 12.988281 17.371094 14.371094 C 18.148438 15.898438 18.238281 17.011719 17.640625 17.609375 C 17.371094 17.878906 17.011719 18 16.558594 18 C 15.960938 18 15.238281 17.789062 14.398438 17.339844 C 13.019531 16.648438 11.488281 15.449219 10.019531 14.011719 C 8.578125 12.570312 7.378906 11.011719 6.691406 9.628906 C 5.910156 8.101562 5.820312 6.988281 6.421875 6.390625 C 6.660156 6.121094 7.019531 6 7.46875 6 M 16.53125 17.699219 C 16.890625 17.699219 17.191406 17.609375 17.398438 17.398438 C 17.878906 16.921875 17.789062 15.871094 17.070312 14.519531 C 16.378906 13.171875 15.210938 11.640625 13.800781 10.199219 C 12.390625 8.761719 10.828125 7.589844 9.511719 6.929688 C 8.488281 6.421875 7.828125 6.300781 7.46875 6.300781 C 7.109375 6.300781 6.808594 6.390625 6.628906 6.601562 C 6.148438 7.078125 6.238281 8.128906 6.960938 9.480469 C 7.648438 10.828125 8.820312 12.359375 10.230469 13.769531 C 11.640625 15.179688 13.199219 16.378906 14.519531 17.039062 C 15.511719 17.578125 16.171875 17.699219 16.53125 17.699219 M 7.46875 5.699219 C 6.839844 5.699219 6.449219 5.910156 6.179688 6.179688 C 5.699219 6.660156 5.339844 7.679688 6.390625 9.78125 C 7.109375 11.160156 8.308594 12.75 9.78125 14.21875 C 11.25 15.691406 12.839844 16.890625 14.21875 17.609375 C 15.210938 18.121094 15.960938 18.300781 16.53125 18.300781 C 17.160156 18.300781 17.550781 18.089844 17.820312 17.820312 C 18.300781 17.339844 18.660156 16.320312 17.609375 14.21875 C 16.890625 12.839844 15.691406 11.25 14.21875 9.78125 C 12.75 8.308594 11.160156 7.109375 9.78125 6.390625 C 8.761719 5.878906 8.011719 5.699219 7.46875 5.699219 Z M 7.46875 6.601562 C 7.800781 6.601562 8.398438 6.691406 9.359375 7.199219 C 10.679688 7.859375 12.179688 9.03125 13.589844 10.441406 C 15 11.851562 16.140625 13.351562 16.828125 14.671875 C 17.460938 15.871094 17.578125 16.828125 17.21875 17.21875 C 17.070312 17.371094 16.859375 17.429688 16.589844 17.429688 C 16.261719 17.429688 15.660156 17.339844 14.699219 16.828125 C 13.378906 16.171875 11.878906 15 10.46875 13.589844 C 9 12.179688 7.859375 10.679688 7.199219 9.359375 C 6.570312 8.160156 6.449219 7.199219 6.808594 6.808594 C 6.960938 6.660156 7.171875 6.601562 7.46875 6.601562 Z M 7.46875 6.601562 "/>
<path style=" stroke:none;fill-rule:nonzero;fill:rgb(58.823532%,47.843137%,26.666668%);fill-opacity:1;" d="M 2.132812 21.464844 L 11.234375 12.363281 L 11.65625 12.785156 L 2.558594 21.886719 Z M 2.132812 21.464844 "/>
<path style=" stroke:none;fill-rule:nonzero;fill:rgb(76.078433%,58.823532%,32.549021%);fill-opacity:1;" d="M 9.148438 18.75 C 7.921875 18.75 6.929688 18.390625 6.269531 17.730469 C 4.5 15.960938 4.980469 11.550781 8.28125 8.25 C 10.140625 6.390625 12.660156 5.25 14.878906 5.25 C 16.078125 5.25 17.128906 5.609375 17.761719 6.238281 C 19.53125 8.011719 19.050781 12.421875 15.75 15.71875 C 13.890625 17.578125 11.371094 18.75 9.148438 18.75 Z M 14.878906 5.851562 C 12.808594 5.851562 10.441406 6.929688 8.699219 8.671875 C 7.289062 10.078125 6.300781 11.878906 5.96875 13.621094 C 5.671875 15.179688 5.941406 16.558594 6.691406 17.308594 C 7.230469 17.851562 8.101562 18.148438 9.148438 18.148438 C 11.191406 18.148438 13.558594 17.070312 15.300781 15.300781 C 16.710938 13.890625 17.671875 12.089844 18 10.351562 C 18.300781 8.789062 18.03125 7.410156 17.308594 6.691406 C 16.800781 6.148438 15.929688 5.851562 14.878906 5.851562 Z M 14.878906 5.851562 "/>
<path style=" stroke:none;fill-rule:nonzero;fill:rgb(58.823532%,47.843137%,26.666668%);fill-opacity:1;" d="M 14.878906 5.398438 C 16.050781 5.398438 17.039062 5.730469 17.640625 6.359375 C 18.480469 7.199219 18.78125 8.699219 18.480469 10.441406 C 18.121094 12.300781 17.128906 14.160156 15.660156 15.628906 C 13.800781 17.460938 11.308594 18.601562 9.148438 18.601562 C 7.949219 18.601562 6.988281 18.269531 6.359375 17.640625 C 5.488281 16.769531 5.191406 15.269531 5.519531 13.558594 C 5.878906 11.699219 6.898438 9.871094 8.371094 8.371094 C 10.199219 6.539062 12.691406 5.398438 14.878906 5.398438 M 9.148438 18.300781 C 11.21875 18.300781 13.621094 17.191406 15.421875 15.421875 C 16.828125 14.011719 17.851562 12.179688 18.179688 10.378906 C 18.480469 8.761719 18.210938 7.351562 17.429688 6.570312 C 16.890625 6 15.960938 5.699219 14.878906 5.699219 C 12.78125 5.699219 10.378906 6.808594 8.609375 8.578125 C 7.199219 9.988281 6.179688 11.851562 5.851562 13.589844 C 5.550781 15.210938 5.820312 16.621094 6.601562 17.398438 C 7.171875 18 8.070312 18.300781 9.148438 18.300781 M 14.878906 5.101562 C 12.78125 5.101562 10.199219 6.121094 8.160156 8.160156 C 4.921875 11.398438 4.230469 15.929688 6.148438 17.851562 C 6.871094 18.570312 7.921875 18.898438 9.148438 18.898438 C 11.25 18.898438 13.800781 17.878906 15.839844 15.839844 C 19.078125 12.601562 19.738281 8.011719 17.851562 6.148438 C 17.160156 5.460938 16.109375 5.101562 14.878906 5.101562 Z M 14.878906 6 C 15.898438 6 16.738281 6.269531 17.21875 6.78125 C 17.910156 7.46875 18.148438 8.789062 17.878906 10.320312 C 17.550781 12.058594 16.589844 13.828125 15.210938 15.210938 C 13.5 16.921875 11.160156 18 9.148438 18 C 8.128906 18 7.289062 17.730469 6.78125 17.191406 C 6.058594 16.46875 5.820312 15.148438 6.089844 13.648438 C 6.421875 11.941406 7.378906 10.171875 8.789062 8.789062 C 10.53125 7.078125 12.839844 6 14.878906 6 Z M 14.878906 5.101562 Z M 14.878906 5.101562 "/>
<path style=" stroke:none;fill-rule:nonzero;fill:rgb(76.078433%,58.823532%,32.549021%);fill-opacity:1;" d="M 14.21875 14.550781 C 13.589844 14.550781 12.390625 13.800781 11.308594 12.71875 C 10.621094 12.03125 10.078125 11.339844 9.75 10.710938 C 9.449219 10.140625 9.390625 9.71875 9.570312 9.539062 C 9.628906 9.480469 9.71875 9.449219 9.839844 9.449219 C 10.46875 9.449219 11.671875 10.199219 12.75 11.28125 C 14.191406 12.71875 14.820312 14.128906 14.488281 14.460938 C 14.429688 14.519531 14.339844 14.550781 14.21875 14.550781 Z M 11.519531 11.25 C 11.429688 11.25 11.371094 11.28125 11.339844 11.308594 C 11.128906 11.519531 11.398438 11.96875 11.730469 12.269531 C 11.941406 12.480469 12.269531 12.71875 12.511719 12.71875 C 12.601562 12.71875 12.660156 12.691406 12.691406 12.660156 C 12.71875 12.628906 12.75 12.570312 12.75 12.480469 C 12.75 12.238281 12.511719 11.910156 12.300781 11.699219 C 12.089844 11.488281 11.761719 11.25 11.519531 11.25 Z M 11.519531 11.25 "/>
<path style=" stroke:none;fill-rule:nonzero;fill:rgb(58.823532%,47.843137%,26.666668%);fill-opacity:1;" d="M 9.839844 9.601562 C 10.351562 9.601562 11.488281 10.199219 12.660156 11.371094 C 14.191406 12.898438 14.609375 14.128906 14.398438 14.339844 C 14.339844 14.398438 14.25 14.398438 14.21875 14.398438 C 13.710938 14.398438 12.570312 13.800781 11.398438 12.628906 C 9.871094 11.101562 9.449219 9.871094 9.660156 9.660156 C 9.691406 9.601562 9.78125 9.601562 9.839844 9.601562 M 12.511719 12.898438 C 12.660156 12.898438 12.75 12.839844 12.808594 12.78125 C 12.871094 12.71875 12.929688 12.628906 12.929688 12.480469 C 12.929688 12.121094 12.539062 11.699219 12.421875 11.609375 C 12.300781 11.519531 11.878906 11.101562 11.519531 11.101562 C 11.398438 11.101562 11.308594 11.128906 11.21875 11.21875 C 10.921875 11.519531 11.21875 12.03125 11.609375 12.390625 C 11.730469 12.511719 12.148438 12.898438 12.511719 12.898438 M 9.839844 9.300781 C 9.691406 9.300781 9.539062 9.328125 9.449219 9.421875 C 9 9.898438 9.78125 11.398438 11.191406 12.839844 C 12.328125 13.980469 13.53125 14.699219 14.21875 14.699219 C 14.371094 14.699219 14.519531 14.671875 14.609375 14.578125 C 15.058594 14.128906 14.28125 12.601562 12.871094 11.191406 C 11.699219 10.019531 10.5 9.300781 9.839844 9.300781 Z M 12.511719 12.601562 C 12.359375 12.601562 12.089844 12.449219 11.851562 12.179688 C 11.519531 11.878906 11.371094 11.519531 11.460938 11.429688 C 11.488281 11.398438 11.519531 11.398438 11.550781 11.398438 C 11.699219 11.398438 11.96875 11.550781 12.210938 11.820312 C 12.539062 12.121094 12.691406 12.480469 12.601562 12.570312 C 12.570312 12.601562 12.539062 12.601562 12.511719 12.601562 Z M 12.511719 12.601562 "/>
<path style=" stroke:none;fill-rule:nonzero;fill:rgb(76.078433%,58.823532%,32.549021%);fill-opacity:1;" d="M 2.398438 22.648438 C 1.828125 22.648438 1.351562 22.171875 1.351562 21.601562 C 1.351562 21.03125 1.828125 20.550781 2.398438 20.550781 C 2.96875 20.550781 3.449219 21.03125 3.449219 21.601562 C 3.449219 22.171875 2.96875 22.648438 2.398438 22.648438 Z M 2.398438 22.648438 "/>
<path style=" stroke:none;fill-rule:nonzero;fill:rgb(58.823532%,47.843137%,26.666668%);fill-opacity:1;" d="M 2.398438 20.699219 C 2.910156 20.699219 3.300781 21.089844 3.300781 21.601562 C 3.300781 22.109375 2.910156 22.5 2.398438 22.5 C 1.890625 22.5 1.5 22.109375 1.5 21.601562 C 1.5 21.089844 1.890625 20.699219 2.398438 20.699219 M 2.398438 20.398438 C 1.738281 20.398438 1.199219 20.941406 1.199219 21.601562 C 1.199219 22.261719 1.738281 22.800781 2.398438 22.800781 C 3.058594 22.800781 3.601562 22.261719 3.601562 21.601562 C 3.601562 20.941406 3.058594 20.398438 2.398438 20.398438 Z M 2.398438 20.398438 "/>
<path style=" stroke:none;fill-rule:nonzero;fill:rgb(58.823532%,47.843137%,26.666668%);fill-opacity:1;" d="M 12.074219 11.496094 L 21.449219 2.117188 L 21.875 2.542969 L 12.5 11.917969 Z M 12.074219 11.496094 "/>
<path style=" stroke:none;fill-rule:nonzero;fill:rgb(76.078433%,58.823532%,32.549021%);fill-opacity:1;" d="M 21.601562 3.449219 C 21.03125 3.449219 20.550781 2.96875 20.550781 2.398438 C 20.550781 1.828125 21.03125 1.351562 21.601562 1.351562 C 22.171875 1.351562 22.648438 1.828125 22.648438 2.398438 C 22.648438 2.96875 22.171875 3.449219 21.601562 3.449219 Z M 21.601562 3.449219 "/>
<path style=" stroke:none;fill-rule:nonzero;fill:rgb(58.823532%,47.843137%,26.666668%);fill-opacity:1;" d="M 21.601562 1.5 C 22.109375 1.5 22.5 1.890625 22.5 2.398438 C 22.5 2.910156 22.109375 3.300781 21.601562 3.300781 C 21.089844 3.300781 20.699219 2.910156 20.699219 2.398438 C 20.699219 1.890625 21.089844 1.5 21.601562 1.5 M 21.601562 1.199219 C 20.941406 1.199219 20.398438 1.738281 20.398438 2.398438 C 20.398438 3.058594 20.941406 3.601562 21.601562 3.601562 C 22.261719 3.601562 22.800781 3.058594 22.800781 2.398438 C 22.800781 1.738281 22.261719 1.199219 21.601562 1.199219 Z M 21.601562 1.199219 "/>
<path style=" stroke:none;fill-rule:nonzero;fill:rgb(100%,93.333334%,63.921571%);fill-opacity:1;" d="M 12 22.648438 C 6.121094 22.648438 1.351562 17.878906 1.351562 12 C 1.351562 6.121094 6.121094 1.351562 12 1.351562 C 17.878906 1.351562 22.648438 6.121094 22.648438 12 C 22.648438 17.878906 17.878906 22.648438 12 22.648438 Z M 12 2.851562 C 6.960938 2.851562 2.851562 6.960938 2.851562 12 C 2.851562 17.039062 6.960938 21.148438 12 21.148438 C 17.039062 21.148438 21.148438 17.039062 21.148438 12 C 21.148438 6.960938 17.039062 2.851562 12 2.851562 Z M 12 2.851562 "/>
<path style=" stroke:none;fill-rule:nonzero;fill:rgb(96.078432%,76.078433%,46.27451%);fill-opacity:1;" d="M 12 1.5 C 17.789062 1.5 22.5 6.210938 22.5 12 C 22.5 17.789062 17.789062 22.5 12 22.5 C 6.210938 22.5 1.5 17.789062 1.5 12 C 1.5 6.210938 6.210938 1.5 12 1.5 M 12 21.300781 C 17.128906 21.300781 21.300781 17.128906 21.300781 12 C 21.300781 6.871094 17.128906 2.699219 12 2.699219 C 6.871094 2.699219 2.699219 6.871094 2.699219 12 C 2.699219 17.128906 6.871094 21.300781 12 21.300781 M 12 1.199219 C 6.03125 1.199219 1.199219 6.03125 1.199219 12 C 1.199219 17.96875 6.03125 22.800781 12 22.800781 C 17.96875 22.800781 22.800781 17.96875 22.800781 12 C 22.800781 6.03125 17.96875 1.199219 12 1.199219 Z M 12 21 C 7.050781 21 3 16.949219 3 12 C 3 7.050781 7.050781 3 12 3 C 16.949219 3 21 7.050781 21 12 C 21 16.949219 16.949219 21 12 21 Z M 12 21 "/>
<path style=" stroke:none;fill-rule:nonzero;fill:rgb(76.078433%,58.823532%,32.549021%);fill-opacity:1;" d="M 14.640625 16.800781 C 13.320312 16.140625 11.820312 14.96875 10.410156 13.558594 C 9 12.179688 7.859375 10.679688 7.199219 9.359375 C 7.140625 9.238281 7.078125 9.121094 7.019531 9 L 6.03125 9 C 6.121094 9.238281 6.238281 9.480469 6.390625 9.78125 C 7.109375 11.160156 8.308594 12.75 9.78125 14.21875 C 11.25 15.691406 12.839844 16.890625 14.21875 17.609375 C 14.609375 17.820312 14.96875 17.96875 15.300781 18.058594 L 15.300781 17.101562 C 15.089844 17.039062 14.878906 16.921875 14.640625 16.800781 Z M 14.640625 16.800781 "/>
<path style=" stroke:none;fill-rule:nonzero;fill:rgb(58.823532%,47.843137%,26.666668%);fill-opacity:1;" d="M 15.300781 17.761719 C 15 17.671875 14.699219 17.519531 14.371094 17.339844 C 12.988281 16.648438 11.460938 15.449219 9.988281 14.011719 C 8.550781 12.570312 7.351562 11.011719 6.660156 9.628906 C 6.539062 9.421875 6.449219 9.210938 6.359375 9 L 6.03125 9 C 6.121094 9.238281 6.238281 9.480469 6.390625 9.78125 C 7.109375 11.160156 8.308594 12.75 9.78125 14.21875 C 11.25 15.691406 12.839844 16.890625 14.21875 17.609375 C 14.609375 17.820312 14.96875 17.96875 15.300781 18.058594 Z M 15.300781 17.761719 "/>
<path style=" stroke:none;fill-rule:nonzero;fill:rgb(58.823532%,47.843137%,26.666668%);fill-opacity:1;" d="M 10.199219 13.800781 C 11.640625 15.238281 13.171875 16.410156 14.488281 17.070312 C 14.789062 17.21875 15.058594 17.339844 15.300781 17.429688 L 15.300781 17.101562 C 15.089844 17.011719 14.878906 16.921875 14.640625 16.800781 C 13.320312 16.140625 11.820312 14.96875 10.410156 13.558594 C 9 12.179688 7.859375 10.679688 7.199219 9.359375 C 7.140625 9.238281 7.078125 9.121094 7.019531 9 L 6.691406 9 C 6.75 9.148438 6.839844 9.328125 6.929688 9.511719 C 7.621094 10.828125 8.789062 12.359375 10.199219 13.800781 Z M 10.199219 13.800781 "/>
</g>
</svg>
