<?xml version="1.0" encoding="UTF-8"?>
<svg xmlns="http://www.w3.org/2000/svg" xmlns:xlink="http://www.w3.org/1999/xlink" width="24pt" height="24pt" viewBox="0 0 24 24" version="1.1">
<g id="surface7240">
<path style=" stroke:none;fill-rule:nonzero;fill:rgb(69.01961%,75.686276%,83.137256%);fill-opacity:1;" d="M 16.554688 11.273438 C 17.183594 11.363281 17.582031 11.746094 17.726562 12.441406 L 20.453125 9.714844 C 19.792969 9.605469 19.410156 9.207031 19.285156 8.542969 Z M 16.554688 11.273438 "/>
<path style=" stroke:none;fill-rule:nonzero;fill:rgb(40.000001%,47.450981%,56.078434%);fill-opacity:1;" d="M 17.726562 12.59375 C 17.710938 12.59375 17.695312 12.589844 17.683594 12.585938 C 17.628906 12.570312 17.589844 12.527344 17.578125 12.472656 C 17.449219 11.847656 17.109375 11.503906 16.535156 11.421875 C 16.476562 11.414062 16.429688 11.375 16.414062 11.320312 C 16.394531 11.265625 16.410156 11.207031 16.449219 11.167969 L 19.179688 8.4375 C 19.21875 8.398438 19.277344 8.382812 19.328125 8.402344 C 19.382812 8.417969 19.421875 8.460938 19.433594 8.515625 C 19.546875 9.125 19.886719 9.46875 20.480469 9.566406 C 20.535156 9.574219 20.578125 9.613281 20.597656 9.667969 C 20.613281 9.722656 20.601562 9.78125 20.558594 9.820312 L 17.832031 12.550781 C 17.800781 12.578125 17.765625 12.59375 17.726562 12.59375 Z M 16.855469 11.1875 C 17.320312 11.328125 17.738281 11.710938 17.835938 12.261719 L 20.246094 9.8125 C 19.683594 9.675781 19.363281 9.324219 19.203125 8.835938 Z M 16.855469 11.1875 "/>
<path style=" stroke:none;fill-rule:nonzero;fill:rgb(69.01961%,75.686276%,83.137256%);fill-opacity:1;" d="M 14.65625 12.445312 C 14.746094 11.820312 15.128906 11.417969 15.828125 11.277344 L 12.511719 7.960938 C 12.402344 8.625 12.007812 9.007812 11.34375 9.132812 Z M 14.65625 12.445312 "/>
<path style=" stroke:none;fill-rule:nonzero;fill:rgb(40.000001%,47.450981%,56.078434%);fill-opacity:1;" d="M 14.65625 12.597656 C 14.617188 12.597656 14.582031 12.582031 14.550781 12.550781 L 11.238281 9.238281 C 11.199219 9.199219 11.183594 9.140625 11.199219 9.089844 C 11.21875 9.035156 11.261719 8.996094 11.316406 8.984375 C 11.925781 8.871094 12.269531 8.527344 12.367188 7.9375 C 12.375 7.882812 12.378906 7.699219 12.433594 7.683594 C 12.484375 7.664062 12.578125 7.816406 12.621094 7.855469 L 15.933594 11.171875 C 15.972656 11.210938 15.988281 11.265625 15.972656 11.320312 C 15.957031 11.371094 15.910156 11.414062 15.859375 11.421875 C 15.234375 11.550781 14.890625 11.894531 14.804688 12.46875 C 14.796875 12.523438 14.757812 12.570312 14.707031 12.589844 C 14.691406 12.59375 14.671875 12.597656 14.65625 12.597656 Z M 11.636719 9.214844 L 14.570312 12.148438 C 14.714844 11.679688 15.039062 11.363281 15.535156 11.199219 L 12.597656 8.257812 C 12.445312 8.734375 12.125 9.054688 11.636719 9.214844 Z M 11.636719 9.214844 "/>
<path style=" stroke:none;fill-rule:nonzero;fill:rgb(100%,76.862746%,61.176473%);fill-opacity:1;" d="M 4.144531 23.339844 L 0.441406 19.632812 L 11.140625 8.933594 L 14.84375 12.636719 Z M 4.144531 23.339844 "/>
<path style=" stroke:none;fill-rule:nonzero;fill:rgb(63.137257%,41.568628%,29.019609%);fill-opacity:1;" d="M 4.144531 23.550781 L 0.226562 19.632812 L 11.140625 8.722656 L 15.054688 12.636719 Z M 0.652344 19.632812 L 4.144531 23.125 L 14.632812 12.636719 L 11.140625 9.144531 Z M 0.652344 19.632812 "/>
<path style=" stroke:none;fill-rule:nonzero;fill:rgb(77.254903%,83.137256%,87.058824%);fill-opacity:1;" d="M 17.410156 13.660156 L 19.339844 15.589844 C 19.550781 15.804688 19.898438 15.804688 20.109375 15.589844 L 23.390625 12.3125 C 23.601562 12.097656 23.601562 11.753906 23.390625 11.539062 L 21.460938 9.609375 C 21.25 9.398438 20.902344 9.398438 20.691406 9.609375 L 17.410156 12.890625 C 17.195312 13.101562 17.195312 13.449219 17.410156 13.660156 Z M 17.410156 13.660156 "/>
<path style=" stroke:none;fill-rule:nonzero;fill:rgb(40.000001%,47.450981%,56.078434%);fill-opacity:1;" d="M 19.726562 15.898438 C 19.539062 15.898438 19.363281 15.828125 19.234375 15.695312 L 17.304688 13.765625 C 17.03125 13.496094 17.03125 13.054688 17.304688 12.785156 L 20.582031 9.503906 C 20.847656 9.242188 21.304688 9.242188 21.566406 9.503906 L 23.496094 11.433594 C 23.765625 11.703125 23.765625 12.144531 23.496094 12.417969 L 20.214844 15.695312 C 20.085938 15.828125 19.910156 15.898438 19.726562 15.898438 Z M 21.074219 9.601562 C 20.96875 9.601562 20.871094 9.640625 20.796875 9.714844 L 17.515625 12.996094 C 17.363281 13.148438 17.363281 13.402344 17.515625 13.554688 L 19.445312 15.484375 C 19.59375 15.632812 19.855469 15.632812 20.003906 15.484375 L 23.285156 12.203125 C 23.4375 12.050781 23.4375 11.800781 23.285156 11.644531 L 21.355469 9.714844 C 21.28125 9.640625 21.179688 9.601562 21.074219 9.601562 Z M 21.074219 9.601562 "/>
<path style=" stroke:none;fill-rule:nonzero;fill:rgb(77.254903%,83.137256%,87.058824%);fill-opacity:1;" d="M 19.488281 7.570312 L 18.539062 6.613281 L 18.394531 6.46875 L 16.390625 4.453125 C 16.347656 4.410156 16.300781 4.378906 16.253906 4.355469 L 15.113281 3.230469 C 14.085938 2.214844 12.707031 1.648438 11.269531 1.648438 L 7.898438 1.648438 C 7.59375 1.648438 7.351562 1.898438 7.351562 2.203125 L 7.351562 2.296875 C 7.351562 2.515625 7.480469 2.710938 7.675781 2.800781 C 10.058594 3.898438 11.566406 5.46875 12.574219 7.917969 C 12.597656 8.003906 12.640625 8.085938 12.710938 8.152344 L 15.808594 11.269531 C 16.023438 11.484375 16.371094 11.484375 16.585938 11.269531 L 19.488281 8.347656 C 19.703125 8.132812 19.703125 7.785156 19.488281 7.570312 Z M 19.488281 7.570312 "/>
<path style=" stroke:none;fill-rule:nonzero;fill:rgb(40.000001%,47.450981%,56.078434%);fill-opacity:1;" d="M 16.195312 11.582031 C 16.011719 11.582031 15.835938 11.507812 15.703125 11.375 L 12.601562 8.257812 C 12.523438 8.175781 12.464844 8.078125 12.429688 7.960938 C 11.449219 5.570312 9.960938 4.019531 7.613281 2.9375 C 7.363281 2.820312 7.199219 2.570312 7.199219 2.296875 L 7.199219 2.203125 C 7.199219 1.816406 7.511719 1.5 7.898438 1.5 L 11.273438 1.5 C 12.757812 1.5 14.15625 2.074219 15.21875 3.121094 L 19.59375 7.460938 C 19.867188 7.738281 19.867188 8.179688 19.59375 8.453125 L 16.691406 11.375 C 16.558594 11.507812 16.382812 11.582031 16.195312 11.582031 Z M 7.898438 1.800781 C 7.679688 1.800781 7.5 1.980469 7.5 2.203125 L 7.5 2.296875 C 7.5 2.453125 7.59375 2.597656 7.738281 2.664062 C 10.164062 3.78125 11.695312 5.382812 12.710938 7.859375 C 12.738281 7.945312 12.769531 8.003906 12.816406 8.046875 L 15.914062 11.164062 C 16.066406 11.316406 16.328125 11.316406 16.476562 11.164062 L 19.382812 8.242188 C 19.539062 8.085938 19.539062 7.832031 19.382812 7.675781 L 15.007812 3.335938 C 14.003906 2.34375 12.675781 1.800781 11.269531 1.800781 Z M 7.898438 1.800781 "/>
<path style=" stroke:none;fill-rule:nonzero;fill:rgb(100%,100%,100%);fill-opacity:1;" d="M 16.382812 5.851562 C 16.34375 5.851562 16.308594 5.835938 16.277344 5.808594 L 14.40625 4.027344 C 13.503906 3.171875 12.304688 2.699219 11.027344 2.699219 L 9.4375 2.699219 C 9.351562 2.699219 9.285156 2.632812 9.285156 2.550781 C 9.285156 2.46875 9.351562 2.398438 9.4375 2.398438 L 11.027344 2.398438 C 12.382812 2.398438 13.65625 2.902344 14.613281 3.8125 L 16.484375 5.589844 C 16.546875 5.648438 16.546875 5.742188 16.492188 5.804688 C 16.460938 5.835938 16.421875 5.851562 16.382812 5.851562 Z M 16.382812 5.851562 "/>
</g>
</svg>
