<?xml version="1.0" encoding="UTF-8"?>
<svg xmlns="http://www.w3.org/2000/svg" xmlns:xlink="http://www.w3.org/1999/xlink" width="24pt" height="24pt" viewBox="0 0 24 24" version="1.1">
<g id="surface7948">
<path style=" stroke:none;fill-rule:nonzero;fill:rgb(85.882354%,94.901961%,100%);fill-opacity:1;" d="M 1.949219 23.25 L 1.949219 7.886719 L 12 1.972656 L 22.050781 7.886719 L 22.050781 23.25 Z M 1.949219 23.25 "/>
<path style=" stroke:none;fill-rule:nonzero;fill:rgb(45.490196%,58.823532%,76.862746%);fill-opacity:1;" d="M 12 2.148438 L 21.898438 7.972656 L 21.898438 23.101562 L 2.101562 23.101562 L 2.101562 7.972656 L 12 2.148438 M 12 1.800781 L 1.800781 7.800781 L 1.800781 23.398438 L 22.199219 23.398438 L 22.199219 7.800781 Z M 12 1.800781 "/>
<path style=" stroke:none;fill-rule:nonzero;fill:rgb(70.980394%,86.666667%,96.078432%);fill-opacity:1;" d="M 2.101562 21.300781 L 21.898438 21.300781 L 21.898438 23.101562 L 2.101562 23.101562 Z M 2.101562 21.300781 "/>
<path style=" stroke:none;fill-rule:nonzero;fill:rgb(96.862745%,56.078434%,56.078434%);fill-opacity:1;" d="M 12 2.960938 L 0.75 9.839844 L 0.75 7.652344 L 12 0.777344 L 23.25 7.652344 L 23.25 9.839844 Z M 12 2.960938 "/>
<path style=" stroke:none;fill-rule:nonzero;fill:rgb(78.039217%,26.274511%,26.274511%);fill-opacity:1;" d="M 12 0.953125 L 23.101562 7.738281 L 23.101562 9.574219 L 12.15625 2.882812 L 12 2.785156 L 11.84375 2.882812 L 0.898438 9.574219 L 0.898438 7.738281 L 12 0.953125 M 12 0.601562 L 0.601562 7.570312 L 0.601562 10.109375 L 12 3.136719 L 23.398438 10.109375 L 23.398438 7.570312 Z M 12 0.601562 "/>
<path style=" stroke:none;fill-rule:nonzero;fill:rgb(100%,76.862746%,61.176473%);fill-opacity:1;" d="M 8.550781 12.75 L 15.449219 12.75 L 15.449219 23.25 L 8.550781 23.25 Z M 8.550781 12.75 "/>
<path style=" stroke:none;fill-rule:nonzero;fill:rgb(63.137257%,41.568628%,29.019609%);fill-opacity:1;" d="M 15.300781 12.898438 L 15.300781 23.101562 L 8.699219 23.101562 L 8.699219 12.898438 L 15.300781 12.898438 M 15.601562 12.601562 L 8.398438 12.601562 L 8.398438 23.398438 L 15.601562 23.398438 Z M 15.601562 12.601562 "/>
<path style=" stroke:none;fill-rule:nonzero;fill:rgb(63.137257%,41.568628%,29.019609%);fill-opacity:1;" d="M 13.949219 18 C 13.703125 18 13.5 18.203125 13.5 18.449219 C 13.5 18.699219 13.703125 18.898438 13.949219 18.898438 C 14.199219 18.898438 14.398438 18.699219 14.398438 18.449219 C 14.398438 18.203125 14.199219 18 13.949219 18 Z M 13.949219 18 "/>
</g>
</svg>
