<?xml version="1.0" encoding="UTF-8"?>
<svg xmlns="http://www.w3.org/2000/svg" xmlns:xlink="http://www.w3.org/1999/xlink" width="24pt" height="24pt" viewBox="0 0 24 24" version="1.1">
<g id="surface13237">
<path style=" stroke:none;fill-rule:nonzero;fill:rgb(63.137257%,41.568628%,29.019609%);fill-opacity:1;" d="M 16.378906 4.050781 L 16.097656 3.949219 C 16.449219 2.976562 15.917969 1.507812 14.710938 1.070312 C 13.492188 0.628906 12.074219 1.082031 11.734375 2.015625 L 11.453125 1.914062 C 11.84375 0.832031 13.445312 0.292969 14.8125 0.789062 C 16.179688 1.285156 16.777344 2.949219 16.378906 4.050781 Z M 16.378906 4.050781 "/>
<path style=" stroke:none;fill-rule:nonzero;fill:rgb(100%,93.333334%,63.921571%);fill-opacity:1;" d="M 17.417969 14.25 L 17.257812 14.25 L 19.125 8.371094 C 19.925781 5.84375 18.527344 3.144531 16.003906 2.34375 L 13.589844 1.578125 C 11.0625 0.773438 8.363281 2.171875 7.5625 4.699219 L 6.726562 7.328125 C 6.226562 7.441406 5.851562 7.890625 5.851562 8.425781 C 5.851562 8.769531 6.007812 9.074219 6.253906 9.28125 C 6.105469 11.441406 7.433594 13.5 9.585938 14.183594 L 9.789062 14.25 L 7.570312 14.25 C 9.042969 16.929688 9.753906 19.992188 10.066406 23.25 L 19.316406 23.25 C 18.066406 21.625 16.976562 19.789062 16.949219 17.5 C 16.9375 16.503906 17.140625 15.429688 17.417969 14.25 Z M 17.417969 14.25 "/>
<path style=" stroke:none;fill-rule:nonzero;fill:rgb(72.941178%,60.784316%,28.235295%);fill-opacity:1;" d="M 19.621094 23.398438 L 9.933594 23.398438 L 9.917969 23.265625 C 9.566406 19.644531 8.753906 16.71875 7.4375 14.324219 L 7.316406 14.101562 L 8.953125 14.101562 C 7.132812 13.257812 5.988281 11.390625 6.101562 9.34375 C 5.84375 9.105469 5.699219 8.773438 5.699219 8.425781 C 5.699219 7.855469 6.070312 7.367188 6.609375 7.207031 L 7.417969 4.652344 C 8.074219 2.585938 9.972656 1.199219 12.136719 1.199219 C 12.644531 1.199219 13.148438 1.277344 13.636719 1.433594 L 16.046875 2.199219 C 18.648438 3.027344 20.09375 5.8125 19.265625 8.414062 L 17.460938 14.101562 L 17.605469 14.101562 L 17.5625 14.285156 C 17.316406 15.339844 17.089844 16.457031 17.101562 17.5 C 17.125 19.847656 18.296875 21.679688 19.4375 23.15625 Z M 10.203125 23.101562 L 19.015625 23.101562 C 17.90625 21.625 16.824219 19.8125 16.800781 17.5 C 16.789062 16.492188 16.992188 15.417969 17.230469 14.398438 L 17.050781 14.398438 L 18.980469 8.324219 C 19.757812 5.882812 18.398438 3.261719 15.957031 2.484375 L 13.546875 1.71875 C 13.085938 1.574219 12.613281 1.5 12.136719 1.5 C 10.101562 1.5 8.320312 2.804688 7.707031 4.742188 L 6.84375 7.457031 L 6.761719 7.476562 C 6.3125 7.578125 6 7.96875 6 8.425781 C 6 8.710938 6.128906 8.980469 6.351562 9.167969 L 6.410156 9.21875 L 6.402344 9.292969 C 6.257812 11.4375 7.582031 13.390625 9.632812 14.042969 L 10.757812 14.398438 L 7.820312 14.398438 C 9.070312 16.761719 9.851562 19.609375 10.203125 23.101562 Z M 10.203125 23.101562 "/>
<path style=" stroke:none;fill-rule:nonzero;fill:rgb(100%,76.862746%,61.176473%);fill-opacity:1;" d="M 11.699219 14.851562 C 11.5625 14.851562 11.425781 14.859375 11.292969 14.875 C 10.59375 14.035156 9.542969 13.5 8.367188 13.5 C 6.34375 13.5 4.695312 15.085938 4.578125 17.078125 C 4.285156 17.101562 4.050781 17.347656 4.050781 17.648438 C 4.050781 17.96875 4.308594 18.226562 4.625 18.226562 C 4.652344 18.226562 4.679688 18.21875 4.703125 18.21875 C 4.714844 18.253906 4.722656 18.289062 4.734375 18.328125 C 5.371094 18.628906 6.050781 18.871094 6.757812 19.042969 C 6.792969 19.882812 7.480469 20.550781 8.324219 20.550781 C 8.382812 20.550781 8.4375 20.539062 8.492188 20.53125 C 9.148438 21.621094 10.335938 22.351562 11.699219 22.351562 C 13.769531 22.351562 15.449219 20.671875 15.449219 18.601562 C 15.449219 16.527344 13.769531 14.851562 11.699219 14.851562 Z M 11.699219 14.851562 "/>
<path style=" stroke:none;fill-rule:nonzero;fill:rgb(63.137257%,41.568628%,29.019609%);fill-opacity:1;" d="M 19.261719 12.964844 L 18.976562 12.878906 C 18.980469 12.863281 19.351562 11.613281 19.457031 10.800781 C 19.40625 10.882812 19.355469 10.96875 19.304688 11.050781 C 18.765625 11.957031 18.316406 12.640625 17.882812 12.527344 C 17.441406 12.417969 17.433594 11.550781 17.421875 10.710938 C 17.417969 10.480469 17.414062 10.195312 17.394531 10.019531 C 17.125 10.476562 16.808594 11.761719 16.707031 12.242188 L 16.414062 12.179688 C 16.429688 12.105469 16.816406 10.304688 17.1875 9.785156 C 17.226562 9.734375 17.339844 9.574219 17.496094 9.625 C 17.699219 9.6875 17.710938 9.984375 17.71875 10.707031 C 17.726562 11.183594 17.738281 12.183594 17.957031 12.238281 C 18.210938 12.304688 18.796875 11.316406 19.046875 10.898438 C 19.378906 10.347656 19.472656 10.183594 19.648438 10.230469 C 19.742188 10.257812 19.785156 10.339844 19.785156 10.472656 C 19.773438 11.257812 19.285156 12.894531 19.261719 12.964844 Z M 19.261719 12.964844 "/>
<path style=" stroke:none;fill-rule:nonzero;fill:rgb(63.137257%,41.568628%,29.019609%);fill-opacity:1;" d="M 13.199219 19.15625 C 13.164062 18.378906 12.921875 17.789062 12.445312 17.304688 L 12.65625 17.09375 C 13.191406 17.632812 13.460938 18.285156 13.5 19.144531 Z M 13.199219 19.15625 "/>
<path style=" stroke:none;fill-rule:nonzero;fill:rgb(63.137257%,41.568628%,29.019609%);fill-opacity:1;" d="M 9.460938 19.5 C 7.761719 19.5 6.0625 19.117188 4.308594 18.300781 L 4.433594 18.027344 C 7.480469 19.445312 10.339844 19.578125 13.390625 18.480469 C 13.390625 18.480469 13.445312 18.78125 13.421875 18.789062 C 12.070312 19.265625 10.761719 19.5 9.460938 19.5 Z M 9.460938 19.5 "/>
<path style=" stroke:none;fill-rule:nonzero;fill:rgb(100%,93.333334%,63.921571%);fill-opacity:1;" d="M 10.15625 22.652344 L 10.230469 23.398438 L 19.234375 23.398438 L 18.839844 22.859375 L 14.441406 22.820312 Z M 10.15625 22.652344 "/>
<path style=" stroke:none;fill-rule:nonzero;fill:rgb(63.137257%,41.568628%,29.019609%);fill-opacity:1;" d="M 16.378906 4.050781 L 16.097656 3.949219 C 16.449219 2.976562 15.917969 1.507812 14.710938 1.070312 C 14.054688 0.835938 13.328125 0.84375 12.714844 1.09375 L 12.601562 0.816406 C 13.28125 0.535156 14.089844 0.527344 14.8125 0.789062 C 16.179688 1.285156 16.777344 2.949219 16.378906 4.050781 Z M 16.378906 4.050781 "/>
<path style=" stroke:none;fill-rule:nonzero;fill:rgb(72.941178%,60.784316%,28.235295%);fill-opacity:1;" d="M 17.25 16.5 C 17.199219 16.5 17.144531 16.496094 17.089844 16.492188 C 17.027344 16.484375 16.96875 16.472656 16.910156 16.457031 L 16.984375 16.167969 C 17.03125 16.179688 17.078125 16.1875 17.125 16.191406 C 17.699219 16.261719 18.222656 15.847656 18.292969 15.273438 C 18.363281 14.699219 17.949219 14.175781 17.375 14.105469 C 17.054688 14.070312 16.738281 14.175781 16.511719 14.40625 L 16.296875 14.191406 C 16.59375 13.898438 16.996094 13.761719 17.410156 13.808594 C 18.148438 13.898438 18.679688 14.570312 18.589844 15.308594 C 18.507812 15.996094 17.925781 16.5 17.25 16.5 Z M 17.25 16.5 "/>
<path style=" stroke:none;fill-rule:nonzero;fill:rgb(100%,93.333334%,63.921571%);fill-opacity:1;" d="M 18.304688 15.160156 C 18.304688 15.746094 17.828125 16.21875 17.242188 16.21875 C 16.65625 16.21875 16.183594 15.746094 16.183594 15.160156 C 16.183594 14.570312 16.65625 14.097656 17.242188 14.097656 C 17.828125 14.097656 18.304688 14.570312 18.304688 15.160156 Z M 18.304688 15.160156 "/>
<path style=" stroke:none;fill-rule:nonzero;fill:rgb(63.137257%,41.568628%,29.019609%);fill-opacity:1;" d="M 11.699219 14.699219 C 11.589844 14.699219 11.472656 14.707031 11.355469 14.714844 C 10.601562 13.847656 9.519531 13.351562 8.367188 13.351562 C 6.320312 13.351562 4.617188 14.921875 4.4375 16.953125 C 4.128906 17.035156 3.898438 17.320312 3.898438 17.648438 C 3.898438 18.039062 4.207031 18.355469 4.59375 18.375 L 4.613281 18.4375 C 4.613281 18.4375 5.988281 18.792969 6.609375 18.960938 C 6.660156 18.976562 6.613281 19.078125 6.617188 19.164062 C 6.710938 20.035156 7.441406 20.699219 8.324219 20.699219 C 8.355469 20.699219 8.386719 20.699219 8.414062 20.695312 C 9.136719 21.828125 10.355469 22.5 11.699219 22.5 C 13.851562 22.5 15.601562 20.75 15.601562 18.601562 C 15.601562 16.449219 13.851562 14.699219 11.699219 14.699219 Z M 11.699219 22.199219 C 10.429688 22.199219 9.28125 21.546875 8.621094 20.457031 L 8.570312 20.375 L 8.417969 20.390625 C 8.386719 20.394531 8.355469 20.398438 8.324219 20.398438 C 7.5625 20.398438 6.941406 19.800781 6.90625 19.039062 L 6.902344 18.925781 L 6.792969 18.898438 C 6.121094 18.734375 5.472656 18.507812 4.859375 18.222656 L 4.859375 18.21875 C 4.730469 18.167969 4.589844 18.101562 4.433594 18.027344 C 4.296875 17.957031 4.199219 17.8125 4.199219 17.648438 C 4.199219 17.429688 4.367188 17.246094 4.589844 17.230469 L 4.722656 17.21875 L 4.730469 17.089844 C 4.839844 15.160156 6.4375 13.648438 8.367188 13.648438 C 9.457031 13.648438 10.449219 14.097656 11.144531 14.9375 L 11.195312 15 L 11.277344 15 C 11.4375 15 11.574219 15 11.699219 15 C 13.683594 15 15.300781 16.613281 15.300781 18.601562 C 15.300781 20.585938 13.683594 22.199219 11.699219 22.199219 Z M 11.699219 22.199219 "/>
<path style=" stroke:none;fill-rule:nonzero;fill:rgb(100%,100%,100%);fill-opacity:1;" d="M 10.050781 11.101562 C 10.050781 12.507812 8.910156 13.648438 7.5 13.648438 C 6.089844 13.648438 4.949219 12.507812 4.949219 11.101562 C 4.949219 9.691406 6.089844 8.550781 7.5 8.550781 C 8.910156 8.550781 10.050781 9.691406 10.050781 11.101562 Z M 10.050781 11.101562 "/>
<path style=" stroke:none;fill-rule:nonzero;fill:rgb(47.058824%,54.509807%,61.176473%);fill-opacity:1;" d="M 7.5 13.800781 C 6.011719 13.800781 4.800781 12.589844 4.800781 11.101562 C 4.800781 9.609375 6.011719 8.398438 7.5 8.398438 C 8.988281 8.398438 10.199219 9.609375 10.199219 11.101562 C 10.199219 12.589844 8.988281 13.800781 7.5 13.800781 Z M 7.5 8.699219 C 6.175781 8.699219 5.101562 9.777344 5.101562 11.101562 C 5.101562 12.421875 6.175781 13.5 7.5 13.5 C 8.824219 13.5 9.898438 12.421875 9.898438 11.101562 C 9.898438 9.777344 8.824219 8.699219 7.5 8.699219 Z M 7.5 8.699219 "/>
<path style=" stroke:none;fill-rule:nonzero;fill:rgb(21.176471%,25.098041%,30.19608%);fill-opacity:1;" d="M 7.949219 11.101562 C 7.949219 11.347656 7.75 11.550781 7.5 11.550781 C 7.25 11.550781 7.050781 11.347656 7.050781 11.101562 C 7.050781 10.851562 7.25 10.648438 7.5 10.648438 C 7.75 10.648438 7.949219 10.851562 7.949219 11.101562 Z M 7.949219 11.101562 "/>
<path style=" stroke:none;fill-rule:nonzero;fill:rgb(100%,93.333334%,63.921571%);fill-opacity:1;" d="M 11.472656 14.851562 L 7 14.851562 C 6.367188 14.851562 5.851562 14.332031 5.851562 13.699219 L 5.851562 13.601562 C 5.851562 12.96875 6.367188 12.449219 7 12.449219 L 11.472656 12.449219 Z M 11.472656 14.851562 "/>
<path style=" stroke:none;fill-rule:nonzero;fill:rgb(72.941178%,60.784316%,28.235295%);fill-opacity:1;" d="M 11.324219 14.699219 L 7 14.699219 C 6.449219 14.699219 6 14.25 6 13.699219 L 6 13.601562 C 6 13.050781 6.449219 12.601562 7 12.601562 L 11.324219 12.601562 L 11.324219 13.78125 L 11.621094 13.78125 L 11.621094 12.300781 L 7 12.300781 C 6.285156 12.300781 5.699219 12.882812 5.699219 13.601562 L 5.699219 13.699219 C 5.699219 14.417969 6.285156 15 7 15 L 11.621094 15 L 11.621094 14.699219 Z M 11.324219 14.699219 "/>
<path style=" stroke:none;fill-rule:nonzero;fill:rgb(100%,100%,100%);fill-opacity:1;" d="M 15.449219 11.25 C 15.449219 12.90625 14.105469 14.25 12.449219 14.25 C 10.792969 14.25 9.449219 12.90625 9.449219 11.25 C 9.449219 9.59375 10.792969 8.25 12.449219 8.25 C 14.105469 8.25 15.449219 9.59375 15.449219 11.25 Z M 15.449219 11.25 "/>
<path style=" stroke:none;fill-rule:nonzero;fill:rgb(47.058824%,54.509807%,61.176473%);fill-opacity:1;" d="M 12.449219 14.398438 C 10.714844 14.398438 9.300781 12.988281 9.300781 11.25 C 9.300781 9.511719 10.714844 8.101562 12.449219 8.101562 C 14.1875 8.101562 15.601562 9.511719 15.601562 11.25 C 15.601562 12.988281 14.1875 14.398438 12.449219 14.398438 Z M 12.449219 8.398438 C 10.878906 8.398438 9.601562 9.679688 9.601562 11.25 C 9.601562 12.820312 10.878906 14.101562 12.449219 14.101562 C 14.019531 14.101562 15.300781 12.820312 15.300781 11.25 C 15.300781 9.679688 14.019531 8.398438 12.449219 8.398438 Z M 12.449219 8.398438 "/>
<path style=" stroke:none;fill-rule:nonzero;fill:rgb(21.176471%,25.098041%,30.19608%);fill-opacity:1;" d="M 13.648438 11.101562 C 13.648438 11.347656 13.449219 11.550781 13.199219 11.550781 C 12.953125 11.550781 12.75 11.347656 12.75 11.101562 C 12.75 10.851562 12.953125 10.648438 13.199219 10.648438 C 13.449219 10.648438 13.648438 10.851562 13.648438 11.101562 Z M 13.648438 11.101562 "/>
</g>
</svg>
