<?xml version="1.0" encoding="UTF-8"?>
<svg xmlns="http://www.w3.org/2000/svg" xmlns:xlink="http://www.w3.org/1999/xlink" width="24pt" height="24pt" viewBox="0 0 24 24" version="1.1">
<g id="surface7911">
<path style=" stroke:none;fill-rule:nonzero;fill:rgb(100%,93.333334%,63.921571%);fill-opacity:1;" d="M 8.550781 18.050781 L 8.550781 16.800781 C 8.550781 15.695312 7.859375 14.605469 7.0625 13.34375 C 6.070312 11.777344 4.949219 10.003906 4.949219 7.800781 C 4.949219 3.914062 8.113281 0.75 12 0.75 C 15.886719 0.75 19.050781 3.914062 19.050781 7.800781 C 19.050781 10.003906 17.929688 11.777344 16.9375 13.34375 C 16.140625 14.605469 15.449219 15.695312 15.449219 16.800781 L 15.449219 18.050781 Z M 8.550781 18.050781 "/>
<path style=" stroke:none;fill-rule:nonzero;fill:rgb(72.941178%,60.784316%,28.235295%);fill-opacity:1;" d="M 12 0.898438 C 15.804688 0.898438 18.898438 3.996094 18.898438 7.800781 C 18.898438 9.960938 17.789062 11.714844 16.8125 13.261719 C 16 14.542969 15.300781 15.652344 15.300781 16.800781 L 15.300781 17.898438 L 8.699219 17.898438 L 8.699219 16.800781 C 8.699219 15.652344 8 14.542969 7.1875 13.261719 C 6.210938 11.714844 5.101562 9.960938 5.101562 7.800781 C 5.101562 3.996094 8.195312 0.898438 12 0.898438 M 12 0.601562 C 8.023438 0.601562 4.800781 3.824219 4.800781 7.800781 C 4.800781 11.800781 8.398438 14.375 8.398438 16.800781 L 8.398438 18.199219 L 15.601562 18.199219 L 15.601562 16.800781 C 15.601562 14.375 19.199219 11.800781 19.199219 7.800781 C 19.199219 3.824219 15.976562 0.601562 12 0.601562 Z M 12 0.601562 "/>
<path style=" stroke:none;fill-rule:nonzero;fill:rgb(100%,100%,100%);fill-opacity:1;" d="M 13.628906 6.5 C 14.011719 6.5 14.367188 6.648438 14.636719 6.917969 C 15.195312 7.476562 15.195312 8.382812 14.636719 8.9375 L 13.589844 9.988281 L 13.5 10.074219 L 13.5 17.699219 L 10.5 17.699219 L 10.5 10.074219 L 10.410156 9.988281 L 9.363281 8.9375 C 8.804688 8.382812 8.804688 7.476562 9.363281 6.917969 C 9.632812 6.648438 9.992188 6.5 10.371094 6.5 C 10.753906 6.5 11.109375 6.648438 11.378906 6.917969 L 12 7.539062 L 12.621094 6.917969 C 12.890625 6.648438 13.246094 6.5 13.628906 6.5 M 13.628906 6.203125 C 13.1875 6.203125 12.746094 6.371094 12.40625 6.707031 L 12 7.113281 L 11.59375 6.707031 C 11.253906 6.371094 10.8125 6.203125 10.371094 6.203125 C 9.929688 6.203125 9.488281 6.371094 9.148438 6.707031 C 8.476562 7.382812 8.476562 8.476562 9.148438 9.148438 L 10.199219 10.199219 L 10.199219 18 L 13.800781 18 L 13.800781 10.199219 L 14.851562 9.148438 C 15.523438 8.476562 15.523438 7.382812 14.851562 6.707031 C 14.511719 6.371094 14.070312 6.203125 13.628906 6.203125 Z M 13.628906 6.203125 "/>
<path style=" stroke:none;fill-rule:nonzero;fill:rgb(54.509807%,45.882353%,63.137257%);fill-opacity:1;" d="M 12 19.199219 C 10.839844 19.199219 9.898438 20.140625 9.898438 21.300781 C 9.898438 22.460938 10.839844 23.398438 12 23.398438 C 13.160156 23.398438 14.101562 22.460938 14.101562 21.300781 C 14.101562 20.140625 13.160156 19.199219 12 19.199219 Z M 12 19.199219 "/>
<path style=" stroke:none;fill-rule:nonzero;fill:rgb(86.274511%,83.529413%,94.901961%);fill-opacity:1;" d="M 10.199219 22.050781 C 9.289062 22.050781 8.550781 21.308594 8.550781 20.398438 L 8.550781 16.949219 L 15.449219 16.949219 L 15.449219 20.398438 C 15.449219 21.308594 14.710938 22.050781 13.800781 22.050781 Z M 10.199219 22.050781 "/>
<path style=" stroke:none;fill-rule:nonzero;fill:rgb(54.509807%,45.882353%,63.137257%);fill-opacity:1;" d="M 15.300781 17.101562 L 15.300781 20.398438 C 15.300781 21.226562 14.628906 21.898438 13.800781 21.898438 L 10.199219 21.898438 C 9.371094 21.898438 8.699219 21.226562 8.699219 20.398438 L 8.699219 17.101562 L 15.300781 17.101562 M 15.601562 16.800781 L 8.398438 16.800781 L 8.398438 20.398438 C 8.398438 21.394531 9.207031 22.199219 10.199219 22.199219 L 13.800781 22.199219 C 14.792969 22.199219 15.601562 21.394531 15.601562 20.398438 Z M 15.601562 16.800781 "/>
<path style=" stroke:none;fill-rule:nonzero;fill:rgb(54.509807%,45.882353%,63.137257%);fill-opacity:1;" d="M 11.398438 20.699219 L 15.410156 20.699219 L 15.410156 21 L 11.398438 21 Z M 8.546875 20.699219 L 10.199219 20.699219 L 10.199219 21 L 8.546875 21 Z M 11.398438 19.5 L 15.601562 19.5 L 15.601562 19.800781 L 11.398438 19.800781 Z M 8.398438 19.5 L 10.199219 19.5 L 10.199219 19.800781 L 8.398438 19.800781 Z M 11.398438 18.300781 L 15.601562 18.300781 L 15.601562 18.601562 L 11.398438 18.601562 Z M 8.398438 18.300781 L 10.199219 18.300781 L 10.199219 18.601562 L 8.398438 18.601562 Z M 8.398438 18.300781 "/>
</g>
</svg>
