<?xml version="1.0" encoding="UTF-8"?>
<svg xmlns="http://www.w3.org/2000/svg" xmlns:xlink="http://www.w3.org/1999/xlink" width="24pt" height="24pt" viewBox="0 0 24 24" version="1.1">
<g id="surface49923">
<path style=" stroke:none;fill-rule:nonzero;fill:rgb(100%,100%,100%);fill-opacity:1;" d="M 1.351562 22.050781 L 1.351562 1.949219 L 22.648438 1.949219 L 22.648438 21.601562 C 22.648438 21.839844 22.441406 22.050781 22.199219 22.050781 Z M 1.351562 22.050781 "/>
<path style=" stroke:none;fill-rule:nonzero;fill:rgb(47.058824%,54.509807%,61.176473%);fill-opacity:1;" d="M 22.5 2.101562 L 22.5 21.601562 C 22.5 21.78125 22.378906 21.898438 22.199219 21.898438 L 1.5 21.898438 L 1.5 2.101562 L 22.5 2.101562 M 22.800781 1.800781 L 1.199219 1.800781 L 1.199219 22.199219 L 22.199219 22.199219 C 22.53125 22.199219 22.800781 21.929688 22.800781 21.601562 Z M 22.800781 1.800781 "/>
<path style=" stroke:none;fill-rule:nonzero;fill:rgb(47.058824%,54.509807%,61.176473%);fill-opacity:1;" d="M 1.199219 1.800781 L 22.800781 1.800781 L 22.800781 5.398438 L 1.199219 5.398438 Z M 1.199219 1.800781 "/>
<path style=" stroke:none;fill-rule:nonzero;fill:rgb(54.509807%,71.764708%,94.117647%);fill-opacity:1;" d="M 7.800781 9.898438 L 18.601562 9.898438 L 18.601562 10.199219 L 7.800781 10.199219 Z M 5.398438 9.898438 L 6.300781 9.898438 L 6.300781 10.199219 L 5.398438 10.199219 Z M 7.800781 12.300781 L 18.601562 12.300781 L 18.601562 12.601562 L 7.800781 12.601562 Z M 5.398438 12.300781 L 6.300781 12.300781 L 6.300781 12.601562 L 5.398438 12.601562 Z M 7.800781 14.699219 L 18.601562 14.699219 L 18.601562 15 L 7.800781 15 Z M 5.398438 14.699219 L 6.300781 14.699219 L 6.300781 15 L 5.398438 15 Z M 7.800781 17.101562 L 18.601562 17.101562 L 18.601562 17.398438 L 7.800781 17.398438 Z M 5.398438 17.101562 L 6.300781 17.101562 L 6.300781 17.398438 L 5.398438 17.398438 Z M 5.398438 17.101562 "/>
<path style=" stroke:none;fill-rule:nonzero;fill:rgb(76.078433%,90.980393%,100%);fill-opacity:1;" d="M 13.289062 14.699219 C 13.230469 14.789062 13.140625 14.910156 13.078125 15 L 18.601562 15 L 18.601562 14.699219 Z M 12.179688 17.101562 C 12.148438 17.191406 12.121094 17.308594 12.121094 17.398438 L 18.601562 17.398438 L 18.601562 17.101562 Z M 12.179688 17.101562 "/>
<path style=" stroke:none;fill-rule:nonzero;fill:rgb(78.431374%,81.960785%,85.882354%);fill-opacity:1;" d="M 13.199219 22.199219 L 22.800781 22.199219 L 22.800781 13.710938 C 22.710938 13.621094 22.589844 13.53125 22.5 13.441406 L 22.5 21.898438 L 12.988281 21.898438 C 13.050781 21.988281 13.140625 22.109375 13.199219 22.199219 Z M 13.199219 22.199219 "/>
<path style=" stroke:none;fill-rule:nonzero;fill:rgb(96.862745%,56.078434%,56.078434%);fill-opacity:1;" d="M 18.601562 23.851562 C 15.71875 23.851562 13.351562 21.480469 13.351562 18.601562 C 13.351562 15.71875 15.71875 13.351562 18.601562 13.351562 C 21.480469 13.351562 23.851562 15.71875 23.851562 18.601562 C 23.851562 21.480469 21.480469 23.851562 18.601562 23.851562 Z M 18.601562 23.851562 "/>
<path style=" stroke:none;fill-rule:nonzero;fill:rgb(78.039217%,26.274511%,26.274511%);fill-opacity:1;" d="M 18.601562 13.5 C 21.421875 13.5 23.699219 15.78125 23.699219 18.601562 C 23.699219 21.421875 21.421875 23.699219 18.601562 23.699219 C 15.78125 23.699219 13.5 21.421875 13.5 18.601562 C 13.5 15.78125 15.78125 13.5 18.601562 13.5 M 18.601562 13.199219 C 15.628906 13.199219 13.199219 15.628906 13.199219 18.601562 C 13.199219 21.570312 15.628906 24 18.601562 24 C 21.570312 24 24 21.570312 24 18.601562 C 24 15.628906 21.570312 13.199219 18.601562 13.199219 Z M 18.601562 13.199219 "/>
<path style=" stroke:none;fill-rule:nonzero;fill:rgb(96.862745%,56.078434%,56.078434%);fill-opacity:1;" d="M 18.601562 23.851562 C 15.71875 23.851562 13.351562 21.480469 13.351562 18.601562 C 13.351562 15.71875 15.71875 13.351562 18.601562 13.351562 C 21.480469 13.351562 23.851562 15.71875 23.851562 18.601562 C 23.851562 21.480469 21.480469 23.851562 18.601562 23.851562 Z M 18.601562 23.851562 "/>
<path style=" stroke:none;fill-rule:nonzero;fill:rgb(78.039217%,26.274511%,26.274511%);fill-opacity:1;" d="M 18.601562 13.5 C 21.421875 13.5 23.699219 15.78125 23.699219 18.601562 C 23.699219 21.421875 21.421875 23.699219 18.601562 23.699219 C 15.78125 23.699219 13.5 21.421875 13.5 18.601562 C 13.5 15.78125 15.78125 13.5 18.601562 13.5 M 18.601562 13.199219 C 15.628906 13.199219 13.199219 15.628906 13.199219 18.601562 C 13.199219 21.570312 15.628906 24 18.601562 24 C 21.570312 24 24 21.570312 24 18.601562 C 24 15.628906 21.570312 13.199219 18.601562 13.199219 Z M 18.601562 13.199219 "/>
<path style=" stroke:none;fill-rule:nonzero;fill:rgb(100%,100%,100%);fill-opacity:1;" d="M 18.660156 21.300781 C 18.449219 21.300781 18.300781 21.238281 18.179688 21.121094 C 18.058594 21 18 20.851562 18 20.671875 C 18 20.488281 18.058594 20.339844 18.179688 20.21875 C 18.300781 20.101562 18.480469 20.039062 18.660156 20.039062 C 18.871094 20.039062 19.019531 20.101562 19.140625 20.21875 C 19.261719 20.339844 19.320312 20.488281 19.320312 20.671875 C 19.320312 20.851562 19.261719 21 19.140625 21.121094 C 19.019531 21.238281 18.839844 21.300781 18.660156 21.300781 Z M 19.261719 15.898438 L 19.109375 19.558594 L 18.148438 19.558594 L 18.03125 15.898438 Z M 19.261719 15.898438 "/>
</g>
</svg>
