<?xml version="1.0" encoding="UTF-8"?>
<svg xmlns="http://www.w3.org/2000/svg" xmlns:xlink="http://www.w3.org/1999/xlink" width="24pt" height="24pt" viewBox="0 0 24 24" version="1.1">
<g id="surface31797">
<path style=" stroke:none;fill-rule:nonzero;fill:rgb(96.862745%,42.745098%,42.745098%);fill-opacity:1;" d="M 1.351562 15.445312 C 3.242188 15.375 4.648438 13.917969 4.648438 12 C 4.648438 10.113281 3.328125 8.746094 1.351562 8.5625 L 1.351562 7.652344 C 3.640625 7.734375 5.550781 9.691406 5.550781 12 C 5.550781 14.46875 3.792969 16.277344 1.351562 16.347656 Z M 1.351562 15.445312 "/>
<path style=" stroke:none;fill-rule:nonzero;fill:rgb(72.941178%,22.745098%,22.745098%);fill-opacity:1;" d="M 1.5 7.8125 C 3.644531 7.972656 5.398438 9.824219 5.398438 12 C 5.398438 14.332031 3.777344 16.050781 1.5 16.191406 L 1.5 15.589844 C 3.402344 15.445312 4.800781 13.953125 4.800781 12 C 4.800781 10.074219 3.484375 8.667969 1.5 8.425781 L 1.5 7.8125 M 1.199219 7.5 L 1.199219 8.699219 C 3.128906 8.824219 4.5 10.121094 4.5 12 C 4.5 13.878906 3.082031 15.300781 1.199219 15.300781 L 1.199219 16.5 C 3.875 16.5 5.699219 14.511719 5.699219 12 C 5.699219 9.488281 3.609375 7.5 1.199219 7.5 Z M 1.199219 7.5 "/>
<path style=" stroke:none;fill-rule:nonzero;fill:rgb(96.862745%,71.764708%,71.764708%);fill-opacity:1;" d="M 1.351562 18.449219 C 4.835938 18.367188 7.648438 15.507812 7.648438 12 C 7.648438 8.492188 4.835938 5.632812 1.351562 5.550781 L 1.351562 4.652344 C 5.332031 4.730469 8.550781 7.996094 8.550781 12 C 8.550781 16.003906 5.332031 19.269531 1.351562 19.347656 Z M 1.351562 18.449219 "/>
<path style=" stroke:none;fill-rule:nonzero;fill:rgb(83.137256%,39.607844%,39.607844%);fill-opacity:1;" d="M 1.5 4.804688 C 5.332031 4.964844 8.398438 8.128906 8.398438 12 C 8.398438 15.871094 5.332031 19.035156 1.5 19.195312 L 1.5 18.59375 C 5 18.4375 7.800781 15.539062 7.800781 12 C 7.800781 8.460938 5 5.5625 1.5 5.40625 L 1.5 4.804688 M 1.199219 4.5 L 1.199219 5.699219 C 4.648438 5.699219 7.5 8.550781 7.5 12 C 7.5 15.449219 4.648438 18.300781 1.199219 18.300781 L 1.199219 19.5 C 5.28125 19.5 8.699219 16.226562 8.699219 12 C 8.699219 7.824219 5.28125 4.5 1.199219 4.5 Z M 1.199219 4.5 "/>
<path style=" stroke:none;fill-rule:nonzero;fill:rgb(96.862745%,71.764708%,71.764708%);fill-opacity:1;" d="M 1.351562 21.148438 C 6.328125 21.066406 10.351562 16.996094 10.351562 12 C 10.351562 7.003906 6.328125 2.929688 1.351562 2.851562 L 1.351562 1.953125 C 6.824219 2.03125 11.25 6.523438 11.25 12.03125 C 11.25 17.507812 6.824219 21.96875 1.351562 22.050781 Z M 1.351562 21.148438 "/>
<path style=" stroke:none;fill-rule:nonzero;fill:rgb(94.117647%,55.29412%,55.29412%);fill-opacity:1;" d="M 1.5 2.105469 C 6.820312 2.265625 11.101562 6.65625 11.101562 12.03125 C 11.101562 14.683594 10.074219 17.164062 8.207031 19.023438 C 6.414062 20.808594 4.042969 21.820312 1.5 21.894531 L 1.5 21.296875 C 6.488281 21.136719 10.5 17.027344 10.5 12 C 10.5 6.972656 6.488281 2.863281 1.5 2.703125 L 1.5 2.105469 M 1.199219 1.800781 L 1.199219 3 C 6.214844 3 10.199219 7.15625 10.199219 12 C 10.199219 16.824219 6.214844 21 1.199219 21 L 1.199219 22.199219 C 6.851562 22.199219 11.398438 17.683594 11.398438 12.03125 C 11.398438 6.382812 6.851562 1.800781 1.199219 1.800781 Z M 1.199219 1.800781 "/>
<path style=" stroke:none;fill-rule:nonzero;fill:rgb(86.274511%,83.529413%,94.901961%);fill-opacity:1;" d="M 16.800781 22.351562 C 15.726562 22.351562 14.851562 21.476562 14.851562 20.398438 L 14.851562 3 C 14.851562 1.925781 15.726562 1.050781 16.800781 1.050781 L 22.648438 1.050781 L 22.648438 22.351562 Z M 16.800781 22.351562 "/>
<path style=" stroke:none;fill-rule:nonzero;fill:rgb(54.509807%,45.882353%,63.137257%);fill-opacity:1;" d="M 22.5 1.199219 L 22.5 22.199219 L 16.800781 22.199219 C 15.808594 22.199219 15 21.390625 15 20.398438 L 15 3 C 15 2.007812 15.808594 1.199219 16.800781 1.199219 L 22.5 1.199219 M 22.800781 0.898438 L 16.800781 0.898438 C 15.640625 0.898438 14.699219 1.839844 14.699219 3 L 14.699219 20.398438 C 14.699219 21.558594 15.640625 22.5 16.800781 22.5 L 22.800781 22.5 Z M 22.800781 0.898438 "/>
<path style=" stroke:none;fill-rule:nonzero;fill:rgb(96.862745%,56.078434%,56.078434%);fill-opacity:1;" d="M 15.300781 13.949219 C 15.152344 13.949219 15.003906 13.933594 14.851562 13.902344 L 14.851562 9.496094 C 15.003906 9.464844 15.152344 9.449219 15.300781 9.449219 C 16.539062 9.449219 17.550781 10.460938 17.550781 11.699219 C 17.550781 12.941406 16.539062 13.949219 15.300781 13.949219 Z M 15.300781 13.949219 "/>
<path style=" stroke:none;fill-rule:nonzero;fill:rgb(78.039217%,26.274511%,26.274511%);fill-opacity:1;" d="M 15.300781 9.601562 C 16.457031 9.601562 17.398438 10.542969 17.398438 11.699219 C 17.398438 12.859375 16.457031 13.800781 15.300781 13.800781 C 15.203125 13.800781 15.101562 13.792969 15 13.777344 L 15 9.625 C 15.101562 9.609375 15.203125 9.601562 15.300781 9.601562 M 15.300781 9.300781 C 15.09375 9.300781 14.890625 9.328125 14.699219 9.378906 L 14.699219 14.019531 C 14.890625 14.070312 15.09375 14.101562 15.300781 14.101562 C 16.625 14.101562 17.699219 13.027344 17.699219 11.699219 C 17.699219 10.375 16.625 9.300781 15.300781 9.300781 Z M 15.300781 9.300781 "/>
</g>
</svg>
