<?xml version="1.0" encoding="UTF-8"?>
<svg xmlns="http://www.w3.org/2000/svg" xmlns:xlink="http://www.w3.org/1999/xlink" width="24pt" height="24pt" viewBox="0 0 24 24" version="1.1">
<g id="surface31760">
<path style=" stroke:none;fill-rule:nonzero;fill:rgb(96.862745%,56.078434%,56.078434%);fill-opacity:1;" d="M 3.75 6.148438 C 2.425781 6.148438 1.351562 5.074219 1.351562 3.75 C 1.351562 2.425781 2.425781 1.351562 3.75 1.351562 C 5.074219 1.351562 6.148438 2.425781 6.148438 3.75 C 6.148438 5.074219 5.074219 6.148438 3.75 6.148438 Z M 3.75 6.148438 "/>
<path style=" stroke:none;fill-rule:nonzero;fill:rgb(78.039217%,26.274511%,26.274511%);fill-opacity:1;" d="M 3.75 1.5 C 4.992188 1.5 6 2.507812 6 3.75 C 6 4.992188 4.992188 6 3.75 6 C 2.507812 6 1.5 4.992188 1.5 3.75 C 1.5 2.507812 2.507812 1.5 3.75 1.5 M 3.75 1.199219 C 2.34375 1.199219 1.199219 2.34375 1.199219 3.75 C 1.199219 5.15625 2.34375 6.300781 3.75 6.300781 C 5.15625 6.300781 6.300781 5.15625 6.300781 3.75 C 6.300781 2.34375 5.15625 1.199219 3.75 1.199219 Z M 3.75 1.199219 "/>
<path style=" stroke:none;fill-rule:nonzero;fill:rgb(86.274511%,83.529413%,94.901961%);fill-opacity:1;" d="M 1.351562 22.648438 L 1.351562 7.648438 L 6.148438 7.648438 L 6.148438 9.277344 L 6.40625 9.019531 C 7.421875 8.011719 9.179688 7.648438 10.488281 7.648438 L 12.75 7.648438 L 12.75 11.851562 L 10.828125 11.851562 C 8.867188 11.851562 5.550781 12.695312 5.550781 15.855469 L 5.550781 22.648438 Z M 1.351562 22.648438 "/>
<path style=" stroke:none;fill-rule:nonzero;fill:rgb(54.509807%,45.882353%,63.137257%);fill-opacity:1;" d="M 12.601562 7.800781 L 12.601562 11.699219 L 10.828125 11.699219 C 8.8125 11.699219 5.398438 12.574219 5.398438 15.855469 L 5.398438 22.5 L 1.5 22.5 L 1.5 7.800781 L 6 7.800781 L 6 9.636719 L 6.511719 9.125 C 7.492188 8.148438 9.210938 7.800781 10.488281 7.800781 L 12.601562 7.800781 M 12.898438 7.5 L 10.488281 7.5 C 9.117188 7.5 7.34375 7.875 6.300781 8.914062 L 6.300781 7.5 L 1.199219 7.5 L 1.199219 22.800781 L 5.699219 22.800781 L 5.699219 15.855469 C 5.699219 12.839844 8.914062 12 10.828125 12 L 12.898438 12 Z M 12.898438 7.5 "/>
<path style=" stroke:none;fill-rule:nonzero;fill:rgb(86.274511%,83.529413%,94.901961%);fill-opacity:1;" d="M 13.949219 7.648438 L 16.050781 7.648438 L 16.050781 11.851562 L 13.949219 11.851562 Z M 13.949219 7.648438 "/>
<path style=" stroke:none;fill-rule:nonzero;fill:rgb(54.509807%,45.882353%,63.137257%);fill-opacity:1;" d="M 15.898438 7.800781 L 15.898438 11.699219 L 14.101562 11.699219 L 14.101562 7.800781 L 15.898438 7.800781 M 16.199219 7.5 L 13.800781 7.5 L 13.800781 12 L 16.199219 12 Z M 16.199219 7.5 "/>
<path style=" stroke:none;fill-rule:nonzero;fill:rgb(86.274511%,83.529413%,94.901961%);fill-opacity:1;" d="M 17.25 7.648438 L 19.351562 7.648438 L 19.351562 11.851562 L 17.25 11.851562 Z M 17.25 7.648438 "/>
<path style=" stroke:none;fill-rule:nonzero;fill:rgb(54.509807%,45.882353%,63.137257%);fill-opacity:1;" d="M 19.199219 7.800781 L 19.199219 11.699219 L 17.398438 11.699219 L 17.398438 7.800781 L 19.199219 7.800781 M 19.5 7.5 L 17.101562 7.5 L 17.101562 12 L 19.5 12 Z M 19.5 7.5 "/>
<path style=" stroke:none;fill-rule:nonzero;fill:rgb(86.274511%,83.529413%,94.901961%);fill-opacity:1;" d="M 20.550781 7.648438 L 22.648438 7.648438 L 22.648438 11.851562 L 20.550781 11.851562 Z M 20.550781 7.648438 "/>
<path style=" stroke:none;fill-rule:nonzero;fill:rgb(54.509807%,45.882353%,63.137257%);fill-opacity:1;" d="M 22.5 7.800781 L 22.5 11.699219 L 20.699219 11.699219 L 20.699219 7.800781 L 22.5 7.800781 M 22.800781 7.5 L 20.398438 7.5 L 20.398438 12 L 22.800781 12 Z M 22.800781 7.5 "/>
</g>
</svg>
