<?xml version="1.0" encoding="UTF-8"?>
<svg xmlns="http://www.w3.org/2000/svg" xmlns:xlink="http://www.w3.org/1999/xlink" width="24pt" height="24pt" viewBox="0 0 24 24" version="1.1">
<g id="surface32220">
<path style=" stroke:none;fill-rule:nonzero;fill:rgb(96.862745%,32.156864%,32.156864%);fill-opacity:1;" d="M 1.351562 21.15625 L 1.351562 11.160156 L 11.460938 1.050781 L 21.457031 1.050781 L 22.640625 22.339844 Z M 1.351562 21.15625 "/>
<path style=" stroke:none;fill-rule:nonzero;fill:rgb(78.039217%,26.274511%,26.274511%);fill-opacity:1;" d="M 21.316406 1.199219 L 22.480469 22.183594 L 1.5 21.015625 L 1.5 11.222656 L 11.523438 1.199219 L 21.316406 1.199219 M 21.601562 0.898438 L 11.398438 0.898438 L 1.199219 11.101562 L 1.199219 21.300781 L 22.800781 22.5 Z M 21.601562 0.898438 "/>
<path style=" stroke:none;fill-rule:nonzero;fill:rgb(96.862745%,42.745098%,42.745098%);fill-opacity:1;" d="M 1.542969 21.167969 L 21.46875 1.242188 L 22.640625 22.339844 Z M 1.542969 21.167969 "/>
<path style=" stroke:none;fill-rule:nonzero;fill:rgb(78.039217%,26.274511%,26.274511%);fill-opacity:1;" d="M 21.335938 1.585938 L 22.480469 22.183594 L 1.886719 21.039062 L 21.335938 1.585938 M 21.601562 0.898438 L 1.199219 21.300781 L 22.800781 22.5 Z M 21.601562 0.898438 "/>
<path style=" stroke:none;fill-rule:nonzero;fill:rgb(96.862745%,56.078434%,56.078434%);fill-opacity:1;" d="M 6.382812 16.371094 L 1.410156 11.101562 L 11.402344 1.109375 L 16.671875 6.085938 L 22.550781 22.25 Z M 6.382812 16.371094 "/>
<path style=" stroke:none;fill-rule:nonzero;fill:rgb(78.039217%,26.274511%,26.274511%);fill-opacity:1;" d="M 11.40625 1.316406 L 16.542969 6.167969 L 22.296875 22 L 6.46875 16.242188 L 1.617188 11.105469 L 11.40625 1.316406 M 11.398438 0.898438 L 1.199219 11.101562 L 6.300781 16.5 L 22.800781 22.5 L 16.800781 6 Z M 11.398438 0.898438 "/>
<path style=" stroke:none;fill-rule:nonzero;fill:rgb(96.862745%,63.921571%,63.921571%);fill-opacity:1;" d="M 6.449219 6.148438 L 16.4375 6.148438 L 6.449219 16.136719 Z M 6.449219 6.148438 "/>
<path style=" stroke:none;fill-rule:nonzero;fill:rgb(78.039217%,26.274511%,26.274511%);fill-opacity:1;" d="M 16.074219 6.300781 L 6.601562 15.777344 L 6.601562 6.300781 L 16.074219 6.300781 M 16.800781 6 L 6.300781 6 L 6.300781 16.5 Z M 16.800781 6 "/>
</g>
</svg>
