<?xml version="1.0" encoding="UTF-8"?>
<svg xmlns="http://www.w3.org/2000/svg" xmlns:xlink="http://www.w3.org/1999/xlink" width="24pt" height="24pt" viewBox="0 0 24 24" version="1.1">
<g id="surface33296">
<path style=" stroke:none;fill-rule:nonzero;fill:rgb(96.078432%,80.784315%,52.156866%);fill-opacity:1;" d="M 16.648438 23.25 L 16.648438 21.148438 L 5.25 21.148438 L 5.25 23.25 L 3.75 23.25 L 3.75 3 C 3.75 1.757812 4.757812 0.75 6 0.75 L 7.351562 0.75 L 7.351562 2.25 L 6 2.25 C 5.585938 2.25 5.25 2.585938 5.25 3 L 5.25 5.25 L 16.648438 5.25 L 16.648438 3 C 16.648438 1.757812 17.660156 0.75 18.898438 0.75 L 20.25 0.75 L 20.25 2.25 L 18.898438 2.25 C 18.484375 2.25 18.148438 2.585938 18.148438 3 L 18.148438 23.25 Z M 5.25 19.648438 L 16.648438 19.648438 L 16.648438 16.351562 L 5.25 16.351562 Z M 5.25 14.851562 L 16.648438 14.851562 L 16.648438 11.550781 L 5.25 11.550781 Z M 5.25 10.050781 L 16.648438 10.050781 L 16.648438 6.75 L 5.25 6.75 Z M 5.25 10.050781 "/>
<path style=" stroke:none;fill-rule:nonzero;fill:rgb(58.823532%,47.843137%,26.666668%);fill-opacity:1;" d="M 20.101562 0.898438 L 20.101562 2.101562 L 18.898438 2.101562 C 18.402344 2.101562 18 2.503906 18 3 L 18 23.101562 L 16.800781 23.101562 L 16.800781 21 L 5.101562 21 L 5.101562 23.101562 L 3.898438 23.101562 L 3.898438 3 C 3.898438 1.84375 4.84375 0.898438 6 0.898438 L 7.199219 0.898438 L 7.199219 2.101562 L 6 2.101562 C 5.503906 2.101562 5.101562 2.503906 5.101562 3 L 5.101562 5.398438 L 16.800781 5.398438 L 16.800781 3 C 16.800781 1.84375 17.742188 0.898438 18.898438 0.898438 L 20.101562 0.898438 M 5.101562 10.199219 L 16.800781 10.199219 L 16.800781 6.601562 L 5.101562 6.601562 L 5.101562 10.199219 M 5.101562 15 L 16.800781 15 L 16.800781 11.398438 L 5.101562 11.398438 L 5.101562 15 M 5.101562 19.800781 L 16.800781 19.800781 L 16.800781 16.199219 L 5.101562 16.199219 L 5.101562 19.800781 M 20.398438 0.601562 L 18.898438 0.601562 C 17.574219 0.601562 16.5 1.675781 16.5 3 L 16.5 5.101562 L 5.398438 5.101562 L 5.398438 3 C 5.398438 2.667969 5.667969 2.398438 6 2.398438 L 7.5 2.398438 L 7.5 0.601562 L 6 0.601562 C 4.675781 0.601562 3.601562 1.675781 3.601562 3 L 3.601562 23.398438 L 5.398438 23.398438 L 5.398438 21.300781 L 16.5 21.300781 L 16.5 23.398438 L 18.300781 23.398438 L 18.300781 3 C 18.300781 2.667969 18.570312 2.398438 18.898438 2.398438 L 20.398438 2.398438 Z M 5.398438 9.898438 L 5.398438 6.898438 L 16.5 6.898438 L 16.5 9.898438 Z M 5.398438 14.699219 L 5.398438 11.699219 L 16.5 11.699219 L 16.5 14.699219 Z M 5.398438 19.5 L 5.398438 16.5 L 16.5 16.5 L 16.5 19.5 Z M 5.398438 19.5 "/>
</g>
</svg>
