<?xml version="1.0" encoding="UTF-8"?>
<svg xmlns="http://www.w3.org/2000/svg" xmlns:xlink="http://www.w3.org/1999/xlink" width="24pt" height="24pt" viewBox="0 0 24 24" version="1.1">
<g id="surface51552">
<path style=" stroke:none;fill-rule:nonzero;fill:rgb(72.941178%,87.843138%,74.117649%);fill-opacity:1;" d="M 19.058594 20.773438 C 17.945312 20.773438 17.484375 20.535156 17.066406 19.296875 L 13.175781 6.921875 C 11.554688 2.492188 10.550781 1.351562 7.726562 1.351562 C 7.167969 1.351562 6.585938 1.613281 6.148438 1.875 L 6.148438 2.925781 L 6.675781 2.925781 C 9.1875 2.925781 10.4375 8.351562 10.4375 8.351562 L 4.574219 22.351562 L 6.675781 22.351562 L 11.226562 10.800781 L 11.925781 12.898438 L 14.007812 19.445312 C 14.75 21.589844 15.769531 22.351562 17.945312 22.351562 C 18.640625 22.351562 19.382812 21.96875 19.800781 21.824219 L 19.800781 20.773438 C 19.800781 20.773438 19.289062 20.773438 19.058594 20.773438 Z M 19.058594 20.773438 "/>
<path style=" stroke:none;fill-rule:nonzero;fill:rgb(36.862746%,61.176473%,46.27451%);fill-opacity:1;" d="M 17.945312 22.5 C 15.703125 22.5 14.636719 21.714844 13.867188 19.492188 L 11.78125 12.945312 L 11.214844 11.238281 L 6.777344 22.5 L 4.347656 22.5 L 10.28125 8.335938 C 10.152344 7.816406 8.917969 3.074219 6.675781 3.074219 L 6 3.074219 L 6 1.789062 L 6.074219 1.746094 C 6.488281 1.496094 7.113281 1.199219 7.726562 1.199219 C 10.734375 1.199219 11.757812 2.617188 13.316406 6.871094 L 17.210938 19.253906 C 17.605469 20.425781 18.019531 20.625 19.058594 20.625 L 19.949219 20.625 L 19.949219 21.933594 L 19.847656 21.964844 C 19.753906 22 19.644531 22.042969 19.519531 22.09375 C 19.09375 22.265625 18.511719 22.5 17.945312 22.5 Z M 11.238281 10.359375 L 12.066406 12.851562 L 14.152344 19.398438 C 14.875 21.492188 15.835938 22.199219 17.945312 22.199219 C 18.453125 22.199219 19.003906 21.976562 19.40625 21.816406 C 19.496094 21.78125 19.578125 21.746094 19.648438 21.71875 L 19.648438 20.925781 L 19.058594 20.925781 C 17.949219 20.925781 17.378906 20.695312 16.925781 19.347656 L 13.03125 6.964844 C 11.40625 2.523438 10.414062 1.5 7.726562 1.5 C 7.214844 1.5 6.679688 1.742188 6.300781 1.960938 L 6.300781 2.773438 L 6.675781 2.773438 C 9.277344 2.773438 10.53125 8.089844 10.585938 8.316406 L 10.59375 8.363281 L 4.800781 22.199219 L 6.574219 22.199219 Z M 11.238281 10.359375 "/>
</g>
</svg>
