<?xml version="1.0" encoding="UTF-8"?>
<svg xmlns="http://www.w3.org/2000/svg" xmlns:xlink="http://www.w3.org/1999/xlink" width="24pt" height="24pt" viewBox="0 0 24 24" version="1.1">
<g id="surface30597">
<path style=" stroke:none;fill-rule:nonzero;fill:rgb(100%,93.333334%,63.921571%);fill-opacity:1;" d="M 8.851562 13.949219 L 10.050781 13.949219 L 10.050781 22.648438 L 8.851562 22.648438 Z M 8.851562 13.949219 "/>
<path style=" stroke:none;fill-rule:nonzero;fill:rgb(96.078432%,76.078433%,46.27451%);fill-opacity:1;" d="M 9.898438 14.101562 L 9.898438 22.5 L 9 22.5 L 9 14.101562 L 9.898438 14.101562 M 10.199219 13.800781 L 8.699219 13.800781 L 8.699219 22.800781 L 10.199219 22.800781 Z M 10.199219 13.800781 "/>
<path style=" stroke:none;fill-rule:nonzero;fill:rgb(100%,93.333334%,63.921571%);fill-opacity:1;" d="M 13.949219 13.949219 L 15.148438 13.949219 L 15.148438 22.648438 L 13.949219 22.648438 Z M 13.949219 13.949219 "/>
<path style=" stroke:none;fill-rule:nonzero;fill:rgb(96.078432%,76.078433%,46.27451%);fill-opacity:1;" d="M 15 14.101562 L 15 22.5 L 14.101562 22.5 L 14.101562 14.101562 L 15 14.101562 M 15.300781 13.800781 L 13.800781 13.800781 L 13.800781 22.800781 L 15.300781 22.800781 Z M 15.300781 13.800781 "/>
<path style=" stroke:none;fill-rule:nonzero;fill:rgb(96.862745%,56.078434%,56.078434%);fill-opacity:1;" d="M 7.648438 12.449219 L 7.648438 5.699219 C 7.648438 3.300781 9.601562 1.351562 12 1.351562 C 14.398438 1.351562 16.351562 3.300781 16.351562 5.699219 L 16.351562 12.449219 Z M 7.648438 12.449219 "/>
<path style=" stroke:none;fill-rule:nonzero;fill:rgb(67.058825%,20.392157%,20.392157%);fill-opacity:1;" d="M 12 1.5 C 14.316406 1.5 16.199219 3.382812 16.199219 5.699219 L 16.199219 12.300781 L 7.800781 12.300781 L 7.800781 5.699219 C 7.800781 3.382812 9.683594 1.5 12 1.5 M 12 1.199219 C 9.523438 1.199219 7.5 3.226562 7.5 5.699219 L 7.5 12.601562 L 16.5 12.601562 L 16.5 5.699219 C 16.5 3.226562 14.476562 1.199219 12 1.199219 Z M 12 1.199219 "/>
<path style=" stroke:none;fill-rule:nonzero;fill:rgb(96.862745%,56.078434%,56.078434%);fill-opacity:1;" d="M 6.453125 13.949219 L 6.464844 12.148438 L 17.546875 12.148438 L 17.535156 13.949219 Z M 6.453125 13.949219 "/>
<path style=" stroke:none;fill-rule:nonzero;fill:rgb(67.058825%,20.392157%,20.392157%);fill-opacity:1;" d="M 17.398438 12.300781 L 17.386719 13.800781 L 6.601562 13.800781 L 6.613281 12.300781 L 17.398438 12.300781 M 17.699219 12 L 6.316406 12 L 6.300781 14.101562 L 17.683594 14.101562 Z M 17.699219 12 "/>
<path style=" stroke:none;fill-rule:nonzero;fill:rgb(96.862745%,32.156864%,32.156864%);fill-opacity:1;" d="M 8.699219 12.300781 L 10.199219 12.300781 L 10.199219 13.800781 L 8.699219 13.800781 Z M 13.800781 12.300781 L 15.300781 12.300781 L 15.300781 13.800781 L 13.800781 13.800781 Z M 10.199219 12 L 8.699219 12 L 8.699219 9.734375 C 8.699219 9.734375 8.636719 7.5 10.800781 7.5 L 10.800781 9 C 10.1875 9 10.199219 9.542969 10.199219 9.542969 Z M 13.800781 12 L 15.300781 12 L 15.300781 9.734375 C 15.300781 9.734375 15.359375 7.5 13.199219 7.5 L 13.199219 9 C 13.8125 9 13.800781 9.542969 13.800781 9.542969 Z M 13.800781 12 "/>
<path style=" stroke:none;fill-rule:nonzero;fill:rgb(100%,100%,100%);fill-opacity:1;" d="M 12 6.300781 C 11.007812 6.300781 10.199219 7.105469 10.199219 8.101562 C 10.199219 9.09375 11.007812 9.898438 12 9.898438 C 12.992188 9.898438 13.800781 9.09375 13.800781 8.101562 C 13.800781 7.105469 12.992188 6.300781 12 6.300781 Z M 12 6.300781 "/>
</g>
</svg>
