<?xml version="1.0" encoding="UTF-8"?>
<svg xmlns="http://www.w3.org/2000/svg" xmlns:xlink="http://www.w3.org/1999/xlink" width="24pt" height="24pt" viewBox="0 0 24 24" version="1.1">
<g id="surface52027">
<path style=" stroke:none;fill-rule:nonzero;fill:rgb(96.078432%,80.784315%,52.156866%);fill-opacity:1;" d="M 0.210938 18.601562 L 18.601562 0.210938 L 23.789062 5.398438 L 5.398438 23.789062 Z M 0.210938 18.601562 "/>
<path style=" stroke:none;fill-rule:nonzero;fill:rgb(58.823532%,47.843137%,26.666668%);fill-opacity:1;" d="M 18.601562 0.425781 L 23.574219 5.398438 L 5.398438 23.574219 L 0.425781 18.601562 L 18.601562 0.425781 M 18.601562 0 L 0 18.601562 L 5.398438 24 L 24 5.398438 Z M 18.601562 0 "/>
<path style=" stroke:none;fill-rule:nonzero;fill:rgb(43.921569%,30.588236%,20.392157%);fill-opacity:1;" d="M 18.34375 4.15625 C 18.402344 4.214844 18.496094 4.214844 18.554688 4.15625 C 18.613281 4.097656 18.613281 4.003906 18.554688 3.945312 L 16.605469 1.992188 L 16.394531 2.207031 Z M 14.742188 7.757812 C 14.800781 7.8125 14.898438 7.8125 14.957031 7.757812 C 15.015625 7.699219 15.015625 7.601562 14.957031 7.542969 L 13.007812 5.59375 L 12.792969 5.804688 Z M 11.144531 11.355469 C 11.203125 11.414062 11.296875 11.414062 11.355469 11.355469 C 11.414062 11.296875 11.414062 11.203125 11.355469 11.144531 L 9.40625 9.195312 L 9.195312 9.40625 Z M 7.542969 14.957031 C 7.601562 15.015625 7.699219 15.015625 7.757812 14.957031 C 7.8125 14.898438 7.8125 14.800781 7.757812 14.742188 L 5.804688 12.792969 L 5.59375 13.007812 Z M 3.945312 18.554688 C 4.003906 18.613281 4.097656 18.613281 4.15625 18.554688 C 4.214844 18.496094 4.214844 18.402344 4.15625 18.34375 L 2.207031 16.394531 L 1.992188 16.605469 Z M 5.054688 15.644531 L 4.007812 14.59375 L 3.792969 14.804688 L 4.84375 15.855469 C 4.902344 15.914062 4.996094 15.914062 5.054688 15.855469 C 5.113281 15.796875 5.113281 15.703125 5.054688 15.644531 Z M 8.445312 12.257812 C 8.503906 12.3125 8.597656 12.3125 8.65625 12.257812 C 8.714844 12.199219 8.714844 12.101562 8.65625 12.042969 L 7.605469 10.992188 L 7.394531 11.207031 Z M 12.042969 8.65625 C 12.101562 8.714844 12.199219 8.714844 12.257812 8.65625 C 12.3125 8.597656 12.3125 8.503906 12.257812 8.445312 L 11.207031 7.394531 L 10.992188 7.605469 Z M 15.644531 5.054688 C 15.703125 5.113281 15.796875 5.113281 15.855469 5.054688 C 15.914062 4.996094 15.914062 4.902344 15.855469 4.84375 L 14.804688 3.792969 L 14.59375 4.007812 Z M 15.644531 5.054688 "/>
</g>
</svg>
