<?xml version="1.0" encoding="UTF-8"?>
<svg xmlns="http://www.w3.org/2000/svg" xmlns:xlink="http://www.w3.org/1999/xlink" width="24pt" height="24pt" viewBox="0 0 24 24" version="1.1">
<g id="surface7873">
<path style=" stroke:none;fill-rule:nonzero;fill:rgb(40.000001%,47.450981%,56.078434%);fill-opacity:1;" d="M 18.601562 10.621094 L 17.398438 10.621094 L 17.398438 7.199219 C 17.398438 4.230469 14.96875 1.800781 12 1.800781 C 9.03125 1.800781 6.601562 4.230469 6.601562 7.199219 L 6.601562 10.621094 L 5.398438 10.621094 L 5.398438 7.199219 C 5.398438 3.570312 8.371094 0.601562 12 0.601562 C 15.628906 0.601562 18.601562 3.570312 18.601562 7.199219 Z M 18.601562 10.621094 "/>
<path style=" stroke:none;fill-rule:nonzero;fill:rgb(96.078432%,80.784315%,52.156866%);fill-opacity:1;" d="M 1.351562 22.648438 L 1.351562 11.398438 C 1.351562 10.171875 2.371094 9.148438 3.601562 9.148438 L 20.398438 9.148438 C 21.628906 9.148438 22.648438 10.171875 22.648438 11.398438 L 22.648438 22.648438 Z M 1.351562 22.648438 "/>
<path style=" stroke:none;fill-rule:nonzero;fill:rgb(58.823532%,47.843137%,26.666668%);fill-opacity:1;" d="M 20.398438 9.300781 C 21.570312 9.300781 22.5 10.230469 22.5 11.398438 L 22.5 22.5 L 1.5 22.5 L 1.5 11.398438 C 1.5 10.230469 2.429688 9.300781 3.601562 9.300781 L 20.398438 9.300781 M 20.398438 9 L 3.601562 9 C 2.28125 9 1.199219 10.078125 1.199219 11.398438 L 1.199219 22.800781 L 22.800781 22.800781 L 22.800781 11.398438 C 22.800781 10.078125 21.71875 9 20.398438 9 Z M 20.398438 9 "/>
<path style=" stroke:none;fill-rule:nonzero;fill:rgb(100%,93.333334%,63.921571%);fill-opacity:1;" d="M 1.5 18.898438 L 22.5 18.898438 L 22.5 20.699219 L 1.5 20.699219 Z M 1.5 15.300781 L 22.5 15.300781 L 22.5 17.101562 L 1.5 17.101562 Z M 1.5 11.699219 L 22.5 11.699219 L 22.5 13.5 L 1.5 13.5 Z M 1.5 11.699219 "/>
</g>
</svg>
