<?xml version="1.0" encoding="UTF-8"?>
<svg xmlns="http://www.w3.org/2000/svg" xmlns:xlink="http://www.w3.org/1999/xlink" width="24pt" height="24pt" viewBox="0 0 24 24" version="1.1">
<g id="surface16085">
<path style=" stroke:none;fill-rule:nonzero;fill:rgb(29.411766%,39.215687%,46.666667%);fill-opacity:1;" d="M 2.398438 22.648438 C 1.820312 22.648438 1.351562 22.179688 1.351562 21.601562 L 1.351562 2.398438 C 1.351562 1.820312 1.820312 1.351562 2.398438 1.351562 L 21.601562 1.351562 C 22.179688 1.351562 22.648438 1.820312 22.648438 2.398438 L 22.648438 21.601562 C 22.648438 22.179688 22.179688 22.648438 21.601562 22.648438 Z M 2.398438 22.648438 "/>
<path style=" stroke:none;fill-rule:nonzero;fill:rgb(21.176471%,25.098041%,30.19608%);fill-opacity:1;" d="M 21.601562 1.5 C 22.097656 1.5 22.5 1.902344 22.5 2.398438 L 22.5 21.601562 C 22.5 22.097656 22.097656 22.5 21.601562 22.5 L 2.398438 22.5 C 1.902344 22.5 1.5 22.097656 1.5 21.601562 L 1.5 2.398438 C 1.5 1.902344 1.902344 1.5 2.398438 1.5 L 21.601562 1.5 M 21.601562 1.199219 L 2.398438 1.199219 C 1.738281 1.199219 1.199219 1.738281 1.199219 2.398438 L 1.199219 21.601562 C 1.199219 22.261719 1.738281 22.800781 2.398438 22.800781 L 21.601562 22.800781 C 22.261719 22.800781 22.800781 22.261719 22.800781 21.601562 L 22.800781 2.398438 C 22.800781 1.738281 22.261719 1.199219 21.601562 1.199219 Z M 21.601562 1.199219 "/>
<path style=" stroke:none;fill-rule:nonzero;fill:rgb(89.803922%,90.980393%,65.490198%);fill-opacity:1;" d="M 3 3 L 4.199219 3 L 4.199219 4.800781 L 3 4.800781 Z M 3 5.699219 L 4.199219 5.699219 L 4.199219 6.898438 L 3 6.898438 Z M 5.101562 6.601562 L 6.300781 6.601562 L 6.300781 7.800781 L 5.101562 7.800781 Z M 3 7.800781 L 4.199219 7.800781 L 4.199219 9 L 3 9 Z M 5.101562 8.699219 L 6.300781 8.699219 L 6.300781 9.898438 L 5.101562 9.898438 Z M 3 10.5 L 4.199219 10.5 L 4.199219 11.699219 L 3 11.699219 Z M 5.101562 11.398438 L 6.300781 11.398438 L 6.300781 12.601562 L 5.101562 12.601562 Z M 3 12.898438 L 4.199219 12.898438 L 4.199219 14.101562 L 3 14.101562 Z M 5.117188 3 L 6.300781 3 L 6.300781 5.699219 L 5.117188 5.699219 Z M 7.199219 3 L 8.398438 3 L 8.398438 4.199219 L 7.199219 4.199219 Z M 7.199219 5.101562 L 8.398438 5.101562 L 8.398438 6.300781 L 7.199219 6.300781 Z M 9.300781 6 L 10.5 6 L 10.5 7.199219 L 9.300781 7.199219 Z M 11.398438 7.199219 L 12.601562 7.199219 L 12.601562 8.398438 L 11.398438 8.398438 Z M 11.398438 5.101562 L 12.601562 5.101562 L 12.601562 6.300781 L 11.398438 6.300781 Z M 13.5 5.699219 L 14.699219 5.699219 L 14.699219 6.898438 L 13.5 6.898438 Z M 15.601562 9.300781 L 16.800781 9.300781 L 16.800781 10.5 L 15.601562 10.5 Z M 17.699219 9.898438 L 18.898438 9.898438 L 18.898438 11.101562 L 17.699219 11.101562 Z M 17.699219 12.300781 L 18.898438 12.300781 L 18.898438 13.5 L 17.699219 13.5 Z M 17.699219 15.601562 L 18.898438 15.601562 L 18.898438 16.800781 L 17.699219 16.800781 Z M 15.601562 5.398438 L 16.800781 5.398438 L 16.800781 6.601562 L 15.601562 6.601562 Z M 17.699219 7.800781 L 18.898438 7.800781 L 18.898438 9 L 17.699219 9 Z M 17.699219 5.699219 L 18.898438 5.699219 L 18.898438 6.898438 L 17.699219 6.898438 Z M 19.800781 6.601562 L 21 6.601562 L 21 7.800781 L 19.800781 7.800781 Z M 19.800781 8.699219 L 21 8.699219 L 21 9.898438 L 19.800781 9.898438 Z M 19.800781 10.800781 L 21 10.800781 L 21 12 L 19.800781 12 Z M 19.800781 13.5 L 21 13.5 L 21 14.699219 L 19.800781 14.699219 Z M 19.800781 16.5 L 21 16.5 L 21 17.699219 L 19.800781 17.699219 Z M 13.5 7.800781 L 14.699219 7.800781 L 14.699219 9 L 13.5 9 Z M 13.5 10.199219 L 14.699219 10.199219 L 14.699219 11.398438 L 13.5 11.398438 Z M 13.5 12.898438 L 14.699219 12.898438 L 14.699219 14.101562 L 13.5 14.101562 Z M 9.300781 8.101562 L 10.5 8.101562 L 10.5 9.300781 L 9.300781 9.300781 Z M 11.398438 9.300781 L 12.601562 9.300781 L 12.601562 10.5 L 11.398438 10.5 Z M 9.300781 10.199219 L 10.5 10.199219 L 10.5 11.398438 L 9.300781 11.398438 Z M 11.398438 11.398438 L 12.601562 11.398438 L 12.601562 12.601562 L 11.398438 12.601562 Z M 9.300781 12.601562 L 10.5 12.601562 L 10.5 13.800781 L 9.300781 13.800781 Z M 11.398438 14.101562 L 12.601562 14.101562 L 12.601562 15.300781 L 11.398438 15.300781 Z M 11.398438 16.800781 L 12.601562 16.800781 L 12.601562 18 L 11.398438 18 Z M 7.199219 7.800781 L 8.398438 7.800781 L 8.398438 9 L 7.199219 9 Z M 7.199219 10.199219 L 8.398438 10.199219 L 8.398438 11.398438 L 7.199219 11.398438 Z M 7.199219 12.898438 L 8.398438 12.898438 L 8.398438 14.101562 L 7.199219 14.101562 Z M 9.300781 3 L 10.5 3 L 10.5 5.101562 L 9.300781 5.101562 Z M 11.398438 3 L 12.601562 3 L 12.601562 4.199219 L 11.398438 4.199219 Z M 15.601562 3 L 16.800781 3 L 16.800781 4.199219 L 15.601562 4.199219 Z M 17.699219 3 L 18.898438 3 L 18.898438 4.800781 L 17.699219 4.800781 Z M 19.800781 3 L 21 3 L 21 5.699219 L 19.800781 5.699219 Z M 13.5 3 L 14.699219 3 L 14.699219 4.800781 L 13.5 4.800781 Z M 13.5 3 "/>
<path style=" stroke:none;fill-rule:nonzero;fill:rgb(100%,93.333334%,63.921571%);fill-opacity:1;" d="M 5.101562 14.398438 L 6.300781 14.398438 L 6.300781 15.601562 L 5.101562 15.601562 Z M 3 16.199219 L 4.199219 16.199219 L 4.199219 17.398438 L 3 17.398438 Z M 17.699219 18.601562 L 18.898438 18.601562 L 18.898438 19.800781 L 17.699219 19.800781 Z M 19.800781 19.800781 L 21 19.800781 L 21 21 L 19.800781 21 Z M 13.5 16.199219 L 14.699219 16.199219 L 14.699219 17.398438 L 13.5 17.398438 Z M 11.398438 19.199219 L 12.601562 19.199219 L 12.601562 20.398438 L 11.398438 20.398438 Z M 9.300781 15 L 10.5 15 L 10.5 16.199219 L 9.300781 16.199219 Z M 7.199219 16.199219 L 8.398438 16.199219 L 8.398438 17.398438 L 7.199219 17.398438 Z M 7.199219 19.800781 L 8.398438 19.800781 L 8.398438 21 L 7.199219 21 Z M 3 19.199219 L 4.199219 19.199219 L 4.199219 20.398438 L 3 20.398438 Z M 3 19.199219 "/>
</g>
</svg>
