<?xml version="1.0" encoding="UTF-8"?>
<svg xmlns="http://www.w3.org/2000/svg" xmlns:xlink="http://www.w3.org/1999/xlink" width="24pt" height="24pt" viewBox="0 0 24 24" version="1.1">
<g id="surface31834">
<path style=" stroke:none;fill-rule:nonzero;fill:rgb(96.862745%,42.745098%,42.745098%);fill-opacity:1;" d="M 12.148438 15.445312 C 14.042969 15.375 15.449219 13.917969 15.449219 12 C 15.449219 10.113281 14.128906 8.746094 12.148438 8.5625 L 12.148438 7.652344 C 14.441406 7.734375 16.351562 9.691406 16.351562 12 C 16.351562 14.46875 14.59375 16.277344 12.148438 16.347656 Z M 12.148438 15.445312 "/>
<path style=" stroke:none;fill-rule:nonzero;fill:rgb(72.941178%,22.745098%,22.745098%);fill-opacity:1;" d="M 12.300781 7.8125 C 14.441406 7.972656 16.199219 9.824219 16.199219 12 C 16.199219 14.332031 14.578125 16.050781 12.300781 16.191406 L 12.300781 15.589844 C 14.203125 15.445312 15.601562 13.953125 15.601562 12 C 15.601562 10.074219 14.285156 8.667969 12.300781 8.425781 L 12.300781 7.8125 M 12 7.5 L 12 8.699219 C 13.929688 8.824219 15.300781 10.121094 15.300781 12 C 15.300781 13.878906 13.878906 15.300781 12 15.300781 L 12 16.5 C 14.675781 16.5 16.5 14.511719 16.5 12 C 16.5 9.488281 14.410156 7.5 12 7.5 Z M 12 7.5 "/>
<path style=" stroke:none;fill-rule:nonzero;fill:rgb(96.862745%,71.764708%,71.764708%);fill-opacity:1;" d="M 12.148438 18.449219 C 15.636719 18.367188 18.449219 15.507812 18.449219 12 C 18.449219 8.492188 15.636719 5.632812 12.148438 5.550781 L 12.148438 4.652344 C 16.132812 4.730469 19.351562 7.996094 19.351562 12 C 19.351562 16.003906 16.132812 19.269531 12.148438 19.347656 Z M 12.148438 18.449219 "/>
<path style=" stroke:none;fill-rule:nonzero;fill:rgb(83.137256%,39.607844%,39.607844%);fill-opacity:1;" d="M 12.300781 4.804688 C 16.132812 4.964844 19.199219 8.128906 19.199219 12 C 19.199219 15.871094 16.132812 19.035156 12.300781 19.195312 L 12.300781 18.59375 C 15.800781 18.4375 18.601562 15.539062 18.601562 12 C 18.601562 8.460938 15.800781 5.5625 12.300781 5.40625 L 12.300781 4.804688 M 12 4.5 L 12 5.699219 C 15.449219 5.699219 18.300781 8.550781 18.300781 12 C 18.300781 15.449219 15.449219 18.300781 12 18.300781 L 12 19.5 C 16.082031 19.5 19.5 16.226562 19.5 12 C 19.5 7.824219 16.082031 4.5 12 4.5 Z M 12 4.5 "/>
<path style=" stroke:none;fill-rule:nonzero;fill:rgb(96.862745%,56.078434%,56.078434%);fill-opacity:1;" d="M 7.800781 14.25 C 6.558594 14.25 5.550781 13.242188 5.550781 12 C 5.550781 10.757812 6.558594 9.75 7.800781 9.75 C 9.039062 9.75 10.050781 10.757812 10.050781 12 C 10.050781 13.242188 9.039062 14.25 7.800781 14.25 Z M 7.800781 14.25 "/>
<path style=" stroke:none;fill-rule:nonzero;fill:rgb(78.039217%,26.274511%,26.274511%);fill-opacity:1;" d="M 7.800781 9.898438 C 8.957031 9.898438 9.898438 10.84375 9.898438 12 C 9.898438 13.15625 8.957031 14.101562 7.800781 14.101562 C 6.640625 14.101562 5.699219 13.15625 5.699219 12 C 5.699219 10.84375 6.640625 9.898438 7.800781 9.898438 M 7.800781 9.601562 C 6.472656 9.601562 5.398438 10.675781 5.398438 12 C 5.398438 13.324219 6.472656 14.398438 7.800781 14.398438 C 9.125 14.398438 10.199219 13.324219 10.199219 12 C 10.199219 10.675781 9.125 9.601562 7.800781 9.601562 Z M 7.800781 9.601562 "/>
<path style=" stroke:none;fill-rule:nonzero;fill:rgb(86.274511%,83.529413%,94.901961%);fill-opacity:1;" d="M 1.648438 22.648438 L 1.648438 1.351562 L 5.699219 1.351562 C 6.773438 1.351562 7.648438 2.226562 7.648438 3.300781 L 7.648438 20.699219 C 7.648438 21.773438 6.773438 22.648438 5.699219 22.648438 Z M 1.648438 22.648438 "/>
<path style=" stroke:none;fill-rule:nonzero;fill:rgb(54.509807%,45.882353%,63.137257%);fill-opacity:1;" d="M 5.699219 1.5 C 6.691406 1.5 7.5 2.308594 7.5 3.300781 L 7.5 20.699219 C 7.5 21.691406 6.691406 22.5 5.699219 22.5 L 1.800781 22.5 L 1.800781 1.5 L 5.699219 1.5 M 5.699219 1.199219 L 1.5 1.199219 L 1.5 22.800781 L 5.699219 22.800781 C 6.859375 22.800781 7.800781 21.859375 7.800781 20.699219 L 7.800781 3.300781 C 7.800781 2.140625 6.859375 1.199219 5.699219 1.199219 Z M 5.699219 1.199219 "/>
<path style=" stroke:none;fill-rule:nonzero;fill:rgb(96.862745%,71.764708%,71.764708%);fill-opacity:1;" d="M 12.148438 21.148438 C 17.125 21.066406 21.148438 16.996094 21.148438 12 C 21.148438 7.003906 17.125 2.929688 12.148438 2.851562 L 12.148438 1.953125 C 17.621094 2.03125 22.050781 6.523438 22.050781 12.03125 C 22.050781 17.507812 17.621094 21.96875 12.148438 22.050781 Z M 12.148438 21.148438 "/>
<path style=" stroke:none;fill-rule:nonzero;fill:rgb(94.117647%,55.29412%,55.29412%);fill-opacity:1;" d="M 12.300781 2.105469 C 17.621094 2.265625 21.898438 6.65625 21.898438 12.03125 C 21.898438 14.683594 20.871094 17.164062 19.007812 19.023438 C 17.214844 20.808594 14.84375 21.820312 12.300781 21.894531 L 12.300781 21.296875 C 17.289062 21.136719 21.300781 17.027344 21.300781 12 C 21.300781 6.972656 17.289062 2.863281 12.300781 2.703125 L 12.300781 2.105469 M 12 1.800781 L 12 3 C 17.015625 3 21 7.15625 21 12 C 21 16.824219 17.015625 21 12 21 L 12 22.199219 C 17.652344 22.199219 22.199219 17.683594 22.199219 12.03125 C 22.199219 6.382812 17.652344 1.800781 12 1.800781 Z M 12 1.800781 "/>
</g>
</svg>
