<?xml version="1.0" encoding="UTF-8"?>
<svg xmlns="http://www.w3.org/2000/svg" xmlns:xlink="http://www.w3.org/1999/xlink" width="24pt" height="24pt" viewBox="0 0 24 24" version="1.1">
<g id="surface51565">
<path style=" stroke:none;fill-rule:nonzero;fill:rgb(54.509807%,71.764708%,94.117647%);fill-opacity:1;" d="M 5.398438 23.25 C 4.621094 23.25 3.75 22.738281 3.75 21.601562 C 3.75 20.820312 3.839844 20.128906 3.929688 19.261719 C 4.109375 17.730469 4.351562 15.628906 4.351562 11.398438 L 4.351562 0.75 L 7.050781 0.75 L 7.050781 12 C 7.050781 13.320312 8.101562 15.148438 9.839844 15.148438 C 11.578125 15.148438 12.75 13.53125 12.75 12 L 12.75 0.75 L 15.449219 0.75 L 15.449219 12.601562 C 15.449219 14.128906 16.109375 15.148438 17.101562 15.148438 C 18.058594 15.148438 18.71875 14.191406 18.75 12.75 L 20.25 12.75 C 20.191406 14.910156 18.660156 16.648438 16.800781 16.648438 C 15.601562 16.648438 14.488281 15.929688 13.859375 14.730469 L 13.738281 14.488281 L 13.621094 14.699219 C 12.839844 15.929688 11.429688 16.648438 9.898438 16.648438 C 8.699219 16.648438 7.53125 16.171875 6.71875 15.359375 L 6.449219 15.089844 L 6.449219 15.480469 C 6.480469 16.890625 6.628906 18 6.78125 18.988281 C 6.898438 19.890625 7.050781 20.730469 7.050781 21.628906 C 7.050781 22.738281 6.179688 23.25 5.398438 23.25 Z M 5.398438 23.25 "/>
<path style=" stroke:none;fill-rule:nonzero;fill:rgb(30.588236%,47.843137%,70.980394%);fill-opacity:1;" d="M 5.398438 23.398438 C 4.53125 23.398438 3.601562 22.828125 3.601562 21.601562 C 3.601562 20.820312 3.691406 20.128906 3.78125 19.261719 C 3.960938 17.699219 4.199219 15.628906 4.199219 11.398438 L 4.199219 0.601562 L 7.199219 0.601562 L 7.199219 12 C 7.199219 13.261719 8.21875 15 9.839844 15 C 11.488281 15 12.601562 13.441406 12.601562 12 L 12.601562 0.601562 L 15.601562 0.601562 L 15.601562 12.601562 C 15.601562 14.039062 16.199219 15 17.101562 15 C 17.96875 15 18.570312 14.128906 18.601562 12.75 L 18.601562 12.601562 L 20.398438 12.601562 L 20.398438 12.75 C 20.339844 15.03125 18.75 16.800781 16.800781 16.800781 C 15.539062 16.800781 14.398438 16.050781 13.738281 14.789062 C 12.898438 16.050781 11.488281 16.800781 9.898438 16.800781 C 8.640625 16.800781 7.441406 16.320312 6.601562 15.449219 C 6.628906 16.859375 6.78125 17.96875 6.929688 18.929688 C 7.050781 19.828125 7.199219 20.671875 7.199219 21.601562 C 7.199219 22.828125 6.269531 23.398438 5.398438 23.398438 Z M 4.5 0.898438 L 4.5 11.398438 C 4.5 15.628906 4.261719 17.730469 4.078125 19.289062 C 3.988281 20.128906 3.898438 20.820312 3.898438 21.601562 C 3.898438 22.621094 4.679688 23.101562 5.398438 23.101562 C 6.121094 23.101562 6.898438 22.621094 6.898438 21.601562 C 6.898438 20.699219 6.78125 19.859375 6.660156 18.988281 C 6.511719 18 6.359375 16.890625 6.328125 15.449219 L 6.328125 14.699219 L 6.871094 15.238281 C 7.589844 16.050781 8.730469 16.5 9.898438 16.5 C 11.371094 16.5 12.71875 15.808594 13.46875 14.640625 L 13.738281 14.21875 L 13.980469 14.671875 C 14.578125 15.839844 15.628906 16.53125 16.769531 16.53125 C 18.511719 16.53125 19.921875 14.96875 20.070312 12.929688 L 18.871094 12.929688 C 18.78125 14.371094 18.089844 15.328125 17.070312 15.328125 C 15.988281 15.328125 15.269531 14.25 15.269531 12.628906 L 15.269531 0.898438 L 12.871094 0.898438 L 12.871094 12 C 12.871094 13.589844 11.640625 15.300781 9.808594 15.300781 C 7.980469 15.300781 6.871094 13.378906 6.871094 12 L 6.871094 0.898438 Z M 4.5 0.898438 "/>
</g>
</svg>
