<?xml version="1.0" encoding="UTF-8"?>
<svg xmlns="http://www.w3.org/2000/svg" xmlns:xlink="http://www.w3.org/1999/xlink" width="24pt" height="24pt" viewBox="0 0 24 24" version="1.1">
<g id="surface51578">
<path style=" stroke:none;fill-rule:nonzero;fill:rgb(54.509807%,71.764708%,94.117647%);fill-opacity:1;" d="M 16.800781 20.851562 C 15.113281 20.851562 13.453125 19.808594 12.121094 17.914062 L 12 17.738281 L 11.878906 17.914062 C 10.546875 19.808594 8.886719 20.851562 7.199219 20.851562 L 6.601562 20.851562 C 3.375 20.851562 0.75 17.226562 0.75 12.769531 C 0.75 12.554688 0.757812 12.328125 0.769531 12.105469 L 0.785156 11.96875 C 1.125 7.023438 4.621094 3.148438 8.742188 3.148438 L 10.050781 3.148438 L 10.050781 3.449219 L 9.558594 3.449219 C 6.304688 3.449219 3.449219 7.445312 3.449219 12 C 3.449219 15.914062 5.203125 19.351562 7.199219 19.351562 C 8.890625 19.351562 10.285156 18.214844 11.238281 16.066406 L 11.265625 16.003906 L 11.234375 15.941406 C 10.738281 14.898438 10.351562 13.167969 10.351562 12 C 10.351562 10.128906 11.105469 8.550781 12 8.550781 C 12.894531 8.550781 13.648438 10.128906 13.648438 12 C 13.648438 13.167969 13.261719 14.898438 12.765625 15.941406 L 12.734375 16.003906 L 12.761719 16.066406 C 13.714844 18.214844 15.109375 19.351562 16.800781 19.351562 C 18.796875 19.351562 20.550781 15.914062 20.550781 12 C 20.550781 7.445312 17.695312 3.449219 14.441406 3.449219 L 13.949219 3.449219 L 13.949219 3.148438 L 15.257812 3.148438 C 19.378906 3.148438 22.875 7.023438 23.214844 11.96875 L 23.226562 12.105469 L 23.230469 12.105469 C 23.242188 12.332031 23.25 12.554688 23.25 12.773438 C 23.25 17.226562 20.625 20.851562 17.398438 20.851562 Z M 16.800781 20.851562 "/>
<path style=" stroke:none;fill-rule:nonzero;fill:rgb(30.588236%,47.843137%,70.980394%);fill-opacity:1;" d="M 15.257812 3.300781 C 17.226562 3.300781 19.109375 4.1875 20.558594 5.796875 C 22.011719 7.414062 22.902344 9.609375 23.066406 11.976562 L 23.082031 12.1875 C 23.09375 12.386719 23.101562 12.582031 23.101562 12.769531 C 23.101562 17.144531 20.542969 20.699219 17.398438 20.699219 L 16.800781 20.699219 C 15.164062 20.699219 13.546875 19.679688 12.246094 17.828125 L 12 17.476562 L 11.753906 17.828125 C 10.453125 19.679688 8.835938 20.699219 7.199219 20.699219 L 6.601562 20.699219 C 3.457031 20.699219 0.898438 17.144531 0.898438 12.769531 C 0.898438 12.601562 0.902344 12.429688 0.914062 12.257812 L 0.933594 11.976562 C 1.097656 9.609375 1.988281 7.414062 3.441406 5.796875 C 4.890625 4.1875 6.773438 3.300781 8.742188 3.300781 L 9.898438 3.300781 L 9.558594 3.300781 C 6.222656 3.300781 3.300781 7.367188 3.300781 12 C 3.300781 16.066406 5.085938 19.5 7.199219 19.5 C 8.953125 19.5 10.398438 18.332031 11.375 16.128906 L 11.429688 16 L 11.371094 15.878906 C 10.890625 14.871094 10.5 13.128906 10.5 12 C 10.5 10.054688 11.289062 8.699219 12 8.699219 C 12.710938 8.699219 13.5 10.054688 13.5 12 C 13.5 13.128906 13.109375 14.871094 12.628906 15.878906 L 12.570312 16 L 12.625 16.128906 C 13.601562 18.332031 15.046875 19.5 16.800781 19.5 C 18.914062 19.5 20.699219 16.066406 20.699219 12 C 20.699219 7.367188 17.777344 3.300781 14.441406 3.300781 L 15.257812 3.300781 M 15.257812 3 L 13.800781 3 L 13.800781 3.601562 L 14.441406 3.601562 C 17.589844 3.601562 20.398438 7.503906 20.398438 12 C 20.398438 16.046875 18.597656 19.199219 16.800781 19.199219 C 15.101562 19.199219 13.773438 17.980469 12.898438 16.007812 C 13.382812 14.988281 13.800781 13.230469 13.800781 12 C 13.800781 10.011719 12.996094 8.398438 12 8.398438 C 11.003906 8.398438 10.199219 10.011719 10.199219 12 C 10.199219 13.230469 10.617188 14.988281 11.101562 16.007812 C 10.226562 17.980469 8.898438 19.199219 7.199219 19.199219 C 5.402344 19.199219 3.601562 16.046875 3.601562 12 C 3.601562 7.503906 6.410156 3.601562 9.558594 3.601562 L 10.199219 3.601562 L 10.199219 3 L 8.742188 3 C 4.476562 3 0.980469 6.941406 0.632812 11.957031 C 0.609375 12.226562 0.601562 12.496094 0.601562 12.769531 C 0.601562 17.269531 3.226562 21 6.601562 21 C 6.738281 21 7.199219 21 7.199219 21 C 9.152344 21 10.804688 19.699219 12 18 C 13.195312 19.699219 14.847656 21 16.800781 21 C 16.800781 21 17.261719 21 17.398438 21 C 20.773438 21 23.398438 17.269531 23.398438 12.769531 C 23.398438 12.496094 23.390625 12.226562 23.367188 11.957031 C 23.019531 6.941406 19.523438 3 15.257812 3 Z M 15.257812 3 "/>
</g>
</svg>
