<?xml version="1.0" encoding="UTF-8"?>
<svg xmlns="http://www.w3.org/2000/svg" xmlns:xlink="http://www.w3.org/1999/xlink" width="24pt" height="24pt" viewBox="0 0 24 24" version="1.1">
<g id="surface19081">
<path style=" stroke:none;fill-rule:nonzero;fill:rgb(100%,100%,100%);fill-opacity:1;" d="M 6.0625 22.648438 L 1.351562 17.9375 L 1.351562 1.351562 L 17.9375 1.351562 L 22.648438 6.0625 L 22.648438 22.648438 Z M 6.0625 22.648438 "/>
<path style=" stroke:none;fill-rule:nonzero;fill:rgb(47.058824%,54.509807%,61.176473%);fill-opacity:1;" d="M 17.875 1.5 L 22.5 6.125 L 22.5 22.5 L 6.125 22.5 L 1.5 17.875 L 1.5 1.5 L 17.875 1.5 M 18 1.199219 L 1.199219 1.199219 L 1.199219 18 L 6 22.800781 L 22.800781 22.800781 L 22.800781 6 Z M 18 1.199219 "/>
<path style=" stroke:none;fill-rule:nonzero;fill:rgb(100%,100%,100%);fill-opacity:1;" d="M 6.148438 6.148438 L 22.648438 6.148438 L 22.648438 22.648438 L 6.148438 22.648438 Z M 6.148438 6.148438 "/>
<path style=" stroke:none;fill-rule:nonzero;fill:rgb(47.058824%,54.509807%,61.176473%);fill-opacity:1;" d="M 22.5 6.300781 L 22.5 22.5 L 6.300781 22.5 L 6.300781 6.300781 L 22.5 6.300781 M 22.800781 6 L 6 6 L 6 22.800781 L 22.800781 22.800781 Z M 22.800781 6 "/>
<path style=" stroke:none;fill-rule:nonzero;fill:rgb(100%,100%,100%);fill-opacity:1;" d="M 6.0625 22.648438 L 1.351562 17.9375 L 1.351562 1.546875 L 6.148438 6.066406 L 6.148438 22.648438 Z M 6.0625 22.648438 "/>
<path style=" stroke:none;fill-rule:nonzero;fill:rgb(47.058824%,54.509807%,61.176473%);fill-opacity:1;" d="M 1.5 1.894531 L 6 6.128906 L 6 22.375 L 1.5 17.875 L 1.5 1.894531 M 1.199219 1.199219 L 1.199219 18 L 6 22.800781 L 6.300781 22.800781 L 6.300781 6 Z M 1.199219 1.199219 "/>
</g>
</svg>
