<?xml version="1.0" encoding="UTF-8"?>
<svg xmlns="http://www.w3.org/2000/svg" xmlns:xlink="http://www.w3.org/1999/xlink" width="24pt" height="24pt" viewBox="0 0 24 24" version="1.1">
<g id="surface30641">
<path style=" stroke:none;fill-rule:nonzero;fill:rgb(100%,93.333334%,63.921571%);fill-opacity:1;" d="M 16.050781 11.851562 L 17.25 11.851562 L 17.25 22.648438 L 16.050781 22.648438 Z M 16.050781 11.851562 "/>
<path style=" stroke:none;fill-rule:nonzero;fill:rgb(96.078432%,76.078433%,46.27451%);fill-opacity:1;" d="M 17.101562 12 L 17.101562 22.5 L 16.199219 22.5 L 16.199219 12 L 17.101562 12 M 17.398438 11.699219 L 15.898438 11.699219 L 15.898438 22.800781 L 17.398438 22.800781 Z M 17.398438 11.699219 "/>
<path style=" stroke:none;fill-rule:nonzero;fill:rgb(100%,93.333334%,63.921571%);fill-opacity:1;" d="M 6.75 11.851562 L 7.949219 11.851562 L 7.949219 22.648438 L 6.75 22.648438 Z M 6.75 11.851562 "/>
<path style=" stroke:none;fill-rule:nonzero;fill:rgb(96.078432%,76.078433%,46.27451%);fill-opacity:1;" d="M 7.800781 12 L 7.800781 22.5 L 6.898438 22.5 L 6.898438 12 L 7.800781 12 M 8.101562 11.699219 L 6.601562 11.699219 L 6.601562 22.800781 L 8.101562 22.800781 Z M 8.101562 11.699219 "/>
<path style=" stroke:none;fill-rule:nonzero;fill:rgb(76.078433%,90.980393%,100%);fill-opacity:1;" d="M 3.75 10.648438 L 3.75 2.679688 C 3.75 1.945312 4.34375 1.351562 5.078125 1.351562 L 18.921875 1.351562 C 19.652344 1.351562 20.25 1.945312 20.25 2.679688 L 20.25 10.648438 Z M 3.75 10.648438 "/>
<path style=" stroke:none;fill-rule:nonzero;fill:rgb(45.490196%,58.823532%,76.862746%);fill-opacity:1;" d="M 18.921875 1.5 C 19.570312 1.5 20.101562 2.027344 20.101562 2.679688 L 20.101562 10.5 L 3.898438 10.5 L 3.898438 2.679688 C 3.898438 2.027344 4.429688 1.5 5.078125 1.5 L 18.921875 1.5 M 18.921875 1.199219 L 5.078125 1.199219 C 4.265625 1.199219 3.601562 1.863281 3.601562 2.679688 L 3.601562 10.800781 L 20.398438 10.800781 L 20.398438 2.679688 C 20.398438 1.863281 19.734375 1.199219 18.921875 1.199219 Z M 18.921875 1.199219 "/>
<path style=" stroke:none;fill-rule:nonzero;fill:rgb(76.078433%,90.980393%,100%);fill-opacity:1;" d="M 1.949219 11.851562 L 1.949219 11.398438 C 1.949219 10.65625 2.554688 10.050781 3.300781 10.050781 L 20.699219 10.050781 C 21.445312 10.050781 22.050781 10.65625 22.050781 11.398438 L 22.050781 11.851562 Z M 1.949219 11.851562 "/>
<path style=" stroke:none;fill-rule:nonzero;fill:rgb(45.490196%,58.823532%,76.862746%);fill-opacity:1;" d="M 20.699219 10.199219 C 21.363281 10.199219 21.898438 10.738281 21.898438 11.398438 L 21.898438 11.699219 L 2.101562 11.699219 L 2.101562 11.398438 C 2.101562 10.738281 2.636719 10.199219 3.300781 10.199219 L 20.699219 10.199219 M 20.699219 9.898438 L 3.300781 9.898438 C 2.472656 9.898438 1.800781 10.570312 1.800781 11.398438 L 1.800781 12 L 22.199219 12 L 22.199219 11.398438 C 22.199219 10.570312 21.527344 9.898438 20.699219 9.898438 Z M 20.699219 9.898438 "/>
</g>
</svg>
