<?xml version="1.0" encoding="UTF-8"?>
<svg xmlns="http://www.w3.org/2000/svg" xmlns:xlink="http://www.w3.org/1999/xlink" width="24pt" height="24pt" viewBox="0 0 24 24" version="1.1">
<g id="surface36814">
<path style=" stroke:none;fill-rule:nonzero;fill:rgb(54.509807%,71.764708%,94.117647%);fill-opacity:1;" d="M 13.949219 6.75 L 16.648438 6.75 L 16.648438 17.25 L 13.949219 17.25 Z M 13.949219 6.75 "/>
<path style=" stroke:none;fill-rule:nonzero;fill:rgb(30.588236%,47.843137%,70.980394%);fill-opacity:1;" d="M 16.5 6.898438 L 16.5 17.101562 L 14.101562 17.101562 L 14.101562 6.898438 L 16.5 6.898438 M 16.800781 6.601562 L 13.800781 6.601562 L 13.800781 17.398438 L 16.800781 17.398438 Z M 16.800781 6.601562 "/>
<path style=" stroke:none;fill-rule:nonzero;fill:rgb(54.509807%,71.764708%,94.117647%);fill-opacity:1;" d="M 7.351562 6.75 L 10.050781 6.75 L 10.050781 17.25 L 7.351562 17.25 Z M 7.351562 6.75 "/>
<path style=" stroke:none;fill-rule:nonzero;fill:rgb(30.588236%,47.843137%,70.980394%);fill-opacity:1;" d="M 9.898438 6.898438 L 9.898438 17.101562 L 7.5 17.101562 L 7.5 6.898438 L 9.898438 6.898438 M 10.199219 6.601562 L 7.199219 6.601562 L 7.199219 17.398438 L 10.199219 17.398438 Z M 10.199219 6.601562 "/>
</g>
</svg>
