<?xml version="1.0" encoding="UTF-8"?>
<svg xmlns="http://www.w3.org/2000/svg" xmlns:xlink="http://www.w3.org/1999/xlink" width="24pt" height="24pt" viewBox="0 0 24 24" version="1.1">
<g id="surface51591">
<path style=" stroke:none;fill-rule:nonzero;fill:rgb(54.509807%,71.764708%,94.117647%);fill-opacity:1;" d="M 17.25 22.351562 C 15.148438 22.351562 13.949219 20.851562 13.949219 18.238281 C 13.949219 16.378906 14.308594 14.191406 14.730469 11.671875 C 15.058594 9.628906 15.449219 7.320312 15.75 4.679688 L 15.78125 4.351562 L 10.378906 4.351562 L 10.351562 4.621094 C 10.171875 6.539062 10.019531 8.308594 9.898438 9.871094 C 9.089844 19.199219 8.820312 22.351562 5.550781 22.351562 C 4.351562 22.351562 3.148438 21.601562 3.148438 19.949219 C 3.148438 18.929688 3.660156 18.449219 4.230469 18.089844 C 5.941406 16.980469 7.769531 14.550781 8.578125 4.648438 L 8.609375 4.320312 L 6.480469 4.320312 C 4.738281 4.320312 3.148438 5.460938 2.070312 7.46875 C 1.890625 7.859375 1.769531 7.921875 1.621094 7.921875 C 1.558594 7.921875 1.378906 7.859375 1.378906 7.769531 C 1.378906 5.519531 3.75 1.320312 8.28125 1.320312 L 22.378906 1.320312 L 22.378906 4.320312 L 17.609375 4.320312 L 17.578125 4.558594 C 16.289062 12.300781 16.351562 17.039062 17.699219 18.660156 C 18.058594 19.078125 18.511719 19.320312 19.050781 19.320312 C 21.089844 19.320312 22.230469 17.550781 22.351562 15.71875 C 22.230469 21.210938 19.53125 22.351562 17.25 22.351562 Z M 17.25 22.351562 "/>
<path style=" stroke:none;fill-rule:nonzero;fill:rgb(30.588236%,47.843137%,70.980394%);fill-opacity:1;" d="M 17.25 22.5 C 15.058594 22.5 13.800781 20.941406 13.800781 18.238281 C 13.800781 16.351562 14.160156 14.191406 14.578125 11.671875 C 14.910156 9.628906 15.300781 7.320312 15.601562 4.679688 L 15.628906 4.5 L 10.5 4.5 L 10.5 4.648438 C 10.320312 6.449219 10.199219 8.128906 10.050781 9.601562 L 10.019531 9.898438 C 9.210938 19.320312 8.941406 22.5 5.519531 22.5 C 4.261719 22.5 2.96875 21.71875 2.96875 19.949219 C 2.96875 18.871094 3.539062 18.328125 4.109375 17.96875 C 5.789062 16.890625 7.589844 14.460938 8.371094 4.648438 L 8.371094 4.5 L 6.421875 4.5 C 4.738281 4.5 3.179688 5.609375 2.128906 7.589844 C 1.949219 7.980469 1.800781 8.101562 1.53125 8.101562 C 1.46875 8.101562 1.199219 8.011719 1.199219 7.800781 C 1.199219 5.488281 3.628906 1.199219 8.25 1.199219 L 22.5 1.199219 L 22.5 4.5 L 17.730469 4.5 L 17.699219 4.621094 C 16.441406 12.328125 16.46875 17.011719 17.789062 18.601562 C 18.121094 18.988281 18.539062 19.199219 19.019531 19.199219 C 21.03125 19.199219 22.050781 17.398438 22.171875 15.75 L 22.46875 15.75 C 22.378906 21.328125 19.589844 22.5 17.25 22.5 Z M 10.230469 4.199219 L 15.929688 4.199219 L 15.898438 4.710938 C 15.628906 7.351562 15.238281 9.660156 14.878906 11.699219 C 14.460938 14.21875 14.101562 16.378906 14.101562 18.238281 C 14.101562 20.761719 15.238281 22.199219 17.25 22.199219 C 19.199219 22.199219 21.480469 21.328125 22.050781 17.519531 C 21.511719 18.628906 20.519531 19.5 19.050781 19.5 C 18.480469 19.5 17.96875 19.261719 17.578125 18.808594 C 16.171875 17.160156 16.140625 12.390625 17.398438 4.589844 L 17.460938 4.199219 L 22.199219 4.199219 L 22.199219 1.5 L 8.25 1.5 C 3.839844 1.5 1.53125 5.578125 1.5 7.769531 C 1.53125 7.769531 1.558594 7.800781 1.589844 7.800781 C 1.648438 7.800781 1.738281 7.800781 1.921875 7.441406 C 3 5.371094 4.648438 4.199219 6.449219 4.199219 L 8.730469 4.199219 L 8.699219 4.679688 C 7.890625 14.640625 6.03125 17.101562 4.289062 18.238281 C 3.691406 18.628906 3.300781 19.078125 3.300781 19.949219 C 3.300781 21.511719 4.441406 22.199219 5.550781 22.199219 C 8.699219 22.199219 8.96875 19.078125 9.75 9.871094 L 9.78125 9.570312 C 9.898438 8.101562 10.019531 6.421875 10.199219 4.621094 Z M 10.230469 4.199219 "/>
</g>
</svg>
