<?xml version="1.0" encoding="UTF-8"?>
<svg xmlns="http://www.w3.org/2000/svg" xmlns:xlink="http://www.w3.org/1999/xlink" width="24pt" height="24pt" viewBox="0 0 24 24" version="1.1">
<g id="surface11185">
<path style=" stroke:none;fill-rule:nonzero;fill:rgb(100%,100%,100%);fill-opacity:1;" d="M 3.75 22.648438 L 3.75 1.351562 L 14.640625 1.351562 L 20.25 6.960938 L 20.25 18 C 20.25 20.550781 18.148438 22.648438 15.601562 22.648438 Z M 3.75 22.648438 "/>
<path style=" stroke:none;fill-rule:nonzero;fill:rgb(47.058824%,54.509807%,61.176473%);fill-opacity:1;" d="M 14.578125 1.5 L 20.101562 7.019531 L 20.101562 18 C 20.101562 20.488281 18.089844 22.5 15.601562 22.5 L 3.898438 22.5 L 3.898438 1.5 L 14.578125 1.5 M 14.699219 1.199219 L 3.601562 1.199219 L 3.601562 22.800781 L 15.601562 22.800781 C 18.238281 22.800781 20.398438 20.640625 20.398438 18 L 20.398438 6.898438 Z M 14.699219 1.199219 "/>
<path style=" stroke:none;fill-rule:nonzero;fill:rgb(100%,100%,100%);fill-opacity:1;" d="M 14.550781 7.050781 L 14.550781 1.351562 L 14.640625 1.351562 L 20.25 6.960938 L 20.25 7.050781 Z M 14.550781 7.050781 "/>
<path style=" stroke:none;fill-rule:nonzero;fill:rgb(47.058824%,54.509807%,61.176473%);fill-opacity:1;" d="M 14.699219 1.621094 L 19.980469 6.898438 L 14.699219 6.898438 L 14.699219 1.621094 M 14.699219 1.199219 L 14.398438 1.199219 L 14.398438 7.199219 L 20.398438 7.199219 L 20.398438 6.898438 Z M 14.699219 1.199219 "/>
<path style=" stroke:none;fill-rule:nonzero;fill:rgb(78.039217%,26.274511%,26.274511%);fill-opacity:1;" d="M 13.199219 15.210938 L 9.628906 11.640625 L 6.988281 15.121094 L 6.75 14.941406 L 9.570312 11.160156 L 13.199219 14.789062 L 17.28125 10.109375 L 17.519531 10.289062 Z M 13.199219 15.210938 "/>
<path style=" stroke:none;fill-rule:nonzero;fill:rgb(96.862745%,56.078434%,56.078434%);fill-opacity:1;" d="M 6.601562 14.851562 C 6.1875 14.851562 5.851562 15.1875 5.851562 15.601562 C 5.851562 16.015625 6.1875 16.351562 6.601562 16.351562 C 7.015625 16.351562 7.351562 16.015625 7.351562 15.601562 C 7.351562 15.1875 7.015625 14.851562 6.601562 14.851562 Z M 6.601562 14.851562 "/>
<path style=" stroke:none;fill-rule:nonzero;fill:rgb(78.039217%,26.274511%,26.274511%);fill-opacity:1;" d="M 6.601562 15 C 6.929688 15 7.199219 15.269531 7.199219 15.601562 C 7.199219 15.929688 6.929688 16.199219 6.601562 16.199219 C 6.269531 16.199219 6 15.929688 6 15.601562 C 6 15.269531 6.269531 15 6.601562 15 M 6.601562 14.699219 C 6.089844 14.699219 5.699219 15.089844 5.699219 15.601562 C 5.699219 16.109375 6.089844 16.5 6.601562 16.5 C 7.109375 16.5 7.5 16.109375 7.5 15.601562 C 7.5 15.089844 7.109375 14.699219 6.601562 14.699219 Z M 6.601562 14.699219 "/>
<path style=" stroke:none;fill-rule:nonzero;fill:rgb(96.862745%,56.078434%,56.078434%);fill-opacity:1;" d="M 13.199219 14.25 C 12.785156 14.25 12.449219 14.585938 12.449219 15 C 12.449219 15.414062 12.785156 15.75 13.199219 15.75 C 13.613281 15.75 13.949219 15.414062 13.949219 15 C 13.949219 14.585938 13.613281 14.25 13.199219 14.25 Z M 13.199219 14.25 "/>
<path style=" stroke:none;fill-rule:nonzero;fill:rgb(78.039217%,26.274511%,26.274511%);fill-opacity:1;" d="M 13.199219 14.398438 C 13.53125 14.398438 13.800781 14.671875 13.800781 15 C 13.800781 15.328125 13.53125 15.601562 13.199219 15.601562 C 12.871094 15.601562 12.601562 15.328125 12.601562 15 C 12.601562 14.671875 12.871094 14.398438 13.199219 14.398438 M 13.199219 14.101562 C 12.691406 14.101562 12.300781 14.488281 12.300781 15 C 12.300781 15.511719 12.691406 15.898438 13.199219 15.898438 C 13.710938 15.898438 14.101562 15.511719 14.101562 15 C 14.101562 14.488281 13.710938 14.101562 13.199219 14.101562 Z M 13.199219 14.101562 "/>
<path style=" stroke:none;fill-rule:nonzero;fill:rgb(96.862745%,56.078434%,56.078434%);fill-opacity:1;" d="M 17.398438 9.449219 C 16.984375 9.449219 16.648438 9.785156 16.648438 10.199219 C 16.648438 10.613281 16.984375 10.949219 17.398438 10.949219 C 17.8125 10.949219 18.148438 10.613281 18.148438 10.199219 C 18.148438 9.785156 17.8125 9.449219 17.398438 9.449219 Z M 17.398438 9.449219 "/>
<path style=" stroke:none;fill-rule:nonzero;fill:rgb(78.039217%,26.274511%,26.274511%);fill-opacity:1;" d="M 17.398438 9.601562 C 17.730469 9.601562 18 9.871094 18 10.199219 C 18 10.53125 17.730469 10.800781 17.398438 10.800781 C 17.070312 10.800781 16.800781 10.53125 16.800781 10.199219 C 16.800781 9.871094 17.070312 9.601562 17.398438 9.601562 M 17.398438 9.300781 C 16.890625 9.300781 16.5 9.691406 16.5 10.199219 C 16.5 10.710938 16.890625 11.101562 17.398438 11.101562 C 17.910156 11.101562 18.300781 10.710938 18.300781 10.199219 C 18.300781 9.691406 17.910156 9.300781 17.398438 9.300781 Z M 17.398438 9.300781 "/>
<path style=" stroke:none;fill-rule:nonzero;fill:rgb(96.862745%,56.078434%,56.078434%);fill-opacity:1;" d="M 9.601562 10.648438 C 9.1875 10.648438 8.851562 10.984375 8.851562 11.398438 C 8.851562 11.8125 9.1875 12.148438 9.601562 12.148438 C 10.015625 12.148438 10.351562 11.8125 10.351562 11.398438 C 10.351562 10.984375 10.015625 10.648438 9.601562 10.648438 Z M 9.601562 10.648438 "/>
<path style=" stroke:none;fill-rule:nonzero;fill:rgb(78.039217%,26.274511%,26.274511%);fill-opacity:1;" d="M 9.601562 10.800781 C 9.929688 10.800781 10.199219 11.070312 10.199219 11.398438 C 10.199219 11.730469 9.929688 12 9.601562 12 C 9.269531 12 9 11.730469 9 11.398438 C 9 11.070312 9.269531 10.800781 9.601562 10.800781 M 9.601562 10.5 C 9.089844 10.5 8.699219 10.890625 8.699219 11.398438 C 8.699219 11.910156 9.089844 12.300781 9.601562 12.300781 C 10.109375 12.300781 10.5 11.910156 10.5 11.398438 C 10.5 10.890625 10.109375 10.5 9.601562 10.5 Z M 9.601562 10.5 "/>
<path style=" stroke:none;fill-rule:nonzero;fill:rgb(54.509807%,71.764708%,94.117647%);fill-opacity:1;" d="M 15.148438 14.640625 L 23.671875 19.199219 L 15.148438 23.761719 Z M 15.148438 14.640625 "/>
<path style=" stroke:none;fill-rule:nonzero;fill:rgb(30.588236%,47.843137%,70.980394%);fill-opacity:1;" d="M 15.300781 14.910156 L 23.371094 19.199219 L 15.300781 23.488281 L 15.300781 14.910156 M 15 14.398438 L 15 24 L 24 19.199219 Z M 15 14.398438 "/>
</g>
</svg>
