<?xml version="1.0" encoding="UTF-8"?>
<svg xmlns="http://www.w3.org/2000/svg" xmlns:xlink="http://www.w3.org/1999/xlink" width="24pt" height="24pt" viewBox="0 0 24 24" version="1.1">
<g id="surface49957">
<path style=" stroke:none;fill-rule:nonzero;fill:rgb(100%,100%,100%);fill-opacity:1;" d="M 1.351562 21.449219 L 1.351562 1.351562 L 22.648438 1.351562 L 22.648438 18.511719 L 16.769531 21.449219 Z M 1.351562 21.449219 "/>
<path style=" stroke:none;fill-rule:nonzero;fill:rgb(47.058824%,54.509807%,61.176473%);fill-opacity:1;" d="M 22.5 1.5 L 22.5 18.421875 L 16.738281 21.300781 L 1.5 21.300781 L 1.5 1.5 L 22.5 1.5 M 22.800781 1.199219 L 1.199219 1.199219 L 1.199219 21.601562 L 16.800781 21.601562 L 22.800781 18.601562 Z M 22.800781 1.199219 "/>
<path style=" stroke:none;fill-rule:nonzero;fill:rgb(47.058824%,54.509807%,61.176473%);fill-opacity:1;" d="M 1.199219 1.199219 L 22.800781 1.199219 L 22.800781 4.800781 L 1.199219 4.800781 Z M 1.199219 1.199219 "/>
<path style=" stroke:none;fill-rule:nonzero;fill:rgb(54.509807%,71.764708%,94.117647%);fill-opacity:1;" d="M 7.800781 9.300781 L 18.601562 9.300781 L 18.601562 9.601562 L 7.800781 9.601562 Z M 5.398438 9.300781 L 6.300781 9.300781 L 6.300781 9.601562 L 5.398438 9.601562 Z M 7.800781 11.699219 L 18.601562 11.699219 L 18.601562 12 L 7.800781 12 Z M 5.398438 11.699219 L 6.300781 11.699219 L 6.300781 12 L 5.398438 12 Z M 7.800781 14.101562 L 18.601562 14.101562 L 18.601562 14.398438 L 7.800781 14.398438 Z M 5.398438 14.101562 L 6.300781 14.101562 L 6.300781 14.398438 L 5.398438 14.398438 Z M 7.800781 16.5 L 18.601562 16.5 L 18.601562 16.800781 L 7.800781 16.800781 Z M 5.398438 16.5 L 6.300781 16.5 L 6.300781 16.800781 L 5.398438 16.800781 Z M 5.398438 16.5 "/>
<path style=" stroke:none;fill-rule:nonzero;fill:rgb(76.078433%,90.980393%,100%);fill-opacity:1;" d="M 12.601562 16.5 L 18 16.5 L 18 16.800781 L 12.601562 16.800781 Z M 12.601562 16.5 "/>
<path style=" stroke:none;fill-rule:nonzero;fill:rgb(78.431374%,81.960785%,85.882354%);fill-opacity:1;" d="M 22.5 16.5 L 22.5 18.988281 C 22.589844 18.929688 22.710938 18.871094 22.800781 18.839844 L 22.800781 16.679688 Z M 12.601562 21.300781 L 12.601562 21.601562 L 17.671875 21.601562 C 17.851562 21.511719 18.03125 21.390625 18.238281 21.300781 Z M 12.601562 21.300781 "/>
<path style=" stroke:none;fill-rule:nonzero;fill:rgb(76.078433%,90.980393%,100%);fill-opacity:1;" d="M 12.601562 14.101562 L 12.601562 14.398438 L 18 14.398438 L 17.429688 14.101562 Z M 12.601562 14.101562 "/>
<path style=" stroke:none;fill-rule:nonzero;fill:rgb(54.509807%,71.764708%,94.117647%);fill-opacity:1;" d="M 13.949219 13.441406 L 23.671875 18.601562 L 13.949219 23.761719 Z M 13.949219 13.441406 "/>
<path style=" stroke:none;fill-rule:nonzero;fill:rgb(30.588236%,47.843137%,70.980394%);fill-opacity:1;" d="M 14.101562 13.710938 L 23.371094 18.601562 L 14.101562 23.488281 L 14.101562 13.710938 M 13.800781 13.199219 L 13.800781 24 L 24 18.601562 Z M 13.800781 13.199219 "/>
</g>
</svg>
