<?xml version="1.0" encoding="UTF-8"?>
<svg xmlns="http://www.w3.org/2000/svg" xmlns:xlink="http://www.w3.org/1999/xlink" width="24pt" height="24pt" viewBox="0 0 24 24" version="1.1">
<g id="surface51370">
<path style=" stroke:none;fill-rule:nonzero;fill:rgb(88.235295%,92.156863%,94.901961%);fill-opacity:1;" d="M 1.800781 22.949219 C 1.230469 22.949219 0.75 22.46875 0.75 21.898438 L 0.75 1.800781 C 0.75 1.230469 1.230469 0.75 1.800781 0.75 L 21.898438 0.75 C 22.46875 0.75 22.949219 1.230469 22.949219 1.800781 L 22.949219 21.898438 C 22.949219 22.46875 22.46875 22.949219 21.898438 22.949219 Z M 1.800781 22.949219 "/>
<path style=" stroke:none;fill-rule:nonzero;fill:rgb(47.058824%,54.509807%,61.176473%);fill-opacity:1;" d="M 21.898438 0.898438 C 22.410156 0.898438 22.800781 1.289062 22.800781 1.800781 L 22.800781 21.898438 C 22.800781 22.410156 22.410156 22.800781 21.898438 22.800781 L 1.800781 22.800781 C 1.289062 22.800781 0.898438 22.410156 0.898438 21.898438 L 0.898438 1.800781 C 0.898438 1.289062 1.289062 0.898438 1.800781 0.898438 L 21.898438 0.898438 M 21.898438 0.601562 L 1.800781 0.601562 C 1.140625 0.601562 0.601562 1.140625 0.601562 1.800781 L 0.601562 21.898438 C 0.601562 22.558594 1.140625 23.101562 1.800781 23.101562 L 21.898438 23.101562 C 22.558594 23.101562 23.101562 22.558594 23.101562 21.898438 L 23.101562 1.800781 C 23.101562 1.140625 22.558594 0.601562 21.898438 0.601562 Z M 21.898438 0.601562 "/>
<path style=" stroke:none;fill-rule:nonzero;fill:rgb(71.372551%,78.823531%,83.92157%);fill-opacity:1;" d="M 11.699219 0.898438 L 12 0.898438 L 12 22.800781 L 11.699219 22.800781 Z M 11.699219 0.898438 "/>
<path style=" stroke:none;fill-rule:nonzero;fill:rgb(71.372551%,78.823531%,83.92157%);fill-opacity:1;" d="M 0.898438 11.699219 L 22.800781 11.699219 L 22.800781 12 L 0.898438 12 Z M 0.898438 11.699219 "/>
<path style=" stroke:none;fill-rule:nonzero;fill:rgb(78.039217%,26.274511%,26.274511%);fill-opacity:1;" d="M 22.800781 21.300781 C 19.558594 21.300781 18.121094 16.261719 16.738281 11.398438 C 15.480469 6.929688 14.28125 2.699219 11.851562 2.699219 C 9.449219 2.699219 8.25 6.898438 6.988281 11.339844 C 5.609375 16.230469 4.199219 21.300781 0.898438 21.300781 L 0.898438 21 C 3.960938 21 5.371094 16.050781 6.71875 11.28125 C 8.011719 6.71875 9.210938 2.398438 11.851562 2.398438 C 14.488281 2.398438 15.71875 6.71875 17.039062 11.308594 C 18.390625 16.078125 19.800781 21 22.800781 21 Z M 22.800781 21.300781 "/>
</g>
</svg>
