<?xml version="1.0" encoding="UTF-8"?>
<svg xmlns="http://www.w3.org/2000/svg" xmlns:xlink="http://www.w3.org/1999/xlink" width="24pt" height="24pt" viewBox="0 0 24 24" version="1.1">
<g id="surface30683">
<path style=" stroke:none;fill-rule:nonzero;fill:rgb(54.509807%,71.764708%,94.117647%);fill-opacity:1;" d="M 12 16.949219 C 6.625 16.949219 3.148438 15.496094 3.148438 13.242188 L 3.148438 8.550781 L 20.851562 8.550781 L 20.851562 13.242188 C 20.851562 15.496094 17.375 16.949219 12 16.949219 Z M 12 16.949219 "/>
<path style=" stroke:none;fill-rule:nonzero;fill:rgb(30.588236%,47.843137%,70.980394%);fill-opacity:1;" d="M 20.699219 8.699219 L 20.699219 13.242188 C 20.699219 15.402344 17.285156 16.800781 12 16.800781 C 6.714844 16.800781 3.300781 15.402344 3.300781 13.242188 L 3.300781 8.699219 L 20.699219 8.699219 M 21 8.398438 L 3 8.398438 L 3 13.242188 C 3 15.800781 7.03125 17.101562 12 17.101562 C 16.96875 17.101562 21 15.800781 21 13.242188 Z M 21 8.398438 "/>
<path style=" stroke:none;fill-rule:nonzero;fill:rgb(100%,93.333334%,63.921571%);fill-opacity:1;" d="M 16.3125 14.164062 L 17.136719 13.886719 L 19.730469 18.539062 L 18.859375 18.746094 Z M 16.3125 14.164062 "/>
<path style=" stroke:none;fill-rule:nonzero;fill:rgb(96.078432%,76.078433%,46.27451%);fill-opacity:1;" d="M 17.066406 14.070312 L 19.503906 18.4375 L 18.9375 18.574219 L 16.53125 14.25 L 17.066406 14.070312 M 17.207031 13.707031 L 16.09375 14.078125 L 18.785156 18.917969 L 19.957031 18.636719 Z M 17.207031 13.707031 "/>
<path style=" stroke:none;fill-rule:nonzero;fill:rgb(76.078433%,90.980393%,100%);fill-opacity:1;" d="M 12 11.851562 C 7.121094 11.851562 3.148438 10.300781 3.148438 8.398438 C 3.148438 6.496094 7.121094 4.949219 12 4.949219 C 16.878906 4.949219 20.851562 6.496094 20.851562 8.398438 C 20.851562 10.300781 16.878906 11.851562 12 11.851562 Z M 12 11.851562 "/>
<path style=" stroke:none;fill-rule:nonzero;fill:rgb(45.490196%,58.823532%,76.862746%);fill-opacity:1;" d="M 12 5.101562 C 16.714844 5.101562 20.699219 6.609375 20.699219 8.398438 C 20.699219 10.1875 16.714844 11.699219 12 11.699219 C 7.285156 11.699219 3.300781 10.1875 3.300781 8.398438 C 3.300781 6.609375 7.285156 5.101562 12 5.101562 M 12 4.800781 C 7.03125 4.800781 3 6.410156 3 8.398438 C 3 10.386719 7.03125 12 12 12 C 16.96875 12 21 10.386719 21 8.398438 C 21 6.410156 16.96875 4.800781 12 4.800781 Z M 12 4.800781 "/>
<path style=" stroke:none;fill-rule:nonzero;fill:rgb(30.588236%,47.843137%,70.980394%);fill-opacity:1;" d="M 11.101562 13.800781 L 12.898438 13.800781 L 12.898438 17.101562 L 11.101562 17.101562 Z M 11.101562 13.800781 "/>
<path style=" stroke:none;fill-rule:nonzero;fill:rgb(100%,93.333334%,63.921571%);fill-opacity:1;" d="M 4.269531 18.539062 L 6.863281 13.886719 L 7.6875 14.164062 L 5.140625 18.746094 Z M 4.269531 18.539062 "/>
<path style=" stroke:none;fill-rule:nonzero;fill:rgb(96.078432%,76.078433%,46.27451%);fill-opacity:1;" d="M 6.933594 14.070312 L 7.46875 14.25 L 5.0625 18.574219 L 4.496094 18.4375 L 6.933594 14.070312 M 6.792969 13.707031 L 4.042969 18.636719 L 5.214844 18.917969 L 7.90625 14.078125 Z M 6.792969 13.707031 "/>
<path style=" stroke:none;fill-rule:nonzero;fill:rgb(30.588236%,47.843137%,70.980394%);fill-opacity:1;" d="M 6.886719 13.421875 L 6.652344 13.339844 L 6.53125 13.558594 L 5.203125 15.941406 C 5.292969 15.984375 5.382812 16.023438 5.476562 16.0625 L 6.792969 13.707031 L 7.90625 14.078125 L 6.585938 16.449219 C 6.683594 16.480469 6.785156 16.503906 6.886719 16.53125 L 8.167969 14.226562 L 8.34375 13.910156 L 8 13.796875 Z M 17.347656 13.339844 L 17.113281 13.421875 L 15.996094 13.796875 L 15.65625 13.910156 L 15.832031 14.226562 L 17.113281 16.53125 C 17.214844 16.503906 17.3125 16.480469 17.410156 16.449219 L 16.09375 14.078125 L 17.207031 13.707031 L 18.523438 16.0625 C 18.617188 16.023438 18.707031 15.984375 18.796875 15.941406 L 17.46875 13.558594 Z M 17.347656 13.339844 "/>
<path style=" stroke:none;fill-rule:nonzero;fill:rgb(100%,93.333334%,63.921571%);fill-opacity:1;" d="M 11.550781 14.25 L 12.449219 14.25 L 12.449219 20.550781 L 11.550781 20.550781 Z M 11.550781 14.25 "/>
<path style=" stroke:none;fill-rule:nonzero;fill:rgb(96.078432%,76.078433%,46.27451%);fill-opacity:1;" d="M 12.300781 14.398438 L 12.300781 20.398438 L 11.699219 20.398438 L 11.699219 14.398438 L 12.300781 14.398438 M 12.601562 14.101562 L 11.398438 14.101562 L 11.398438 20.699219 L 12.601562 20.699219 Z M 12.601562 14.101562 "/>
<path style=" stroke:none;fill-rule:nonzero;fill:rgb(54.509807%,71.764708%,94.117647%);fill-opacity:1;" d="M 12 9.148438 C 11.070312 9.148438 10.429688 8.789062 10.363281 8.457031 L 10.351562 8.382812 L 10.351562 2.25 L 13.648438 2.25 L 13.648438 8.414062 L 13.636719 8.457031 C 13.570312 8.789062 12.929688 9.148438 12 9.148438 Z M 12 9.148438 "/>
<path style=" stroke:none;fill-rule:nonzero;fill:rgb(30.588236%,47.843137%,70.980394%);fill-opacity:1;" d="M 13.5 2.398438 L 13.5 8.367188 L 13.488281 8.429688 C 13.441406 8.664062 12.886719 9 12 9 C 11.113281 9 10.558594 8.664062 10.511719 8.429688 L 10.5 8.367188 L 10.5 2.398438 L 13.5 2.398438 M 13.800781 2.101562 L 10.199219 2.101562 L 10.199219 8.484375 L 10.21875 8.484375 C 10.304688 8.941406 11.066406 9.300781 12 9.300781 C 12.933594 9.300781 13.695312 8.941406 13.78125 8.484375 L 13.800781 8.484375 Z M 13.800781 2.101562 "/>
<path style=" stroke:none;fill-rule:nonzero;fill:rgb(30.588236%,47.843137%,70.980394%);fill-opacity:1;" d="M 12 1.199219 C 11.007812 1.199219 10.199219 1.601562 10.199219 2.101562 C 10.199219 2.597656 11.007812 3 12 3 C 12.992188 3 13.800781 2.597656 13.800781 2.101562 C 13.800781 1.601562 12.992188 1.199219 12 1.199219 Z M 12 1.199219 "/>
<path style=" stroke:none;fill-rule:nonzero;fill:rgb(96.078432%,76.078433%,46.27451%);fill-opacity:1;" d="M 12 20.699219 C 13.117188 20.699219 13.800781 21.1875 13.800781 21.449219 C 13.800781 21.714844 13.117188 22.199219 12 22.199219 C 10.882812 22.199219 10.199219 21.714844 10.199219 21.449219 C 10.199219 21.1875 10.882812 20.699219 12 20.699219 M 12 20.101562 C 10.675781 20.101562 9.601562 20.703125 9.601562 21.449219 C 9.601562 22.195312 10.675781 22.800781 12 22.800781 C 13.324219 22.800781 14.398438 22.195312 14.398438 21.449219 C 14.398438 20.703125 13.324219 20.101562 12 20.101562 Z M 12 20.101562 "/>
<path style=" stroke:none;fill-rule:nonzero;fill:rgb(96.078432%,76.078433%,46.27451%);fill-opacity:1;" d="M 4.199219 18.898438 C 5.316406 18.898438 6 19.386719 6 19.648438 C 6 19.914062 5.316406 20.398438 4.199219 20.398438 C 3.082031 20.398438 2.398438 19.914062 2.398438 19.648438 C 2.398438 19.386719 3.082031 18.898438 4.199219 18.898438 M 4.199219 18.300781 C 2.875 18.300781 1.800781 18.90625 1.800781 19.648438 C 1.800781 20.394531 2.875 21 4.199219 21 C 5.527344 21 6.601562 20.394531 6.601562 19.648438 C 6.601562 18.90625 5.527344 18.300781 4.199219 18.300781 Z M 4.199219 18.300781 "/>
<path style=" stroke:none;fill-rule:nonzero;fill:rgb(96.078432%,76.078433%,46.27451%);fill-opacity:1;" d="M 19.800781 18.898438 C 20.917969 18.898438 21.601562 19.386719 21.601562 19.648438 C 21.601562 19.914062 20.917969 20.398438 19.800781 20.398438 C 18.683594 20.398438 18 19.914062 18 19.648438 C 18 19.386719 18.683594 18.898438 19.800781 18.898438 M 19.800781 18.300781 C 18.472656 18.300781 17.398438 18.90625 17.398438 19.648438 C 17.398438 20.394531 18.472656 21 19.800781 21 C 21.125 21 22.199219 20.394531 22.199219 19.648438 C 22.199219 18.90625 21.125 18.300781 19.800781 18.300781 Z M 19.800781 18.300781 "/>
</g>
</svg>
