<?xml version="1.0" encoding="UTF-8"?>
<svg xmlns="http://www.w3.org/2000/svg" xmlns:xlink="http://www.w3.org/1999/xlink" width="24pt" height="24pt" viewBox="0 0 24 24" version="1.1">
<g id="surface4380">
<path style=" stroke:none;fill-rule:nonzero;fill:rgb(100%,93.333334%,63.921571%);fill-opacity:1;" d="M 17.25 1.050781 L 18.449219 1.050781 L 18.449219 22.351562 L 17.25 22.351562 Z M 17.25 1.050781 "/>
<path style=" stroke:none;fill-rule:nonzero;fill:rgb(96.078432%,76.078433%,46.27451%);fill-opacity:1;" d="M 18.300781 1.199219 L 18.300781 22.199219 L 17.398438 22.199219 L 17.398438 1.199219 L 18.300781 1.199219 M 18.601562 0.898438 L 17.101562 0.898438 L 17.101562 22.5 L 18.601562 22.5 Z M 18.601562 0.898438 "/>
<path style=" stroke:none;fill-rule:nonzero;fill:rgb(100%,93.333334%,63.921571%);fill-opacity:1;" d="M 14.851562 1.050781 L 16.050781 1.050781 L 16.050781 22.351562 L 14.851562 22.351562 Z M 14.851562 1.050781 "/>
<path style=" stroke:none;fill-rule:nonzero;fill:rgb(96.078432%,76.078433%,46.27451%);fill-opacity:1;" d="M 15.898438 1.199219 L 15.898438 22.199219 L 15 22.199219 L 15 1.199219 L 15.898438 1.199219 M 16.199219 0.898438 L 14.699219 0.898438 L 14.699219 22.5 L 16.199219 22.5 Z M 16.199219 0.898438 "/>
<path style=" stroke:none;fill-rule:nonzero;fill:rgb(100%,93.333334%,63.921571%);fill-opacity:1;" d="M 12.449219 1.050781 L 13.648438 1.050781 L 13.648438 22.351562 L 12.449219 22.351562 Z M 12.449219 1.050781 "/>
<path style=" stroke:none;fill-rule:nonzero;fill:rgb(96.078432%,76.078433%,46.27451%);fill-opacity:1;" d="M 13.5 1.199219 L 13.5 22.199219 L 12.601562 22.199219 L 12.601562 1.199219 L 13.5 1.199219 M 13.800781 0.898438 L 12.300781 0.898438 L 12.300781 22.5 L 13.800781 22.5 Z M 13.800781 0.898438 "/>
<path style=" stroke:none;fill-rule:nonzero;fill:rgb(100%,93.333334%,63.921571%);fill-opacity:1;" d="M 10.050781 1.050781 L 11.25 1.050781 L 11.25 22.351562 L 10.050781 22.351562 Z M 10.050781 1.050781 "/>
<path style=" stroke:none;fill-rule:nonzero;fill:rgb(96.078432%,76.078433%,46.27451%);fill-opacity:1;" d="M 11.101562 1.199219 L 11.101562 22.199219 L 10.199219 22.199219 L 10.199219 1.199219 L 11.101562 1.199219 M 11.398438 0.898438 L 9.898438 0.898438 L 9.898438 22.5 L 11.398438 22.5 Z M 11.398438 0.898438 "/>
<path style=" stroke:none;fill-rule:nonzero;fill:rgb(100%,93.333334%,63.921571%);fill-opacity:1;" d="M 7.648438 1.050781 L 8.851562 1.050781 L 8.851562 22.351562 L 7.648438 22.351562 Z M 7.648438 1.050781 "/>
<path style=" stroke:none;fill-rule:nonzero;fill:rgb(96.078432%,76.078433%,46.27451%);fill-opacity:1;" d="M 8.699219 1.199219 L 8.699219 22.199219 L 7.800781 22.199219 L 7.800781 1.199219 L 8.699219 1.199219 M 9 0.898438 L 7.5 0.898438 L 7.5 22.5 L 9 22.5 Z M 9 0.898438 "/>
<path style=" stroke:none;fill-rule:nonzero;fill:rgb(100%,93.333334%,63.921571%);fill-opacity:1;" d="M 5.25 1.050781 L 6.449219 1.050781 L 6.449219 22.351562 L 5.25 22.351562 Z M 5.25 1.050781 "/>
<path style=" stroke:none;fill-rule:nonzero;fill:rgb(96.078432%,76.078433%,46.27451%);fill-opacity:1;" d="M 6.300781 1.199219 L 6.300781 22.199219 L 5.398438 22.199219 L 5.398438 1.199219 L 6.300781 1.199219 M 6.601562 0.898438 L 5.101562 0.898438 L 5.101562 22.5 L 6.601562 22.5 Z M 6.601562 0.898438 "/>
<path style=" stroke:none;fill-rule:nonzero;fill:rgb(100%,93.333334%,63.921571%);fill-opacity:1;" d="M 1.351562 16.949219 L 22.648438 16.949219 L 22.648438 18.148438 L 1.351562 18.148438 Z M 1.351562 16.949219 "/>
<path style=" stroke:none;fill-rule:nonzero;fill:rgb(96.078432%,76.078433%,46.27451%);fill-opacity:1;" d="M 22.5 17.101562 L 22.5 18 L 1.5 18 L 1.5 17.101562 L 22.5 17.101562 M 22.800781 16.800781 L 1.199219 16.800781 L 1.199219 18.300781 L 22.800781 18.300781 Z M 22.800781 16.800781 "/>
<path style=" stroke:none;fill-rule:nonzero;fill:rgb(100%,93.333334%,63.921571%);fill-opacity:1;" d="M 1.351562 14.550781 L 22.648438 14.550781 L 22.648438 15.75 L 1.351562 15.75 Z M 1.351562 14.550781 "/>
<path style=" stroke:none;fill-rule:nonzero;fill:rgb(96.078432%,76.078433%,46.27451%);fill-opacity:1;" d="M 22.5 14.699219 L 22.5 15.601562 L 1.5 15.601562 L 1.5 14.699219 L 22.5 14.699219 M 22.800781 14.398438 L 1.199219 14.398438 L 1.199219 15.898438 L 22.800781 15.898438 Z M 22.800781 14.398438 "/>
<path style=" stroke:none;fill-rule:nonzero;fill:rgb(100%,93.333334%,63.921571%);fill-opacity:1;" d="M 1.351562 12.148438 L 22.648438 12.148438 L 22.648438 13.351562 L 1.351562 13.351562 Z M 1.351562 12.148438 "/>
<path style=" stroke:none;fill-rule:nonzero;fill:rgb(96.078432%,76.078433%,46.27451%);fill-opacity:1;" d="M 22.5 12.300781 L 22.5 13.199219 L 1.5 13.199219 L 1.5 12.300781 L 22.5 12.300781 M 22.800781 12 L 1.199219 12 L 1.199219 13.5 L 22.800781 13.5 Z M 22.800781 12 "/>
<path style=" stroke:none;fill-rule:nonzero;fill:rgb(100%,93.333334%,63.921571%);fill-opacity:1;" d="M 1.351562 9.75 L 22.648438 9.75 L 22.648438 10.949219 L 1.351562 10.949219 Z M 1.351562 9.75 "/>
<path style=" stroke:none;fill-rule:nonzero;fill:rgb(96.078432%,76.078433%,46.27451%);fill-opacity:1;" d="M 22.5 9.898438 L 22.5 10.800781 L 1.5 10.800781 L 1.5 9.898438 L 22.5 9.898438 M 22.800781 9.601562 L 1.199219 9.601562 L 1.199219 11.101562 L 22.800781 11.101562 Z M 22.800781 9.601562 "/>
<path style=" stroke:none;fill-rule:nonzero;fill:rgb(100%,93.333334%,63.921571%);fill-opacity:1;" d="M 1.351562 7.351562 L 22.648438 7.351562 L 22.648438 8.550781 L 1.351562 8.550781 Z M 1.351562 7.351562 "/>
<path style=" stroke:none;fill-rule:nonzero;fill:rgb(96.078432%,76.078433%,46.27451%);fill-opacity:1;" d="M 22.5 7.5 L 22.5 8.398438 L 1.5 8.398438 L 1.5 7.5 L 22.5 7.5 M 22.800781 7.199219 L 1.199219 7.199219 L 1.199219 8.699219 L 22.800781 8.699219 Z M 22.800781 7.199219 "/>
<path style=" stroke:none;fill-rule:nonzero;fill:rgb(100%,93.333334%,63.921571%);fill-opacity:1;" d="M 1.351562 4.949219 L 22.648438 4.949219 L 22.648438 6.148438 L 1.351562 6.148438 Z M 1.351562 4.949219 "/>
<path style=" stroke:none;fill-rule:nonzero;fill:rgb(96.078432%,76.078433%,46.27451%);fill-opacity:1;" d="M 22.5 5.101562 L 22.5 6 L 1.5 6 L 1.5 5.101562 L 22.5 5.101562 M 22.800781 4.800781 L 1.199219 4.800781 L 1.199219 6.300781 L 22.800781 6.300781 Z M 22.800781 4.800781 "/>
<path style=" stroke:none;fill-rule:nonzero;fill:rgb(29.411766%,39.215687%,46.666667%);fill-opacity:1;" d="M 4.460938 20.25 C 3.902344 20.25 3.449219 19.796875 3.449219 19.238281 L 3.449219 4.160156 C 3.449219 3.601562 3.902344 3.148438 4.460938 3.148438 L 19.539062 3.148438 C 20.097656 3.148438 20.550781 3.601562 20.550781 4.160156 L 20.550781 19.238281 C 20.550781 19.796875 20.097656 20.25 19.539062 20.25 Z M 4.460938 20.25 "/>
<path style=" stroke:none;fill-rule:nonzero;fill:rgb(21.176471%,25.098041%,30.19608%);fill-opacity:1;" d="M 19.539062 3.300781 C 20.015625 3.300781 20.398438 3.6875 20.398438 4.160156 L 20.398438 19.238281 C 20.398438 19.714844 20.015625 20.101562 19.539062 20.101562 L 4.460938 20.101562 C 3.984375 20.101562 3.601562 19.714844 3.601562 19.238281 L 3.601562 4.160156 C 3.601562 3.6875 3.984375 3.300781 4.460938 3.300781 L 19.539062 3.300781 M 19.539062 3 L 4.460938 3 C 3.820312 3 3.300781 3.519531 3.300781 4.160156 L 3.300781 19.238281 C 3.300781 19.878906 3.820312 20.398438 4.460938 20.398438 L 19.539062 20.398438 C 20.179688 20.398438 20.699219 19.878906 20.699219 19.238281 L 20.699219 4.160156 C 20.699219 3.519531 20.179688 3 19.539062 3 Z M 19.539062 3 "/>
<path style=" stroke:none;fill-rule:nonzero;fill:rgb(77.254903%,83.137256%,87.058824%);fill-opacity:1;" d="M 17.398438 5.398438 C 16.902344 5.398438 16.5 5.804688 16.5 6.300781 C 16.5 6.796875 16.902344 7.199219 17.398438 7.199219 C 17.898438 7.199219 18.300781 6.796875 18.300781 6.300781 C 18.300781 5.804688 17.898438 5.398438 17.398438 5.398438 Z M 17.398438 5.398438 "/>
<path style=" stroke:none;fill-rule:nonzero;fill:rgb(77.254903%,83.137256%,87.058824%);fill-opacity:1;" d="M 6.601562 5.398438 C 6.101562 5.398438 5.699219 5.804688 5.699219 6.300781 C 5.699219 6.796875 6.101562 7.199219 6.601562 7.199219 C 7.097656 7.199219 7.5 6.796875 7.5 6.300781 C 7.5 5.804688 7.097656 5.398438 6.601562 5.398438 Z M 6.601562 5.398438 "/>
<path style=" stroke:none;fill-rule:nonzero;fill:rgb(77.254903%,83.137256%,87.058824%);fill-opacity:1;" d="M 17.398438 16.199219 C 16.902344 16.199219 16.5 16.601562 16.5 17.101562 C 16.5 17.597656 16.902344 18 17.398438 18 C 17.898438 18 18.300781 17.597656 18.300781 17.101562 C 18.300781 16.601562 17.898438 16.199219 17.398438 16.199219 Z M 17.398438 16.199219 "/>
<path style=" stroke:none;fill-rule:nonzero;fill:rgb(77.254903%,83.137256%,87.058824%);fill-opacity:1;" d="M 6.601562 16.199219 C 6.101562 16.199219 5.699219 16.601562 5.699219 17.101562 C 5.699219 17.597656 6.101562 18 6.601562 18 C 7.097656 18 7.5 17.597656 7.5 17.101562 C 7.5 16.601562 7.097656 16.199219 6.601562 16.199219 Z M 6.601562 16.199219 "/>
</g>
</svg>
