<?xml version="1.0" encoding="UTF-8"?>
<svg xmlns="http://www.w3.org/2000/svg" xmlns:xlink="http://www.w3.org/1999/xlink" width="24pt" height="24pt" viewBox="0 0 24 24" version="1.1">
<g id="surface10216">
<path style=" stroke:none;fill-rule:nonzero;fill:rgb(100%,93.333334%,63.921571%);fill-opacity:1;" d="M 8.121094 3.753906 L 14.851562 3.75 L 16.703125 7.949219 L 19.351562 9.898438 L 19.351562 21.75 L 5.550781 21.75 C 4.121094 21.75 3.148438 20.476562 3.148438 19.050781 C 3.148438 17.621094 4.007812 16.441406 5.4375 16.441406 C 6.75 16.441406 7.855469 17.417969 8.023438 18.683594 L 8.023438 3.898438 "/>
<path style=" stroke:none;fill-rule:nonzero;fill:rgb(90.980393%,83.137256%,48.235294%);fill-opacity:1;" d="M 7.949219 18.449219 C 8.003906 17.699219 6.902344 16.351562 5.453125 16.351562 C 3.96875 16.351562 3.050781 17.542969 3.050781 19.027344 L 3.050781 3.949219 C 3.050781 2.464844 4.253906 1.265625 5.734375 1.265625 C 7.21875 1.265625 7.949219 2.566406 7.949219 4.050781 C 7.949219 4.746094 7.949219 18.449219 7.949219 18.449219 Z M 7.949219 18.449219 "/>
<path style="fill:none;stroke-width:1;stroke-linecap:butt;stroke-linejoin:miter;stroke:rgb(72.941178%,60.784316%,28.235295%);stroke-opacity:1;stroke-miterlimit:10;" d="M 64.505208 32.005208 L 64.505208 72.5 L 19.505208 72.5 C 14.739583 72.5 10.494792 68.177083 10.494792 63.424479 C 10.494792 58.658854 13.736979 54.505208 18.502604 54.505208 C 22.877604 54.505208 26.497396 58.502604 26.497396 62.5 L 26.497396 12.5 " transform="matrix(0.3,0,0,0.3,0,0)"/>
<path style="fill:none;stroke-width:1;stroke-linecap:butt;stroke-linejoin:miter;stroke:rgb(72.941178%,60.784316%,28.235295%);stroke-opacity:1;stroke-miterlimit:10;" d="M 26.497396 12.5 L 48.502604 12.5 " transform="matrix(0.3,0,0,0.3,0,0)"/>
<path style="fill:none;stroke-width:1;stroke-linecap:butt;stroke-linejoin:miter;stroke:rgb(72.941178%,60.784316%,28.235295%);stroke-opacity:1;stroke-miterlimit:10;" d="M 26.497396 12.5 C 26.497396 7.734375 23.255208 4.505208 18.502604 4.505208 C 13.736979 4.505208 10.494792 8.242188 10.494792 12.994792 L 10.494792 63.502604 " transform="matrix(0.3,0,0,0.3,0,0)"/>
<path style=" stroke:none;fill-rule:nonzero;fill:rgb(86.274511%,83.529413%,94.901961%);fill-opacity:1;" d="M 18.675781 3.65625 C 17.558594 3.65625 16.648438 4.566406 16.648438 5.683594 C 16.648438 6.800781 17.558594 7.710938 18.675781 7.710938 C 19.792969 7.710938 20.703125 6.800781 20.703125 5.683594 C 20.703125 4.566406 19.792969 3.65625 18.675781 3.65625 Z M 18.050781 10.605469 L 17.84375 9.355469 L 17.664062 9.304688 C 17.054688 9.136719 16.492188 8.8125 16.039062 8.371094 L 15.910156 8.242188 L 14.722656 8.6875 L 14.101562 7.605469 L 15.078125 6.800781 L 15.03125 6.621094 C 14.953125 6.304688 14.910156 5.988281 14.910156 5.683594 C 14.910156 5.378906 14.953125 5.0625 15.035156 4.746094 L 15.078125 4.570312 L 14.101562 3.761719 L 14.722656 2.683594 L 15.910156 3.128906 L 16.039062 2.996094 C 16.492188 2.554688 17.054688 2.230469 17.664062 2.0625 L 17.84375 2.011719 L 18.050781 0.761719 L 19.296875 0.761719 L 19.507812 2.011719 L 19.683594 2.0625 C 20.296875 2.230469 20.859375 2.554688 21.308594 2.996094 L 21.441406 3.125 L 22.625 2.683594 L 23.25 3.761719 L 22.273438 4.566406 L 22.316406 4.746094 C 22.398438 5.0625 22.441406 5.378906 22.441406 5.683594 C 22.441406 5.988281 22.398438 6.304688 22.316406 6.621094 L 22.269531 6.800781 L 23.25 7.605469 L 22.625 8.683594 L 21.441406 8.242188 L 21.308594 8.371094 C 20.859375 8.8125 20.296875 9.136719 19.683594 9.304688 L 19.507812 9.355469 L 19.296875 10.605469 Z M 18.050781 10.605469 "/>
<path style="fill:none;stroke-width:1;stroke-linecap:butt;stroke-linejoin:miter;stroke:rgb(54.509807%,45.882353%,63.137257%);stroke-opacity:1;stroke-miterlimit:10;" d="M 62.161458 12.200521 C 58.424479 12.200521 55.364583 15.260417 55.364583 18.997396 C 55.364583 22.747396 58.424479 25.794271 62.161458 25.794271 C 65.911458 25.794271 68.958333 22.747396 68.958333 18.997396 C 68.958333 15.260417 65.911458 12.200521 62.161458 12.200521 Z M 60.078125 35.494792 L 59.375 31.315104 L 58.776042 31.145833 C 56.731771 30.572917 54.84375 29.492188 53.333333 28.007812 L 52.890625 27.578125 L 48.919271 29.0625 L 46.822917 25.442708 L 50.104167 22.747396 L 49.960938 22.148438 C 49.6875 21.080729 49.544271 20.026042 49.544271 18.997396 C 49.544271 17.981771 49.6875 16.914062 49.960938 15.859375 L 50.117188 15.260417 L 46.835938 12.565104 L 48.919271 8.945312 L 52.890625 10.429688 L 53.333333 10 C 54.84375 8.515625 56.731771 7.421875 58.776042 6.861979 L 59.375 6.692708 L 60.078125 2.5 L 64.257812 2.5 L 64.947917 6.692708 L 65.546875 6.861979 C 67.604167 7.421875 69.479167 8.515625 71.002604 10 L 71.432292 10.429688 L 75.403646 8.945312 L 77.5 12.552083 L 74.21875 15.260417 L 74.375 15.859375 C 74.648438 16.914062 74.778646 17.981771 74.778646 18.997396 C 74.778646 20.026042 74.648438 21.080729 74.375 22.135417 L 74.21875 22.734375 L 77.5 25.442708 L 75.403646 29.0625 L 71.432292 27.565104 L 70.989583 28.007812 C 69.479167 29.492188 67.591146 30.572917 65.546875 31.145833 L 64.947917 31.302083 L 64.244792 35.494792 Z M 60.078125 35.494792 " transform="matrix(0.3,0,0,0.3,0,0)"/>
</g>
</svg>
