<?xml version="1.0" encoding="UTF-8"?>
<svg xmlns="http://www.w3.org/2000/svg" xmlns:xlink="http://www.w3.org/1999/xlink" width="24pt" height="24pt" viewBox="0 0 24 24" version="1.1">
<g id="surface50009">
<path style=" stroke:none;fill-rule:nonzero;fill:rgb(100%,100%,100%);fill-opacity:1;" d="M 1.351562 22.050781 L 1.351562 1.949219 L 22.648438 1.949219 L 22.648438 21.601562 C 22.648438 21.839844 22.441406 22.050781 22.199219 22.050781 Z M 1.351562 22.050781 "/>
<path style=" stroke:none;fill-rule:nonzero;fill:rgb(47.058824%,54.509807%,61.176473%);fill-opacity:1;" d="M 22.5 2.101562 L 22.5 21.601562 C 22.5 21.78125 22.378906 21.898438 22.199219 21.898438 L 1.5 21.898438 L 1.5 2.101562 L 22.5 2.101562 M 22.800781 1.800781 L 1.199219 1.800781 L 1.199219 22.199219 L 22.199219 22.199219 C 22.53125 22.199219 22.800781 21.929688 22.800781 21.601562 Z M 22.800781 1.800781 "/>
<path style=" stroke:none;fill-rule:nonzero;fill:rgb(47.058824%,54.509807%,61.176473%);fill-opacity:1;" d="M 1.199219 1.800781 L 22.800781 1.800781 L 22.800781 5.398438 L 1.199219 5.398438 Z M 1.199219 1.800781 "/>
<path style=" stroke:none;fill-rule:nonzero;fill:rgb(54.509807%,71.764708%,94.117647%);fill-opacity:1;" d="M 7.800781 9.898438 L 18.601562 9.898438 L 18.601562 10.199219 L 7.800781 10.199219 Z M 5.398438 9.898438 L 6.300781 9.898438 L 6.300781 10.199219 L 5.398438 10.199219 Z M 7.800781 12.300781 L 18.601562 12.300781 L 18.601562 12.601562 L 7.800781 12.601562 Z M 5.398438 12.300781 L 6.300781 12.300781 L 6.300781 12.601562 L 5.398438 12.601562 Z M 7.800781 14.699219 L 18.601562 14.699219 L 18.601562 15 L 7.800781 15 Z M 5.398438 14.699219 L 6.300781 14.699219 L 6.300781 15 L 5.398438 15 Z M 7.800781 17.101562 L 18.601562 17.101562 L 18.601562 17.398438 L 7.800781 17.398438 Z M 5.398438 17.101562 L 6.300781 17.101562 L 6.300781 17.398438 L 5.398438 17.398438 Z M 5.398438 17.101562 "/>
<path style=" stroke:none;fill-rule:nonzero;fill:rgb(76.078433%,90.980393%,100%);fill-opacity:1;" d="M 14.398438 17.101562 L 18.601562 17.101562 L 18.601562 17.398438 L 14.398438 17.398438 Z M 14.398438 14.699219 L 18.601562 14.699219 L 18.601562 15 L 14.398438 15 Z M 14.398438 14.699219 "/>
<path style=" stroke:none;fill-rule:nonzero;fill:rgb(78.431374%,81.960785%,85.882354%);fill-opacity:1;" d="M 22.5 12 L 22.5 21.898438 L 11.699219 21.898438 L 11.699219 22.199219 L 22.800781 22.199219 L 22.800781 12 Z M 22.5 12 "/>
<path style=" stroke:none;fill-rule:nonzero;fill:rgb(71.372551%,86.666667%,81.960785%);fill-opacity:1;" d="M 15.75 23.851562 L 15.75 13.648438 L 23.851562 13.648438 L 23.851562 22.378906 C 23.851562 23.191406 23.191406 23.851562 22.351562 23.851562 Z M 15.75 23.851562 "/>
<path style=" stroke:none;fill-rule:nonzero;fill:rgb(37.254903%,60.000002%,58.039218%);fill-opacity:1;" d="M 23.699219 13.800781 L 23.699219 22.378906 C 23.699219 23.101562 23.101562 23.699219 22.351562 23.699219 L 15.898438 23.699219 L 15.898438 13.800781 L 23.699219 13.800781 M 24 13.5 L 15.601562 13.5 L 15.601562 24 L 22.351562 24 C 23.25 24 24 23.28125 24 22.378906 Z M 24 13.5 "/>
<path style=" stroke:none;fill-rule:nonzero;fill:rgb(60.000002%,76.862746%,72.156864%);fill-opacity:1;" d="M 14.851562 23.851562 C 14.039062 23.851562 13.378906 23.191406 13.378906 22.378906 L 13.378906 21.449219 L 21.449219 21.449219 L 21.449219 22.769531 C 21.449219 23.519531 21.960938 23.789062 22.351562 23.851562 Z M 14.851562 23.851562 "/>
<path style=" stroke:none;fill-rule:nonzero;fill:rgb(37.254903%,60.000002%,58.039218%);fill-opacity:1;" d="M 21.300781 21.601562 L 21.300781 22.769531 C 21.300781 23.21875 21.449219 23.519531 21.660156 23.699219 L 14.851562 23.699219 C 14.128906 23.699219 13.53125 23.101562 13.53125 22.378906 L 13.53125 21.601562 L 21.300781 21.601562 M 21.601562 21.300781 L 13.230469 21.300781 L 13.230469 22.378906 C 13.230469 23.28125 13.949219 24 14.851562 24 L 22.5 24 L 22.5 23.699219 C 22.410156 23.699219 21.601562 23.671875 21.601562 22.769531 Z M 21.601562 21.300781 "/>
</g>
</svg>
