<?xml version="1.0" encoding="UTF-8"?>
<svg xmlns="http://www.w3.org/2000/svg" xmlns:xlink="http://www.w3.org/1999/xlink" width="24pt" height="24pt" viewBox="0 0 24 24" version="1.1">
<g id="surface33586">
<path style=" stroke:none;fill-rule:nonzero;fill:rgb(29.019609%,54.901963%,82.745099%);fill-opacity:1;" d="M 2.953125 12.449219 L 0.75 12.449219 L 0.75 11.550781 L 3.648438 11.550781 L 5.039062 16.875 L 7.738281 3.078125 L 9.949219 11.550781 L 12.867188 11.558594 L 12.863281 12.449219 L 9.253906 12.449219 L 7.863281 7.125 L 5.164062 20.921875 Z M 2.953125 12.449219 "/>
<path style=" stroke:none;fill-rule:nonzero;fill:rgb(30.588236%,47.843137%,70.980394%);fill-opacity:1;" d="M 7.757812 3.75 L 9.773438 11.476562 L 9.832031 11.699219 L 10.0625 11.699219 L 12.714844 11.707031 L 12.714844 12.300781 L 9.367188 12.300781 L 8.171875 7.722656 L 7.839844 6.449219 L 7.589844 7.738281 L 5.140625 20.25 L 3.125 12.523438 L 3.066406 12.300781 L 0.898438 12.300781 L 0.898438 11.699219 L 3.53125 11.699219 L 4.726562 16.277344 L 5.058594 17.550781 L 5.3125 16.261719 L 7.757812 3.75 M 7.714844 2.402344 L 5.015625 16.203125 L 3.761719 11.398438 L 0.601562 11.398438 L 0.601562 12.601562 L 2.835938 12.601562 L 5.183594 21.597656 L 7.882812 7.796875 L 9.136719 12.601562 L 13.015625 12.601562 L 13.015625 11.410156 L 10.0625 11.402344 Z M 7.714844 2.402344 "/>
<path style=" stroke:none;fill-rule:nonzero;fill:rgb(54.509807%,71.764708%,94.117647%);fill-opacity:1;" d="M 12.898438 13.351562 C 12.15625 13.351562 11.550781 12.746094 11.550781 12 C 11.550781 11.253906 12.15625 10.648438 12.898438 10.648438 C 13.644531 10.648438 14.25 11.253906 14.25 12 C 14.25 12.746094 13.644531 13.351562 12.898438 13.351562 Z M 12.898438 13.351562 "/>
<path style=" stroke:none;fill-rule:nonzero;fill:rgb(30.588236%,47.843137%,70.980394%);fill-opacity:1;" d="M 12.898438 10.800781 C 13.5625 10.800781 14.101562 11.339844 14.101562 12 C 14.101562 12.660156 13.5625 13.199219 12.898438 13.199219 C 12.238281 13.199219 11.699219 12.660156 11.699219 12 C 11.699219 11.339844 12.238281 10.800781 12.898438 10.800781 M 12.898438 10.5 C 12.070312 10.5 11.398438 11.171875 11.398438 12 C 11.398438 12.828125 12.070312 13.5 12.898438 13.5 C 13.726562 13.5 14.398438 12.828125 14.398438 12 C 14.398438 11.171875 13.726562 10.5 12.898438 10.5 Z M 12.898438 10.5 "/>
<path style=" stroke:none;fill-rule:nonzero;fill:rgb(29.019609%,54.901963%,82.745099%);fill-opacity:1;" d="M 13.351562 15.445312 C 15.242188 15.375 16.648438 13.917969 16.648438 12 C 16.648438 10.113281 15.328125 8.746094 13.351562 8.5625 L 13.351562 7.652344 C 15.679688 7.730469 17.550781 9.652344 17.550781 12 C 17.550781 14.46875 15.792969 16.277344 13.351562 16.347656 Z M 13.351562 15.445312 "/>
<path style=" stroke:none;fill-rule:nonzero;fill:rgb(30.588236%,47.843137%,70.980394%);fill-opacity:1;" d="M 13.5 7.808594 C 15.675781 7.964844 17.398438 9.785156 17.398438 12 C 17.398438 14.332031 15.777344 16.050781 13.5 16.191406 L 13.5 15.589844 C 15.402344 15.445312 16.800781 13.953125 16.800781 12 C 16.800781 10.074219 15.484375 8.667969 13.5 8.425781 L 13.5 7.808594 M 13.199219 7.5 L 13.199219 8.699219 C 15.128906 8.824219 16.5 10.121094 16.5 12 C 16.5 13.878906 15.082031 15.300781 13.199219 15.300781 L 13.199219 16.5 C 15.875 16.5 17.699219 14.511719 17.699219 12 C 17.699219 9.488281 15.640625 7.5 13.199219 7.5 Z M 13.199219 7.5 "/>
<path style=" stroke:none;fill-rule:nonzero;fill:rgb(54.509807%,71.764708%,94.117647%);fill-opacity:1;" d="M 13.351562 18.449219 C 16.835938 18.367188 19.648438 15.507812 19.648438 12 C 19.648438 8.492188 16.835938 5.632812 13.351562 5.550781 L 13.351562 4.652344 C 17.332031 4.730469 20.550781 7.996094 20.550781 12 C 20.550781 16.003906 17.332031 19.269531 13.351562 19.347656 Z M 13.351562 18.449219 "/>
<path style=" stroke:none;fill-rule:nonzero;fill:rgb(45.490196%,58.823532%,76.862746%);fill-opacity:1;" d="M 13.5 4.804688 C 17.332031 4.964844 20.398438 8.128906 20.398438 12 C 20.398438 15.871094 17.332031 19.035156 13.5 19.195312 L 13.5 18.59375 C 17 18.4375 19.800781 15.539062 19.800781 12 C 19.800781 8.460938 17 5.5625 13.5 5.40625 L 13.5 4.804688 M 13.199219 4.5 L 13.199219 5.699219 C 16.648438 5.699219 19.5 8.550781 19.5 12 C 19.5 15.449219 16.648438 18.300781 13.199219 18.300781 L 13.199219 19.5 C 17.28125 19.5 20.699219 16.226562 20.699219 12 C 20.699219 7.824219 17.28125 4.5 13.199219 4.5 Z M 13.199219 4.5 "/>
<path style=" stroke:none;fill-rule:nonzero;fill:rgb(76.078433%,90.980393%,100%);fill-opacity:1;" d="M 13.351562 21.148438 C 18.324219 21.066406 22.351562 16.996094 22.351562 12 C 22.351562 7.003906 18.328125 2.929688 13.351562 2.851562 L 13.351562 1.953125 C 18.824219 2.03125 23.25 6.523438 23.25 12.03125 C 23.25 17.507812 18.824219 21.96875 13.351562 22.050781 Z M 13.351562 21.148438 "/>
<path style=" stroke:none;fill-rule:nonzero;fill:rgb(54.509807%,71.764708%,94.117647%);fill-opacity:1;" d="M 13.5 2.105469 C 18.820312 2.265625 23.101562 6.65625 23.101562 12.03125 C 23.101562 14.683594 22.074219 17.164062 20.207031 19.023438 C 18.414062 20.808594 16.042969 21.820312 13.5 21.894531 L 13.5 21.296875 C 18.488281 21.136719 22.5 17.027344 22.5 12 C 22.5 6.972656 18.488281 2.863281 13.5 2.703125 L 13.5 2.105469 M 13.199219 1.800781 L 13.199219 3 C 18.214844 3 22.199219 7.15625 22.199219 12 C 22.199219 16.824219 18.214844 21 13.199219 21 L 13.199219 22.199219 C 18.851562 22.199219 23.398438 17.683594 23.398438 12.03125 C 23.398438 6.378906 18.851562 1.800781 13.199219 1.800781 Z M 13.199219 1.800781 "/>
</g>
</svg>
