<?xml version="1.0" encoding="UTF-8"?>
<svg xmlns="http://www.w3.org/2000/svg" xmlns:xlink="http://www.w3.org/1999/xlink" width="24pt" height="24pt" viewBox="0 0 24 24" version="1.1">
<g id="surface33551">
<path style=" stroke:none;fill-rule:nonzero;fill:rgb(36.862746%,61.176473%,46.27451%);fill-opacity:1;" d="M 11.851562 22.351562 C 6.058594 22.351562 1.351562 17.640625 1.351562 11.851562 C 1.351562 6.058594 6.058594 1.351562 11.851562 1.351562 C 17.640625 1.351562 22.351562 6.058594 22.351562 11.851562 C 22.351562 17.640625 17.640625 22.351562 11.851562 22.351562 Z M 11.851562 22.351562 "/>
<path style=" stroke:none;fill-rule:nonzero;fill:rgb(21.568628%,46.666667%,30.588236%);fill-opacity:1;" d="M 11.851562 1.5 C 17.550781 1.5 22.199219 6.148438 22.199219 11.851562 C 22.199219 17.550781 17.550781 22.199219 11.851562 22.199219 C 6.148438 22.199219 1.5 17.550781 1.5 11.851562 C 1.5 6.148438 6.148438 1.5 11.851562 1.5 M 11.851562 1.199219 C 5.96875 1.199219 1.199219 5.96875 1.199219 11.851562 C 1.199219 17.730469 5.96875 22.5 11.851562 22.5 C 17.730469 22.5 22.5 17.730469 22.5 11.851562 C 22.5 5.96875 17.730469 1.199219 11.851562 1.199219 Z M 11.851562 1.199219 "/>
<path style=" stroke:none;fill-rule:nonzero;fill:rgb(60.000002%,78.823531%,61.960787%);fill-opacity:1;" d="M 11.851562 4.5 C 15.898438 4.5 19.199219 7.800781 19.199219 11.851562 C 19.199219 15.898438 15.898438 19.199219 11.851562 19.199219 C 7.800781 19.199219 4.5 15.898438 4.5 11.851562 C 4.5 7.800781 7.800781 4.5 11.851562 4.5 M 11.851562 4.199219 C 7.621094 4.199219 4.199219 7.621094 4.199219 11.851562 C 4.199219 16.078125 7.621094 19.5 11.851562 19.5 C 16.078125 19.5 19.5 16.078125 19.5 11.851562 C 19.5 7.621094 16.078125 4.199219 11.851562 4.199219 Z M 11.851562 4.199219 "/>
<path style=" stroke:none;fill-rule:nonzero;fill:rgb(60.000002%,78.823531%,61.960787%);fill-opacity:1;" d="M 11.851562 7.800781 C 14.070312 7.800781 15.898438 9.628906 15.898438 11.851562 C 15.898438 14.070312 14.070312 15.898438 11.851562 15.898438 C 9.628906 15.898438 7.800781 14.070312 7.800781 11.851562 C 7.800781 9.628906 9.628906 7.800781 11.851562 7.800781 M 11.851562 7.5 C 9.449219 7.5 7.5 9.449219 7.5 11.851562 C 7.5 14.25 9.449219 16.199219 11.851562 16.199219 C 14.25 16.199219 16.199219 14.25 16.199219 11.851562 C 16.199219 9.449219 14.25 7.5 11.851562 7.5 Z M 11.851562 7.5 "/>
<path style=" stroke:none;fill-rule:nonzero;fill:rgb(60.000002%,78.823531%,61.960787%);fill-opacity:1;" d="M 1.5 11.699219 L 22.199219 11.699219 L 22.199219 12 L 1.5 12 Z M 1.5 11.699219 "/>
<path style=" stroke:none;fill-rule:nonzero;fill:rgb(60.000002%,78.823531%,61.960787%);fill-opacity:1;" d="M 11.699219 1.5 L 12 1.5 L 12 22.199219 L 11.699219 22.199219 Z M 11.699219 1.5 "/>
<path style=" stroke:none;fill-rule:nonzero;fill:rgb(88.235295%,93.725491%,88.627452%);fill-opacity:1;" d="M 11.851562 10.5 C 11.105469 10.5 10.5 11.105469 10.5 11.851562 C 10.5 12.59375 11.105469 13.199219 11.851562 13.199219 C 12.59375 13.199219 13.199219 12.59375 13.199219 11.851562 C 13.199219 11.105469 12.59375 10.5 11.851562 10.5 Z M 6.75 5.398438 C 6.171875 5.398438 5.699219 5.871094 5.699219 6.449219 C 5.699219 7.03125 6.171875 7.5 6.75 7.5 C 7.328125 7.5 7.800781 7.03125 7.800781 6.449219 C 7.800781 5.871094 7.328125 5.398438 6.75 5.398438 Z M 6.75 16.199219 C 6.171875 16.199219 5.699219 16.671875 5.699219 17.25 C 5.699219 17.828125 6.171875 18.300781 6.75 18.300781 C 7.328125 18.300781 7.800781 17.828125 7.800781 17.25 C 7.800781 16.671875 7.328125 16.199219 6.75 16.199219 Z M 17.851562 15.601562 C 17.4375 15.601562 17.101562 15.9375 17.101562 16.351562 C 17.101562 16.765625 17.4375 17.101562 17.851562 17.101562 C 18.265625 17.101562 18.601562 16.765625 18.601562 16.351562 C 18.601562 15.9375 18.265625 15.601562 17.851562 15.601562 Z M 17.851562 15.601562 "/>
<path style=" stroke:none;fill-rule:nonzero;fill:rgb(88.235295%,93.725491%,88.627452%);fill-opacity:1;" d="M 10.972656 12.292969 L 18.949219 4.316406 L 19.371094 4.742188 L 11.398438 12.71875 Z M 10.972656 12.292969 "/>
</g>
</svg>
