<?xml version="1.0" encoding="UTF-8"?>
<svg xmlns="http://www.w3.org/2000/svg" xmlns:xlink="http://www.w3.org/1999/xlink" width="24pt" height="24pt" viewBox="0 0 24 24" version="1.1">
<g id="surface30724">
<path style=" stroke:none;fill-rule:nonzero;fill:rgb(100%,93.333334%,63.921571%);fill-opacity:1;" d="M 9.75 22.648438 L 9.75 13.949219 L 14.25 13.949219 L 14.25 22.648438 Z M 12 19.351562 C 11.585938 19.351562 11.25 19.6875 11.25 20.101562 C 11.25 20.515625 11.585938 20.851562 12 20.851562 C 12.414062 20.851562 12.75 20.515625 12.75 20.101562 C 12.75 19.6875 12.414062 19.351562 12 19.351562 Z M 12 19.351562 "/>
<path style=" stroke:none;fill-rule:nonzero;fill:rgb(96.078432%,76.078433%,46.27451%);fill-opacity:1;" d="M 14.101562 14.101562 L 14.101562 22.5 L 9.898438 22.5 L 9.898438 14.101562 L 14.101562 14.101562 M 12 21 C 12.496094 21 12.898438 20.597656 12.898438 20.101562 C 12.898438 19.605469 12.496094 19.199219 12 19.199219 C 11.503906 19.199219 11.101562 19.605469 11.101562 20.101562 C 11.101562 20.597656 11.503906 21 12 21 M 14.398438 13.800781 L 9.601562 13.800781 L 9.601562 22.800781 L 14.398438 22.800781 Z M 12 20.699219 C 11.667969 20.699219 11.398438 20.429688 11.398438 20.101562 C 11.398438 19.769531 11.667969 19.5 12 19.5 C 12.332031 19.5 12.601562 19.769531 12.601562 20.101562 C 12.601562 20.429688 12.332031 20.699219 12 20.699219 Z M 12 20.699219 "/>
<path style=" stroke:none;fill-rule:nonzero;fill:rgb(100%,93.333334%,63.921571%);fill-opacity:1;" d="M 5.851562 13.949219 L 7.351562 13.949219 L 7.351562 22.648438 L 5.851562 22.648438 Z M 5.851562 13.949219 "/>
<path style=" stroke:none;fill-rule:nonzero;fill:rgb(96.078432%,76.078433%,46.27451%);fill-opacity:1;" d="M 7.199219 14.101562 L 7.199219 22.5 L 6 22.5 L 6 14.101562 L 7.199219 14.101562 M 7.5 13.800781 L 5.699219 13.800781 L 5.699219 22.800781 L 7.5 22.800781 Z M 7.5 13.800781 "/>
<path style=" stroke:none;fill-rule:nonzero;fill:rgb(100%,93.333334%,63.921571%);fill-opacity:1;" d="M 16.648438 13.949219 L 18.148438 13.949219 L 18.148438 22.648438 L 16.648438 22.648438 Z M 16.648438 13.949219 "/>
<path style=" stroke:none;fill-rule:nonzero;fill:rgb(96.078432%,76.078433%,46.27451%);fill-opacity:1;" d="M 18 14.101562 L 18 22.5 L 16.800781 22.5 L 16.800781 14.101562 L 18 14.101562 M 18.300781 13.800781 L 16.5 13.800781 L 16.5 22.800781 L 18.300781 22.800781 Z M 18.300781 13.800781 "/>
<path style=" stroke:none;fill-rule:nonzero;fill:rgb(54.509807%,71.764708%,94.117647%);fill-opacity:1;" d="M 3.863281 14.25 C 3.304688 14.25 2.851562 13.800781 2.851562 13.253906 L 2.851562 2.347656 C 2.851562 1.796875 3.304688 1.351562 3.863281 1.351562 L 20.136719 1.351562 C 20.695312 1.351562 21.148438 1.796875 21.148438 2.347656 L 21.148438 13.253906 C 21.148438 13.800781 20.695312 14.25 20.136719 14.25 Z M 3.863281 14.25 "/>
<path style=" stroke:none;fill-rule:nonzero;fill:rgb(30.588236%,47.843137%,70.980394%);fill-opacity:1;" d="M 20.136719 1.5 C 20.613281 1.5 21 1.878906 21 2.347656 L 21 13.253906 C 21 13.71875 20.613281 14.101562 20.136719 14.101562 L 3.863281 14.101562 C 3.386719 14.101562 3 13.71875 3 13.253906 L 3 2.347656 C 3 1.878906 3.386719 1.5 3.863281 1.5 L 20.136719 1.5 M 20.136719 1.199219 L 3.863281 1.199219 C 3.222656 1.199219 2.699219 1.714844 2.699219 2.347656 L 2.699219 13.253906 C 2.699219 13.886719 3.21875 14.398438 3.863281 14.398438 L 20.136719 14.398438 C 20.78125 14.398438 21.300781 13.886719 21.300781 13.253906 L 21.300781 2.347656 C 21.300781 1.714844 20.78125 1.199219 20.136719 1.199219 Z M 20.136719 1.199219 "/>
</g>
</svg>
