<?xml version="1.0" encoding="UTF-8"?>
<svg xmlns="http://www.w3.org/2000/svg" xmlns:xlink="http://www.w3.org/1999/xlink" width="24pt" height="24pt" viewBox="0 0 24 24" version="1.1">
<g id="surface30759">
<path style=" stroke:none;fill-rule:nonzero;fill:rgb(100%,93.333334%,63.921571%);fill-opacity:1;" d="M 22.859375 2.140625 L 2.113281 22.886719 L 1.085938 21.859375 L 21.832031 1.113281 Z M 22.859375 2.140625 "/>
<path style=" stroke:none;fill-rule:nonzero;fill:rgb(96.078432%,76.078433%,46.27451%);fill-opacity:1;" d="M 21.832031 1.324219 L 22.648438 2.140625 L 2.113281 22.675781 L 1.296875 21.859375 L 21.832031 1.324219 M 21.832031 0.898438 L 0.871094 21.859375 L 2.113281 23.101562 L 23.070312 2.140625 Z M 21.832031 0.898438 "/>
<path style=" stroke:none;fill-rule:nonzero;fill:rgb(60.000002%,78.823531%,61.960787%);fill-opacity:1;" d="M 8.15625 21.046875 C 7.730469 21.046875 7.332031 20.882812 7.03125 20.582031 L 3.390625 16.941406 C 3.089844 16.640625 2.925781 16.242188 2.925781 15.816406 C 2.925781 15.390625 3.089844 14.992188 3.390625 14.691406 L 5.1875 12.898438 L 7.453125 12.132812 L 12.101562 7.484375 L 12.871094 5.214844 L 14.664062 3.417969 C 14.964844 3.117188 15.363281 2.953125 15.789062 2.953125 C 16.214844 2.953125 16.613281 3.117188 16.914062 3.417969 L 20.554688 7.058594 C 20.855469 7.359375 21.019531 7.757812 21.019531 8.183594 C 21.019531 8.609375 20.855469 9.007812 20.554688 9.308594 L 18.789062 11.101562 L 16.488281 11.871094 L 11.839844 16.515625 L 11.074219 18.816406 L 9.28125 20.582031 C 8.980469 20.882812 8.578125 21.046875 8.15625 21.046875 Z M 8.15625 21.046875 "/>
<path style=" stroke:none;fill-rule:nonzero;fill:rgb(36.862746%,61.176473%,46.27451%);fill-opacity:1;" d="M 15.789062 3.101562 C 16.171875 3.101562 16.535156 3.253906 16.808594 3.523438 L 20.449219 7.164062 C 20.71875 7.4375 20.871094 7.796875 20.871094 8.183594 C 20.871094 8.566406 20.71875 8.929688 20.445312 9.203125 L 18.707031 10.972656 L 16.476562 11.714844 L 16.410156 11.738281 L 11.710938 16.4375 L 11.6875 16.503906 L 10.945312 18.734375 L 9.171875 20.476562 C 8.902344 20.746094 8.539062 20.898438 8.15625 20.898438 C 7.769531 20.898438 7.410156 20.746094 7.136719 20.476562 L 3.496094 16.835938 C 2.933594 16.273438 2.933594 15.359375 3.496094 14.796875 L 5.265625 13.027344 L 7.46875 12.285156 L 7.535156 12.261719 L 12.234375 7.5625 L 12.257812 7.496094 L 13 5.296875 L 14.769531 3.523438 C 15.042969 3.253906 15.40625 3.101562 15.789062 3.101562 M 15.789062 2.804688 C 15.34375 2.804688 14.898438 2.972656 14.558594 3.3125 L 12.738281 5.132812 L 11.972656 7.402344 L 7.375 12 L 5.105469 12.765625 L 3.285156 14.585938 C 2.605469 15.265625 2.605469 16.367188 3.285156 17.046875 L 6.925781 20.6875 C 7.265625 21.027344 7.710938 21.199219 8.15625 21.199219 C 8.601562 21.199219 9.046875 21.027344 9.386719 20.6875 L 11.207031 18.898438 L 11.972656 16.597656 L 16.570312 12 L 18.871094 11.234375 L 20.660156 9.414062 C 21.339844 8.734375 21.339844 7.632812 20.660156 6.953125 L 17.019531 3.3125 C 16.679688 2.972656 16.234375 2.804688 15.789062 2.804688 Z M 15.789062 2.804688 "/>
<path style=" stroke:none;fill-rule:nonzero;fill:rgb(60.000002%,78.823531%,61.960787%);fill-opacity:1;" d="M 8.140625 21.148438 C 7.710938 21.148438 7.304688 20.980469 7.003906 20.679688 L 3.320312 16.996094 C 2.695312 16.371094 2.695312 15.347656 3.320312 14.722656 L 5.136719 12.90625 L 7.429688 12.128906 L 12.128906 7.429688 L 12.90625 5.136719 L 14.722656 3.320312 C 15.027344 3.015625 15.429688 2.851562 15.859375 2.851562 C 16.289062 2.851562 16.695312 3.019531 16.996094 3.320312 L 20.679688 7.003906 C 21.304688 7.628906 21.304688 8.652344 20.679688 9.277344 L 18.894531 11.09375 L 16.570312 11.867188 L 11.867188 16.570312 L 11.09375 18.894531 L 9.28125 20.675781 C 8.972656 20.980469 8.570312 21.148438 8.140625 21.148438 Z M 8.140625 21.148438 "/>
<path style=" stroke:none;fill-rule:nonzero;fill:rgb(36.862746%,61.176473%,46.27451%);fill-opacity:1;" d="M 15.859375 3 C 16.25 3 16.617188 3.152344 16.890625 3.425781 L 20.574219 7.109375 C 21.140625 7.675781 21.140625 8.601562 20.570312 9.175781 L 18.8125 10.964844 L 16.554688 11.714844 L 16.488281 11.738281 L 11.738281 16.488281 L 11.714844 16.554688 L 10.964844 18.8125 L 9.171875 20.574219 C 8.898438 20.847656 8.53125 21 8.140625 21 C 7.75 21 7.382812 20.847656 7.109375 20.574219 L 3.425781 16.890625 C 2.859375 16.324219 2.859375 15.398438 3.425781 14.828125 L 5.21875 13.035156 L 7.445312 12.285156 L 7.511719 12.261719 L 12.261719 7.511719 L 12.285156 7.445312 L 13.035156 5.21875 L 14.828125 3.429688 C 15.101562 3.152344 15.46875 3 15.859375 3 M 15.859375 2.699219 C 15.410156 2.699219 14.957031 2.871094 14.617188 3.214844 L 12.773438 5.054688 L 12 7.351562 L 7.351562 12 L 5.054688 12.773438 L 3.214844 14.617188 C 2.527344 15.300781 2.527344 16.417969 3.214844 17.105469 L 6.894531 20.785156 C 7.238281 21.128906 7.691406 21.300781 8.140625 21.300781 C 8.589844 21.300781 9.042969 21.128906 9.382812 20.785156 L 11.226562 18.976562 L 12 16.648438 L 16.648438 12 L 18.976562 11.226562 L 20.785156 9.382812 C 21.472656 8.699219 21.472656 7.582031 20.785156 6.894531 L 17.105469 3.214844 C 16.761719 2.871094 16.308594 2.699219 15.859375 2.699219 Z M 15.859375 2.699219 "/>
<path style=" stroke:none;fill-rule:nonzero;fill:rgb(51.764709%,71.764708%,53.333336%);fill-opacity:1;" d="M 3.398438 14.828125 C 2.832031 15.398438 2.832031 16.324219 3.398438 16.890625 L 7.082031 20.574219 C 7.355469 20.847656 7.722656 21 8.113281 21 C 8.503906 21 8.867188 20.847656 9.144531 20.574219 L 10.933594 18.8125 L 11.03125 18.53125 L 5.449219 12.949219 L 5.191406 13.035156 Z M 3.398438 14.828125 "/>
<path style=" stroke:none;fill-rule:nonzero;fill:rgb(72.941178%,87.843138%,74.117649%);fill-opacity:1;" d="M 20.574219 7.109375 L 16.890625 3.425781 C 16.617188 3.152344 16.25 3 15.859375 3 C 15.46875 3 15.101562 3.152344 14.828125 3.425781 L 13.042969 5.214844 L 18.796875 10.96875 L 18.8125 10.964844 L 20.570312 9.175781 C 21.140625 8.601562 21.140625 7.675781 20.574219 7.109375 Z M 20.574219 7.109375 "/>
<path style=" stroke:none;fill-rule:nonzero;fill:rgb(51.764709%,71.764708%,53.333336%);fill-opacity:1;" d="M 13.042969 5.214844 L 13.035156 5.21875 L 12.289062 7.425781 L 12.289062 7.480469 L 16.503906 11.714844 L 16.527344 11.726562 L 16.554688 11.714844 L 18.796875 10.96875 Z M 13.042969 5.214844 "/>
<path style=" stroke:none;fill-rule:nonzero;fill:rgb(72.941178%,87.843138%,74.117649%);fill-opacity:1;" d="M 11.703125 16.503906 L 7.46875 12.269531 L 7.417969 12.285156 L 5.449219 12.949219 L 11.03125 18.53125 L 11.6875 16.554688 Z M 11.703125 16.503906 "/>
</g>
</svg>
