<?xml version="1.0" encoding="UTF-8"?>
<svg xmlns="http://www.w3.org/2000/svg" xmlns:xlink="http://www.w3.org/1999/xlink" width="24pt" height="24pt" viewBox="0 0 24 24" version="1.1">
<g id="surface4690">
<path style=" stroke:none;fill-rule:nonzero;fill:rgb(54.509807%,71.764708%,94.117647%);fill-opacity:1;" d="M 14.25 1.28125 L 14.25 4.0625 C 17.710938 5.042969 20.25 8.222656 20.25 12 C 20.25 16.554688 16.554688 20.25 12 20.25 C 7.445312 20.25 3.75 16.554688 3.75 12 C 3.75 9.03125 5.324219 6.433594 7.679688 4.980469 L 9.75 7.050781 L 9.75 1.351562 L 4.050781 1.351562 L 5.726562 3.027344 C 2.898438 5.007812 1.050781 8.285156 1.050781 12 C 1.050781 18.046875 5.953125 22.949219 12 22.949219 C 18.046875 22.949219 22.949219 18.046875 22.949219 12 C 22.949219 6.722656 19.21875 2.320312 14.25 1.28125 Z M 14.25 1.28125 "/>
<path style=" stroke:none;fill-rule:nonzero;fill:rgb(30.588236%,47.843137%,70.980394%);fill-opacity:1;" d="M 12 23.09375 C 5.882812 23.09375 0.90625 18.117188 0.90625 12 C 0.90625 8.441406 2.621094 5.09375 5.503906 3.007812 L 3.699219 1.207031 L 9.894531 1.207031 L 9.894531 7.398438 L 7.660156 5.164062 C 5.300781 6.664062 3.894531 9.210938 3.894531 12 C 3.894531 16.46875 7.53125 20.105469 12 20.105469 C 16.46875 20.105469 20.105469 16.46875 20.105469 12 C 20.105469 8.390625 17.679688 5.183594 14.210938 4.203125 L 14.105469 4.171875 L 14.105469 1.105469 L 14.28125 1.140625 C 19.386719 2.207031 23.09375 6.773438 23.09375 12 C 23.09375 18.117188 18.117188 23.09375 12 23.09375 Z M 4.398438 1.496094 L 5.953125 3.046875 L 5.808594 3.144531 C 2.921875 5.167969 1.195312 8.480469 1.195312 12 C 1.195312 17.957031 6.042969 22.804688 12 22.804688 C 17.957031 22.804688 22.804688 17.957031 22.804688 12 C 22.804688 6.972656 19.277344 2.566406 14.394531 1.460938 L 14.394531 3.953125 C 17.933594 5.007812 20.394531 8.300781 20.394531 12 C 20.394531 16.628906 16.628906 20.394531 12 20.394531 C 7.371094 20.394531 3.605469 16.628906 3.605469 12 C 3.605469 9.070312 5.101562 6.398438 7.605469 4.855469 L 7.703125 4.796875 L 9.605469 6.699219 L 9.605469 1.496094 Z M 4.398438 1.496094 "/>
</g>
</svg>
