<?xml version="1.0" encoding="UTF-8"?>
<svg xmlns="http://www.w3.org/2000/svg" xmlns:xlink="http://www.w3.org/1999/xlink" width="24pt" height="24pt" viewBox="0 0 24 24" version="1.1">
<g id="surface31233">
<path style=" stroke:none;fill-rule:nonzero;fill:rgb(69.01961%,75.686276%,83.137256%);fill-opacity:1;" d="M 13.871094 4.363281 L 18.3125 1.371094 L 22.003906 3.074219 L 21.21875 4.90625 L 18.28125 3.730469 L 14.890625 6.101562 Z M 13.871094 4.363281 "/>
<path style=" stroke:none;fill-rule:nonzero;fill:rgb(40.000001%,47.450981%,56.078434%);fill-opacity:1;" d="M 18.328125 1.542969 L 21.808594 3.148438 L 21.140625 4.710938 L 18.410156 3.621094 L 18.261719 3.5625 L 18.128906 3.652344 L 14.9375 5.882812 L 14.074219 4.410156 L 18.328125 1.542969 M 18.300781 1.199219 L 13.671875 4.316406 L 14.84375 6.316406 L 18.300781 3.898438 L 21.300781 5.101562 L 22.199219 3 Z M 18.300781 1.199219 "/>
<path style=" stroke:none;fill-rule:nonzero;fill:rgb(69.01961%,75.686276%,83.137256%);fill-opacity:1;" d="M 13.875 6.5625 L 14.890625 4.824219 L 18.277344 7.0625 L 21.214844 6.183594 L 22 8.015625 L 18.316406 9.433594 Z M 13.875 6.5625 "/>
<path style=" stroke:none;fill-rule:nonzero;fill:rgb(40.000001%,47.450981%,56.078434%);fill-opacity:1;" d="M 14.941406 5.035156 L 18.132812 7.148438 L 18.25 7.226562 L 18.386719 7.1875 L 21.128906 6.363281 L 21.800781 7.933594 L 18.335938 9.265625 L 14.074219 6.511719 L 14.941406 5.035156 M 14.84375 4.609375 L 13.671875 6.609375 L 18.300781 9.601562 L 22.199219 8.101562 L 21.300781 6 L 18.300781 6.898438 Z M 14.84375 4.609375 "/>
<path style=" stroke:none;fill-rule:nonzero;fill:rgb(69.01961%,75.686276%,83.137256%);fill-opacity:1;" d="M 7.050781 3.75 L 14.550781 3.75 L 14.550781 7.050781 L 7.050781 7.050781 Z M 7.050781 3.75 "/>
<path style=" stroke:none;fill-rule:nonzero;fill:rgb(40.000001%,47.450981%,56.078434%);fill-opacity:1;" d="M 14.398438 3.898438 L 14.398438 6.898438 L 7.199219 6.898438 L 7.199219 3.898438 L 14.398438 3.898438 M 14.699219 3.601562 L 6.898438 3.601562 L 6.898438 7.199219 L 14.699219 7.199219 Z M 14.699219 3.601562 "/>
<path style=" stroke:none;fill-rule:nonzero;fill:rgb(69.01961%,75.686276%,83.137256%);fill-opacity:1;" d="M 4.347656 7.839844 L 7.382812 6.546875 L 12.101562 17.320312 L 9.066406 18.613281 Z M 4.347656 7.839844 "/>
<path style=" stroke:none;fill-rule:nonzero;fill:rgb(40.000001%,47.450981%,56.078434%);fill-opacity:1;" d="M 7.304688 6.746094 L 11.902344 17.242188 L 9.140625 18.417969 L 4.542969 7.917969 L 7.304688 6.746094 M 7.460938 6.351562 L 4.148438 7.761719 L 8.988281 18.808594 L 12.300781 17.398438 Z M 7.460938 6.351562 "/>
<path style=" stroke:none;fill-rule:nonzero;fill:rgb(100%,93.333334%,63.921571%);fill-opacity:1;" d="M 5.101562 8.550781 C 3.363281 8.550781 1.949219 7.136719 1.949219 5.398438 C 1.949219 3.664062 3.363281 2.25 5.101562 2.25 C 6.835938 2.25 8.25 3.664062 8.25 5.398438 C 8.25 7.136719 6.835938 8.550781 5.101562 8.550781 Z M 5.101562 8.550781 "/>
<path style=" stroke:none;fill-rule:nonzero;fill:rgb(72.941178%,60.784316%,28.235295%);fill-opacity:1;" d="M 5.101562 2.398438 C 6.753906 2.398438 8.101562 3.746094 8.101562 5.398438 C 8.101562 7.054688 6.753906 8.398438 5.101562 8.398438 C 3.445312 8.398438 2.101562 7.054688 2.101562 5.398438 C 2.101562 3.746094 3.445312 2.398438 5.101562 2.398438 M 5.101562 2.101562 C 3.277344 2.101562 1.800781 3.578125 1.800781 5.398438 C 1.800781 7.222656 3.277344 8.699219 5.101562 8.699219 C 6.921875 8.699219 8.398438 7.222656 8.398438 5.398438 C 8.398438 3.578125 6.921875 2.101562 5.101562 2.101562 Z M 5.101562 2.101562 "/>
<path style=" stroke:none;fill-rule:nonzero;fill:rgb(100%,93.333334%,63.921571%);fill-opacity:1;" d="M 14.28125 7.648438 C 13.765625 7.648438 13.351562 7.234375 13.351562 6.722656 L 13.351562 4.078125 C 13.351562 3.566406 13.765625 3.148438 14.28125 3.148438 L 15.75 3.148438 L 15.75 7.648438 Z M 14.28125 7.648438 "/>
<path style=" stroke:none;fill-rule:nonzero;fill:rgb(72.941178%,60.784316%,28.235295%);fill-opacity:1;" d="M 15.601562 3.300781 L 15.601562 7.5 L 14.28125 7.5 C 13.851562 7.5 13.5 7.152344 13.5 6.722656 L 13.5 4.078125 C 13.5 3.648438 13.851562 3.300781 14.28125 3.300781 L 15.601562 3.300781 M 15.898438 3 L 14.28125 3 C 13.683594 3 13.199219 3.480469 13.199219 4.078125 L 13.199219 6.722656 C 13.199219 7.316406 13.683594 7.800781 14.28125 7.800781 L 15.898438 7.800781 Z M 15.898438 3 "/>
<path style=" stroke:none;fill-rule:nonzero;fill:rgb(100%,93.333334%,63.921571%);fill-opacity:1;" d="M 5.058594 20.550781 L 7.835938 15.648438 C 8.007812 15.339844 8.335938 15.148438 8.6875 15.148438 L 11.113281 15.148438 C 11.464844 15.148438 11.789062 15.339844 11.964844 15.648438 L 14.742188 20.550781 Z M 5.058594 20.550781 "/>
<path style=" stroke:none;fill-rule:nonzero;fill:rgb(72.941178%,60.784316%,28.235295%);fill-opacity:1;" d="M 11.113281 15.300781 C 11.410156 15.300781 11.6875 15.460938 11.835938 15.722656 L 14.484375 20.398438 L 5.316406 20.398438 L 7.964844 15.722656 C 8.113281 15.460938 8.390625 15.300781 8.6875 15.300781 L 11.113281 15.300781 M 11.113281 15 L 8.6875 15 C 8.28125 15 7.90625 15.21875 7.703125 15.574219 L 4.800781 20.699219 L 15 20.699219 L 12.09375 15.574219 C 11.894531 15.21875 11.519531 15 11.113281 15 Z M 11.113281 15 "/>
<path style=" stroke:none;fill-rule:nonzero;fill:rgb(69.01961%,75.686276%,83.137256%);fill-opacity:1;" d="M 5.101562 6.449219 C 4.519531 6.449219 4.050781 5.980469 4.050781 5.398438 C 4.050781 4.820312 4.519531 4.351562 5.101562 4.351562 C 5.679688 4.351562 6.148438 4.820312 6.148438 5.398438 C 6.148438 5.980469 5.679688 6.449219 5.101562 6.449219 Z M 5.101562 6.449219 "/>
<path style=" stroke:none;fill-rule:nonzero;fill:rgb(40.000001%,47.450981%,56.078434%);fill-opacity:1;" d="M 5.101562 4.5 C 5.597656 4.5 6 4.902344 6 5.398438 C 6 5.894531 5.597656 6.300781 5.101562 6.300781 C 4.605469 6.300781 4.199219 5.894531 4.199219 5.398438 C 4.199219 4.902344 4.605469 4.5 5.101562 4.5 M 5.101562 4.199219 C 4.4375 4.199219 3.898438 4.738281 3.898438 5.398438 C 3.898438 6.0625 4.4375 6.601562 5.101562 6.601562 C 5.761719 6.601562 6.300781 6.0625 6.300781 5.398438 C 6.300781 4.738281 5.761719 4.199219 5.101562 4.199219 Z M 5.101562 4.199219 "/>
<path style=" stroke:none;fill-rule:nonzero;fill:rgb(69.01961%,75.686276%,83.137256%);fill-opacity:1;" d="M 9.898438 18.75 C 9.320312 18.75 8.847656 18.277344 8.847656 17.699219 C 8.847656 17.121094 9.320312 16.648438 9.898438 16.648438 C 10.480469 16.648438 10.949219 17.121094 10.949219 17.699219 C 10.949219 18.277344 10.480469 18.75 9.898438 18.75 Z M 9.898438 18.75 "/>
<path style=" stroke:none;fill-rule:nonzero;fill:rgb(40.000001%,47.450981%,56.078434%);fill-opacity:1;" d="M 9.898438 16.800781 C 10.394531 16.800781 10.800781 17.203125 10.800781 17.699219 C 10.800781 18.195312 10.394531 18.601562 9.898438 18.601562 C 9.402344 18.601562 9 18.195312 9 17.699219 C 9 17.203125 9.402344 16.800781 9.898438 16.800781 M 9.898438 16.5 C 9.238281 16.5 8.699219 17.039062 8.699219 17.699219 C 8.699219 18.363281 9.238281 18.898438 9.898438 18.898438 C 10.5625 18.898438 11.101562 18.363281 11.101562 17.699219 C 11.101562 17.039062 10.5625 16.5 9.898438 16.5 Z M 9.898438 16.5 "/>
<path style=" stroke:none;fill-rule:nonzero;fill:rgb(69.01961%,75.686276%,83.137256%);fill-opacity:1;" d="M 3.75 22.648438 L 3.75 21.601562 C 3.75 20.855469 4.355469 20.25 5.101562 20.25 L 18.898438 20.25 C 19.644531 20.25 20.25 20.855469 20.25 21.601562 L 20.25 22.648438 Z M 3.75 22.648438 "/>
<path style=" stroke:none;fill-rule:nonzero;fill:rgb(40.000001%,47.450981%,56.078434%);fill-opacity:1;" d="M 18.898438 20.398438 C 19.5625 20.398438 20.101562 20.9375 20.101562 21.601562 L 20.101562 22.5 L 3.898438 22.5 L 3.898438 21.601562 C 3.898438 20.9375 4.4375 20.398438 5.101562 20.398438 L 18.898438 20.398438 M 18.898438 20.101562 L 5.101562 20.101562 C 4.273438 20.101562 3.601562 20.773438 3.601562 21.601562 L 3.601562 22.800781 L 20.398438 22.800781 L 20.398438 21.601562 C 20.398438 20.773438 19.726562 20.101562 18.898438 20.101562 Z M 18.898438 20.101562 "/>
</g>
</svg>
