<?xml version="1.0" encoding="UTF-8"?>
<svg xmlns="http://www.w3.org/2000/svg" xmlns:xlink="http://www.w3.org/1999/xlink" width="24pt" height="24pt" viewBox="0 0 24 24" version="1.1">
<g id="surface36108">
<path style=" stroke:none;fill-rule:nonzero;fill:rgb(40.000001%,47.450981%,56.078434%);fill-opacity:1;" d="M 9.628906 5.285156 L 9.839844 5.070312 L 18.941406 14.171875 L 18.726562 14.382812 Z M 9.628906 5.285156 "/>
<path style=" stroke:none;fill-rule:nonzero;fill:rgb(86.274511%,83.529413%,94.901961%);fill-opacity:1;" d="M 5.96875 6.328125 L 10.800781 1.410156 L 13.890625 4.5 L 9 9.390625 Z M 5.96875 6.328125 "/>
<path style=" stroke:none;fill-rule:nonzero;fill:rgb(54.509807%,45.882353%,63.137257%);fill-opacity:1;" d="M 10.800781 1.621094 L 13.679688 4.5 L 9 9.179688 L 6.179688 6.328125 L 10.800781 1.621094 M 10.800781 1.199219 L 5.761719 6.328125 L 9 9.601562 L 14.101562 4.5 Z M 10.800781 1.199219 "/>
<path style=" stroke:none;fill-rule:nonzero;fill:rgb(86.274511%,83.529413%,94.901961%);fill-opacity:1;" d="M 14.609375 15 L 19.5 10.109375 L 22.589844 13.199219 L 17.671875 18.03125 Z M 14.609375 15 "/>
<path style=" stroke:none;fill-rule:nonzero;fill:rgb(54.509807%,45.882353%,63.137257%);fill-opacity:1;" d="M 19.5 10.320312 L 22.378906 13.199219 L 17.671875 17.820312 L 14.820312 15 L 19.5 10.320312 M 19.5 9.898438 L 14.398438 15 L 17.671875 18.238281 L 22.800781 13.199219 Z M 19.5 9.898438 "/>
<path style=" stroke:none;fill-rule:nonzero;fill:rgb(40.000001%,47.450981%,56.078434%);fill-opacity:1;" d="M 9.691406 13.890625 L 13.914062 9.667969 L 14.339844 10.09375 L 10.117188 14.316406 Z M 9.691406 13.890625 "/>
<path style=" stroke:none;fill-rule:nonzero;fill:rgb(63.921571%,71.764708%,80.000001%);fill-opacity:1;" d="M 14.28125 13.050781 C 14.128906 13.050781 13.980469 12.988281 13.859375 12.871094 L 11.160156 10.171875 C 11.039062 10.050781 10.980469 9.898438 10.980469 9.75 C 10.980469 9.601562 11.039062 9.449219 11.160156 9.328125 L 15 5.429688 C 15.121094 5.308594 15.269531 5.25 15.421875 5.25 C 15.570312 5.25 15.71875 5.308594 15.839844 5.429688 L 18.539062 8.128906 C 18.660156 8.25 18.71875 8.398438 18.71875 8.550781 C 18.71875 8.699219 18.660156 8.851562 18.539062 8.96875 L 14.699219 12.871094 C 14.578125 12.988281 14.429688 13.050781 14.28125 13.050781 Z M 14.28125 13.050781 "/>
<path style=" stroke:none;fill-rule:nonzero;fill:rgb(40.000001%,47.450981%,56.078434%);fill-opacity:1;" d="M 15.421875 5.398438 C 15.539062 5.398438 15.660156 5.460938 15.75 5.519531 L 18.449219 8.21875 C 18.628906 8.398438 18.628906 8.699219 18.449219 8.851562 L 14.578125 12.78125 C 14.488281 12.839844 14.398438 12.898438 14.28125 12.898438 C 14.160156 12.898438 14.039062 12.839844 13.949219 12.78125 L 11.25 10.078125 C 11.070312 9.898438 11.070312 9.601562 11.25 9.449219 L 15.121094 5.578125 C 15.210938 5.460938 15.300781 5.398438 15.421875 5.398438 M 15.421875 5.101562 C 15.238281 5.101562 15.03125 5.160156 14.878906 5.308594 L 11.011719 9.210938 C 10.710938 9.511719 10.710938 9.988281 11.011719 10.289062 L 13.710938 12.988281 C 13.859375 13.140625 14.039062 13.199219 14.25 13.199219 C 14.460938 13.199219 14.640625 13.140625 14.789062 12.988281 L 18.660156 9.121094 C 18.960938 8.820312 18.960938 8.339844 18.660156 8.039062 L 15.960938 5.339844 C 15.808594 5.160156 15.628906 5.101562 15.421875 5.101562 Z M 15.421875 5.101562 "/>
<path style=" stroke:none;fill-rule:nonzero;fill:rgb(88.235295%,92.156863%,94.901961%);fill-opacity:1;" d="M 8.339844 10.828125 C 8.640625 10.679688 9.269531 10.441406 10.050781 10.441406 C 10.980469 10.441406 11.789062 10.800781 12.511719 11.488281 C 14.191406 13.171875 13.46875 15.058594 13.171875 15.628906 Z M 8.339844 10.828125 "/>
<path style=" stroke:none;fill-rule:nonzero;fill:rgb(40.000001%,47.450981%,56.078434%);fill-opacity:1;" d="M 10.050781 10.589844 C 10.921875 10.589844 11.730469 10.921875 12.390625 11.609375 C 13.828125 13.050781 13.410156 14.699219 13.109375 15.390625 L 8.609375 10.890625 C 8.941406 10.738281 9.449219 10.589844 10.050781 10.589844 M 10.050781 10.289062 C 8.941406 10.289062 8.101562 10.800781 8.101562 10.800781 L 13.199219 15.898438 C 13.199219 15.898438 14.671875 13.46875 12.601562 11.398438 C 11.730469 10.53125 10.828125 10.289062 10.050781 10.289062 Z M 10.050781 10.289062 "/>
<path style=" stroke:none;fill-rule:nonzero;fill:rgb(54.509807%,45.882353%,63.137257%);fill-opacity:1;" d="M 8.195312 6.683594 L 9.402344 5.472656 L 9.828125 5.898438 L 8.617188 7.105469 Z M 8.195312 6.683594 "/>
<path style=" stroke:none;fill-rule:nonzero;fill:rgb(54.509807%,45.882353%,63.137257%);fill-opacity:1;" d="M 9.992188 4.882812 L 11.203125 3.671875 L 11.628906 4.097656 L 10.417969 5.304688 Z M 9.992188 4.882812 "/>
<path style=" stroke:none;fill-rule:nonzero;fill:rgb(54.509807%,45.882353%,63.137257%);fill-opacity:1;" d="M 16.894531 15.382812 L 18.101562 14.171875 L 18.527344 14.597656 L 17.316406 15.804688 Z M 16.894531 15.382812 "/>
<path style=" stroke:none;fill-rule:nonzero;fill:rgb(54.509807%,45.882353%,63.137257%);fill-opacity:1;" d="M 18.695312 13.582031 L 19.902344 12.371094 L 20.328125 12.796875 L 19.117188 14.007812 Z M 18.695312 13.582031 "/>
<path style=" stroke:none;fill-rule:nonzero;fill:rgb(76.078433%,90.980393%,100%);fill-opacity:1;" d="M 10.050781 16.949219 C 8.429688 16.859375 7.140625 15.570312 7.050781 13.949219 L 7.949219 13.949219 C 8.011719 15.058594 8.910156 15.960938 10.050781 16.050781 Z M 10.050781 16.949219 "/>
<path style=" stroke:none;fill-rule:nonzero;fill:rgb(54.509807%,71.764708%,94.117647%);fill-opacity:1;" d="M 7.828125 14.101562 C 7.980469 15.179688 8.820312 16.050781 9.898438 16.171875 L 9.898438 16.769531 C 8.488281 16.621094 7.351562 15.511719 7.199219 14.070312 L 7.828125 14.101562 M 8.101562 13.800781 L 6.898438 13.800781 C 6.898438 15.628906 8.371094 17.101562 10.199219 17.101562 L 10.199219 15.898438 C 9.03125 15.898438 8.101562 14.96875 8.101562 13.800781 Z M 8.101562 13.800781 "/>
<path style=" stroke:none;fill-rule:nonzero;fill:rgb(76.078433%,90.980393%,100%);fill-opacity:1;" d="M 10.050781 19.949219 C 6.78125 19.859375 4.140625 17.21875 4.050781 13.949219 L 4.949219 13.949219 C 5.039062 16.738281 7.261719 18.960938 10.050781 19.050781 Z M 10.050781 19.949219 "/>
<path style=" stroke:none;fill-rule:nonzero;fill:rgb(54.509807%,71.764708%,94.117647%);fill-opacity:1;" d="M 4.800781 14.101562 C 4.949219 16.828125 7.140625 19.050781 9.898438 19.199219 L 9.898438 19.800781 C 6.839844 19.648438 4.351562 17.191406 4.199219 14.101562 L 4.800781 14.101562 M 5.101562 13.800781 L 3.898438 13.800781 C 3.898438 17.28125 6.71875 20.101562 10.199219 20.101562 L 10.199219 18.898438 C 7.378906 18.898438 5.101562 16.621094 5.101562 13.800781 Z M 5.101562 13.800781 "/>
<path style=" stroke:none;fill-rule:nonzero;fill:rgb(76.078433%,90.980393%,100%);fill-opacity:1;" d="M 10.050781 22.648438 C 5.28125 22.558594 1.441406 18.71875 1.351562 13.949219 L 2.25 13.949219 C 2.339844 18.210938 5.789062 21.660156 10.050781 21.75 Z M 10.050781 22.648438 "/>
<path style=" stroke:none;fill-rule:nonzero;fill:rgb(54.509807%,71.764708%,94.117647%);fill-opacity:1;" d="M 2.101562 14.101562 C 2.25 18.328125 5.671875 21.75 9.898438 21.898438 L 9.898438 22.5 C 5.339844 22.351562 1.648438 18.660156 1.5 14.101562 L 2.101562 14.101562 M 2.398438 13.800781 L 1.199219 13.800781 C 1.199219 18.78125 5.21875 22.800781 10.199219 22.800781 L 10.199219 21.601562 C 5.878906 21.601562 2.398438 18.121094 2.398438 13.800781 Z M 2.398438 13.800781 "/>
</g>
</svg>
