<?xml version="1.0" encoding="UTF-8"?>
<svg xmlns="http://www.w3.org/2000/svg" xmlns:xlink="http://www.w3.org/1999/xlink" width="24pt" height="24pt" viewBox="0 0 24 24" version="1.1">
<g id="surface55491">
<path style=" stroke:none;fill-rule:nonzero;fill:rgb(96.078432%,80.784315%,52.156866%);fill-opacity:1;" d="M 9.992188 22.648438 C 8.890625 22.648438 7.703125 22.253906 7.703125 21.15625 C 7.703125 19.996094 7.15625 19.347656 6.480469 18.65625 C 6.039062 18.207031 5.582031 17.738281 5.230469 17.074219 C 4.1875 15.378906 4.769531 14.753906 4.773438 14.746094 C 4.964844 14.378906 5.109375 13.460938 4.25 12.648438 C 3.832031 12.25 3.898438 11.890625 4.089844 11.125 C 4.203125 10.664062 4.347656 10.089844 4.347656 9.390625 C 4.347656 7.882812 5.476562 5.96875 5.652344 5.675781 C 6.976562 4.5625 8.664062 3.976562 10.53125 3.976562 C 14.277344 3.976562 17.6875 6.269531 17.972656 8.984375 C 17.984375 9.101562 18.0625 9.199219 18.167969 9.238281 C 18.203125 9.253906 18.238281 9.257812 18.273438 9.257812 C 18.351562 9.257812 18.425781 9.230469 18.484375 9.175781 C 18.675781 8.996094 19.230469 8.65625 19.714844 8.65625 C 20.382812 8.65625 20.851562 9.34375 20.851562 10.695312 C 20.851562 13.882812 18.765625 14.304688 18.746094 14.308594 C 18.601562 14.335938 18.449219 14.464844 18.449219 14.609375 L 18.449219 17.21875 C 18.449219 18.96875 13.632812 21.480469 11.195312 22.429688 C 10.832031 22.570312 10.417969 22.648438 9.992188 22.648438 Z M 9.992188 22.648438 "/>
<path style=" stroke:none;fill-rule:nonzero;fill:rgb(58.823532%,47.843137%,26.666668%);fill-opacity:1;" d="M 9.992188 22.800781 C 8.8125 22.800781 7.554688 22.367188 7.554688 21.15625 C 7.554688 20.050781 7.042969 19.441406 6.375 18.761719 C 5.925781 18.304688 5.457031 17.828125 5.097656 17.144531 C 4.085938 15.5 4.550781 14.78125 4.652344 14.652344 C 4.816406 14.339844 4.941406 13.507812 4.148438 12.757812 C 3.644531 12.28125 3.765625 11.804688 3.941406 11.085938 C 4.054688 10.636719 4.195312 10.074219 4.195312 9.390625 C 4.195312 7.859375 5.304688 5.960938 5.523438 5.597656 L 5.554688 5.5625 C 6.90625 4.425781 8.628906 3.824219 10.53125 3.824219 C 14.351562 3.824219 17.828125 6.179688 18.121094 8.96875 C 18.125 9.027344 18.164062 9.078125 18.222656 9.097656 C 18.28125 9.121094 18.339844 9.105469 18.378906 9.066406 C 18.566406 8.890625 19.160156 8.507812 19.714844 8.507812 C 20.519531 8.507812 21 9.324219 21 10.695312 C 21 14 18.796875 14.453125 18.773438 14.457031 C 18.6875 14.472656 18.601562 14.550781 18.601562 14.609375 L 18.601562 17.21875 C 18.601562 19.097656 13.648438 21.636719 11.25 22.570312 C 10.859375 22.71875 10.425781 22.800781 9.992188 22.800781 Z M 5.769531 5.773438 C 5.589844 6.074219 4.496094 7.945312 4.496094 9.390625 C 4.496094 10.109375 4.351562 10.691406 4.234375 11.160156 C 4.046875 11.921875 4 12.199219 4.355469 12.539062 C 5.277344 13.414062 5.121094 14.410156 4.90625 14.816406 L 4.886719 14.839844 C 4.867188 14.867188 4.414062 15.457031 5.355469 16.996094 C 5.703125 17.648438 6.152344 18.109375 6.589844 18.550781 C 7.28125 19.257812 7.851562 19.941406 7.851562 21.152344 C 7.851562 22.144531 8.957031 22.5 9.992188 22.5 C 10.386719 22.5 10.785156 22.425781 11.140625 22.289062 C 13.636719 21.316406 18.300781 18.832031 18.300781 17.21875 L 18.300781 14.609375 C 18.300781 14.378906 18.511719 14.203125 18.71875 14.160156 C 18.796875 14.144531 20.699219 13.730469 20.699219 10.695312 C 20.699219 9.511719 20.332031 8.804688 19.714844 8.804688 C 19.277344 8.804688 18.757812 9.121094 18.585938 9.285156 C 18.464844 9.398438 18.285156 9.441406 18.117188 9.378906 C 17.953125 9.320312 17.839844 9.175781 17.824219 9 C 17.542969 6.359375 14.207031 4.125 10.53125 4.125 C 8.707031 4.125 7.0625 4.695312 5.769531 5.773438 Z M 5.769531 5.773438 "/>
<path style=" stroke:none;fill-rule:nonzero;fill:rgb(63.137257%,41.568628%,29.019609%);fill-opacity:1;" d="M 17.332031 11.550781 C 17.769531 9.8125 19.210938 8.207031 20.515625 9.078125 C 20.082031 2.988281 16.027344 1.894531 12.550781 1.460938 C 9.070312 1.027344 5.910156 2.242188 4.285156 4.503906 C 3.761719 5.234375 3.441406 6.011719 3.449219 6.726562 C 3.46875 8.136719 4.328125 9.289062 4.285156 9.289062 C 4.285156 9.289062 4.285156 8.855469 5.15625 7.113281 C 6.027344 5.375 11.679688 4.941406 12.984375 5.375 C 14.289062 5.808594 13.855469 7.550781 13.855469 7.550781 C 15.160156 7.984375 15.863281 11.550781 15.863281 11.550781 Z M 17.332031 11.550781 "/>
<path style=" stroke:none;fill-rule:nonzero;fill:rgb(40.784314%,23.137255%,6.666667%);fill-opacity:1;" d="M 17.449219 11.699219 L 15.742188 11.699219 L 15.71875 11.578125 C 15.527344 10.609375 14.808594 8.027344 13.804688 7.691406 L 13.675781 7.648438 L 13.707031 7.511719 C 13.726562 7.449219 14.09375 5.902344 12.9375 5.515625 C 12.648438 5.421875 12.121094 5.367188 11.453125 5.367188 C 9.269531 5.367188 5.914062 5.929688 5.289062 7.183594 C 4.574219 8.613281 4.457031 9.144531 4.441406 9.265625 L 4.453125 9.304688 L 4.433594 9.339844 L 4.386719 10.015625 L 4.160156 9.375 L 4.132812 9.34375 L 4.132812 9.3125 C 4.125 9.296875 4.113281 9.273438 4.097656 9.246094 C 3.902344 8.917969 3.316406 7.910156 3.300781 6.726562 C 3.292969 6.015625 3.589844 5.21875 4.164062 4.417969 C 5.601562 2.417969 8.214844 1.222656 11.160156 1.222656 C 11.625 1.222656 12.097656 1.253906 12.566406 1.3125 C 16.332031 1.78125 20.238281 3.070312 20.664062 9.066406 L 20.6875 9.375 L 20.429688 9.203125 C 20.214844 9.058594 19.984375 8.984375 19.75 8.984375 C 18.734375 8.984375 17.796875 10.308594 17.476562 11.585938 Z M 15.988281 11.398438 L 17.21875 11.398438 C 17.585938 10.0625 18.578125 8.683594 19.75 8.683594 C 19.953125 8.683594 20.152344 8.726562 20.34375 8.8125 C 19.835938 3.285156 16.292969 2.082031 12.53125 1.609375 C 12.074219 1.554688 11.613281 1.523438 11.160156 1.523438 C 8.3125 1.523438 5.789062 2.671875 4.40625 4.59375 C 3.871094 5.339844 3.589844 6.078125 3.601562 6.722656 C 3.613281 7.5625 3.9375 8.316406 4.171875 8.765625 L 4.1875 8.546875 L 4.265625 8.769531 C 4.382812 8.429688 4.601562 7.886719 5.023438 7.046875 C 5.742188 5.605469 9.351562 5.066406 11.453125 5.066406 C 12.152344 5.066406 12.714844 5.125 13.03125 5.234375 C 14.097656 5.589844 14.160156 6.777344 14.027344 7.457031 C 15.195312 8.019531 15.851562 10.777344 15.988281 11.398438 Z M 15.988281 11.398438 "/>
<path style=" stroke:none;fill-rule:nonzero;fill:rgb(63.137257%,41.568628%,29.019609%);fill-opacity:1;" d="M 8.636719 8.957031 C 8.636719 8.957031 8.640625 9.453125 9.511719 9.453125 C 10.382812 9.453125 12.21875 9.453125 12.21875 9.453125 C 12.6875 9.453125 13.191406 10.3125 12.210938 10.339844 C 11.34375 10.363281 9.070312 10.339844 9.070312 10.339844 C 8.742188 10.304688 8.054688 9.890625 8.636719 8.957031 Z M 8.636719 8.957031 "/>
<path style=" stroke:none;fill-rule:nonzero;fill:rgb(40.784314%,23.137255%,6.666667%);fill-opacity:1;" d="M 11.011719 10.5 C 10.078125 10.5 9.070312 10.488281 9.070312 10.488281 C 8.816406 10.460938 8.492188 10.292969 8.34375 9.988281 C 8.238281 9.769531 8.179688 9.402344 8.507812 8.878906 L 8.777344 8.445312 L 8.785156 8.957031 C 8.785156 8.96875 8.8125 9.304688 9.511719 9.304688 L 12.21875 9.304688 C 12.5625 9.304688 12.917969 9.648438 12.921875 9.984375 C 12.925781 10.097656 12.878906 10.472656 12.214844 10.488281 C 11.925781 10.496094 11.476562 10.5 11.011719 10.5 Z M 9.089844 10.191406 C 9.183594 10.191406 11.363281 10.214844 12.207031 10.1875 C 12.332031 10.1875 12.625 10.160156 12.625 9.988281 C 12.621094 9.828125 12.410156 9.605469 12.21875 9.605469 L 9.511719 9.605469 C 9.015625 9.605469 8.761719 9.457031 8.628906 9.300781 C 8.542969 9.515625 8.539062 9.703125 8.613281 9.855469 C 8.71875 10.074219 8.957031 10.175781 9.085938 10.191406 C 9.085938 10.191406 9.085938 10.191406 9.089844 10.191406 Z M 9.089844 10.191406 "/>
<path style=" stroke:none;fill-rule:nonzero;fill:rgb(63.137257%,41.568628%,29.019609%);fill-opacity:1;" d="M 6.460938 10.476562 C 6.460938 10.476562 4.808594 11.113281 4.179688 12.652344 C 3.585938 12.332031 3.789062 11.367188 3.789062 11.367188 C 3.789062 11.367188 5.09375 9.605469 6.460938 10.476562 Z M 6.460938 10.476562 "/>
<path style=" stroke:none;fill-rule:nonzero;fill:rgb(40.784314%,23.137255%,6.666667%);fill-opacity:1;" d="M 4.257812 12.859375 L 4.109375 12.78125 C 3.421875 12.414062 3.632812 11.378906 3.640625 11.335938 L 3.667969 11.277344 C 3.703125 11.226562 4.5625 10.085938 5.664062 10.085938 C 5.96875 10.085938 6.265625 10.171875 6.539062 10.347656 L 6.789062 10.507812 L 6.515625 10.617188 C 6.5 10.621094 4.914062 11.25 4.320312 12.707031 Z M 3.929688 11.429688 C 3.90625 11.570312 3.835938 12.128906 4.121094 12.417969 C 4.636719 11.332031 5.625 10.71875 6.117188 10.46875 C 5.96875 10.414062 5.820312 10.386719 5.664062 10.386719 C 4.796875 10.386719 4.058594 11.261719 3.929688 11.429688 Z M 3.929688 11.429688 "/>
<path style=" stroke:none;fill-rule:nonzero;fill:rgb(100%,100%,100%);fill-opacity:1;" d="M 9.148438 11.789062 C 9.179688 11.277344 9.765625 10.902344 10.523438 10.949219 C 11.277344 10.996094 11.867188 11.445312 11.835938 11.953125 C 11.808594 12.460938 11.167969 12.796875 10.414062 12.75 C 9.65625 12.703125 9.121094 12.296875 9.148438 11.789062 Z M 9.148438 11.789062 "/>
<path style=" stroke:none;fill-rule:nonzero;fill:rgb(63.137257%,41.568628%,29.019609%);fill-opacity:1;" d="M 10.550781 12.902344 C 10.503906 12.902344 10.453125 12.902344 10.40625 12.898438 C 9.554688 12.847656 8.964844 12.375 9 11.777344 C 9.035156 11.175781 9.6875 10.75 10.53125 10.800781 C 11.382812 10.851562 12.023438 11.363281 11.988281 11.960938 C 11.953125 12.507812 11.351562 12.902344 10.550781 12.902344 Z M 10.398438 11.09375 C 9.796875 11.09375 9.324219 11.398438 9.300781 11.796875 C 9.273438 12.214844 9.757812 12.558594 10.421875 12.601562 C 11.097656 12.640625 11.664062 12.347656 11.6875 11.945312 C 11.710938 11.527344 11.175781 11.140625 10.515625 11.097656 C 10.476562 11.097656 10.4375 11.09375 10.398438 11.09375 Z M 10.398438 11.09375 "/>
<path style=" stroke:none;fill-rule:nonzero;fill:rgb(96.862745%,56.078434%,56.078434%);fill-opacity:1;" d="M 12.585938 17.289062 C 12.585938 17.289062 12.332031 17.011719 11.894531 16.785156 C 11.402344 16.527344 10.648438 16.25 9.496094 16.480469 C 7.320312 16.917969 6.808594 17.425781 6.808594 17.859375 C 6.808594 18.292969 7.316406 18.714844 8.199219 18.304688 C 9.058594 17.90625 10.769531 17.535156 11.84375 18.175781 C 12.984375 18.945312 13.019531 17.722656 12.585938 17.289062 Z M 12.585938 17.289062 "/>
<path style=" stroke:none;fill-rule:nonzero;fill:rgb(100%,100%,100%);fill-opacity:1;" d="M 6.984375 18.070312 C 6.984375 18.070312 9.234375 16.765625 12.585938 17.289062 C 12.242188 17 11.714844 16.402344 10.320312 16.4375 C 8.925781 16.472656 7.476562 17.070312 7.292969 17.253906 C 7.113281 17.433594 6.804688 17.851562 6.984375 18.070312 Z M 6.984375 18.070312 "/>
<path style=" stroke:none;fill-rule:nonzero;fill:rgb(63.137257%,41.568628%,29.019609%);fill-opacity:1;" d="M 11.589844 12.410156 L 11.785156 11.886719 C 11.722656 11.679688 11.5625 11.503906 11.335938 11.441406 C 10.988281 11.34375 10.628906 11.542969 10.53125 11.890625 C 10.4375 12.222656 10.621094 12.566406 10.941406 12.679688 Z M 11.589844 12.410156 "/>
<path style=" stroke:none;fill-rule:nonzero;fill:rgb(78.039217%,26.274511%,26.274511%);fill-opacity:1;" d="M 7.5 18.640625 C 6.933594 18.640625 6.625 18.257812 6.625 17.898438 C 6.625 17.199219 7.488281 16.699219 9.34375 16.328125 C 9.625 16.273438 9.90625 16.242188 10.1875 16.242188 C 11.054688 16.242188 11.707031 16.511719 12.015625 16.675781 C 12.476562 16.914062 12.695312 17.1875 12.703125 17.195312 C 12.957031 17.449219 13.070312 17.941406 12.9375 18.257812 C 12.851562 18.460938 12.679688 18.574219 12.460938 18.574219 C 12.265625 18.574219 12.027344 18.484375 11.757812 18.300781 C 11.402344 18.0625 10.9375 17.941406 10.375 17.941406 C 9.554688 17.941406 8.726562 18.210938 8.265625 18.4375 C 8 18.574219 7.742188 18.640625 7.5 18.640625 Z M 10.1875 16.542969 C 9.929688 16.542969 9.664062 16.570312 9.40625 16.621094 C 7.78125 16.945312 6.925781 17.386719 6.925781 17.898438 C 6.925781 18.117188 7.121094 18.339844 7.5 18.339844 C 7.695312 18.339844 7.90625 18.285156 8.132812 18.171875 C 8.644531 17.914062 9.5 17.640625 10.375 17.640625 C 11 17.640625 11.519531 17.78125 11.925781 18.054688 C 12.199219 18.238281 12.367188 18.273438 12.460938 18.273438 C 12.558594 18.273438 12.621094 18.234375 12.660156 18.144531 C 12.746094 17.9375 12.65625 17.574219 12.480469 17.394531 C 12.464844 17.378906 12.277344 17.148438 11.878906 16.941406 C 11.59375 16.792969 10.992188 16.542969 10.1875 16.542969 Z M 10.1875 16.542969 "/>
<path style=" stroke:none;fill-rule:nonzero;fill:rgb(58.823532%,47.843137%,26.666668%);fill-opacity:1;" d="M 7.832031 15.902344 C 7.636719 15.902344 7.324219 15.832031 7.175781 15.730469 C 6.929688 15.558594 6.835938 15.203125 6.921875 14.75 C 6.949219 14.621094 6.988281 14.449219 7.03125 14.265625 C 7.105469 13.949219 7.191406 13.589844 7.210938 13.367188 C 7.253906 12.929688 7.152344 12.546875 7.082031 12.496094 L 7.222656 12.230469 C 7.484375 12.359375 7.546875 12.988281 7.511719 13.394531 C 7.488281 13.636719 7.398438 14.007812 7.324219 14.335938 C 7.28125 14.511719 7.242188 14.679688 7.21875 14.804688 C 7.15625 15.125 7.207031 15.386719 7.347656 15.484375 C 7.441406 15.546875 7.734375 15.613281 7.863281 15.601562 C 7.984375 15.585938 8.222656 15.449219 8.414062 15.335938 C 8.617188 15.222656 8.804688 15.113281 8.949219 15.078125 C 9.078125 15.046875 9.253906 15.050781 9.441406 15.058594 C 9.609375 15.0625 9.800781 15.066406 9.898438 15.039062 C 10.085938 14.980469 10.148438 14.785156 10.164062 14.703125 C 10.203125 14.527344 10.164062 14.339844 10.074219 14.261719 C 9.910156 14.113281 9.777344 14.105469 9.597656 14.105469 L 9.59375 13.804688 C 9.8125 13.804688 10.03125 13.816406 10.273438 14.035156 C 10.449219 14.191406 10.519531 14.476562 10.457031 14.765625 C 10.398438 15.042969 10.21875 15.253906 9.988281 15.324219 C 9.84375 15.371094 9.644531 15.363281 9.433594 15.355469 C 9.273438 15.351562 9.109375 15.347656 9.019531 15.371094 C 8.917969 15.394531 8.738281 15.496094 8.566406 15.597656 C 8.316406 15.742188 8.078125 15.878906 7.894531 15.898438 C 7.878906 15.902344 7.855469 15.902344 7.832031 15.902344 Z M 7.832031 15.902344 "/>
<path style=" stroke:none;fill-rule:nonzero;fill:rgb(58.823532%,47.843137%,26.666668%);fill-opacity:1;" d="M 18.363281 12.671875 C 18.15625 11.386719 18.546875 10.546875 19.472656 10.308594 L 19.546875 10.597656 C 18.582031 10.847656 18.53125 11.835938 18.660156 12.625 Z M 18.363281 12.671875 "/>
<path style=" stroke:none;fill-rule:nonzero;fill:rgb(58.823532%,47.843137%,26.666668%);fill-opacity:1;" d="M 12.761719 16.050781 C 12.574219 14.894531 11.265625 14.347656 10.714844 14.164062 L 10.804688 13.878906 C 11.414062 14.078125 12.84375 14.683594 13.058594 16.003906 Z M 12.761719 16.050781 "/>
<path style=" stroke:none;fill-rule:nonzero;fill:rgb(58.823532%,47.843137%,26.666668%);fill-opacity:1;" d="M 7.300781 10.71875 C 6.984375 9.515625 7.214844 8.703125 8.078125 8.003906 L 8.269531 8.238281 C 7.5 8.859375 7.304688 9.554688 7.589844 10.644531 Z M 7.300781 10.71875 "/>
<path style=" stroke:none;fill-rule:nonzero;fill:rgb(58.823532%,47.843137%,26.666668%);fill-opacity:1;" d="M 11.882812 22.28125 L 11.648438 22.097656 C 12.003906 21.640625 12.308594 21.09375 12.609375 20.382812 L 12.886719 20.5 C 12.574219 21.238281 12.253906 21.804688 11.882812 22.28125 Z M 11.882812 22.28125 "/>
<path style=" stroke:none;fill-rule:nonzero;fill:rgb(58.823532%,47.843137%,26.666668%);fill-opacity:1;" d="M 6.132812 17.460938 C 5.90625 16.949219 6.023438 16.273438 6.421875 15.816406 L 6.648438 16.015625 C 6.285156 16.425781 6.253906 16.992188 6.40625 17.339844 Z M 6.132812 17.460938 "/>
<path style=" stroke:none;fill-rule:nonzero;fill:rgb(100%,100%,100%);fill-opacity:1;" d="M 5.925781 12.335938 C 6.472656 12.039062 7.066406 12.050781 7.257812 12.355469 C 7.445312 12.664062 7.15625 13.152344 6.609375 13.449219 C 6.066406 13.746094 5.46875 13.734375 5.28125 13.429688 C 5.089844 13.121094 5.378906 12.632812 5.925781 12.335938 Z M 5.925781 12.335938 "/>
<path style=" stroke:none;fill-rule:nonzero;fill:rgb(63.137257%,41.568628%,29.019609%);fill-opacity:1;" d="M 5.832031 13.816406 C 5.515625 13.816406 5.273438 13.707031 5.152344 13.507812 C 5.070312 13.375 5.050781 13.210938 5.097656 13.039062 C 5.179688 12.726562 5.464844 12.417969 5.855469 12.203125 C 6.132812 12.054688 6.433594 11.96875 6.707031 11.96875 C 7.019531 11.96875 7.261719 12.078125 7.382812 12.277344 C 7.464844 12.414062 7.484375 12.574219 7.4375 12.746094 C 7.355469 13.058594 7.074219 13.371094 6.683594 13.582031 C 6.402344 13.734375 6.101562 13.816406 5.832031 13.816406 Z M 6.707031 12.269531 C 6.484375 12.269531 6.234375 12.339844 5.996094 12.46875 C 5.683594 12.640625 5.449219 12.886719 5.386719 13.117188 C 5.363281 13.207031 5.371094 13.285156 5.40625 13.351562 C 5.542969 13.570312 6.085938 13.5625 6.539062 13.316406 C 6.855469 13.148438 7.089844 12.898438 7.148438 12.671875 C 7.175781 12.578125 7.167969 12.5 7.128906 12.4375 C 7.0625 12.332031 6.910156 12.269531 6.707031 12.269531 Z M 6.707031 12.269531 "/>
<path style=" stroke:none;fill-rule:nonzero;fill:rgb(63.137257%,41.568628%,29.019609%);fill-opacity:1;" d="M 7.324219 12.671875 C 7.324219 12.957031 7.09375 13.191406 6.804688 13.191406 C 6.515625 13.191406 6.285156 12.957031 6.285156 12.671875 C 6.285156 12.386719 6.515625 12.15625 6.804688 12.15625 C 7.09375 12.15625 7.324219 12.386719 7.324219 12.671875 Z M 7.324219 12.671875 "/>
</g>
</svg>
