<?xml version="1.0" encoding="UTF-8"?>
<svg xmlns="http://www.w3.org/2000/svg" xmlns:xlink="http://www.w3.org/1999/xlink" width="24pt" height="24pt" viewBox="0 0 24 24" version="1.1">
<g id="surface50064">
<path style=" stroke:none;fill-rule:nonzero;fill:rgb(100%,100%,100%);fill-opacity:1;" d="M 1.351562 22.050781 L 1.351562 1.949219 L 22.648438 1.949219 L 22.648438 14.941406 L 15.238281 22.050781 Z M 1.351562 22.050781 "/>
<path style=" stroke:none;fill-rule:nonzero;fill:rgb(47.058824%,54.509807%,61.176473%);fill-opacity:1;" d="M 22.5 2.101562 L 22.5 14.878906 L 15.179688 21.898438 L 1.5 21.898438 L 1.5 2.101562 L 22.5 2.101562 M 22.800781 1.800781 L 1.199219 1.800781 L 1.199219 22.199219 L 15.300781 22.199219 L 22.800781 15 Z M 22.800781 1.800781 "/>
<path style=" stroke:none;fill-rule:nonzero;fill:rgb(47.058824%,54.509807%,61.176473%);fill-opacity:1;" d="M 1.199219 1.800781 L 22.800781 1.800781 L 22.800781 5.398438 L 1.199219 5.398438 Z M 1.199219 1.800781 "/>
<path style=" stroke:none;fill-rule:nonzero;fill:rgb(54.509807%,71.764708%,94.117647%);fill-opacity:1;" d="M 7.800781 9.898438 L 18.601562 9.898438 L 18.601562 10.199219 L 7.800781 10.199219 Z M 5.398438 9.898438 L 6.300781 9.898438 L 6.300781 10.199219 L 5.398438 10.199219 Z M 7.800781 12.300781 L 18.601562 12.300781 L 18.601562 12.601562 L 7.800781 12.601562 Z M 5.398438 12.300781 L 6.300781 12.300781 L 6.300781 12.601562 L 5.398438 12.601562 Z M 7.800781 14.699219 L 18.601562 14.699219 L 18.601562 15 L 7.800781 15 Z M 5.398438 14.699219 L 6.300781 14.699219 L 6.300781 15 L 5.398438 15 Z M 7.800781 17.101562 L 18.601562 17.101562 L 18.601562 17.398438 L 7.800781 17.398438 Z M 5.398438 17.101562 L 6.300781 17.101562 L 6.300781 17.398438 L 5.398438 17.398438 Z M 5.398438 17.101562 "/>
<path style=" stroke:none;fill-rule:nonzero;fill:rgb(71.372551%,78.823531%,83.92157%);fill-opacity:1;" d="M 14.039062 23.851562 C 13.859375 23.851562 13.679688 23.789062 13.558594 23.640625 C 13.289062 23.371094 13.289062 22.921875 13.558594 22.648438 L 16.949219 19.441406 L 17.820312 20.25 L 14.550781 23.640625 C 14.398438 23.789062 14.21875 23.851562 14.039062 23.851562 Z M 14.039062 23.851562 "/>
<path style=" stroke:none;fill-rule:nonzero;fill:rgb(47.058824%,54.509807%,61.176473%);fill-opacity:1;" d="M 16.921875 19.648438 L 17.550781 20.25 L 14.398438 23.550781 C 14.308594 23.640625 14.160156 23.699219 14.011719 23.699219 C 13.859375 23.699219 13.738281 23.640625 13.621094 23.550781 C 13.410156 23.339844 13.410156 22.980469 13.621094 22.769531 L 16.921875 19.648438 M 16.921875 19.230469 L 13.441406 22.558594 C 13.109375 22.890625 13.109375 23.429688 13.441406 23.761719 C 13.621094 23.941406 13.828125 24 14.039062 24 C 14.25 24 14.460938 23.910156 14.640625 23.761719 L 18 20.25 Z M 16.921875 19.230469 "/>
<path style=" stroke:none;fill-rule:nonzero;fill:rgb(81.960785%,92.941177%,100%);fill-opacity:1;" d="M 19.949219 21.148438 C 17.789062 21.148438 16.050781 19.410156 16.050781 17.25 C 16.050781 15.089844 17.789062 13.351562 19.949219 13.351562 C 22.109375 13.351562 23.851562 15.089844 23.851562 17.25 C 23.851562 19.410156 22.109375 21.148438 19.949219 21.148438 Z M 19.949219 21.148438 "/>
<path style=" stroke:none;fill-rule:nonzero;fill:rgb(47.058824%,54.509807%,61.176473%);fill-opacity:1;" d="M 19.949219 13.5 C 22.019531 13.5 23.699219 15.179688 23.699219 17.25 C 23.699219 19.320312 22.019531 21 19.949219 21 C 17.878906 21 16.199219 19.320312 16.199219 17.25 C 16.199219 15.179688 17.878906 13.5 19.949219 13.5 M 19.949219 13.199219 C 17.699219 13.199219 15.898438 15 15.898438 17.25 C 15.898438 19.5 17.699219 21.300781 19.949219 21.300781 C 22.199219 21.300781 24 19.5 24 17.25 C 24 15 22.199219 13.199219 19.949219 13.199219 Z M 19.949219 13.199219 "/>
<path style=" stroke:none;fill-rule:nonzero;fill:rgb(78.431374%,81.960785%,85.882354%);fill-opacity:1;" d="M 12.238281 22.199219 L 13.828125 22.199219 L 14.128906 21.898438 L 12.421875 21.898438 C 12.359375 21.988281 12.300781 22.078125 12.238281 22.199219 Z M 22.800781 12.871094 C 22.710938 12.808594 22.589844 12.75 22.5 12.691406 L 22.5 14.101562 C 22.589844 14.191406 22.710938 14.28125 22.800781 14.371094 Z M 22.800781 12.871094 "/>
<path style=" stroke:none;fill-rule:nonzero;fill:rgb(76.078433%,90.980393%,100%);fill-opacity:1;" d="M 15.871094 17.101562 L 14.671875 17.101562 C 14.671875 17.160156 14.671875 17.191406 14.671875 17.25 C 14.671875 17.308594 14.671875 17.339844 14.671875 17.398438 L 15.871094 17.398438 C 15.871094 17.339844 15.871094 17.308594 15.871094 17.25 C 15.871094 17.191406 15.871094 17.160156 15.871094 17.101562 Z M 15.359375 14.699219 C 15.300781 14.789062 15.238281 14.910156 15.210938 15 L 16.589844 15 C 16.648438 14.910156 16.738281 14.789062 16.800781 14.699219 Z M 15.359375 14.699219 "/>
</g>
</svg>
