<?xml version="1.0" encoding="UTF-8"?>
<svg xmlns="http://www.w3.org/2000/svg" xmlns:xlink="http://www.w3.org/1999/xlink" width="24pt" height="24pt" viewBox="0 0 24 24" version="1.1">
<g id="surface31270">
<path style=" stroke:none;fill-rule:nonzero;fill:rgb(60.000002%,78.823531%,61.960787%);fill-opacity:1;" d="M 1.351562 1.351562 L 22.648438 1.351562 L 22.648438 22.648438 L 1.351562 22.648438 Z M 1.351562 1.351562 "/>
<path style=" stroke:none;fill-rule:nonzero;fill:rgb(36.862746%,61.176473%,46.27451%);fill-opacity:1;" d="M 22.5 1.5 L 22.5 22.5 L 1.5 22.5 L 1.5 1.5 L 22.5 1.5 M 22.800781 1.199219 L 1.199219 1.199219 L 1.199219 22.800781 L 22.800781 22.800781 Z M 22.800781 1.199219 "/>
<path style=" stroke:none;fill-rule:nonzero;fill:rgb(100%,100%,100%);fill-opacity:1;" d="M 12 10.199219 C 11.007812 10.199219 10.199219 11.007812 10.199219 12 C 10.199219 12.992188 11.007812 13.800781 12 13.800781 C 12.992188 13.800781 13.800781 12.992188 13.800781 12 C 13.800781 11.007812 12.992188 10.199219 12 10.199219 Z M 12 10.199219 "/>
<path style=" stroke:none;fill-rule:nonzero;fill:rgb(88.235295%,93.725491%,88.627452%);fill-opacity:1;" d="M 12 7.800781 C 14.316406 7.800781 16.199219 9.683594 16.199219 12 C 16.199219 14.316406 14.316406 16.199219 12 16.199219 C 9.683594 16.199219 7.800781 14.316406 7.800781 12 C 7.800781 9.683594 9.683594 7.800781 12 7.800781 M 12 6.601562 C 9.023438 6.601562 6.601562 9.023438 6.601562 12 C 6.601562 14.976562 9.023438 17.398438 12 17.398438 C 14.976562 17.398438 17.398438 14.976562 17.398438 12 C 17.398438 9.023438 14.976562 6.601562 12 6.601562 Z M 12 6.601562 "/>
<path style=" stroke:none;fill-rule:nonzero;fill:rgb(72.941178%,87.843138%,74.117649%);fill-opacity:1;" d="M 12 4.800781 C 15.96875 4.800781 19.199219 8.03125 19.199219 12 C 19.199219 15.96875 15.96875 19.199219 12 19.199219 C 8.03125 19.199219 4.800781 15.96875 4.800781 12 C 4.800781 8.03125 8.03125 4.800781 12 4.800781 M 12 3.601562 C 7.367188 3.601562 3.601562 7.367188 3.601562 12 C 3.601562 16.632812 7.367188 20.398438 12 20.398438 C 16.632812 20.398438 20.398438 16.632812 20.398438 12 C 20.398438 7.367188 16.632812 3.601562 12 3.601562 Z M 12 3.601562 "/>
</g>
</svg>
