<?xml version="1.0" encoding="UTF-8"?>
<svg xmlns="http://www.w3.org/2000/svg" xmlns:xlink="http://www.w3.org/1999/xlink" width="24pt" height="24pt" viewBox="0 0 24 24" version="1.1">
<g id="surface7663">
<path style=" stroke:none;fill-rule:nonzero;fill:rgb(76.078433%,90.980393%,100%);fill-opacity:1;" d="M 16.609375 12.449219 L 16.480469 11.164062 L 16.375 11.140625 C 15.441406 10.933594 14.601562 10.449219 13.945312 9.734375 L 13.871094 9.652344 L 12.691406 10.1875 L 11.925781 8.863281 L 12.976562 8.109375 L 12.941406 8.003906 C 12.796875 7.550781 12.726562 7.078125 12.726562 6.601562 C 12.726562 6.121094 12.796875 5.648438 12.941406 5.195312 L 12.976562 5.089844 L 11.925781 4.335938 L 12.691406 3.011719 L 13.871094 3.546875 L 13.945312 3.464844 C 14.601562 2.75 15.441406 2.265625 16.375 2.058594 L 16.480469 2.035156 L 16.609375 0.75 L 18.140625 0.75 L 18.269531 2.039062 L 18.375 2.0625 C 19.308594 2.265625 20.148438 2.75 20.804688 3.46875 L 20.875 3.546875 L 22.058594 3.011719 L 22.824219 4.335938 L 21.773438 5.089844 L 21.808594 5.195312 C 21.953125 5.648438 22.023438 6.121094 22.023438 6.601562 C 22.023438 7.078125 21.953125 7.550781 21.808594 8.007812 L 21.773438 8.109375 L 22.824219 8.863281 L 22.058594 10.1875 L 20.875 9.652344 L 20.804688 9.734375 C 20.148438 10.449219 19.308594 10.933594 18.375 11.140625 L 18.269531 11.164062 L 18.136719 12.449219 Z M 17.375 4.050781 C 15.96875 4.050781 14.824219 5.195312 14.824219 6.601562 C 14.824219 8.007812 15.96875 9.148438 17.375 9.148438 C 18.78125 9.148438 19.925781 8.007812 19.925781 6.601562 C 19.925781 5.195312 18.78125 4.050781 17.375 4.050781 Z M 17.375 4.050781 "/>
<path style=" stroke:none;fill-rule:nonzero;fill:rgb(47.058824%,54.509807%,61.176473%);fill-opacity:1;" d="M 18.003906 0.898438 L 18.105469 1.945312 L 18.128906 2.160156 L 18.339844 2.207031 C 19.246094 2.40625 20.058594 2.875 20.691406 3.566406 L 20.839844 3.726562 L 21.035156 3.640625 L 21.996094 3.207031 L 22.625 4.292969 L 21.773438 4.90625 L 21.597656 5.03125 L 21.664062 5.238281 C 21.804688 5.679688 21.875 6.136719 21.875 6.601562 C 21.875 7.0625 21.804688 7.519531 21.664062 7.960938 L 21.597656 8.167969 L 21.773438 8.292969 L 22.625 8.90625 L 21.996094 9.996094 L 21.035156 9.5625 L 20.839844 9.472656 L 20.691406 9.632812 C 20.058594 10.324219 19.246094 10.792969 18.339844 10.992188 L 18.128906 11.039062 L 18.105469 11.257812 L 18.003906 12.300781 L 16.746094 12.300781 L 16.640625 11.257812 L 16.621094 11.039062 L 16.40625 10.992188 C 15.503906 10.792969 14.691406 10.324219 14.058594 9.632812 L 13.910156 9.472656 L 13.710938 9.5625 L 12.753906 9.996094 L 12.125 8.90625 L 12.972656 8.292969 L 13.152344 8.167969 L 13.085938 7.960938 C 12.945312 7.519531 12.875 7.0625 12.875 6.601562 C 12.875 6.136719 12.945312 5.679688 13.085938 5.238281 L 13.152344 5.03125 L 12.972656 4.90625 L 12.125 4.292969 L 12.753906 3.207031 L 13.710938 3.640625 L 13.910156 3.726562 L 14.058594 3.566406 C 14.691406 2.875 15.503906 2.40625 16.40625 2.207031 L 16.621094 2.160156 L 16.640625 1.945312 L 16.746094 0.898438 L 18.003906 0.898438 M 17.375 9.300781 C 18.863281 9.300781 20.074219 8.089844 20.074219 6.601562 C 20.074219 5.109375 18.863281 3.898438 17.375 3.898438 C 15.886719 3.898438 14.675781 5.109375 14.675781 6.601562 C 14.675781 8.089844 15.886719 9.300781 17.375 9.300781 M 18.273438 0.601562 L 16.472656 0.601562 L 16.34375 1.914062 C 15.359375 2.128906 14.492188 2.648438 13.835938 3.367188 L 12.628906 2.820312 L 11.726562 4.378906 L 12.800781 5.148438 C 12.652344 5.605469 12.574219 6.09375 12.574219 6.601562 C 12.574219 7.105469 12.652344 7.59375 12.800781 8.050781 L 11.726562 8.820312 L 12.628906 10.378906 L 13.835938 9.835938 C 14.492188 10.550781 15.359375 11.070312 16.34375 11.285156 L 16.472656 12.601562 L 18.273438 12.601562 L 18.40625 11.285156 C 19.390625 11.070312 20.257812 10.550781 20.914062 9.835938 L 22.121094 10.378906 L 23.019531 8.820312 L 21.949219 8.050781 C 22.09375 7.59375 22.175781 7.105469 22.175781 6.601562 C 22.175781 6.09375 22.09375 5.605469 21.949219 5.148438 L 23.019531 4.378906 L 22.121094 2.820312 L 20.914062 3.367188 C 20.257812 2.648438 19.390625 2.128906 18.40625 1.914062 Z M 17.375 9 C 16.050781 9 14.972656 7.925781 14.972656 6.601562 C 14.972656 5.273438 16.050781 4.199219 17.375 4.199219 C 18.699219 4.199219 19.773438 5.273438 19.773438 6.601562 C 19.773438 7.925781 18.699219 9 17.375 9 Z M 17.375 9 "/>
<path style=" stroke:none;fill-rule:nonzero;fill:rgb(86.274511%,83.529413%,94.901961%);fill-opacity:1;" d="M 7.011719 23.25 L 6.816406 21.300781 L 6.714844 21.273438 C 5.71875 21.023438 4.8125 20.5 4.097656 19.765625 L 4.023438 19.691406 L 2.242188 20.496094 L 1.175781 18.652344 L 2.765625 17.511719 L 2.738281 17.410156 C 2.597656 16.90625 2.523438 16.398438 2.523438 15.898438 C 2.523438 15.398438 2.597656 14.890625 2.738281 14.390625 L 2.765625 14.289062 L 1.175781 13.148438 L 2.242188 11.304688 L 4.023438 12.109375 L 4.097656 12.03125 C 4.8125 11.296875 5.71875 10.777344 6.714844 10.527344 L 6.816406 10.5 L 7.011719 8.550781 L 9.140625 8.550781 L 9.332031 10.5 L 9.4375 10.527344 C 10.433594 10.777344 11.335938 11.296875 12.050781 12.03125 L 12.125 12.109375 L 13.90625 11.304688 L 14.972656 13.148438 L 13.382812 14.289062 L 13.410156 14.390625 C 13.554688 14.890625 13.625 15.398438 13.625 15.898438 C 13.625 16.398438 13.554688 16.90625 13.410156 17.410156 L 13.382812 17.511719 L 14.972656 18.652344 L 13.90625 20.496094 L 12.125 19.691406 L 12.050781 19.765625 C 11.335938 20.5 10.433594 21.023438 9.4375 21.273438 L 9.335938 21.300781 L 9.140625 23.25 Z M 8.074219 13.050781 C 6.503906 13.050781 5.222656 14.328125 5.222656 15.898438 C 5.222656 17.472656 6.503906 18.75 8.074219 18.75 C 9.644531 18.75 10.925781 17.472656 10.925781 15.898438 C 10.925781 14.328125 9.644531 13.050781 8.074219 13.050781 Z M 8.074219 13.050781 "/>
<path style=" stroke:none;fill-rule:nonzero;fill:rgb(54.509807%,45.882353%,63.137257%);fill-opacity:1;" d="M 9.003906 8.699219 L 9.175781 10.410156 L 9.195312 10.617188 L 9.398438 10.671875 C 10.367188 10.914062 11.25 11.421875 11.941406 12.136719 L 12.089844 12.289062 L 12.28125 12.203125 L 13.84375 11.496094 L 14.773438 13.105469 L 13.378906 14.105469 L 13.210938 14.230469 L 13.265625 14.433594 C 13.40625 14.917969 13.476562 15.414062 13.476562 15.902344 C 13.476562 16.386719 13.40625 16.882812 13.265625 17.371094 L 13.210938 17.570312 L 13.378906 17.695312 L 14.773438 18.695312 L 13.84375 20.304688 L 12.28125 19.597656 L 12.089844 19.511719 L 11.941406 19.664062 C 11.25 20.378906 10.367188 20.882812 9.398438 21.128906 L 9.195312 21.179688 L 9.175781 21.390625 L 9.003906 23.101562 L 7.144531 23.101562 L 6.976562 21.390625 L 6.953125 21.179688 L 6.75 21.128906 C 5.78125 20.882812 4.902344 20.378906 4.207031 19.664062 L 4.058594 19.511719 L 3.867188 19.597656 L 2.304688 20.304688 L 1.375 18.695312 L 2.769531 17.695312 L 2.9375 17.570312 L 2.882812 17.367188 C 2.746094 16.878906 2.675781 16.386719 2.675781 15.898438 C 2.675781 15.414062 2.746094 14.917969 2.882812 14.429688 L 2.941406 14.230469 L 2.769531 14.105469 L 1.375 13.105469 L 2.304688 11.496094 L 3.867188 12.203125 L 4.058594 12.289062 L 4.207031 12.136719 C 4.902344 11.421875 5.78125 10.914062 6.75 10.671875 L 6.953125 10.617188 L 6.976562 10.410156 L 7.144531 8.699219 L 9.003906 8.699219 M 8.074219 18.898438 C 9.730469 18.898438 11.074219 17.554688 11.074219 15.898438 C 11.074219 14.246094 9.730469 12.898438 8.074219 12.898438 C 6.421875 12.898438 5.074219 14.246094 5.074219 15.898438 C 5.074219 17.554688 6.421875 18.898438 8.074219 18.898438 M 9.273438 8.398438 L 6.875 8.398438 L 6.675781 10.378906 C 5.640625 10.640625 4.714844 11.183594 3.992188 11.929688 L 2.179688 11.109375 L 0.980469 13.1875 L 2.59375 14.347656 C 2.453125 14.84375 2.375 15.363281 2.375 15.898438 C 2.375 16.4375 2.453125 16.957031 2.59375 17.449219 L 0.980469 18.609375 L 2.179688 20.6875 L 3.992188 19.871094 C 4.714844 20.617188 5.640625 21.15625 6.675781 21.421875 L 6.875 23.398438 L 9.273438 23.398438 L 9.472656 21.421875 C 10.511719 21.15625 11.433594 20.617188 12.160156 19.871094 L 13.96875 20.6875 L 15.167969 18.609375 L 13.554688 17.449219 C 13.695312 16.957031 13.773438 16.4375 13.773438 15.898438 C 13.773438 15.363281 13.695312 14.84375 13.554688 14.347656 L 15.167969 13.1875 L 13.96875 11.109375 L 12.160156 11.929688 C 11.433594 11.183594 10.511719 10.640625 9.472656 10.378906 Z M 8.074219 18.601562 C 6.582031 18.601562 5.375 17.390625 5.375 15.898438 C 5.375 14.410156 6.582031 13.199219 8.074219 13.199219 C 9.566406 13.199219 10.773438 14.410156 10.773438 15.898438 C 10.773438 17.390625 9.566406 18.601562 8.074219 18.601562 Z M 8.074219 18.601562 "/>
</g>
</svg>
