<?xml version="1.0" encoding="UTF-8"?>
<svg xmlns="http://www.w3.org/2000/svg" xmlns:xlink="http://www.w3.org/1999/xlink" width="24pt" height="24pt" viewBox="0 0 24 24" version="1.1">
<g id="surface50121">
<path style=" stroke:none;fill-rule:nonzero;fill:rgb(100%,100%,100%);fill-opacity:1;" d="M 1.351562 22.050781 L 1.351562 1.949219 L 22.648438 1.949219 L 22.648438 21.601562 C 22.648438 21.839844 22.441406 22.050781 22.199219 22.050781 Z M 1.351562 22.050781 "/>
<path style=" stroke:none;fill-rule:nonzero;fill:rgb(47.058824%,54.509807%,61.176473%);fill-opacity:1;" d="M 22.5 2.101562 L 22.5 21.601562 C 22.5 21.78125 22.378906 21.898438 22.199219 21.898438 L 1.5 21.898438 L 1.5 2.101562 L 22.5 2.101562 M 22.800781 1.800781 L 1.199219 1.800781 L 1.199219 22.199219 L 22.199219 22.199219 C 22.53125 22.199219 22.800781 21.929688 22.800781 21.601562 Z M 22.800781 1.800781 "/>
<path style=" stroke:none;fill-rule:nonzero;fill:rgb(47.058824%,54.509807%,61.176473%);fill-opacity:1;" d="M 1.199219 1.800781 L 22.800781 1.800781 L 22.800781 5.398438 L 1.199219 5.398438 Z M 1.199219 1.800781 "/>
<path style=" stroke:none;fill-rule:nonzero;fill:rgb(54.509807%,71.764708%,94.117647%);fill-opacity:1;" d="M 7.800781 9.898438 L 18.601562 9.898438 L 18.601562 10.199219 L 7.800781 10.199219 Z M 5.398438 9.898438 L 6.300781 9.898438 L 6.300781 10.199219 L 5.398438 10.199219 Z M 7.800781 12.300781 L 18.601562 12.300781 L 18.601562 12.601562 L 7.800781 12.601562 Z M 5.398438 12.300781 L 6.300781 12.300781 L 6.300781 12.601562 L 5.398438 12.601562 Z M 7.800781 14.699219 L 18.601562 14.699219 L 18.601562 15 L 7.800781 15 Z M 5.398438 14.699219 L 6.300781 14.699219 L 6.300781 15 L 5.398438 15 Z M 7.800781 17.101562 L 18.601562 17.101562 L 18.601562 17.398438 L 7.800781 17.398438 Z M 5.398438 17.101562 L 6.300781 17.101562 L 6.300781 17.398438 L 5.398438 17.398438 Z M 5.398438 17.101562 "/>
<path style=" stroke:none;fill-rule:nonzero;fill:rgb(100%,100%,100%);fill-opacity:1;" d="M 18.601562 23.851562 C 15.988281 23.851562 13.800781 21.210938 13.378906 20.699219 C 13.800781 20.191406 15.988281 17.550781 18.601562 17.550781 C 21.210938 17.550781 23.398438 20.191406 23.820312 20.699219 C 23.398438 21.210938 21.210938 23.851562 18.601562 23.851562 Z M 18.601562 23.851562 "/>
<path style=" stroke:none;fill-rule:nonzero;fill:rgb(72.941178%,60.784316%,28.235295%);fill-opacity:1;" d="M 18.601562 17.699219 C 21 17.699219 23.070312 20.039062 23.609375 20.699219 C 23.070312 21.359375 21 23.699219 18.601562 23.699219 C 16.199219 23.699219 14.128906 21.359375 13.589844 20.699219 C 14.128906 20.039062 16.199219 17.699219 18.601562 17.699219 M 18.601562 17.398438 C 15.628906 17.398438 13.199219 20.699219 13.199219 20.699219 C 13.199219 20.699219 15.628906 24 18.601562 24 C 21.570312 24 24 20.699219 24 20.699219 C 24 20.699219 21.570312 17.398438 18.601562 17.398438 Z M 18.601562 17.398438 "/>
<path style=" stroke:none;fill-rule:nonzero;fill:rgb(54.509807%,71.764708%,94.117647%);fill-opacity:1;" d="M 18.601562 23.25 C 17.191406 23.25 16.050781 22.109375 16.050781 20.699219 C 16.050781 19.289062 17.191406 18.148438 18.601562 18.148438 C 20.011719 18.148438 21.148438 19.289062 21.148438 20.699219 C 21.148438 22.109375 20.011719 23.25 18.601562 23.25 Z M 18.601562 23.25 "/>
<path style=" stroke:none;fill-rule:nonzero;fill:rgb(30.588236%,47.843137%,70.980394%);fill-opacity:1;" d="M 18.601562 18.300781 C 19.921875 18.300781 21 19.378906 21 20.699219 C 21 22.019531 19.921875 23.101562 18.601562 23.101562 C 17.28125 23.101562 16.199219 22.019531 16.199219 20.699219 C 16.199219 19.378906 17.28125 18.300781 18.601562 18.300781 M 18.601562 18 C 17.101562 18 15.898438 19.199219 15.898438 20.699219 C 15.898438 22.199219 17.101562 23.398438 18.601562 23.398438 C 20.101562 23.398438 21.300781 22.199219 21.300781 20.699219 C 21.300781 19.199219 20.101562 18 18.601562 18 Z M 18.601562 18 "/>
<path style=" stroke:none;fill-rule:nonzero;fill:rgb(21.176471%,25.098041%,30.19608%);fill-opacity:1;" d="M 18.601562 19.5 C 17.9375 19.5 17.398438 20.039062 17.398438 20.699219 C 17.398438 21.363281 17.9375 21.898438 18.601562 21.898438 C 19.261719 21.898438 19.800781 21.363281 19.800781 20.699219 C 19.800781 20.039062 19.261719 19.5 18.601562 19.5 Z M 18.601562 19.5 "/>
<path style=" stroke:none;fill-rule:nonzero;fill:rgb(100%,100%,100%);fill-opacity:1;" d="M 19.648438 19.5 C 19.402344 19.5 19.199219 19.703125 19.199219 19.949219 C 19.199219 20.199219 19.402344 20.398438 19.648438 20.398438 C 19.898438 20.398438 20.101562 20.199219 20.101562 19.949219 C 20.101562 19.703125 19.898438 19.5 19.648438 19.5 Z M 19.648438 19.5 "/>
<path style=" stroke:none;fill-rule:nonzero;fill:rgb(78.431374%,81.960785%,85.882354%);fill-opacity:1;" d="M 14.28125 21.898438 L 12.628906 21.898438 C 12.71875 21.988281 12.808594 22.078125 12.898438 22.199219 L 14.609375 22.199219 C 14.488281 22.109375 14.371094 21.988281 14.28125 21.898438 Z M 22.5 19.109375 C 22.589844 19.199219 22.710938 19.289062 22.800781 19.378906 L 22.800781 17.820312 C 22.710938 17.761719 22.589844 17.671875 22.5 17.609375 Z M 22.5 19.109375 "/>
<path style=" stroke:none;fill-rule:nonzero;fill:rgb(76.078433%,90.980393%,100%);fill-opacity:1;" d="M 15.480469 17.101562 C 15.300781 17.191406 15.148438 17.308594 15 17.398438 L 18.601562 17.398438 L 18.601562 17.101562 Z M 15.480469 17.101562 "/>
</g>
</svg>
