<?xml version="1.0" encoding="UTF-8"?>
<svg xmlns="http://www.w3.org/2000/svg" xmlns:xlink="http://www.w3.org/1999/xlink" width="24pt" height="24pt" viewBox="0 0 24 24" version="1.1">
<g id="surface36833">
<path style=" stroke:none;fill-rule:nonzero;fill:rgb(54.509807%,71.764708%,94.117647%);fill-opacity:1;" d="M 18.75 19.050781 L 14.621094 19.050781 L 4.203125 7.648438 L 0.75 7.648438 L 0.75 4.949219 L 5.394531 4.949219 L 15.8125 16.351562 L 18.75 16.351562 L 18.75 14.113281 L 23.160156 17.699219 L 18.75 21.285156 Z M 18.75 19.050781 "/>
<path style=" stroke:none;fill-rule:nonzero;fill:rgb(30.588236%,47.843137%,70.980394%);fill-opacity:1;" d="M 5.328125 5.101562 L 15.65625 16.402344 L 15.746094 16.5 L 18.898438 16.5 L 18.898438 14.429688 L 22.925781 17.699219 L 18.898438 20.96875 L 18.898438 18.898438 L 14.6875 18.898438 L 4.359375 7.597656 L 4.269531 7.5 L 0.898438 7.5 L 0.898438 5.101562 L 5.328125 5.101562 M 5.460938 4.800781 L 0.601562 4.800781 L 0.601562 7.800781 L 4.136719 7.800781 L 14.554688 19.199219 L 18.601562 19.199219 L 18.601562 21.601562 L 23.398438 17.699219 L 18.601562 13.800781 L 18.601562 16.199219 L 15.878906 16.199219 Z M 5.460938 4.800781 "/>
<path style=" stroke:none;fill-rule:nonzero;fill:rgb(54.509807%,71.764708%,94.117647%);fill-opacity:1;" d="M 0.75 19.050781 L 0.75 16.351562 L 4.203125 16.351562 L 14.621094 4.949219 L 18.75 4.949219 L 18.75 2.714844 L 23.160156 6.300781 L 18.75 9.886719 L 18.75 7.648438 L 15.8125 7.648438 L 5.394531 19.050781 Z M 0.75 19.050781 "/>
<path style=" stroke:none;fill-rule:nonzero;fill:rgb(30.588236%,47.843137%,70.980394%);fill-opacity:1;" d="M 18.898438 3.03125 L 22.925781 6.300781 L 18.898438 9.570312 L 18.898438 7.5 L 15.746094 7.5 L 15.65625 7.597656 L 5.328125 18.898438 L 0.898438 18.898438 L 0.898438 16.5 L 4.269531 16.5 L 4.359375 16.402344 L 14.6875 5.101562 L 18.898438 5.101562 L 18.898438 3.03125 M 18.601562 2.398438 L 18.601562 4.800781 L 14.554688 4.800781 L 4.136719 16.199219 L 0.601562 16.199219 L 0.601562 19.199219 L 5.460938 19.199219 L 15.878906 7.800781 L 18.601562 7.800781 L 18.601562 10.199219 L 23.398438 6.300781 Z M 18.601562 2.398438 "/>
</g>
</svg>
