<?xml version="1.0" encoding="UTF-8"?>
<svg xmlns="http://www.w3.org/2000/svg" xmlns:xlink="http://www.w3.org/1999/xlink" width="24pt" height="24pt" viewBox="0 0 24 24" version="1.1">
<g id="surface4660">
<path style=" stroke:none;fill-rule:nonzero;fill:rgb(96.862745%,42.745098%,42.745098%);fill-opacity:1;" d="M 12 23.25 C 5.789062 23.25 0.75 18.210938 0.75 12 C 0.75 5.789062 5.789062 0.75 12 0.75 C 18.210938 0.75 23.25 5.789062 23.25 12 C 23.25 18.210938 18.210938 23.25 12 23.25 Z M 12 23.25 "/>
<path style=" stroke:none;fill-rule:nonzero;fill:rgb(78.039217%,26.274511%,26.274511%);fill-opacity:1;" d="M 12 0.898438 C 18.121094 0.898438 23.101562 5.878906 23.101562 12 C 23.101562 18.121094 18.121094 23.101562 12 23.101562 C 5.878906 23.101562 0.898438 18.121094 0.898438 12 C 0.898438 5.878906 5.878906 0.898438 12 0.898438 M 12 0.601562 C 5.699219 0.601562 0.601562 5.699219 0.601562 12 C 0.601562 18.300781 5.699219 23.398438 12 23.398438 C 18.300781 23.398438 23.398438 18.300781 23.398438 12 C 23.398438 5.699219 18.300781 0.601562 12 0.601562 Z M 12 0.601562 "/>
<path style=" stroke:none;fill-rule:nonzero;fill:rgb(100%,100%,100%);fill-opacity:1;" d="M 11.101562 4.199219 L 12.898438 4.199219 L 12.898438 12 L 11.101562 12 Z M 11.101562 4.199219 "/>
<path style=" stroke:none;fill-rule:nonzero;fill:rgb(100%,100%,100%);fill-opacity:1;" d="M 12 18.898438 C 10.289062 18.898438 8.609375 18.269531 7.261719 17.039062 C 5.910156 15.78125 5.160156 14.070312 5.101562 12.210938 C 5.039062 10.378906 5.699219 8.609375 6.960938 7.261719 C 7.109375 7.109375 7.261719 6.960938 7.441406 6.808594 L 8.640625 8.160156 C 8.519531 8.28125 8.398438 8.371094 8.28125 8.488281 C 7.351562 9.480469 6.871094 10.769531 6.898438 12.148438 C 6.929688 13.5 7.5 14.789062 8.488281 15.71875 C 10.53125 17.640625 13.769531 17.550781 15.691406 15.511719 C 17.609375 13.46875 17.519531 10.230469 15.480469 8.308594 L 16.710938 6.988281 C 19.46875 9.601562 19.621094 13.980469 17.011719 16.738281 C 15.691406 18.179688 13.828125 18.898438 12 18.898438 Z M 12 18.898438 "/>
</g>
</svg>
