<?xml version="1.0" encoding="UTF-8"?>
<svg xmlns="http://www.w3.org/2000/svg" xmlns:xlink="http://www.w3.org/1999/xlink" width="24pt" height="24pt" viewBox="0 0 24 24" version="1.1">
<g id="surface51601">
<path style=" stroke:none;fill-rule:nonzero;fill:rgb(54.509807%,71.764708%,94.117647%);fill-opacity:1;" d="M 3.316406 22.648438 C 4.699219 20.9375 5.875 19.191406 7.011719 17.496094 C 8.210938 15.71875 9.445312 13.882812 10.914062 12.09375 L 10.992188 12 L 10.917969 11.90625 C 8.3125 8.667969 4.148438 2.613281 3.285156 1.351562 L 19.648438 1.351562 L 19.648438 6.4375 C 19.625 6.445312 19.59375 6.449219 19.550781 6.449219 C 19.453125 6.449219 19.34375 6.402344 19.210938 5.816406 C 18.796875 4.273438 18.128906 2.851562 16.023438 2.851562 L 9.484375 2.847656 C 9.175781 2.847656 9.148438 3.074219 9.148438 3.144531 L 9.148438 3.191406 L 9.179688 3.234375 C 10.09375 4.476562 10.832031 5.667969 11.546875 6.820312 C 12.339844 8.09375 13.15625 9.414062 14.207031 10.796875 C 11.847656 13.648438 7.714844 20.253906 7.671875 20.320312 L 7.53125 20.550781 L 16.199219 20.550781 C 17.828125 20.550781 19.21875 18.949219 19.6875 17.8125 C 19.753906 17.644531 19.851562 17.34375 19.90625 17.148438 C 20.089844 16.480469 20.542969 16.359375 20.820312 16.351562 L 19.675781 22.648438 Z M 3.316406 22.648438 "/>
<path style=" stroke:none;fill-rule:nonzero;fill:rgb(30.588236%,47.843137%,70.980394%);fill-opacity:1;" d="M 19.5 1.5 L 19.5 6.234375 C 19.464844 6.167969 19.414062 6.035156 19.355469 5.769531 C 18.929688 4.175781 18.226562 2.699219 16.023438 2.699219 L 9.480469 2.699219 C 9.125 2.699219 9 2.9375 9 3.144531 L 9 3.242188 L 9.058594 3.320312 C 9.96875 4.558594 10.707031 5.75 11.417969 6.898438 C 12.195312 8.148438 12.996094 9.4375 14.015625 10.792969 C 11.636719 13.699219 7.585938 20.175781 7.546875 20.242188 L 7.257812 20.699219 L 16.199219 20.699219 C 17.796875 20.699219 19.261719 19.242188 19.824219 17.871094 C 19.894531 17.695312 19.996094 17.386719 20.050781 17.1875 C 20.167969 16.757812 20.40625 16.585938 20.636719 16.527344 L 19.550781 22.5 L 3.628906 22.5 C 4.929688 20.863281 6.050781 19.195312 7.136719 17.582031 C 8.332031 15.808594 9.566406 13.972656 11.03125 12.191406 L 11.1875 12.003906 L 11.035156 11.8125 C 8.566406 8.746094 4.699219 3.148438 3.570312 1.5 L 19.5 1.5 M 19.800781 1.199219 L 3 1.199219 C 3 1.199219 7.859375 8.34375 10.800781 12 C 7.859375 15.574219 5.9375 19.222656 3 22.800781 C 3.226562 22.800781 19.800781 22.800781 19.800781 22.800781 L 21 16.210938 C 21 16.210938 20.945312 16.199219 20.855469 16.199219 C 20.578125 16.199219 19.984375 16.296875 19.761719 17.109375 C 19.703125 17.3125 19.609375 17.605469 19.546875 17.757812 C 19.070312 18.917969 17.722656 20.398438 16.199219 20.398438 C 13.183594 20.398438 7.800781 20.398438 7.800781 20.398438 C 7.800781 20.398438 12.03125 13.625 14.398438 10.800781 C 12.359375 8.140625 11.253906 5.804688 9.300781 3.144531 C 9.300781 3.011719 9.398438 3 9.480469 3 C 9.503906 3 9.523438 3 9.542969 3 C 9.625 3 13.578125 3 16.023438 3 C 17.820312 3 18.578125 4.023438 19.066406 5.847656 C 19.1875 6.378906 19.308594 6.601562 19.550781 6.601562 C 19.695312 6.601562 19.765625 6.554688 19.800781 6.515625 Z M 19.800781 1.199219 "/>
</g>
</svg>
