<?xml version="1.0" encoding="UTF-8"?>
<svg xmlns="http://www.w3.org/2000/svg" xmlns:xlink="http://www.w3.org/1999/xlink" width="24pt" height="24pt" viewBox="0 0 24 24" version="1.1">
<g id="surface40653">
<path style=" stroke:none;fill-rule:nonzero;fill:rgb(88.235295%,92.156863%,94.901961%);fill-opacity:1;" d="M 19.949219 1.648438 L 23.25 1.648438 L 23.25 22.351562 L 19.949219 22.351562 Z M 19.949219 1.648438 "/>
<path style=" stroke:none;fill-rule:nonzero;fill:rgb(63.921571%,71.764708%,80.000001%);fill-opacity:1;" d="M 23.101562 1.800781 L 23.101562 22.199219 L 20.101562 22.199219 L 20.101562 1.800781 L 23.101562 1.800781 M 23.398438 1.5 L 19.800781 1.5 L 19.800781 22.5 L 23.398438 22.5 Z M 23.398438 1.5 "/>
<path style=" stroke:none;fill-rule:nonzero;fill:rgb(88.235295%,92.156863%,94.901961%);fill-opacity:1;" d="M 15.148438 6.449219 L 18.449219 6.449219 L 18.449219 22.351562 L 15.148438 22.351562 Z M 15.148438 6.449219 "/>
<path style=" stroke:none;fill-rule:nonzero;fill:rgb(63.921571%,71.764708%,80.000001%);fill-opacity:1;" d="M 18.300781 6.601562 L 18.300781 22.199219 L 15.300781 22.199219 L 15.300781 6.601562 L 18.300781 6.601562 M 18.601562 6.300781 L 15 6.300781 L 15 22.5 L 18.601562 22.5 Z M 18.601562 6.300781 "/>
<path style=" stroke:none;fill-rule:nonzero;fill:rgb(72.941178%,87.843138%,74.117649%);fill-opacity:1;" d="M 10.351562 10.648438 L 13.648438 10.648438 L 13.648438 22.351562 L 10.351562 22.351562 Z M 10.351562 10.648438 "/>
<path style=" stroke:none;fill-rule:nonzero;fill:rgb(36.862746%,61.176473%,46.27451%);fill-opacity:1;" d="M 13.5 10.800781 L 13.5 22.199219 L 10.5 22.199219 L 10.5 10.800781 L 13.5 10.800781 M 13.800781 10.5 L 10.199219 10.5 L 10.199219 22.5 L 13.800781 22.5 Z M 13.800781 10.5 "/>
<path style=" stroke:none;fill-rule:nonzero;fill:rgb(72.941178%,87.843138%,74.117649%);fill-opacity:1;" d="M 5.550781 14.851562 L 8.851562 14.851562 L 8.851562 22.351562 L 5.550781 22.351562 Z M 5.550781 14.851562 "/>
<path style=" stroke:none;fill-rule:nonzero;fill:rgb(36.862746%,61.176473%,46.27451%);fill-opacity:1;" d="M 8.699219 15 L 8.699219 22.199219 L 5.699219 22.199219 L 5.699219 15 L 8.699219 15 M 9 14.699219 L 5.398438 14.699219 L 5.398438 22.5 L 9 22.5 Z M 9 14.699219 "/>
<path style=" stroke:none;fill-rule:nonzero;fill:rgb(72.941178%,87.843138%,74.117649%);fill-opacity:1;" d="M 0.75 17.851562 L 4.050781 17.851562 L 4.050781 22.351562 L 0.75 22.351562 Z M 0.75 17.851562 "/>
<path style=" stroke:none;fill-rule:nonzero;fill:rgb(36.862746%,61.176473%,46.27451%);fill-opacity:1;" d="M 3.898438 18 L 3.898438 22.199219 L 0.898438 22.199219 L 0.898438 18 L 3.898438 18 M 4.199219 17.699219 L 0.601562 17.699219 L 0.601562 22.5 L 4.199219 22.5 Z M 4.199219 17.699219 "/>
</g>
</svg>
