<?xml version="1.0" encoding="UTF-8"?>
<svg xmlns="http://www.w3.org/2000/svg" xmlns:xlink="http://www.w3.org/1999/xlink" width="24pt" height="24pt" viewBox="0 0 24 24" version="1.1">
<g id="surface4679">
<path style=" stroke:none;fill-rule:nonzero;fill:rgb(90.980393%,83.137256%,48.235294%);fill-opacity:1;" d="M 12 23.25 C 5.785156 23.25 0.75 18.214844 0.75 12 C 0.75 5.785156 5.785156 0.75 12 0.75 C 18.214844 0.75 23.25 5.785156 23.25 12 C 23.242188 18.210938 18.210938 23.242188 12 23.25 Z M 12 23.25 "/>
<path style=" stroke:none;fill-rule:nonzero;fill:rgb(72.941178%,60.784316%,28.235295%);fill-opacity:1;" d="M 12 0.898438 C 18.128906 0.898438 23.101562 5.871094 23.101562 12 C 23.101562 18.128906 18.128906 23.101562 12 23.101562 C 5.871094 23.101562 0.898438 18.128906 0.898438 12 C 0.898438 5.871094 5.871094 0.898438 12 0.898438 M 12 0.601562 C 5.703125 0.601562 0.601562 5.703125 0.601562 12 C 0.601562 18.296875 5.703125 23.398438 12 23.398438 C 18.296875 23.398438 23.398438 18.296875 23.398438 12 C 23.398438 5.703125 18.296875 0.601562 12 0.601562 Z M 12 0.601562 "/>
<path style=" stroke:none;fill-rule:nonzero;fill:rgb(100%,100%,100%);fill-opacity:1;" d="M 9 4.800781 L 10.800781 4.800781 L 10.800781 19.199219 L 9 19.199219 Z M 13.199219 4.800781 L 15 4.800781 L 15 19.199219 L 13.199219 19.199219 Z M 13.199219 4.800781 "/>
</g>
</svg>
