<?xml version="1.0" encoding="UTF-8"?>
<svg xmlns="http://www.w3.org/2000/svg" xmlns:xlink="http://www.w3.org/1999/xlink" width="24pt" height="24pt" viewBox="0 0 24 24" version="1.1">
<g id="surface6754">
<path style=" stroke:none;fill-rule:nonzero;fill:rgb(40.000001%,47.450981%,56.078434%);fill-opacity:1;" d="M 23.101562 19.800781 L 0.898438 19.800781 C 0.734375 19.800781 0.601562 19.664062 0.601562 19.5 C 0.601562 19.335938 0.734375 19.199219 0.898438 19.199219 L 23.101562 19.199219 C 23.265625 19.199219 23.398438 19.335938 23.398438 19.5 C 23.398438 19.664062 23.265625 19.800781 23.101562 19.800781 Z M 0.898438 11.699219 L 23.101562 11.699219 C 23.265625 11.699219 23.398438 11.835938 23.398438 12 C 23.398438 12.164062 23.265625 12.300781 23.101562 12.300781 L 0.898438 12.300781 C 0.734375 12.300781 0.601562 12.164062 0.601562 12 C 0.601562 11.835938 0.734375 11.699219 0.898438 11.699219 Z M 23.101562 4.800781 L 0.898438 4.800781 C 0.734375 4.800781 0.601562 4.664062 0.601562 4.5 C 0.601562 4.335938 0.734375 4.199219 0.898438 4.199219 L 23.101562 4.199219 C 23.265625 4.199219 23.398438 4.335938 23.398438 4.5 C 23.398438 4.664062 23.265625 4.800781 23.101562 4.800781 Z M 23.101562 4.800781 "/>
<path style=" stroke:none;fill-rule:nonzero;fill:rgb(72.941178%,87.843138%,74.117649%);fill-opacity:1;" d="M 10.5 2.550781 C 9.421875 2.550781 8.550781 3.421875 8.550781 4.5 C 8.550781 5.578125 9.421875 6.449219 10.5 6.449219 C 11.578125 6.449219 12.449219 5.578125 12.449219 4.5 C 12.449219 3.421875 11.578125 2.550781 10.5 2.550781 Z M 10.5 2.550781 "/>
<path style=" stroke:none;fill-rule:nonzero;fill:rgb(36.862746%,61.176473%,46.27451%);fill-opacity:1;" d="M 10.5 2.699219 C 11.492188 2.699219 12.300781 3.507812 12.300781 4.5 C 12.300781 5.492188 11.492188 6.300781 10.5 6.300781 C 9.507812 6.300781 8.699219 5.492188 8.699219 4.5 C 8.699219 3.507812 9.507812 2.699219 10.5 2.699219 M 10.5 2.398438 C 9.339844 2.398438 8.398438 3.339844 8.398438 4.5 C 8.398438 5.660156 9.339844 6.601562 10.5 6.601562 C 11.660156 6.601562 12.601562 5.660156 12.601562 4.5 C 12.601562 3.339844 11.660156 2.398438 10.5 2.398438 Z M 10.5 2.398438 "/>
<path style=" stroke:none;fill-rule:nonzero;fill:rgb(72.941178%,87.843138%,74.117649%);fill-opacity:1;" d="M 18.898438 10.050781 C 17.824219 10.050781 16.949219 10.921875 16.949219 12 C 16.949219 13.078125 17.824219 13.949219 18.898438 13.949219 C 19.976562 13.949219 20.851562 13.078125 20.851562 12 C 20.851562 10.921875 19.976562 10.050781 18.898438 10.050781 Z M 18.898438 10.050781 "/>
<path style=" stroke:none;fill-rule:nonzero;fill:rgb(36.862746%,61.176473%,46.27451%);fill-opacity:1;" d="M 18.898438 10.199219 C 19.890625 10.199219 20.699219 11.007812 20.699219 12 C 20.699219 12.992188 19.890625 13.800781 18.898438 13.800781 C 17.90625 13.800781 17.101562 12.992188 17.101562 12 C 17.101562 11.007812 17.90625 10.199219 18.898438 10.199219 M 18.898438 9.898438 C 17.738281 9.898438 16.800781 10.839844 16.800781 12 C 16.800781 13.160156 17.738281 14.101562 18.898438 14.101562 C 20.058594 14.101562 21 13.160156 21 12 C 21 10.839844 20.058594 9.898438 18.898438 9.898438 Z M 18.898438 9.898438 "/>
<path style=" stroke:none;fill-rule:nonzero;fill:rgb(72.941178%,87.843138%,74.117649%);fill-opacity:1;" d="M 6.898438 17.550781 C 5.824219 17.550781 4.949219 18.421875 4.949219 19.5 C 4.949219 20.578125 5.824219 21.449219 6.898438 21.449219 C 7.976562 21.449219 8.851562 20.578125 8.851562 19.5 C 8.851562 18.421875 7.976562 17.550781 6.898438 17.550781 Z M 6.898438 17.550781 "/>
<path style=" stroke:none;fill-rule:nonzero;fill:rgb(36.862746%,61.176473%,46.27451%);fill-opacity:1;" d="M 6.898438 17.699219 C 7.890625 17.699219 8.699219 18.507812 8.699219 19.5 C 8.699219 20.492188 7.890625 21.300781 6.898438 21.300781 C 5.90625 21.300781 5.101562 20.492188 5.101562 19.5 C 5.101562 18.507812 5.90625 17.699219 6.898438 17.699219 M 6.898438 17.398438 C 5.738281 17.398438 4.800781 18.339844 4.800781 19.5 C 4.800781 20.660156 5.738281 21.601562 6.898438 21.601562 C 8.058594 21.601562 9 20.660156 9 19.5 C 9 18.339844 8.058594 17.398438 6.898438 17.398438 Z M 6.898438 17.398438 "/>
</g>
</svg>
