<?xml version="1.0" encoding="UTF-8"?>
<svg xmlns="http://www.w3.org/2000/svg" xmlns:xlink="http://www.w3.org/1999/xlink" width="24pt" height="24pt" viewBox="0 0 24 24" version="1.1">
<g id="surface50662">
<path style=" stroke:none;fill-rule:nonzero;fill:rgb(100%,93.333334%,63.921571%);fill-opacity:1;" d="M 4.5 14.398438 L 5.398438 14.398438 L 5.398438 14.699219 L 4.5 14.699219 Z M 4.5 14.398438 "/>
<path style=" stroke:none;fill-rule:nonzero;fill:rgb(69.01961%,75.686276%,83.137256%);fill-opacity:1;" d="M 9.75 16.648438 L 14.25 16.648438 L 14.25 20.550781 L 9.75 20.550781 Z M 9.75 16.648438 "/>
<path style=" stroke:none;fill-rule:nonzero;fill:rgb(40.000001%,47.450981%,56.078434%);fill-opacity:1;" d="M 14.101562 16.800781 L 14.101562 20.398438 L 9.898438 20.398438 L 9.898438 16.800781 L 14.101562 16.800781 M 14.398438 16.5 L 9.601562 16.5 L 9.601562 20.699219 L 14.398438 20.699219 Z M 14.398438 16.5 "/>
<path style=" stroke:none;fill-rule:nonzero;fill:rgb(85.09804%,94.901961%,100%);fill-opacity:1;" d="M 0.75 2.25 L 23.25 2.25 L 23.25 18.148438 L 0.75 18.148438 Z M 0.75 2.25 "/>
<path style=" stroke:none;fill-rule:nonzero;fill:rgb(40.000001%,47.450981%,56.078434%);fill-opacity:1;" d="M 23.101562 2.398438 L 23.101562 18 L 0.898438 18 L 0.898438 2.398438 L 23.101562 2.398438 M 23.398438 2.101562 L 0.601562 2.101562 L 0.601562 18.300781 L 23.398438 18.300781 Z M 23.398438 2.101562 "/>
<path style=" stroke:none;fill-rule:nonzero;fill:rgb(40.000001%,47.450981%,56.078434%);fill-opacity:1;" d="M 0.601562 15.300781 L 23.398438 15.300781 L 23.398438 18.300781 L 0.601562 18.300781 Z M 18.601562 21.898438 L 5.398438 21.898438 C 5.398438 20.910156 6.210938 20.101562 7.199219 20.101562 L 16.800781 20.101562 C 17.789062 20.101562 18.601562 20.910156 18.601562 21.898438 Z M 18.601562 21.898438 "/>
<path style=" stroke:none;fill-rule:nonzero;fill:rgb(100%,93.333334%,63.921571%);fill-opacity:1;" d="M 20.398438 16.5 L 22.199219 16.5 L 22.199219 17.101562 L 20.398438 17.101562 Z M 20.398438 16.5 "/>
<path style=" stroke:none;fill-rule:nonzero;fill:rgb(30.588236%,47.843137%,70.980394%);fill-opacity:1;" d="M 13.5 13.558594 L 9.601562 5.789062 L 7.980469 9.300781 L 0.898438 9.300781 L 0.898438 8.699219 L 7.621094 8.699219 L 9.601562 4.410156 L 13.5 12.238281 L 15.421875 8.699219 L 23.101562 8.699219 L 23.101562 9.300781 L 15.78125 9.300781 Z M 13.5 13.558594 "/>
</g>
</svg>
