<?xml version="1.0" encoding="UTF-8"?>
<svg xmlns="http://www.w3.org/2000/svg" xmlns:xlink="http://www.w3.org/1999/xlink" width="24pt" height="24pt" viewBox="0 0 24 24" version="1.1">
<g id="surface7266">
<path style=" stroke:none;fill-rule:nonzero;fill:rgb(40.000001%,47.450981%,56.078434%);fill-opacity:1;" d="M 16.199219 6.300781 L 15 6.300781 L 15 4.5 C 15 4.171875 14.730469 3.898438 14.398438 3.898438 L 9.601562 3.898438 C 9.269531 3.898438 9 4.171875 9 4.5 L 9 6.300781 L 7.800781 6.300781 L 7.800781 4.5 C 7.800781 3.511719 8.609375 2.699219 9.601562 2.699219 L 14.398438 2.699219 C 15.390625 2.699219 16.199219 3.511719 16.199219 4.5 Z M 16.199219 6.300781 "/>
<path style=" stroke:none;fill-rule:nonzero;fill:rgb(100%,93.333334%,63.921571%);fill-opacity:1;" d="M 0.449219 10.050781 L 23.550781 10.050781 L 23.550781 21.148438 L 0.449219 21.148438 Z M 0.449219 10.050781 "/>
<path style=" stroke:none;fill-rule:nonzero;fill:rgb(72.941178%,60.784316%,28.235295%);fill-opacity:1;" d="M 23.398438 10.199219 L 23.398438 21 L 0.601562 21 L 0.601562 10.199219 L 23.398438 10.199219 M 23.699219 9.898438 L 0.300781 9.898438 L 0.300781 21.300781 L 23.699219 21.300781 Z M 23.699219 9.898438 "/>
<path style=" stroke:none;fill-rule:nonzero;fill:rgb(88.235295%,92.156863%,94.901961%);fill-opacity:1;" d="M 0.449219 11.851562 L 0.449219 6.898438 C 0.449219 6.328125 0.929688 5.851562 1.5 5.851562 L 22.5 5.851562 C 23.070312 5.851562 23.550781 6.328125 23.550781 6.898438 L 23.550781 11.851562 Z M 0.449219 11.851562 "/>
<path style=" stroke:none;fill-rule:nonzero;fill:rgb(47.058824%,54.509807%,61.176473%);fill-opacity:1;" d="M 22.5 6 C 23.011719 6 23.398438 6.390625 23.398438 6.898438 L 23.398438 11.699219 L 0.601562 11.699219 L 0.601562 6.898438 C 0.601562 6.390625 0.988281 6 1.5 6 L 22.5 6 M 22.5 5.699219 L 1.5 5.699219 C 0.839844 5.699219 0.300781 6.238281 0.300781 6.898438 L 0.300781 12 L 23.699219 12 L 23.699219 6.898438 C 23.699219 6.238281 23.160156 5.699219 22.5 5.699219 Z M 22.5 5.699219 "/>
<path style=" stroke:none;fill-rule:nonzero;fill:rgb(100%,100%,100%);fill-opacity:1;" d="M 5.25 10.050781 L 7.648438 10.050781 L 7.648438 13.949219 L 5.25 13.949219 Z M 5.25 10.050781 "/>
<path style=" stroke:none;fill-rule:nonzero;fill:rgb(47.058824%,54.509807%,61.176473%);fill-opacity:1;" d="M 7.5 10.199219 L 7.5 13.800781 L 5.398438 13.800781 L 5.398438 10.199219 L 7.5 10.199219 M 7.800781 9.898438 L 5.101562 9.898438 L 5.101562 14.101562 L 7.800781 14.101562 Z M 7.800781 9.898438 "/>
<path style=" stroke:none;fill-rule:nonzero;fill:rgb(100%,100%,100%);fill-opacity:1;" d="M 16.351562 10.050781 L 18.75 10.050781 L 18.75 13.949219 L 16.351562 13.949219 Z M 16.351562 10.050781 "/>
<path style=" stroke:none;fill-rule:nonzero;fill:rgb(47.058824%,54.509807%,61.176473%);fill-opacity:1;" d="M 18.601562 10.199219 L 18.601562 13.800781 L 16.5 13.800781 L 16.5 10.199219 L 18.601562 10.199219 M 18.898438 9.898438 L 16.199219 9.898438 L 16.199219 14.101562 L 18.898438 14.101562 Z M 18.898438 9.898438 "/>
</g>
</svg>
