<?xml version="1.0" encoding="UTF-8"?>
<svg xmlns="http://www.w3.org/2000/svg" xmlns:xlink="http://www.w3.org/1999/xlink" width="24pt" height="24pt" viewBox="0 0 24 24" version="1.1">
<g id="surface30800">
<path style=" stroke:none;fill-rule:nonzero;fill:rgb(100%,93.333334%,63.921571%);fill-opacity:1;" d="M 7.949219 13.949219 L 9.148438 13.949219 L 9.148438 22.648438 L 7.949219 22.648438 Z M 7.949219 13.949219 "/>
<path style=" stroke:none;fill-rule:nonzero;fill:rgb(96.078432%,76.078433%,46.27451%);fill-opacity:1;" d="M 9 14.101562 L 9 22.5 L 8.101562 22.5 L 8.101562 14.101562 L 9 14.101562 M 9.300781 13.800781 L 7.800781 13.800781 L 7.800781 22.800781 L 9.300781 22.800781 Z M 9.300781 13.800781 "/>
<path style=" stroke:none;fill-rule:nonzero;fill:rgb(100%,93.333334%,63.921571%);fill-opacity:1;" d="M 15.148438 13.949219 L 16.351562 13.949219 L 16.351562 22.648438 L 15.148438 22.648438 Z M 15.148438 13.949219 "/>
<path style=" stroke:none;fill-rule:nonzero;fill:rgb(96.078432%,76.078433%,46.27451%);fill-opacity:1;" d="M 16.199219 14.101562 L 16.199219 22.5 L 15.300781 22.5 L 15.300781 14.101562 L 16.199219 14.101562 M 16.5 13.800781 L 15 13.800781 L 15 22.800781 L 16.5 22.800781 Z M 16.5 13.800781 "/>
<path style=" stroke:none;fill-rule:nonzero;fill:rgb(100%,93.333334%,63.921571%);fill-opacity:1;" d="M 11.550781 13.949219 L 12.75 13.949219 L 12.75 22.648438 L 11.550781 22.648438 Z M 11.550781 13.949219 "/>
<path style=" stroke:none;fill-rule:nonzero;fill:rgb(96.078432%,76.078433%,46.27451%);fill-opacity:1;" d="M 12.601562 14.101562 L 12.601562 22.5 L 11.699219 22.5 L 11.699219 14.101562 L 12.601562 14.101562 M 12.898438 13.800781 L 11.398438 13.800781 L 11.398438 22.800781 L 12.898438 22.800781 Z M 12.898438 13.800781 "/>
<path style=" stroke:none;fill-rule:nonzero;fill:rgb(100%,93.333334%,63.921571%);fill-opacity:1;" d="M 5.851562 6.148438 L 5.851562 3.363281 L 7.863281 1.351562 L 16.445312 1.351562 L 18.449219 3.070312 L 18.449219 6.148438 Z M 12.148438 2.257812 C 11.324219 2.257812 10.648438 2.929688 10.648438 3.757812 C 10.648438 4.585938 11.324219 5.257812 12.148438 5.257812 C 12.976562 5.257812 13.648438 4.585938 13.648438 3.757812 C 13.648438 2.929688 12.976562 2.257812 12.148438 2.257812 Z M 12.148438 2.257812 "/>
<path style=" stroke:none;fill-rule:nonzero;fill:rgb(96.078432%,76.078433%,46.27451%);fill-opacity:1;" d="M 16.390625 1.5 L 18.300781 3.136719 L 18.300781 6 L 6 6 L 6 3.425781 L 7.925781 1.5 L 16.390625 1.5 M 12.148438 5.40625 C 13.058594 5.40625 13.800781 4.667969 13.800781 3.757812 C 13.800781 2.847656 13.058594 2.109375 12.148438 2.109375 C 11.238281 2.109375 10.5 2.847656 10.5 3.757812 C 10.5 4.667969 11.238281 5.40625 12.148438 5.40625 M 16.5 1.199219 L 7.800781 1.199219 L 5.699219 3.300781 L 5.699219 6.300781 L 18.601562 6.300781 L 18.601562 3 Z M 12.148438 5.109375 C 11.40625 5.109375 10.800781 4.503906 10.800781 3.757812 C 10.800781 3.011719 11.40625 2.40625 12.148438 2.40625 C 12.894531 2.40625 13.5 3.011719 13.5 3.757812 C 13.5 4.503906 12.894531 5.109375 12.148438 5.109375 Z M 12.148438 5.109375 "/>
<path style=" stroke:none;fill-rule:nonzero;fill:rgb(29.411766%,39.215687%,46.666667%);fill-opacity:1;" d="M 5.851562 5.851562 L 18.449219 5.851562 L 18.449219 15.75 L 5.851562 15.75 Z M 5.851562 5.851562 "/>
<path style=" stroke:none;fill-rule:nonzero;fill:rgb(21.176471%,25.098041%,30.19608%);fill-opacity:1;" d="M 18.300781 6 L 18.300781 15.601562 L 6 15.601562 L 6 6 L 18.300781 6 M 18.601562 5.699219 L 5.699219 5.699219 L 5.699219 15.898438 L 18.601562 15.898438 Z M 18.601562 5.699219 "/>
<path style=" stroke:none;fill-rule:nonzero;fill:rgb(21.176471%,25.098041%,30.19608%);fill-opacity:1;" d="M 6.085938 9 C 5.96875 9 5.855469 9.011719 5.742188 9.035156 L 5.742188 12.5625 C 5.855469 12.585938 5.96875 12.601562 6.085938 12.601562 C 7.03125 12.601562 7.800781 11.792969 7.800781 10.800781 C 7.800781 9.804688 7.03125 9 6.085938 9 Z M 18.214844 9 C 18.332031 9 18.445312 9.011719 18.558594 9.035156 L 18.558594 12.5625 C 18.445312 12.585938 18.332031 12.601562 18.214844 12.601562 C 17.265625 12.601562 16.5 11.792969 16.5 10.800781 C 16.5 9.804688 17.265625 9 18.214844 9 Z M 18.214844 9 "/>
</g>
</svg>
