<?xml version="1.0" encoding="UTF-8"?>
<svg xmlns="http://www.w3.org/2000/svg" xmlns:xlink="http://www.w3.org/1999/xlink" width="24pt" height="24pt" viewBox="0 0 24 24" version="1.1">
<g id="surface7649">
<path style=" stroke:none;fill-rule:nonzero;fill:rgb(76.078433%,90.980393%,100%);fill-opacity:1;" d="M 3.898438 16.949219 C 1.832031 16.949219 0.148438 15.269531 0.148438 13.199219 C 0.148438 11.132812 1.832031 9.449219 3.898438 9.449219 C 4.210938 9.449219 4.535156 9.492188 4.855469 9.578125 L 5.003906 9.617188 L 5.039062 9.46875 C 5.304688 8.351562 6.160156 7.46875 7.265625 7.167969 L 7.363281 7.136719 L 7.375 7.035156 C 7.609375 4.648438 9.597656 2.851562 12 2.851562 C 13.773438 2.851562 15.367188 3.839844 16.160156 5.433594 L 16.222656 5.554688 L 16.347656 5.503906 C 16.785156 5.335938 17.242188 5.25 17.699219 5.25 C 19.769531 5.25 21.449219 6.933594 21.449219 9 C 21.449219 9.171875 21.433594 9.347656 21.402344 9.558594 L 21.386719 9.675781 L 21.496094 9.722656 C 22.925781 10.296875 23.851562 11.660156 23.851562 13.199219 C 23.851562 15.269531 22.167969 16.949219 20.101562 16.949219 Z M 3.898438 16.949219 "/>
<path style=" stroke:none;fill-rule:nonzero;fill:rgb(45.490196%,58.823532%,76.862746%);fill-opacity:1;" d="M 12 3 C 13.714844 3 15.257812 3.957031 16.027344 5.5 L 16.148438 5.742188 L 16.402344 5.644531 C 16.824219 5.484375 17.257812 5.398438 17.699219 5.398438 C 19.683594 5.398438 21.300781 7.015625 21.300781 9 C 21.300781 9.164062 21.285156 9.332031 21.253906 9.539062 L 21.21875 9.773438 L 21.441406 9.859375 C 22.8125 10.410156 23.699219 11.722656 23.699219 13.199219 C 23.699219 15.183594 22.085938 16.800781 20.101562 16.800781 L 3.898438 16.800781 C 1.914062 16.800781 0.300781 15.183594 0.300781 13.199219 C 0.300781 11.214844 1.914062 9.601562 3.898438 9.601562 C 4.199219 9.601562 4.507812 9.640625 4.816406 9.722656 L 5.113281 9.800781 L 5.183594 9.503906 C 5.4375 8.441406 6.25 7.601562 7.304688 7.308594 L 7.503906 7.253906 L 7.523438 7.050781 C 7.75 4.742188 9.675781 3 12 3 M 12 2.699219 C 9.511719 2.699219 7.464844 4.59375 7.222656 7.019531 C 6.070312 7.339844 5.171875 8.265625 4.894531 9.433594 C 4.574219 9.347656 4.242188 9.300781 3.898438 9.300781 C 1.746094 9.300781 0 11.046875 0 13.199219 C 0 15.355469 1.746094 17.101562 3.898438 17.101562 C 5.957031 17.101562 17.945312 17.101562 20.101562 17.101562 C 22.253906 17.101562 24 15.355469 24 13.199219 C 24 11.558594 22.984375 10.160156 21.550781 9.582031 C 21.582031 9.390625 21.601562 9.199219 21.601562 9 C 21.601562 6.847656 19.855469 5.101562 17.699219 5.101562 C 17.203125 5.101562 16.730469 5.195312 16.292969 5.363281 C 15.507812 3.785156 13.882812 2.699219 12 2.699219 Z M 12 2.699219 "/>
<path style=" stroke:none;fill-rule:nonzero;fill:rgb(76.078433%,90.980393%,100%);fill-opacity:1;" d="M 10.199219 15.898438 L 13.800781 15.898438 L 13.800781 17.101562 L 10.199219 17.101562 Z M 10.199219 15.898438 "/>
<path style=" stroke:none;fill-rule:nonzero;fill:rgb(30.588236%,47.843137%,70.980394%);fill-opacity:1;" d="M 11.398438 12.898438 L 11.398438 21.300781 L 12.601562 21.300781 L 12.601562 12.898438 L 15.601562 12.898438 L 12 9.300781 L 8.398438 12.898438 Z M 11.398438 12.898438 "/>
</g>
</svg>
