<?xml version="1.0" encoding="UTF-8"?>
<svg xmlns="http://www.w3.org/2000/svg" xmlns:xlink="http://www.w3.org/1999/xlink" width="24pt" height="24pt" viewBox="0 0 24 24" version="1.1">
<g id="surface50223">
<path style=" stroke:none;fill-rule:nonzero;fill:rgb(100%,100%,100%);fill-opacity:1;" d="M 1.351562 22.050781 L 1.351562 1.949219 L 22.648438 1.949219 L 22.648438 21.601562 C 22.648438 21.839844 22.441406 22.050781 22.199219 22.050781 Z M 1.351562 22.050781 "/>
<path style=" stroke:none;fill-rule:nonzero;fill:rgb(47.058824%,54.509807%,61.176473%);fill-opacity:1;" d="M 22.5 2.101562 L 22.5 21.601562 C 22.5 21.78125 22.378906 21.898438 22.199219 21.898438 L 1.5 21.898438 L 1.5 2.101562 L 22.5 2.101562 M 22.800781 1.800781 L 1.199219 1.800781 L 1.199219 22.199219 L 22.199219 22.199219 C 22.53125 22.199219 22.800781 21.929688 22.800781 21.601562 Z M 22.800781 1.800781 "/>
<path style=" stroke:none;fill-rule:nonzero;fill:rgb(47.058824%,54.509807%,61.176473%);fill-opacity:1;" d="M 1.199219 1.800781 L 22.800781 1.800781 L 22.800781 5.398438 L 1.199219 5.398438 Z M 1.199219 1.800781 "/>
<path style=" stroke:none;fill-rule:nonzero;fill:rgb(54.509807%,71.764708%,94.117647%);fill-opacity:1;" d="M 7.800781 9.898438 L 18.601562 9.898438 L 18.601562 10.199219 L 7.800781 10.199219 Z M 5.398438 9.898438 L 6.300781 9.898438 L 6.300781 10.199219 L 5.398438 10.199219 Z M 7.800781 12.300781 L 18.601562 12.300781 L 18.601562 12.601562 L 7.800781 12.601562 Z M 5.398438 12.300781 L 6.300781 12.300781 L 6.300781 12.601562 L 5.398438 12.601562 Z M 7.800781 14.699219 L 18.601562 14.699219 L 18.601562 15 L 7.800781 15 Z M 5.398438 14.699219 L 6.300781 14.699219 L 6.300781 15 L 5.398438 15 Z M 7.800781 17.101562 L 18.601562 17.101562 L 18.601562 17.398438 L 7.800781 17.398438 Z M 5.398438 17.101562 L 6.300781 17.101562 L 6.300781 17.398438 L 5.398438 17.398438 Z M 5.398438 17.101562 "/>
<path style=" stroke:none;fill-rule:nonzero;fill:rgb(76.078433%,90.980393%,100%);fill-opacity:1;" d="M 17.398438 17.398438 L 17.398438 17.101562 L 15.328125 17.101562 L 15.179688 17.398438 Z M 18.300781 14.699219 L 16.738281 14.699219 L 16.558594 15 L 18.300781 15 Z M 18.300781 14.699219 "/>
<path style=" stroke:none;fill-rule:nonzero;fill:rgb(78.431374%,81.960785%,85.882354%);fill-opacity:1;" d="M 14.398438 22.199219 L 14.398438 21.898438 L 12.570312 21.898438 L 12.390625 22.199219 Z M 22.5 18.210938 L 22.5 21.300781 L 22.800781 21.300781 L 22.800781 18.71875 Z M 22.5 18.210938 "/>
<path style=" stroke:none;fill-rule:nonzero;fill:rgb(100%,93.333334%,63.921571%);fill-opacity:1;" d="M 13.828125 23.851562 C 13.648438 23.851562 13.5 23.761719 13.410156 23.609375 C 13.320312 23.460938 13.320312 23.28125 13.410156 23.128906 L 18.179688 14.851562 C 18.269531 14.699219 18.421875 14.609375 18.601562 14.609375 C 18.78125 14.609375 18.929688 14.699219 19.019531 14.851562 L 23.789062 23.128906 C 23.878906 23.28125 23.878906 23.460938 23.789062 23.609375 C 23.699219 23.761719 23.550781 23.851562 23.371094 23.851562 Z M 13.828125 23.851562 "/>
<path style=" stroke:none;fill-rule:nonzero;fill:rgb(72.941178%,60.784316%,28.235295%);fill-opacity:1;" d="M 18.601562 14.789062 C 18.660156 14.789062 18.808594 14.820312 18.871094 14.941406 L 23.640625 23.21875 C 23.730469 23.371094 23.671875 23.488281 23.640625 23.550781 C 23.609375 23.609375 23.550781 23.699219 23.371094 23.699219 L 13.828125 23.699219 C 13.648438 23.699219 13.589844 23.578125 13.558594 23.550781 C 13.53125 23.519531 13.46875 23.371094 13.558594 23.21875 L 18.328125 14.941406 C 18.390625 14.789062 18.539062 14.789062 18.601562 14.789062 M 18.601562 14.488281 C 18.390625 14.488281 18.179688 14.578125 18.058594 14.789062 L 13.289062 23.070312 C 13.050781 23.488281 13.351562 24 13.828125 24 L 23.371094 24 C 23.851562 24 24.148438 23.488281 23.910156 23.070312 L 19.140625 14.789062 C 19.019531 14.578125 18.808594 14.488281 18.601562 14.488281 Z M 18.601562 14.488281 "/>
<path style=" stroke:none;fill-rule:nonzero;fill:rgb(21.176471%,25.098041%,30.19608%);fill-opacity:1;" d="M 18.628906 22.46875 C 18.449219 22.46875 18.328125 22.410156 18.210938 22.320312 C 18.089844 22.230469 18.03125 22.078125 18.03125 21.960938 C 18.03125 21.808594 18.089844 21.691406 18.210938 21.570312 C 18.328125 21.449219 18.449219 21.421875 18.628906 21.421875 C 18.808594 21.421875 18.929688 21.480469 19.050781 21.570312 C 19.171875 21.660156 19.199219 21.78125 19.199219 21.929688 C 19.199219 22.078125 19.140625 22.199219 19.050781 22.320312 C 18.929688 22.410156 18.78125 22.46875 18.628906 22.46875 Z M 19.140625 17.820312 L 19.019531 20.96875 L 18.210938 20.96875 L 18.089844 17.820312 Z M 19.140625 17.820312 "/>
</g>
</svg>
