<?xml version="1.0" encoding="UTF-8"?>
<svg xmlns="http://www.w3.org/2000/svg" xmlns:xlink="http://www.w3.org/1999/xlink" width="24pt" height="24pt" viewBox="0 0 24 24" version="1.1">
<g id="surface22428">
<path style=" stroke:none;fill-rule:nonzero;fill:rgb(40.000001%,47.450981%,56.078434%);fill-opacity:1;" d="M 11.398438 6.898438 L 12.300781 6.898438 L 12.300781 12.371094 L 11.398438 12.371094 Z M 11.398438 6.898438 "/>
<path style=" stroke:none;fill-rule:nonzero;fill:rgb(54.509807%,71.764708%,94.117647%);fill-opacity:1;" d="M 4.199219 22.648438 C 3.289062 22.648438 2.550781 21.910156 2.550781 21 L 2.550781 12.300781 C 2.550781 11.390625 3.289062 10.648438 4.199219 10.648438 L 19.5 10.648438 C 20.410156 10.648438 21.148438 11.390625 21.148438 12.300781 L 21.148438 21 C 21.148438 21.910156 20.410156 22.648438 19.5 22.648438 Z M 4.199219 22.648438 "/>
<path style=" stroke:none;fill-rule:nonzero;fill:rgb(30.588236%,47.843137%,70.980394%);fill-opacity:1;" d="M 19.5 10.800781 C 20.328125 10.800781 21 11.472656 21 12.300781 L 21 21 C 21 21.828125 20.328125 22.5 19.5 22.5 L 4.199219 22.5 C 3.371094 22.5 2.699219 21.828125 2.699219 21 L 2.699219 12.300781 C 2.699219 11.472656 3.371094 10.800781 4.199219 10.800781 L 19.5 10.800781 M 19.5 10.5 L 4.199219 10.5 C 3.210938 10.5 2.398438 11.308594 2.398438 12.300781 L 2.398438 21 C 2.398438 21.988281 3.210938 22.800781 4.199219 22.800781 L 19.5 22.800781 C 20.488281 22.800781 21.300781 21.988281 21.300781 21 L 21.300781 12.300781 C 21.300781 11.308594 20.488281 10.5 19.5 10.5 Z M 19.5 10.5 "/>
<path style=" stroke:none;fill-rule:nonzero;fill:rgb(100%,100%,100%);fill-opacity:1;" d="M 5.550781 13.648438 L 18.148438 13.648438 L 18.148438 19.648438 L 5.550781 19.648438 Z M 5.550781 13.648438 "/>
<path style=" stroke:none;fill-rule:nonzero;fill:rgb(30.588236%,47.843137%,70.980394%);fill-opacity:1;" d="M 18 13.800781 L 18 19.5 L 5.699219 19.5 L 5.699219 13.800781 L 18 13.800781 M 18.300781 13.5 L 5.398438 13.5 L 5.398438 19.800781 L 18.300781 19.800781 Z M 18.300781 13.5 "/>
<path style=" stroke:none;fill-rule:nonzero;fill:rgb(30.588236%,47.843137%,70.980394%);fill-opacity:1;" d="M 8.699219 13.800781 L 8.398438 13.800781 L 8.398438 15.601562 L 8.699219 15.601562 Z M 8.699219 13.800781 "/>
<path style=" stroke:none;fill-rule:nonzero;fill:rgb(78.039217%,26.274511%,26.274511%);fill-opacity:1;" d="M 12 13.800781 L 11.699219 13.800781 L 11.699219 15.601562 L 12 15.601562 Z M 12 13.800781 "/>
<path style=" stroke:none;fill-rule:nonzero;fill:rgb(30.588236%,47.843137%,70.980394%);fill-opacity:1;" d="M 15.300781 13.800781 L 15 13.800781 L 15 15.601562 L 15.300781 15.601562 Z M 15.300781 13.800781 "/>
<path style=" stroke:none;fill-rule:nonzero;fill:rgb(21.176471%,25.098041%,30.19608%);fill-opacity:1;" d="M 13.050781 15.898438 L 14.101562 19.5 L 12 19.5 Z M 13.050781 15.898438 "/>
<path style=" stroke:none;fill-rule:nonzero;fill:rgb(88.235295%,92.156863%,94.901961%);fill-opacity:1;" d="M 4.5 8.550781 C 2.433594 8.550781 0.75 6.867188 0.75 4.800781 C 0.75 2.730469 2.433594 1.050781 4.5 1.050781 C 6.566406 1.050781 8.25 2.730469 8.25 4.800781 C 8.25 6.867188 6.566406 8.550781 4.5 8.550781 Z M 4.5 8.550781 "/>
<path style=" stroke:none;fill-rule:nonzero;fill:rgb(47.058824%,54.509807%,61.176473%);fill-opacity:1;" d="M 4.5 1.199219 C 6.484375 1.199219 8.101562 2.816406 8.101562 4.800781 C 8.101562 6.785156 6.484375 8.398438 4.5 8.398438 C 2.515625 8.398438 0.898438 6.785156 0.898438 4.800781 C 0.898438 2.816406 2.515625 1.199219 4.5 1.199219 M 4.5 0.898438 C 2.347656 0.898438 0.601562 2.644531 0.601562 4.800781 C 0.601562 6.953125 2.347656 8.699219 4.5 8.699219 C 6.652344 8.699219 8.398438 6.953125 8.398438 4.800781 C 8.398438 2.644531 6.652344 0.898438 4.5 0.898438 Z M 4.5 0.898438 "/>
<path style=" stroke:none;fill-rule:nonzero;fill:rgb(21.176471%,25.098041%,30.19608%);fill-opacity:1;" d="M 4.199219 4.5 L 18.300781 4.5 L 18.300781 5.101562 L 4.199219 5.101562 Z M 4.199219 4.5 "/>
<path style=" stroke:none;fill-rule:nonzero;fill:rgb(88.235295%,92.156863%,94.901961%);fill-opacity:1;" d="M 19.199219 8.550781 C 17.132812 8.550781 15.449219 6.867188 15.449219 4.800781 C 15.449219 2.730469 17.132812 1.050781 19.199219 1.050781 C 21.269531 1.050781 22.949219 2.730469 22.949219 4.800781 C 22.949219 6.867188 21.269531 8.550781 19.199219 8.550781 Z M 19.199219 8.550781 "/>
<path style=" stroke:none;fill-rule:nonzero;fill:rgb(47.058824%,54.509807%,61.176473%);fill-opacity:1;" d="M 19.199219 1.199219 C 21.183594 1.199219 22.800781 2.816406 22.800781 4.800781 C 22.800781 6.785156 21.183594 8.398438 19.199219 8.398438 C 17.214844 8.398438 15.601562 6.785156 15.601562 4.800781 C 15.601562 2.816406 17.214844 1.199219 19.199219 1.199219 M 19.199219 0.898438 C 17.046875 0.898438 15.300781 2.644531 15.300781 4.800781 C 15.300781 6.953125 17.046875 8.699219 19.199219 8.699219 C 21.355469 8.699219 23.101562 6.953125 23.101562 4.800781 C 23.101562 2.644531 21.355469 0.898438 19.199219 0.898438 Z M 19.199219 0.898438 "/>
<path style=" stroke:none;fill-rule:nonzero;fill:rgb(40.000001%,47.450981%,56.078434%);fill-opacity:1;" d="M 19.199219 2.699219 C 18.039062 2.699219 17.101562 3.640625 17.101562 4.800781 C 17.101562 5.960938 18.039062 6.898438 19.199219 6.898438 C 20.359375 6.898438 21.300781 5.960938 21.300781 4.800781 C 21.300781 3.640625 20.359375 2.699219 19.199219 2.699219 Z M 19.199219 2.699219 "/>
<path style=" stroke:none;fill-rule:nonzero;fill:rgb(88.235295%,92.156863%,94.901961%);fill-opacity:1;" d="M 9.75 8.550781 L 9.75 1.050781 L 9.898438 1.050781 C 11.96875 1.050781 13.648438 2.730469 13.648438 4.800781 C 13.648438 6.867188 11.96875 8.550781 9.898438 8.550781 Z M 9.75 8.550781 "/>
<path style=" stroke:none;fill-rule:nonzero;fill:rgb(47.058824%,54.509807%,61.176473%);fill-opacity:1;" d="M 9.898438 1.199219 C 11.886719 1.199219 13.5 2.816406 13.5 4.800781 C 13.5 6.785156 11.886719 8.398438 9.898438 8.398438 L 9.898438 1.199219 M 9.898438 0.898438 L 9.601562 0.898438 L 9.601562 8.699219 L 9.898438 8.699219 C 12.054688 8.699219 13.800781 6.953125 13.800781 4.800781 C 13.800781 2.644531 12.054688 0.898438 9.898438 0.898438 Z M 9.898438 0.898438 "/>
</g>
</svg>
