<?xml version="1.0" encoding="UTF-8"?>
<svg xmlns="http://www.w3.org/2000/svg" xmlns:xlink="http://www.w3.org/1999/xlink" width="24pt" height="24pt" viewBox="0 0 24 24" version="1.1">
<g id="surface9752">
<path style=" stroke:none;fill-rule:nonzero;fill:rgb(54.509807%,71.764708%,94.117647%);fill-opacity:1;" d="M 0.75 15.75 L 8.25 15.75 L 8.25 23.25 L 0.75 23.25 Z M 0.75 15.75 "/>
<path style=" stroke:none;fill-rule:nonzero;fill:rgb(30.588236%,47.843137%,70.980394%);fill-opacity:1;" d="M 8.101562 15.898438 L 8.101562 23.101562 L 0.898438 23.101562 L 0.898438 15.898438 L 8.101562 15.898438 M 8.398438 15.601562 L 0.601562 15.601562 L 0.601562 23.398438 L 8.398438 23.398438 Z M 8.398438 15.601562 "/>
<path style=" stroke:none;fill-rule:nonzero;fill:rgb(96.078432%,80.784315%,52.156866%);fill-opacity:1;" d="M 15.363281 4.5 L 19.5 0.363281 L 23.636719 4.5 L 19.5 8.636719 Z M 15.363281 4.5 "/>
<path style=" stroke:none;fill-rule:nonzero;fill:rgb(58.823532%,47.843137%,26.666668%);fill-opacity:1;" d="M 19.5 0.574219 L 23.425781 4.5 L 19.5 8.425781 L 15.574219 4.5 L 19.5 0.574219 M 19.5 0.148438 L 15.148438 4.5 L 19.5 8.851562 L 23.851562 4.5 Z M 19.5 0.148438 "/>
<path style=" stroke:none;fill-rule:nonzero;fill:rgb(72.941178%,87.843138%,74.117649%);fill-opacity:1;" d="M 4.5 8.25 C 2.433594 8.25 0.75 6.566406 0.75 4.5 C 0.75 2.433594 2.433594 0.75 4.5 0.75 C 6.566406 0.75 8.25 2.433594 8.25 4.5 C 8.25 6.566406 6.566406 8.25 4.5 8.25 Z M 4.5 8.25 "/>
<path style=" stroke:none;fill-rule:nonzero;fill:rgb(36.862746%,61.176473%,46.27451%);fill-opacity:1;" d="M 4.5 0.898438 C 6.484375 0.898438 8.101562 2.515625 8.101562 4.5 C 8.101562 6.484375 6.484375 8.101562 4.5 8.101562 C 2.515625 8.101562 0.898438 6.484375 0.898438 4.5 C 0.898438 2.515625 2.515625 0.898438 4.5 0.898438 M 4.5 0.601562 C 2.347656 0.601562 0.601562 2.347656 0.601562 4.5 C 0.601562 6.652344 2.347656 8.398438 4.5 8.398438 C 6.652344 8.398438 8.398438 6.652344 8.398438 4.5 C 8.398438 2.347656 6.652344 0.601562 4.5 0.601562 Z M 4.5 0.601562 "/>
<path style=" stroke:none;fill-rule:nonzero;fill:rgb(96.862745%,56.078434%,56.078434%);fill-opacity:1;" d="M 19.5 23.25 C 17.433594 23.25 15.75 21.566406 15.75 19.5 C 15.75 17.433594 17.433594 15.75 19.5 15.75 C 21.566406 15.75 23.25 17.433594 23.25 19.5 C 23.25 21.566406 21.566406 23.25 19.5 23.25 Z M 19.5 23.25 "/>
<path style=" stroke:none;fill-rule:nonzero;fill:rgb(78.039217%,26.274511%,26.274511%);fill-opacity:1;" d="M 19.5 15.898438 C 21.484375 15.898438 23.101562 17.515625 23.101562 19.5 C 23.101562 21.484375 21.484375 23.101562 19.5 23.101562 C 17.515625 23.101562 15.898438 21.484375 15.898438 19.5 C 15.898438 17.515625 17.515625 15.898438 19.5 15.898438 M 19.5 15.601562 C 17.347656 15.601562 15.601562 17.347656 15.601562 19.5 C 15.601562 21.652344 17.347656 23.398438 19.5 23.398438 C 21.652344 23.398438 23.398438 21.652344 23.398438 19.5 C 23.398438 17.347656 21.652344 15.601562 19.5 15.601562 Z M 19.5 15.601562 "/>
<path style=" stroke:none;fill-rule:nonzero;fill:rgb(21.176471%,25.098041%,30.19608%);fill-opacity:1;" d="M 4.199219 10.199219 L 4.800781 10.199219 L 4.800781 14.398438 L 4.199219 14.398438 Z M 4.199219 10.199219 "/>
<path style=" stroke:none;fill-rule:nonzero;fill:rgb(21.176471%,25.098041%,30.19608%);fill-opacity:1;" d="M 4.5 9.359375 L 3.300781 10.800781 L 5.699219 10.800781 Z M 4.5 9.359375 "/>
<path style=" stroke:none;fill-rule:nonzero;fill:rgb(21.176471%,25.098041%,30.19608%);fill-opacity:1;" d="M 13.199219 4.199219 L 13.199219 4.800781 L 9.601562 4.800781 L 9.601562 4.199219 Z M 13.199219 4.199219 "/>
<path style=" stroke:none;fill-rule:nonzero;fill:rgb(21.176471%,25.098041%,30.19608%);fill-opacity:1;" d="M 14.039062 4.5 L 12.601562 3.300781 L 12.601562 5.699219 Z M 14.039062 4.5 "/>
<path style=" stroke:none;fill-rule:nonzero;fill:rgb(21.176471%,25.098041%,30.19608%);fill-opacity:1;" d="M 19.800781 13.800781 L 19.199219 13.800781 L 19.199219 9.601562 L 19.800781 9.601562 Z M 19.800781 13.800781 "/>
<path style=" stroke:none;fill-rule:nonzero;fill:rgb(21.176471%,25.098041%,30.19608%);fill-opacity:1;" d="M 19.5 14.640625 L 20.699219 13.199219 L 18.300781 13.199219 Z M 19.5 14.640625 "/>
</g>
</svg>
