<?xml version="1.0" encoding="UTF-8"?>
<svg xmlns="http://www.w3.org/2000/svg" xmlns:xlink="http://www.w3.org/1999/xlink" width="24pt" height="24pt" viewBox="0 0 24 24" version="1.1">
<g id="surface28995">
<path style=" stroke:none;fill-rule:nonzero;fill:rgb(54.509807%,71.764708%,94.117647%);fill-opacity:1;" d="M 12 23.25 C 5.796875 23.25 0.75 18.203125 0.75 12 C 0.75 5.796875 5.796875 0.75 12 0.75 C 18.203125 0.75 23.25 5.796875 23.25 12 C 23.25 18.203125 18.203125 23.25 12 23.25 Z M 12 23.25 "/>
<path style=" stroke:none;fill-rule:nonzero;fill:rgb(30.588236%,47.843137%,70.980394%);fill-opacity:1;" d="M 12 0.898438 C 18.121094 0.898438 23.101562 5.878906 23.101562 12 C 23.101562 18.121094 18.121094 23.101562 12 23.101562 C 5.878906 23.101562 0.898438 18.121094 0.898438 12 C 0.898438 5.878906 5.878906 0.898438 12 0.898438 M 12 0.601562 C 5.703125 0.601562 0.601562 5.703125 0.601562 12 C 0.601562 18.296875 5.703125 23.398438 12 23.398438 C 18.296875 23.398438 23.398438 18.296875 23.398438 12 C 23.398438 5.703125 18.296875 0.601562 12 0.601562 Z M 12 0.601562 "/>
<path style=" stroke:none;fill-rule:nonzero;fill:rgb(30.588236%,47.843137%,70.980394%);fill-opacity:1;" d="M 16.511719 17.101562 L 14.421875 17.101562 L 12.269531 13.25 C 12.207031 13.132812 12.136719 12.964844 12.058594 12.75 L 12.027344 12.75 C 11.984375 12.859375 11.910156 13.023438 11.808594 13.25 L 9.589844 17.101562 L 7.488281 17.101562 L 10.929688 11.820312 L 7.769531 6.601562 L 9.898438 6.601562 L 11.796875 10.144531 C 11.917969 10.378906 12.027344 10.613281 12.125 10.847656 L 12.144531 10.847656 C 12.289062 10.539062 12.410156 10.296875 12.511719 10.113281 L 14.480469 6.601562 L 16.445312 6.601562 L 13.207031 11.804688 Z M 16.511719 17.101562 "/>
</g>
</svg>
