<?xml version="1.0" encoding="UTF-8"?>
<svg xmlns="http://www.w3.org/2000/svg" xmlns:xlink="http://www.w3.org/1999/xlink" width="24pt" height="24pt" viewBox="0 0 24 24" version="1.1">
<g id="surface29015">
<path style=" stroke:none;fill-rule:nonzero;fill:rgb(100%,93.333334%,63.921571%);fill-opacity:1;" d="M 12 23.25 C 5.796875 23.25 0.75 18.203125 0.75 12 C 0.75 5.796875 5.796875 0.75 12 0.75 C 18.203125 0.75 23.25 5.796875 23.25 12 C 23.25 18.203125 18.203125 23.25 12 23.25 Z M 12 23.25 "/>
<path style=" stroke:none;fill-rule:nonzero;fill:rgb(58.823532%,47.843137%,26.666668%);fill-opacity:1;" d="M 12 0.898438 C 18.121094 0.898438 23.101562 5.878906 23.101562 12 C 23.101562 18.121094 18.121094 23.101562 12 23.101562 C 5.878906 23.101562 0.898438 18.121094 0.898438 12 C 0.898438 5.878906 5.878906 0.898438 12 0.898438 M 12 0.601562 C 5.703125 0.601562 0.601562 5.703125 0.601562 12 C 0.601562 18.296875 5.703125 23.398438 12 23.398438 C 18.296875 23.398438 23.398438 18.296875 23.398438 12 C 23.398438 5.703125 18.296875 0.601562 12 0.601562 Z M 12 0.601562 "/>
<path style=" stroke:none;fill-rule:nonzero;fill:rgb(58.823532%,47.843137%,26.666668%);fill-opacity:1;" d="M 16.269531 6.601562 L 12.828125 13.285156 L 12.828125 17.101562 L 11.101562 17.101562 L 11.101562 13.320312 L 7.730469 6.601562 L 9.714844 6.601562 L 11.78125 11.101562 C 11.804688 11.15625 11.878906 11.359375 12 11.710938 L 12.023438 11.710938 C 12.066406 11.554688 12.144531 11.351562 12.261719 11.101562 L 14.421875 6.601562 Z M 16.269531 6.601562 "/>
</g>
</svg>
