<?xml version="1.0" encoding="UTF-8"?>
<svg xmlns="http://www.w3.org/2000/svg" xmlns:xlink="http://www.w3.org/1999/xlink" width="24pt" height="24pt" viewBox="0 0 24 24" version="1.1">
<g id="surface28971">
<path style=" stroke:none;fill-rule:nonzero;fill:rgb(72.941178%,87.843138%,74.117649%);fill-opacity:1;" d="M 12 23.25 C 5.796875 23.25 0.75 18.203125 0.75 12 C 0.75 5.796875 5.796875 0.75 12 0.75 C 18.203125 0.75 23.25 5.796875 23.25 12 C 23.25 18.203125 18.203125 23.25 12 23.25 Z M 12 23.25 "/>
<path style=" stroke:none;fill-rule:nonzero;fill:rgb(36.862746%,61.176473%,46.27451%);fill-opacity:1;" d="M 12 0.898438 C 18.121094 0.898438 23.101562 5.878906 23.101562 12 C 23.101562 18.121094 18.121094 23.101562 12 23.101562 C 5.878906 23.101562 0.898438 18.121094 0.898438 12 C 0.898438 5.878906 5.878906 0.898438 12 0.898438 M 12 0.601562 C 5.703125 0.601562 0.601562 5.703125 0.601562 12 C 0.601562 18.296875 5.703125 23.398438 12 23.398438 C 18.296875 23.398438 23.398438 18.296875 23.398438 12 C 23.398438 5.703125 18.296875 0.601562 12 0.601562 Z M 12 0.601562 "/>
<path style=" stroke:none;fill-rule:nonzero;fill:rgb(36.862746%,61.176473%,46.27451%);fill-opacity:1;" d="M 16.894531 17.101562 L 14.984375 17.101562 L 14.03125 14.398438 L 9.921875 14.398438 L 9.007812 17.101562 L 7.105469 17.101562 L 11.035156 6.601562 L 12.996094 6.601562 Z M 13.542969 12.898438 L 12.125 8.820312 C 12.082031 8.683594 12.035156 8.460938 11.984375 8.160156 L 11.957031 8.160156 C 11.914062 8.4375 11.863281 8.65625 11.808594 8.820312 L 10.40625 12.898438 Z M 13.542969 12.898438 "/>
</g>
</svg>
