<?xml version="1.0" encoding="UTF-8"?>
<svg xmlns="http://www.w3.org/2000/svg" xmlns:xlink="http://www.w3.org/1999/xlink" width="24pt" height="24pt" viewBox="0 0 24 24" version="1.1">
<g id="surface28983">
<path style=" stroke:none;fill-rule:nonzero;fill:rgb(96.862745%,56.078434%,56.078434%);fill-opacity:1;" d="M 12 23.25 C 5.796875 23.25 0.75 18.203125 0.75 12 C 0.75 5.796875 5.796875 0.75 12 0.75 C 18.203125 0.75 23.25 5.796875 23.25 12 C 23.25 18.203125 18.203125 23.25 12 23.25 Z M 12 23.25 "/>
<path style=" stroke:none;fill-rule:nonzero;fill:rgb(78.039217%,26.274511%,26.274511%);fill-opacity:1;" d="M 12 0.898438 C 18.121094 0.898438 23.101562 5.878906 23.101562 12 C 23.101562 18.121094 18.121094 23.101562 12 23.101562 C 5.878906 23.101562 0.898438 18.121094 0.898438 12 C 0.898438 5.878906 5.878906 0.898438 12 0.898438 M 12 0.601562 C 5.703125 0.601562 0.601562 5.703125 0.601562 12 C 0.601562 18.296875 5.703125 23.398438 12 23.398438 C 18.296875 23.398438 23.398438 18.296875 23.398438 12 C 23.398438 5.703125 18.296875 0.601562 12 0.601562 Z M 12 0.601562 "/>
<path style=" stroke:none;fill-rule:nonzero;fill:rgb(78.039217%,26.274511%,26.274511%);fill-opacity:1;" d="M 8.398438 17.101562 L 8.398438 6.601562 L 11.730469 6.601562 C 12.746094 6.601562 13.550781 6.820312 14.144531 7.265625 C 14.738281 7.710938 15.035156 8.289062 15.035156 9 C 15.035156 9.597656 14.867188 10.113281 14.527344 10.554688 C 14.191406 10.992188 13.726562 11.304688 13.128906 11.492188 L 13.128906 11.519531 C 13.851562 11.601562 14.429688 11.871094 14.863281 12.324219 C 15.292969 12.773438 15.507812 13.359375 15.507812 14.082031 C 15.507812 14.980469 15.15625 15.707031 14.449219 16.265625 C 13.742188 16.820312 12.847656 17.101562 11.769531 17.101562 Z M 10.136719 8 L 10.136719 10.984375 L 11.261719 10.984375 C 11.867188 10.984375 12.34375 10.84375 12.6875 10.558594 C 13.03125 10.273438 13.203125 9.867188 13.203125 9.347656 C 13.203125 8.449219 12.601562 8 11.402344 8 Z M 10.136719 12.382812 L 10.136719 15.707031 L 11.621094 15.707031 C 12.269531 15.707031 12.773438 15.558594 13.125 15.257812 C 13.480469 14.957031 13.65625 14.542969 13.65625 14.015625 C 13.65625 12.929688 12.902344 12.382812 11.394531 12.382812 Z M 10.136719 12.382812 "/>
</g>
</svg>
