<?xml version="1.0" encoding="UTF-8"?>
<svg xmlns="http://www.w3.org/2000/svg" xmlns:xlink="http://www.w3.org/1999/xlink" width="24pt" height="24pt" viewBox="0 0 24 24" version="1.1">
<g id="surface40157">
<path style=" stroke:none;fill-rule:nonzero;fill:rgb(71.372551%,78.823531%,83.92157%);fill-opacity:1;" d="M 2.097656 23.25 C 1.738281 23.25 1.398438 23.109375 1.144531 22.855469 C 0.621094 22.328125 0.621094 21.472656 1.144531 20.945312 L 12.195312 10.414062 L 13.589844 11.8125 L 3.050781 22.855469 C 2.796875 23.109375 2.460938 23.25 2.097656 23.25 Z M 2.097656 23.25 "/>
<path style=" stroke:none;fill-rule:nonzero;fill:rgb(47.058824%,54.509807%,61.176473%);fill-opacity:1;" d="M 12.191406 10.625 L 13.378906 11.8125 L 2.949219 22.75 C 2.71875 22.976562 2.417969 23.101562 2.097656 23.101562 C 1.777344 23.101562 1.476562 22.976562 1.25 22.75 C 0.785156 22.28125 0.785156 21.519531 1.246094 21.058594 L 12.191406 10.625 M 12.195312 10.203125 L 1.039062 20.839844 C 0.453125 21.425781 0.453125 22.375 1.039062 22.960938 C 1.332031 23.253906 1.714844 23.398438 2.097656 23.398438 C 2.484375 23.398438 2.867188 23.253906 3.160156 22.960938 L 13.800781 11.808594 Z M 12.195312 10.203125 "/>
<path style=" stroke:none;fill-rule:nonzero;fill:rgb(81.960785%,92.941177%,100%);fill-opacity:1;" d="M 15.601562 16.050781 C 11.382812 16.050781 7.949219 12.617188 7.949219 8.398438 C 7.949219 4.183594 11.382812 0.75 15.601562 0.75 C 19.816406 0.75 23.25 4.183594 23.25 8.398438 C 23.25 12.617188 19.816406 16.050781 15.601562 16.050781 Z M 15.601562 16.050781 "/>
<path style=" stroke:none;fill-rule:nonzero;fill:rgb(47.058824%,54.509807%,61.176473%);fill-opacity:1;" d="M 15.601562 0.898438 C 19.734375 0.898438 23.101562 4.265625 23.101562 8.398438 C 23.101562 12.535156 19.734375 15.898438 15.601562 15.898438 C 11.464844 15.898438 8.101562 12.535156 8.101562 8.398438 C 8.101562 4.265625 11.464844 0.898438 15.601562 0.898438 M 15.601562 0.601562 C 11.292969 0.601562 7.800781 4.09375 7.800781 8.398438 C 7.800781 12.707031 11.292969 16.199219 15.601562 16.199219 C 19.90625 16.199219 23.398438 12.707031 23.398438 8.398438 C 23.398438 4.09375 19.90625 0.601562 15.601562 0.601562 Z M 15.601562 0.601562 "/>
<path style=" stroke:none;fill-rule:nonzero;fill:rgb(21.176471%,25.098041%,30.19608%);fill-opacity:1;" d="M 19.199219 7.800781 L 19.199219 9 L 12 9 L 12 7.800781 Z M 19.199219 7.800781 "/>
</g>
</svg>
