<?xml version="1.0" encoding="UTF-8"?>
<svg xmlns="http://www.w3.org/2000/svg" xmlns:xlink="http://www.w3.org/1999/xlink" width="12pt" height="12pt" viewBox="0 0 12 12" version="1.1">
<g id="surface11175">
<path style=" stroke:none;fill-rule:nonzero;fill:rgb(40.000001%,47.450981%,56.078434%);fill-opacity:1;" d="M 7.40625 2.84375 L 7.078125 1.703125 L 9.75 0 L 11.25 0.75 L 10.671875 1.59375 L 9.75 1.140625 Z M 7.40625 2.84375 "/>
<path style=" stroke:none;fill-rule:nonzero;fill:rgb(40.000001%,47.450981%,56.078434%);fill-opacity:1;" d="M 7.148438 1.589844 L 6.8125 2.5625 L 9.75 4.5 L 11.25 3.75 L 10.671875 2.90625 L 9.75 3.359375 Z M 7.148438 1.589844 "/>
<path style=" stroke:none;fill-rule:nonzero;fill:rgb(69.01961%,75.686276%,83.137256%);fill-opacity:1;" d="M 2.625 1.875 L 7.125 1.875 L 7.125 2.625 L 2.625 2.625 Z M 2.625 1.875 "/>
<path style=" stroke:none;fill-rule:nonzero;fill:rgb(40.000001%,47.450981%,56.078434%);fill-opacity:1;" d="M 7.5 1.5 L 2.25 1.5 L 2.25 3 L 7.5 3 Z M 7.5 1.5 "/>
<path style=" stroke:none;fill-rule:nonzero;fill:rgb(69.01961%,75.686276%,83.137256%);fill-opacity:1;" d="M 2.066406 2.757812 L 2.738281 2.425781 L 5.617188 8.882812 L 4.945312 9.214844 Z M 2.066406 2.757812 "/>
<path style=" stroke:none;fill-rule:nonzero;fill:rgb(40.000001%,47.450981%,56.078434%);fill-opacity:1;" d="M 2.921875 1.917969 L 1.578125 2.582031 L 4.761719 9.722656 L 6.109375 9.058594 Z M 2.921875 1.917969 "/>
<path style=" stroke:none;fill-rule:nonzero;fill:rgb(100%,93.333334%,63.921571%);fill-opacity:1;" d="M 2.25 1.125 C 1.628906 1.125 1.125 1.628906 1.125 2.25 C 1.125 2.871094 1.628906 3.375 2.25 3.375 C 2.871094 3.375 3.375 2.871094 3.375 2.25 C 3.375 1.628906 2.871094 1.125 2.25 1.125 Z M 2.25 1.125 "/>
<path style=" stroke:none;fill-rule:nonzero;fill:rgb(72.941178%,60.784316%,28.235295%);fill-opacity:1;" d="M 2.25 1.5 C 2.664062 1.5 3 1.835938 3 2.25 C 3 2.664062 2.664062 3 2.25 3 C 1.835938 3 1.5 2.664062 1.5 2.25 C 1.5 1.835938 1.835938 1.5 2.25 1.5 M 2.25 0.75 C 1.421875 0.75 0.75 1.421875 0.75 2.25 C 0.75 3.078125 1.421875 3.75 2.25 3.75 C 3.078125 3.75 3.75 3.078125 3.75 2.25 C 3.75 1.421875 3.078125 0.75 2.25 0.75 Z M 2.25 0.75 "/>
<path style=" stroke:none;fill-rule:nonzero;fill:rgb(100%,93.333334%,63.921571%);fill-opacity:1;" d="M 7.5 3.375 C 7.292969 3.375 7.125 3.207031 7.125 3 L 7.125 1.5 C 7.125 1.292969 7.292969 1.125 7.5 1.125 L 7.875 1.125 L 7.875 3.375 Z M 7.5 3.375 "/>
<path style=" stroke:none;fill-rule:nonzero;fill:rgb(72.941178%,60.784316%,28.235295%);fill-opacity:1;" d="M 7.5 1.5 L 7.5 3 L 7.5 1.5 M 8.25 0.75 L 7.5 0.75 C 7.085938 0.75 6.75 1.085938 6.75 1.5 L 6.75 3 C 6.75 3.414062 7.085938 3.75 7.5 3.75 L 8.25 3.75 Z M 8.25 0.75 "/>
<path style=" stroke:none;fill-rule:nonzero;fill:rgb(100%,93.333334%,63.921571%);fill-opacity:1;" d="M 2.855469 10.125 L 3.980469 7.875 L 5.8125 7.875 L 7.5 10.125 Z M 2.855469 10.125 "/>
<path style=" stroke:none;fill-rule:nonzero;fill:rgb(72.941178%,60.784316%,28.235295%);fill-opacity:1;" d="M 5.625 8.25 L 6.75 9.75 L 3.464844 9.75 L 4.214844 8.25 L 5.625 8.25 M 6 7.5 L 3.75 7.5 L 2.25 10.5 L 8.25 10.5 Z M 6 7.5 "/>
<path style=" stroke:none;fill-rule:nonzero;fill:rgb(69.01961%,75.686276%,83.137256%);fill-opacity:1;" d="M 1.875 10.875 L 1.875 10.5 C 1.875 10.292969 2.042969 10.125 2.25 10.125 L 9.75 10.125 C 9.957031 10.125 10.125 10.292969 10.125 10.5 L 10.125 10.875 Z M 1.875 10.875 "/>
<path style=" stroke:none;fill-rule:nonzero;fill:rgb(40.000001%,47.450981%,56.078434%);fill-opacity:1;" d="M 9.75 9.75 L 2.25 9.75 C 1.835938 9.75 1.5 10.085938 1.5 10.5 L 1.5 11.25 L 10.5 11.25 L 10.5 10.5 C 10.5 10.085938 10.164062 9.75 9.75 9.75 Z M 9.75 9.75 "/>
</g>
</svg>
