<?xml version="1.0" encoding="UTF-8"?>
<svg xmlns="http://www.w3.org/2000/svg" xmlns:xlink="http://www.w3.org/1999/xlink" width="24pt" height="24pt" viewBox="0 0 24 24" version="1.1">
<g id="surface5454">
<path style=" stroke:none;fill-rule:nonzero;fill:rgb(54.509807%,71.764708%,94.117647%);fill-opacity:1;" d="M 0.898438 3 C 0.898438 1.960938 1.960938 0.898438 3 0.898438 L 21 0.898438 C 22.039062 0.898438 23.101562 1.960938 23.101562 3 L 23.101562 18.601562 C 23.101562 19.640625 22.039062 20.699219 21 20.699219 L 4.089844 20.699219 L 0.898438 23.359375 Z M 0.898438 3 "/>
<path style=" stroke:none;fill-rule:nonzero;fill:rgb(30.588236%,47.843137%,70.980394%);fill-opacity:1;" d="M 21 1.199219 C 21.875 1.199219 22.800781 2.125 22.800781 3 L 22.800781 18.601562 C 22.800781 19.476562 21.875 20.398438 21 20.398438 L 3.984375 20.398438 L 3.816406 20.539062 L 1.199219 22.71875 L 1.199219 3 C 1.199219 2.125 2.125 1.199219 3 1.199219 L 21 1.199219 M 21 0.601562 L 3 0.601562 C 1.800781 0.601562 0.601562 1.800781 0.601562 3 L 0.601562 24 L 4.199219 21 L 21 21 C 22.199219 21 23.398438 19.800781 23.398438 18.601562 L 23.398438 3 C 23.398438 1.800781 22.199219 0.601562 21 0.601562 Z M 21 0.601562 "/>
<path style=" stroke:none;fill-rule:nonzero;fill:rgb(100%,100%,100%);fill-opacity:1;" d="M 12 4.355469 C 11.4375 4.355469 10.980469 4.8125 10.980469 5.371094 C 10.980469 5.933594 11.4375 6.390625 12 6.390625 C 12.5625 6.390625 13.019531 5.933594 13.019531 5.371094 C 13.019531 4.8125 12.5625 4.355469 12 4.355469 Z M 12.601562 15 L 12.601562 7.800781 L 10.199219 7.800781 L 10.199219 9 L 11.398438 9 L 11.398438 15 L 10.199219 15 L 10.199219 16.199219 L 13.800781 16.199219 L 13.800781 15 Z M 12.601562 15 "/>
</g>
</svg>
