<?xml version="1.0" encoding="UTF-8"?>
<svg xmlns="http://www.w3.org/2000/svg" xmlns:xlink="http://www.w3.org/1999/xlink" width="22.5pt" height="22.5pt" viewBox="0 0 22.5 22.5" version="1.1">
<g id="surface2188">
<path style=" stroke:none;fill-rule:nonzero;fill:rgb(96.078432%,80.784315%,52.156866%);fill-opacity:1;" d="M 1.171875 19.507812 L 1.90625 17.085938 L 8.359375 10.632812 L 7.921875 10.265625 C 7.480469 9.828125 7.480469 9.167969 7.921875 8.726562 L 8.507812 8.140625 L 8.507812 7.992188 C 8.507812 7.773438 8.433594 7.554688 8.433594 7.332031 C 8.433594 3.886719 11.21875 1.101562 14.667969 1.101562 L 14.8125 1.101562 C 18.039062 1.171875 20.753906 3.886719 20.898438 7.1875 C 20.972656 8.875 20.3125 10.488281 19.140625 11.734375 C 17.964844 12.980469 16.351562 13.640625 14.667969 13.640625 C 14.445312 13.640625 14.226562 13.640625 14.007812 13.566406 L 13.859375 13.566406 L 13.273438 14.152344 C 13.054688 14.375 12.761719 14.445312 12.464844 14.445312 C 12.171875 14.445312 11.878906 14.300781 11.660156 14.152344 L 11.292969 13.785156 L 9.167969 15.914062 L 7.625 15.914062 L 7.625 17.453125 L 6.964844 18.113281 L 5.5 18.113281 L 5.5 19.652344 L 4.839844 20.3125 L 2.492188 21.046875 Z M 14.667969 3.300781 C 13.566406 3.300781 12.539062 3.738281 11.808594 4.472656 L 11.511719 4.765625 L 17.234375 10.488281 L 17.527344 10.191406 C 19.066406 8.652344 19.066406 6.085938 17.527344 4.472656 C 16.792969 3.738281 15.765625 3.300781 14.667969 3.300781 Z M 14.667969 3.300781 "/>
<path style=" stroke:none;fill-rule:nonzero;fill:rgb(58.823532%,47.843137%,26.666668%);fill-opacity:1;" d="M 14.667969 1.464844 C 14.738281 1.464844 14.8125 1.464844 14.8125 1.464844 C 17.894531 1.539062 20.460938 4.105469 20.535156 7.1875 C 20.605469 8.800781 20.019531 10.265625 18.847656 11.441406 C 17.746094 12.539062 16.28125 13.199219 14.667969 13.199219 C 14.445312 13.199219 14.226562 13.199219 14.007812 13.199219 L 13.640625 13.125 L 13.421875 13.347656 L 12.980469 13.785156 C 12.832031 13.933594 12.6875 14.007812 12.464844 14.007812 C 12.246094 14.007812 12.101562 13.933594 11.953125 13.785156 L 11.292969 13.125 L 10.78125 13.640625 L 9.09375 15.398438 L 7.332031 15.398438 L 7.332031 17.160156 L 6.894531 17.601562 L 5.132812 17.601562 L 5.132812 19.359375 L 4.691406 19.800781 L 2.640625 20.460938 L 1.613281 19.433594 L 2.199219 17.308594 L 8.285156 11.21875 L 8.800781 10.707031 L 8.140625 10.046875 C 7.992188 9.898438 7.921875 9.753906 7.921875 9.535156 C 7.921875 9.3125 7.992188 9.167969 8.140625 9.019531 L 8.578125 8.578125 L 8.800781 8.359375 L 8.800781 7.992188 C 8.800781 7.773438 8.800781 7.554688 8.800781 7.332031 C 8.800781 4.105469 11.441406 1.464844 14.667969 1.464844 M 17.234375 10.925781 L 17.746094 10.414062 C 18.554688 9.605469 19.066406 8.507812 19.066406 7.332031 C 19.066406 6.160156 18.625 5.058594 17.746094 4.253906 C 16.941406 3.375 15.839844 2.933594 14.667969 2.933594 C 13.492188 2.933594 12.394531 3.375 11.585938 4.253906 L 11.074219 4.765625 L 11.585938 5.28125 L 16.792969 10.488281 L 17.234375 10.925781 M 14.667969 0.734375 C 11 0.734375 8.066406 3.667969 8.066406 7.332031 C 8.066406 7.554688 8.066406 7.847656 8.140625 8.066406 L 7.699219 8.507812 C 7.113281 9.09375 7.113281 9.972656 7.699219 10.558594 L 7.847656 10.707031 L 1.613281 16.941406 L 0.734375 19.578125 L 2.421875 21.265625 L 5.132812 20.460938 L 5.867188 19.652344 L 5.867188 18.332031 L 7.1875 18.332031 L 8.066406 17.453125 L 8.066406 16.132812 L 9.386719 16.132812 L 11.292969 14.226562 L 11.441406 14.375 C 11.734375 14.667969 12.101562 14.8125 12.464844 14.8125 C 12.832031 14.8125 13.199219 14.667969 13.492188 14.375 L 13.933594 13.933594 C 14.152344 13.933594 14.375 14.007812 14.667969 14.007812 C 18.40625 14.007812 21.339844 10.925781 21.265625 7.1875 C 21.191406 3.667969 18.332031 0.808594 14.886719 0.734375 C 14.8125 0.734375 14.738281 0.734375 14.667969 0.734375 Z M 17.234375 9.898438 L 12.027344 4.691406 C 12.761719 3.960938 13.714844 3.59375 14.59375 3.59375 C 15.472656 3.59375 16.5 3.960938 17.160156 4.691406 C 18.699219 6.160156 18.699219 8.507812 17.234375 9.898438 Z M 17.234375 9.898438 "/>
<path style=" stroke:none;fill-rule:nonzero;fill:rgb(85.882354%,69.01961%,39.607844%);fill-opacity:1;" d="M 2.996094 17.703125 L 9.214844 11.480469 L 9.734375 11.996094 L 3.511719 18.21875 Z M 2.996094 17.703125 "/>
<path style=" stroke:none;fill-rule:nonzero;fill:rgb(58.823532%,47.843137%,26.666668%);fill-opacity:1;" d="M 8.113281 10.980469 L 8.628906 10.460938 L 11.535156 13.363281 L 11.015625 13.882812 Z M 8.113281 10.980469 "/>
<path style=" stroke:none;fill-rule:nonzero;fill:rgb(72.941178%,87.843138%,74.117649%);fill-opacity:1;" d="M 16.867188 12.101562 C 14.234375 12.101562 12.101562 14.234375 12.101562 16.867188 C 12.101562 19.5 14.234375 21.632812 16.867188 21.632812 C 19.5 21.632812 21.632812 19.5 21.632812 16.867188 C 21.632812 14.234375 19.5 12.101562 16.867188 12.101562 Z M 16.867188 12.101562 "/>
<path style=" stroke:none;fill-rule:nonzero;fill:rgb(36.862746%,61.176473%,46.27451%);fill-opacity:1;" d="M 16.867188 12.464844 C 19.285156 12.464844 21.265625 14.445312 21.265625 16.867188 C 21.265625 19.285156 19.285156 21.265625 16.867188 21.265625 C 14.445312 21.265625 12.464844 19.285156 12.464844 16.867188 C 12.464844 14.445312 14.445312 12.464844 16.867188 12.464844 M 16.867188 11.734375 C 14.007812 11.734375 11.734375 14.007812 11.734375 16.867188 C 11.734375 19.726562 14.007812 22 16.867188 22 C 19.726562 22 22 19.726562 22 16.867188 C 22 14.007812 19.726562 11.734375 16.867188 11.734375 Z M 16.867188 11.734375 "/>
<path style=" stroke:none;fill-rule:nonzero;fill:rgb(100%,100%,100%);fill-opacity:1;" d="M 16.132812 13.933594 L 17.601562 13.933594 L 17.601562 19.800781 L 16.132812 19.800781 Z M 16.132812 13.933594 "/>
<path style=" stroke:none;fill-rule:nonzero;fill:rgb(100%,100%,100%);fill-opacity:1;" d="M 13.933594 16.132812 L 19.800781 16.132812 L 19.800781 17.601562 L 13.933594 17.601562 Z M 13.933594 16.132812 "/>
</g>
</svg>
