<?xml version="1.0" encoding="UTF-8" standalone="no"?>
<!DOCTYPE svg PUBLIC "-//W3C//DTD SVG 1.1//EN" "http://www.w3.org/Graphics/SVG/1.1/DTD/svg11.dtd">
<svg width="100%" height="100%" viewBox="0 0 60 60" version="1.1" xmlns="http://www.w3.org/2000/svg" xmlns:xlink="http://www.w3.org/1999/xlink" xml:space="preserve" xmlns:serif="http://www.serif.com/" style="fill-rule:evenodd;clip-rule:evenodd;stroke-miterlimit:10;">
    <g id="surface64" transform="matrix(0.789474,0,0,0.789474,0.315789,0.315789)">
        <path d="M30,57.75C14.699,57.75 2.25,45.301 2.25,30C2.25,14.699 14.699,2.25 30,2.25C45.301,2.25 57.75,14.699 57.75,30C57.75,45.301 45.301,57.75 30,57.75Z" style="fill:rgb(242,250,254);fill-rule:nonzero;"/>
        <path d="M30,3C44.887,3 57,15.113 57,30C57,44.887 44.887,57 30,57C15.113,57 3,44.887 3,30C3,15.113 15.113,3 30,3M30,1.5C14.262,1.5 1.5,14.262 1.5,30C1.5,45.738 14.262,58.5 30,58.5C45.738,58.5 58.5,45.738 58.5,30C58.5,14.262 45.738,1.5 30,1.5Z" style="fill:rgb(120,139,156);fill-rule:nonzero;"/>
        <path d="M30,54.75C16.352,54.75 5.25,43.648 5.25,30C5.25,16.352 16.352,5.25 30,5.25C43.648,5.25 54.75,16.352 54.75,30C54.75,43.648 43.648,54.75 30,54.75Z" style="fill:rgb(242,250,254);fill-rule:nonzero;"/>
        <path d="M30,6C43.234,6 54,16.766 54,30C54,43.234 43.234,54 30,54C16.766,54 6,43.234 6,30C6,16.766 16.766,6 30,6M30,4.5C15.918,4.5 4.5,15.918 4.5,30C4.5,44.082 15.918,55.5 30,55.5C44.082,55.5 55.5,44.082 55.5,30C55.5,15.918 44.082,4.5 30,4.5Z" style="fill:rgb(120,139,156);fill-rule:nonzero;"/>
        <g transform="matrix(1.5,0,0,1.5,0,0)">
            <path d="M20,20L11.5,11.5" style="fill:none;fill-rule:nonzero;stroke:rgb(78,121,181);stroke-width:1px;"/>
        </g>
        <path d="M30,27.75C28.758,27.75 27.75,28.758 27.75,30C27.75,31.242 28.758,32.25 30,32.25C31.242,32.25 32.25,31.242 32.25,30C32.25,28.758 31.242,27.75 30,27.75Z" style="fill:rgb(139,183,239);fill-rule:nonzero;"/>
        <path d="M30,28.5C30.828,28.5 31.5,29.172 31.5,30C31.5,30.828 30.828,31.5 30,31.5C29.172,31.5 28.5,30.828 28.5,30C28.5,29.172 29.172,28.5 30,28.5M30,27C28.344,27 27,28.344 27,30C27,31.656 28.344,33 30,33C31.656,33 33,31.656 33,30C33,28.344 31.656,27 30,27Z" style="fill:rgb(78,121,181);fill-rule:nonzero;"/>
        <g transform="matrix(1.5,0,0,1.5,0,0)">
            <path d="M17.305,6.372L16.776,3.789M33.604,17.294L36.211,16.776M6.383,22.708L3.789,23.224M27.703,8.469L29.182,6.258M31.521,27.698L33.742,29.182M8.458,12.289L6.258,10.818M12.289,8.461L10.818,6.258M31.531,12.294L33.742,10.818M8.469,27.706L6.258,29.182M22.69,6.398L23.224,3.789M33.602,22.706L36.211,23.224M6.396,17.294L3.789,16.776" style="fill:none;fill-rule:nonzero;stroke:rgb(120,139,156);stroke-width:1px;"/>
        </g>
    </g>
    <g id="surface1634" transform="matrix(2.46144,0,0,2.46144,30,30)">
        <path d="M6.094,0.406C2.953,0.406 0.406,2.953 0.406,6.094C0.406,9.234 2.953,11.781 6.094,11.781C9.234,11.781 11.781,9.234 11.781,6.094C11.781,2.953 9.234,0.406 6.094,0.406Z" style="fill:rgb(186,224,189);fill-rule:nonzero;"/>
        <path d="M6.094,0.813C9.004,0.813 11.375,3.184 11.375,6.094C11.375,9.004 9.004,11.375 6.094,11.375C3.184,11.375 0.813,9.004 0.813,6.094C0.813,3.184 3.184,0.813 6.094,0.813M6.094,0C2.727,0 0,2.727 0,6.094C0,9.461 2.727,12.188 6.094,12.188C9.461,12.188 12.188,9.461 12.188,6.094C12.188,2.727 9.461,0 6.094,0Z" style="fill:rgb(94,156,118);fill-rule:nonzero;"/>
        <g transform="matrix(1,0,0,1.94409,0,-5.75304)">
            <rect x="2.844" y="5.688" width="6.5" height="0.813" style="fill:white;"/>
        </g>
        <g transform="matrix(1.94409,0,0,1,-5.75304,0)">
            <rect x="5.688" y="2.844" width="0.813" height="6.5" style="fill:white;"/>
        </g>
    </g>
</svg>
