<?xml version="1.0" encoding="UTF-8"?>
<svg xmlns="http://www.w3.org/2000/svg" xmlns:xlink="http://www.w3.org/1999/xlink" width="30pt" height="30pt" viewBox="0 0 30 30" version="1.1">
<g id="surface21457">
<path style="fill:none;stroke-width:1;stroke-linecap:round;stroke-linejoin:miter;stroke:rgb(47.843137%,30.980393%,20.392157%);stroke-opacity:1;stroke-miterlimit:10;" d="M 9.5 24.5 L 1.5 24.5 M 8.5 18.5 C 5.473958 18.5 2.5 14.416667 2.5 9.5 C 2.5 8.015625 2.5 8.833333 2.5 7.5 M 2.5 38.5 C 2.5 38.041667 2.5 37.96875 2.5 37.5 C 2.5 32.958333 8.1875 29 15 29 M 27.5 2.5 C 27.5 4.770833 24.161458 6.5 20 6.5 C 15.838542 6.5 12.5 4.770833 12.5 2.5 M 30.5 24.5 L 38.5 24.5 M 31.5 18.5 C 34.526042 18.5 37.5 14.416667 37.5 9.5 C 37.5 8.015625 37.5 8.833333 37.5 7.5 M 37.5 38.5 C 37.5 38.041667 37.5 37.96875 37.5 37.5 C 37.5 32.958333 31.8125 29 25 29 " transform="matrix(0.75,0,0,0.75,0,0)"/>
<path style=" stroke:none;fill-rule:nonzero;fill:rgb(72.941178%,87.843138%,74.117649%);fill-opacity:1;" d="M 15 27.375 C 9.832031 27.375 5.625 22.214844 5.625 15.871094 C 5.625 15.417969 5.632812 14.886719 5.703125 14.371094 C 5.792969 13.53125 5.960938 12.902344 6.199219 12.484375 C 6.496094 11.902344 6.84375 11.660156 7.378906 11.660156 C 8.0625 11.660156 8.953125 12.050781 9.988281 12.5 C 11.460938 13.144531 13.128906 13.875 15 13.875 C 16.871094 13.875 18.539062 13.144531 20.011719 12.503906 C 21.046875 12.050781 21.9375 11.660156 22.621094 11.660156 C 23.15625 11.660156 23.503906 11.902344 23.789062 12.464844 C 24.039062 12.902344 24.207031 13.53125 24.296875 14.363281 C 24.367188 14.886719 24.375 15.421875 24.375 15.871094 C 24.375 22.214844 20.167969 27.375 15 27.375 Z M 15 27.375 "/>
<path style=" stroke:none;fill-rule:nonzero;fill:rgb(47.843137%,30.980393%,20.392157%);fill-opacity:1;" d="M 22.621094 12.035156 C 22.949219 12.035156 23.203125 12.136719 23.453125 12.632812 L 23.464844 12.652344 L 23.472656 12.671875 C 23.6875 13.042969 23.839844 13.625 23.925781 14.421875 C 23.992188 14.917969 24 15.433594 24 15.871094 C 24 22.007812 19.960938 27 15 27 C 10.039062 27 6 22.007812 6 15.871094 C 6 15.433594 6.007812 14.917969 6.078125 14.402344 C 6.160156 13.625 6.3125 13.042969 6.527344 12.671875 L 6.535156 12.652344 L 6.546875 12.632812 C 6.796875 12.136719 7.050781 12.035156 7.378906 12.035156 C 7.984375 12.035156 8.882812 12.429688 9.835938 12.847656 C 11.269531 13.472656 13.050781 14.25 15 14.25 C 16.949219 14.25 18.730469 13.472656 20.164062 12.847656 C 21.113281 12.429688 22.015625 12.035156 22.621094 12.035156 M 22.621094 11.285156 C 20.84375 11.285156 18.140625 13.5 15 13.5 C 11.859375 13.5 9.15625 11.285156 7.378906 11.285156 C 6.757812 11.285156 6.25 11.558594 5.878906 12.296875 C 5.617188 12.75 5.429688 13.402344 5.332031 14.324219 C 5.265625 14.828125 5.25 15.347656 5.25 15.871094 C 5.25 22.433594 9.613281 27.75 15 27.75 C 20.386719 27.75 24.75 22.433594 24.75 15.871094 C 24.75 15.347656 24.734375 14.828125 24.667969 14.324219 C 24.570312 13.402344 24.382812 12.75 24.121094 12.296875 C 23.75 11.558594 23.242188 11.285156 22.621094 11.285156 Z M 22.621094 11.285156 "/>
<path style=" stroke:none;fill-rule:nonzero;fill:rgb(47.843137%,30.980393%,20.392157%);fill-opacity:1;" d="M 15 27.75 C 15.253906 27.75 15.5 27.726562 15.746094 27.703125 L 15 18.75 L 14.253906 27.703125 C 14.5 27.726562 14.746094 27.75 15 27.75 Z M 15 27.75 "/>
<path style=" stroke:none;fill-rule:nonzero;fill:rgb(65.098041%,44.313726%,30.588236%);fill-opacity:1;" d="M 15 2.625 C 13.136719 2.625 11.625 4.640625 11.625 7.125 C 11.625 9.609375 13.136719 11.625 15 11.625 C 16.863281 11.625 18.375 9.609375 18.375 7.125 C 18.375 4.640625 16.863281 2.625 15 2.625 Z M 15 2.625 "/>
<path style=" stroke:none;fill-rule:nonzero;fill:rgb(47.843137%,30.980393%,20.392157%);fill-opacity:1;" d="M 15 3 C 16.65625 3 18 4.851562 18 7.125 C 18 9.398438 16.65625 11.25 15 11.25 C 13.34375 11.25 12 9.398438 12 7.125 C 12 4.851562 13.34375 3 15 3 M 15 2.25 C 12.929688 2.25 11.25 4.433594 11.25 7.125 C 11.25 9.816406 12.929688 12 15 12 C 17.070312 12 18.75 9.816406 18.75 7.125 C 18.75 4.433594 17.070312 2.25 15 2.25 Z M 15 2.25 "/>
<path style=" stroke:none;fill-rule:nonzero;fill:rgb(83.92157%,66.666669%,43.921569%);fill-opacity:1;" d="M 15 14.625 C 11.070312 14.625 7.875 12.605469 7.875 10.125 C 7.875 7.644531 11.070312 5.625 15 5.625 C 18.929688 5.625 22.125 7.644531 22.125 10.125 C 22.125 12.605469 18.929688 14.625 15 14.625 Z M 15 14.625 "/>
<path style=" stroke:none;fill-rule:nonzero;fill:rgb(47.843137%,30.980393%,20.392157%);fill-opacity:1;" d="M 15 6 C 18.660156 6 21.75 7.890625 21.75 10.125 C 21.75 12.359375 18.660156 14.25 15 14.25 C 11.339844 14.25 8.25 12.359375 8.25 10.125 C 8.25 7.890625 11.339844 6 15 6 M 15 5.25 C 10.859375 5.25 7.5 7.433594 7.5 10.125 C 7.5 12.816406 10.859375 15 15 15 C 19.140625 15 22.5 12.816406 22.5 10.125 C 22.5 7.433594 19.140625 5.25 15 5.25 Z M 15 5.25 "/>
</g>
</svg>
