<?xml version="1.0" encoding="UTF-8"?>
<svg xmlns="http://www.w3.org/2000/svg" xmlns:xlink="http://www.w3.org/1999/xlink" width="30pt" height="30pt" viewBox="0 0 30 30" version="1.1">
<g id="surface16143">
<path style=" stroke:none;fill-rule:nonzero;fill:rgb(69.01961%,75.686276%,83.137256%);fill-opacity:1;" d="M 12.4375 8.789062 L 16.054688 5.171875 C 16.730469 4.496094 17.625 4.125 18.582031 4.125 C 19.535156 4.125 20.433594 4.496094 21.105469 5.171875 L 22.109375 6.171875 L 27 1.28125 L 28.71875 3 L 23.828125 7.890625 L 24.828125 8.894531 C 26.222656 10.285156 26.222656 12.550781 24.828125 13.945312 L 21.210938 17.5625 Z M 12.4375 8.789062 "/>
<path style=" stroke:none;fill-rule:nonzero;fill:rgb(40.000001%,47.450981%,56.078434%);fill-opacity:1;" d="M 27 1.808594 L 28.191406 3 L 23.828125 7.363281 L 23.296875 7.890625 L 23.828125 8.421875 L 24.5625 9.160156 C 25.808594 10.40625 25.808594 12.433594 24.5625 13.679688 L 21.210938 17.03125 L 12.96875 8.789062 L 16.320312 5.4375 C 16.921875 4.832031 17.726562 4.5 18.582031 4.5 C 19.433594 4.5 20.238281 4.832031 20.839844 5.4375 L 21.578125 6.171875 L 22.109375 6.703125 L 22.636719 6.171875 L 27 1.808594 M 27 0.75 L 22.109375 5.640625 L 21.371094 4.90625 C 20.601562 4.136719 19.589844 3.75 18.582031 3.75 C 17.570312 3.75 16.558594 4.136719 15.789062 4.90625 L 11.90625 8.789062 L 21.210938 18.09375 L 25.09375 14.210938 C 26.632812 12.667969 26.632812 10.171875 25.09375 8.628906 L 24.359375 7.890625 L 29.25 3 Z M 27 0.75 "/>
<path style=" stroke:none;fill-rule:nonzero;fill:rgb(69.01961%,75.686276%,83.137256%);fill-opacity:1;" d="M 9.363281 10.277344 L 10.914062 8.726562 C 11.398438 8.242188 12.015625 7.964844 12.609375 7.964844 C 13.03125 7.964844 13.394531 8.105469 13.65625 8.371094 L 21.628906 16.34375 C 22.289062 17 22.128906 18.230469 21.273438 19.085938 L 19.722656 20.636719 Z M 9.363281 10.277344 "/>
<path style=" stroke:none;fill-rule:nonzero;fill:rgb(40.000001%,47.450981%,56.078434%);fill-opacity:1;" d="M 12.609375 8.339844 C 12.832031 8.339844 13.148438 8.390625 13.394531 8.632812 L 21.367188 16.605469 C 21.867188 17.109375 21.707031 18.125 21.007812 18.820312 L 19.726562 20.105469 L 9.894531 10.277344 L 11.179688 8.992188 C 11.585938 8.582031 12.121094 8.339844 12.609375 8.339844 M 12.609375 7.589844 C 11.945312 7.589844 11.222656 7.886719 10.648438 8.460938 L 8.832031 10.277344 L 19.726562 21.164062 L 21.539062 19.351562 C 22.542969 18.347656 22.703125 16.882812 21.894531 16.078125 L 13.921875 8.105469 C 13.578125 7.757812 13.109375 7.589844 12.609375 7.589844 Z M 12.609375 7.589844 "/>
<path style=" stroke:none;fill-rule:nonzero;fill:rgb(69.01961%,75.686276%,83.137256%);fill-opacity:1;" d="M 1.28125 27 L 6.171875 22.109375 L 5.171875 21.105469 C 3.777344 19.714844 3.777344 17.445312 5.171875 16.054688 L 8.789062 12.4375 L 17.5625 21.210938 L 13.945312 24.828125 C 13.269531 25.503906 12.375 25.875 11.417969 25.875 C 10.464844 25.875 9.566406 25.503906 8.894531 24.828125 L 7.890625 23.828125 L 3 28.71875 Z M 1.28125 27 "/>
<path style=" stroke:none;fill-rule:nonzero;fill:rgb(40.000001%,47.450981%,56.078434%);fill-opacity:1;" d="M 8.789062 12.96875 L 17.03125 21.210938 L 13.679688 24.5625 C 13.078125 25.167969 12.273438 25.5 11.417969 25.5 C 10.566406 25.5 9.761719 25.167969 9.160156 24.5625 L 8.421875 23.828125 L 7.890625 23.296875 L 7.363281 23.828125 L 3 28.191406 L 1.808594 27 L 6.171875 22.636719 L 6.703125 22.109375 L 6.171875 21.578125 L 5.4375 20.839844 C 4.191406 19.59375 4.191406 17.566406 5.4375 16.320312 L 8.789062 12.96875 M 8.789062 11.90625 L 4.90625 15.789062 C 3.367188 17.332031 3.367188 19.828125 4.90625 21.371094 L 5.640625 22.109375 L 0.75 27 L 3 29.25 L 7.890625 24.359375 L 8.628906 25.09375 C 9.398438 25.863281 10.410156 26.25 11.417969 26.25 C 12.429688 26.25 13.441406 25.863281 14.210938 25.09375 L 18.09375 21.210938 Z M 8.789062 11.90625 "/>
<path style=" stroke:none;fill-rule:nonzero;fill:rgb(69.01961%,75.686276%,83.137256%);fill-opacity:1;" d="M 17.496094 22.097656 C 17.054688 22.097656 16.644531 21.929688 16.34375 21.628906 L 8.371094 13.65625 C 7.710938 13 7.757812 11.882812 8.46875 11.171875 L 9.761719 9.875 L 20.125 20.238281 L 18.832031 21.53125 C 18.46875 21.890625 17.984375 22.097656 17.496094 22.097656 Z M 17.496094 22.097656 "/>
<path style=" stroke:none;fill-rule:nonzero;fill:rgb(40.000001%,47.450981%,56.078434%);fill-opacity:1;" d="M 9.761719 10.40625 L 19.59375 20.238281 L 18.566406 21.265625 C 18.273438 21.554688 17.882812 21.722656 17.496094 21.722656 C 17.152344 21.722656 16.835938 21.59375 16.605469 21.363281 L 8.632812 13.390625 C 8.121094 12.878906 8.167969 12.003906 8.734375 11.433594 L 9.761719 10.40625 M 9.761719 9.347656 L 8.203125 10.90625 C 7.34375 11.765625 7.300781 13.117188 8.105469 13.921875 L 16.078125 21.894531 C 16.460938 22.28125 16.972656 22.472656 17.496094 22.472656 C 18.0625 22.472656 18.644531 22.246094 19.09375 21.796875 L 20.652344 20.238281 Z M 9.761719 9.347656 "/>
</g>
</svg>
