<?xml version="1.0" encoding="UTF-8"?>
<svg xmlns="http://www.w3.org/2000/svg" xmlns:xlink="http://www.w3.org/1999/xlink" width="24pt" height="24pt" viewBox="0 0 24 24" version="1.1">
<g id="surface11662">
<path style=" stroke:none;fill-rule:nonzero;fill:rgb(69.01961%,75.686276%,83.137256%);fill-opacity:1;" d="M 9.949219 7.03125 L 12.84375 4.136719 C 13.382812 3.597656 14.101562 3.300781 14.863281 3.300781 C 15.628906 3.300781 16.347656 3.597656 16.886719 4.136719 L 17.6875 4.9375 L 21.601562 1.023438 L 22.976562 2.398438 L 19.0625 6.3125 L 19.863281 7.113281 C 20.976562 8.226562 20.976562 10.042969 19.863281 11.15625 L 16.96875 14.050781 Z M 9.949219 7.03125 "/>
<path style=" stroke:none;fill-rule:nonzero;fill:rgb(40.000001%,47.450981%,56.078434%);fill-opacity:1;" d="M 21.601562 1.449219 L 22.550781 2.398438 L 19.0625 5.890625 L 18.636719 6.3125 L 19.652344 7.328125 C 20.648438 8.324219 20.648438 9.945312 19.652344 10.945312 L 16.96875 13.625 L 10.375 7.03125 L 13.054688 4.347656 C 13.539062 3.867188 14.179688 3.601562 14.863281 3.601562 C 15.546875 3.601562 16.191406 3.867188 16.671875 4.347656 L 17.6875 5.363281 L 18.109375 4.9375 L 21.601562 1.449219 M 21.601562 0.601562 L 17.6875 4.515625 L 17.097656 3.925781 C 16.480469 3.308594 15.671875 3 14.863281 3 C 14.054688 3 13.246094 3.308594 12.632812 3.925781 L 9.527344 7.03125 L 16.96875 14.472656 L 20.074219 11.367188 C 21.308594 10.136719 21.308594 8.136719 20.074219 6.902344 L 19.484375 6.3125 L 23.398438 2.398438 Z M 21.601562 0.601562 "/>
<path style=" stroke:none;fill-rule:nonzero;fill:rgb(69.01961%,75.686276%,83.137256%);fill-opacity:1;" d="M 7.492188 8.21875 L 8.730469 6.980469 C 9.117188 6.59375 9.613281 6.371094 10.085938 6.371094 C 10.425781 6.371094 10.714844 6.484375 10.925781 6.695312 L 17.304688 13.074219 C 17.832031 13.601562 17.703125 14.585938 17.019531 15.269531 L 15.777344 16.507812 Z M 7.492188 8.21875 "/>
<path style=" stroke:none;fill-rule:nonzero;fill:rgb(40.000001%,47.450981%,56.078434%);fill-opacity:1;" d="M 10.085938 6.671875 C 10.265625 6.671875 10.519531 6.714844 10.714844 6.90625 L 17.09375 13.285156 C 17.496094 13.6875 17.363281 14.5 16.808594 15.054688 L 15.78125 16.085938 L 7.914062 8.21875 L 8.945312 7.191406 C 9.269531 6.867188 9.695312 6.671875 10.085938 6.671875 M 10.085938 6.074219 C 9.554688 6.074219 8.976562 6.3125 8.519531 6.769531 L 7.066406 8.21875 L 15.78125 16.933594 L 17.230469 15.480469 C 18.035156 14.679688 18.160156 13.507812 17.515625 12.863281 L 11.140625 6.484375 C 10.863281 6.207031 10.488281 6.074219 10.085938 6.074219 Z M 10.085938 6.074219 "/>
<path style=" stroke:none;fill-rule:nonzero;fill:rgb(69.01961%,75.686276%,83.137256%);fill-opacity:1;" d="M 1.023438 21.601562 L 4.9375 17.6875 L 4.136719 16.886719 C 3.023438 15.773438 3.023438 13.957031 4.136719 12.84375 L 7.03125 9.949219 L 14.050781 16.96875 L 11.15625 19.863281 C 10.617188 20.402344 9.898438 20.699219 9.136719 20.699219 C 8.371094 20.699219 7.652344 20.402344 7.113281 19.863281 L 6.3125 19.0625 L 2.398438 22.976562 Z M 1.023438 21.601562 "/>
<path style=" stroke:none;fill-rule:nonzero;fill:rgb(40.000001%,47.450981%,56.078434%);fill-opacity:1;" d="M 7.03125 10.375 L 13.625 16.96875 L 10.945312 19.652344 C 10.460938 20.132812 9.820312 20.398438 9.136719 20.398438 C 8.453125 20.398438 7.808594 20.132812 7.328125 19.652344 L 6.3125 18.636719 L 5.890625 19.0625 L 2.398438 22.550781 L 1.449219 21.601562 L 4.9375 18.109375 L 5.363281 17.6875 L 4.347656 16.671875 C 3.351562 15.675781 3.351562 14.054688 4.347656 13.054688 L 7.03125 10.375 M 7.03125 9.527344 L 3.925781 12.632812 C 2.691406 13.863281 2.691406 15.863281 3.925781 17.097656 L 4.515625 17.6875 L 0.601562 21.601562 L 2.398438 23.398438 L 6.3125 19.484375 L 6.902344 20.074219 C 7.519531 20.691406 8.328125 21 9.136719 21 C 9.945312 21 10.753906 20.691406 11.367188 20.074219 L 14.472656 16.96875 Z M 7.03125 9.527344 "/>
<path style=" stroke:none;fill-rule:nonzero;fill:rgb(69.01961%,75.686276%,83.137256%);fill-opacity:1;" d="M 13.996094 17.675781 C 13.640625 17.675781 13.316406 17.542969 13.074219 17.304688 L 6.695312 10.925781 C 6.167969 10.398438 6.207031 9.507812 6.777344 8.9375 L 7.8125 7.902344 L 16.097656 16.1875 L 15.0625 17.222656 C 14.777344 17.511719 14.386719 17.675781 13.996094 17.675781 Z M 13.996094 17.675781 "/>
<path style=" stroke:none;fill-rule:nonzero;fill:rgb(40.000001%,47.450981%,56.078434%);fill-opacity:1;" d="M 7.808594 8.324219 L 15.675781 16.191406 L 14.851562 17.011719 C 14.621094 17.246094 14.308594 17.378906 13.996094 17.378906 C 13.722656 17.378906 13.46875 17.277344 13.285156 17.089844 L 6.90625 10.714844 C 6.496094 10.304688 6.535156 9.601562 6.988281 9.148438 L 7.808594 8.324219 M 7.808594 7.476562 L 6.5625 8.722656 C 5.875 9.414062 5.839844 10.492188 6.484375 11.136719 L 12.863281 17.515625 C 13.171875 17.824219 13.578125 17.976562 13.996094 17.976562 C 14.449219 17.976562 14.917969 17.796875 15.277344 17.4375 L 16.523438 16.191406 Z M 7.808594 7.476562 "/>
</g>
</svg>
