<?xml version="1.0" encoding="UTF-8" standalone="no"?>
<!DOCTYPE svg PUBLIC "-//W3C//DTD SVG 1.1//EN" "http://www.w3.org/Graphics/SVG/1.1/DTD/svg11.dtd">
<svg width="100%" height="100%" viewBox="0 0 30 30" version="1.1" xmlns="http://www.w3.org/2000/svg" xmlns:xlink="http://www.w3.org/1999/xlink" xml:space="preserve" xmlns:serif="http://www.serif.com/" style="fill-rule:evenodd;clip-rule:evenodd;stroke-linejoin:round;stroke-miterlimit:2;">
    <g id="surface26" transform="matrix(1,0,0,1,2.8125,0.9375)">
        <path d="M0.938,27.188L0.938,0.938L18.5,0.938L23.438,6.004L23.438,27.188L0.938,27.188Z" style="fill:rgb(254,254,254);fill-rule:nonzero;"/>
        <path d="M18.102,1.875L22.5,6.387L22.5,26.25L1.875,26.25L1.875,1.875L18.102,1.875M18.895,0L0,0L0,28.125L24.375,28.125L24.375,5.625L18.895,0Z" style="fill:rgb(120,139,156);fill-rule:nonzero;"/>
        <path d="M17.813,6.563L17.813,0.938L18.434,0.938L23.438,6.008L23.438,6.563L17.813,6.563Z" style="fill:rgb(254,254,254);fill-rule:nonzero;"/>
        <path d="M18.75,2.594L21.742,5.625L18.75,5.625L18.75,2.594M18.824,0L16.875,0L16.875,7.5L24.375,7.5L24.375,5.625L18.824,0Z" style="fill:rgb(120,139,156);fill-rule:nonzero;"/>
        <path d="M3.75,24.375L7.5,24.375L7.5,22.5L3.75,22.5L3.75,24.375ZM9.375,24.375L15,24.375L15,22.5L9.375,22.5L9.375,24.375ZM3.75,20.625L7.5,20.625L7.5,18.75L3.75,18.75L3.75,20.625ZM9.375,20.625L15,20.625L15,18.75L9.375,18.75L9.375,20.625ZM16.875,20.625L20.625,20.625L20.625,18.75L16.875,18.75L16.875,20.625ZM3.75,16.875L7.5,16.875L7.5,15L3.75,15L3.75,16.875ZM9.375,16.875L15,16.875L15,15L9.375,15L9.375,16.875ZM16.875,16.875L20.625,16.875L20.625,15L16.875,15L16.875,16.875ZM3.75,13.125L7.5,13.125L7.5,11.25L3.75,11.25L3.75,13.125ZM9.375,13.125L15,13.125L15,11.25L9.375,11.25L9.375,13.125ZM16.875,11.25L16.875,13.125L20.625,13.125L20.625,11.25L16.875,11.25ZM3.75,9.375L7.5,9.375L7.5,7.5L3.75,7.5L3.75,9.375ZM13.125,7.5L9.375,7.5L9.375,9.375L13.125,9.375L13.125,7.5ZM3.75,5.625L7.5,5.625L7.5,3.75L3.75,3.75L3.75,5.625ZM13.125,3.75L9.375,3.75L9.375,5.625L13.125,5.625L13.125,3.75Z" style="fill:rgb(180,180,180);fill-rule:nonzero;"/>
        <rect x="0" y="5.625" width="24.375" height="13.125" style="fill:rgb(50,55,60);"/>
        <g transform="matrix(0.735598,0,0,0.596124,-10.0314,-6.57276)">
            <path d="M18.758,26.949L16.082,26.949L16.082,24.227L24.406,24.227L24.406,26.949L21.703,26.949L21.703,39.383L18.758,39.383L18.758,26.949ZM31.539,39.383L30.594,36.598C30.301,35.719 30.031,34.863 29.781,33.895L29.715,33.895C29.469,34.863 29.242,35.781 29.016,36.641L28.207,39.383L25.281,39.383L28.117,31.625L25.398,24.227L28.453,24.227L29.355,27.039C29.578,27.824 29.805,28.613 30.031,29.465L30.074,29.465C30.324,28.543 30.523,27.824 30.727,26.992L31.492,24.227L34.441,24.227L31.605,31.758L34.598,39.383L31.539,39.383ZM38.063,26.949L35.391,26.949L35.391,24.227L43.711,24.227L43.711,26.949L41.016,26.949L41.016,39.383L38.063,39.383L38.063,26.949Z" style="fill:white;fill-rule:nonzero;"/>
        </g>
    </g>
</svg>
