<?xml version="1.0" encoding="UTF-8"?>
<svg xmlns="http://www.w3.org/2000/svg" xmlns:xlink="http://www.w3.org/1999/xlink" width="24pt" height="24pt" viewBox="0 0 24 24" version="1.1">
<g id="surface19423">
<path style=" stroke:none;fill-rule:nonzero;fill:rgb(44.705883%,64.705884%,86.666667%);fill-opacity:1;" d="M 4.5 2.699219 L 19.5 2.699219 L 19.5 6.300781 L 4.5 6.300781 Z M 4.5 2.699219 "/>
<path style=" stroke:none;fill-rule:nonzero;fill:rgb(30.588236%,47.843137%,70.980394%);fill-opacity:1;" d="M 19.199219 3 L 19.199219 6 L 4.800781 6 L 4.800781 3 L 19.199219 3 M 19.800781 2.398438 L 4.199219 2.398438 L 4.199219 6.601562 L 19.800781 6.601562 Z M 19.800781 2.398438 "/>
<path style=" stroke:none;fill-rule:nonzero;fill:rgb(54.509807%,71.764708%,94.117647%);fill-opacity:1;" d="M 2.699219 4.5 L 21.300781 4.5 L 21.300781 8.101562 L 2.699219 8.101562 Z M 2.699219 4.5 "/>
<path style=" stroke:none;fill-rule:nonzero;fill:rgb(30.588236%,47.843137%,70.980394%);fill-opacity:1;" d="M 21 4.800781 L 21 7.800781 L 3 7.800781 L 3 4.800781 L 21 4.800781 M 21.601562 4.199219 L 2.398438 4.199219 L 2.398438 8.398438 L 21.601562 8.398438 Z M 21.601562 4.199219 "/>
<path style=" stroke:none;fill-rule:nonzero;fill:rgb(76.078433%,90.980393%,100%);fill-opacity:1;" d="M 0.898438 6.300781 L 23.101562 6.300781 L 23.101562 21.300781 L 0.898438 21.300781 Z M 0.898438 6.300781 "/>
<path style=" stroke:none;fill-rule:nonzero;fill:rgb(30.588236%,47.843137%,70.980394%);fill-opacity:1;" d="M 22.800781 6.601562 L 22.800781 21 L 1.199219 21 L 1.199219 6.601562 L 22.800781 6.601562 M 23.398438 6 L 0.601562 6 L 0.601562 21.601562 L 23.398438 21.601562 Z M 23.398438 6 "/>
<path style=" stroke:none;fill-rule:nonzero;fill:rgb(30.588236%,47.843137%,70.980394%);fill-opacity:1;" d="M 9.601562 10.199219 L 9.601562 17.398438 L 16.199219 13.800781 Z M 9.601562 10.199219 "/>
</g>
</svg>
