<?xml version="1.0" encoding="UTF-8"?>
<svg xmlns="http://www.w3.org/2000/svg" xmlns:xlink="http://www.w3.org/1999/xlink" width="12pt" height="12pt" viewBox="0 0 12 12" version="1.1">
<g id="surface5283">
<path style=" stroke:none;fill-rule:nonzero;fill:rgb(72.941178%,87.843138%,74.117649%);fill-opacity:1;" d="M 1.875 10.875 L 1.875 0.375 L 7.398438 0.375 L 10.125 3.152344 L 10.125 10.875 Z M 1.875 10.875 "/>
<path style=" stroke:none;fill-rule:nonzero;fill:rgb(36.862746%,61.176473%,46.27451%);fill-opacity:1;" d="M 7.242188 0.75 L 9.75 3.308594 L 9.75 10.5 L 2.25 10.5 L 2.25 0.75 L 7.242188 0.75 M 7.558594 0 L 1.5 0 L 1.5 11.25 L 10.5 11.25 L 10.5 3 Z M 7.558594 0 "/>
<path style=" stroke:none;fill-rule:nonzero;fill:rgb(100%,100%,100%);fill-opacity:1;" d="M 7.125 3.375 L 7.125 0.375 L 7.375 0.375 L 10.125 3.15625 L 10.125 3.375 Z M 7.125 3.375 "/>
<path style=" stroke:none;fill-rule:nonzero;fill:rgb(36.862746%,61.176473%,46.27451%);fill-opacity:1;" d="M 7.5 1.035156 L 9.445312 3 L 7.5 3 L 7.5 1.035156 M 7.53125 0 L 6.75 0 L 6.75 3.75 L 10.5 3.75 L 10.5 3 Z M 7.53125 0 "/>
<path style=" stroke:none;fill-rule:nonzero;fill:rgb(26.666668%,50.980395%,36.470589%);fill-opacity:1;" d="M 4.765625 7.890625 C 4.679688 7.933594 4.511719 7.964844 4.308594 7.964844 C 3.53125 7.964844 3.164062 7.328125 3.164062 6.464844 C 3.164062 5.324219 3.796875 4.878906 4.386719 4.878906 C 4.59375 4.878906 4.738281 4.917969 4.796875 4.960938 L 4.695312 5.453125 C 4.628906 5.421875 4.550781 5.394531 4.421875 5.394531 C 4.089844 5.394531 3.789062 5.683594 3.789062 6.433594 C 3.789062 7.160156 4.0625 7.441406 4.421875 7.441406 C 4.519531 7.441406 4.632812 7.417969 4.703125 7.398438 Z M 5.132812 7.335938 C 5.257812 7.402344 5.464844 7.453125 5.632812 7.453125 C 5.90625 7.453125 6.046875 7.308594 6.046875 7.109375 C 6.046875 6.890625 5.914062 6.78125 5.65625 6.613281 C 5.242188 6.363281 5.085938 6.042969 5.085938 5.769531 C 5.085938 5.285156 5.410156 4.878906 6.039062 4.878906 C 6.238281 4.878906 6.429688 4.933594 6.515625 4.988281 L 6.421875 5.496094 C 6.335938 5.441406 6.203125 5.390625 6.039062 5.390625 C 5.785156 5.390625 5.664062 5.542969 5.664062 5.707031 C 5.664062 5.886719 5.753906 5.980469 6.078125 6.179688 C 6.484375 6.421875 6.628906 6.726562 6.628906 7.046875 C 6.628906 7.601562 6.21875 7.964844 5.628906 7.964844 C 5.386719 7.964844 5.152344 7.902344 5.050781 7.84375 Z M 7.507812 7.9375 L 6.835938 4.90625 L 7.488281 4.90625 L 7.703125 6.214844 C 7.75 6.542969 7.8125 6.910156 7.855469 7.265625 L 7.863281 7.265625 C 7.90625 6.90625 7.953125 6.542969 8.007812 6.199219 L 8.214844 4.90625 L 8.863281 4.90625 L 8.167969 7.9375 Z M 7.507812 7.9375 "/>
</g>
</svg>
