<?xml version="1.0" encoding="UTF-8"?>
<svg xmlns="http://www.w3.org/2000/svg" xmlns:xlink="http://www.w3.org/1999/xlink" width="30pt" height="30pt" viewBox="0 0 30 30" version="1.1">
<g id="surface13232">
<path style=" stroke:none;fill-rule:nonzero;fill:rgb(72.941178%,87.843138%,74.117649%);fill-opacity:1;" d="M 4.875 28.125 L 4.875 1.875 L 18.59375 1.875 L 25.125 8.40625 L 25.125 28.125 Z M 4.875 28.125 "/>
<path style=" stroke:none;fill-rule:nonzero;fill:rgb(36.862746%,61.176473%,46.27451%);fill-opacity:1;" d="M 18.441406 2.25 L 24.75 8.558594 L 24.75 27.75 L 5.25 27.75 L 5.25 2.25 L 18.441406 2.25 M 18.75 1.5 L 4.5 1.5 L 4.5 28.5 L 25.5 28.5 L 25.5 8.25 Z M 18.75 1.5 "/>
<path style=" stroke:none;fill-rule:nonzero;fill:rgb(100%,100%,100%);fill-opacity:1;" d="M 18.375 8.625 L 18.375 1.875 L 18.59375 1.875 L 25.125 8.40625 L 25.125 8.625 Z M 18.375 8.625 "/>
<path style=" stroke:none;fill-rule:nonzero;fill:rgb(36.862746%,61.176473%,46.27451%);fill-opacity:1;" d="M 18.75 2.558594 L 24.441406 8.25 L 18.75 8.25 L 18.75 2.558594 M 18.75 1.5 L 18 1.5 L 18 9 L 25.5 9 L 25.5 8.25 Z M 18.75 1.5 "/>
<path style=" stroke:none;fill-rule:nonzero;fill:rgb(26.666668%,50.980395%,36.470589%);fill-opacity:1;" d="M 12.300781 19.867188 C 12.113281 19.953125 11.753906 20.019531 11.316406 20.019531 C 9.628906 20.019531 8.828125 18.648438 8.828125 16.773438 C 8.828125 14.296875 10.203125 13.332031 11.480469 13.332031 C 11.929688 13.332031 12.242188 13.421875 12.367188 13.507812 L 12.152344 14.582031 C 12.007812 14.511719 11.839844 14.453125 11.558594 14.453125 C 10.835938 14.453125 10.183594 15.078125 10.183594 16.707031 C 10.183594 18.277344 10.777344 18.890625 11.558594 18.890625 C 11.773438 18.890625 12.015625 18.839844 12.171875 18.792969 Z M 13.097656 18.65625 C 13.363281 18.800781 13.820312 18.910156 14.179688 18.910156 C 14.777344 18.910156 15.078125 18.597656 15.078125 18.167969 C 15.078125 17.691406 14.785156 17.457031 14.230469 17.097656 C 13.332031 16.550781 12.992188 15.859375 12.992188 15.261719 C 12.992188 14.210938 13.695312 13.332031 15.058594 13.332031 C 15.496094 13.332031 15.90625 13.449219 16.09375 13.566406 L 15.886719 14.667969 C 15.703125 14.550781 15.421875 14.445312 15.058594 14.445312 C 14.511719 14.445312 14.25 14.777344 14.25 15.125 C 14.25 15.515625 14.445312 15.722656 15.148438 16.152344 C 16.023438 16.675781 16.335938 17.339844 16.335938 18.03125 C 16.335938 19.230469 15.449219 20.019531 14.171875 20.019531 C 13.644531 20.019531 13.136719 19.882812 12.914062 19.757812 Z M 18.246094 19.960938 L 16.785156 13.390625 L 18.199219 13.390625 L 18.664062 16.226562 C 18.773438 16.941406 18.910156 17.738281 18.996094 18.511719 L 19.015625 18.511719 C 19.105469 17.730469 19.210938 16.941406 19.328125 16.199219 L 19.777344 13.390625 L 21.179688 13.390625 L 19.679688 19.960938 Z M 18.246094 19.960938 "/>
</g>
</svg>
