<?xml version="1.0" encoding="UTF-8" standalone="no"?>
<!DOCTYPE svg PUBLIC "-//W3C//DTD SVG 1.1//EN" "http://www.w3.org/Graphics/SVG/1.1/DTD/svg11.dtd">
<svg width="100%" height="100%" viewBox="0 0 30 30" version="1.1" xmlns="http://www.w3.org/2000/svg" xmlns:xlink="http://www.w3.org/1999/xlink" xml:space="preserve" xmlns:serif="http://www.serif.com/" style="fill-rule:evenodd;clip-rule:evenodd;stroke-linejoin:round;stroke-miterlimit:2;">
    <g id="surface26" transform="matrix(1,0,0,1,2.8125,0.9375)">
        <path d="M0.938,27.188L0.938,0.938L18.5,0.938L23.438,6.004L23.438,27.188L0.938,27.188Z" style="fill:rgb(254,254,254);fill-rule:nonzero;"/>
        <path d="M18.102,1.875L22.5,6.387L22.5,26.25L1.875,26.25L1.875,1.875L18.102,1.875M18.895,0L0,0L0,28.125L24.375,28.125L24.375,5.625L18.895,0Z" style="fill:rgb(120,139,156);fill-rule:nonzero;"/>
        <path d="M17.813,6.563L17.813,0.938L18.434,0.938L23.438,6.008L23.438,6.563L17.813,6.563Z" style="fill:rgb(254,254,254);fill-rule:nonzero;"/>
        <path d="M18.75,2.594L21.742,5.625L18.75,5.625L18.75,2.594M18.824,0L16.875,0L16.875,7.5L24.375,7.5L24.375,5.625L18.824,0Z" style="fill:rgb(120,139,156);fill-rule:nonzero;"/>
        <path d="M3.75,24.375L7.5,24.375L7.5,22.5L3.75,22.5L3.75,24.375ZM9.375,24.375L15,24.375L15,22.5L9.375,22.5L9.375,24.375ZM3.75,20.625L7.5,20.625L7.5,18.75L3.75,18.75L3.75,20.625ZM9.375,20.625L15,20.625L15,18.75L9.375,18.75L9.375,20.625ZM16.875,20.625L20.625,20.625L20.625,18.75L16.875,18.75L16.875,20.625ZM3.75,16.875L7.5,16.875L7.5,15L3.75,15L3.75,16.875ZM9.375,16.875L15,16.875L15,15L9.375,15L9.375,16.875ZM16.875,16.875L20.625,16.875L20.625,15L16.875,15L16.875,16.875ZM3.75,13.125L7.5,13.125L7.5,11.25L3.75,11.25L3.75,13.125ZM9.375,13.125L15,13.125L15,11.25L9.375,11.25L9.375,13.125ZM16.875,11.25L16.875,13.125L20.625,13.125L20.625,11.25L16.875,11.25ZM3.75,9.375L7.5,9.375L7.5,7.5L3.75,7.5L3.75,9.375ZM13.125,7.5L9.375,7.5L9.375,9.375L13.125,9.375L13.125,7.5ZM3.75,5.625L7.5,5.625L7.5,3.75L3.75,3.75L3.75,5.625ZM13.125,3.75L9.375,3.75L9.375,5.625L13.125,5.625L13.125,3.75Z" style="fill:rgb(186,224,189);fill-rule:nonzero;"/>
        <rect x="0" y="5.625" width="24.375" height="13.125" style="fill:rgb(94,156,118);fill-rule:nonzero;"/>
        <path d="M7.445,9.703L7.445,10.219L5.723,10.219L5.723,9.781C5.723,8.988 4.984,8.82 4.66,8.82C4.23,8.82 3.598,8.926 3.598,9.895L3.598,14.609C3.598,14.875 3.605,15.555 4.641,15.555C5.621,15.555 5.723,14.805 5.723,14.621L5.723,14.168L7.445,14.168L7.445,14.738C7.445,15.496 6.68,16.875 4.711,16.875C4.383,16.875 1.875,16.84 1.875,14.699L1.875,9.621C1.875,8.68 2.676,7.5 4.676,7.5C7.105,7.5 7.445,9.188 7.445,9.703ZM12.133,7.5C9.266,7.5 9.18,9.68 9.18,10.027C9.18,11.816 10.309,12.164 11.051,12.395L12.281,12.785C13.051,13.055 13.277,13.105 13.277,14.184C13.277,15.297 12.953,15.555 12.031,15.555C11.047,15.555 10.816,15.008 10.816,14.609L10.816,14.199L9.094,14.199L9.094,14.688C9.094,16.285 10.914,16.875 12.031,16.875C14.344,16.875 15,15.609 15,14.168C15,12.316 14.195,11.977 13.195,11.645L11.879,11.242C10.883,10.938 10.941,10.598 10.926,10.473C10.91,10.348 10.898,10.195 10.898,10.012C10.898,8.813 11.828,8.82 12.063,8.82C13.133,8.82 13.277,9.633 13.277,9.938L13.277,10.23L15,10.23L15,9.586C15,8.887 14.242,7.5 12.133,7.5ZM20.676,7.578L19.293,14.016L19.262,14.016L17.895,7.578L16.07,7.578L18.516,16.797L20.035,16.797L22.5,7.578L20.676,7.578Z" style="fill:rgb(254,254,254);fill-rule:nonzero;"/>
    </g>
</svg>
