<?xml version="1.0" encoding="UTF-8"?>
<svg xmlns="http://www.w3.org/2000/svg" xmlns:xlink="http://www.w3.org/1999/xlink" width="30pt" height="30pt" viewBox="0 0 30 30" version="1.1">
<g id="surface13112">
<path style="fill:none;stroke-width:1;stroke-linecap:butt;stroke-linejoin:miter;stroke:rgb(30.588236%,47.843137%,70.980394%);stroke-opacity:1;stroke-miterlimit:10;" d="M 36 4 L 30 11 L 23 7 L 17 14 L 10 10 L 4 15 " transform="matrix(0.75,0,0,0.75,0,0)"/>
<path style=" stroke:none;fill-rule:nonzero;fill:rgb(54.509807%,71.764708%,94.117647%);fill-opacity:1;" d="M 3 10.125 C 2.378906 10.125 1.875 10.628906 1.875 11.25 C 1.875 11.871094 2.378906 12.375 3 12.375 C 3.621094 12.375 4.125 11.871094 4.125 11.25 C 4.125 10.628906 3.621094 10.125 3 10.125 Z M 3 10.125 "/>
<path style=" stroke:none;fill-rule:nonzero;fill:rgb(30.588236%,47.843137%,70.980394%);fill-opacity:1;" d="M 3 10.5 C 3.414062 10.5 3.75 10.835938 3.75 11.25 C 3.75 11.664062 3.414062 12 3 12 C 2.585938 12 2.25 11.664062 2.25 11.25 C 2.25 10.835938 2.585938 10.5 3 10.5 M 3 9.75 C 2.171875 9.75 1.5 10.421875 1.5 11.25 C 1.5 12.078125 2.171875 12.75 3 12.75 C 3.828125 12.75 4.5 12.078125 4.5 11.25 C 4.5 10.421875 3.828125 9.75 3 9.75 Z M 3 9.75 "/>
<path style=" stroke:none;fill-rule:nonzero;fill:rgb(54.509807%,71.764708%,94.117647%);fill-opacity:1;" d="M 7.5 6.375 C 6.878906 6.375 6.375 6.878906 6.375 7.5 C 6.375 8.121094 6.878906 8.625 7.5 8.625 C 8.121094 8.625 8.625 8.121094 8.625 7.5 C 8.625 6.878906 8.121094 6.375 7.5 6.375 Z M 7.5 6.375 "/>
<path style=" stroke:none;fill-rule:nonzero;fill:rgb(30.588236%,47.843137%,70.980394%);fill-opacity:1;" d="M 7.5 6.75 C 7.914062 6.75 8.25 7.085938 8.25 7.5 C 8.25 7.914062 7.914062 8.25 7.5 8.25 C 7.085938 8.25 6.75 7.914062 6.75 7.5 C 6.75 7.085938 7.085938 6.75 7.5 6.75 M 7.5 6 C 6.671875 6 6 6.671875 6 7.5 C 6 8.328125 6.671875 9 7.5 9 C 8.328125 9 9 8.328125 9 7.5 C 9 6.671875 8.328125 6 7.5 6 Z M 7.5 6 "/>
<path style=" stroke:none;fill-rule:nonzero;fill:rgb(54.509807%,71.764708%,94.117647%);fill-opacity:1;" d="M 12.75 9.375 C 12.128906 9.375 11.625 9.878906 11.625 10.5 C 11.625 11.121094 12.128906 11.625 12.75 11.625 C 13.371094 11.625 13.875 11.121094 13.875 10.5 C 13.875 9.878906 13.371094 9.375 12.75 9.375 Z M 12.75 9.375 "/>
<path style=" stroke:none;fill-rule:nonzero;fill:rgb(30.588236%,47.843137%,70.980394%);fill-opacity:1;" d="M 12.75 9.75 C 13.164062 9.75 13.5 10.085938 13.5 10.5 C 13.5 10.914062 13.164062 11.25 12.75 11.25 C 12.335938 11.25 12 10.914062 12 10.5 C 12 10.085938 12.335938 9.75 12.75 9.75 M 12.75 9 C 11.921875 9 11.25 9.671875 11.25 10.5 C 11.25 11.328125 11.921875 12 12.75 12 C 13.578125 12 14.25 11.328125 14.25 10.5 C 14.25 9.671875 13.578125 9 12.75 9 Z M 12.75 9 "/>
<path style=" stroke:none;fill-rule:nonzero;fill:rgb(54.509807%,71.764708%,94.117647%);fill-opacity:1;" d="M 17.25 4.125 C 16.628906 4.125 16.125 4.628906 16.125 5.25 C 16.125 5.871094 16.628906 6.375 17.25 6.375 C 17.871094 6.375 18.375 5.871094 18.375 5.25 C 18.375 4.628906 17.871094 4.125 17.25 4.125 Z M 17.25 4.125 "/>
<path style=" stroke:none;fill-rule:nonzero;fill:rgb(30.588236%,47.843137%,70.980394%);fill-opacity:1;" d="M 17.25 4.5 C 17.664062 4.5 18 4.835938 18 5.25 C 18 5.664062 17.664062 6 17.25 6 C 16.835938 6 16.5 5.664062 16.5 5.25 C 16.5 4.835938 16.835938 4.5 17.25 4.5 M 17.25 3.75 C 16.421875 3.75 15.75 4.421875 15.75 5.25 C 15.75 6.078125 16.421875 6.75 17.25 6.75 C 18.078125 6.75 18.75 6.078125 18.75 5.25 C 18.75 4.421875 18.078125 3.75 17.25 3.75 Z M 17.25 3.75 "/>
<path style=" stroke:none;fill-rule:nonzero;fill:rgb(54.509807%,71.764708%,94.117647%);fill-opacity:1;" d="M 22.5 7.125 C 21.878906 7.125 21.375 7.628906 21.375 8.25 C 21.375 8.871094 21.878906 9.375 22.5 9.375 C 23.121094 9.375 23.625 8.871094 23.625 8.25 C 23.625 7.628906 23.121094 7.125 22.5 7.125 Z M 22.5 7.125 "/>
<path style=" stroke:none;fill-rule:nonzero;fill:rgb(30.588236%,47.843137%,70.980394%);fill-opacity:1;" d="M 22.5 7.5 C 22.914062 7.5 23.25 7.835938 23.25 8.25 C 23.25 8.664062 22.914062 9 22.5 9 C 22.085938 9 21.75 8.664062 21.75 8.25 C 21.75 7.835938 22.085938 7.5 22.5 7.5 M 22.5 6.75 C 21.671875 6.75 21 7.421875 21 8.25 C 21 9.078125 21.671875 9.75 22.5 9.75 C 23.328125 9.75 24 9.078125 24 8.25 C 24 7.421875 23.328125 6.75 22.5 6.75 Z M 22.5 6.75 "/>
<path style=" stroke:none;fill-rule:nonzero;fill:rgb(54.509807%,71.764708%,94.117647%);fill-opacity:1;" d="M 27 1.875 C 26.378906 1.875 25.875 2.378906 25.875 3 C 25.875 3.621094 26.378906 4.125 27 4.125 C 27.621094 4.125 28.125 3.621094 28.125 3 C 28.125 2.378906 27.621094 1.875 27 1.875 Z M 27 1.875 "/>
<path style=" stroke:none;fill-rule:nonzero;fill:rgb(30.588236%,47.843137%,70.980394%);fill-opacity:1;" d="M 27 2.25 C 27.414062 2.25 27.75 2.585938 27.75 3 C 27.75 3.414062 27.414062 3.75 27 3.75 C 26.585938 3.75 26.25 3.414062 26.25 3 C 26.25 2.585938 26.585938 2.25 27 2.25 M 27 1.5 C 26.171875 1.5 25.5 2.171875 25.5 3 C 25.5 3.828125 26.171875 4.5 27 4.5 C 27.828125 4.5 28.5 3.828125 28.5 3 C 28.5 2.171875 27.828125 1.5 27 1.5 Z M 27 1.5 "/>
<path style=" stroke:none;fill-rule:nonzero;fill:rgb(72.941178%,87.843138%,74.117649%);fill-opacity:1;" d="M 25.125 11.625 L 28.125 11.625 L 28.125 28.875 L 25.125 28.875 Z M 25.125 11.625 "/>
<path style=" stroke:none;fill-rule:nonzero;fill:rgb(36.862746%,61.176473%,46.27451%);fill-opacity:1;" d="M 27.75 12 L 27.75 28.5 L 25.5 28.5 L 25.5 12 L 27.75 12 M 28.5 11.25 L 24.75 11.25 L 24.75 29.25 L 28.5 29.25 Z M 28.5 11.25 "/>
<path style=" stroke:none;fill-rule:nonzero;fill:rgb(72.941178%,87.843138%,74.117649%);fill-opacity:1;" d="M 16.125 15.375 L 19.125 15.375 L 19.125 28.875 L 16.125 28.875 Z M 16.125 15.375 "/>
<path style=" stroke:none;fill-rule:nonzero;fill:rgb(36.862746%,61.176473%,46.27451%);fill-opacity:1;" d="M 18.75 15.75 L 18.75 28.5 L 16.5 28.5 L 16.5 15.75 L 18.75 15.75 M 19.5 15 L 15.75 15 L 15.75 29.25 L 19.5 29.25 Z M 19.5 15 "/>
<path style=" stroke:none;fill-rule:nonzero;fill:rgb(72.941178%,87.843138%,74.117649%);fill-opacity:1;" d="M 11.625 20.625 L 14.625 20.625 L 14.625 28.875 L 11.625 28.875 Z M 11.625 20.625 "/>
<path style=" stroke:none;fill-rule:nonzero;fill:rgb(36.862746%,61.176473%,46.27451%);fill-opacity:1;" d="M 14.25 21 L 14.25 28.5 L 12 28.5 L 12 21 L 14.25 21 M 15 20.25 L 11.25 20.25 L 11.25 29.25 L 15 29.25 Z M 15 20.25 "/>
<path style=" stroke:none;fill-rule:nonzero;fill:rgb(72.941178%,87.843138%,74.117649%);fill-opacity:1;" d="M 7.125 18.375 L 10.125 18.375 L 10.125 28.875 L 7.125 28.875 Z M 7.125 18.375 "/>
<path style=" stroke:none;fill-rule:nonzero;fill:rgb(36.862746%,61.176473%,46.27451%);fill-opacity:1;" d="M 9.75 18.75 L 9.75 28.5 L 7.5 28.5 L 7.5 18.75 L 9.75 18.75 M 10.5 18 L 6.75 18 L 6.75 29.25 L 10.5 29.25 Z M 10.5 18 "/>
<path style=" stroke:none;fill-rule:nonzero;fill:rgb(72.941178%,87.843138%,74.117649%);fill-opacity:1;" d="M 2.625 22.125 L 5.625 22.125 L 5.625 28.875 L 2.625 28.875 Z M 2.625 22.125 "/>
<path style=" stroke:none;fill-rule:nonzero;fill:rgb(36.862746%,61.176473%,46.27451%);fill-opacity:1;" d="M 5.25 22.5 L 5.25 28.5 L 3 28.5 L 3 22.5 L 5.25 22.5 M 6 21.75 L 2.25 21.75 L 2.25 29.25 L 6 29.25 Z M 6 21.75 "/>
<path style=" stroke:none;fill-rule:nonzero;fill:rgb(72.941178%,87.843138%,74.117649%);fill-opacity:1;" d="M 20.625 17.625 L 23.625 17.625 L 23.625 28.875 L 20.625 28.875 Z M 20.625 17.625 "/>
<path style=" stroke:none;fill-rule:nonzero;fill:rgb(36.862746%,61.176473%,46.27451%);fill-opacity:1;" d="M 23.25 18 L 23.25 28.5 L 21 28.5 L 21 18 L 23.25 18 M 24 17.25 L 20.25 17.25 L 20.25 29.25 L 24 29.25 Z M 24 17.25 "/>
</g>
</svg>
