<?xml version="1.0" encoding="UTF-8"?>
<svg xmlns="http://www.w3.org/2000/svg" xmlns:xlink="http://www.w3.org/1999/xlink" width="24pt" height="24pt" viewBox="0 0 24 24" version="1.1">
<g id="surface6484">
<path style="fill:none;stroke-width:1;stroke-linecap:butt;stroke-linejoin:miter;stroke:rgb(30.588236%,47.843137%,70.980394%);stroke-opacity:1;stroke-miterlimit:10;" d="M 36.002604 3.997396 L 30 11.002604 L 23.001302 6.998698 L 16.998698 13.997396 L 10 10 L 3.997396 15 " transform="matrix(0.6,0,0,0.6,0,0)"/>
<path style=" stroke:none;fill-rule:nonzero;fill:rgb(54.509807%,71.764708%,94.117647%);fill-opacity:1;" d="M 2.398438 8.101562 C 1.902344 8.101562 1.5 8.503906 1.5 9 C 1.5 9.496094 1.902344 9.898438 2.398438 9.898438 C 2.898438 9.898438 3.300781 9.496094 3.300781 9 C 3.300781 8.503906 2.898438 8.101562 2.398438 8.101562 Z M 2.398438 8.101562 "/>
<path style=" stroke:none;fill-rule:nonzero;fill:rgb(30.588236%,47.843137%,70.980394%);fill-opacity:1;" d="M 2.398438 8.398438 C 2.730469 8.398438 3 8.667969 3 9 C 3 9.332031 2.730469 9.601562 2.398438 9.601562 C 2.070312 9.601562 1.800781 9.332031 1.800781 9 C 1.800781 8.667969 2.070312 8.398438 2.398438 8.398438 M 2.398438 7.800781 C 1.738281 7.800781 1.199219 8.335938 1.199219 9 C 1.199219 9.664062 1.738281 10.199219 2.398438 10.199219 C 3.0625 10.199219 3.601562 9.664062 3.601562 9 C 3.601562 8.335938 3.0625 7.800781 2.398438 7.800781 Z M 2.398438 7.800781 "/>
<path style=" stroke:none;fill-rule:nonzero;fill:rgb(54.509807%,71.764708%,94.117647%);fill-opacity:1;" d="M 6 5.101562 C 5.503906 5.101562 5.101562 5.503906 5.101562 6 C 5.101562 6.496094 5.503906 6.898438 6 6.898438 C 6.496094 6.898438 6.898438 6.496094 6.898438 6 C 6.898438 5.503906 6.496094 5.101562 6 5.101562 Z M 6 5.101562 "/>
<path style=" stroke:none;fill-rule:nonzero;fill:rgb(30.588236%,47.843137%,70.980394%);fill-opacity:1;" d="M 6 5.398438 C 6.332031 5.398438 6.601562 5.667969 6.601562 6 C 6.601562 6.332031 6.332031 6.601562 6 6.601562 C 5.667969 6.601562 5.398438 6.332031 5.398438 6 C 5.398438 5.667969 5.667969 5.398438 6 5.398438 M 6 4.800781 C 5.335938 4.800781 4.800781 5.335938 4.800781 6 C 4.800781 6.664062 5.335938 7.199219 6 7.199219 C 6.664062 7.199219 7.199219 6.664062 7.199219 6 C 7.199219 5.335938 6.664062 4.800781 6 4.800781 Z M 6 4.800781 "/>
<path style=" stroke:none;fill-rule:nonzero;fill:rgb(54.509807%,71.764708%,94.117647%);fill-opacity:1;" d="M 10.199219 7.5 C 9.703125 7.5 9.300781 7.902344 9.300781 8.398438 C 9.300781 8.898438 9.703125 9.300781 10.199219 9.300781 C 10.695312 9.300781 11.101562 8.898438 11.101562 8.398438 C 11.101562 7.902344 10.695312 7.5 10.199219 7.5 Z M 10.199219 7.5 "/>
<path style=" stroke:none;fill-rule:nonzero;fill:rgb(30.588236%,47.843137%,70.980394%);fill-opacity:1;" d="M 10.199219 7.800781 C 10.53125 7.800781 10.800781 8.070312 10.800781 8.398438 C 10.800781 8.730469 10.53125 9 10.199219 9 C 9.871094 9 9.601562 8.730469 9.601562 8.398438 C 9.601562 8.070312 9.871094 7.800781 10.199219 7.800781 M 10.199219 7.199219 C 9.535156 7.199219 9 7.738281 9 8.398438 C 9 9.0625 9.535156 9.601562 10.199219 9.601562 C 10.863281 9.601562 11.398438 9.0625 11.398438 8.398438 C 11.398438 7.738281 10.863281 7.199219 10.199219 7.199219 Z M 10.199219 7.199219 "/>
<path style=" stroke:none;fill-rule:nonzero;fill:rgb(54.509807%,71.764708%,94.117647%);fill-opacity:1;" d="M 13.800781 3.300781 C 13.304688 3.300781 12.898438 3.703125 12.898438 4.199219 C 12.898438 4.695312 13.304688 5.101562 13.800781 5.101562 C 14.296875 5.101562 14.699219 4.695312 14.699219 4.199219 C 14.699219 3.703125 14.296875 3.300781 13.800781 3.300781 Z M 13.800781 3.300781 "/>
<path style=" stroke:none;fill-rule:nonzero;fill:rgb(30.588236%,47.843137%,70.980394%);fill-opacity:1;" d="M 13.800781 3.601562 C 14.128906 3.601562 14.398438 3.871094 14.398438 4.199219 C 14.398438 4.53125 14.128906 4.800781 13.800781 4.800781 C 13.46875 4.800781 13.199219 4.53125 13.199219 4.199219 C 13.199219 3.871094 13.46875 3.601562 13.800781 3.601562 M 13.800781 3 C 13.136719 3 12.601562 3.535156 12.601562 4.199219 C 12.601562 4.863281 13.136719 5.398438 13.800781 5.398438 C 14.464844 5.398438 15 4.863281 15 4.199219 C 15 3.535156 14.464844 3 13.800781 3 Z M 13.800781 3 "/>
<path style=" stroke:none;fill-rule:nonzero;fill:rgb(54.509807%,71.764708%,94.117647%);fill-opacity:1;" d="M 18 5.699219 C 17.503906 5.699219 17.101562 6.101562 17.101562 6.601562 C 17.101562 7.097656 17.503906 7.5 18 7.5 C 18.496094 7.5 18.898438 7.097656 18.898438 6.601562 C 18.898438 6.101562 18.496094 5.699219 18 5.699219 Z M 18 5.699219 "/>
<path style=" stroke:none;fill-rule:nonzero;fill:rgb(30.588236%,47.843137%,70.980394%);fill-opacity:1;" d="M 18 6 C 18.332031 6 18.601562 6.269531 18.601562 6.601562 C 18.601562 6.929688 18.332031 7.199219 18 7.199219 C 17.667969 7.199219 17.398438 6.929688 17.398438 6.601562 C 17.398438 6.269531 17.667969 6 18 6 M 18 5.398438 C 17.335938 5.398438 16.800781 5.9375 16.800781 6.601562 C 16.800781 7.261719 17.335938 7.800781 18 7.800781 C 18.664062 7.800781 19.199219 7.261719 19.199219 6.601562 C 19.199219 5.9375 18.664062 5.398438 18 5.398438 Z M 18 5.398438 "/>
<path style=" stroke:none;fill-rule:nonzero;fill:rgb(54.509807%,71.764708%,94.117647%);fill-opacity:1;" d="M 21.601562 1.5 C 21.101562 1.5 20.699219 1.902344 20.699219 2.398438 C 20.699219 2.898438 21.101562 3.300781 21.601562 3.300781 C 22.097656 3.300781 22.5 2.898438 22.5 2.398438 C 22.5 1.902344 22.097656 1.5 21.601562 1.5 Z M 21.601562 1.5 "/>
<path style=" stroke:none;fill-rule:nonzero;fill:rgb(30.588236%,47.843137%,70.980394%);fill-opacity:1;" d="M 21.601562 1.800781 C 21.929688 1.800781 22.199219 2.070312 22.199219 2.398438 C 22.199219 2.730469 21.929688 3 21.601562 3 C 21.269531 3 21 2.730469 21 2.398438 C 21 2.070312 21.269531 1.800781 21.601562 1.800781 M 21.601562 1.199219 C 20.9375 1.199219 20.398438 1.738281 20.398438 2.398438 C 20.398438 3.0625 20.9375 3.601562 21.601562 3.601562 C 22.261719 3.601562 22.800781 3.0625 22.800781 2.398438 C 22.800781 1.738281 22.261719 1.199219 21.601562 1.199219 Z M 21.601562 1.199219 "/>
<path style=" stroke:none;fill-rule:nonzero;fill:rgb(72.941178%,87.843138%,74.117649%);fill-opacity:1;" d="M 20.101562 9.300781 L 22.5 9.300781 L 22.5 23.101562 L 20.101562 23.101562 Z M 20.101562 9.300781 "/>
<path style=" stroke:none;fill-rule:nonzero;fill:rgb(36.862746%,61.176473%,46.27451%);fill-opacity:1;" d="M 22.199219 9.601562 L 22.199219 22.800781 L 20.398438 22.800781 L 20.398438 9.601562 L 22.199219 9.601562 M 22.800781 9 L 19.800781 9 L 19.800781 23.398438 L 22.800781 23.398438 Z M 22.800781 9 "/>
<path style=" stroke:none;fill-rule:nonzero;fill:rgb(72.941178%,87.843138%,74.117649%);fill-opacity:1;" d="M 12.898438 12.300781 L 15.300781 12.300781 L 15.300781 23.101562 L 12.898438 23.101562 Z M 12.898438 12.300781 "/>
<path style=" stroke:none;fill-rule:nonzero;fill:rgb(36.862746%,61.176473%,46.27451%);fill-opacity:1;" d="M 15 12.601562 L 15 22.800781 L 13.199219 22.800781 L 13.199219 12.601562 L 15 12.601562 M 15.601562 12 L 12.601562 12 L 12.601562 23.398438 L 15.601562 23.398438 Z M 15.601562 12 "/>
<path style=" stroke:none;fill-rule:nonzero;fill:rgb(72.941178%,87.843138%,74.117649%);fill-opacity:1;" d="M 9.300781 16.5 L 11.699219 16.5 L 11.699219 23.101562 L 9.300781 23.101562 Z M 9.300781 16.5 "/>
<path style=" stroke:none;fill-rule:nonzero;fill:rgb(36.862746%,61.176473%,46.27451%);fill-opacity:1;" d="M 11.398438 16.800781 L 11.398438 22.800781 L 9.601562 22.800781 L 9.601562 16.800781 L 11.398438 16.800781 M 12 16.199219 L 9 16.199219 L 9 23.398438 L 12 23.398438 Z M 12 16.199219 "/>
<path style=" stroke:none;fill-rule:nonzero;fill:rgb(72.941178%,87.843138%,74.117649%);fill-opacity:1;" d="M 5.699219 14.699219 L 8.101562 14.699219 L 8.101562 23.101562 L 5.699219 23.101562 Z M 5.699219 14.699219 "/>
<path style=" stroke:none;fill-rule:nonzero;fill:rgb(36.862746%,61.176473%,46.27451%);fill-opacity:1;" d="M 7.800781 15 L 7.800781 22.800781 L 6 22.800781 L 6 15 L 7.800781 15 M 8.398438 14.398438 L 5.398438 14.398438 L 5.398438 23.398438 L 8.398438 23.398438 Z M 8.398438 14.398438 "/>
<path style=" stroke:none;fill-rule:nonzero;fill:rgb(72.941178%,87.843138%,74.117649%);fill-opacity:1;" d="M 2.101562 17.699219 L 4.5 17.699219 L 4.5 23.101562 L 2.101562 23.101562 Z M 2.101562 17.699219 "/>
<path style=" stroke:none;fill-rule:nonzero;fill:rgb(36.862746%,61.176473%,46.27451%);fill-opacity:1;" d="M 4.199219 18 L 4.199219 22.800781 L 2.398438 22.800781 L 2.398438 18 L 4.199219 18 M 4.800781 17.398438 L 1.800781 17.398438 L 1.800781 23.398438 L 4.800781 23.398438 Z M 4.800781 17.398438 "/>
<path style=" stroke:none;fill-rule:nonzero;fill:rgb(72.941178%,87.843138%,74.117649%);fill-opacity:1;" d="M 16.5 14.101562 L 18.898438 14.101562 L 18.898438 23.101562 L 16.5 23.101562 Z M 16.5 14.101562 "/>
<path style=" stroke:none;fill-rule:nonzero;fill:rgb(36.862746%,61.176473%,46.27451%);fill-opacity:1;" d="M 18.601562 14.398438 L 18.601562 22.800781 L 16.800781 22.800781 L 16.800781 14.398438 L 18.601562 14.398438 M 19.199219 13.800781 L 16.199219 13.800781 L 16.199219 23.398438 L 19.199219 23.398438 Z M 19.199219 13.800781 "/>
</g>
</svg>
