<?xml version="1.0" encoding="UTF-8"?>
<svg xmlns="http://www.w3.org/2000/svg" xmlns:xlink="http://www.w3.org/1999/xlink" width="12pt" height="12pt" viewBox="0 0 12 12" version="1.1">
<g id="surface4853">
<path style=" stroke:none;fill-rule:nonzero;fill:rgb(40.000001%,47.450981%,56.078434%);fill-opacity:1;" d="M 5.855469 5.652344 L 10.335938 4.160156 L 10.574219 4.871094 L 6.09375 6.367188 Z M 5.855469 5.652344 "/>
<path style=" stroke:none;fill-rule:nonzero;fill:rgb(40.000001%,47.450981%,56.078434%);fill-opacity:1;" d="M 8.699219 10.726562 L 5.625 6.074219 L 6.375 1.425781 L 7.125 1.574219 L 6.375 5.925781 L 9.300781 10.273438 Z M 8.699219 10.726562 "/>
<path style=" stroke:none;fill-rule:nonzero;fill:rgb(40.000001%,47.450981%,56.078434%);fill-opacity:1;" d="M 3.300781 10.726562 L 2.699219 10.273438 L 5.398438 6.226562 L 1.351562 4.875 L 1.648438 4.125 L 6.601562 5.773438 Z M 3.300781 10.726562 "/>
<path style=" stroke:none;fill-rule:nonzero;fill:rgb(54.509807%,71.764708%,94.117647%);fill-opacity:1;" d="M 6 4.125 C 4.964844 4.125 4.125 4.964844 4.125 6 C 4.125 7.035156 4.964844 7.875 6 7.875 C 7.035156 7.875 7.875 7.035156 7.875 6 C 7.875 4.964844 7.035156 4.125 6 4.125 Z M 6 4.125 "/>
<path style=" stroke:none;fill-rule:nonzero;fill:rgb(30.588236%,47.843137%,70.980394%);fill-opacity:1;" d="M 6 4.5 C 6.824219 4.5 7.5 5.175781 7.5 6 C 7.5 6.824219 6.824219 7.5 6 7.5 C 5.175781 7.5 4.5 6.824219 4.5 6 C 4.5 5.175781 5.175781 4.5 6 4.5 M 6 3.75 C 4.726562 3.75 3.75 4.726562 3.75 6 C 3.75 7.273438 4.726562 8.25 6 8.25 C 7.273438 8.25 8.25 7.273438 8.25 6 C 8.25 4.726562 7.273438 3.75 6 3.75 Z M 6 3.75 "/>
<path style=" stroke:none;fill-rule:nonzero;fill:rgb(72.941178%,87.843138%,74.117649%);fill-opacity:1;" d="M 6.75 0.375 C 6.128906 0.375 5.625 0.878906 5.625 1.5 C 5.625 2.121094 6.128906 2.625 6.75 2.625 C 7.371094 2.625 7.875 2.121094 7.875 1.5 C 7.875 0.878906 7.371094 0.375 6.75 0.375 Z M 6.75 0.375 "/>
<path style=" stroke:none;fill-rule:nonzero;fill:rgb(36.862746%,61.176473%,46.27451%);fill-opacity:1;" d="M 6.75 0.75 C 7.199219 0.75 7.5 1.050781 7.5 1.5 C 7.5 1.949219 7.199219 2.25 6.75 2.25 C 6.300781 2.25 6 1.949219 6 1.5 C 6 1.050781 6.300781 0.75 6.75 0.75 M 6.75 0 C 5.925781 0 5.25 0.675781 5.25 1.5 C 5.25 2.324219 5.925781 3 6.75 3 C 7.574219 3 8.25 2.324219 8.25 1.5 C 8.25 0.675781 7.574219 0 6.75 0 Z M 6.75 0 "/>
<path style=" stroke:none;fill-rule:nonzero;fill:rgb(72.941178%,87.843138%,74.117649%);fill-opacity:1;" d="M 10.5 3.375 C 9.878906 3.375 9.375 3.878906 9.375 4.5 C 9.375 5.121094 9.878906 5.625 10.5 5.625 C 11.121094 5.625 11.625 5.121094 11.625 4.5 C 11.625 3.878906 11.121094 3.375 10.5 3.375 Z M 10.5 3.375 "/>
<path style=" stroke:none;fill-rule:nonzero;fill:rgb(36.862746%,61.176473%,46.27451%);fill-opacity:1;" d="M 10.5 3.75 C 10.949219 3.75 11.25 4.050781 11.25 4.5 C 11.25 4.949219 10.949219 5.25 10.5 5.25 C 10.050781 5.25 9.75 4.949219 9.75 4.5 C 9.75 4.050781 10.050781 3.75 10.5 3.75 M 10.5 3 C 9.675781 3 9 3.675781 9 4.5 C 9 5.324219 9.675781 6 10.5 6 C 11.324219 6 12 5.324219 12 4.5 C 12 3.675781 11.324219 3 10.5 3 Z M 10.5 3 "/>
<path style=" stroke:none;fill-rule:nonzero;fill:rgb(72.941178%,87.843138%,74.117649%);fill-opacity:1;" d="M 9 9.375 C 8.378906 9.375 7.875 9.878906 7.875 10.5 C 7.875 11.121094 8.378906 11.625 9 11.625 C 9.621094 11.625 10.125 11.121094 10.125 10.5 C 10.125 9.878906 9.621094 9.375 9 9.375 Z M 9 9.375 "/>
<path style=" stroke:none;fill-rule:nonzero;fill:rgb(36.862746%,61.176473%,46.27451%);fill-opacity:1;" d="M 9 9.75 C 9.449219 9.75 9.75 10.050781 9.75 10.5 C 9.75 10.949219 9.449219 11.25 9 11.25 C 8.550781 11.25 8.25 10.949219 8.25 10.5 C 8.25 10.050781 8.550781 9.75 9 9.75 M 9 9 C 8.175781 9 7.5 9.675781 7.5 10.5 C 7.5 11.324219 8.175781 12 9 12 C 9.824219 12 10.5 11.324219 10.5 10.5 C 10.5 9.675781 9.824219 9 9 9 Z M 9 9 "/>
<path style=" stroke:none;fill-rule:nonzero;fill:rgb(72.941178%,87.843138%,74.117649%);fill-opacity:1;" d="M 3 9.375 C 2.378906 9.375 1.875 9.878906 1.875 10.5 C 1.875 11.121094 2.378906 11.625 3 11.625 C 3.621094 11.625 4.125 11.121094 4.125 10.5 C 4.125 9.878906 3.621094 9.375 3 9.375 Z M 3 9.375 "/>
<path style=" stroke:none;fill-rule:nonzero;fill:rgb(36.862746%,61.176473%,46.27451%);fill-opacity:1;" d="M 3 9.75 C 3.449219 9.75 3.75 10.050781 3.75 10.5 C 3.75 10.949219 3.449219 11.25 3 11.25 C 2.550781 11.25 2.25 10.949219 2.25 10.5 C 2.25 10.050781 2.550781 9.75 3 9.75 M 3 9 C 2.175781 9 1.5 9.675781 1.5 10.5 C 1.5 11.324219 2.175781 12 3 12 C 3.824219 12 4.5 11.324219 4.5 10.5 C 4.5 9.675781 3.824219 9 3 9 Z M 3 9 "/>
<path style=" stroke:none;fill-rule:nonzero;fill:rgb(72.941178%,87.843138%,74.117649%);fill-opacity:1;" d="M 1.5 3.375 C 0.878906 3.375 0.375 3.878906 0.375 4.5 C 0.375 5.121094 0.878906 5.625 1.5 5.625 C 2.121094 5.625 2.625 5.121094 2.625 4.5 C 2.625 3.878906 2.121094 3.375 1.5 3.375 Z M 1.5 3.375 "/>
<path style=" stroke:none;fill-rule:nonzero;fill:rgb(36.862746%,61.176473%,46.27451%);fill-opacity:1;" d="M 1.5 3.75 C 1.949219 3.75 2.25 4.050781 2.25 4.5 C 2.25 4.949219 1.949219 5.25 1.5 5.25 C 1.050781 5.25 0.75 4.949219 0.75 4.5 C 0.75 4.050781 1.050781 3.75 1.5 3.75 M 1.5 3 C 0.675781 3 0 3.675781 0 4.5 C 0 5.324219 0.675781 6 1.5 6 C 2.324219 6 3 5.324219 3 4.5 C 3 3.675781 2.324219 3 1.5 3 Z M 1.5 3 "/>
</g>
</svg>
