<?xml version="1.0" encoding="UTF-8"?>
<svg xmlns="http://www.w3.org/2000/svg" xmlns:xlink="http://www.w3.org/1999/xlink" width="22.5pt" height="22.5pt" viewBox="0 0 22.5 22.5" version="1.1">
<g id="surface1473">
<path style=" stroke:none;fill-rule:nonzero;fill:rgb(40.000001%,47.450981%,56.078434%);fill-opacity:1;" d="M 10.902344 10.644531 L 18.96875 8.449219 L 19.164062 9.15625 L 11.097656 11.351562 Z M 10.902344 10.644531 "/>
<path style=" stroke:none;fill-rule:nonzero;fill:rgb(40.000001%,47.450981%,56.078434%);fill-opacity:1;" d="M 15.839844 19.285156 L 10.632812 11.074219 L 12.101562 2.859375 L 12.832031 3.007812 L 11.367188 10.925781 L 16.425781 18.847656 Z M 15.839844 19.285156 "/>
<path style=" stroke:none;fill-rule:nonzero;fill:rgb(40.000001%,47.450981%,56.078434%);fill-opacity:1;" d="M 6.894531 19.214844 L 6.308594 18.921875 L 10.488281 11.21875 L 2.859375 9.167969 L 3.007812 8.433594 L 11.511719 10.78125 Z M 6.894531 19.214844 "/>
<path style=" stroke:none;fill-rule:nonzero;fill:rgb(54.509807%,71.764708%,94.117647%);fill-opacity:1;" d="M 11 8.433594 C 9.582031 8.433594 8.433594 9.582031 8.433594 11 C 8.433594 12.417969 9.582031 13.566406 11 13.566406 C 12.417969 13.566406 13.566406 12.417969 13.566406 11 C 13.566406 9.582031 12.417969 8.433594 11 8.433594 Z M 11 8.433594 "/>
<path style=" stroke:none;fill-rule:nonzero;fill:rgb(30.588236%,47.843137%,70.980394%);fill-opacity:1;" d="M 11 8.800781 C 12.246094 8.800781 13.199219 9.753906 13.199219 11 C 13.199219 12.246094 12.246094 13.199219 11 13.199219 C 9.753906 13.199219 8.800781 12.246094 8.800781 11 C 8.800781 9.753906 9.753906 8.800781 11 8.800781 M 11 8.066406 C 9.386719 8.066406 8.066406 9.386719 8.066406 11 C 8.066406 12.613281 9.386719 13.933594 11 13.933594 C 12.613281 13.933594 13.933594 12.613281 13.933594 11 C 13.933594 9.386719 12.613281 8.066406 11 8.066406 Z M 11 8.066406 "/>
<path style=" stroke:none;fill-rule:nonzero;fill:rgb(72.941178%,87.843138%,74.117649%);fill-opacity:1;" d="M 12.464844 1.101562 C 11.453125 1.101562 10.632812 1.921875 10.632812 2.933594 C 10.632812 3.945312 11.453125 4.765625 12.464844 4.765625 C 13.480469 4.765625 14.300781 3.945312 14.300781 2.933594 C 14.300781 1.921875 13.480469 1.101562 12.464844 1.101562 Z M 12.464844 1.101562 "/>
<path style=" stroke:none;fill-rule:nonzero;fill:rgb(36.862746%,61.176473%,46.27451%);fill-opacity:1;" d="M 12.464844 1.464844 C 13.273438 1.464844 13.933594 2.125 13.933594 2.933594 C 13.933594 3.738281 13.273438 4.398438 12.464844 4.398438 C 11.660156 4.398438 11 3.738281 11 2.933594 C 11 2.125 11.660156 1.464844 12.464844 1.464844 M 12.464844 0.734375 C 11.21875 0.734375 10.265625 1.6875 10.265625 2.933594 C 10.265625 4.179688 11.21875 5.132812 12.464844 5.132812 C 13.714844 5.132812 14.667969 4.179688 14.667969 2.933594 C 14.667969 1.6875 13.714844 0.734375 12.464844 0.734375 Z M 12.464844 0.734375 "/>
<path style=" stroke:none;fill-rule:nonzero;fill:rgb(72.941178%,87.843138%,74.117649%);fill-opacity:1;" d="M 19.066406 6.964844 C 18.054688 6.964844 17.234375 7.789062 17.234375 8.800781 C 17.234375 9.8125 18.054688 10.632812 19.066406 10.632812 C 20.078125 10.632812 20.898438 9.8125 20.898438 8.800781 C 20.898438 7.789062 20.078125 6.964844 19.066406 6.964844 Z M 19.066406 6.964844 "/>
<path style=" stroke:none;fill-rule:nonzero;fill:rgb(36.862746%,61.176473%,46.27451%);fill-opacity:1;" d="M 19.066406 7.332031 C 19.875 7.332031 20.535156 7.992188 20.535156 8.800781 C 20.535156 9.605469 19.875 10.265625 19.066406 10.265625 C 18.261719 10.265625 17.601562 9.605469 17.601562 8.800781 C 17.601562 7.992188 18.261719 7.332031 19.066406 7.332031 M 19.066406 6.601562 C 17.820312 6.601562 16.867188 7.554688 16.867188 8.800781 C 16.867188 10.046875 17.820312 11 19.066406 11 C 20.3125 11 21.265625 10.046875 21.265625 8.800781 C 21.265625 7.554688 20.3125 6.601562 19.066406 6.601562 Z M 19.066406 6.601562 "/>
<path style=" stroke:none;fill-rule:nonzero;fill:rgb(72.941178%,87.843138%,74.117649%);fill-opacity:1;" d="M 16.132812 17.234375 C 15.121094 17.234375 14.300781 18.054688 14.300781 19.066406 C 14.300781 20.078125 15.121094 20.898438 16.132812 20.898438 C 17.144531 20.898438 17.964844 20.078125 17.964844 19.066406 C 17.964844 18.054688 17.144531 17.234375 16.132812 17.234375 Z M 16.132812 17.234375 "/>
<path style=" stroke:none;fill-rule:nonzero;fill:rgb(36.862746%,61.176473%,46.27451%);fill-opacity:1;" d="M 16.132812 17.601562 C 16.941406 17.601562 17.601562 18.261719 17.601562 19.066406 C 17.601562 19.875 16.941406 20.535156 16.132812 20.535156 C 15.328125 20.535156 14.667969 19.875 14.667969 19.066406 C 14.667969 18.261719 15.328125 17.601562 16.132812 17.601562 M 16.132812 16.867188 C 14.886719 16.867188 13.933594 17.820312 13.933594 19.066406 C 13.933594 20.3125 14.886719 21.265625 16.132812 21.265625 C 17.378906 21.265625 18.332031 20.3125 18.332031 19.066406 C 18.332031 17.820312 17.378906 16.867188 16.132812 16.867188 Z M 16.132812 16.867188 "/>
<path style=" stroke:none;fill-rule:nonzero;fill:rgb(72.941178%,87.843138%,74.117649%);fill-opacity:1;" d="M 6.601562 17.234375 C 5.585938 17.234375 4.765625 18.054688 4.765625 19.066406 C 4.765625 20.078125 5.585938 20.898438 6.601562 20.898438 C 7.613281 20.898438 8.433594 20.078125 8.433594 19.066406 C 8.433594 18.054688 7.613281 17.234375 6.601562 17.234375 Z M 6.601562 17.234375 "/>
<path style=" stroke:none;fill-rule:nonzero;fill:rgb(36.862746%,61.176473%,46.27451%);fill-opacity:1;" d="M 6.601562 17.601562 C 7.40625 17.601562 8.066406 18.261719 8.066406 19.066406 C 8.066406 19.875 7.40625 20.535156 6.601562 20.535156 C 5.792969 20.535156 5.132812 19.875 5.132812 19.066406 C 5.132812 18.261719 5.792969 17.601562 6.601562 17.601562 M 6.601562 16.867188 C 5.351562 16.867188 4.398438 17.820312 4.398438 19.066406 C 4.398438 20.3125 5.351562 21.265625 6.601562 21.265625 C 7.847656 21.265625 8.800781 20.3125 8.800781 19.066406 C 8.800781 17.820312 7.847656 16.867188 6.601562 16.867188 Z M 6.601562 16.867188 "/>
<path style=" stroke:none;fill-rule:nonzero;fill:rgb(72.941178%,87.843138%,74.117649%);fill-opacity:1;" d="M 2.933594 6.964844 C 1.921875 6.964844 1.101562 7.789062 1.101562 8.800781 C 1.101562 9.8125 1.921875 10.632812 2.933594 10.632812 C 3.945312 10.632812 4.765625 9.8125 4.765625 8.800781 C 4.765625 7.789062 3.945312 6.964844 2.933594 6.964844 Z M 2.933594 6.964844 "/>
<path style=" stroke:none;fill-rule:nonzero;fill:rgb(36.862746%,61.176473%,46.27451%);fill-opacity:1;" d="M 2.933594 7.332031 C 3.738281 7.332031 4.398438 7.992188 4.398438 8.800781 C 4.398438 9.605469 3.738281 10.265625 2.933594 10.265625 C 2.125 10.265625 1.464844 9.605469 1.464844 8.800781 C 1.464844 7.992188 2.125 7.332031 2.933594 7.332031 M 2.933594 6.601562 C 1.6875 6.601562 0.734375 7.554688 0.734375 8.800781 C 0.734375 10.046875 1.6875 11 2.933594 11 C 4.179688 11 5.132812 10.046875 5.132812 8.800781 C 5.132812 7.554688 4.179688 6.601562 2.933594 6.601562 Z M 2.933594 6.601562 "/>
</g>
</svg>
