<svg xmlns="http://www.w3.org/2000/svg"  viewBox="0 0 16 16" width="16px" height="16px"><path fill="#f5ce85" d="M2.5 1.5H12.5V10.5H2.5z"/><path fill="#967a44" d="M12,2v8H3V2H12 M13,1H2v10h11V1L13,1z"/><path fill="#967a44" d="M8.5,4h-2C6.224,4,6,3.776,6,3.5v0C6,3.224,6.224,3,6.5,3h2C8.776,3,9,3.224,9,3.5v0	C9,3.776,8.776,4,8.5,4z"/><path fill="#e1ebf2" d="M1.5,14.5v-4h11c1.103,0,2,0.897,2,2s-0.897,2-2,2H1.5z"/><path fill="#66798f" d="M12.5,11c0.827,0,1.5,0.673,1.5,1.5S13.327,14,12.5,14H2v-3H12.5 M12.5,10H1v5h11.5 c1.381,0,2.5-1.119,2.5-2.5S13.881,10,12.5,10L12.5,10z"/><path fill="#e1ebf2" d="M1 11H2V14H1z"/><path fill="#b0c1d4" d="M12.5 12A0.5 0.5 0 1 0 12.5 13A0.5 0.5 0 1 0 12.5 12Z"/><path fill="#66798f" d="M12.5,12c-0.276,0-0.5,0.224-0.5,0.5s0.224,0.5,0.5,0.5c0.276,0,0.5-0.224,0.5-0.5 S12.776,12,12.5,12L12.5,12z"/><path fill="#b0c1d4" d="M10.5 12A0.5 0.5 0 1 0 10.5 13A0.5 0.5 0 1 0 10.5 12Z"/><path fill="#66798f" d="M10.5,12c-0.276,0-0.5,0.224-0.5,0.5s0.224,0.5,0.5,0.5s0.5-0.224,0.5-0.5S10.776,12,10.5,12 L10.5,12z"/><g><path fill="#b0c1d4" d="M8.5 12A0.5 0.5 0 1 0 8.5 13A0.5 0.5 0 1 0 8.5 12Z"/><path fill="#66798f" d="M8.5,12C8.224,12,8,12.224,8,12.5S8.224,13,8.5,13S9,12.776,9,12.5S8.776,12,8.5,12L8.5,12z"/></g><g><path fill="#b0c1d4" d="M6.5 12A0.5 0.5 0 1 0 6.5 13A0.5 0.5 0 1 0 6.5 12Z"/><path fill="#66798f" d="M6.5,12C6.224,12,6,12.224,6,12.5S6.224,13,6.5,13S7,12.776,7,12.5S6.776,12,6.5,12L6.5,12z"/></g><g><path fill="#b0c1d4" d="M4.5 12A0.5 0.5 0 1 0 4.5 13A0.5 0.5 0 1 0 4.5 12Z"/><path fill="#66798f" d="M4.5,12C4.224,12,4,12.224,4,12.5S4.224,13,4.5,13S5,12.776,5,12.5S4.776,12,4.5,12L4.5,12z"/></g><g><path fill="#b0c1d4" d="M2.5 12A0.5 0.5 0 1 0 2.5 13A0.5 0.5 0 1 0 2.5 12Z"/><path fill="#66798f" d="M2.5,12C2.224,12,2,12.224,2,12.5S2.224,13,2.5,13S3,12.776,3,12.5S2.776,12,2.5,12L2.5,12z"/></g></svg>