<?xml version="1.0" encoding="UTF-8"?>
<svg xmlns="http://www.w3.org/2000/svg" xmlns:xlink="http://www.w3.org/1999/xlink" width="24pt" height="24pt" viewBox="0 0 24 24" version="1.1">
<g id="surface7653">
<path style=" stroke:none;fill-rule:nonzero;fill:rgb(88.235295%,92.156863%,94.901961%);fill-opacity:1;" d="M 12.300781 0.898438 L 23.101562 0.898438 L 23.101562 23.101562 L 12.300781 23.101562 Z M 12.300781 0.898438 "/>
<path style=" stroke:none;fill-rule:nonzero;fill:rgb(40.000001%,47.450981%,56.078434%);fill-opacity:1;" d="M 22.800781 1.199219 L 22.800781 22.800781 L 12.601562 22.800781 L 12.601562 1.199219 L 22.800781 1.199219 M 23.398438 0.601562 L 12 0.601562 L 12 23.398438 L 23.398438 23.398438 Z M 23.398438 0.601562 "/>
<path style=" stroke:none;fill-rule:nonzero;fill:rgb(54.509807%,71.764708%,94.117647%);fill-opacity:1;" d="M 17.699219 15.300781 C 17.039062 15.300781 16.5 15.835938 16.5 16.5 C 16.5 17.164062 17.039062 17.699219 17.699219 17.699219 C 18.363281 17.699219 18.898438 17.164062 18.898438 16.5 C 18.898438 15.835938 18.363281 15.300781 17.699219 15.300781 Z M 17.699219 15.300781 "/>
<path style=" stroke:none;fill-rule:nonzero;fill:rgb(30.588236%,47.843137%,70.980394%);fill-opacity:1;" d="M 17.699219 15.601562 C 18.195312 15.601562 18.601562 16.003906 18.601562 16.5 C 18.601562 16.996094 18.195312 17.398438 17.699219 17.398438 C 17.203125 17.398438 16.800781 16.996094 16.800781 16.5 C 16.800781 16.003906 17.203125 15.601562 17.699219 15.601562 M 17.699219 15 C 16.871094 15 16.199219 15.671875 16.199219 16.5 C 16.199219 17.328125 16.871094 18 17.699219 18 C 18.527344 18 19.199219 17.328125 19.199219 16.5 C 19.199219 15.671875 18.527344 15 17.699219 15 Z M 17.699219 15 "/>
<path style=" stroke:none;fill-rule:nonzero;fill:rgb(69.01961%,75.686276%,83.137256%);fill-opacity:1;" d="M 14.101562 7.5 L 21.300781 7.5 L 21.300781 8.699219 L 14.101562 8.699219 Z M 14.101562 7.5 "/>
<path style=" stroke:none;fill-rule:nonzero;fill:rgb(40.000001%,47.450981%,56.078434%);fill-opacity:1;" d="M 21 7.800781 L 21 8.398438 L 14.398438 8.398438 L 14.398438 7.800781 L 21 7.800781 M 21.601562 7.199219 L 13.800781 7.199219 L 13.800781 9 L 21.601562 9 Z M 21.601562 7.199219 "/>
<path style=" stroke:none;fill-rule:nonzero;fill:rgb(21.176471%,25.098041%,30.19608%);fill-opacity:1;" d="M 10.199219 10.800781 L 10.199219 14.398438 L 6.601562 14.398438 L 6.601562 10.800781 L 10.199219 10.800781 M 10.199219 9.601562 L 6.601562 9.601562 C 5.9375 9.601562 5.398438 10.136719 5.398438 10.800781 L 5.398438 14.398438 C 5.398438 15.0625 5.9375 15.601562 6.601562 15.601562 L 10.199219 15.601562 C 10.863281 15.601562 11.398438 15.0625 11.398438 14.398438 L 11.398438 10.800781 C 11.398438 10.136719 10.863281 9.601562 10.199219 9.601562 Z M 10.199219 9.601562 "/>
<path style=" stroke:none;fill-rule:nonzero;fill:rgb(69.01961%,75.686276%,83.137256%);fill-opacity:1;" d="M 14.101562 3.898438 L 21.300781 3.898438 L 21.300781 5.699219 L 14.101562 5.699219 Z M 14.101562 3.898438 "/>
<path style=" stroke:none;fill-rule:nonzero;fill:rgb(40.000001%,47.450981%,56.078434%);fill-opacity:1;" d="M 21 4.199219 L 21 5.398438 L 14.398438 5.398438 L 14.398438 4.199219 L 21 4.199219 M 21.601562 3.601562 L 13.800781 3.601562 L 13.800781 6 L 21.601562 6 Z M 21.601562 3.601562 "/>
<path style=" stroke:none;fill-rule:nonzero;fill:rgb(96.862745%,42.745098%,42.745098%);fill-opacity:1;" d="M 0.898438 15.898438 L 15.898438 15.898438 L 15.898438 23.101562 L 0.898438 23.101562 Z M 0.898438 15.898438 "/>
<path style=" stroke:none;fill-rule:nonzero;fill:rgb(78.039217%,26.274511%,26.274511%);fill-opacity:1;" d="M 15.601562 16.199219 L 15.601562 22.800781 L 1.199219 22.800781 L 1.199219 16.199219 L 15.601562 16.199219 M 16.199219 15.601562 L 0.601562 15.601562 L 0.601562 23.398438 L 16.199219 23.398438 Z M 16.199219 15.601562 "/>
<path style=" stroke:none;fill-rule:nonzero;fill:rgb(96.862745%,56.078434%,56.078434%);fill-opacity:1;" d="M 0.898438 15.898438 L 0.898438 13.800781 C 0.898438 12.972656 1.570312 12.300781 2.398438 12.300781 L 14.398438 12.300781 C 15.226562 12.300781 15.898438 12.972656 15.898438 13.800781 L 15.898438 15.898438 Z M 0.898438 15.898438 "/>
<path style=" stroke:none;fill-rule:nonzero;fill:rgb(78.039217%,26.274511%,26.274511%);fill-opacity:1;" d="M 14.398438 12.601562 C 15.0625 12.601562 15.601562 13.136719 15.601562 13.800781 L 15.601562 15.601562 L 1.199219 15.601562 L 1.199219 13.800781 C 1.199219 13.136719 1.738281 12.601562 2.398438 12.601562 L 14.398438 12.601562 M 14.398438 12 L 2.398438 12 C 1.40625 12 0.601562 12.804688 0.601562 13.800781 L 0.601562 16.199219 L 16.199219 16.199219 L 16.199219 13.800781 C 16.199219 12.804688 15.394531 12 14.398438 12 Z M 14.398438 12 "/>
<path style=" stroke:none;fill-rule:nonzero;fill:rgb(69.01961%,75.686276%,83.137256%);fill-opacity:1;" d="M 3.300781 15.300781 L 5.101562 15.300781 L 5.101562 17.101562 L 3.300781 17.101562 Z M 3.300781 15.300781 "/>
<path style=" stroke:none;fill-rule:nonzero;fill:rgb(40.000001%,47.450981%,56.078434%);fill-opacity:1;" d="M 4.800781 15.601562 L 4.800781 16.800781 L 3.601562 16.800781 L 3.601562 15.601562 L 4.800781 15.601562 M 5.398438 15 L 3 15 L 3 17.398438 L 5.398438 17.398438 Z M 5.398438 15 "/>
<path style=" stroke:none;fill-rule:nonzero;fill:rgb(69.01961%,75.686276%,83.137256%);fill-opacity:1;" d="M 11.699219 15.300781 L 13.5 15.300781 L 13.5 17.101562 L 11.699219 17.101562 Z M 11.699219 15.300781 "/>
<path style=" stroke:none;fill-rule:nonzero;fill:rgb(40.000001%,47.450981%,56.078434%);fill-opacity:1;" d="M 13.199219 15.601562 L 13.199219 16.800781 L 12 16.800781 L 12 15.601562 L 13.199219 15.601562 M 13.800781 15 L 11.398438 15 L 11.398438 17.398438 L 13.800781 17.398438 Z M 13.800781 15 "/>
</g>
</svg>
