<?xml version="1.0" encoding="UTF-8"?>
<svg xmlns="http://www.w3.org/2000/svg" xmlns:xlink="http://www.w3.org/1999/xlink" width="24pt" height="24pt" viewBox="0 0 24 24" version="1.1">
<g id="surface11706">
<path style=" stroke:none;fill-rule:nonzero;fill:rgb(100%,93.333334%,63.921571%);fill-opacity:1;" d="M 9.175781 10.125 L 12.992188 6.308594 L 14.09375 7.410156 L 10.277344 11.226562 Z M 9.175781 10.125 "/>
<path style=" stroke:none;fill-rule:nonzero;fill:rgb(72.941178%,60.784316%,28.235295%);fill-opacity:1;" d="M 12.992188 6.734375 L 13.667969 7.410156 L 10.277344 10.800781 L 9.601562 10.125 L 12.992188 6.734375 M 12.992188 5.882812 L 8.75 10.125 L 9.175781 10.546875 L 10.277344 11.648438 L 10.699219 11.222656 L 14.089844 7.832031 L 14.515625 7.410156 L 13.414062 6.308594 Z M 12.992188 5.882812 "/>
<path style=" stroke:none;fill-rule:nonzero;fill:rgb(100%,93.333334%,63.921571%);fill-opacity:1;" d="M 12.777344 13.722656 L 16.59375 9.910156 L 17.691406 11.007812 L 13.875 14.824219 Z M 12.777344 13.722656 "/>
<path style=" stroke:none;fill-rule:nonzero;fill:rgb(72.941178%,60.784316%,28.235295%);fill-opacity:1;" d="M 16.589844 10.332031 L 17.265625 11.007812 L 13.875 14.398438 L 13.199219 13.722656 L 16.589844 10.332031 M 16.589844 9.484375 L 16.167969 9.910156 L 12.777344 13.300781 L 12.351562 13.722656 L 13.453125 14.824219 L 13.875 15.25 L 18.117188 11.007812 L 17.691406 10.585938 Z M 16.589844 9.484375 "/>
<path style=" stroke:none;fill-rule:nonzero;fill:rgb(69.01961%,75.686276%,83.137256%);fill-opacity:1;" d="M 12.261719 4.71875 L 15.15625 1.824219 C 15.695312 1.285156 16.414062 0.988281 17.175781 0.988281 C 17.941406 0.988281 18.65625 1.285156 19.199219 1.824219 L 19.996094 2.625 L 21.601562 1.023438 L 22.976562 2.398438 L 21.375 4 L 22.175781 4.800781 C 23.289062 5.914062 23.289062 7.730469 22.175781 8.84375 L 19.28125 11.738281 Z M 12.261719 4.71875 "/>
<path style=" stroke:none;fill-rule:nonzero;fill:rgb(40.000001%,47.450981%,56.078434%);fill-opacity:1;" d="M 17.175781 1.285156 C 17.859375 1.285156 18.503906 1.554688 18.988281 2.035156 L 19.574219 2.625 L 20 3.050781 L 20.421875 2.625 L 21.601562 1.449219 L 22.550781 2.398438 L 21.375 3.578125 L 20.949219 4 L 21.375 4.425781 L 21.964844 5.011719 C 22.445312 5.496094 22.714844 6.140625 22.714844 6.824219 C 22.714844 7.507812 22.445312 8.148438 21.964844 8.632812 L 19.28125 11.3125 L 12.6875 4.71875 L 15.367188 2.035156 C 15.851562 1.554688 16.492188 1.285156 17.175781 1.285156 M 21.601562 0.601562 L 20 2.199219 L 19.410156 1.613281 C 18.792969 0.996094 17.984375 0.6875 17.175781 0.6875 C 16.367188 0.6875 15.558594 0.996094 14.945312 1.613281 L 11.839844 4.71875 L 19.28125 12.160156 L 22.386719 9.054688 C 23.621094 7.824219 23.621094 5.824219 22.386719 4.589844 L 21.796875 4 L 23.398438 2.398438 Z M 21.601562 0.601562 "/>
<path style=" stroke:none;fill-rule:nonzero;fill:rgb(69.01961%,75.686276%,83.137256%);fill-opacity:1;" d="M 9.804688 5.90625 L 11.042969 4.667969 C 11.429688 4.28125 11.925781 4.058594 12.398438 4.058594 C 12.738281 4.058594 13.027344 4.171875 13.238281 4.382812 L 19.617188 10.761719 C 20.144531 11.289062 20.015625 12.273438 19.332031 12.957031 L 18.089844 14.195312 Z M 9.804688 5.90625 "/>
<path style=" stroke:none;fill-rule:nonzero;fill:rgb(40.000001%,47.450981%,56.078434%);fill-opacity:1;" d="M 12.402344 4.359375 C 12.578125 4.359375 12.832031 4.402344 13.027344 4.59375 L 19.40625 10.972656 C 19.808594 11.375 19.675781 12.1875 19.121094 12.742188 L 18.09375 13.769531 L 10.226562 5.90625 L 11.257812 4.878906 C 11.582031 4.554688 12.007812 4.359375 12.402344 4.359375 M 12.402344 3.757812 C 11.867188 3.757812 11.289062 3.996094 10.832031 4.457031 L 9.378906 5.90625 L 18.09375 14.621094 L 19.542969 13.167969 C 20.347656 12.367188 20.472656 11.195312 19.828125 10.550781 L 13.453125 4.171875 C 13.175781 3.894531 12.800781 3.757812 12.402344 3.757812 Z M 12.402344 3.757812 "/>
<path style=" stroke:none;fill-rule:nonzero;fill:rgb(69.01961%,75.686276%,83.137256%);fill-opacity:1;" d="M 6.707031 23.128906 C 5.945312 23.128906 5.226562 22.832031 4.6875 22.292969 L 3.886719 21.492188 L 2.398438 22.976562 L 1.023438 21.601562 L 2.507812 20.113281 L 1.707031 19.3125 C 0.59375 18.199219 0.59375 16.386719 1.707031 15.273438 L 4.601562 12.378906 L 11.621094 19.398438 L 8.726562 22.292969 C 8.1875 22.832031 7.46875 23.128906 6.707031 23.128906 Z M 6.707031 23.128906 "/>
<path style=" stroke:none;fill-rule:nonzero;fill:rgb(40.000001%,47.450981%,56.078434%);fill-opacity:1;" d="M 4.601562 12.804688 L 11.195312 19.398438 L 8.515625 22.078125 C 8.03125 22.5625 7.390625 22.828125 6.707031 22.828125 C 6.023438 22.828125 5.382812 22.5625 4.898438 22.078125 L 4.308594 21.492188 L 3.886719 21.066406 L 3.460938 21.492188 L 2.398438 22.550781 L 1.449219 21.601562 L 2.507812 20.539062 L 2.933594 20.113281 L 2.507812 19.691406 L 1.921875 19.101562 C 0.921875 18.105469 0.921875 16.480469 1.921875 15.484375 L 4.601562 12.804688 M 4.601562 11.953125 L 1.496094 15.058594 C 0.261719 16.292969 0.261719 18.292969 1.496094 19.527344 L 2.085938 20.113281 L 0.601562 21.601562 L 2.398438 23.398438 L 3.886719 21.914062 L 4.472656 22.503906 C 5.089844 23.121094 5.898438 23.429688 6.707031 23.429688 C 7.515625 23.429688 8.324219 23.121094 8.941406 22.503906 L 12.046875 19.398438 Z M 4.601562 11.953125 "/>
<path style=" stroke:none;fill-rule:nonzero;fill:rgb(69.01961%,75.686276%,83.137256%);fill-opacity:1;" d="M 11.566406 20.105469 C 11.214844 20.105469 10.886719 19.972656 10.644531 19.734375 L 4.265625 13.355469 C 3.742188 12.828125 3.777344 11.9375 4.347656 11.363281 L 5.382812 10.332031 L 13.671875 18.617188 L 12.636719 19.652344 C 12.347656 19.941406 11.957031 20.105469 11.566406 20.105469 Z M 11.566406 20.105469 "/>
<path style=" stroke:none;fill-rule:nonzero;fill:rgb(40.000001%,47.450981%,56.078434%);fill-opacity:1;" d="M 5.382812 10.753906 L 13.246094 18.617188 L 12.421875 19.441406 C 12.191406 19.671875 11.878906 19.804688 11.566406 19.804688 C 11.292969 19.804688 11.042969 19.703125 10.855469 19.519531 L 4.480469 13.140625 C 4.070312 12.734375 4.105469 12.03125 4.558594 11.578125 L 5.382812 10.753906 M 5.382812 9.90625 L 4.132812 11.152344 C 3.445312 11.839844 3.410156 12.921875 4.054688 13.566406 L 10.433594 19.945312 C 10.742188 20.253906 11.148438 20.40625 11.566406 20.40625 C 12.023438 20.40625 12.488281 20.222656 12.847656 19.867188 L 14.09375 18.617188 Z M 5.382812 9.90625 "/>
</g>
</svg>
