<?xml version="1.0" encoding="UTF-8"?>
<svg xmlns="http://www.w3.org/2000/svg" xmlns:xlink="http://www.w3.org/1999/xlink" width="30pt" height="30pt" viewBox="0 0 30 30" version="1.1">
<g id="surface16200">
<path style=" stroke:none;fill-rule:nonzero;fill:rgb(100%,93.333334%,63.921571%);fill-opacity:1;" d="M 11.46875 12.65625 L 16.238281 7.886719 L 17.617188 9.261719 L 12.847656 14.03125 Z M 11.46875 12.65625 "/>
<path style=" stroke:none;fill-rule:nonzero;fill:rgb(72.941178%,60.784316%,28.235295%);fill-opacity:1;" d="M 16.238281 8.414062 L 17.085938 9.261719 L 12.84375 13.5 L 12 12.65625 L 16.238281 8.414062 M 16.238281 7.355469 L 11.46875 12.125 L 10.941406 12.65625 L 12.84375 14.558594 L 13.375 14.03125 L 18.144531 9.261719 Z M 16.238281 7.355469 "/>
<path style=" stroke:none;fill-rule:nonzero;fill:rgb(100%,93.333334%,63.921571%);fill-opacity:1;" d="M 15.96875 17.15625 L 20.738281 12.386719 L 22.117188 13.761719 L 17.347656 18.53125 Z M 15.96875 17.15625 "/>
<path style=" stroke:none;fill-rule:nonzero;fill:rgb(72.941178%,60.784316%,28.235295%);fill-opacity:1;" d="M 20.738281 12.914062 L 21.585938 13.761719 L 17.34375 18 L 16.5 17.15625 L 20.738281 12.914062 M 20.738281 11.855469 L 15.96875 16.625 L 15.441406 17.15625 L 17.34375 19.058594 L 17.875 18.53125 L 22.644531 13.761719 Z M 20.738281 11.855469 "/>
<path style=" stroke:none;fill-rule:nonzero;fill:rgb(69.01961%,75.686276%,83.137256%);fill-opacity:1;" d="M 15.328125 5.898438 L 18.945312 2.28125 C 19.621094 1.605469 20.515625 1.234375 21.472656 1.234375 C 22.425781 1.234375 23.320312 1.605469 23.996094 2.28125 L 24.996094 3.28125 L 27 1.28125 L 28.71875 3 L 26.71875 5 L 27.71875 6 C 29.113281 7.394531 29.113281 9.660156 27.71875 11.054688 L 24.101562 14.671875 Z M 15.328125 5.898438 "/>
<path style=" stroke:none;fill-rule:nonzero;fill:rgb(40.000001%,47.450981%,56.078434%);fill-opacity:1;" d="M 21.472656 1.609375 C 22.324219 1.609375 23.128906 1.941406 23.734375 2.546875 L 25 3.8125 L 25.527344 3.28125 L 27 1.808594 L 28.191406 3 L 26.71875 4.472656 L 26.1875 5 L 27.453125 6.265625 C 28.058594 6.871094 28.390625 7.675781 28.390625 8.527344 C 28.390625 9.382812 28.058594 10.183594 27.453125 10.789062 L 24.101562 14.140625 L 15.859375 5.898438 L 19.210938 2.546875 C 19.8125 1.941406 20.617188 1.609375 21.472656 1.609375 M 27 0.75 L 25 2.75 L 24.261719 2.015625 C 23.492188 1.246094 22.480469 0.859375 21.472656 0.859375 C 20.460938 0.859375 19.449219 1.246094 18.679688 2.015625 L 14.796875 5.898438 L 24.101562 15.199219 L 27.984375 11.320312 C 29.527344 9.777344 29.527344 7.277344 27.984375 5.738281 L 27.25 5 L 29.25 3 Z M 27 0.75 "/>
<path style=" stroke:none;fill-rule:nonzero;fill:rgb(69.01961%,75.686276%,83.137256%);fill-opacity:1;" d="M 12.253906 7.382812 L 13.804688 5.835938 C 14.289062 5.351562 14.90625 5.074219 15.5 5.074219 C 15.921875 5.074219 16.285156 5.214844 16.546875 5.480469 L 24.519531 13.453125 C 25.179688 14.109375 25.019531 15.339844 24.164062 16.195312 L 22.613281 17.746094 Z M 12.253906 7.382812 "/>
<path style=" stroke:none;fill-rule:nonzero;fill:rgb(40.000001%,47.450981%,56.078434%);fill-opacity:1;" d="M 15.5 5.449219 C 15.722656 5.449219 16.039062 5.5 16.285156 5.742188 L 24.257812 13.714844 C 24.757812 14.21875 24.597656 15.234375 23.898438 15.929688 L 22.617188 17.214844 L 12.785156 7.382812 L 14.070312 6.101562 C 14.476562 5.691406 15.011719 5.449219 15.5 5.449219 M 15.5 4.699219 C 14.835938 4.699219 14.113281 4.996094 13.539062 5.570312 L 11.726562 7.382812 L 22.617188 18.273438 L 24.429688 16.460938 C 25.433594 15.457031 25.59375 13.992188 24.785156 13.1875 L 16.8125 5.214844 C 16.46875 4.867188 16 4.699219 15.5 4.699219 Z M 15.5 4.699219 "/>
<path style=" stroke:none;fill-rule:nonzero;fill:rgb(69.01961%,75.686276%,83.137256%);fill-opacity:1;" d="M 8.382812 28.910156 C 7.429688 28.910156 6.53125 28.539062 5.859375 27.863281 L 4.855469 26.863281 L 3 28.71875 L 1.28125 27 L 3.136719 25.144531 L 2.136719 24.140625 C 0.742188 22.75 0.742188 20.484375 2.136719 19.089844 L 5.75 15.472656 L 14.527344 24.246094 L 10.910156 27.863281 C 10.234375 28.539062 9.335938 28.910156 8.382812 28.910156 Z M 8.382812 28.910156 "/>
<path style=" stroke:none;fill-rule:nonzero;fill:rgb(40.000001%,47.450981%,56.078434%);fill-opacity:1;" d="M 5.75 16.003906 L 13.996094 24.25 L 10.644531 27.597656 C 10.039062 28.203125 9.238281 28.535156 8.382812 28.535156 C 7.527344 28.535156 6.726562 28.203125 6.121094 27.597656 L 4.855469 26.332031 L 4.324219 26.863281 L 3 28.191406 L 1.808594 27 L 3.136719 25.675781 L 3.667969 25.144531 L 2.402344 23.878906 C 1.152344 22.632812 1.152344 20.601562 2.402344 19.355469 L 5.75 16.003906 M 5.75 14.945312 L 1.871094 18.824219 C 0.328125 20.367188 0.328125 22.867188 1.871094 24.40625 L 2.605469 25.144531 L 0.75 27 L 3 29.25 L 4.855469 27.394531 L 5.59375 28.128906 C 6.363281 28.902344 7.375 29.285156 8.382812 29.285156 C 9.394531 29.285156 10.402344 28.902344 11.175781 28.128906 L 15.054688 24.25 Z M 5.75 14.945312 "/>
<path style=" stroke:none;fill-rule:nonzero;fill:rgb(69.01961%,75.686276%,83.137256%);fill-opacity:1;" d="M 14.457031 25.132812 C 14.015625 25.132812 13.605469 24.964844 13.304688 24.664062 L 5.335938 16.695312 C 4.675781 16.035156 4.71875 14.917969 5.433594 14.207031 L 6.726562 12.914062 L 17.089844 23.273438 L 15.792969 24.566406 C 15.433594 24.925781 14.949219 25.132812 14.457031 25.132812 Z M 14.457031 25.132812 "/>
<path style=" stroke:none;fill-rule:nonzero;fill:rgb(40.000001%,47.450981%,56.078434%);fill-opacity:1;" d="M 6.726562 13.441406 L 16.558594 23.273438 L 15.527344 24.300781 C 15.238281 24.589844 14.847656 24.757812 14.457031 24.757812 C 14.117188 24.757812 13.800781 24.628906 13.570312 24.402344 L 5.597656 16.429688 C 5.085938 15.914062 5.132812 15.039062 5.699219 14.472656 L 6.726562 13.441406 M 6.726562 12.382812 L 5.167969 13.941406 C 4.308594 14.800781 4.261719 16.152344 5.070312 16.960938 L 13.039062 24.929688 C 13.425781 25.316406 13.9375 25.507812 14.457031 25.507812 C 15.027344 25.507812 15.609375 25.28125 16.058594 24.832031 L 17.617188 23.273438 Z M 6.726562 12.382812 "/>
</g>
</svg>
