<?xml version="1.0" encoding="UTF-8"?>
<svg xmlns="http://www.w3.org/2000/svg" xmlns:xlink="http://www.w3.org/1999/xlink" width="24pt" height="24pt" viewBox="0 0 24 24" version="1.1">
<g id="surface2462">
<path style=" stroke:none;fill-rule:nonzero;fill:rgb(100%,76.862746%,61.176473%);fill-opacity:1;" d="M 8.699219 4.5 L 15.300781 4.5 L 15.300781 23.101562 L 8.699219 23.101562 Z M 8.699219 4.5 "/>
<path style=" stroke:none;fill-rule:nonzero;fill:rgb(63.137257%,41.568628%,29.019609%);fill-opacity:1;" d="M 15 4.800781 L 15 22.800781 L 9 22.800781 L 9 4.800781 L 15 4.800781 M 15.601562 4.199219 L 8.398438 4.199219 L 8.398438 23.398438 L 15.601562 23.398438 Z M 15.601562 4.199219 "/>
<path style=" stroke:none;fill-rule:nonzero;fill:rgb(63.137257%,41.568628%,29.019609%);fill-opacity:1;" d="M 8.699219 6.601562 L 15.300781 6.601562 L 15.300781 7.199219 L 8.699219 7.199219 Z M 8.699219 20.398438 L 15.300781 20.398438 L 15.300781 21 L 8.699219 21 Z M 11.398438 9.601562 L 12.601562 9.601562 L 12.601562 18 L 11.398438 18 Z M 11.398438 9.601562 "/>
<path style=" stroke:none;fill-rule:nonzero;fill:rgb(54.509807%,71.764708%,94.117647%);fill-opacity:1;" d="M 16.5 0.898438 L 23.101562 0.898438 L 23.101562 23.101562 L 16.5 23.101562 Z M 16.5 0.898438 "/>
<path style=" stroke:none;fill-rule:nonzero;fill:rgb(30.588236%,47.843137%,70.980394%);fill-opacity:1;" d="M 22.800781 1.199219 L 22.800781 22.800781 L 16.800781 22.800781 L 16.800781 1.199219 L 22.800781 1.199219 M 23.398438 0.601562 L 16.199219 0.601562 L 16.199219 23.398438 L 23.398438 23.398438 Z M 23.398438 0.601562 "/>
<path style=" stroke:none;fill-rule:nonzero;fill:rgb(30.588236%,47.843137%,70.980394%);fill-opacity:1;" d="M 16.5 3 L 23.101562 3 L 23.101562 3.601562 L 16.5 3.601562 Z M 16.5 20.398438 L 23.101562 20.398438 L 23.101562 21 L 16.5 21 Z M 19.199219 6.601562 L 20.398438 6.601562 L 20.398438 17.398438 L 19.199219 17.398438 Z M 19.199219 6.601562 "/>
<path style=" stroke:none;fill-rule:nonzero;fill:rgb(72.941178%,87.843138%,74.117649%);fill-opacity:1;" d="M 0.898438 0.898438 L 7.5 0.898438 L 7.5 23.101562 L 0.898438 23.101562 Z M 0.898438 0.898438 "/>
<path style=" stroke:none;fill-rule:nonzero;fill:rgb(36.862746%,61.176473%,46.27451%);fill-opacity:1;" d="M 7.199219 1.199219 L 7.199219 22.800781 L 1.199219 22.800781 L 1.199219 1.199219 L 7.199219 1.199219 M 7.800781 0.601562 L 0.601562 0.601562 L 0.601562 23.398438 L 7.800781 23.398438 Z M 7.800781 0.601562 "/>
<path style=" stroke:none;fill-rule:nonzero;fill:rgb(36.862746%,61.176473%,46.27451%);fill-opacity:1;" d="M 0.898438 3 L 7.5 3 L 7.5 3.601562 L 0.898438 3.601562 Z M 0.898438 20.398438 L 7.5 20.398438 L 7.5 21 L 0.898438 21 Z M 3.601562 6.601562 L 4.800781 6.601562 L 4.800781 17.398438 L 3.601562 17.398438 Z M 3.601562 6.601562 "/>
</g>
</svg>
