<?xml version="1.0" encoding="UTF-8"?>
<svg xmlns="http://www.w3.org/2000/svg" xmlns:xlink="http://www.w3.org/1999/xlink" width="12pt" height="12pt" viewBox="0 0 12 12" version="1.1">
<g id="surface15706">
<path style=" stroke:none;fill-rule:nonzero;fill:rgb(72.941178%,87.843138%,74.117649%);fill-opacity:1;" d="M 1.125 1.125 L 3.375 1.125 L 3.375 10.875 L 1.125 10.875 Z M 1.125 1.125 "/>
<path style=" stroke:none;fill-rule:nonzero;fill:rgb(36.862746%,61.176473%,46.27451%);fill-opacity:1;" d="M 3 1.5 L 3 10.5 L 1.5 10.5 L 1.5 1.5 L 3 1.5 M 3.75 0.75 L 0.75 0.75 L 0.75 11.25 L 3.75 11.25 Z M 3.75 0.75 "/>
<path style=" stroke:none;fill-rule:nonzero;fill:rgb(36.862746%,61.176473%,46.27451%);fill-opacity:1;" d="M 0.9375 2.25 L 3.5625 2.25 L 3.5625 3 L 0.9375 3 Z M 0.9375 9 L 3.5625 9 L 3.5625 9.75 L 0.9375 9.75 Z M 0.9375 9 "/>
<path style=" stroke:none;fill-rule:nonzero;fill:rgb(100%,76.862746%,61.176473%);fill-opacity:1;" d="M 4.875 3.375 L 7.125 3.375 L 7.125 10.875 L 4.875 10.875 Z M 4.875 3.375 "/>
<path style=" stroke:none;fill-rule:nonzero;fill:rgb(63.137257%,41.568628%,29.019609%);fill-opacity:1;" d="M 6.75 3.75 L 6.75 10.5 L 5.25 10.5 L 5.25 3.75 L 6.75 3.75 M 7.5 3 L 4.5 3 L 4.5 11.25 L 7.5 11.25 Z M 7.5 3 "/>
<path style=" stroke:none;fill-rule:nonzero;fill:rgb(63.137257%,41.568628%,29.019609%);fill-opacity:1;" d="M 4.6875 4.5 L 7.3125 4.5 L 7.3125 5.25 L 4.6875 5.25 Z M 4.6875 9 L 7.3125 9 L 7.3125 9.75 L 4.6875 9.75 Z M 4.6875 9 "/>
<path style=" stroke:none;fill-rule:nonzero;fill:rgb(54.509807%,71.764708%,94.117647%);fill-opacity:1;" d="M 8.625 1.125 L 10.875 1.125 L 10.875 10.875 L 8.625 10.875 Z M 8.625 1.125 "/>
<path style=" stroke:none;fill-rule:nonzero;fill:rgb(30.588236%,47.843137%,70.980394%);fill-opacity:1;" d="M 10.5 1.5 L 10.5 10.5 L 9 10.5 L 9 1.5 L 10.5 1.5 M 11.25 0.75 L 8.25 0.75 L 8.25 11.25 L 11.25 11.25 Z M 11.25 0.75 "/>
<path style=" stroke:none;fill-rule:nonzero;fill:rgb(30.588236%,47.843137%,70.980394%);fill-opacity:1;" d="M 8.4375 2.25 L 11.0625 2.25 L 11.0625 3 L 8.4375 3 Z M 8.4375 9 L 11.0625 9 L 11.0625 9.75 L 8.4375 9.75 Z M 8.4375 9 "/>
</g>
</svg>
