<?xml version="1.0" encoding="UTF-8"?>
<svg xmlns="http://www.w3.org/2000/svg" xmlns:xlink="http://www.w3.org/1999/xlink" width="60pt" height="60pt" viewBox="0 0 60 60" version="1.1">
<g id="surface165">
<path style=" stroke:none;fill-rule:nonzero;fill:rgb(100%,93.333334%,63.921571%);fill-opacity:1;" d="M 3.75 27.75 L 3.75 9.75 C 3.75 8.921875 4.421875 8.25 5.25 8.25 L 23.25 8.25 C 24.078125 8.25 24.75 8.921875 24.75 9.75 L 24.75 27.75 C 24.75 28.578125 24.078125 29.25 23.25 29.25 L 5.25 29.25 C 4.421875 29.25 3.75 28.578125 3.75 27.75 Z M 3.75 27.75 "/>
<path style=" stroke:none;fill-rule:nonzero;fill:rgb(72.941178%,87.843138%,74.117649%);fill-opacity:1;" d="M 3.75 54.75 L 3.75 36.75 C 3.75 35.921875 4.421875 35.25 5.25 35.25 L 23.25 35.25 C 24.078125 35.25 24.75 35.921875 24.75 36.75 L 24.75 54.75 C 24.75 55.578125 24.078125 56.25 23.25 56.25 L 5.25 56.25 C 4.421875 56.25 3.75 55.578125 3.75 54.75 Z M 3.75 54.75 "/>
<path style=" stroke:none;fill-rule:nonzero;fill:rgb(100%,70.980394%,82.352942%);fill-opacity:1;" d="M 30.75 54.75 L 30.75 36.75 C 30.75 35.921875 31.421875 35.25 32.25 35.25 L 50.25 35.25 C 51.078125 35.25 51.75 35.921875 51.75 36.75 L 51.75 54.75 C 51.75 55.578125 51.078125 56.25 50.25 56.25 L 32.25 56.25 C 31.421875 56.25 30.75 55.578125 30.75 54.75 Z M 30.75 54.75 "/>
<path style=" stroke:none;fill-rule:nonzero;fill:rgb(76.078433%,90.980393%,100%);fill-opacity:1;" d="M 29.734375 15.417969 L 42.460938 2.691406 C 43.046875 2.101562 43.996094 2.101562 44.582031 2.691406 L 57.308594 15.417969 C 57.894531 16.003906 57.894531 16.953125 57.308594 17.539062 L 44.582031 30.265625 C 43.996094 30.851562 43.046875 30.851562 42.460938 30.265625 L 29.734375 17.539062 C 29.148438 16.953125 29.148438 16.003906 29.734375 15.417969 Z M 29.734375 15.417969 "/>
<path style=" stroke:none;fill-rule:nonzero;fill:rgb(72.941178%,60.784316%,28.235295%);fill-opacity:1;" d="M 23.25 30 L 5.25 30 C 4.007812 30 3 28.992188 3 27.75 L 3 9.75 C 3 8.507812 4.007812 7.5 5.25 7.5 L 23.25 7.5 C 24.492188 7.5 25.5 8.507812 25.5 9.75 L 25.5 27.75 C 25.5 28.992188 24.492188 30 23.25 30 Z M 5.25 9 C 4.835938 9 4.5 9.335938 4.5 9.75 L 4.5 27.75 C 4.5 28.164062 4.835938 28.5 5.25 28.5 L 23.25 28.5 C 23.664062 28.5 24 28.164062 24 27.75 L 24 9.75 C 24 9.335938 23.664062 9 23.25 9 Z M 5.25 9 "/>
<path style=" stroke:none;fill-rule:nonzero;fill:rgb(36.862746%,61.176473%,46.27451%);fill-opacity:1;" d="M 23.25 57 L 5.25 57 C 4.007812 57 3 55.992188 3 54.75 L 3 36.75 C 3 35.507812 4.007812 34.5 5.25 34.5 L 23.25 34.5 C 24.492188 34.5 25.5 35.507812 25.5 36.75 L 25.5 54.75 C 25.5 55.992188 24.492188 57 23.25 57 Z M 5.25 36 C 4.835938 36 4.5 36.335938 4.5 36.75 L 4.5 54.75 C 4.5 55.164062 4.835938 55.5 5.25 55.5 L 23.25 55.5 C 23.664062 55.5 24 55.164062 24 54.75 L 24 36.75 C 24 36.335938 23.664062 36 23.25 36 Z M 5.25 36 "/>
<path style=" stroke:none;fill-rule:nonzero;fill:rgb(91.764706%,29.803923%,53.725493%);fill-opacity:1;" d="M 50.25 57 L 32.25 57 C 31.007812 57 30 55.992188 30 54.75 L 30 36.75 C 30 35.507812 31.007812 34.5 32.25 34.5 L 50.25 34.5 C 51.492188 34.5 52.5 35.507812 52.5 36.75 L 52.5 54.75 C 52.5 55.992188 51.492188 57 50.25 57 Z M 32.25 36 C 31.835938 36 31.5 36.335938 31.5 36.75 L 31.5 54.75 C 31.5 55.164062 31.835938 55.5 32.25 55.5 L 50.25 55.5 C 50.664062 55.5 51 55.164062 51 54.75 L 51 36.75 C 51 36.335938 50.664062 36 50.25 36 Z M 32.25 36 "/>
<path style=" stroke:none;fill-rule:nonzero;fill:rgb(45.490196%,58.823532%,76.862746%);fill-opacity:1;" d="M 43.523438 31.453125 C 42.945312 31.453125 42.367188 31.234375 41.929688 30.796875 L 29.203125 18.070312 C 28.324219 17.191406 28.324219 15.765625 29.203125 14.890625 L 41.929688 2.160156 C 42.808594 1.285156 44.238281 1.285156 45.113281 2.160156 L 57.839844 14.890625 C 58.71875 15.765625 58.71875 17.191406 57.839844 18.070312 L 45.113281 30.796875 C 44.675781 31.234375 44.097656 31.453125 43.523438 31.453125 Z M 43.523438 3 C 43.332031 3 43.136719 3.074219 42.992188 3.21875 L 30.265625 15.945312 C 29.972656 16.238281 29.972656 16.714844 30.265625 17.007812 L 42.992188 29.734375 C 43.285156 30.027344 43.757812 30.027344 44.050781 29.734375 L 56.78125 17.007812 C 57.070312 16.714844 57.070312 16.238281 56.78125 15.945312 L 44.050781 3.21875 C 43.90625 3.074219 43.714844 3 43.523438 3 Z M 43.523438 3 "/>
</g>
</svg>
