<?xml version="1.0" encoding="UTF-8"?>
<svg xmlns="http://www.w3.org/2000/svg" xmlns:xlink="http://www.w3.org/1999/xlink" width="24pt" height="24pt" viewBox="0 0 24 24" version="1.1">
<g id="surface11897">
<path style=" stroke:none;fill-rule:nonzero;fill:rgb(71.372551%,78.823531%,83.92157%);fill-opacity:1;" d="M 23.101562 12 C 23.101562 18.179688 18.066406 23.101562 12 23.101562 C 5.933594 23.101562 0.898438 18.179688 0.898438 12 C 0.898438 5.820312 5.820312 0.898438 12 0.898438 C 18.179688 0.898438 23.101562 5.820312 23.101562 12 Z M 23.101562 12 "/>
<path style=" stroke:none;fill-rule:nonzero;fill:rgb(100%,100%,100%);fill-opacity:1;" d="M 19.902344 11.542969 C 19.902344 12.925781 19.1875 14.851562 18.015625 15.804688 C 17.066406 16.578125 15.8125 16.820312 14.394531 16.898438 C 14.925781 17.222656 15.28125 17.808594 15.28125 18.476562 L 15.28125 23.058594 C 14.386719 23.28125 13.457031 23.398438 12.5 23.398438 C 11.550781 23.398438 10.621094 23.28125 9.734375 23.0625 L 9.734375 20.050781 C 9.351562 20.171875 8.84375 20.242188 8.195312 20.207031 C 6.039062 20.09375 5.730469 18.785156 5.386719 17.859375 C 5.035156 16.9375 3.957031 16.820312 4.113281 16.4375 C 4.855469 16.179688 5.441406 16.425781 5.835938 16.726562 C 6.152344 16.964844 6.367188 17.304688 6.515625 17.667969 C 6.683594 18.085938 7.128906 18.785156 8.230469 18.785156 C 9.011719 18.785156 9.472656 18.601562 9.738281 18.425781 C 9.753906 17.769531 10.109375 17.203125 10.632812 16.894531 C 9.128906 16.796875 7.8125 16.515625 6.84375 15.667969 C 5.761719 14.734375 5.113281 12.863281 5.113281 11.542969 C 5.113281 10.445312 5.566406 9.089844 6.34375 8.234375 C 6.367188 8.210938 6.390625 8.183594 6.417969 8.15625 C 6.242188 7.621094 6.035156 6.5625 6.535156 5.265625 C 8.03125 5.238281 9.210938 6.054688 9.691406 6.449219 C 10.558594 6.246094 11.507812 6.152344 12.507812 6.152344 C 13.53125 6.152344 14.507812 6.242188 15.390625 6.449219 C 15.871094 6.054688 17.054688 5.238281 18.546875 5.269531 C 19.070312 6.617188 18.828125 7.710938 18.644531 8.222656 C 19.441406 9.136719 19.902344 10.433594 19.902344 11.542969 Z M 19.902344 11.542969 "/>
<path style=" stroke:none;fill-rule:nonzero;fill:rgb(47.058824%,54.509807%,61.176473%);fill-opacity:1;" d="M 12 23.398438 C 5.714844 23.398438 0.601562 18.285156 0.601562 12 C 0.601562 5.609375 5.609375 0.601562 12 0.601562 C 18.390625 0.601562 23.398438 5.609375 23.398438 12 C 23.398438 18.285156 18.285156 23.398438 12 23.398438 Z M 12 1.199219 C 5.945312 1.199219 1.199219 5.945312 1.199219 12 C 1.199219 17.953125 6.046875 22.800781 12 22.800781 C 17.953125 22.800781 22.800781 17.953125 22.800781 12 C 22.800781 5.945312 18.054688 1.199219 12 1.199219 Z M 12 1.199219 "/>
</g>
</svg>
