<?xml version="1.0" encoding="UTF-8"?>
<svg xmlns="http://www.w3.org/2000/svg" xmlns:xlink="http://www.w3.org/1999/xlink" width="12pt" height="12pt" viewBox="0 0 12 12" version="1.1">
<g id="surface3678">
<path style=" stroke:none;fill-rule:nonzero;fill:rgb(30.588236%,47.843137%,70.980394%);fill-opacity:1;" d="M 11.25 2.25 L 0.75 2.25 C 0.335938 2.25 0 2.585938 0 3 L 0 10.5 C 0 10.914062 0.335938 11.25 0.75 11.25 L 11.25 11.25 C 11.664062 11.25 12 10.914062 12 10.5 L 12 3 C 12 2.585938 11.664062 2.25 11.25 2.25 Z M 11.25 2.25 "/>
<path style=" stroke:none;fill-rule:nonzero;fill:rgb(30.588236%,47.843137%,70.980394%);fill-opacity:1;" d="M 6 9 C 5.171875 9 4.5 9.671875 4.5 10.5 C 4.5 11.328125 5.171875 12 6 12 C 6.828125 12 7.5 11.328125 7.5 10.5 C 7.5 9.671875 6.828125 9 6 9 Z M 6 9 "/>
<path style=" stroke:none;fill-rule:nonzero;fill:rgb(100%,100%,100%);fill-opacity:1;" d="M 6.003906 10.046875 C 5.609375 9.800781 4.730469 9.375 3.375 9.375 C 2.355469 9.375 1.601562 9.617188 1.125 9.839844 L 1.125 1.742188 C 1.402344 1.550781 2.160156 1.125 3.375 1.125 C 4.933594 1.125 5.738281 1.828125 5.746094 1.835938 L 6 2.0625 L 6.253906 1.835938 C 6.257812 1.828125 7.074219 1.125 8.625 1.125 C 9.847656 1.125 10.597656 1.546875 10.875 1.742188 L 10.875 9.851562 C 10.390625 9.625 9.628906 9.375 8.625 9.375 C 7.304688 9.375 6.40625 9.804688 6.003906 10.046875 Z M 6.003906 10.046875 "/>
<path style=" stroke:none;fill-rule:nonzero;fill:rgb(47.058824%,54.509807%,61.176473%);fill-opacity:1;" d="M 8.625 1.5 C 9.558594 1.5 10.183594 1.765625 10.5 1.949219 L 10.5 9.292969 C 10.011719 9.132812 9.382812 9 8.625 9 C 7.394531 9 6.511719 9.34375 6.007812 9.613281 C 5.507812 9.339844 4.632812 9 3.375 9 C 2.609375 9 1.984375 9.125 1.5 9.289062 L 1.5 1.949219 C 1.820312 1.765625 2.441406 1.5 3.375 1.5 C 4.773438 1.5 5.472656 2.089844 5.492188 2.109375 L 5.996094 2.574219 L 6.503906 2.113281 C 6.511719 2.105469 7.21875 1.5 8.625 1.5 M 8.625 0.75 C 6.886719 0.75 6 1.558594 6 1.558594 C 6 1.558594 5.121094 0.75 3.375 0.75 C 1.628906 0.75 0.75 1.558594 0.75 1.558594 L 0.75 10.5 C 0.75 10.5 1.628906 9.75 3.375 9.75 C 5.121094 9.75 6 10.5 6 10.5 C 6 10.5 6.9375 9.75 8.625 9.75 C 10.3125 9.75 11.25 10.5 11.25 10.5 L 11.25 1.558594 C 11.25 1.558594 10.363281 0.75 8.625 0.75 Z M 8.625 0.75 "/>
<path style=" stroke:none;fill-rule:nonzero;fill:rgb(88.235295%,92.156863%,94.901961%);fill-opacity:1;" d="M 10.5 9.292969 C 10.011719 9.132812 9.382812 9 8.625 9 C 7.394531 9 6.511719 9.34375 6.007812 9.613281 L 5.996094 2.574219 L 6.503906 2.113281 C 6.511719 2.105469 7.21875 1.5 8.625 1.5 C 9.558594 1.5 10.183594 1.765625 10.5 1.949219 Z M 10.5 9.292969 "/>
<path style=" stroke:none;fill-rule:nonzero;fill:rgb(21.176471%,25.098041%,30.19608%);fill-opacity:1;" d="M 8.25 4.5 L 9 4.5 L 9 7.5 L 8.25 7.5 Z M 8.625 2.730469 C 8.269531 2.730469 7.980469 3.019531 7.980469 3.375 C 7.980469 3.730469 8.269531 4.019531 8.625 4.019531 C 8.980469 4.019531 9.269531 3.730469 9.269531 3.375 C 9.269531 3.019531 8.980469 2.730469 8.625 2.730469 Z M 8.625 2.730469 "/>
<path style=" stroke:none;fill-rule:nonzero;fill:rgb(21.176471%,25.098041%,30.19608%);fill-opacity:1;" d="M 7.875 6.75 L 9.375 6.75 L 9.375 7.5 L 7.875 7.5 Z M 7.875 4.5 L 9 4.5 L 9 5.25 L 7.875 5.25 Z M 7.875 4.5 "/>
</g>
</svg>
