<?xml version="1.0" encoding="UTF-8"?>
<svg xmlns="http://www.w3.org/2000/svg" xmlns:xlink="http://www.w3.org/1999/xlink" width="24pt" height="24pt" viewBox="0 0 24 24" version="1.1">
<g id="surface5691">
<path style=" stroke:none;fill-rule:nonzero;fill:rgb(54.509807%,71.764708%,94.117647%);fill-opacity:1;" d="M 12 23.101562 C 11.371094 23.101562 10.804688 22.699219 10.59375 22.101562 L 10.523438 21.898438 L 1.800781 21.898438 C 1.304688 21.898438 0.898438 21.496094 0.898438 21 L 0.898438 6 C 0.898438 5.503906 1.304688 5.101562 1.800781 5.101562 L 22.199219 5.101562 C 22.695312 5.101562 23.101562 5.503906 23.101562 6 L 23.101562 21 C 23.101562 21.496094 22.695312 21.898438 22.199219 21.898438 L 13.476562 21.898438 L 13.40625 22.101562 C 13.195312 22.699219 12.628906 23.101562 12 23.101562 Z M 12 23.101562 "/>
<path style=" stroke:none;fill-rule:nonzero;fill:rgb(30.588236%,47.843137%,70.980394%);fill-opacity:1;" d="M 22.199219 5.398438 C 22.53125 5.398438 22.800781 5.667969 22.800781 6 L 22.800781 21 C 22.800781 21.332031 22.53125 21.601562 22.199219 21.601562 L 13.265625 21.601562 L 13.125 22 C 12.953125 22.476562 12.503906 22.800781 12 22.800781 C 11.496094 22.800781 11.046875 22.476562 10.875 22 L 10.734375 21.601562 L 1.800781 21.601562 C 1.46875 21.601562 1.199219 21.332031 1.199219 21 L 1.199219 6 C 1.199219 5.667969 1.46875 5.398438 1.800781 5.398438 L 22.199219 5.398438 M 22.199219 4.800781 L 1.800781 4.800781 C 1.136719 4.800781 0.601562 5.335938 0.601562 6 L 0.601562 21 C 0.601562 21.664062 1.136719 22.199219 1.800781 22.199219 L 10.308594 22.199219 C 10.558594 22.898438 11.21875 23.398438 12 23.398438 C 12.78125 23.398438 13.441406 22.898438 13.691406 22.199219 L 22.199219 22.199219 C 22.863281 22.199219 23.398438 21.664062 23.398438 21 L 23.398438 6 C 23.398438 5.335938 22.863281 4.800781 22.199219 4.800781 Z M 22.199219 4.800781 "/>
<path style=" stroke:none;fill-rule:nonzero;fill:rgb(100%,100%,100%);fill-opacity:1;" d="M 12 20.671875 C 11.441406 20.425781 9.191406 19.5 6.898438 19.5 C 4.90625 19.5 2.945312 20.199219 2.101562 20.542969 L 2.101562 3.777344 C 2.59375 3.515625 4.34375 2.699219 6.898438 2.699219 C 9.929688 2.699219 11.824219 3.84375 11.84375 3.855469 L 12 3.953125 L 12.15625 3.855469 C 12.175781 3.84375 14.070312 2.699219 17.101562 2.699219 C 19.65625 2.699219 21.40625 3.515625 21.898438 3.777344 L 21.898438 20.542969 C 21.054688 20.199219 19.09375 19.5 17.101562 19.5 C 14.808594 19.5 12.558594 20.425781 12 20.671875 Z M 12 20.671875 "/>
<path style=" stroke:none;fill-rule:nonzero;fill:rgb(47.058824%,54.509807%,61.176473%);fill-opacity:1;" d="M 17.101562 3 C 19.367188 3 20.976562 3.65625 21.601562 3.960938 L 21.601562 20.105469 C 20.601562 19.734375 18.863281 19.199219 17.101562 19.199219 C 14.894531 19.199219 12.730469 20.035156 12 20.34375 C 11.269531 20.035156 9.105469 19.199219 6.898438 19.199219 C 5.136719 19.199219 3.398438 19.734375 2.398438 20.105469 L 2.398438 3.960938 C 3.023438 3.65625 4.632812 3 6.898438 3 C 9.832031 3 11.667969 4.101562 11.683594 4.109375 L 12 4.304688 L 12.3125 4.109375 C 12.332031 4.101562 14.167969 3 17.101562 3 M 17.101562 2.398438 C 13.9375 2.398438 12 3.601562 12 3.601562 C 12 3.601562 10.0625 2.398438 6.898438 2.398438 C 3.738281 2.398438 1.800781 3.601562 1.800781 3.601562 L 1.800781 21 C 1.800781 21 4.351562 19.800781 6.898438 19.800781 C 9.449219 19.800781 12 21 12 21 C 12 21 14.550781 19.800781 17.101562 19.800781 C 19.648438 19.800781 22.199219 21 22.199219 21 L 22.199219 3.601562 C 22.199219 3.601562 20.261719 2.398438 17.101562 2.398438 Z M 17.101562 2.398438 "/>
<path style=" stroke:none;fill-rule:nonzero;fill:rgb(88.235295%,92.156863%,94.901961%);fill-opacity:1;" d="M 21.601562 20.105469 C 20.601562 19.734375 18.863281 19.199219 17.101562 19.199219 C 14.894531 19.199219 12.730469 20.035156 12 20.34375 L 12 4.304688 L 12.3125 4.109375 C 12.332031 4.101562 14.167969 3 17.101562 3 C 19.367188 3 20.976562 3.65625 21.601562 3.960938 Z M 21.601562 20.105469 "/>
<path style=" stroke:none;fill-rule:nonzero;fill:rgb(21.176471%,25.098041%,30.19608%);fill-opacity:1;" d="M 17.101562 6.601562 C 16.601562 6.601562 16.199219 7.003906 16.199219 7.5 C 16.199219 7.996094 16.601562 8.398438 17.101562 8.398438 C 17.597656 8.398438 18 7.996094 18 7.5 C 18 7.003906 17.597656 6.601562 17.101562 6.601562 Z M 17.101562 6.601562 "/>
<path style=" stroke:none;fill-rule:nonzero;fill:rgb(21.176471%,25.098041%,30.19608%);fill-opacity:1;" d="M 18 15 L 18 9.601562 L 15.601562 9.601562 L 15.601562 10.199219 L 16.199219 10.199219 L 16.199219 15 L 15.601562 15 L 15.601562 15.601562 L 18.601562 15.601562 L 18.601562 15 Z M 18 15 "/>
</g>
</svg>
