<?xml version="1.0" encoding="UTF-8"?>
<svg xmlns="http://www.w3.org/2000/svg" xmlns:xlink="http://www.w3.org/1999/xlink" width="30pt" height="30pt" viewBox="0 0 30 30" version="1.1">
<g id="surface65">
<path style=" stroke:none;fill-rule:nonzero;fill:rgb(100%,100%,100%);fill-opacity:1;" d="M 5.5 27.5 L 5.5 2.5 L 18.800781 2.5 L 24.5 8.199219 L 24.5 27.5 Z M 5.5 27.5 "/>
<path style=" stroke:none;fill-rule:nonzero;fill:rgb(47.058824%,54.509807%,61.176473%);fill-opacity:1;" d="M 18.601562 3 L 24 8.398438 L 24 27 L 6 27 L 6 3 L 18.601562 3 M 19 2 L 5 2 L 5 28 L 25 28 L 25 8 Z M 19 2 "/>
<path style=" stroke:none;fill-rule:nonzero;fill:rgb(100%,100%,100%);fill-opacity:1;" d="M 18.5 8.5 L 18.5 2.5 L 18.800781 2.5 L 24.5 8.199219 L 24.5 8.5 Z M 18.5 8.5 "/>
<path style=" stroke:none;fill-rule:nonzero;fill:rgb(47.058824%,54.509807%,61.176473%);fill-opacity:1;" d="M 19 3.398438 L 23.601562 8 L 19 8 L 19 3.398438 M 19 2 L 18 2 L 18 9 L 25 9 L 25 8 Z M 11 16 L 10 16 L 10 13 L 9.5 13 L 9.5 12 L 11 12 Z M 14.5 16 C 13.699219 16 13 15.300781 13 14.5 L 13 13.5 C 13 12.699219 13.699219 12 14.5 12 C 15.300781 12 16 12.699219 16 13.5 L 16 14.5 C 16 15.300781 15.300781 16 14.5 16 Z M 14.5 13 C 14.199219 13 14 13.199219 14 13.5 L 14 14.5 C 14 14.800781 14.199219 15 14.5 15 C 14.800781 15 15 14.800781 15 14.5 L 15 13.5 C 15 13.199219 14.800781 13 14.5 13 Z M 19.5 16 C 18.699219 16 18 15.300781 18 14.5 L 18 13.5 C 18 12.699219 18.699219 12 19.5 12 C 20.300781 12 21 12.699219 21 13.5 L 21 14.5 C 21 15.300781 20.300781 16 19.5 16 Z M 19.5 13 C 19.199219 13 19 13.199219 19 13.5 L 19 14.5 C 19 14.800781 19.199219 15 19.5 15 C 19.800781 15 20 14.800781 20 14.5 L 20 13.5 C 20 13.199219 19.800781 13 19.5 13 Z M 21 22 L 20 22 L 20 19 L 19.5 19 L 19.5 18 L 21 18 Z M 15.5 22 C 14.699219 22 14 21.300781 14 20.5 L 14 19.5 C 14 18.699219 14.699219 18 15.5 18 C 16.300781 18 17 18.699219 17 19.5 L 17 20.5 C 17 21.300781 16.300781 22 15.5 22 Z M 15.5 19 C 15.199219 19 15 19.199219 15 19.5 L 15 20.5 C 15 20.800781 15.199219 21 15.5 21 C 15.800781 21 16 20.800781 16 20.5 L 16 19.5 C 16 19.199219 15.800781 19 15.5 19 Z M 10.5 22 C 9.699219 22 9 21.300781 9 20.5 L 9 19.5 C 9 18.699219 9.699219 18 10.5 18 C 11.300781 18 12 18.699219 12 19.5 L 12 20.5 C 12 21.300781 11.300781 22 10.5 22 Z M 10.5 19 C 10.199219 19 10 19.199219 10 19.5 L 10 20.5 C 10 20.800781 10.199219 21 10.5 21 C 10.800781 21 11 20.800781 11 20.5 L 11 19.5 C 11 19.199219 10.800781 19 10.5 19 Z M 10.5 19 "/>
</g>
</svg>
