<?xml version="1.0" encoding="UTF-8" standalone="no"?>
<!DOCTYPE svg PUBLIC "-//W3C//DTD SVG 1.1//EN" "http://www.w3.org/Graphics/SVG/1.1/DTD/svg11.dtd">
<svg width="100%" height="100%" viewBox="0 0 30 30" version="1.1" xmlns="http://www.w3.org/2000/svg" xmlns:xlink="http://www.w3.org/1999/xlink" xml:space="preserve" xmlns:serif="http://www.serif.com/" style="fill-rule:evenodd;clip-rule:evenodd;stroke-linejoin:round;stroke-miterlimit:2;">
    <g id="surface26" transform="matrix(1,0,0,1,2.8125,0.9375)">
        <path d="M0.938,27.188L0.938,0.938L18.5,0.938L23.438,6.004L23.438,27.188L0.938,27.188Z" style="fill:rgb(254,254,254);fill-rule:nonzero;"/>
        <path d="M18.102,1.875L22.5,6.387L22.5,26.25L1.875,26.25L1.875,1.875L18.102,1.875M18.895,0L0,0L0,28.125L24.375,28.125L24.375,5.625L18.895,0Z" style="fill:rgb(120,139,156);fill-rule:nonzero;"/>
        <path d="M17.813,6.563L17.813,0.938L18.434,0.938L23.438,6.008L23.438,6.563L17.813,6.563Z" style="fill:rgb(254,254,254);fill-rule:nonzero;"/>
        <path d="M18.75,2.594L21.742,5.625L18.75,5.625L18.75,2.594M18.824,0L16.875,0L16.875,7.5L24.375,7.5L24.375,5.625L18.824,0Z" style="fill:rgb(120,139,156);fill-rule:nonzero;"/>
        <path d="M3.75,24.375L7.5,24.375L7.5,22.5L3.75,22.5L3.75,24.375ZM9.375,24.375L15,24.375L15,22.5L9.375,22.5L9.375,24.375ZM3.75,20.625L7.5,20.625L7.5,18.75L3.75,18.75L3.75,20.625ZM9.375,20.625L15,20.625L15,18.75L9.375,18.75L9.375,20.625ZM16.875,20.625L20.625,20.625L20.625,18.75L16.875,18.75L16.875,20.625ZM3.75,16.875L7.5,16.875L7.5,15L3.75,15L3.75,16.875ZM9.375,16.875L15,16.875L15,15L9.375,15L9.375,16.875ZM16.875,16.875L20.625,16.875L20.625,15L16.875,15L16.875,16.875ZM3.75,13.125L7.5,13.125L7.5,11.25L3.75,11.25L3.75,13.125ZM9.375,13.125L15,13.125L15,11.25L9.375,11.25L9.375,13.125ZM16.875,11.25L16.875,13.125L20.625,13.125L20.625,11.25L16.875,11.25ZM3.75,9.375L7.5,9.375L7.5,7.5L3.75,7.5L3.75,9.375ZM13.125,7.5L9.375,7.5L9.375,9.375L13.125,9.375L13.125,7.5ZM3.75,5.625L7.5,5.625L7.5,3.75L3.75,3.75L3.75,5.625ZM13.125,3.75L9.375,3.75L9.375,5.625L13.125,5.625L13.125,3.75Z" style="fill:rgb(224,186,187);fill-rule:nonzero;"/>
        <rect x="0" y="5.625" width="24.375" height="13.125" style="fill:rgb(156,94,98);"/>
        <g transform="matrix(1,0,0,1,-0.632422,0.176091)">
            <g transform="matrix(1.3103,0,0,1.3103,-4.54155,-8.95339)">
                <path d="M5.1,19.5L5.1,12.5L6.5,12.5L7.9,16.5L9.3,12.5L10.7,12.5L10.7,19.5L9.5,19.5L9.5,14.8L8.3,18.2L7.5,18.2L6.3,14.8L6.3,19.5L5.1,19.5Z" style="fill:rgb(254,254,254);fill-rule:nonzero;"/>
            </g>
            <g transform="matrix(1.3103,0,0,1.3103,1.22377,-8.95339)">
                <path d="M12.2,17L12.2,15.8L14.8,12.5L16,12.5L16,15.8L17,15.8L17,17L16,17L16,19.5L14.8,19.5L14.8,17L12.2,17ZM13.4,15.8L14.8,15.8L14.8,14.2L13.4,15.8Z" style="fill:rgb(254,254,254);"/>
            </g>
            <g transform="matrix(1.3103,0,0,1.3103,-12.4033,-8.95339)">
                <path d="M18.2,19.5L18.2,12.5L21.8,12.5L21.8,13.7L19.4,13.7L19.4,15.4L21.5,15.4L21.5,16.6L19.4,16.6L19.4,19.5L18.2,19.5Z" style="fill:rgb(254,254,254);fill-rule:nonzero;"/>
            </g>
        </g>
    </g>
</svg>
