<svg xmlns="http://www.w3.org/2000/svg"  viewBox="0 0 16 16" width="16px" height="16px"><path fill="#f68f8f" d="M8 6.5A1.5 1.5 0 1 0 8 9.5A1.5 1.5 0 1 0 8 6.5Z"/><path fill="#c74343" d="M8,7c0.551,0,1,0.449,1,1S8.551,9,8,9S7,8.551,7,8S7.449,7,8,7 M8,6C6.897,6,6,6.898,6,8 s0.897,2,2,2s2-0.898,2-2S9.103,6,8,6L8,6z"/><path fill="#dcd5f2" d="M0.857,10.38C0.622,9.647,0.5,8.875,0.5,8.084C0.5,8.875,0.622,9.646,0.857,10.38z M0.5,8.084 c0-0.818,0.131-1.618,0.383-2.374C0.631,6.466,0.5,7.266,0.5,8.084z"/><path fill="#a59dd1" d="M2.346,2.43C0.897,3.879,0,5.879,0,8.084s0.897,4.205,2.346,5.654l0.707-0.707 C1.785,11.764,1,10.014,1,8.084c0-1.93,0.785-3.68,2.053-4.947L2.346,2.43L2.346,2.43z"/><g><path fill="#dcd5f2" d="M15.143,10.38C15.378,9.646,15.5,8.875,15.5,8.084C15.5,8.875,15.378,9.647,15.143,10.38z M15.5,8.084c0-0.818-0.131-1.618-0.383-2.374C15.369,6.466,15.5,7.266,15.5,8.084z"/><path fill="#a59dd1" d="M13.654,2.43l-0.707,0.707C14.215,4.405,15,6.155,15,8.084c0,1.93-0.785,3.68-2.053,4.947 l0.707,0.707C15.103,12.29,16,10.29,16,8.084S15.103,3.879,13.654,2.43L13.654,2.43z"/></g><g><path fill="#a59dd1" d="M4.027,10.115C3.683,9.472,3.5,8.75,3.5,8.001l0,0C3.5,8.75,3.683,9.472,4.027,10.115z"/><path fill="#8b75a1" d="M4.467,4.467C3.561,5.372,3,6.622,3,8.001c0,1.378,0.561,2.628,1.466,3.533l0.707-0.707 C4.449,10.103,4,9.103,4,8s0.449-2.103,1.173-2.827L4.467,4.467L4.467,4.467z"/><g><path fill="#a59dd1" d="M11.973,10.115C12.317,9.472,12.5,8.75,12.5,8.001l0,0C12.5,8.75,12.317,9.472,11.973,10.115z"/><path fill="#8b75a1" d="M11.533,4.467l-0.706,0.706C11.551,5.897,12,6.897,12,8s-0.449,2.103-1.173,2.827l0.707,0.707 C12.439,10.629,13,9.379,13,8.001C13,6.622,12.439,5.372,11.533,4.467L11.533,4.467z"/></g></g></svg>