<?xml version="1.0" encoding="UTF-8" standalone="no"?>
<!DOCTYPE svg PUBLIC "-//W3C//DTD SVG 1.1//EN" "http://www.w3.org/Graphics/SVG/1.1/DTD/svg11.dtd">
<svg width="100%" height="100%" viewBox="0 0 24 24" version="1.1" xmlns="http://www.w3.org/2000/svg" xmlns:xlink="http://www.w3.org/1999/xlink" xml:space="preserve" xmlns:serif="http://www.serif.com/" style="fill-rule:evenodd;clip-rule:evenodd;stroke-linejoin:round;stroke-miterlimit:2;">
    <g id="surface6137">
        <g transform="matrix(-1.83232,2.07633e-16,-1.58414e-16,-1.46475,22.9939,30.5914)">
            <path d="M5.699,6.301L5.699,10.5L6.301,10.5L6.301,6.301L7.801,6.301L6,4.5L4.199,6.301L5.699,6.301Z" style="fill:rgb(126,181,78);fill-rule:nonzero;"/>
        </g>
        <path d="M12,10.801C11.336,10.801 10.801,11.336 10.801,12C10.801,12.664 11.336,13.199 12,13.199C12.664,13.199 13.199,12.664 13.199,12C13.199,11.336 12.664,10.801 12,10.801Z" style="fill:rgb(78,121,181);fill-rule:nonzero;"/>
        <path d="M12.098,0.004C12.066,0.004 12.031,0 12,0C11.969,0 11.934,0.004 11.902,0.004L12.098,0.004ZM17.367,1.277L16.828,2.355C20.363,4.129 22.801,7.781 22.801,12C22.801,16.219 20.363,19.871 16.828,21.648L17.363,22.723C21.297,20.754 24,16.695 24,12C24,7.305 21.297,3.25 17.367,1.277ZM7.184,21.652C3.641,19.879 1.199,16.223 1.199,12C1.199,7.777 3.641,4.125 7.176,2.352L6.641,1.277C2.707,3.246 0,7.301 0,12C0,16.699 2.711,20.758 6.645,22.727L7.184,21.652Z" style="fill:rgb(194,232,254);fill-rule:nonzero;"/>
        <path d="M15.758,4.496L15.219,5.57C17.578,6.754 19.203,9.191 19.203,12.004C19.203,14.816 17.578,17.254 15.223,18.438L15.758,19.512C18.512,18.133 20.406,15.293 20.406,12.004C20.406,8.715 18.512,5.875 15.758,4.496ZM8.254,19.512L8.793,18.438C6.434,17.258 4.805,14.82 4.805,12.004C4.805,9.191 6.43,6.758 8.789,5.574L8.25,4.5C5.5,5.879 3.605,8.719 3.605,12.004C3.605,15.293 5.5,18.133 8.254,19.512Z" style="fill:rgb(139,183,239);fill-rule:nonzero;"/>
        <path d="M15.605,12.004C15.605,13.41 14.793,14.629 13.613,15.219L14.152,16.293C15.723,15.504 16.805,13.883 16.805,12.004C16.805,10.125 15.719,8.5 14.145,7.715L13.609,8.785C14.789,9.379 15.605,10.598 15.605,12.004ZM8.406,12.004C8.406,10.598 9.219,9.383 10.395,8.789L9.859,7.715C8.285,8.504 7.203,10.125 7.203,12.004C7.203,13.887 8.289,15.508 9.863,16.297L10.402,15.223C9.219,14.633 8.406,13.414 8.406,12.004Z" style="fill:rgb(115,150,196);fill-rule:nonzero;"/>
    </g>
</svg>
