<?xml version="1.0" encoding="UTF-8"?>
<svg xmlns="http://www.w3.org/2000/svg" xmlns:xlink="http://www.w3.org/1999/xlink" width="24pt" height="24pt" viewBox="0 0 24 24" version="1.1">
<g id="surface6137">
<path style=" stroke:none;fill-rule:nonzero;fill:rgb(30.588236%,47.843137%,70.980394%);fill-opacity:1;" d="M 12 10.800781 C 11.335938 10.800781 10.800781 11.335938 10.800781 12 C 10.800781 12.664062 11.335938 13.199219 12 13.199219 C 12.664062 13.199219 13.199219 12.664062 13.199219 12 C 13.199219 11.335938 12.664062 10.800781 12 10.800781 Z M 12 10.800781 "/>
<path style=" stroke:none;fill-rule:nonzero;fill:rgb(76.078433%,90.980393%,100%);fill-opacity:1;" d="M 12.097656 0.00390625 C 12.066406 0.00390625 12.03125 0 12 0 C 11.96875 0 11.933594 0.00390625 11.902344 0.00390625 Z M 17.367188 1.277344 L 16.828125 2.355469 C 20.363281 4.128906 22.800781 7.78125 22.800781 12 C 22.800781 16.21875 20.363281 19.871094 16.828125 21.648438 L 17.363281 22.722656 C 21.296875 20.753906 24 16.695312 24 12 C 24 7.304688 21.296875 3.25 17.367188 1.277344 Z M 7.183594 21.652344 C 3.640625 19.878906 1.199219 16.222656 1.199219 12 C 1.199219 7.777344 3.640625 4.125 7.175781 2.351562 L 6.640625 1.277344 C 2.707031 3.246094 0 7.300781 0 12 C 0 16.699219 2.710938 20.757812 6.644531 22.726562 Z M 7.183594 21.652344 "/>
<path style=" stroke:none;fill-rule:nonzero;fill:rgb(54.509807%,71.764708%,94.117647%);fill-opacity:1;" d="M 15.757812 4.496094 L 15.21875 5.570312 C 17.578125 6.753906 19.203125 9.191406 19.203125 12.003906 C 19.203125 14.816406 17.578125 17.253906 15.222656 18.4375 L 15.757812 19.511719 C 18.511719 18.132812 20.40625 15.292969 20.40625 12.003906 C 20.40625 8.714844 18.511719 5.875 15.757812 4.496094 Z M 8.253906 19.511719 L 8.792969 18.4375 C 6.433594 17.257812 4.804688 14.820312 4.804688 12.003906 C 4.804688 9.191406 6.429688 6.757812 8.789062 5.574219 L 8.25 4.5 C 5.5 5.878906 3.605469 8.71875 3.605469 12.003906 C 3.605469 15.292969 5.5 18.132812 8.253906 19.511719 Z M 8.253906 19.511719 "/>
<path style=" stroke:none;fill-rule:nonzero;fill:rgb(45.490196%,58.823532%,76.862746%);fill-opacity:1;" d="M 15.605469 12.003906 C 15.605469 13.410156 14.792969 14.628906 13.613281 15.21875 L 14.152344 16.292969 C 15.722656 15.503906 16.804688 13.882812 16.804688 12.003906 C 16.804688 10.125 15.71875 8.5 14.144531 7.714844 L 13.609375 8.785156 C 14.789062 9.378906 15.605469 10.597656 15.605469 12.003906 Z M 8.40625 12.003906 C 8.40625 10.597656 9.21875 9.382812 10.394531 8.789062 L 9.859375 7.714844 C 8.285156 8.503906 7.203125 10.125 7.203125 12.003906 C 7.203125 13.886719 8.289062 15.507812 9.863281 16.296875 L 10.402344 15.222656 C 9.21875 14.632812 8.40625 13.414062 8.40625 12.003906 Z M 8.40625 12.003906 "/>
</g>
</svg>
