<?xml version="1.0" encoding="UTF-8" standalone="no"?>
<!DOCTYPE svg PUBLIC "-//W3C//DTD SVG 1.1//EN" "http://www.w3.org/Graphics/SVG/1.1/DTD/svg11.dtd">
<svg width="100%" height="100%" viewBox="0 0 23 23" version="1.1" xmlns="http://www.w3.org/2000/svg" xmlns:xlink="http://www.w3.org/1999/xlink" xml:space="preserve" xmlns:serif="http://www.serif.com/" style="fill-rule:evenodd;clip-rule:evenodd;stroke-linejoin:round;stroke-miterlimit:2;">
    <g transform="matrix(1,0,0,1,0.5,0.5)">
        <g id="surface1725">
            <g>
                <path d="M11,9.168C9.988,9.168 9.168,9.988 9.168,11C9.168,12.012 9.988,12.836 11,12.836C12.012,12.836 12.832,12.012 12.832,11C12.832,9.988 12.012,9.168 11,9.168Z" style="fill:rgb(165,157,209);fill-rule:nonzero;"/>
                <path d="M11,9.535C11.809,9.535 12.465,10.191 12.465,11C12.465,11.809 11.809,12.469 11,12.469C10.191,12.469 9.535,11.809 9.535,11C9.535,10.191 10.191,9.535 11,9.535M11,8.801C9.785,8.801 8.801,9.789 8.801,11C8.801,12.215 9.785,13.199 11,13.199C12.215,13.199 13.199,12.215 13.199,11C13.199,9.789 12.215,8.801 11,8.801Z" style="fill:rgb(139,117,161);fill-rule:nonzero;"/>
                <path d="M3.23,18.25C1.383,16.273 0.367,13.715 0.367,11C0.367,8.289 1.383,5.727 3.23,3.75L4.266,4.785C2.695,6.484 1.832,8.68 1.832,11C1.832,13.324 2.695,15.516 4.266,17.215L3.23,18.25Z" style="fill:rgb(220,213,242);fill-rule:nonzero;"/>
                <path d="M3.246,4.281L3.762,4.801C2.277,6.527 1.465,8.703 1.465,11C1.465,13.297 2.277,15.473 3.762,17.199L3.242,17.719C1.621,15.852 0.734,13.492 0.734,11C0.734,8.508 1.621,6.148 3.246,4.281M3.227,3.227C1.234,5.219 0,7.969 0,11C0,14.031 1.234,16.781 3.227,18.773L4.781,17.219C3.188,15.625 2.199,13.426 2.199,11C2.199,8.574 3.188,6.375 4.781,4.781L3.227,3.227Z" style="fill:rgb(165,157,209);fill-rule:nonzero;"/>
                <path d="M17.711,17.238C19.297,15.535 20.168,13.336 20.168,11C20.168,8.668 19.297,6.465 17.711,4.766L18.754,3.73C20.613,5.711 21.633,8.281 21.633,11C21.633,13.723 20.613,16.289 18.754,18.27L17.711,17.238Z" style="fill:rgb(220,213,242);fill-rule:nonzero;"/>
                <path d="M18.738,4.262C20.375,6.133 21.266,8.5 21.266,11C21.266,13.5 20.375,15.867 18.738,17.738L18.215,17.223C19.715,15.492 20.535,13.309 20.535,11C20.535,8.691 19.715,6.512 18.215,4.777L18.738,4.262M18.758,3.211C18.27,3.691 17.742,4.215 17.195,4.758C18.801,6.355 19.801,8.563 19.801,11C19.801,13.438 18.801,15.648 17.195,17.242C17.742,17.785 18.27,18.309 18.758,18.789C20.758,16.797 22,14.039 22,11C22,7.961 20.758,5.203 18.758,3.211Z" style="fill:rgb(165,157,209);fill-rule:nonzero;"/>
                <path d="M14.586,14.133C15.352,13.266 15.766,12.164 15.766,11C15.766,9.836 15.352,8.734 14.586,7.867L15.625,6.832C16.664,7.98 17.234,9.445 17.234,11C17.234,12.555 16.664,14.023 15.629,15.172L14.586,14.133Z" style="fill:rgb(165,157,209);fill-rule:nonzero;"/>
                <path d="M15.602,7.371C16.422,8.402 16.867,9.668 16.867,11C16.867,12.332 16.422,13.598 15.605,14.629C15.43,14.457 15.254,14.281 15.082,14.109C15.766,13.219 16.133,12.141 16.133,11C16.133,9.863 15.766,8.781 15.082,7.891C15.254,7.719 15.426,7.547 15.602,7.371M15.633,6.309C15.098,6.84 14.57,7.363 14.074,7.859C14.891,8.66 15.398,9.77 15.398,11C15.398,12.23 14.891,13.344 14.074,14.141C14.57,14.641 15.098,15.164 15.633,15.695C16.848,14.496 17.602,12.836 17.602,11C17.602,9.164 16.848,7.504 15.633,6.309Z" style="fill:rgb(139,117,161);fill-rule:nonzero;"/>
                <path d="M6.344,15.141C5.324,13.996 4.766,12.539 4.766,11C4.766,9.461 5.324,8.004 6.344,6.859L7.383,7.898C6.641,8.766 6.234,9.852 6.234,11C6.234,12.148 6.641,13.234 7.383,14.102L6.344,15.141Z" style="fill:rgb(165,157,209);fill-rule:nonzero;"/>
                <path d="M6.367,7.406L6.891,7.926C6.227,8.809 5.867,9.879 5.867,11C5.867,12.121 6.227,13.191 6.891,14.074L6.367,14.594C5.566,13.57 5.133,12.32 5.133,11C5.133,9.684 5.566,8.43 6.367,7.406M6.336,6.336C5.141,7.531 4.398,9.18 4.398,11C4.398,12.82 5.141,14.469 6.336,15.664L7.891,14.109C7.094,13.313 6.602,12.215 6.602,11C6.602,9.789 7.094,8.688 7.891,7.891L6.336,6.336Z" style="fill:rgb(139,117,161);fill-rule:nonzero;"/>
            </g>
        </g>
    </g>
</svg>
