<?xml version="1.0" encoding="UTF-8"?>
<svg xmlns="http://www.w3.org/2000/svg" xmlns:xlink="http://www.w3.org/1999/xlink" width="24pt" height="24pt" viewBox="0 0 24 24" version="1.1">
<g id="surface18386">
<path style=" stroke:none;fill-rule:nonzero;fill:rgb(21.176471%,25.098041%,30.19608%);fill-opacity:1;" d="M 15.601562 16.800781 L 15 16.800781 L 15 7.800781 L 6.601562 7.800781 L 6.601562 7.199219 L 15.601562 7.199219 Z M 15.601562 16.800781 "/>
<path style=" stroke:none;fill-rule:nonzero;fill:rgb(54.509807%,71.764708%,94.117647%);fill-opacity:1;" d="M 3.898438 21.300781 L 3.898438 20.488281 L 7.964844 14.101562 L 8.699219 14.101562 L 8.699219 21.300781 Z M 3.898438 21.300781 "/>
<path style=" stroke:none;fill-rule:nonzero;fill:rgb(30.588236%,47.843137%,70.980394%);fill-opacity:1;" d="M 8.398438 14.398438 L 8.398438 21 L 4.199219 21 L 4.199219 20.574219 L 8.128906 14.398438 L 8.398438 14.398438 M 9 13.800781 L 7.800781 13.800781 L 3.601562 20.398438 L 3.601562 21.601562 L 9 21.601562 Z M 9 13.800781 "/>
<path style=" stroke:none;fill-rule:nonzero;fill:rgb(76.078433%,90.980393%,100%);fill-opacity:1;" d="M 13.542969 19.5 C 10.808594 19.5 8.234375 18.433594 6.300781 16.5 C 2.378906 12.574219 2.308594 6.238281 6.089844 2.226562 L 20.574219 16.707031 C 18.664062 18.511719 16.179688 19.5 13.542969 19.5 Z M 13.542969 19.5 "/>
<path style=" stroke:none;fill-rule:nonzero;fill:rgb(45.490196%,58.823532%,76.862746%);fill-opacity:1;" d="M 6.101562 2.660156 L 20.140625 16.699219 C 18.320312 18.316406 16 19.199219 13.542969 19.199219 C 10.886719 19.199219 8.390625 18.164062 6.511719 16.289062 C 2.777344 12.550781 2.640625 6.5625 6.101562 2.660156 M 6.089844 1.800781 C 1.96875 5.917969 1.96875 12.59375 6.089844 16.710938 C 8.148438 18.769531 10.84375 19.800781 13.542969 19.800781 C 16.242188 19.800781 18.941406 18.769531 21 16.710938 Z M 6.089844 1.800781 "/>
<path style=" stroke:none;fill-rule:nonzero;fill:rgb(76.078433%,90.980393%,100%);fill-opacity:1;" d="M 1.5 23.101562 L 1.5 21.601562 C 1.5 21.105469 1.902344 20.699219 2.398438 20.699219 L 9 20.699219 C 9.496094 20.699219 9.898438 21.105469 9.898438 21.601562 L 9.898438 23.101562 Z M 1.5 23.101562 "/>
<path style=" stroke:none;fill-rule:nonzero;fill:rgb(45.490196%,58.823532%,76.862746%);fill-opacity:1;" d="M 9 21 C 9.332031 21 9.601562 21.269531 9.601562 21.601562 L 9.601562 22.800781 L 1.800781 22.800781 L 1.800781 21.601562 C 1.800781 21.269531 2.070312 21 2.398438 21 L 9 21 M 9 20.398438 L 2.398438 20.398438 C 1.738281 20.398438 1.199219 20.9375 1.199219 21.601562 L 1.199219 23.398438 L 10.199219 23.398438 L 10.199219 21.601562 C 10.199219 20.9375 9.664062 20.398438 9 20.398438 Z M 9 20.398438 "/>
<path style=" stroke:none;fill-rule:nonzero;fill:rgb(29.411766%,39.215687%,46.666667%);fill-opacity:1;" d="M 15.601562 6.300781 C 15.101562 6.300781 14.699219 6.703125 14.699219 7.199219 C 14.699219 7.695312 15.101562 8.101562 15.601562 8.101562 C 16.097656 8.101562 16.5 7.695312 16.5 7.199219 C 16.5 6.703125 16.097656 6.300781 15.601562 6.300781 Z M 15.601562 6.300781 "/>
<path style=" stroke:none;fill-rule:nonzero;fill:rgb(21.176471%,25.098041%,30.19608%);fill-opacity:1;" d="M 15.601562 6.601562 C 15.929688 6.601562 16.199219 6.871094 16.199219 7.199219 C 16.199219 7.53125 15.929688 7.800781 15.601562 7.800781 C 15.269531 7.800781 15 7.53125 15 7.199219 C 15 6.871094 15.269531 6.601562 15.601562 6.601562 M 15.601562 6 C 14.9375 6 14.398438 6.535156 14.398438 7.199219 C 14.398438 7.863281 14.9375 8.398438 15.601562 8.398438 C 16.261719 8.398438 16.800781 7.863281 16.800781 7.199219 C 16.800781 6.535156 16.261719 6 15.601562 6 Z M 15.601562 6 "/>
<path style=" stroke:none;fill-rule:nonzero;fill:rgb(54.509807%,71.764708%,94.117647%);fill-opacity:1;" d="M 21 7.199219 L 22.199219 7.199219 C 22.199219 3.554688 19.246094 0.601562 15.601562 0.601562 L 15.601562 1.800781 C 18.578125 1.800781 21 4.222656 21 7.199219 Z M 21 7.199219 "/>
<path style=" stroke:none;fill-rule:nonzero;fill:rgb(54.509807%,71.764708%,94.117647%);fill-opacity:1;" d="M 18.601562 7.199219 L 19.800781 7.199219 C 19.800781 4.878906 17.917969 3 15.601562 3 L 15.601562 4.199219 C 17.253906 4.199219 18.601562 5.546875 18.601562 7.199219 Z M 18.601562 7.199219 "/>
</g>
</svg>
