<?xml version="1.0" encoding="UTF-8"?>
<svg xmlns="http://www.w3.org/2000/svg" xmlns:xlink="http://www.w3.org/1999/xlink" width="12pt" height="12pt" viewBox="0 0 12 12" version="1.1">
<g id="surface3069">
<path style=" stroke:none;fill-rule:nonzero;fill:rgb(76.078433%,90.980393%,100%);fill-opacity:1;" d="M 1.949219 8.25 C 0.957031 8.25 0.148438 7.441406 0.148438 6.449219 C 0.148438 5.457031 0.957031 4.648438 1.949219 4.648438 C 2.101562 4.648438 2.253906 4.671875 2.410156 4.710938 L 2.558594 4.75 L 2.59375 4.601562 C 2.71875 4.070312 3.125 3.648438 3.652344 3.503906 L 3.75 3.476562 L 3.761719 3.375 C 3.875 2.21875 4.839844 1.351562 6 1.351562 C 6.859375 1.351562 7.628906 1.828125 8.011719 2.597656 L 8.074219 2.722656 L 8.199219 2.671875 C 8.410156 2.589844 8.628906 2.550781 8.851562 2.550781 C 9.84375 2.550781 10.648438 3.355469 10.648438 4.351562 C 10.648438 4.429688 10.644531 4.515625 10.628906 4.617188 L 10.609375 4.734375 L 10.71875 4.78125 C 11.40625 5.054688 11.851562 5.710938 11.851562 6.449219 C 11.851562 7.441406 11.042969 8.25 10.050781 8.25 Z M 1.949219 8.25 "/>
<path style=" stroke:none;fill-rule:nonzero;fill:rgb(45.490196%,58.823532%,76.862746%);fill-opacity:1;" d="M 6 1.5 C 6.800781 1.5 7.519531 1.945312 7.878906 2.667969 L 8 2.910156 L 8.253906 2.8125 C 8.449219 2.738281 8.648438 2.699219 8.851562 2.699219 C 9.761719 2.699219 10.5 3.441406 10.5 4.351562 C 10.5 4.425781 10.492188 4.503906 10.480469 4.597656 L 10.445312 4.832031 L 10.664062 4.917969 C 11.292969 5.171875 11.699219 5.773438 11.699219 6.449219 C 11.699219 7.359375 10.960938 8.101562 10.050781 8.101562 L 1.949219 8.101562 C 1.039062 8.101562 0.300781 7.359375 0.300781 6.449219 C 0.300781 5.539062 1.039062 4.800781 1.949219 4.800781 C 2.085938 4.800781 2.226562 4.820312 2.371094 4.855469 L 2.667969 4.933594 L 2.738281 4.636719 C 2.851562 4.15625 3.21875 3.78125 3.691406 3.648438 L 3.890625 3.59375 L 3.910156 3.390625 C 4.015625 2.3125 4.914062 1.5 6 1.5 M 6 1.199219 C 4.753906 1.199219 3.730469 2.148438 3.613281 3.359375 C 3.035156 3.519531 2.585938 3.980469 2.445312 4.566406 C 2.289062 4.523438 2.121094 4.5 1.949219 4.5 C 0.871094 4.5 0 5.371094 0 6.449219 C 0 7.527344 0.871094 8.398438 1.949219 8.398438 C 2.980469 8.398438 8.972656 8.398438 10.050781 8.398438 C 11.128906 8.398438 12 7.527344 12 6.449219 C 12 5.628906 11.492188 4.929688 10.777344 4.640625 C 10.789062 4.546875 10.800781 4.449219 10.800781 4.351562 C 10.800781 3.273438 9.925781 2.398438 8.851562 2.398438 C 8.601562 2.398438 8.367188 2.449219 8.148438 2.53125 C 7.753906 1.742188 6.941406 1.199219 6 1.199219 Z M 6 1.199219 "/>
<path style=" stroke:none;fill-rule:nonzero;fill:rgb(76.078433%,90.980393%,100%);fill-opacity:1;" d="M 5.101562 7.800781 L 6.898438 7.800781 L 6.898438 8.398438 L 5.101562 8.398438 Z M 5.101562 7.800781 "/>
<path style=" stroke:none;fill-rule:nonzero;fill:rgb(30.588236%,47.843137%,70.980394%);fill-opacity:1;" d="M 6.300781 9.601562 L 6.300781 5.398438 L 5.699219 5.398438 L 5.699219 9.601562 L 4.199219 9.601562 L 6 11.398438 L 7.800781 9.601562 Z M 6.300781 9.601562 "/>
</g>
</svg>
