<?xml version="1.0" encoding="UTF-8"?>
<svg xmlns="http://www.w3.org/2000/svg" xmlns:xlink="http://www.w3.org/1999/xlink" width="12pt" height="12pt" viewBox="0 0 12 12" version="1.1">
<g id="surface2906">
<path style=" stroke:none;fill-rule:nonzero;fill:rgb(76.078433%,90.980393%,100%);fill-opacity:1;" d="M 1.949219 8.550781 C 0.957031 8.550781 0.148438 7.742188 0.148438 6.75 C 0.148438 5.757812 0.957031 4.949219 1.949219 4.949219 C 2.097656 4.949219 2.253906 4.96875 2.410156 5.011719 L 2.558594 5.050781 L 2.59375 4.902344 C 2.71875 4.371094 3.125 3.949219 3.652344 3.804688 L 3.75 3.777344 L 3.761719 3.675781 C 3.875 2.519531 4.839844 1.648438 6 1.648438 C 6.859375 1.648438 7.628906 2.128906 8.011719 2.898438 L 8.074219 3.023438 L 8.203125 2.972656 C 8.410156 2.890625 8.628906 2.851562 8.851562 2.851562 C 9.84375 2.851562 10.648438 3.65625 10.648438 4.648438 C 10.648438 4.730469 10.644531 4.816406 10.628906 4.917969 L 10.609375 5.035156 L 10.71875 5.082031 C 11.40625 5.355469 11.851562 6.011719 11.851562 6.75 C 11.851562 7.742188 11.042969 8.550781 10.050781 8.550781 Z M 1.949219 8.550781 "/>
<path style=" stroke:none;fill-rule:nonzero;fill:rgb(45.490196%,58.823532%,76.862746%);fill-opacity:1;" d="M 6 1.800781 C 6.800781 1.800781 7.519531 2.246094 7.878906 2.964844 L 8 3.210938 L 8.253906 3.113281 C 8.449219 3.039062 8.648438 3 8.851562 3 C 9.761719 3 10.5 3.738281 10.5 4.648438 C 10.5 4.722656 10.492188 4.800781 10.480469 4.898438 L 10.445312 5.132812 L 10.664062 5.21875 C 11.292969 5.472656 11.699219 6.074219 11.699219 6.75 C 11.699219 7.660156 10.960938 8.398438 10.050781 8.398438 L 1.949219 8.398438 C 1.039062 8.398438 0.300781 7.660156 0.300781 6.75 C 0.300781 5.839844 1.039062 5.101562 1.949219 5.101562 C 2.085938 5.101562 2.226562 5.117188 2.371094 5.15625 L 2.667969 5.234375 L 2.738281 4.9375 C 2.851562 4.457031 3.21875 4.082031 3.691406 3.949219 L 3.890625 3.894531 L 3.910156 3.691406 C 4.015625 2.613281 4.914062 1.800781 6 1.800781 M 6 1.5 C 4.753906 1.5 3.730469 2.449219 3.613281 3.660156 C 3.035156 3.820312 2.585938 4.28125 2.445312 4.867188 C 2.289062 4.824219 2.121094 4.800781 1.949219 4.800781 C 0.871094 4.800781 0 5.671875 0 6.75 C 0 7.828125 0.871094 8.699219 1.949219 8.699219 C 2.980469 8.699219 8.972656 8.699219 10.050781 8.699219 C 11.128906 8.699219 12 7.828125 12 6.75 C 12 5.929688 11.492188 5.230469 10.777344 4.941406 C 10.789062 4.847656 10.800781 4.75 10.800781 4.648438 C 10.800781 3.574219 9.925781 2.699219 8.851562 2.699219 C 8.601562 2.699219 8.367188 2.75 8.148438 2.832031 C 7.753906 2.042969 6.941406 1.5 6 1.5 Z M 6 1.5 "/>
<path style=" stroke:none;fill-rule:nonzero;fill:rgb(76.078433%,90.980393%,100%);fill-opacity:1;" d="M 5.101562 8.101562 L 6.898438 8.101562 L 6.898438 8.699219 L 5.101562 8.699219 Z M 5.101562 8.101562 "/>
<path style=" stroke:none;fill-rule:nonzero;fill:rgb(30.588236%,47.843137%,70.980394%);fill-opacity:1;" d="M 5.699219 6.300781 L 5.699219 10.5 L 6.300781 10.5 L 6.300781 6.300781 L 7.800781 6.300781 L 6 4.5 L 4.199219 6.300781 Z M 5.699219 6.300781 "/>
</g>
</svg>
