<?xml version="1.0" encoding="UTF-8"?>
<svg xmlns="http://www.w3.org/2000/svg" xmlns:xlink="http://www.w3.org/1999/xlink" width="24pt" height="24pt" viewBox="0 0 24 24" version="1.1">
<g id="surface11448">
<path style=" stroke:none;fill-rule:nonzero;fill:rgb(54.509807%,71.764708%,94.117647%);fill-opacity:1;" d="M 1.5 0.898438 L 17.101562 0.898438 L 17.101562 20.101562 L 1.5 20.101562 Z M 1.5 0.898438 "/>
<path style=" stroke:none;fill-rule:nonzero;fill:rgb(30.588236%,47.843137%,70.980394%);fill-opacity:1;" d="M 16.800781 1.199219 L 16.800781 19.800781 L 1.800781 19.800781 L 1.800781 1.199219 L 16.800781 1.199219 M 17.398438 0.601562 L 1.199219 0.601562 L 1.199219 20.398438 L 17.398438 20.398438 Z M 17.398438 0.601562 "/>
<path style=" stroke:none;fill-rule:nonzero;fill:rgb(30.588236%,47.843137%,70.980394%);fill-opacity:1;" d="M 4.199219 1.800781 L 4.800781 1.800781 L 4.800781 2.398438 L 4.199219 2.398438 Z M 4.199219 3 L 4.800781 3 L 4.800781 3.601562 L 4.199219 3.601562 Z M 4.199219 4.199219 L 4.800781 4.199219 L 4.800781 4.800781 L 4.199219 4.800781 Z M 4.199219 5.398438 L 4.800781 5.398438 L 4.800781 6 L 4.199219 6 Z M 4.199219 6.601562 L 4.800781 6.601562 L 4.800781 7.199219 L 4.199219 7.199219 Z M 4.199219 7.800781 L 4.800781 7.800781 L 4.800781 8.398438 L 4.199219 8.398438 Z M 4.199219 9 L 4.800781 9 L 4.800781 9.601562 L 4.199219 9.601562 Z M 4.199219 10.199219 L 4.800781 10.199219 L 4.800781 10.800781 L 4.199219 10.800781 Z M 6.601562 1.800781 L 7.199219 1.800781 L 7.199219 2.398438 L 6.601562 2.398438 Z M 6.601562 4.199219 L 7.199219 4.199219 L 7.199219 4.800781 L 6.601562 4.800781 Z M 6.601562 5.398438 L 7.199219 5.398438 L 7.199219 6 L 6.601562 6 Z M 6.601562 6.601562 L 7.199219 6.601562 L 7.199219 7.199219 L 6.601562 7.199219 Z M 6.601562 7.800781 L 7.199219 7.800781 L 7.199219 8.398438 L 6.601562 8.398438 Z M 6.601562 9 L 7.199219 9 L 7.199219 9.601562 L 6.601562 9.601562 Z M 6.601562 10.199219 L 7.199219 10.199219 L 7.199219 10.800781 L 6.601562 10.800781 Z M 9 1.800781 L 9.601562 1.800781 L 9.601562 2.398438 L 9 2.398438 Z M 9 4.199219 L 9.601562 4.199219 L 9.601562 4.800781 L 9 4.800781 Z M 9 5.398438 L 9.601562 5.398438 L 9.601562 6 L 9 6 Z M 9 6.601562 L 9.601562 6.601562 L 9.601562 7.199219 L 9 7.199219 Z M 9 7.800781 L 9.601562 7.800781 L 9.601562 8.398438 L 9 8.398438 Z M 9 9 L 9.601562 9 L 9.601562 9.601562 L 9 9.601562 Z M 9 10.199219 L 9.601562 10.199219 L 9.601562 10.800781 L 9 10.800781 Z M 11.398438 1.800781 L 12 1.800781 L 12 2.398438 L 11.398438 2.398438 Z M 11.398438 4.199219 L 12 4.199219 L 12 4.800781 L 11.398438 4.800781 Z M 11.398438 5.398438 L 12 5.398438 L 12 6 L 11.398438 6 Z M 11.398438 6.601562 L 12 6.601562 L 12 7.199219 L 11.398438 7.199219 Z M 11.398438 7.800781 L 12 7.800781 L 12 8.398438 L 11.398438 8.398438 Z M 11.398438 9 L 12 9 L 12 9.601562 L 11.398438 9.601562 Z M 11.398438 10.199219 L 12 10.199219 L 12 10.800781 L 11.398438 10.800781 Z M 13.800781 1.800781 L 14.398438 1.800781 L 14.398438 2.398438 L 13.800781 2.398438 Z M 13.800781 4.199219 L 14.398438 4.199219 L 14.398438 4.800781 L 13.800781 4.800781 Z M 13.800781 5.398438 L 14.398438 5.398438 L 14.398438 6 L 13.800781 6 Z M 13.800781 6.601562 L 14.398438 6.601562 L 14.398438 7.199219 L 13.800781 7.199219 Z M 13.800781 7.800781 L 14.398438 7.800781 L 14.398438 8.398438 L 13.800781 8.398438 Z M 13.800781 9 L 14.398438 9 L 14.398438 9.601562 L 13.800781 9.601562 Z M 13.800781 10.199219 L 14.398438 10.199219 L 14.398438 10.800781 L 13.800781 10.800781 Z M 14.398438 11.398438 L 15 11.398438 L 15 12 L 14.398438 12 Z M 3 3 L 3.601562 3 L 3.601562 3.601562 L 3 3.601562 Z M 7.800781 3 L 8.398438 3 L 8.398438 3.601562 L 7.800781 3.601562 Z M 6.601562 3 L 7.199219 3 L 7.199219 3.601562 L 6.601562 3.601562 Z M 5.398438 3 L 6 3 L 6 3.601562 L 5.398438 3.601562 Z M 11.398438 3 L 12 3 L 12 3.601562 L 11.398438 3.601562 Z M 10.199219 3 L 10.800781 3 L 10.800781 3.601562 L 10.199219 3.601562 Z M 9 3 L 9.601562 3 L 9.601562 3.601562 L 9 3.601562 Z M 15 3 L 15.601562 3 L 15.601562 3.601562 L 15 3.601562 Z M 13.800781 3 L 14.398438 3 L 14.398438 3.601562 L 13.800781 3.601562 Z M 12.601562 3 L 13.199219 3 L 13.199219 3.601562 L 12.601562 3.601562 Z M 4.199219 11.398438 L 4.800781 11.398438 L 4.800781 12 L 4.199219 12 Z M 4.199219 12.601562 L 4.800781 12.601562 L 4.800781 13.199219 L 4.199219 13.199219 Z M 6.601562 11.398438 L 7.199219 11.398438 L 7.199219 12 L 6.601562 12 Z M 9 11.398438 L 9.601562 11.398438 L 9.601562 12 L 9 12 Z M 11.398438 11.398438 L 12 11.398438 L 12 12 L 11.398438 12 Z M 13.800781 11.398438 L 14.398438 11.398438 L 14.398438 12 L 13.800781 12 Z M 3 12.601562 L 3.601562 12.601562 L 3.601562 13.199219 L 3 13.199219 Z M 7.800781 12.601562 L 8.398438 12.601562 L 8.398438 13.199219 L 7.800781 13.199219 Z M 6.601562 12.601562 L 7.199219 12.601562 L 7.199219 13.199219 L 6.601562 13.199219 Z M 5.398438 12.601562 L 6 12.601562 L 6 13.199219 L 5.398438 13.199219 Z M 11.398438 12.601562 L 12 12.601562 L 12 13.199219 L 11.398438 13.199219 Z M 10.199219 12.601562 L 10.800781 12.601562 L 10.800781 13.199219 L 10.199219 13.199219 Z M 9 12.601562 L 9.601562 12.601562 L 9.601562 13.199219 L 9 13.199219 Z M 15 12.601562 L 15.601562 12.601562 L 15.601562 13.199219 L 15 13.199219 Z M 13.800781 12.601562 L 14.398438 12.601562 L 14.398438 13.199219 L 13.800781 13.199219 Z M 12.601562 12.601562 L 13.199219 12.601562 L 13.199219 13.199219 L 12.601562 13.199219 Z M 3 5.398438 L 3.601562 5.398438 L 3.601562 6 L 3 6 Z M 7.800781 5.398438 L 8.398438 5.398438 L 8.398438 6 L 7.800781 6 Z M 5.398438 5.398438 L 6 5.398438 L 6 6 L 5.398438 6 Z M 10.199219 5.398438 L 10.800781 5.398438 L 10.800781 6 L 10.199219 6 Z M 15 5.398438 L 15.601562 5.398438 L 15.601562 6 L 15 6 Z M 12.601562 5.398438 L 13.199219 5.398438 L 13.199219 6 L 12.601562 6 Z M 3 7.800781 L 3.601562 7.800781 L 3.601562 8.398438 L 3 8.398438 Z M 7.800781 7.800781 L 8.398438 7.800781 L 8.398438 8.398438 L 7.800781 8.398438 Z M 5.398438 7.800781 L 6 7.800781 L 6 8.398438 L 5.398438 8.398438 Z M 10.199219 7.800781 L 10.800781 7.800781 L 10.800781 8.398438 L 10.199219 8.398438 Z M 15 7.800781 L 15.601562 7.800781 L 15.601562 8.398438 L 15 8.398438 Z M 12.601562 7.800781 L 13.199219 7.800781 L 13.199219 8.398438 L 12.601562 8.398438 Z M 3 10.199219 L 3.601562 10.199219 L 3.601562 10.800781 L 3 10.800781 Z M 7.800781 10.199219 L 8.398438 10.199219 L 8.398438 10.800781 L 7.800781 10.800781 Z M 5.398438 10.199219 L 6 10.199219 L 6 10.800781 L 5.398438 10.800781 Z M 10.199219 10.199219 L 10.800781 10.199219 L 10.800781 10.800781 L 10.199219 10.800781 Z M 15 10.199219 L 15.601562 10.199219 L 15.601562 10.800781 L 15 10.800781 Z M 12.601562 10.199219 L 13.199219 10.199219 L 13.199219 10.800781 L 12.601562 10.800781 Z M 4.199219 13.800781 L 4.800781 13.800781 L 4.800781 14.398438 L 4.199219 14.398438 Z M 4.199219 15 L 4.800781 15 L 4.800781 15.601562 L 4.199219 15.601562 Z M 6.601562 13.800781 L 7.199219 13.800781 L 7.199219 14.398438 L 6.601562 14.398438 Z M 9 13.800781 L 9.601562 13.800781 L 9.601562 14.398438 L 9 14.398438 Z M 11.398438 13.800781 L 12 13.800781 L 12 14.398438 L 11.398438 14.398438 Z M 13.800781 13.800781 L 14.398438 13.800781 L 14.398438 14.398438 L 13.800781 14.398438 Z M 3 15 L 3.601562 15 L 3.601562 15.601562 L 3 15.601562 Z M 7.800781 15 L 8.398438 15 L 8.398438 15.601562 L 7.800781 15.601562 Z M 6.601562 15 L 7.199219 15 L 7.199219 15.601562 L 6.601562 15.601562 Z M 5.398438 15 L 6 15 L 6 15.601562 L 5.398438 15.601562 Z M 11.398438 15 L 12 15 L 12 15.601562 L 11.398438 15.601562 Z M 10.199219 15 L 10.800781 15 L 10.800781 15.601562 L 10.199219 15.601562 Z M 9 15 L 9.601562 15 L 9.601562 15.601562 L 9 15.601562 Z M 15 15 L 15.601562 15 L 15.601562 15.601562 L 15 15.601562 Z M 13.800781 15 L 14.398438 15 L 14.398438 15.601562 L 13.800781 15.601562 Z M 12.601562 15 L 13.199219 15 L 13.199219 15.601562 L 12.601562 15.601562 Z M 4.199219 16.199219 L 4.800781 16.199219 L 4.800781 16.800781 L 4.199219 16.800781 Z M 4.199219 17.398438 L 4.800781 17.398438 L 4.800781 18 L 4.199219 18 Z M 6.601562 16.199219 L 7.199219 16.199219 L 7.199219 16.800781 L 6.601562 16.800781 Z M 9 16.199219 L 9.601562 16.199219 L 9.601562 16.800781 L 9 16.800781 Z M 11.398438 16.199219 L 12 16.199219 L 12 16.800781 L 11.398438 16.800781 Z M 13.800781 16.199219 L 14.398438 16.199219 L 14.398438 16.800781 L 13.800781 16.800781 Z M 4.199219 18.601562 L 4.800781 18.601562 L 4.800781 19.199219 L 4.199219 19.199219 Z M 6.601562 18.601562 L 7.199219 18.601562 L 7.199219 19.199219 L 6.601562 19.199219 Z M 9 18.601562 L 9.601562 18.601562 L 9.601562 19.199219 L 9 19.199219 Z M 11.398438 18.601562 L 12 18.601562 L 12 19.199219 L 11.398438 19.199219 Z M 13.800781 18.601562 L 14.398438 18.601562 L 14.398438 19.199219 L 13.800781 19.199219 Z M 3 17.398438 L 3.601562 17.398438 L 3.601562 18 L 3 18 Z M 7.800781 17.398438 L 8.398438 17.398438 L 8.398438 18 L 7.800781 18 Z M 6.601562 17.398438 L 7.199219 17.398438 L 7.199219 18 L 6.601562 18 Z M 5.398438 17.398438 L 6 17.398438 L 6 18 L 5.398438 18 Z M 11.398438 17.398438 L 12 17.398438 L 12 18 L 11.398438 18 Z M 10.199219 17.398438 L 10.800781 17.398438 L 10.800781 18 L 10.199219 18 Z M 9 17.398438 L 9.601562 17.398438 L 9.601562 18 L 9 18 Z M 15 17.398438 L 15.601562 17.398438 L 15.601562 18 L 15 18 Z M 13.800781 17.398438 L 14.398438 17.398438 L 14.398438 18 L 13.800781 18 Z M 12.601562 17.398438 L 13.199219 17.398438 L 13.199219 18 L 12.601562 18 Z M 12.601562 17.398438 "/>
<path style=" stroke:none;fill-rule:nonzero;fill:rgb(100%,76.862746%,61.176473%);fill-opacity:1;" d="M 22.375 11.398438 L 10.800781 22.976562 L 7.023438 19.199219 L 18.601562 7.625 Z M 22.375 11.398438 "/>
<path style=" stroke:none;fill-rule:nonzero;fill:rgb(58.823532%,47.843137%,26.666668%);fill-opacity:1;" d="M 18.601562 8.046875 L 21.953125 11.398438 L 10.800781 22.550781 L 7.449219 19.199219 L 18.601562 8.046875 M 18.601562 7.199219 L 6.601562 19.199219 L 10.800781 23.398438 L 22.800781 11.398438 Z M 18.601562 7.199219 "/>
<path style="fill:none;stroke-width:1;stroke-linecap:butt;stroke-linejoin:miter;stroke:rgb(58.823532%,47.843137%,26.666668%);stroke-opacity:1;stroke-miterlimit:10;" d="M 23.001302 23.997396 L 21.002604 21.998698 M 21.998698 28.001302 L 18.997396 25 M 16.998698 33.001302 L 13.997396 30 M 18.001302 28.997396 L 16.002604 26.998698 M 31.998698 18.001302 L 28.997396 15 M 28.001302 18.997396 L 26.002604 16.998698 M 26.998698 23.001302 L 23.997396 20 " transform="matrix(0.6,0,0,0.6,0,0)"/>
</g>
</svg>
