<?xml version="1.0" encoding="UTF-8"?>
<svg xmlns="http://www.w3.org/2000/svg" xmlns:xlink="http://www.w3.org/1999/xlink" width="30pt" height="30pt" viewBox="0 0 30 30" version="1.1">
<g id="surface16954">
<path style=" stroke:none;fill-rule:nonzero;fill:rgb(54.509807%,71.764708%,94.117647%);fill-opacity:1;" d="M 1.875 1.125 L 21.375 1.125 L 21.375 25.125 L 1.875 25.125 Z M 1.875 1.125 "/>
<path style=" stroke:none;fill-rule:nonzero;fill:rgb(30.588236%,47.843137%,70.980394%);fill-opacity:1;" d="M 21 1.5 L 21 24.75 L 2.25 24.75 L 2.25 1.5 L 21 1.5 M 21.75 0.75 L 1.5 0.75 L 1.5 25.5 L 21.75 25.5 Z M 21.75 0.75 "/>
<path style=" stroke:none;fill-rule:nonzero;fill:rgb(30.588236%,47.843137%,70.980394%);fill-opacity:1;" d="M 5.25 2.25 L 6 2.25 L 6 3 L 5.25 3 Z M 5.25 3.75 L 6 3.75 L 6 4.5 L 5.25 4.5 Z M 5.25 5.25 L 6 5.25 L 6 6 L 5.25 6 Z M 5.25 6.75 L 6 6.75 L 6 7.5 L 5.25 7.5 Z M 5.25 8.25 L 6 8.25 L 6 9 L 5.25 9 Z M 5.25 9.75 L 6 9.75 L 6 10.5 L 5.25 10.5 Z M 5.25 11.25 L 6 11.25 L 6 12 L 5.25 12 Z M 5.25 12.75 L 6 12.75 L 6 13.5 L 5.25 13.5 Z M 8.25 2.25 L 9 2.25 L 9 3 L 8.25 3 Z M 8.25 5.25 L 9 5.25 L 9 6 L 8.25 6 Z M 8.25 6.75 L 9 6.75 L 9 7.5 L 8.25 7.5 Z M 8.25 8.25 L 9 8.25 L 9 9 L 8.25 9 Z M 8.25 9.75 L 9 9.75 L 9 10.5 L 8.25 10.5 Z M 8.25 11.25 L 9 11.25 L 9 12 L 8.25 12 Z M 8.25 12.75 L 9 12.75 L 9 13.5 L 8.25 13.5 Z M 11.25 2.25 L 12 2.25 L 12 3 L 11.25 3 Z M 11.25 5.25 L 12 5.25 L 12 6 L 11.25 6 Z M 11.25 6.75 L 12 6.75 L 12 7.5 L 11.25 7.5 Z M 11.25 8.25 L 12 8.25 L 12 9 L 11.25 9 Z M 11.25 9.75 L 12 9.75 L 12 10.5 L 11.25 10.5 Z M 11.25 11.25 L 12 11.25 L 12 12 L 11.25 12 Z M 11.25 12.75 L 12 12.75 L 12 13.5 L 11.25 13.5 Z M 14.25 2.25 L 15 2.25 L 15 3 L 14.25 3 Z M 14.25 5.25 L 15 5.25 L 15 6 L 14.25 6 Z M 14.25 6.75 L 15 6.75 L 15 7.5 L 14.25 7.5 Z M 14.25 8.25 L 15 8.25 L 15 9 L 14.25 9 Z M 14.25 9.75 L 15 9.75 L 15 10.5 L 14.25 10.5 Z M 14.25 11.25 L 15 11.25 L 15 12 L 14.25 12 Z M 14.25 12.75 L 15 12.75 L 15 13.5 L 14.25 13.5 Z M 17.25 2.25 L 18 2.25 L 18 3 L 17.25 3 Z M 17.25 5.25 L 18 5.25 L 18 6 L 17.25 6 Z M 17.25 6.75 L 18 6.75 L 18 7.5 L 17.25 7.5 Z M 17.25 8.25 L 18 8.25 L 18 9 L 17.25 9 Z M 17.25 9.75 L 18 9.75 L 18 10.5 L 17.25 10.5 Z M 17.25 11.25 L 18 11.25 L 18 12 L 17.25 12 Z M 17.25 12.75 L 18 12.75 L 18 13.5 L 17.25 13.5 Z M 18 14.25 L 18.75 14.25 L 18.75 15 L 18 15 Z M 3.75 3.75 L 4.5 3.75 L 4.5 4.5 L 3.75 4.5 Z M 9.75 3.75 L 10.5 3.75 L 10.5 4.5 L 9.75 4.5 Z M 8.25 3.75 L 9 3.75 L 9 4.5 L 8.25 4.5 Z M 6.75 3.75 L 7.5 3.75 L 7.5 4.5 L 6.75 4.5 Z M 14.25 3.75 L 15 3.75 L 15 4.5 L 14.25 4.5 Z M 12.75 3.75 L 13.5 3.75 L 13.5 4.5 L 12.75 4.5 Z M 11.25 3.75 L 12 3.75 L 12 4.5 L 11.25 4.5 Z M 18.75 3.75 L 19.5 3.75 L 19.5 4.5 L 18.75 4.5 Z M 17.25 3.75 L 18 3.75 L 18 4.5 L 17.25 4.5 Z M 15.75 3.75 L 16.5 3.75 L 16.5 4.5 L 15.75 4.5 Z M 5.25 14.25 L 6 14.25 L 6 15 L 5.25 15 Z M 5.25 15.75 L 6 15.75 L 6 16.5 L 5.25 16.5 Z M 8.25 14.25 L 9 14.25 L 9 15 L 8.25 15 Z M 11.25 14.25 L 12 14.25 L 12 15 L 11.25 15 Z M 14.25 14.25 L 15 14.25 L 15 15 L 14.25 15 Z M 17.25 14.25 L 18 14.25 L 18 15 L 17.25 15 Z M 3.75 15.75 L 4.5 15.75 L 4.5 16.5 L 3.75 16.5 Z M 9.75 15.75 L 10.5 15.75 L 10.5 16.5 L 9.75 16.5 Z M 8.25 15.75 L 9 15.75 L 9 16.5 L 8.25 16.5 Z M 6.75 15.75 L 7.5 15.75 L 7.5 16.5 L 6.75 16.5 Z M 14.25 15.75 L 15 15.75 L 15 16.5 L 14.25 16.5 Z M 12.75 15.75 L 13.5 15.75 L 13.5 16.5 L 12.75 16.5 Z M 11.25 15.75 L 12 15.75 L 12 16.5 L 11.25 16.5 Z M 18.75 15.75 L 19.5 15.75 L 19.5 16.5 L 18.75 16.5 Z M 17.25 15.75 L 18 15.75 L 18 16.5 L 17.25 16.5 Z M 15.75 15.75 L 16.5 15.75 L 16.5 16.5 L 15.75 16.5 Z M 3.75 6.75 L 4.5 6.75 L 4.5 7.5 L 3.75 7.5 Z M 9.75 6.75 L 10.5 6.75 L 10.5 7.5 L 9.75 7.5 Z M 6.75 6.75 L 7.5 6.75 L 7.5 7.5 L 6.75 7.5 Z M 12.75 6.75 L 13.5 6.75 L 13.5 7.5 L 12.75 7.5 Z M 18.75 6.75 L 19.5 6.75 L 19.5 7.5 L 18.75 7.5 Z M 15.75 6.75 L 16.5 6.75 L 16.5 7.5 L 15.75 7.5 Z M 3.75 9.75 L 4.5 9.75 L 4.5 10.5 L 3.75 10.5 Z M 9.75 9.75 L 10.5 9.75 L 10.5 10.5 L 9.75 10.5 Z M 6.75 9.75 L 7.5 9.75 L 7.5 10.5 L 6.75 10.5 Z M 12.75 9.75 L 13.5 9.75 L 13.5 10.5 L 12.75 10.5 Z M 18.75 9.75 L 19.5 9.75 L 19.5 10.5 L 18.75 10.5 Z M 15.75 9.75 L 16.5 9.75 L 16.5 10.5 L 15.75 10.5 Z M 3.75 12.75 L 4.5 12.75 L 4.5 13.5 L 3.75 13.5 Z M 9.75 12.75 L 10.5 12.75 L 10.5 13.5 L 9.75 13.5 Z M 6.75 12.75 L 7.5 12.75 L 7.5 13.5 L 6.75 13.5 Z M 12.75 12.75 L 13.5 12.75 L 13.5 13.5 L 12.75 13.5 Z M 18.75 12.75 L 19.5 12.75 L 19.5 13.5 L 18.75 13.5 Z M 15.75 12.75 L 16.5 12.75 L 16.5 13.5 L 15.75 13.5 Z M 5.25 17.25 L 6 17.25 L 6 18 L 5.25 18 Z M 5.25 18.75 L 6 18.75 L 6 19.5 L 5.25 19.5 Z M 8.25 17.25 L 9 17.25 L 9 18 L 8.25 18 Z M 11.25 17.25 L 12 17.25 L 12 18 L 11.25 18 Z M 14.25 17.25 L 15 17.25 L 15 18 L 14.25 18 Z M 17.25 17.25 L 18 17.25 L 18 18 L 17.25 18 Z M 3.75 18.75 L 4.5 18.75 L 4.5 19.5 L 3.75 19.5 Z M 9.75 18.75 L 10.5 18.75 L 10.5 19.5 L 9.75 19.5 Z M 8.25 18.75 L 9 18.75 L 9 19.5 L 8.25 19.5 Z M 6.75 18.75 L 7.5 18.75 L 7.5 19.5 L 6.75 19.5 Z M 14.25 18.75 L 15 18.75 L 15 19.5 L 14.25 19.5 Z M 12.75 18.75 L 13.5 18.75 L 13.5 19.5 L 12.75 19.5 Z M 11.25 18.75 L 12 18.75 L 12 19.5 L 11.25 19.5 Z M 18.75 18.75 L 19.5 18.75 L 19.5 19.5 L 18.75 19.5 Z M 17.25 18.75 L 18 18.75 L 18 19.5 L 17.25 19.5 Z M 15.75 18.75 L 16.5 18.75 L 16.5 19.5 L 15.75 19.5 Z M 5.25 20.25 L 6 20.25 L 6 21 L 5.25 21 Z M 5.25 21.75 L 6 21.75 L 6 22.5 L 5.25 22.5 Z M 8.25 20.25 L 9 20.25 L 9 21 L 8.25 21 Z M 11.25 20.25 L 12 20.25 L 12 21 L 11.25 21 Z M 14.25 20.25 L 15 20.25 L 15 21 L 14.25 21 Z M 17.25 20.25 L 18 20.25 L 18 21 L 17.25 21 Z M 5.25 23.25 L 6 23.25 L 6 24 L 5.25 24 Z M 8.25 23.25 L 9 23.25 L 9 24 L 8.25 24 Z M 11.25 23.25 L 12 23.25 L 12 24 L 11.25 24 Z M 14.25 23.25 L 15 23.25 L 15 24 L 14.25 24 Z M 17.25 23.25 L 18 23.25 L 18 24 L 17.25 24 Z M 3.75 21.75 L 4.5 21.75 L 4.5 22.5 L 3.75 22.5 Z M 9.75 21.75 L 10.5 21.75 L 10.5 22.5 L 9.75 22.5 Z M 8.25 21.75 L 9 21.75 L 9 22.5 L 8.25 22.5 Z M 6.75 21.75 L 7.5 21.75 L 7.5 22.5 L 6.75 22.5 Z M 14.25 21.75 L 15 21.75 L 15 22.5 L 14.25 22.5 Z M 12.75 21.75 L 13.5 21.75 L 13.5 22.5 L 12.75 22.5 Z M 11.25 21.75 L 12 21.75 L 12 22.5 L 11.25 22.5 Z M 18.75 21.75 L 19.5 21.75 L 19.5 22.5 L 18.75 22.5 Z M 17.25 21.75 L 18 21.75 L 18 22.5 L 17.25 22.5 Z M 15.75 21.75 L 16.5 21.75 L 16.5 22.5 L 15.75 22.5 Z M 15.75 21.75 "/>
<path style=" stroke:none;fill-rule:nonzero;fill:rgb(100%,76.862746%,61.176473%);fill-opacity:1;" d="M 27.96875 14.25 L 13.5 28.71875 L 8.78125 24 L 23.25 9.53125 Z M 27.96875 14.25 "/>
<path style=" stroke:none;fill-rule:nonzero;fill:rgb(58.823532%,47.843137%,26.666668%);fill-opacity:1;" d="M 23.25 10.058594 L 27.441406 14.25 L 13.5 28.191406 L 9.308594 24 L 23.25 10.058594 M 23.25 9 L 8.25 24 L 13.5 29.25 L 28.5 14.25 Z M 23.25 9 "/>
<path style="fill:none;stroke-width:1;stroke-linecap:butt;stroke-linejoin:miter;stroke:rgb(58.823532%,47.843137%,26.666668%);stroke-opacity:1;stroke-miterlimit:10;" d="M 23 24 L 21 22 M 22 28 L 19 25 M 17 33 L 14 30 M 18 29 L 16 27 M 32 18 L 29 15 M 28 19 L 26 17 M 27 23 L 24 20 " transform="matrix(0.75,0,0,0.75,0,0)"/>
</g>
</svg>
