<?xml version="1.0" encoding="UTF-8"?>
<svg xmlns="http://www.w3.org/2000/svg" xmlns:xlink="http://www.w3.org/1999/xlink" width="30pt" height="30pt" viewBox="0 0 30 30" version="1.1">
<g id="surface185">
<path style=" stroke:none;fill-rule:nonzero;fill:rgb(100%,100%,100%);fill-opacity:1;" d="M 3.375 4.875 L 28.875 4.875 L 28.875 28.875 L 3.375 28.875 Z M 3.375 4.875 "/>
<path style=" stroke:none;fill-rule:nonzero;fill:rgb(47.058824%,54.509807%,61.176473%);fill-opacity:1;" d="M 28.5 5.25 L 28.5 28.5 L 3.75 28.5 L 3.75 5.25 L 28.5 5.25 M 29.25 4.5 L 3 4.5 L 3 29.25 L 29.25 29.25 Z M 29.25 4.5 "/>
<path style=" stroke:none;fill-rule:nonzero;fill:rgb(96.862745%,56.078434%,56.078434%);fill-opacity:1;" d="M 3.375 4.875 L 28.875 4.875 L 28.875 9.375 L 3.375 9.375 Z M 3.375 4.875 "/>
<path style=" stroke:none;fill-rule:nonzero;fill:rgb(78.039217%,26.274511%,26.274511%);fill-opacity:1;" d="M 28.5 5.25 L 28.5 9 L 3.75 9 L 3.75 5.25 L 28.5 5.25 M 29.25 4.5 L 3 4.5 L 3 9.75 L 29.25 9.75 Z M 29.25 4.5 "/>
<path style=" stroke:none;fill-rule:nonzero;fill:rgb(77.254903%,83.137256%,87.058824%);fill-opacity:1;" d="M 22.5 12.75 L 24.75 12.75 L 24.75 15 L 22.5 15 Z M 18.75 12.75 L 21 12.75 L 21 15 L 18.75 15 Z M 15 12.75 L 17.25 12.75 L 17.25 15 L 15 15 Z M 11.25 12.75 L 13.5 12.75 L 13.5 15 L 11.25 15 Z M 22.5 16.5 L 24.75 16.5 L 24.75 18.75 L 22.5 18.75 Z M 18.75 16.5 L 21 16.5 L 21 18.75 L 18.75 18.75 Z M 15 16.5 L 17.25 16.5 L 17.25 18.75 L 15 18.75 Z M 11.25 16.5 L 13.5 16.5 L 13.5 18.75 L 11.25 18.75 Z M 7.5 16.5 L 9.75 16.5 L 9.75 18.75 L 7.5 18.75 Z M 18.75 20.25 L 21 20.25 L 21 22.5 L 18.75 22.5 Z M 15 20.25 L 17.25 20.25 L 17.25 22.5 L 15 22.5 Z M 11.25 20.25 L 13.5 20.25 L 13.5 22.5 L 11.25 22.5 Z M 7.5 20.25 L 9.75 20.25 L 9.75 22.5 L 7.5 22.5 Z M 7.5 20.25 "/>
<path style=" stroke:none;fill-rule:nonzero;fill:rgb(88.235295%,92.156863%,94.901961%);fill-opacity:1;" d="M 3.75 26.25 L 28.5 26.25 L 28.5 28.5 L 3.75 28.5 Z M 3.75 26.25 "/>
<path style=" stroke:none;fill-rule:nonzero;fill:rgb(54.509807%,71.764708%,94.117647%);fill-opacity:1;" d="M 8.625 16.125 C 4.488281 16.125 1.125 12.761719 1.125 8.625 C 1.125 4.488281 4.488281 1.125 8.625 1.125 C 12.761719 1.125 16.125 4.488281 16.125 8.625 C 16.125 12.761719 12.761719 16.125 8.625 16.125 Z M 8.625 16.125 "/>
<path style=" stroke:none;fill-rule:nonzero;fill:rgb(30.588236%,47.843137%,70.980394%);fill-opacity:1;" d="M 8.625 1.5 C 12.554688 1.5 15.75 4.695312 15.75 8.625 C 15.75 12.554688 12.554688 15.75 8.625 15.75 C 4.695312 15.75 1.5 12.554688 1.5 8.625 C 1.5 4.695312 4.695312 1.5 8.625 1.5 M 8.625 0.75 C 4.277344 0.75 0.75 4.277344 0.75 8.625 C 0.75 12.972656 4.277344 16.5 8.625 16.5 C 12.972656 16.5 16.5 12.972656 16.5 8.625 C 16.5 4.277344 12.972656 0.75 8.625 0.75 Z M 8.625 0.75 "/>
<path style=" stroke:none;fill-rule:nonzero;fill:rgb(100%,100%,100%);fill-opacity:1;" d="M 8.625 3 C 5.519531 3 3 5.519531 3 8.625 C 3 11.730469 5.519531 14.25 8.625 14.25 C 11.730469 14.25 14.25 11.730469 14.25 8.625 C 14.25 5.519531 11.730469 3 8.625 3 Z M 8.625 3 "/>
<path style=" stroke:none;fill-rule:nonzero;fill:rgb(21.176471%,25.098041%,30.19608%);fill-opacity:1;" d="M 8.625 7.6875 C 8.105469 7.6875 7.6875 8.105469 7.6875 8.625 C 7.6875 9.144531 8.105469 9.5625 8.625 9.5625 C 9.144531 9.5625 9.5625 9.144531 9.5625 8.625 C 9.5625 8.105469 9.144531 7.6875 8.625 7.6875 Z M 8.625 7.6875 "/>
<path style="fill:none;stroke-width:1;stroke-linecap:butt;stroke-linejoin:miter;stroke:rgb(21.176471%,25.098041%,30.19608%);stroke-opacity:1;stroke-miterlimit:10;" d="M 14.5 15.25 L 11.5 11.5 L 13.75 5.5 " transform="matrix(0.75,0,0,0.75,0,0)"/>
</g>
</svg>
