<?xml version="1.0" encoding="UTF-8"?>
<svg xmlns="http://www.w3.org/2000/svg" xmlns:xlink="http://www.w3.org/1999/xlink" width="30pt" height="30pt" viewBox="0 0 30 30" version="1.1">
<g id="surface118">
<path style=" stroke:none;fill-rule:nonzero;fill:rgb(88.235295%,92.156863%,94.901961%);fill-opacity:1;" d="M 6.375 0.375 L 23.625 0.375 L 23.625 28.125 L 6.375 28.125 Z M 6.375 0.375 "/>
<path style=" stroke:none;fill-rule:nonzero;fill:rgb(40.000001%,47.450981%,56.078434%);fill-opacity:1;" d="M 23.25 0.75 L 23.25 27.75 L 6.75 27.75 L 6.75 0.75 L 23.25 0.75 M 24 0 L 6 0 L 6 28.5 L 24 28.5 Z M 24 0 "/>
<path style=" stroke:none;fill-rule:nonzero;fill:rgb(69.01961%,75.686276%,83.137256%);fill-opacity:1;" d="M 9.375 3.375 L 20.625 3.375 L 20.625 16.875 L 9.375 16.875 Z M 9.375 3.375 "/>
<path style=" stroke:none;fill-rule:nonzero;fill:rgb(40.000001%,47.450981%,56.078434%);fill-opacity:1;" d="M 20.25 3.75 L 20.25 16.5 L 9.75 16.5 L 9.75 3.75 L 20.25 3.75 M 21 3 L 9 3 L 9 17.25 L 21 17.25 Z M 21 3 "/>
<path style=" stroke:none;fill-rule:nonzero;fill:rgb(40.000001%,47.450981%,56.078434%);fill-opacity:1;" d="M 21 7.5 L 21 8.25 L 9 8.25 L 9 7.5 Z M 21 7.5 "/>
<path style=" stroke:none;fill-rule:nonzero;fill:rgb(40.000001%,47.450981%,56.078434%);fill-opacity:1;" d="M 21 12 L 21 12.75 L 9 12.75 L 9 12 Z M 21 12 "/>
<path style=" stroke:none;fill-rule:nonzero;fill:rgb(100%,100%,100%);fill-opacity:1;" d="M 18.75 9.75 L 18.75 10.5 L 16.5 10.5 L 16.5 9.75 Z M 18.75 9.75 "/>
<path style=" stroke:none;fill-rule:nonzero;fill:rgb(100%,100%,100%);fill-opacity:1;" d="M 18.75 14.25 L 18.75 15 L 16.5 15 L 16.5 14.25 Z M 18.75 14.25 "/>
<path style=" stroke:none;fill-rule:nonzero;fill:rgb(100%,100%,100%);fill-opacity:1;" d="M 18.75 5.25 L 18.75 6 L 16.5 6 L 16.5 5.25 Z M 18.75 5.25 "/>
<path style=" stroke:none;fill-rule:nonzero;fill:rgb(54.509807%,71.764708%,94.117647%);fill-opacity:1;" d="M 15 19.875 C 13.964844 19.875 13.125 20.714844 13.125 21.75 C 13.125 22.785156 13.964844 23.625 15 23.625 C 16.035156 23.625 16.875 22.785156 16.875 21.75 C 16.875 20.714844 16.035156 19.875 15 19.875 Z M 15 19.875 "/>
<path style=" stroke:none;fill-rule:nonzero;fill:rgb(30.588236%,47.843137%,70.980394%);fill-opacity:1;" d="M 15 20.25 C 15.828125 20.25 16.5 20.921875 16.5 21.75 C 16.5 22.578125 15.828125 23.25 15 23.25 C 14.171875 23.25 13.5 22.578125 13.5 21.75 C 13.5 20.921875 14.171875 20.25 15 20.25 M 15 19.5 C 13.757812 19.5 12.75 20.507812 12.75 21.75 C 12.75 22.992188 13.757812 24 15 24 C 16.242188 24 17.25 22.992188 17.25 21.75 C 17.25 20.507812 16.242188 19.5 15 19.5 Z M 15 19.5 "/>
<path style=" stroke:none;fill-rule:nonzero;fill:rgb(86.274511%,83.529413%,94.901961%);fill-opacity:1;" d="M 24.617188 17.691406 C 21.976562 17.75 19.761719 18.589844 19.785156 19.53125 L 19.964844 27.601562 C 19.988281 28.722656 22.238281 29.476562 24.882812 29.417969 C 27.523438 29.359375 29.738281 28.507812 29.710938 27.382812 L 29.53125 19.316406 C 29.511719 18.375 27.261719 17.632812 24.617188 17.691406 Z M 24.617188 17.691406 "/>
<path style=" stroke:none;fill-rule:nonzero;fill:rgb(54.509807%,45.882353%,63.137257%);fill-opacity:1;" d="M 24.75 21.464844 C 22.203125 21.464844 19.5 20.726562 19.5 19.351562 C 19.5 17.976562 22.203125 17.234375 24.75 17.234375 C 27.296875 17.234375 30 17.976562 30 19.351562 C 30 20.726562 27.296875 21.464844 24.75 21.464844 Z M 24.75 17.984375 C 22.042969 17.984375 20.25 18.804688 20.25 19.351562 C 20.25 19.894531 22.042969 20.714844 24.75 20.714844 C 27.457031 20.714844 29.25 19.894531 29.25 19.351562 C 29.25 18.804688 27.457031 17.984375 24.75 17.984375 Z M 24.75 17.984375 "/>
<path style=" stroke:none;fill-rule:nonzero;fill:rgb(54.509807%,45.882353%,63.137257%);fill-opacity:1;" d="M 24.75 24.347656 C 22.203125 24.347656 19.5 23.605469 19.5 22.230469 L 20.25 22.230469 C 20.25 22.777344 22.042969 23.597656 24.75 23.597656 C 27.457031 23.597656 29.25 22.777344 29.25 22.230469 L 30 22.230469 C 30 23.605469 27.296875 24.347656 24.75 24.347656 Z M 24.75 24.347656 "/>
<path style=" stroke:none;fill-rule:nonzero;fill:rgb(54.509807%,45.882353%,63.137257%);fill-opacity:1;" d="M 24.75 27.132812 C 22.167969 27.132812 19.5 26.210938 19.5 24.667969 L 20.25 24.667969 C 20.25 25.460938 22.214844 26.382812 24.75 26.382812 C 27.285156 26.382812 29.25 25.460938 29.25 24.667969 L 30 24.667969 C 30 26.210938 27.332031 27.132812 24.75 27.132812 Z M 24.75 27.132812 "/>
<path style=" stroke:none;fill-rule:nonzero;fill:rgb(54.509807%,45.882353%,63.137257%);fill-opacity:1;" d="M 24.75 30.011719 C 22.167969 30.011719 19.5 29.097656 19.5 27.570312 L 19.5 19.421875 L 20.25 19.421875 L 20.25 27.570312 C 20.25 28.351562 22.214844 29.261719 24.75 29.261719 C 27.285156 29.261719 29.25 28.351562 29.25 27.570312 L 29.25 19.421875 L 30 19.421875 L 30 27.570312 C 30 29.097656 27.332031 30.011719 24.75 30.011719 Z M 24.75 30.011719 "/>
</g>
</svg>
