<svg xmlns="http://www.w3.org/2000/svg"  viewBox="0 0 16 16" width="16px" height="16px"><path fill="#fff" d="M1.5 2.5H15.5V15.5H1.5z"/><path fill="#788b9c" d="M15,3v12H2V3H15 M16,2H1v14h15V2L16,2z"/><path fill="#e1ebf2" d="M2 14H15V15H2z"/><path fill="#c5d4de" d="M6 7H7V8H6zM8 7H9V8H8zM10 7H11V8H10zM12 7H13V8H12zM4 9H5V10H4zM6 9H7V10H6zM8 9H9V10H8zM10 9H11V10H10zM12 9H13V10H12zM4 11H5V12H4zM6 11H7V12H6zM8 11H9V12H8zM10 11H11V12H10z"/><path fill="#f78f8f" d="M1.5 2.5H15.5V4.5H1.5z"/><path fill="#c74343" d="M15,3v1H2V3H15 M16,2H1v3h15V2L16,2z"/><path fill="#fff" d="M4.5 0.5A4 4 0 1 0 4.5 8.5A4 4 0 1 0 4.5 0.5Z"/><path fill="#4e7ab5" d="M4.5,1C6.4,1,8,2.6,8,4.5S6.4,8,4.5,8S1,6.4,1,4.5S2.6,1,4.5,1 M4.5,0C2,0,0,2,0,4.5S2,9,4.5,9 S9,7,9,4.5S7,0,4.5,0L4.5,0z"/><path fill="#36404d" d="M4.5 3.9A0.6 0.6 0 1 0 4.5 5.1A0.6 0.6 0 1 0 4.5 3.9Z"/><path fill="#36404d" d="M5.4 6.4L3.9 4.6 5 1.8 5.9 2.1 5.1 4.4 6.2 5.8z"/></svg>