<?xml version="1.0" encoding="UTF-8" standalone="no"?>
<!DOCTYPE svg PUBLIC "-//W3C//DTD SVG 1.1//EN" "http://www.w3.org/Graphics/SVG/1.1/DTD/svg11.dtd">
<svg width="100%" height="100%" viewBox="0 0 30 30" version="1.1" xmlns="http://www.w3.org/2000/svg" xmlns:xlink="http://www.w3.org/1999/xlink" xml:space="preserve" xmlns:serif="http://www.serif.com/" style="fill-rule:evenodd;clip-rule:evenodd;stroke-linejoin:round;stroke-miterlimit:2;">
    <g id="surface37">
        <path d="M5.844,28.871C4.574,28.871 3.383,28.371 2.492,27.469C0.66,25.621 0.676,22.625 2.523,20.797L13.828,9.613L20.469,16.32L9.168,27.504C8.277,28.383 7.098,28.871 5.844,28.871ZM6,21.375C4.559,21.375 3.383,22.547 3.375,23.988C3.367,25.434 4.539,26.617 5.988,26.625C7.441,26.625 8.617,25.453 8.625,24.012C8.633,22.566 7.461,21.383 6.012,21.375L6,21.375Z" style="fill:rgb(242,250,255);fill-rule:nonzero;"/>
        <path d="M13.824,10.145L19.938,16.32L8.902,27.238C8.082,28.047 6.996,28.496 5.844,28.496C4.676,28.496 3.578,28.039 2.758,27.207C1.07,25.504 1.086,22.746 2.789,21.063L13.824,10.145M6,27C7.645,27 8.992,25.66 9,24.016C9.008,22.359 7.668,21.008 6,21C4.355,21 3.008,22.34 3,23.984C2.992,25.641 4.332,26.992 5.984,27L6,27M13.828,9.082L2.262,20.527C0.262,22.508 0.246,25.734 2.227,27.734C3.223,28.742 4.535,29.246 5.848,29.246C7.141,29.246 8.438,28.754 9.43,27.77L21,16.324L13.828,9.082ZM6,26.25L5.988,26.25C4.746,26.242 3.742,25.23 3.75,23.988C3.758,22.75 4.762,21.75 6,21.75L6.012,21.75C7.254,21.758 8.258,22.77 8.25,24.012C8.242,25.25 7.238,26.25 6,26.25Z" style="fill:rgb(131,152,171);fill-rule:nonzero;"/>
        <path d="M21.965,17.652C19.598,17.652 17.164,16.566 15.289,14.672C11.91,11.262 11.395,6.273 14.141,3.559C15.605,2.105 18.16,1.133 20.496,1.133C21.457,1.133 22.336,1.289 23.113,1.598L17.57,7.086L18.938,11.055L22.891,12.461L28.43,6.973C29.586,9.953 28.355,13.992 26.391,15.934C25.254,17.059 23.723,17.652 21.965,17.652Z" style="fill:rgb(242,250,255);fill-rule:nonzero;"/>
        <path d="M20.496,1.504C21.188,1.504 21.828,1.59 22.418,1.758L17.473,6.656L17.141,6.988L17.293,7.434L18.523,11.008L18.641,11.348L18.98,11.469L22.543,12.734L22.988,12.895L23.32,12.563L28.266,7.664C29.035,10.434 27.887,13.926 26.129,15.664C25.063,16.723 23.621,17.277 21.961,17.277C19.695,17.277 17.359,16.234 15.555,14.41C13.969,12.809 12.984,10.809 12.785,8.781C12.59,6.809 13.164,5.051 14.402,3.824C15.805,2.438 18.254,1.504 20.496,1.504M20.496,0.754C17.996,0.754 15.383,1.801 13.875,3.289C10.98,6.16 11.492,11.371 15.023,14.938C17.035,16.969 19.598,18.027 21.965,18.027C23.746,18.027 25.414,17.43 26.656,16.199C28.855,14.02 30.117,9.453 28.555,6.32L22.797,12.027L19.23,10.762L18.004,7.188L23.762,1.48C22.777,0.977 21.648,0.758 20.496,0.754Z" style="fill:rgb(131,152,171);fill-rule:nonzero;"/>
    </g>
</svg>
