<?xml version="1.0" encoding="UTF-8"?>
<svg xmlns="http://www.w3.org/2000/svg" xmlns:xlink="http://www.w3.org/1999/xlink" width="22.5pt" height="22.5pt" viewBox="0 0 22.5 22.5" version="1.1">
<g id="surface1141">
<path style=" stroke:none;fill-rule:nonzero;fill:rgb(100%,100%,100%);fill-opacity:1;" d="M 0.824219 4.703125 L 21.175781 4.703125 L 21.175781 19.523438 L 0.824219 19.523438 Z M 0.824219 4.703125 "/>
<path style=" stroke:none;fill-rule:nonzero;fill:rgb(47.058824%,54.509807%,61.176473%);fill-opacity:1;" d="M 20.898438 4.976562 L 20.898438 19.25 L 1.101562 19.25 L 1.101562 4.976562 L 20.898438 4.976562 M 21.449219 4.425781 L 0.550781 4.425781 L 0.550781 19.800781 L 21.449219 19.800781 Z M 21.449219 4.425781 "/>
<path style=" stroke:none;fill-rule:nonzero;fill:rgb(78.431374%,81.960785%,85.882354%);fill-opacity:1;" d="M 0.824219 4.675781 L 0.824219 3.574219 C 0.824219 2.96875 1.316406 2.476562 1.925781 2.476562 L 20.074219 2.476562 C 20.683594 2.476562 21.175781 2.96875 21.175781 3.574219 L 21.175781 4.675781 Z M 0.824219 4.675781 "/>
<path style=" stroke:none;fill-rule:nonzero;fill:rgb(40.000001%,47.450981%,56.078434%);fill-opacity:1;" d="M 20.074219 2.75 C 20.53125 2.75 20.898438 3.121094 20.898438 3.574219 L 20.898438 4.398438 L 1.101562 4.398438 L 1.101562 3.574219 C 1.101562 3.121094 1.46875 2.75 1.925781 2.75 L 20.074219 2.75 M 20.074219 2.199219 L 1.925781 2.199219 C 1.164062 2.199219 0.550781 2.816406 0.550781 3.574219 L 0.550781 4.949219 L 21.449219 4.949219 L 21.449219 3.574219 C 21.449219 2.816406 20.835938 2.199219 20.074219 2.199219 Z M 20.074219 2.199219 "/>
<path style="fill:none;stroke-width:1;stroke-linecap:butt;stroke-linejoin:miter;stroke:rgb(62.352943%,69.411767%,76.078433%);stroke-opacity:1;stroke-miterlimit:10;" d="M 30.497159 13.99858 L 30.497159 31.00142 " transform="matrix(0.55,0,0,0.55,0,0)"/>
<path style=" stroke:none;fill-rule:nonzero;fill:rgb(76.078433%,90.980393%,100%);fill-opacity:1;" d="M 15.949219 13.476562 C 15.796875 13.476562 15.675781 13.351562 15.675781 13.199219 L 15.675781 12.648438 C 15.675781 12.5 15.796875 12.375 15.949219 12.375 L 17.601562 12.375 C 17.75 12.375 17.875 12.5 17.875 12.648438 L 17.875 13.199219 C 17.875 13.351562 17.75 13.476562 17.601562 13.476562 Z M 15.949219 13.476562 "/>
<path style=" stroke:none;fill-rule:nonzero;fill:rgb(45.490196%,58.823532%,76.862746%);fill-opacity:1;" d="M 17.601562 12.648438 L 17.601562 13.199219 L 15.949219 13.199219 L 15.949219 12.648438 L 17.601562 12.648438 M 17.601562 12.101562 L 15.949219 12.101562 C 15.644531 12.101562 15.398438 12.347656 15.398438 12.648438 L 15.398438 13.199219 C 15.398438 13.503906 15.644531 13.75 15.949219 13.75 L 17.601562 13.75 C 17.902344 13.75 18.148438 13.503906 18.148438 13.199219 L 18.148438 12.648438 C 18.148438 12.347656 17.902344 12.101562 17.601562 12.101562 Z M 17.601562 12.101562 "/>
<path style="fill:none;stroke-width:1;stroke-linecap:butt;stroke-linejoin:miter;stroke:rgb(62.352943%,69.411767%,76.078433%);stroke-opacity:1;stroke-miterlimit:10;" d="M 20.497159 13.99858 L 20.497159 31.00142 " transform="matrix(0.55,0,0,0.55,0,0)"/>
<path style=" stroke:none;fill-rule:nonzero;fill:rgb(76.078433%,90.980393%,100%);fill-opacity:1;" d="M 10.449219 11.273438 C 10.296875 11.273438 10.175781 11.152344 10.175781 11 L 10.175781 10.449219 C 10.175781 10.296875 10.296875 10.175781 10.449219 10.175781 L 12.101562 10.175781 C 12.25 10.175781 12.375 10.296875 12.375 10.449219 L 12.375 11 C 12.375 11.152344 12.25 11.273438 12.101562 11.273438 Z M 10.449219 11.273438 "/>
<path style=" stroke:none;fill-rule:nonzero;fill:rgb(45.490196%,58.823532%,76.862746%);fill-opacity:1;" d="M 12.101562 10.449219 L 12.101562 11 L 10.449219 11 L 10.449219 10.449219 L 12.101562 10.449219 M 12.101562 9.898438 L 10.449219 9.898438 C 10.144531 9.898438 9.898438 10.144531 9.898438 10.449219 L 9.898438 11 C 9.898438 11.304688 10.144531 11.550781 10.449219 11.550781 L 12.101562 11.550781 C 12.402344 11.550781 12.648438 11.304688 12.648438 11 L 12.648438 10.449219 C 12.648438 10.144531 12.402344 9.898438 12.101562 9.898438 Z M 12.101562 9.898438 "/>
<path style="fill:none;stroke-width:1;stroke-linecap:butt;stroke-linejoin:miter;stroke:rgb(62.352943%,69.411767%,76.078433%);stroke-opacity:1;stroke-miterlimit:10;" d="M 9.502841 13.99858 L 9.502841 31.00142 " transform="matrix(0.55,0,0,0.55,0,0)"/>
<path style=" stroke:none;fill-rule:nonzero;fill:rgb(76.078433%,90.980393%,100%);fill-opacity:1;" d="M 4.398438 14.023438 C 4.25 14.023438 4.125 13.902344 4.125 13.75 L 4.125 13.199219 C 4.125 13.046875 4.25 12.925781 4.398438 12.925781 L 6.050781 12.925781 C 6.203125 12.925781 6.324219 13.046875 6.324219 13.199219 L 6.324219 13.75 C 6.324219 13.902344 6.203125 14.023438 6.050781 14.023438 Z M 4.398438 14.023438 "/>
<path style=" stroke:none;fill-rule:nonzero;fill:rgb(45.490196%,58.823532%,76.862746%);fill-opacity:1;" d="M 6.050781 13.199219 L 6.050781 13.75 L 4.398438 13.75 L 4.398438 13.199219 L 6.050781 13.199219 M 6.050781 12.648438 L 4.398438 12.648438 C 4.097656 12.648438 3.851562 12.894531 3.851562 13.199219 L 3.851562 13.75 C 3.851562 14.054688 4.097656 14.300781 4.398438 14.300781 L 6.050781 14.300781 C 6.355469 14.300781 6.601562 14.054688 6.601562 13.75 L 6.601562 13.199219 C 6.601562 12.894531 6.355469 12.648438 6.050781 12.648438 Z M 6.050781 12.648438 "/>
<path style="fill:none;stroke-width:1;stroke-linecap:butt;stroke-linejoin:miter;stroke:rgb(30.588236%,47.843137%,70.980394%);stroke-opacity:1;stroke-miterlimit:10;" d="M 30.497159 25 L 30.497159 31.00142 M 20.497159 21.00142 L 20.497159 31.00142 M 9.502841 26.00142 L 9.502841 31.00142 " transform="matrix(0.55,0,0,0.55,0,0)"/>
</g>
</svg>
