<?xml version="1.0" encoding="UTF-8"?>
<svg xmlns="http://www.w3.org/2000/svg" xmlns:xlink="http://www.w3.org/1999/xlink" width="30pt" height="30pt" viewBox="0 0 30 30" version="1.1">
<g id="surface21031">
<path style=" stroke:none;fill-rule:nonzero;fill:rgb(69.01961%,75.686276%,83.137256%);fill-opacity:1;" d="M 6.050781 8.070312 L 3.550781 7.238281 L 1.222656 3.359375 L 3.359375 1.222656 L 7.238281 3.550781 L 8.070312 6.050781 L 16.71875 14.699219 L 14.699219 16.71875 Z M 6.050781 8.070312 "/>
<path style=" stroke:none;fill-rule:nonzero;fill:rgb(40.000001%,47.450981%,56.078434%);fill-opacity:1;" d="M 3.417969 1.695312 L 6.925781 3.800781 L 7.6875 6.085938 L 7.742188 6.253906 L 7.867188 6.378906 L 16.191406 14.699219 L 14.699219 16.191406 L 6.378906 7.867188 L 6.253906 7.742188 L 6.085938 7.6875 L 3.800781 6.925781 L 1.695312 3.417969 L 3.417969 1.695312 M 3.300781 0.75 L 0.75 3.300781 L 3.300781 7.550781 L 5.847656 8.398438 L 14.699219 17.25 L 17.25 14.699219 L 8.398438 5.847656 L 7.550781 3.300781 Z M 3.300781 0.75 "/>
<path style=" stroke:none;fill-rule:nonzero;fill:rgb(96.862745%,56.078434%,56.078434%);fill-opacity:1;" d="M 25.902344 28.875 C 25.101562 28.875 24.347656 28.5625 23.785156 27.992188 L 14.03125 18.15625 L 18.257812 13.972656 L 28.015625 23.808594 C 28.574219 24.371094 28.878906 25.121094 28.875 25.914062 C 28.871094 26.710938 28.558594 27.457031 27.992188 28.015625 C 27.433594 28.570312 26.691406 28.875 25.902344 28.875 Z M 25.902344 28.875 "/>
<path style=" stroke:none;fill-rule:nonzero;fill:rgb(78.039217%,26.274511%,26.274511%);fill-opacity:1;" d="M 18.253906 14.503906 L 27.746094 24.070312 C 28.234375 24.566406 28.503906 25.21875 28.5 25.914062 C 28.496094 26.609375 28.222656 27.257812 27.730469 27.746094 C 27.238281 28.234375 26.589844 28.5 25.902344 28.5 C 25.203125 28.5 24.546875 28.226562 24.050781 27.730469 L 14.5625 18.160156 L 18.253906 14.503906 M 18.261719 13.441406 L 13.5 18.15625 L 23.519531 28.257812 C 24.175781 28.917969 25.039062 29.25 25.902344 29.25 C 26.753906 29.25 27.605469 28.925781 28.257812 28.28125 C 29.570312 26.976562 29.582031 24.859375 28.28125 23.542969 Z M 18.261719 13.441406 "/>
<path style=" stroke:none;fill-rule:nonzero;fill:rgb(86.274511%,83.529413%,94.901961%);fill-opacity:1;" d="M 4.828125 28.875 C 3.832031 28.875 2.898438 28.484375 2.195312 27.777344 C 1.5 27.074219 1.121094 26.144531 1.125 25.15625 C 1.128906 24.167969 1.519531 23.238281 2.222656 22.542969 L 15.261719 9.601562 L 20.46875 14.863281 L 7.429688 27.804688 C 6.734375 28.496094 5.808594 28.875 4.828125 28.875 Z M 4.875 23.625 C 4.050781 23.625 3.378906 24.292969 3.375 25.117188 C 3.371094 25.945312 4.039062 26.621094 4.867188 26.625 C 5.699219 26.625 6.371094 25.957031 6.375 25.132812 C 6.378906 24.304688 5.710938 23.628906 4.882812 23.625 Z M 4.875 23.625 "/>
<path style=" stroke:none;fill-rule:nonzero;fill:rgb(54.509807%,45.882353%,63.137257%);fill-opacity:1;" d="M 15.257812 10.132812 L 19.941406 14.859375 L 7.167969 27.535156 C 6.539062 28.15625 5.707031 28.5 4.828125 28.5 C 3.929688 28.5 3.09375 28.148438 2.460938 27.515625 C 1.171875 26.210938 1.183594 24.101562 2.484375 22.808594 L 15.257812 10.132812 M 4.875 27 C 5.902344 27 6.746094 26.164062 6.75 25.132812 C 6.753906 24.101562 5.917969 23.253906 4.875 23.25 C 3.847656 23.25 3.003906 24.085938 3 25.117188 C 2.996094 25.617188 3.191406 26.089844 3.542969 26.445312 C 3.894531 26.800781 4.363281 26.996094 4.867188 27 L 4.875 27 M 15.265625 9.070312 L 1.957031 22.277344 C 0.359375 23.859375 0.347656 26.441406 1.929688 28.042969 C 2.726562 28.847656 3.777344 29.25 4.828125 29.25 C 5.863281 29.25 6.898438 28.855469 7.695312 28.070312 L 21 14.863281 Z M 4.875 26.25 C 4.871094 26.25 4.871094 26.25 4.867188 26.25 C 4.246094 26.246094 3.746094 25.742188 3.75 25.121094 C 3.753906 24.5 4.257812 24 4.875 24 C 4.878906 24 4.878906 24 4.882812 24 C 5.503906 24.003906 6.003906 24.507812 6 25.128906 C 5.996094 25.75 5.492188 26.25 4.875 26.25 Z M 4.875 26.25 "/>
<path style=" stroke:none;fill-rule:nonzero;fill:rgb(86.274511%,83.529413%,94.901961%);fill-opacity:1;" d="M 22.914062 15.394531 C 20.867188 15.394531 18.765625 14.453125 17.144531 12.816406 C 14.226562 9.871094 13.777344 5.5625 16.144531 3.21875 C 17.410156 1.96875 19.617188 1.125 21.636719 1.125 C 22.4375 1.125 23.171875 1.25 23.824219 1.5 L 19.039062 6.242188 L 20.242188 9.746094 L 23.734375 10.984375 L 28.519531 6.242188 C 29.472656 8.808594 28.410156 12.25 26.730469 13.910156 C 25.753906 14.882812 24.433594 15.394531 22.914062 15.394531 Z M 22.914062 15.394531 "/>
<path style=" stroke:none;fill-rule:nonzero;fill:rgb(54.509807%,45.882353%,63.137257%);fill-opacity:1;" d="M 21.636719 1.5 C 22.164062 1.5 22.660156 1.558594 23.117188 1.671875 L 18.941406 5.808594 L 18.609375 6.140625 L 18.761719 6.589844 L 19.828125 9.695312 L 19.945312 10.039062 L 20.289062 10.160156 L 23.386719 11.257812 L 23.828125 11.417969 L 24.164062 11.085938 L 28.339844 6.949219 C 28.878906 9.261719 27.929688 12.195312 26.464844 13.644531 C 25.558594 14.542969 24.328125 15.019531 22.914062 15.019531 C 20.96875 15.019531 18.960938 14.121094 17.410156 12.554688 C 16.046875 11.175781 15.199219 9.460938 15.027344 7.71875 C 14.863281 6.035156 15.351562 4.53125 16.40625 3.488281 C 17.609375 2.296875 19.710938 1.5 21.636719 1.5 M 21.636719 0.75 C 19.464844 0.75 17.191406 1.660156 15.882812 2.953125 C 13.363281 5.449219 13.808594 9.984375 16.878906 13.082031 C 18.628906 14.851562 20.855469 15.769531 22.914062 15.769531 C 24.460938 15.769531 25.914062 15.25 26.992188 14.179688 C 28.90625 12.285156 30.003906 8.316406 28.644531 5.589844 L 23.636719 10.554688 L 20.539062 9.453125 L 19.46875 6.34375 L 24.476562 1.378906 C 23.621094 0.945312 22.640625 0.75 21.636719 0.75 Z M 21.636719 0.75 "/>
<path style="fill:none;stroke-width:1;stroke-linecap:butt;stroke-linejoin:miter;stroke:rgb(78.039217%,26.274511%,26.274511%);stroke-opacity:1;stroke-miterlimit:10;" d="M 35.046875 35.046875 L 26.484375 26.484375 " transform="matrix(0.75,0,0,0.75,0,0)"/>
</g>
</svg>
