<?xml version="1.0" encoding="UTF-8"?>
<svg xmlns="http://www.w3.org/2000/svg" xmlns:xlink="http://www.w3.org/1999/xlink" width="60pt" height="60pt" viewBox="0 0 60 60" version="1.1">
<g id="surface325">
<path style=" stroke:none;fill-rule:nonzero;fill:rgb(72.941178%,87.843138%,74.117649%);fill-opacity:1;" d="M 3.75 3.75 L 44.25 3.75 L 44.25 38.25 L 3.75 38.25 Z M 3.75 3.75 "/>
<path style=" stroke:none;fill-rule:nonzero;fill:rgb(36.862746%,61.176473%,46.27451%);fill-opacity:1;" d="M 43.5 4.5 L 43.5 37.5 L 4.5 37.5 L 4.5 4.5 L 43.5 4.5 M 45 3 L 3 3 L 3 39 L 45 39 Z M 45 3 "/>
<path style=" stroke:none;fill-rule:nonzero;fill:rgb(36.862746%,61.176473%,46.27451%);fill-opacity:1;" d="M 4.5 4.5 L 43.5 4.5 L 43.5 10.5 L 4.5 10.5 Z M 27 15 L 39 15 L 39 33 L 27 33 Z M 9 15 L 21 15 L 21 33 L 9 33 Z M 9 15 "/>
<path style=" stroke:none;fill-rule:nonzero;fill:rgb(76.078433%,90.980393%,100%);fill-opacity:1;" d="M 15.75 21.75 L 56.25 21.75 L 56.25 56.25 L 15.75 56.25 Z M 15.75 21.75 "/>
<path style=" stroke:none;fill-rule:nonzero;fill:rgb(45.490196%,58.823532%,76.862746%);fill-opacity:1;" d="M 55.5 22.5 L 55.5 55.5 L 16.5 55.5 L 16.5 22.5 L 55.5 22.5 M 57 21 L 15 21 L 15 57 L 57 57 Z M 57 21 "/>
<path style=" stroke:none;fill-rule:nonzero;fill:rgb(54.509807%,71.764708%,94.117647%);fill-opacity:1;" d="M 16.5 22.5 L 55.5 22.5 L 55.5 28.5 L 16.5 28.5 Z M 16.5 22.5 "/>
<path style=" stroke:none;fill-rule:nonzero;fill:rgb(54.509807%,71.764708%,94.117647%);fill-opacity:1;" d="M 39 33 L 51 33 L 51 51 L 39 51 Z M 39 33 "/>
<path style=" stroke:none;fill-rule:nonzero;fill:rgb(54.509807%,71.764708%,94.117647%);fill-opacity:1;" d="M 21 33 L 33 33 L 33 51 L 21 51 Z M 21 33 "/>
</g>
</svg>
