<?xml version="1.0" encoding="UTF-8"?>
<svg xmlns="http://www.w3.org/2000/svg" xmlns:xlink="http://www.w3.org/1999/xlink" width="24pt" height="24pt" viewBox="0 0 24 24" version="1.1">
<g id="surface10763">
<path style=" stroke:none;fill-rule:nonzero;fill:rgb(54.509807%,71.764708%,94.117647%);fill-opacity:1;" d="M 14.699219 17.101562 L 23.101562 17.101562 L 23.101562 23.101562 L 14.699219 23.101562 Z M 14.699219 17.101562 "/>
<path style=" stroke:none;fill-rule:nonzero;fill:rgb(30.588236%,47.843137%,70.980394%);fill-opacity:1;" d="M 22.800781 17.398438 L 22.800781 22.800781 L 15 22.800781 L 15 17.398438 L 22.800781 17.398438 M 23.398438 16.800781 L 14.398438 16.800781 L 14.398438 23.398438 L 23.398438 23.398438 Z M 23.398438 16.800781 "/>
<path style=" stroke:none;fill-rule:nonzero;fill:rgb(54.509807%,71.764708%,94.117647%);fill-opacity:1;" d="M 14.699219 8.101562 L 23.101562 8.101562 L 23.101562 14.101562 L 14.699219 14.101562 Z M 14.699219 8.101562 "/>
<path style=" stroke:none;fill-rule:nonzero;fill:rgb(30.588236%,47.843137%,70.980394%);fill-opacity:1;" d="M 22.800781 8.398438 L 22.800781 13.800781 L 15 13.800781 L 15 8.398438 L 22.800781 8.398438 M 23.398438 7.800781 L 14.398438 7.800781 L 14.398438 14.398438 L 23.398438 14.398438 Z M 23.398438 7.800781 "/>
<path style=" stroke:none;fill-rule:nonzero;fill:rgb(96.862745%,56.078434%,56.078434%);fill-opacity:1;" d="M 0.898438 0.898438 L 9.300781 0.898438 L 9.300781 6.898438 L 0.898438 6.898438 Z M 0.898438 0.898438 "/>
<path style=" stroke:none;fill-rule:nonzero;fill:rgb(78.039217%,26.274511%,26.274511%);fill-opacity:1;" d="M 9 1.199219 L 9 6.601562 L 1.199219 6.601562 L 1.199219 1.199219 L 9 1.199219 M 9.601562 0.601562 L 0.601562 0.601562 L 0.601562 7.199219 L 9.601562 7.199219 Z M 9.601562 0.601562 "/>
<path style=" stroke:none;fill-rule:nonzero;fill:rgb(40.000001%,47.450981%,56.078434%);fill-opacity:1;" d="M 14.398438 19.800781 L 5.398438 19.800781 L 5.398438 7.199219 L 4.800781 7.199219 L 4.800781 20.398438 L 14.398438 20.398438 Z M 14.398438 19.800781 "/>
<path style=" stroke:none;fill-rule:nonzero;fill:rgb(40.000001%,47.450981%,56.078434%);fill-opacity:1;" d="M 4.800781 11.398438 L 4.800781 10.800781 L 14.398438 10.800781 L 14.398438 11.398438 Z M 4.800781 11.398438 "/>
</g>
</svg>
