<?xml version="1.0" encoding="UTF-8"?>
<svg xmlns="http://www.w3.org/2000/svg" xmlns:xlink="http://www.w3.org/1999/xlink" width="36pt" height="36pt" viewBox="0 0 36 36" version="1.1">
<g id="surface1999">
<path style=" stroke:none;fill-rule:nonzero;fill:rgb(9.019608%,9.019608%,9.411765%);fill-opacity:1;" d="M 10.6875 2.8125 C 9.136719 2.8125 7.875 4.074219 7.875 5.625 L 7.875 27 C 7.875 28.550781 9.136719 29.8125 10.6875 29.8125 L 11.261719 29.8125 C 10.890625 29.046875 10.6875 28.1875 10.6875 27.28125 C 10.6875 24.019531 13.332031 21.375 16.59375 21.375 C 19.855469 21.375 22.5 24.019531 22.5 27.28125 C 22.5 28.1875 22.296875 29.046875 21.925781 29.8125 L 26.4375 29.8125 C 27.988281 29.8125 29.25 28.550781 29.25 27 L 29.25 5.625 C 29.25 4.074219 27.988281 2.8125 26.4375 2.8125 Z M 11.964844 8.742188 L 23.90625 8.742188 C 24.375 8.742188 24.75 9.117188 24.75 9.585938 C 24.75 10.050781 24.375 10.429688 23.90625 10.429688 L 11.964844 10.429688 C 11.496094 10.429688 11.121094 10.050781 11.121094 9.585938 C 11.121094 9.117188 11.496094 8.742188 11.964844 8.742188 Z M 11.964844 13.242188 L 19.96875 13.242188 C 20.4375 13.242188 20.8125 13.617188 20.8125 14.085938 C 20.8125 14.550781 20.4375 14.929688 19.96875 14.929688 L 11.964844 14.929688 C 11.496094 14.929688 11.121094 14.550781 11.121094 14.085938 C 11.121094 13.617188 11.496094 13.242188 11.964844 13.242188 Z M 16.59375 23.0625 C 14.265625 23.0625 12.375 24.953125 12.375 27.28125 C 12.375 28.394531 12.808594 29.40625 13.515625 30.160156 C 13.523438 31.394531 13.515625 34.046875 13.515625 34.046875 C 13.515625 34.171875 13.828125 34.339844 13.960938 34.285156 C 15.484375 33.652344 16.609375 33.175781 16.609375 33.175781 C 16.609375 33.175781 17.726562 33.660156 19.242188 34.277344 C 19.378906 34.335938 19.6875 34.164062 19.6875 34.042969 L 19.6875 30.140625 C 20.390625 29.386719 20.8125 28.382812 20.8125 27.28125 C 20.8125 24.953125 18.921875 23.0625 16.59375 23.0625 Z M 16.605469 25.375 C 17.652344 25.375 18.5 26.222656 18.5 27.269531 C 18.5 28.316406 17.652344 29.164062 16.605469 29.164062 C 15.554688 29.164062 14.703125 28.316406 14.703125 27.269531 C 14.703125 26.222656 15.554688 25.375 16.605469 25.375 Z M 16.605469 25.375 "/>
</g>
</svg>
