<?xml version="1.0" encoding="UTF-8"?>
<svg xmlns="http://www.w3.org/2000/svg" xmlns:xlink="http://www.w3.org/1999/xlink" width="13.5pt" height="13.5pt" viewBox="0 0 13.5 13.5" version="1.1">
<g id="surface987">
<path style=" stroke:none;fill-rule:nonzero;fill:rgb(9.019608%,9.019608%,9.411765%);fill-opacity:1;" d="M 6.5 1.21875 C 4.816406 1.21875 3.453125 2.582031 3.453125 4.265625 C 3.453125 5.511719 4.203125 6.585938 5.277344 7.054688 L 5.277344 10.582031 C 5.277344 10.75 5.347656 10.914062 5.476562 11.027344 L 6.136719 11.636719 C 6.335938 11.824219 6.652344 11.8125 6.839844 11.613281 L 8.007812 10.386719 C 8.105469 10.296875 8.136719 10.152344 8.082031 10.03125 L 7.71875 9.234375 L 7.71875 9.214844 L 8.210938 8.609375 C 8.355469 8.425781 8.363281 8.167969 8.226562 7.976562 L 7.71875 7.265625 L 7.71875 7.054688 C 8.796875 6.585938 9.546875 5.515625 9.546875 4.265625 C 9.546875 2.582031 8.183594 1.21875 6.5 1.21875 Z M 6.5 2.4375 C 6.949219 2.4375 7.3125 2.800781 7.3125 3.25 C 7.3125 3.699219 6.949219 4.0625 6.5 4.0625 C 6.050781 4.0625 5.6875 3.699219 5.6875 3.25 C 5.6875 2.800781 6.050781 2.4375 6.5 2.4375 Z M 6.5 2.4375 "/>
</g>
</svg>
