<?xml version="1.0" encoding="UTF-8"?>
<svg xmlns="http://www.w3.org/2000/svg" xmlns:xlink="http://www.w3.org/1999/xlink" width="72pt" height="72pt" viewBox="0 0 72 72" version="1.1">
<g id="surface31">
<path style=" stroke:none;fill-rule:nonzero;fill:rgb(9.803922%,9.803922%,9.803922%);fill-opacity:1;" d="M 36 6 C 19.457031 6 6 19.457031 6 36 C 6 52.542969 19.457031 66 36 66 C 52.542969 66 66 52.542969 66 36 C 66 19.457031 52.542969 6 36 6 Z M 36 10.5 C 50.109375 10.5 61.5 21.890625 61.5 36 C 61.5 50.109375 50.109375 61.5 36 61.5 C 21.890625 61.5 10.5 50.109375 10.5 36 C 10.5 21.890625 21.890625 10.5 36 10.5 Z M 35.964844 20.96875 C 34.722656 20.988281 33.730469 22.007812 33.75 23.25 L 33.75 33.75 L 23.25 33.75 C 22.4375 33.738281 21.683594 34.164062 21.273438 34.867188 C 20.867188 35.566406 20.867188 36.433594 21.273438 37.132812 C 21.683594 37.835938 22.4375 38.261719 23.25 38.25 L 33.75 38.25 L 33.75 48.75 C 33.738281 49.5625 34.164062 50.316406 34.867188 50.726562 C 35.566406 51.132812 36.433594 51.132812 37.132812 50.726562 C 37.835938 50.316406 38.261719 49.5625 38.25 48.75 L 38.25 38.25 L 48.75 38.25 C 49.5625 38.261719 50.316406 37.835938 50.726562 37.132812 C 51.132812 36.433594 51.132812 35.566406 50.726562 34.867188 C 50.316406 34.164062 49.5625 33.738281 48.75 33.75 L 38.25 33.75 L 38.25 23.25 C 38.257812 22.640625 38.019531 22.054688 37.589844 21.625 C 37.160156 21.195312 36.574219 20.957031 35.964844 20.96875 Z M 35.964844 20.96875 "/>
</g>
</svg>
