<?xml version="1.0" encoding="UTF-8"?>
<svg xmlns="http://www.w3.org/2000/svg" xmlns:xlink="http://www.w3.org/1999/xlink" width="13.5pt" height="13.5pt" viewBox="0 0 13.5 13.5" version="1.1">
<g id="surface5770">
<path style=" stroke:none;fill-rule:nonzero;fill:rgb(9.019608%,9.019608%,9.411765%);fill-opacity:1;" d="M 10.902344 2.242188 C 10.730469 2.25 10.574219 2.339844 10.480469 2.484375 L 5.589844 9.96875 L 2.421875 7.230469 C 2.285156 7.089844 2.082031 7.039062 1.894531 7.097656 C 1.707031 7.152344 1.566406 7.3125 1.535156 7.503906 C 1.503906 7.699219 1.582031 7.894531 1.738281 8.011719 L 5.363281 11.148438 C 5.476562 11.242188 5.625 11.285156 5.773438 11.265625 C 5.921875 11.242188 6.054688 11.160156 6.132812 11.035156 L 11.359375 3.054688 C 11.46875 2.890625 11.480469 2.679688 11.382812 2.507812 C 11.285156 2.335938 11.101562 2.234375 10.902344 2.242188 Z M 10.902344 2.242188 "/>
</g>
</svg>
