<?xml version="1.0" encoding="UTF-8"?>
<svg xmlns="http://www.w3.org/2000/svg" xmlns:xlink="http://www.w3.org/1999/xlink" width="13.5pt" height="13.5pt" viewBox="0 0 13.5 13.5" version="1.1">
<g id="surface1654">
<path style=" stroke:none;fill-rule:nonzero;fill:rgb(9.019608%,9.019608%,9.411765%);fill-opacity:1;" d="M 9.929688 1.746094 C 9.429688 1.769531 8.929688 1.988281 8.539062 2.363281 C 8.53125 2.371094 8.523438 2.378906 8.515625 2.390625 C 8.515625 2.390625 8.507812 2.386719 8.507812 2.390625 C 8.496094 2.402344 8.484375 2.414062 8.472656 2.429688 C 8.464844 2.441406 8.453125 2.457031 8.441406 2.46875 L 3.550781 7.386719 C 3.539062 7.398438 3.527344 7.410156 3.519531 7.425781 C 3.058594 7.925781 3.066406 8.714844 3.550781 9.199219 C 4.046875 9.695312 4.875 9.695312 5.371094 9.199219 C 5.394531 9.171875 5.417969 9.144531 5.4375 9.117188 C 5.460938 9.097656 5.480469 9.078125 5.5 9.058594 L 9.164062 5.445312 C 9.328125 5.289062 9.375 5.046875 9.277344 4.84375 C 9.179688 4.640625 8.964844 4.523438 8.742188 4.550781 C 8.625 4.566406 8.515625 4.617188 8.433594 4.703125 L 4.769531 8.320312 C 4.753906 8.339844 4.742188 8.355469 4.730469 8.375 C 4.722656 8.378906 4.71875 8.382812 4.710938 8.386719 C 4.710938 8.390625 4.707031 8.394531 4.703125 8.402344 C 4.679688 8.417969 4.652344 8.4375 4.632812 8.457031 C 4.53125 8.554688 4.386719 8.558594 4.289062 8.457031 C 4.191406 8.359375 4.191406 8.214844 4.289062 8.117188 L 9.253906 3.128906 C 9.265625 3.113281 9.277344 3.101562 9.285156 3.085938 C 9.714844 2.695312 10.285156 2.695312 10.601562 3.015625 C 10.625 3.035156 10.648438 3.054688 10.675781 3.070312 C 10.679688 3.074219 10.679688 3.078125 10.683594 3.078125 C 10.699219 3.101562 10.714844 3.117188 10.734375 3.136719 C 11.03125 3.433594 10.980469 4.0625 10.5625 4.5 C 10.554688 4.507812 10.546875 4.515625 10.539062 4.527344 L 5.160156 10.042969 C 5.140625 10.054688 5.125 10.070312 5.109375 10.082031 C 4.414062 10.78125 3.210938 10.863281 2.542969 10.195312 C 1.886719 9.542969 1.957031 8.355469 2.625 7.652344 C 2.636719 7.644531 2.648438 7.632812 2.65625 7.621094 L 7.085938 3.242188 C 7.25 3.085938 7.292969 2.84375 7.199219 2.640625 C 7.101562 2.4375 6.886719 2.320312 6.664062 2.347656 C 6.542969 2.363281 6.4375 2.417969 6.355469 2.503906 L 1.949219 6.859375 C 1.941406 6.867188 1.933594 6.875 1.925781 6.882812 C 1.914062 6.894531 1.902344 6.910156 1.894531 6.921875 C 0.839844 8.011719 0.699219 9.824219 1.804688 10.929688 C 2.902344 12.027344 4.703125 11.910156 5.792969 10.871094 C 5.804688 10.863281 5.816406 10.855469 5.824219 10.847656 C 5.828125 10.84375 5.832031 10.84375 5.832031 10.839844 C 5.839844 10.832031 5.84375 10.828125 5.851562 10.824219 C 5.851562 10.820312 5.851562 10.816406 5.851562 10.8125 L 5.882812 10.78125 C 5.894531 10.769531 5.90625 10.753906 5.914062 10.742188 L 11.285156 5.257812 C 11.324219 5.222656 11.355469 5.179688 11.382812 5.136719 C 12.070312 4.351562 12.21875 3.160156 11.464844 2.40625 C 11.453125 2.394531 11.4375 2.382812 11.421875 2.371094 C 11.398438 2.335938 11.371094 2.304688 11.34375 2.273438 C 10.957031 1.890625 10.441406 1.722656 9.929688 1.746094 Z M 9.929688 1.746094 "/>
</g>
</svg>
