<svg xmlns="http://www.w3.org/2000/svg"  viewBox="0 0 48 48" width="48px" height="48px"><path d="M 31.488281 4.0449219 C 28.52924 4.0449219 25.57035 5.1679315 23.324219 7.4140625 L 4.6308594 26.107422 A 2.0002 2.0002 0 1 0 7.4589844 28.935547 L 26.152344 10.242188 C 29.116082 7.2784491 33.860481 7.2784491 36.824219 10.242188 C 39.787957 13.205925 39.787957 17.950326 36.824219 20.914062 L 18.808594 38.929688 C 17.363999 40.374282 15.081314 40.374282 13.636719 38.929688 C 12.192124 37.485093 12.192124 35.202407 13.636719 33.757812 L 27.980469 19.414062 A 2.0002 2.0002 0 1 0 25.152344 16.585938 L 10.808594 30.929688 C 7.8351884 33.903092 7.8351884 38.784408 10.808594 41.757812 C 13.781999 44.731218 18.663314 44.731219 21.636719 41.757812 L 39.652344 23.742188 C 44.144606 19.249924 44.144606 11.906325 39.652344 7.4140625 C 37.406213 5.1679315 34.447323 4.0449219 31.488281 4.0449219 z"/></svg>