<?xml version="1.0" encoding="UTF-8"?>
<svg xmlns="http://www.w3.org/2000/svg" xmlns:xlink="http://www.w3.org/1999/xlink" width="18pt" height="18pt" viewBox="0 0 18 18" version="1.1">
<g id="surface1733">
<path style=" stroke:none;fill-rule:nonzero;fill:rgb(9.019608%,9.019608%,9.411765%);fill-opacity:1;" d="M 3 1.5 C 2.179688 1.5 1.5 2.179688 1.5 3 L 1.5 8.25 C 1.5 9.070312 2.179688 9.75 3 9.75 L 6.75 9.75 C 7.570312 9.75 8.25 9.070312 8.25 8.25 L 8.25 3 C 8.25 2.179688 7.570312 1.5 6.75 1.5 Z M 11.25 1.5 C 10.429688 1.5 9.75 2.179688 9.75 3 L 9.75 5.25 C 9.75 6.070312 10.429688 6.75 11.25 6.75 L 15 6.75 C 15.820312 6.75 16.5 6.070312 16.5 5.25 L 16.5 3 C 16.5 2.179688 15.820312 1.5 15 1.5 Z M 3 3 L 6.75 3 L 6.75 8.25 L 3 8.25 Z M 11.25 3 L 15 3 L 15 5.25 L 11.25 5.25 Z M 11.25 8.25 C 10.429688 8.25 9.75 8.929688 9.75 9.75 L 9.75 15 C 9.75 15.820312 10.429688 16.5 11.25 16.5 L 15 16.5 C 15.820312 16.5 16.5 15.820312 16.5 15 L 16.5 9.75 C 16.5 8.929688 15.820312 8.25 15 8.25 Z M 11.25 9.75 L 15 9.75 L 15 15 L 11.25 15 Z M 3 11.25 C 2.179688 11.25 1.5 11.929688 1.5 12.75 L 1.5 15 C 1.5 15.820312 2.179688 16.5 3 16.5 L 6.75 16.5 C 7.570312 16.5 8.25 15.820312 8.25 15 L 8.25 12.75 C 8.25 11.929688 7.570312 11.25 6.75 11.25 Z M 3 12.75 L 6.75 12.75 L 6.75 15 L 3 15 Z M 3 12.75 "/>
</g>
</svg>
