<svg xmlns="http://www.w3.org/2000/svg"  viewBox="0 0 48 48" width="48px" height="48px"><path d="M 10.5 6 C 8.0324991 6 6 8.0324991 6 10.5 L 6 13.5 C 6 15.967501 8.0324991 18 10.5 18 L 18.5 18 C 20.967501 18 23 15.967501 23 13.5 L 23 10.5 C 23 8.0324991 20.967501 6 18.5 6 L 10.5 6 z M 29.5 6 C 27.032499 6 25 8.0324991 25 10.5 L 25 23.5 C 25 25.967501 27.032499 28 29.5 28 L 37.5 28 C 39.967501 28 42 25.967501 42 23.5 L 42 10.5 C 42 8.0324991 39.967501 6 37.5 6 L 29.5 6 z M 10.5 9 L 18.5 9 C 19.346499 9 20 9.6535009 20 10.5 L 20 13.5 C 20 14.346499 19.346499 15 18.5 15 L 10.5 15 C 9.6535009 15 9 14.346499 9 13.5 L 9 10.5 C 9 9.6535009 9.6535009 9 10.5 9 z M 29.5 9 L 37.5 9 C 38.346499 9 39 9.6535009 39 10.5 L 39 23.5 C 39 24.346499 38.346499 25 37.5 25 L 29.5 25 C 28.653501 25 28 24.346499 28 23.5 L 28 10.5 C 28 9.6535009 28.653501 9 29.5 9 z M 10.5 20 C 8.0324991 20 6 22.032499 6 24.5 L 6 37.5 C 6 39.967501 8.0324991 42 10.5 42 L 18.5 42 C 20.967501 42 23 39.967501 23 37.5 L 23 24.5 C 23 22.032499 20.967501 20 18.5 20 L 10.5 20 z M 10.5 23 L 18.5 23 C 19.346499 23 20 23.653501 20 24.5 L 20 37.5 C 20 38.346499 19.346499 39 18.5 39 L 10.5 39 C 9.6535009 39 9 38.346499 9 37.5 L 9 24.5 C 9 23.653501 9.6535009 23 10.5 23 z M 29.5 30 C 27.032499 30 25 32.032499 25 34.5 L 25 37.5 C 25 39.967501 27.032499 42 29.5 42 L 37.5 42 C 39.967501 42 42 39.967501 42 37.5 L 42 34.5 C 42 32.032499 39.967501 30 37.5 30 L 29.5 30 z M 29.5 33 L 37.5 33 C 38.346499 33 39 33.653501 39 34.5 L 39 37.5 C 39 38.346499 38.346499 39 37.5 39 L 29.5 39 C 28.653501 39 28 38.346499 28 37.5 L 28 34.5 C 28 33.653501 28.653501 33 29.5 33 z"/></svg>