<?xml version="1.0" encoding="UTF-8" standalone="no"?>
<!DOCTYPE svg PUBLIC "-//W3C//DTD SVG 1.1//EN" "http://www.w3.org/Graphics/SVG/1.1/DTD/svg11.dtd">
<svg width="100%" height="100%" viewBox="0 0 72 72" version="1.1" xmlns="http://www.w3.org/2000/svg" xmlns:xlink="http://www.w3.org/1999/xlink" xml:space="preserve" xmlns:serif="http://www.serif.com/" style="fill-rule:evenodd;clip-rule:evenodd;stroke-linejoin:round;stroke-miterlimit:2;">
    <g id="surface3358" transform="matrix(-1,0,0,1,71.4793,0)">
        <path d="M23.273,62.555C22.688,62.555 22.102,62.328 21.66,61.879C20.793,60.988 20.813,59.563 21.703,58.695L44.984,35.977L21.75,13.305C20.859,12.438 20.844,11.012 21.711,10.121C22.578,9.234 24.008,9.219 24.895,10.082L49.777,34.367C50.215,34.789 50.457,35.371 50.457,35.977C50.457,36.582 50.215,37.164 49.777,37.586L24.844,61.918C24.406,62.344 23.84,62.555 23.273,62.555Z" style="fill:rgb(23,23,24);fill-rule:nonzero;"/>
    </g>
</svg>
