<?xml version="1.0" encoding="UTF-8"?>
<svg xmlns="http://www.w3.org/2000/svg" xmlns:xlink="http://www.w3.org/1999/xlink" width="36pt" height="36pt" viewBox="0 0 36 36" version="1.1">
<g id="surface1273">
<path style=" stroke:none;fill-rule:nonzero;fill:rgb(9.019608%,9.019608%,9.411765%);fill-opacity:1;" d="M 1.6875 5.625 C 1.066406 5.625 0.5625 6.128906 0.5625 6.75 C 0.5625 7.371094 1.066406 7.875 1.6875 7.875 L 5.792969 7.875 L 8.144531 22.476562 C 8.410156 24.117188 9.8125 25.3125 11.476562 25.3125 L 27 25.3125 C 27.621094 25.3125 28.125 24.808594 28.125 24.1875 C 28.125 23.566406 27.621094 23.0625 27 23.0625 L 11.476562 23.0625 C 10.925781 23.0625 10.457031 22.664062 10.367188 22.117188 L 10.15625 20.8125 L 26.78125 20.8125 C 28.4375 20.8125 29.839844 19.625 30.109375 17.992188 L 31.484375 9.746094 C 31.585938 9.132812 31.171875 8.554688 30.558594 8.453125 C 29.945312 8.351562 29.367188 8.765625 29.265625 9.378906 L 27.890625 17.621094 C 27.800781 18.167969 27.332031 18.5625 26.78125 18.5625 L 9.796875 18.5625 L 7.859375 6.570312 C 7.773438 6.023438 7.300781 5.625 6.75 5.625 Z M 19.125 5.625 C 18.503906 5.625 18 6.128906 18 6.75 L 18 11.347656 L 16.546875 9.890625 C 16.324219 9.671875 16.039062 9.5625 15.75 9.5625 C 15.460938 9.5625 15.175781 9.671875 14.953125 9.890625 C 14.515625 10.332031 14.515625 11.042969 14.953125 11.484375 L 18.328125 14.859375 C 18.769531 15.296875 19.480469 15.296875 19.921875 14.859375 L 23.296875 11.484375 C 23.734375 11.042969 23.734375 10.332031 23.296875 9.890625 C 22.855469 9.453125 22.144531 9.453125 21.703125 9.890625 L 20.25 11.347656 L 20.25 6.75 C 20.25 6.128906 19.746094 5.625 19.125 5.625 Z M 12.375 27.5625 C 11.132812 27.5625 10.125 28.570312 10.125 29.8125 C 10.125 31.054688 11.132812 32.0625 12.375 32.0625 C 13.617188 32.0625 14.625 31.054688 14.625 29.8125 C 14.625 28.570312 13.617188 27.5625 12.375 27.5625 Z M 24.75 27.5625 C 23.507812 27.5625 22.5 28.570312 22.5 29.8125 C 22.5 31.054688 23.507812 32.0625 24.75 32.0625 C 25.992188 32.0625 27 31.054688 27 29.8125 C 27 28.570312 25.992188 27.5625 24.75 27.5625 Z M 24.75 27.5625 "/>
</g>
</svg>
