<?xml version="1.0" encoding="UTF-8"?>
<svg xmlns="http://www.w3.org/2000/svg" xmlns:xlink="http://www.w3.org/1999/xlink" width="22.5pt" height="22.5pt" viewBox="0 0 22.5 22.5" version="1.1">
<g id="surface1659">
<path style=" stroke:none;fill-rule:nonzero;fill:rgb(9.019608%,9.019608%,9.411765%);fill-opacity:1;" d="M 11 2.199219 C 6.140625 2.199219 2.199219 6.140625 2.199219 11 C 2.199219 15.859375 6.140625 19.800781 11 19.800781 C 15.859375 19.800781 19.800781 15.859375 19.800781 11 C 19.800781 6.140625 15.859375 2.199219 11 2.199219 Z M 12.035156 11 C 12.035156 11 14.339844 13.300781 14.453125 13.414062 C 14.738281 13.703125 14.738281 14.164062 14.453125 14.453125 C 14.164062 14.738281 13.699219 14.738281 13.414062 14.453125 C 13.300781 14.339844 11 12.035156 11 12.035156 C 11 12.035156 8.699219 14.339844 8.585938 14.453125 C 8.296875 14.738281 7.835938 14.738281 7.546875 14.453125 C 7.261719 14.164062 7.261719 13.699219 7.546875 13.414062 C 7.660156 13.300781 9.964844 11 9.964844 11 C 9.964844 11 7.660156 8.699219 7.546875 8.585938 C 7.261719 8.296875 7.261719 7.835938 7.546875 7.546875 C 7.835938 7.261719 8.300781 7.261719 8.585938 7.546875 C 8.699219 7.660156 11 9.964844 11 9.964844 C 11 9.964844 13.300781 7.660156 13.414062 7.546875 C 13.703125 7.261719 14.164062 7.261719 14.453125 7.546875 C 14.738281 7.835938 14.738281 8.300781 14.453125 8.585938 C 14.339844 8.699219 12.035156 11 12.035156 11 Z M 12.035156 11 "/>
</g>
</svg>
