<svg xmlns="http://www.w3.org/2000/svg"  viewBox="0 0 48 48" width="48px" height="48px"><path d="M 23.970703 2.9726562 A 2.0002 2.0002 0 0 0 22 5 L 22 6.1191406 C 13.677584 7.0466333 7.0466324 13.677589 6.1191406 22 L 5 22 A 2.0002 2.0002 0 1 0 5 26 L 6.1191406 26 C 7.0466324 34.322411 13.677584 40.953367 22 41.880859 L 22 43 A 2.0002 2.0002 0 1 0 26 43 L 26 41.880859 C 34.322416 40.953367 40.953368 34.322411 41.880859 26 L 43 26 A 2.0002 2.0002 0 1 0 43 22 L 41.880859 22 C 40.953368 13.677589 34.322416 7.0466333 26 6.1191406 L 26 5 A 2.0002 2.0002 0 0 0 23.970703 2.9726562 z M 22 10.158203 L 22 10.845703 A 2.0002 2.0002 0 1 0 26 10.845703 L 26 10.158203 C 32.144262 11.032351 36.967649 15.855741 37.841797 22 L 37.154297 22 A 2.0002 2.0002 0 1 0 37.154297 26 L 37.841797 26 C 36.967649 32.144259 32.144262 36.967649 26 37.841797 L 26 37.154297 A 2.0002 2.0002 0 0 0 23.970703 35.125 A 2.0002 2.0002 0 0 0 22 37.154297 L 22 37.841797 C 15.855738 36.967649 11.032351 32.144259 10.158203 26 L 10.845703 26 A 2.0002 2.0002 0 1 0 10.845703 22 L 10.158203 22 C 11.032351 15.855741 15.855738 11.032351 22 10.158203 z M 24 20 A 4 4 0 0 0 24 28 A 4 4 0 0 0 24 20 z"/></svg>