<?xml version="1.0" encoding="UTF-8"?>
<svg xmlns="http://www.w3.org/2000/svg" xmlns:xlink="http://www.w3.org/1999/xlink" width="13.5pt" height="13.5pt" viewBox="0 0 13.5 13.5" version="1.1">
<g id="surface1909">
<path style=" stroke:none;fill-rule:nonzero;fill:rgb(9.019608%,9.019608%,9.411765%);fill-opacity:1;" d="M 6.5 1.625 C 6.277344 1.625 6.09375 1.808594 6.09375 2.03125 L 6.09375 2.253906 C 4.066406 2.445312 2.445312 4.066406 2.253906 6.09375 L 2.03125 6.09375 C 1.808594 6.09375 1.625 6.277344 1.625 6.5 C 1.625 6.722656 1.808594 6.90625 2.03125 6.90625 L 2.253906 6.90625 C 2.445312 8.933594 4.066406 10.554688 6.09375 10.746094 L 6.09375 10.96875 C 6.09375 11.191406 6.277344 11.375 6.5 11.375 C 6.722656 11.375 6.90625 11.191406 6.90625 10.96875 L 6.90625 10.746094 C 8.933594 10.554688 10.554688 8.933594 10.746094 6.90625 L 10.96875 6.90625 C 11.191406 6.90625 11.375 6.722656 11.375 6.5 C 11.375 6.277344 11.191406 6.09375 10.96875 6.09375 L 10.746094 6.09375 C 10.554688 4.066406 8.933594 2.445312 6.90625 2.253906 L 6.90625 2.03125 C 6.90625 1.808594 6.722656 1.625 6.5 1.625 Z M 6.09375 3.074219 L 6.09375 3.25 C 6.09375 3.472656 6.277344 3.65625 6.5 3.65625 C 6.722656 3.65625 6.90625 3.472656 6.90625 3.25 L 6.90625 3.074219 C 8.484375 3.257812 9.742188 4.515625 9.925781 6.09375 L 9.75 6.09375 C 9.527344 6.09375 9.34375 6.277344 9.34375 6.5 C 9.34375 6.722656 9.527344 6.90625 9.75 6.90625 L 9.925781 6.90625 C 9.742188 8.484375 8.484375 9.742188 6.90625 9.925781 L 6.90625 9.75 C 6.90625 9.527344 6.722656 9.34375 6.5 9.34375 C 6.277344 9.34375 6.09375 9.527344 6.09375 9.75 L 6.09375 9.925781 C 4.515625 9.742188 3.257812 8.484375 3.074219 6.90625 L 3.25 6.90625 C 3.472656 6.90625 3.65625 6.722656 3.65625 6.5 C 3.65625 6.277344 3.472656 6.09375 3.25 6.09375 L 3.074219 6.09375 C 3.257812 4.515625 4.515625 3.257812 6.09375 3.074219 Z M 6.5 5.6875 C 6.050781 5.6875 5.6875 6.050781 5.6875 6.5 C 5.6875 6.949219 6.050781 7.3125 6.5 7.3125 C 6.949219 7.3125 7.3125 6.949219 7.3125 6.5 C 7.3125 6.050781 6.949219 5.6875 6.5 5.6875 Z M 6.5 5.6875 "/>
</g>
</svg>
