<svg xmlns="http://www.w3.org/2000/svg"  viewBox="0 0 48 48" width="48px" height="48px"><path d="M 23.976562 2.9785156 A 1.50015 1.50015 0 0 0 22.5 4.5 L 22.5 13.296875 C 21.036853 13.892058 20 15.325328 20 17 L 20 18 L 16.5 18 C 12.916 18 10 20.916 10 24.5 L 10 25.5 C 10 33.25 8.0761719 39.025391 8.0761719 39.025391 A 1.50015 1.50015 0 0 0 8.7285156 40.787109 C 8.7285156 40.787109 14.147059 44 23 44 C 26.392035 44 29.373048 43.506715 31.974609 42.941406 A 1.50015 1.50015 0 0 0 32.949219 42.736328 C 36.602357 41.86502 39.091797 40.878906 39.091797 40.878906 A 1.50015 1.50015 0 0 0 39.892578 38.943359 C 39.892578 38.943359 38 34.277778 38 25.5 L 38 24.5 C 38 20.916 35.084 18 31.5 18 L 28 18 L 28 17 C 28 15.325328 26.963147 13.892058 25.5 13.296875 L 25.5 4.5 A 1.50015 1.50015 0 0 0 23.976562 2.9785156 z M 12.943359 28 L 35.048828 28 C 35.267885 33.785715 36.207695 37.05485 36.683594 38.521484 C 36.009568 38.782957 35.273105 39.087989 33.164062 39.632812 C 32.770981 38.450981 32.165918 36.311145 31.998047 32.435547 A 1.50015 1.50015 0 1 0 29.001953 32.564453 C 29.166024 36.352322 29.754323 38.708333 30.226562 40.246094 C 28.046755 40.660386 25.663956 41 23 41 C 21.49332 41 20.242673 40.833074 18.986328 40.677734 C 19.347383 39.728886 19.729934 38.580757 19.986328 36.703125 A 1.50015 1.50015 0 1 0 17.013672 36.296875 C 16.749006 38.235082 16.361515 39.430785 16.074219 40.103516 C 16.036969 40.190736 16.059357 40.126769 16.029297 40.193359 C 13.2311 39.557265 11.937855 38.985635 11.259766 38.628906 C 11.673308 37.230436 12.692921 33.525279 12.943359 28 z"/></svg>