<?xml version="1.0" encoding="UTF-8"?>
<svg xmlns="http://www.w3.org/2000/svg" xmlns:xlink="http://www.w3.org/1999/xlink" width="37.5pt" height="37.5pt" viewBox="0 0 37.5 37.5" version="1.1">
<g id="surface13">
<path style=" stroke:none;fill-rule:nonzero;fill:rgb(9.803922%,9.803922%,9.803922%);fill-opacity:1;" d="M 34.363281 0.0234375 C 33.699219 0.0273438 33.074219 0.292969 32.722656 0.832031 L 27.101562 11.402344 C 27.519531 11.546875 28.457031 11.960938 31.566406 13.367188 L 31.613281 13.390625 C 32.148438 13.632812 32.558594 13.804688 32.722656 13.875 C 32.777344 13.902344 32.828125 13.941406 32.882812 13.96875 L 36.976562 2.636719 C 37.234375 1.738281 36.59375 0.707031 35.566406 0.300781 C 35.183594 0.109375 34.761719 0.0195312 34.363281 0.0234375 Z M 2.960938 5.921875 C 1.328125 5.921875 0 7.246094 0 8.878906 C 0 10.511719 1.328125 11.839844 2.960938 11.839844 C 4.59375 11.839844 5.921875 10.511719 5.921875 8.878906 C 5.921875 7.246094 4.59375 5.921875 2.960938 5.921875 Z M 9.621094 8.140625 C 8.800781 8.140625 8.140625 8.800781 8.140625 9.621094 C 8.140625 10.4375 8.800781 11.101562 9.621094 11.101562 C 10.4375 11.101562 11.101562 10.4375 11.101562 9.621094 C 11.101562 8.800781 10.4375 8.140625 9.621094 8.140625 Z M 23.796875 12.300781 C 22.363281 12.410156 21.117188 13.121094 20.234375 14.359375 C 20.792969 15.300781 21.769531 16.449219 23.148438 16.417969 C 23.511719 16.40625 23.820312 16.667969 23.886719 17.019531 C 24.167969 17.457031 25.890625 18.230469 26.386719 18.039062 C 26.59375 17.957031 26.816406 17.972656 27.011719 18.082031 C 27.203125 18.195312 27.34375 18.371094 27.378906 18.59375 C 27.410156 18.714844 27.734375 19.140625 28.398438 19.449219 C 28.921875 19.691406 29.429688 19.75 29.714844 19.609375 C 29.902344 19.515625 30.101562 19.515625 30.292969 19.585938 C 30.488281 19.660156 30.65625 19.8125 30.734375 20.003906 C 31.234375 21.222656 33.515625 21.3125 35.082031 21.183594 C 35.308594 20.191406 35.25 19.160156 34.894531 18.199219 C 34.40625 16.878906 33.4375 15.835938 32.121094 15.238281 C 31.980469 15.179688 31.535156 14.964844 30.964844 14.707031 C 28.328125 13.515625 26.839844 12.867188 26.546875 12.789062 C 25.582031 12.40625 24.652344 12.238281 23.796875 12.300781 Z M 8.511719 13.320312 C 6.265625 13.320312 4.441406 15.148438 4.441406 17.390625 C 4.441406 19.632812 6.265625 21.460938 8.511719 21.460938 C 10.753906 21.460938 12.578125 19.632812 12.578125 17.390625 C 12.578125 15.148438 10.753906 13.320312 8.511719 13.320312 Z M 19.449219 15.839844 C 19.21875 16.390625 18.953125 16.90625 18.683594 17.390625 C 19.003906 18.164062 19.941406 19.960938 21.667969 19.5625 C 21.867188 19.515625 22.078125 19.542969 22.246094 19.65625 C 22.417969 19.769531 22.511719 19.941406 22.546875 20.140625 C 22.597656 20.417969 22.921875 20.75 23.378906 20.996094 C 24.027344 21.347656 24.726562 21.425781 25.019531 21.296875 C 25.214844 21.214844 25.433594 21.207031 25.621094 21.296875 C 25.8125 21.386719 25.957031 21.558594 26.015625 21.761719 C 26.121094 22.113281 26.484375 22.476562 26.988281 22.730469 C 27.578125 23.03125 28.257812 23.140625 28.699219 22.984375 C 29.039062 22.867188 29.402344 23.011719 29.578125 23.332031 C 30.230469 24.542969 32.375 24.675781 34.039062 24.558594 C 34.25 23.957031 34.449219 23.339844 34.640625 22.6875 C 34.441406 22.695312 34.234375 22.707031 34.015625 22.707031 C 32.46875 22.707031 30.613281 22.402344 29.691406 21.136719 C 29.066406 21.21875 28.351562 21.085938 27.632812 20.71875 C 27.113281 20.453125 26.542969 20.046875 26.199219 19.539062 C 25.257812 19.539062 24.175781 19.015625 23.632812 18.683594 C 23.214844 18.429688 22.886719 18.171875 22.6875 17.898438 C 21.21875 17.761719 20.167969 16.804688 19.449219 15.839844 Z M 17.761719 18.847656 C 13.171875 25.21875 5.339844 25.03125 5.25 25.019531 C 4.957031 24.996094 4.671875 25.152344 4.53125 25.414062 C 4.394531 25.675781 4.414062 25.992188 4.601562 26.222656 C 5.921875 27.855469 7.34375 29.234375 8.789062 30.410156 C 9.46875 30.546875 13.761719 31.152344 18.015625 26.222656 C 18.28125 25.914062 18.746094 25.886719 19.054688 26.15625 C 19.363281 26.421875 19.390625 26.886719 19.125 27.195312 C 16.160156 30.632812 13.03125 31.707031 10.84375 31.9375 C 12.671875 33.167969 14.515625 34.097656 16.234375 34.804688 C 17.328125 34.574219 20.992188 33.480469 24.234375 28.535156 C 24.460938 28.195312 24.933594 28.078125 25.277344 28.304688 C 25.617188 28.53125 25.710938 29.003906 25.484375 29.34375 C 23.039062 33.070312 20.363281 34.820312 18.476562 35.636719 C 22.324219 36.882812 25.195312 36.992188 25.4375 37 L 25.460938 37 C 25.597656 37 25.734375 36.960938 25.855469 36.882812 C 26.0625 36.753906 30.347656 33.957031 33.484375 26.085938 C 33.363281 26.085938 33.238281 26.109375 33.113281 26.109375 C 31.496094 26.109375 29.625 25.78125 28.605469 24.511719 C 27.890625 24.597656 27.066406 24.433594 26.316406 24.050781 C 25.703125 23.734375 25.21875 23.3125 24.90625 22.824219 C 24.121094 22.890625 23.269531 22.609375 22.6875 22.292969 C 22.085938 21.964844 21.613281 21.554688 21.34375 21.089844 C 19.640625 21.179688 18.460938 20.019531 17.761719 18.847656 Z M 17.761719 18.847656 "/>
</g>
</svg>
