<?xml version="1.0" encoding="UTF-8"?>
<svg xmlns="http://www.w3.org/2000/svg" xmlns:xlink="http://www.w3.org/1999/xlink" width="13.5pt" height="13.5pt" viewBox="0 0 13.5 13.5" version="1.1">
<g id="surface5835">
<path style=" stroke:none;fill-rule:nonzero;fill:rgb(9.019608%,9.019608%,9.411765%);fill-opacity:1;" d="M 12.074219 0.0078125 C 11.839844 0.0117188 11.621094 0.105469 11.496094 0.292969 L 9.523438 4.003906 C 9.667969 4.054688 9.996094 4.203125 11.089844 4.695312 L 11.105469 4.703125 C 11.296875 4.789062 11.441406 4.851562 11.496094 4.875 C 11.515625 4.882812 11.535156 4.898438 11.554688 4.90625 L 12.992188 0.925781 C 13.082031 0.613281 12.855469 0.25 12.496094 0.105469 C 12.363281 0.0390625 12.214844 0.0078125 12.074219 0.0078125 Z M 1.039062 2.078125 C 0.464844 2.078125 0 2.546875 0 3.121094 C 0 3.695312 0.464844 4.160156 1.039062 4.160156 C 1.613281 4.160156 2.078125 3.695312 2.078125 3.121094 C 2.078125 2.546875 1.613281 2.078125 1.039062 2.078125 Z M 3.378906 2.859375 C 3.09375 2.859375 2.859375 3.09375 2.859375 3.378906 C 2.859375 3.667969 3.09375 3.898438 3.378906 3.898438 C 3.667969 3.898438 3.898438 3.667969 3.898438 3.378906 C 3.898438 3.09375 3.667969 2.859375 3.378906 2.859375 Z M 8.359375 4.324219 C 7.859375 4.359375 7.421875 4.609375 7.109375 5.046875 C 7.304688 5.375 7.648438 5.777344 8.132812 5.769531 C 8.261719 5.765625 8.367188 5.855469 8.394531 5.980469 C 8.492188 6.132812 9.097656 6.40625 9.269531 6.335938 C 9.34375 6.308594 9.421875 6.316406 9.488281 6.355469 C 9.558594 6.390625 9.605469 6.457031 9.621094 6.53125 C 9.628906 6.574219 9.742188 6.722656 9.976562 6.832031 C 10.160156 6.917969 10.339844 6.941406 10.441406 6.890625 C 10.503906 6.859375 10.578125 6.855469 10.644531 6.882812 C 10.710938 6.90625 10.769531 6.960938 10.796875 7.027344 C 10.972656 7.457031 11.777344 7.488281 12.324219 7.441406 C 12.40625 7.09375 12.382812 6.730469 12.261719 6.394531 C 12.089844 5.929688 11.75 5.5625 11.285156 5.355469 C 11.238281 5.332031 11.078125 5.257812 10.878906 5.167969 C 9.953125 4.75 9.429688 4.523438 9.328125 4.492188 C 8.988281 4.359375 8.664062 4.300781 8.359375 4.324219 Z M 2.988281 4.679688 C 2.203125 4.679688 1.558594 5.320312 1.558594 6.109375 C 1.558594 6.898438 2.203125 7.539062 2.988281 7.539062 C 3.777344 7.539062 4.421875 6.898438 4.421875 6.109375 C 4.421875 5.320312 3.777344 4.679688 2.988281 4.679688 Z M 6.832031 5.566406 C 6.75 5.757812 6.660156 5.9375 6.566406 6.109375 C 6.675781 6.382812 7.007812 7.011719 7.613281 6.875 C 7.683594 6.859375 7.757812 6.867188 7.816406 6.90625 C 7.875 6.945312 7.910156 7.007812 7.921875 7.078125 C 7.9375 7.175781 8.054688 7.289062 8.214844 7.378906 C 8.441406 7.5 8.6875 7.527344 8.792969 7.484375 C 8.859375 7.453125 8.933594 7.453125 9.003906 7.484375 C 9.070312 7.515625 9.121094 7.574219 9.140625 7.644531 C 9.175781 7.769531 9.304688 7.898438 9.480469 7.988281 C 9.691406 8.09375 9.929688 8.132812 10.082031 8.078125 C 10.203125 8.035156 10.332031 8.085938 10.390625 8.199219 C 10.621094 8.625 11.375 8.667969 11.960938 8.628906 C 12.035156 8.417969 12.101562 8.199219 12.171875 7.96875 C 12.101562 7.976562 12.027344 7.980469 11.953125 7.980469 C 11.40625 7.980469 10.757812 7.871094 10.433594 7.425781 C 10.214844 7.457031 9.960938 7.40625 9.710938 7.28125 C 9.527344 7.1875 9.324219 7.042969 9.207031 6.867188 C 8.875 6.867188 8.492188 6.683594 8.304688 6.566406 C 8.15625 6.476562 8.042969 6.386719 7.96875 6.289062 C 7.453125 6.242188 7.085938 5.90625 6.832031 5.566406 Z M 6.238281 6.621094 C 4.628906 8.859375 1.875 8.796875 1.84375 8.792969 C 1.742188 8.78125 1.640625 8.835938 1.59375 8.929688 C 1.542969 9.023438 1.550781 9.132812 1.617188 9.214844 C 2.082031 9.785156 2.578125 10.269531 3.085938 10.683594 C 3.328125 10.730469 4.835938 10.945312 6.328125 9.214844 C 6.421875 9.105469 6.585938 9.097656 6.695312 9.1875 C 6.804688 9.28125 6.8125 9.445312 6.71875 9.554688 C 5.675781 10.761719 4.578125 11.140625 3.8125 11.21875 C 4.453125 11.652344 5.097656 11.980469 5.703125 12.226562 C 6.085938 12.148438 7.375 11.761719 8.515625 10.027344 C 8.59375 9.90625 8.761719 9.867188 8.878906 9.945312 C 9 10.023438 9.03125 10.191406 8.953125 10.3125 C 8.09375 11.621094 7.152344 12.234375 6.492188 12.519531 C 7.84375 12.957031 8.851562 12.996094 8.9375 13 L 8.945312 13 C 8.996094 13 9.042969 12.984375 9.082031 12.960938 C 9.15625 12.914062 10.660156 11.929688 11.765625 9.164062 C 11.722656 9.164062 11.679688 9.171875 11.636719 9.171875 C 11.066406 9.171875 10.410156 9.058594 10.050781 8.613281 C 9.796875 8.644531 9.511719 8.585938 9.246094 8.449219 C 9.03125 8.339844 8.859375 8.191406 8.75 8.019531 C 8.472656 8.042969 8.175781 7.941406 7.96875 7.832031 C 7.757812 7.71875 7.59375 7.574219 7.5 7.410156 C 6.902344 7.441406 6.484375 7.035156 6.238281 6.621094 Z M 6.238281 6.621094 "/>
</g>
</svg>
