<?xml version="1.0" encoding="UTF-8"?>
<svg xmlns="http://www.w3.org/2000/svg" xmlns:xlink="http://www.w3.org/1999/xlink" width="13.5pt" height="13.5pt" viewBox="0 0 13.5 13.5" version="1.1">
<g id="surface4844">
<path style=" stroke:none;fill-rule:nonzero;fill:rgb(9.019608%,9.019608%,9.411765%);fill-opacity:1;" d="M 6.5 1.21875 C 6.277344 1.21875 6.09375 1.402344 6.09375 1.625 L 6.09375 4.265625 L 4.265625 4.265625 C 3.707031 4.265625 3.25 4.722656 3.25 5.28125 L 3.25 5.890625 L 9.75 5.890625 L 9.75 5.28125 C 9.75 4.722656 9.292969 4.265625 8.734375 4.265625 L 6.90625 4.265625 L 6.90625 1.625 C 6.90625 1.402344 6.722656 1.21875 6.5 1.21875 Z M 3.230469 6.703125 C 3.113281 8.253906 2.464844 10.210938 2.457031 10.230469 C 2.417969 10.355469 2.4375 10.492188 2.515625 10.597656 C 2.589844 10.703125 2.714844 10.765625 2.84375 10.765625 L 4.460938 10.765625 C 4.675781 10.035156 4.722656 9.324219 4.722656 9.320312 C 4.738281 9.09375 4.929688 8.925781 5.15625 8.9375 C 5.378906 8.953125 5.546875 9.144531 5.535156 9.367188 C 5.53125 9.398438 5.492188 10.039062 5.304688 10.765625 L 7.695312 10.765625 C 7.507812 10.039062 7.46875 9.398438 7.464844 9.367188 C 7.453125 9.144531 7.621094 8.953125 7.84375 8.9375 C 8.074219 8.921875 8.261719 9.09375 8.277344 9.316406 C 8.277344 9.324219 8.324219 10.039062 8.539062 10.765625 L 10.15625 10.765625 C 10.285156 10.765625 10.410156 10.703125 10.484375 10.597656 C 10.5625 10.492188 10.582031 10.355469 10.542969 10.230469 C 10.535156 10.210938 9.886719 8.253906 9.769531 6.703125 Z M 3.230469 6.703125 "/>
</g>
</svg>
