<?xml version="1.0" encoding="UTF-8"?>
<svg xmlns="http://www.w3.org/2000/svg" xmlns:xlink="http://www.w3.org/1999/xlink" width="13.5pt" height="13.5pt" viewBox="0 0 13.5 13.5" version="1.1">
<g id="surface4665">
<path style=" stroke:none;fill-rule:nonzero;fill:rgb(9.019608%,9.019608%,9.411765%);fill-opacity:1;" d="M 3.453125 3.046875 C 3.347656 3.046875 3.246094 3.085938 3.164062 3.164062 C 3.007812 3.324219 3.007812 3.582031 3.164062 3.742188 L 5.925781 6.5 L 3.164062 9.257812 C 3.007812 9.417969 3.007812 9.675781 3.164062 9.835938 C 3.246094 9.914062 3.347656 9.953125 3.453125 9.953125 C 3.558594 9.953125 3.660156 9.914062 3.742188 9.835938 L 6.5 7.074219 L 9.257812 9.835938 C 9.339844 9.914062 9.441406 9.953125 9.546875 9.953125 C 9.652344 9.953125 9.753906 9.914062 9.835938 9.835938 C 9.992188 9.675781 9.992188 9.417969 9.835938 9.257812 L 7.074219 6.5 L 9.835938 3.742188 C 9.992188 3.582031 9.992188 3.324219 9.835938 3.164062 C 9.675781 3.007812 9.417969 3.007812 9.257812 3.164062 L 6.5 5.925781 L 3.742188 3.164062 C 3.660156 3.085938 3.558594 3.046875 3.453125 3.046875 Z M 3.453125 3.046875 "/>
</g>
</svg>
