<svg xmlns="http://www.w3.org/2000/svg"  viewBox="0 0 48 48" width="48px" height="48px"><path d="M 27.933594 7.9746094 A 2.0002 2.0002 0 0 0 26.076172 9.4511719 L 18.076172 37.451172 A 2.0005815 2.0005815 0 0 0 21.923828 38.548828 L 29.923828 10.548828 A 2.0002 2.0002 0 0 0 27.933594 7.9746094 z M 14.064453 12.957031 A 2.0002 2.0002 0 0 0 12.660156 13.490234 L 2.6601562 22.515625 A 2.0002 2.0002 0 0 0 2.6601562 25.484375 L 12.660156 34.509766 A 2.0002 2.0002 0 1 0 15.339844 31.541016 L 6.984375 24 L 15.339844 16.458984 A 2.0002 2.0002 0 0 0 14.064453 12.957031 z M 33.875 12.958984 A 2.0002 2.0002 0 0 0 32.660156 16.458984 L 41.015625 24 L 32.660156 31.541016 A 2.0002 2.0002 0 1 0 35.339844 34.509766 L 45.339844 25.484375 A 2.0002 2.0002 0 0 0 45.339844 22.515625 L 35.339844 13.490234 A 2.0002 2.0002 0 0 0 33.875 12.958984 z"/></svg>