<?xml version="1.0" encoding="UTF-8"?>
<svg xmlns="http://www.w3.org/2000/svg" xmlns:xlink="http://www.w3.org/1999/xlink" width="13.5pt" height="13.5pt" viewBox="0 0 13.5 13.5" version="1.1">
<g id="surface4001">
<path style=" stroke:none;fill-rule:nonzero;fill:rgb(9.019608%,9.019608%,9.411765%);fill-opacity:1;" d="M 7.828125 8.679688 C 7.878906 8.730469 7.878906 8.8125 7.828125 8.863281 C 7.777344 8.914062 7.695312 8.914062 7.644531 8.863281 L 7.191406 8.410156 L 5.441406 10.160156 C 5.085938 10.511719 4.515625 10.515625 4.164062 10.160156 L 3.605469 9.605469 L 2.234375 10.976562 C 2.183594 11.027344 2.101562 11.027344 2.050781 10.976562 C 2 10.925781 2 10.84375 2.050781 10.792969 L 3.421875 9.421875 L 2.867188 8.863281 C 2.515625 8.511719 2.515625 7.941406 2.867188 7.589844 L 4.617188 5.835938 L 4.203125 5.421875 C 4.152344 5.371094 4.152344 5.289062 4.203125 5.238281 C 4.253906 5.1875 4.335938 5.1875 4.386719 5.238281 Z M 5.234375 4.386719 C 5.183594 4.335938 5.183594 4.253906 5.234375 4.203125 C 5.285156 4.152344 5.367188 4.152344 5.417969 4.203125 L 5.871094 4.65625 L 7.621094 2.902344 C 7.976562 2.550781 8.546875 2.550781 8.898438 2.902344 L 9.457031 3.460938 L 10.828125 2.089844 C 10.878906 2.039062 10.960938 2.039062 11.011719 2.089844 C 11.0625 2.140625 11.0625 2.222656 11.011719 2.273438 L 9.640625 3.644531 L 10.195312 4.199219 C 10.546875 4.550781 10.546875 5.125 10.195312 5.476562 L 8.445312 7.226562 L 8.859375 7.644531 C 8.910156 7.695312 8.910156 7.777344 8.859375 7.828125 C 8.808594 7.878906 8.726562 7.878906 8.675781 7.828125 Z M 5.234375 4.386719 "/>
</g>
</svg>
