<?xml version="1.0" encoding="UTF-8"?>
<svg xmlns="http://www.w3.org/2000/svg" xmlns:xlink="http://www.w3.org/1999/xlink" width="13.5pt" height="13.5pt" viewBox="0 0 13.5 13.5" version="1.1">
<g id="surface9161">
<path style=" stroke:none;fill-rule:nonzero;fill:rgb(9.019608%,9.019608%,9.411765%);fill-opacity:1;" d="M 11.441406 0.414062 L 8.726562 3.121094 L 8.140625 2.535156 C 7.53125 1.925781 6.546875 1.925781 5.9375 2.535156 L 4.808594 3.671875 L 4.46875 3.332031 C 4.414062 3.273438 4.335938 3.242188 4.257812 3.25 C 4.15625 3.261719 4.070312 3.328125 4.039062 3.421875 C 4.003906 3.519531 4.03125 3.625 4.101562 3.695312 L 9.304688 8.898438 C 9.367188 8.972656 9.464844 9.007812 9.5625 8.988281 C 9.660156 8.964844 9.738281 8.890625 9.757812 8.792969 C 9.78125 8.695312 9.746094 8.59375 9.667969 8.53125 L 9.328125 8.191406 L 10.464844 7.0625 C 11.074219 6.453125 11.074219 5.46875 10.464844 4.859375 L 10.464844 4.851562 L 9.878906 4.265625 L 12.585938 1.558594 Z M 3.484375 4.023438 C 3.382812 4.03125 3.296875 4.101562 3.265625 4.195312 C 3.230469 4.292969 3.257812 4.398438 3.332031 4.46875 L 3.671875 4.808594 L 2.535156 5.9375 C 1.925781 6.546875 1.925781 7.539062 2.535156 8.148438 L 3.121094 8.734375 L 0.414062 11.441406 L 1.558594 12.585938 L 4.265625 9.878906 L 4.851562 10.464844 C 5.460938 11.074219 6.453125 11.074219 7.0625 10.464844 L 8.191406 9.328125 L 8.53125 9.667969 C 8.59375 9.746094 8.695312 9.78125 8.792969 9.757812 C 8.890625 9.738281 8.964844 9.660156 8.988281 9.5625 C 9.007812 9.464844 8.972656 9.367188 8.898438 9.304688 L 3.695312 4.101562 C 3.648438 4.050781 3.582031 4.023438 3.511719 4.023438 C 3.5 4.023438 3.492188 4.023438 3.484375 4.023438 Z M 3.484375 4.023438 "/>
</g>
</svg>
