<svg xmlns="http://www.w3.org/2000/svg"  viewBox="0 0 48 48" width="48px" height="48px"><path d="M 42.470703 3.9863281 A 1.50015 1.50015 0 0 0 41.439453 4.4394531 L 36.451172 9.4257812 C 32.270607 6.3227057 26.392634 6.4843192 22.605469 10.271484 L 19.5 13.378906 L 18.560547 12.439453 A 1.50015 1.50015 0 1 0 16.439453 14.560547 L 18.265625 16.386719 A 1.50015 1.50015 0 0 0 18.611328 16.732422 L 31.265625 29.386719 A 1.50015 1.50015 0 0 0 31.611328 29.732422 L 33.439453 31.560547 A 1.50015 1.50015 0 1 0 35.560547 29.439453 L 34.621094 28.5 L 37.728516 25.394531 C 41.515681 21.607366 41.677294 15.729393 38.574219 11.548828 L 43.560547 6.5605469 A 1.50015 1.50015 0 0 0 42.470703 3.9863281 z M 13.484375 15.984375 A 1.50015 1.50015 0 0 0 12.439453 18.560547 L 13.378906 19.5 L 10.271484 22.605469 C 6.4843192 26.392634 6.3227056 32.270607 9.4257812 36.451172 L 4.4394531 41.439453 A 1.50015 1.50015 0 1 0 6.5605469 43.560547 L 11.548828 38.574219 C 15.729393 41.677294 21.607366 41.515681 25.394531 37.728516 L 28.5 34.621094 L 29.439453 35.560547 A 1.50015 1.50015 0 1 0 31.560547 33.439453 L 29.734375 31.613281 A 1.50015 1.50015 0 0 0 29.388672 31.267578 L 16.734375 18.613281 A 1.50015 1.50015 0 0 0 16.388672 18.267578 L 14.560547 16.439453 A 1.50015 1.50015 0 0 0 13.484375 15.984375 z"/></svg>