<?xml version="1.0" encoding="UTF-8"?>
<svg xmlns="http://www.w3.org/2000/svg" xmlns:xlink="http://www.w3.org/1999/xlink" width="13.5pt" height="13.5pt" viewBox="0 0 13.5 13.5" version="1.1">
<g id="surface1001">
<path style=" stroke:none;fill-rule:nonzero;fill:rgb(9.019608%,9.019608%,9.411765%);fill-opacity:1;" d="M 9.574219 1.6875 C 9.015625 1.667969 8.492188 1.890625 8.03125 2.351562 C 7.386719 3 7.203125 3.996094 7.566406 4.828125 L 6.917969 5.476562 L 8.203125 6.765625 L 8.871094 6.136719 C 9.703125 6.515625 10.65625 6.335938 11.335938 5.65625 C 12.046875 4.945312 12.179688 4.027344 11.710938 3.074219 C 11.683594 3.015625 11.625 2.972656 11.5625 2.964844 C 11.496094 2.953125 11.429688 2.972656 11.386719 3.019531 L 10.421875 3.984375 C 10.234375 4.171875 9.925781 4.207031 9.722656 4.039062 C 9.484375 3.847656 9.472656 3.496094 9.683594 3.285156 L 10.667969 2.300781 C 10.714844 2.257812 10.734375 2.191406 10.722656 2.128906 C 10.714844 2.0625 10.675781 2.007812 10.617188 1.976562 C 10.257812 1.792969 9.910156 1.695312 9.574219 1.6875 Z M 4.875 3.328125 C 4.03125 3.335938 3.121094 3.570312 2.308594 4.261719 C 0.40625 5.890625 1.308594 8.722656 2.539062 9.953125 C 3.300781 10.714844 4.066406 10.882812 4.265625 10.917969 C 4.570312 10.96875 4.78125 10.929688 4.949219 10.886719 C 5.105469 10.847656 5.152344 10.648438 5.03125 10.539062 L 4.484375 10.035156 C 4.402344 9.960938 4.394531 9.835938 4.46875 9.75 C 4.542969 9.664062 4.671875 9.65625 4.753906 9.730469 L 5.625 10.464844 C 5.828125 10.632812 6.128906 10.605469 6.300781 10.40625 C 6.46875 10.207031 6.457031 9.914062 6.269531 9.734375 L 5.855469 9.34375 C 5.773438 9.269531 5.765625 9.140625 5.839844 9.054688 C 5.914062 8.972656 6.042969 8.964844 6.128906 9.039062 L 7.054688 9.84375 C 7.253906 10.019531 7.558594 10 7.738281 9.808594 C 7.921875 9.609375 7.910156 9.296875 7.710938 9.109375 L 7.027344 8.480469 C 6.941406 8.40625 6.933594 8.277344 7.007812 8.195312 C 7.082031 8.109375 7.210938 8.101562 7.292969 8.175781 L 8.1875 8.953125 C 8.433594 9.167969 8.808594 9.144531 9.023438 8.898438 C 9.234375 8.664062 9.222656 8.308594 9 8.085938 L 6.355469 5.425781 C 6.277344 5.34375 6.277344 5.21875 6.355469 5.136719 C 6.4375 5.058594 6.5625 5.058594 6.644531 5.136719 L 6.71875 5.203125 L 7.164062 4.742188 C 7.164062 4.742188 6.957031 4.324219 7.058594 3.757812 C 6.503906 3.542969 5.722656 3.320312 4.875 3.328125 Z M 4.875 3.328125 "/>
</g>
</svg>
