<?xml version="1.0" encoding="UTF-8"?>
<svg xmlns="http://www.w3.org/2000/svg" xmlns:xlink="http://www.w3.org/1999/xlink" width="72pt" height="72pt" viewBox="0 0 72 72" version="1.1">
<g id="surface43">
<path style=" stroke:none;fill-rule:nonzero;fill:rgb(9.803922%,9.803922%,9.803922%);fill-opacity:1;" d="M 25.5 3 C 17.242188 3 10.5 9.742188 10.5 18 C 10.5 26.257812 17.242188 33 25.5 33 C 33.757812 33 40.5 26.257812 40.5 18 C 40.5 9.742188 33.757812 3 25.5 3 Z M 25.5 7.5 C 31.324219 7.5 36 12.175781 36 18 C 36 23.824219 31.324219 28.5 25.5 28.5 C 19.675781 28.5 15 23.824219 15 18 C 15 12.175781 19.675781 7.5 25.5 7.5 Z M 52.5 36 C 43.386719 36 36 43.386719 36 52.5 C 36 61.613281 43.386719 69 52.5 69 C 61.613281 69 69 61.613281 69 52.5 C 69 43.386719 61.613281 36 52.5 36 Z M 9.332031 39 C 6.253906 39 3.75 41.675781 3.75 44.96875 L 3.75 47.25 C 3.75 52.171875 6.292969 56.449219 10.914062 59.292969 C 14.800781 61.683594 19.980469 63 25.5 63 C 28.785156 63 32.148438 62.511719 35.21875 61.515625 C 34.527344 60.191406 33.996094 58.777344 33.621094 57.300781 C 31.074219 58.101562 28.253906 58.5 25.5 58.5 C 17.191406 58.5 8.25 54.980469 8.25 47.25 L 8.25 44.96875 C 8.25 44.171875 8.746094 43.5 9.332031 43.5 L 35.210938 43.5 C 36.074219 41.84375 37.167969 40.332031 38.449219 39 Z M 45 43.5 C 45.382812 43.5 45.765625 43.644531 46.058594 43.941406 L 52.5 50.378906 L 58.941406 43.941406 C 59.527344 43.351562 60.472656 43.351562 61.058594 43.941406 C 61.648438 44.527344 61.648438 45.472656 61.058594 46.058594 L 54.621094 52.5 L 61.058594 58.941406 C 61.648438 59.527344 61.648438 60.472656 61.058594 61.058594 C 60.769531 61.351562 60.382812 61.5 60 61.5 C 59.617188 61.5 59.230469 61.351562 58.941406 61.058594 L 52.5 54.621094 L 46.058594 61.058594 C 45.769531 61.351562 45.382812 61.5 45 61.5 C 44.617188 61.5 44.230469 61.351562 43.941406 61.058594 C 43.351562 60.472656 43.351562 59.527344 43.941406 58.941406 L 50.378906 52.5 L 43.941406 46.058594 C 43.351562 45.472656 43.351562 44.527344 43.941406 43.941406 C 44.234375 43.644531 44.617188 43.5 45 43.5 Z M 45 43.5 "/>
</g>
</svg>
