<?xml version="1.0" encoding="UTF-8"?>
<svg xmlns="http://www.w3.org/2000/svg" xmlns:xlink="http://www.w3.org/1999/xlink" width="36pt" height="36pt" viewBox="0 0 36 36" version="1.1">
<g id="surface2013">
<path style=" stroke:none;fill-rule:nonzero;fill:rgb(9.019608%,9.019608%,9.411765%);fill-opacity:1;" d="M 13.5 6.1875 C 11.949219 6.1875 10.6875 7.449219 10.6875 9 L 10.6875 27.28125 C 10.6875 27.789062 10.5625 28.265625 10.34375 28.6875 L 19.164062 28.6875 C 19.167969 28.652344 19.171875 28.617188 19.175781 28.578125 C 19.652344 24.519531 23.101562 21.375 27.28125 21.375 C 28.164062 21.375 29.015625 21.515625 29.8125 21.78125 L 29.8125 9 C 29.8125 7.449219 28.550781 6.1875 27 6.1875 Z M 15.1875 10.6875 L 25.3125 10.6875 C 25.929688 10.6875 26.4375 11.195312 26.4375 11.8125 C 26.4375 12.429688 25.929688 12.9375 25.3125 12.9375 L 15.1875 12.9375 C 14.570312 12.9375 14.0625 12.429688 14.0625 11.8125 C 14.0625 11.195312 14.570312 10.6875 15.1875 10.6875 Z M 7.3125 11.8125 C 6.691406 11.8125 6.1875 12.316406 6.1875 12.9375 L 6.1875 27.28125 C 6.1875 28.058594 6.816406 28.6875 7.59375 28.6875 C 8.371094 28.6875 9 28.058594 9 27.28125 L 9 11.8125 Z M 15.1875 14.625 L 25.3125 14.625 C 25.929688 14.625 26.4375 15.132812 26.4375 15.75 C 26.4375 16.367188 25.929688 16.875 25.3125 16.875 L 15.1875 16.875 C 14.570312 16.875 14.0625 16.367188 14.0625 15.75 C 14.0625 15.132812 14.570312 14.625 15.1875 14.625 Z M 15.1875 18.5625 L 18.5625 18.5625 C 19.179688 18.5625 19.6875 19.070312 19.6875 19.6875 L 19.6875 23.625 C 19.6875 24.242188 19.179688 24.75 18.5625 24.75 L 15.1875 24.75 C 14.570312 24.75 14.0625 24.242188 14.0625 23.625 L 14.0625 19.6875 C 14.0625 19.070312 14.570312 18.5625 15.1875 18.5625 Z M 22.5 18.5625 L 25.3125 18.5625 C 25.929688 18.5625 26.4375 19.070312 26.4375 19.6875 C 26.4375 20.304688 25.929688 20.8125 25.3125 20.8125 L 22.5 20.8125 C 21.882812 20.8125 21.375 20.304688 21.375 19.6875 C 21.375 19.070312 21.882812 18.5625 22.5 18.5625 Z M 27.28125 23.0625 C 23.707031 23.0625 20.8125 25.957031 20.8125 29.53125 C 20.8125 33.105469 23.707031 36 27.28125 36 C 30.855469 36 33.75 33.105469 33.75 29.53125 C 33.75 25.957031 30.855469 23.0625 27.28125 23.0625 Z M 27.273438 25.742188 C 28.34375 25.742188 29.335938 26.203125 30.039062 26.953125 L 30.324219 26.757812 C 30.808594 26.433594 31.460938 26.777344 31.464844 27.363281 L 31.472656 28.953125 C 31.476562 29.476562 30.949219 29.832031 30.464844 29.632812 L 28.992188 29.027344 C 28.453125 28.808594 28.375 28.074219 28.859375 27.746094 L 29.089844 27.59375 C 28.605469 27.144531 27.964844 26.867188 27.273438 26.867188 C 25.804688 26.867188 24.609375 28.0625 24.609375 29.53125 C 24.609375 31 25.804688 32.195312 27.273438 32.195312 C 28.167969 32.195312 29 31.75 29.496094 31.003906 C 29.667969 30.742188 30.015625 30.671875 30.273438 30.84375 C 30.53125 31.015625 30.605469 31.367188 30.433594 31.625 C 29.726562 32.6875 28.546875 33.320312 27.273438 33.320312 C 25.183594 33.320312 23.484375 31.621094 23.484375 29.53125 C 23.484375 27.441406 25.183594 25.742188 27.273438 25.742188 Z M 27.273438 25.742188 "/>
</g>
</svg>
