<?xml version="1.0" encoding="UTF-8"?>
<svg xmlns="http://www.w3.org/2000/svg" xmlns:xlink="http://www.w3.org/1999/xlink" width="13.5pt" height="13.5pt" viewBox="0 0 13.5 13.5" version="1.1">
<g id="surface9242">
<path style=" stroke:none;fill-rule:nonzero;fill:rgb(9.019608%,9.019608%,9.411765%);fill-opacity:1;" d="M 11.359375 0.519531 L 10.050781 1.835938 L 9.449219 1.234375 C 8.839844 0.625 7.847656 0.625 7.238281 1.234375 L 5.988281 2.496094 L 5.648438 2.152344 C 5.582031 2.089844 5.492188 2.0625 5.402344 2.078125 C 5.304688 2.097656 5.226562 2.167969 5.199219 2.261719 C 5.171875 2.359375 5.199219 2.460938 5.273438 2.527344 L 6.515625 3.769531 L 4.921875 5.371094 L 5.289062 5.734375 L 6.890625 4.144531 L 8.855469 6.109375 L 7.265625 7.710938 L 7.628906 8.078125 L 9.230469 6.484375 L 10.472656 7.726562 C 10.578125 7.832031 10.742188 7.832031 10.847656 7.726562 C 10.949219 7.625 10.949219 7.457031 10.847656 7.351562 L 10.503906 7.011719 L 11.765625 5.761719 C 12.375 5.152344 12.375 4.167969 11.765625 3.558594 L 11.765625 3.550781 L 11.164062 2.949219 L 12.480469 1.640625 Z M 2.316406 5.191406 C 2.304688 5.195312 2.292969 5.195312 2.28125 5.199219 C 2.1875 5.21875 2.109375 5.289062 2.078125 5.382812 C 2.050781 5.476562 2.082031 5.578125 2.152344 5.648438 L 2.496094 5.988281 L 1.234375 7.238281 C 0.625 7.847656 0.625 8.839844 1.234375 9.449219 L 1.835938 10.042969 L 0.519531 11.359375 L 1.640625 12.480469 L 2.957031 11.164062 L 3.550781 11.765625 C 4.160156 12.375 5.152344 12.375 5.761719 11.765625 L 7.011719 10.503906 L 7.351562 10.847656 C 7.457031 10.949219 7.625 10.949219 7.726562 10.847656 C 7.832031 10.742188 7.832031 10.578125 7.726562 10.472656 L 2.527344 5.273438 C 2.472656 5.214844 2.394531 5.1875 2.316406 5.191406 Z M 2.316406 5.191406 "/>
</g>
</svg>
