<?xml version="1.0" encoding="UTF-8"?>
<svg xmlns="http://www.w3.org/2000/svg" xmlns:xlink="http://www.w3.org/1999/xlink" width="13.5pt" height="13.5pt" viewBox="0 0 13.5 13.5" version="1.1">
<g id="surface4599">
<path style=" stroke:none;fill-rule:nonzero;fill:rgb(9.019608%,9.019608%,9.411765%);fill-opacity:1;" d="M 11.398438 1.777344 C 11.363281 1.777344 11.332031 1.792969 11.304688 1.816406 L 9.960938 3.160156 L 9.363281 2.5625 C 9.035156 2.230469 8.496094 2.230469 8.164062 2.5625 L 6.371094 4.355469 L 5.949219 3.933594 C 5.898438 3.882812 5.816406 3.882812 5.765625 3.933594 C 5.714844 3.984375 5.714844 4.066406 5.765625 4.117188 L 6.71875 5.070312 L 5.78125 6.007812 C 5.730469 6.058594 5.730469 6.140625 5.78125 6.191406 C 5.832031 6.242188 5.914062 6.242188 5.964844 6.191406 L 6.902344 5.253906 L 8.023438 6.375 L 7.085938 7.3125 C 7.035156 7.363281 7.035156 7.445312 7.085938 7.496094 C 7.136719 7.546875 7.21875 7.546875 7.269531 7.496094 L 8.207031 6.558594 L 9.1875 7.539062 C 9.234375 7.582031 9.3125 7.59375 9.371094 7.539062 C 9.421875 7.492188 9.421875 7.40625 9.371094 7.355469 L 8.949219 6.933594 L 10.746094 5.140625 C 11.082031 4.800781 11.078125 4.257812 10.746094 3.941406 L 10.148438 3.34375 L 11.488281 2 C 11.539062 1.949219 11.539062 1.867188 11.488281 1.816406 C 11.464844 1.792969 11.429688 1.777344 11.398438 1.777344 Z M 4.023438 5.714844 C 3.988281 5.714844 3.957031 5.726562 3.929688 5.75 C 3.878906 5.800781 3.878906 5.882812 3.929688 5.933594 L 4.351562 6.355469 L 2.558594 8.152344 C 2.21875 8.488281 2.234375 9.027344 2.558594 9.351562 L 3.15625 9.949219 L 1.8125 11.289062 C 1.761719 11.339844 1.761719 11.425781 1.8125 11.472656 C 1.863281 11.523438 1.945312 11.523438 1.996094 11.472656 L 3.339844 10.132812 L 3.9375 10.730469 C 4.269531 11.0625 4.804688 11.0625 5.136719 10.730469 L 6.929688 8.933594 L 7.351562 9.355469 C 7.402344 9.40625 7.484375 9.40625 7.535156 9.355469 C 7.585938 9.304688 7.585938 9.222656 7.535156 9.171875 L 4.113281 5.75 C 4.089844 5.726562 4.054688 5.714844 4.023438 5.714844 Z M 4.023438 5.714844 "/>
</g>
</svg>
