<svg xmlns="http://www.w3.org/2000/svg"  viewBox="0 0 48 48" width="48px" height="48px"><path d="M 42.470703 3.9863281 A 1.50015 1.50015 0 0 0 41.439453 4.4394531 L 39.451172 6.4257812 C 35.270607 3.3227056 29.392634 3.4843188 25.605469 7.2714844 L 22.5 10.378906 L 21.560547 9.4394531 A 1.50015 1.50015 0 1 0 19.439453 11.560547 L 21.265625 13.386719 A 1.50015 1.50015 0 0 0 21.611328 13.732422 L 23.378906 15.5 L 18.439453 20.439453 A 1.50015 1.50015 0 1 0 20.560547 22.560547 L 25.5 17.621094 L 30.378906 22.5 L 25.439453 27.439453 A 1.50015 1.50015 0 1 0 27.560547 29.560547 L 32.5 24.621094 L 34.265625 26.386719 A 1.50015 1.50015 0 0 0 34.611328 26.732422 L 36.439453 28.560547 A 1.50015 1.50015 0 1 0 38.560547 26.439453 L 37.621094 25.5 L 40.728516 22.394531 C 44.515681 18.607366 44.677294 12.729393 41.574219 8.5488281 L 43.560547 6.5605469 A 1.50015 1.50015 0 0 0 42.470703 3.9863281 z M 10.484375 18.984375 A 1.50015 1.50015 0 0 0 9.4394531 21.560547 L 10.378906 22.5 L 7.2714844 25.605469 C 3.4843188 29.392634 3.3227057 35.270607 6.4257812 39.451172 L 4.4394531 41.439453 A 1.50015 1.50015 0 1 0 6.5605469 43.560547 L 8.5488281 41.574219 C 12.729393 44.677294 18.607366 44.515681 22.394531 40.728516 L 25.5 37.621094 L 26.439453 38.560547 A 1.50015 1.50015 0 1 0 28.560547 36.439453 L 26.734375 34.613281 A 1.50015 1.50015 0 0 0 26.388672 34.267578 L 13.734375 21.613281 A 1.50015 1.50015 0 0 0 13.388672 21.267578 L 11.560547 19.439453 A 1.50015 1.50015 0 0 0 10.484375 18.984375 z"/></svg>