<svg xmlns="http://www.w3.org/2000/svg"  viewBox="0 0 48 48" width="48px" height="48px"><path d="M 23.970703 5.9726562 A 2.0002 2.0002 0 0 0 22 8 L 22 27.171875 L 19.414062 24.585938 A 2.0002 2.0002 0 1 0 16.585938 27.414062 L 22.585938 33.414062 A 2.0002 2.0002 0 0 0 25.414062 33.414062 L 31.414062 27.414062 A 2.0002 2.0002 0 1 0 28.585938 24.585938 L 26 27.171875 L 26 8 A 2.0002 2.0002 0 0 0 23.970703 5.9726562 z M 7.9707031 30.972656 A 2.0002 2.0002 0 0 0 6 33 L 6 36 C 6 39.290032 8.7099679 42 12 42 L 36 42 C 39.290032 42 42 39.290032 42 36 L 42 33 A 2.0002 2.0002 0 1 0 38 33 L 38 36 C 38 37.127968 37.127968 38 36 38 L 12 38 C 10.872032 38 10 37.127968 10 36 L 10 33 A 2.0002 2.0002 0 0 0 7.9707031 30.972656 z"/></svg>