<?xml version="1.0" encoding="UTF-8"?>
<svg xmlns="http://www.w3.org/2000/svg" xmlns:xlink="http://www.w3.org/1999/xlink" width="13.5pt" height="13.5pt" viewBox="0 0 13.5 13.5" version="1.1">
<g id="surface5208">
<path style=" stroke:none;fill-rule:nonzero;fill:rgb(9.019608%,9.019608%,9.411765%);fill-opacity:1;" d="M 0.78125 2.078125 C 0.710938 2.078125 0.644531 2.109375 0.597656 2.15625 C 0.546875 2.203125 0.519531 2.269531 0.519531 2.339844 L 0.519531 6.828125 C 0.597656 6.785156 0.6875 6.761719 0.78125 6.761719 L 1.039062 6.761719 L 1.039062 2.601562 L 11.960938 2.601562 L 11.960938 11.441406 L 7.800781 11.441406 L 7.800781 11.699219 C 7.800781 11.792969 7.773438 11.882812 7.730469 11.960938 L 12.21875 11.960938 C 12.289062 11.960938 12.355469 11.933594 12.402344 11.882812 C 12.453125 11.835938 12.480469 11.769531 12.480469 11.699219 L 12.480469 2.339844 C 12.480469 2.269531 12.453125 2.203125 12.402344 2.15625 C 12.355469 2.109375 12.289062 2.078125 12.21875 2.078125 Z M 9.359375 3.378906 C 9.265625 3.378906 9.179688 3.429688 9.132812 3.507812 C 9.085938 3.589844 9.085938 3.691406 9.132812 3.769531 C 9.179688 3.851562 9.265625 3.902344 9.359375 3.898438 L 10.292969 3.898438 L 7.617188 6.578125 C 7.546875 6.640625 7.519531 6.738281 7.546875 6.828125 C 7.570312 6.921875 7.640625 6.992188 7.730469 7.015625 C 7.820312 7.039062 7.917969 7.011719 7.984375 6.945312 L 10.660156 4.269531 L 10.660156 5.199219 C 10.660156 5.292969 10.707031 5.378906 10.789062 5.429688 C 10.871094 5.476562 10.96875 5.476562 11.050781 5.429688 C 11.132812 5.378906 11.179688 5.292969 11.179688 5.199219 L 11.179688 3.378906 Z M 0.78125 7.28125 C 0.636719 7.28125 0.519531 7.398438 0.519531 7.539062 L 0.519531 11.699219 C 0.519531 11.84375 0.636719 11.960938 0.78125 11.960938 L 7.019531 11.960938 C 7.164062 11.960938 7.28125 11.84375 7.28125 11.699219 L 7.28125 7.539062 C 7.28125 7.398438 7.164062 7.28125 7.019531 7.28125 Z M 0.78125 7.28125 "/>
</g>
</svg>
