<svg xmlns="http://www.w3.org/2000/svg"  viewBox="0 0 48 48" width="48px" height="48px"><path d="M 12.5 5 C 9.4802259 5 7 7.4802259 7 10.5 L 7 37.5 C 7 40.519774 9.4802259 43 12.5 43 L 24.5 43 C 27.519774 43 30 40.519774 30 37.5 L 30 28 L 27 28 L 27 37.5 C 27 38.898226 25.898226 40 24.5 40 L 12.5 40 C 11.101774 40 10 38.898226 10 37.5 L 10 10.5 C 10 9.1017741 11.101774 8 12.5 8 L 24.5 8 C 25.898226 8 27 9.1017741 27 10.5 L 27 20 L 30 20 L 30 10.5 C 30 7.4802259 27.519774 5 24.5 5 L 12.5 5 z M 34.484375 15.484375 A 1.50015 1.50015 0 0 0 33.439453 18.060547 L 37.878906 22.5 L 15.5 22.5 A 1.50015 1.50015 0 1 0 15.5 25.5 L 37.878906 25.5 L 33.439453 29.939453 A 1.50015 1.50015 0 1 0 35.560547 32.060547 L 42.560547 25.060547 A 1.50015 1.50015 0 0 0 42.560547 22.939453 L 35.560547 15.939453 A 1.50015 1.50015 0 0 0 34.484375 15.484375 z"/></svg>