<?xml version="1.0" encoding="UTF-8"?>
<svg xmlns="http://www.w3.org/2000/svg" xmlns:xlink="http://www.w3.org/1999/xlink" width="36pt" height="36pt" viewBox="0 0 36 36" version="1.1">
<g id="surface21">
<path style=" stroke:none;fill-rule:nonzero;fill:rgb(9.803922%,9.803922%,9.803922%);fill-opacity:1;" d="M 18 3 C 9.730469 3 3 9.730469 3 18 C 3 26.269531 9.730469 33 18 33 C 26.269531 33 33 26.269531 33 18 C 33 9.730469 26.269531 3 18 3 Z M 18 5.25 C 25.054688 5.25 30.75 10.945312 30.75 18 C 30.75 25.054688 25.054688 30.75 18 30.75 C 10.945312 30.75 5.25 25.054688 5.25 18 C 5.25 10.945312 10.945312 5.25 18 5.25 Z M 18 9.75 C 15.527344 9.75 13.5 11.777344 13.5 14.25 L 13.5 14.625 C 13.496094 15.03125 13.707031 15.40625 14.058594 15.613281 C 14.410156 15.816406 14.839844 15.816406 15.191406 15.613281 C 15.542969 15.40625 15.753906 15.03125 15.75 14.625 L 15.75 14.25 C 15.75 12.996094 16.746094 12 18 12 C 19.253906 12 20.25 12.996094 20.25 14.25 C 20.25 16.003906 19.792969 16.226562 18.992188 16.855469 C 18.59375 17.167969 18.070312 17.53125 17.621094 18.140625 C 17.171875 18.753906 16.875 19.605469 16.875 20.625 C 16.871094 21.03125 17.082031 21.40625 17.433594 21.613281 C 17.785156 21.816406 18.214844 21.816406 18.566406 21.613281 C 18.917969 21.40625 19.128906 21.03125 19.125 20.625 C 19.125 19.984375 19.25 19.726562 19.433594 19.472656 C 19.617188 19.222656 19.9375 18.972656 20.382812 18.625 C 21.269531 17.925781 22.5 16.621094 22.5 14.25 C 22.5 11.777344 20.472656 9.75 18 9.75 Z M 18 24 C 17.171875 24 16.5 24.671875 16.5 25.5 C 16.5 26.328125 17.171875 27 18 27 C 18.828125 27 19.5 26.328125 19.5 25.5 C 19.5 24.671875 18.828125 24 18 24 Z M 18 24 "/>
</g>
</svg>
