<svg xmlns="http://www.w3.org/2000/svg"  viewBox="0 0 64 64" width="64px" height="64px"><path d="M 11 6 L 11 58 L 53 58 L 53 24.154297 C 53 22.117297 52.280703 20.144938 50.970703 18.585938 L 42.109375 8.0429688 C 41.021375 6.7479688 39.416609 6 37.724609 6 L 11 6 z M 15 10 L 36.695312 10 C 39.985312 10 41 11.365078 41 12.580078 C 41 14.365078 39 17 39 17 C 47.724993 21.129645 48.835785 21.437688 48.974609 24 L 15 24 L 15 10 z M 15.595703 28.84375 L 17.617188 28.84375 L 17.617188 32.265625 L 20.933594 32.265625 L 20.933594 28.84375 L 22.941406 28.84375 L 22.941406 37.748047 L 20.933594 37.748047 L 20.933594 34.021484 L 17.617188 34.021484 L 17.617188 37.748047 L 15.595703 37.748047 L 15.595703 28.84375 z M 24.158203 28.84375 L 31.003906 28.84375 L 31.003906 30.533203 L 28.572266 30.533203 L 28.572266 37.748047 L 26.550781 37.748047 L 26.550781 30.533203 L 24.158203 30.533203 L 24.158203 28.84375 z M 32.523438 28.84375 L 35.205078 28.84375 L 36.078125 31.816406 C 36.355125 32.847406 36.632078 33.958953 36.830078 35.001953 L 36.871094 35.001953 C 37.122094 33.971953 37.425797 32.795687 37.716797 31.804688 L 38.669922 28.845703 L 41.298828 28.845703 L 41.787109 37.751953 L 39.818359 37.751953 L 39.818359 37.748047 L 39.685547 34.339844 C 39.645547 33.269844 39.605469 31.974688 39.605469 30.679688 L 39.566406 30.679688 C 39.289406 31.815687 38.918219 33.084906 38.574219 34.128906 L 37.490234 37.603516 L 35.919922 37.603516 L 34.96875 34.154297 C 34.67775 33.111297 34.374109 31.842688 34.162109 30.679688 L 34.134766 30.679688 C 34.081766 31.881687 34.042563 33.256188 33.976562 34.367188 L 33.818359 37.75 L 31.955078 37.75 L 32.523438 28.84375 z M 43.466797 28.84375 L 45.488281 28.84375 L 45.488281 36.058594 L 49 36.058594 L 49 37.748047 L 43.466797 37.748047 L 43.466797 28.84375 z M 15 42 L 49 42 L 49 54 L 15 54 L 15 42 z"/></svg>