<?xml version="1.0" encoding="UTF-8"?>
<svg xmlns="http://www.w3.org/2000/svg" xmlns:xlink="http://www.w3.org/1999/xlink" width="48pt" height="48pt" viewBox="0 0 48 48" version="1.1">
<g id="surface15">
<path style=" stroke:none;fill-rule:nonzero;fill:rgb(9.803922%,9.803922%,9.803922%);fill-opacity:1;" d="M 9 4.5 L 9 15 L 12 15 L 12 7.5 L 36 7.5 L 36 15 L 39 15 L 39 4.5 Z M 7.5 18 L 7.5 30 L 10.5 30 L 10.5 25.5 L 12 25.5 L 12 30 L 15 30 L 15 18 L 12 18 L 12 22.5 L 10.5 22.5 L 10.5 18 Z M 16.5 18 L 16.5 21 L 18 21 L 18 30 L 21 30 L 21 21 L 22.5 21 L 22.5 18 Z M 24 18 L 24 30 L 27 30 L 27 23.015625 L 27.28125 23.390625 L 28.5 24.984375 L 29.71875 23.390625 L 30 23.015625 L 30 30 L 33 30 L 33 18 L 30 18 L 29.53125 18.609375 L 28.5 19.96875 L 27.46875 18.609375 L 27 18 Z M 34.5 18 L 34.5 30 L 40.5 30 L 40.5 27 L 37.5 27 L 37.5 18 Z M 9 33 L 9 43.5 L 39 43.5 L 39 33 L 36 33 L 36 40.5 L 12 40.5 L 12 33 Z M 9 33 "/>
</g>
</svg>
