<?xml version="1.0" encoding="UTF-8"?>
<svg xmlns="http://www.w3.org/2000/svg" xmlns:xlink="http://www.w3.org/1999/xlink" width="36pt" height="36pt" viewBox="0 0 36 36" version="1.1">
<g id="surface983">
<path style=" stroke:none;fill-rule:nonzero;fill:rgb(9.019608%,9.019608%,9.411765%);fill-opacity:1;" d="M 18 5.625 C 24.835938 5.625 30.375 11.164062 30.375 18 C 30.375 24.835938 24.835938 30.375 18 30.375 C 11.164062 30.375 5.625 24.835938 5.625 18 C 5.625 11.164062 11.164062 5.625 18 5.625 Z M 19.125 23.625 C 19.125 23.285156 19.125 18.339844 19.125 18 C 19.125 17.378906 18.621094 16.875 18 16.875 C 17.378906 16.875 16.875 17.378906 16.875 18 C 16.875 18.339844 16.875 23.285156 16.875 23.625 C 16.875 24.246094 17.378906 24.75 18 24.75 C 18.621094 24.75 19.125 24.246094 19.125 23.625 Z M 18 15.1875 C 18.933594 15.1875 19.6875 14.433594 19.6875 13.5 C 19.6875 12.566406 18.933594 11.8125 18 11.8125 C 17.066406 11.8125 16.3125 12.566406 16.3125 13.5 C 16.3125 14.433594 17.066406 15.1875 18 15.1875 Z M 18 15.1875 "/>
</g>
</svg>
