<?xml version="1.0" encoding="UTF-8"?>
<svg xmlns="http://www.w3.org/2000/svg" xmlns:xlink="http://www.w3.org/1999/xlink" width="36pt" height="36pt" viewBox="0 0 36 36" version="1.1">
<g id="surface1249">
<path style=" stroke:none;fill-rule:nonzero;fill:rgb(9.019608%,9.019608%,9.411765%);fill-opacity:1;" d="M 18 24.75 C 18.882812 24.75 19.722656 24.582031 20.492188 24.273438 L 23.390625 27.167969 C 21.703125 27.765625 19.878906 28.125 18 28.125 C 9.84375 28.125 2.8125 21.335938 2.8125 18 C 2.8125 16.265625 4.707031 13.605469 7.671875 11.453125 L 11.726562 15.507812 C 11.417969 16.277344 11.25 17.117188 11.25 18 C 11.25 21.730469 14.269531 24.75 18 24.75 Z M 8.007812 6.617188 L 29.382812 27.992188 C 29.769531 28.375 29.769531 29 29.382812 29.382812 C 29.191406 29.574219 28.941406 29.671875 28.6875 29.671875 C 28.433594 29.671875 28.183594 29.574219 27.992188 29.382812 L 6.617188 8.007812 C 6.230469 7.625 6.230469 7 6.617188 6.617188 C 7 6.230469 7.625 6.230469 8.007812 6.617188 Z M 18 7.875 C 26.15625 7.875 33.1875 14.664062 33.1875 18 C 33.1875 19.734375 31.292969 22.394531 28.328125 24.546875 L 24.273438 20.492188 C 24.582031 19.722656 24.75 18.882812 24.75 18 C 24.75 14.269531 21.730469 11.25 18 11.25 C 17.117188 11.25 16.277344 11.417969 15.507812 11.726562 L 12.609375 8.832031 C 14.296875 8.234375 16.121094 7.875 18 7.875 Z M 18 7.875 "/>
</g>
</svg>
