<?xml version="1.0" encoding="UTF-8"?>
<svg xmlns="http://www.w3.org/2000/svg" xmlns:xlink="http://www.w3.org/1999/xlink" width="72pt" height="72pt" viewBox="0 0 72 72" version="1.1">
<g id="surface17">
<path style=" stroke:none;fill-rule:nonzero;fill:rgb(9.803922%,9.803922%,9.803922%);fill-opacity:1;" d="M 15.75 7.5 C 11.21875 7.5 7.5 11.21875 7.5 15.75 L 7.5 51.75 C 7.5 52.425781 7.800781 53.0625 8.324219 53.492188 C 8.84375 53.917969 9.53125 54.089844 10.191406 53.957031 L 16.5 52.691406 L 16.5 62.25 C 16.5 62.925781 16.800781 63.5625 17.324219 63.992188 C 17.84375 64.417969 18.53125 64.589844 19.191406 64.457031 L 26.195312 63.054688 L 31.707031 64.433594 C 32.0625 64.523438 32.4375 64.523438 32.792969 64.433594 L 38.304688 63.054688 L 45.308594 64.457031 C 45.96875 64.589844 46.65625 64.417969 47.175781 63.992188 C 47.699219 63.5625 48 62.925781 48 62.25 L 48 52.5 L 43.5 52.5 L 43.5 59.503906 L 38.691406 58.542969 C 38.367188 58.480469 38.027344 58.488281 37.707031 58.566406 L 32.25 59.929688 L 26.792969 58.566406 C 26.472656 58.488281 26.132812 58.480469 25.808594 58.542969 L 21 59.503906 L 21 53.507812 L 22.707031 53.933594 C 23.0625 54.023438 23.4375 54.023438 23.792969 53.933594 L 29.304688 52.554688 L 36.308594 53.957031 C 36.96875 54.089844 37.65625 53.917969 38.175781 53.492188 C 38.699219 53.0625 39 52.425781 39 51.75 L 39 49.5 L 56.25 49.5 C 60.78125 49.5 64.5 45.78125 64.5 41.25 L 64.5 26.25 C 64.5 21.71875 60.78125 18 56.25 18 L 39 18 L 39 14.25 C 39 12.980469 39.980469 12 41.25 12 C 42.492188 12 43.5 13.007812 43.5 14.25 L 43.5 15 L 48 15 L 48 14.25 C 48 10.527344 44.972656 7.5 41.25 7.5 Z M 15.75 12 L 34.960938 12 C 34.703125 12.710938 34.5 13.453125 34.5 14.25 L 34.5 49.003906 L 29.691406 48.042969 C 29.367188 47.980469 29.027344 47.988281 28.707031 48.066406 L 23.25 49.429688 L 17.792969 48.066406 C 17.472656 47.988281 17.132812 47.980469 16.808594 48.042969 L 12 49.003906 L 12 15.75 C 12 13.652344 13.652344 12 15.75 12 Z M 17.25 19.5 C 16.4375 19.488281 15.683594 19.914062 15.273438 20.617188 C 14.867188 21.316406 14.867188 22.183594 15.273438 22.882812 C 15.683594 23.585938 16.4375 24.011719 17.25 24 L 29.25 24 C 30.0625 24.011719 30.816406 23.585938 31.226562 22.882812 C 31.632812 22.183594 31.632812 21.316406 31.226562 20.617188 C 30.816406 19.914062 30.0625 19.488281 29.25 19.5 Z M 39 22.5 L 56.25 22.5 C 58.347656 22.5 60 24.152344 60 26.25 L 60 27 L 39 27 Z M 17.25 28.5 C 16.4375 28.488281 15.683594 28.914062 15.273438 29.617188 C 14.867188 30.316406 14.867188 31.183594 15.273438 31.882812 C 15.683594 32.585938 16.4375 33.011719 17.25 33 L 29.25 33 C 30.0625 33.011719 30.816406 32.585938 31.226562 31.882812 C 31.632812 31.183594 31.632812 30.316406 31.226562 29.617188 C 30.816406 28.914062 30.0625 28.488281 29.25 28.5 Z M 39 33 L 60 33 L 60 41.25 C 60 43.347656 58.347656 45 56.25 45 L 39 45 Z M 17.25 37.5 C 16.4375 37.488281 15.683594 37.914062 15.273438 38.617188 C 14.867188 39.316406 14.867188 40.183594 15.273438 40.882812 C 15.683594 41.585938 16.4375 42.011719 17.25 42 L 24.75 42 C 25.5625 42.011719 26.316406 41.585938 26.726562 40.882812 C 27.132812 40.183594 27.132812 39.316406 26.726562 38.617188 C 26.316406 37.914062 25.5625 37.488281 24.75 37.5 Z M 50.25 37.5 C 49.4375 37.488281 48.683594 37.914062 48.273438 38.617188 C 47.867188 39.316406 47.867188 40.183594 48.273438 40.882812 C 48.683594 41.585938 49.4375 42.011719 50.25 42 L 54.75 42 C 55.5625 42.011719 56.316406 41.585938 56.726562 40.882812 C 57.132812 40.183594 57.132812 39.316406 56.726562 38.617188 C 56.316406 37.914062 55.5625 37.488281 54.75 37.5 Z M 50.25 37.5 "/>
</g>
</svg>
