<?xml version="1.0" encoding="UTF-8"?>
<svg xmlns="http://www.w3.org/2000/svg" xmlns:xlink="http://www.w3.org/1999/xlink" width="75pt" height="75pt" viewBox="0 0 75 75" version="1.1">
<g id="surface36">
<path style=" stroke:none;fill-rule:nonzero;fill:rgb(9.803922%,9.803922%,9.803922%);fill-opacity:1;" d="M 29.945312 4.5 C 29.136719 4.53125 28.5 5.191406 28.5 6 L 28.5 19.5 L 9 19.5 C 6.53125 19.5 4.5 21.53125 4.5 24 L 4.5 69 C 4.5 69.519531 4.769531 70.003906 5.210938 70.277344 C 5.652344 70.550781 6.207031 70.574219 6.671875 70.339844 L 9 69.175781 L 11.328125 70.339844 C 11.75 70.554688 12.25 70.554688 12.671875 70.339844 L 15 69.175781 L 17.328125 70.339844 C 17.75 70.554688 18.25 70.554688 18.671875 70.339844 L 21 69.175781 L 23.328125 70.339844 C 23.75 70.554688 24.25 70.554688 24.671875 70.339844 L 27 69.175781 L 29.328125 70.339844 C 29.75 70.554688 30.25 70.554688 30.671875 70.339844 L 33 69.175781 L 35.328125 70.339844 C 35.792969 70.574219 36.347656 70.550781 36.789062 70.277344 C 37.230469 70.003906 37.5 69.519531 37.5 69 L 37.5 61.5 L 63 61.5 C 67.125 61.5 70.5 58.125 70.5 54 L 70.5 34.5 C 70.5 30.375 67.125 27 63 27 L 43.5 27 L 43.5 24 C 43.5 21.960938 41.976562 20.5 40.097656 19.957031 C 39.8125 19.660156 39.414062 19.496094 39 19.5 L 31.5 19.5 L 31.5 8.425781 L 32.328125 8.839844 C 32.75 9.054688 33.25 9.054688 33.671875 8.839844 L 36 7.675781 L 38.328125 8.839844 C 38.75 9.054688 39.25 9.054688 39.671875 8.839844 L 42 7.675781 L 44.328125 8.839844 C 44.75 9.054688 45.25 9.054688 45.671875 8.839844 L 48 7.675781 L 50.328125 8.839844 C 50.75 9.054688 51.25 9.054688 51.671875 8.839844 L 54 7.675781 L 56.328125 8.839844 C 56.75 9.054688 57.25 9.054688 57.671875 8.839844 L 58.5 8.425781 L 58.5 24 L 61.5 24 L 61.5 6 C 61.5 5.480469 61.230469 4.996094 60.789062 4.722656 C 60.347656 4.449219 59.792969 4.425781 59.328125 4.660156 L 57 5.824219 L 54.671875 4.660156 C 54.25 4.445312 53.75 4.445312 53.328125 4.660156 L 51 5.824219 L 48.671875 4.660156 C 48.25 4.445312 47.75 4.445312 47.328125 4.660156 L 45 5.824219 L 42.671875 4.660156 C 42.25 4.445312 41.75 4.445312 41.328125 4.660156 L 39 5.824219 L 36.671875 4.660156 C 36.25 4.445312 35.75 4.445312 35.328125 4.660156 L 33 5.824219 L 30.671875 4.660156 C 30.445312 4.546875 30.195312 4.492188 29.945312 4.5 Z M 36 13.5 C 35.460938 13.492188 34.957031 13.777344 34.683594 14.242188 C 34.410156 14.710938 34.410156 15.289062 34.683594 15.757812 C 34.957031 16.222656 35.460938 16.507812 36 16.5 L 43.5 16.5 C 44.039062 16.507812 44.542969 16.222656 44.816406 15.757812 C 45.089844 15.289062 45.089844 14.710938 44.816406 14.242188 C 44.542969 13.777344 44.039062 13.492188 43.5 13.5 Z M 51 13.5 C 50.460938 13.492188 49.957031 13.777344 49.683594 14.242188 C 49.410156 14.710938 49.410156 15.289062 49.683594 15.757812 C 49.957031 16.222656 50.460938 16.507812 51 16.5 L 54 16.5 C 54.539062 16.507812 55.042969 16.222656 55.316406 15.757812 C 55.589844 15.289062 55.589844 14.710938 55.316406 14.242188 C 55.042969 13.777344 54.539062 13.492188 54 13.5 Z M 51 19.5 C 50.460938 19.492188 49.957031 19.777344 49.683594 20.242188 C 49.410156 20.710938 49.410156 21.289062 49.683594 21.757812 C 49.957031 22.222656 50.460938 22.507812 51 22.5 L 54 22.5 C 54.539062 22.507812 55.042969 22.222656 55.316406 21.757812 C 55.589844 21.289062 55.589844 20.710938 55.316406 20.242188 C 55.042969 19.777344 54.539062 19.492188 54 19.5 Z M 9 22.5 L 35.125 22.5 C 34.917969 23.011719 34.5 23.417969 34.5 24 L 34.5 66.574219 L 33.671875 66.160156 C 33.25 65.945312 32.75 65.945312 32.328125 66.160156 L 30 67.324219 L 27.671875 66.160156 C 27.25 65.945312 26.75 65.945312 26.328125 66.160156 L 24 67.324219 L 21.671875 66.160156 C 21.25 65.945312 20.75 65.945312 20.328125 66.160156 L 18 67.324219 L 15.671875 66.160156 C 15.25 65.945312 14.75 65.945312 14.328125 66.160156 L 12 67.324219 L 9.671875 66.160156 C 9.25 65.945312 8.75 65.945312 8.328125 66.160156 L 7.5 66.574219 L 7.5 24 C 7.5 23.152344 8.152344 22.5 9 22.5 Z M 39 22.5 C 39.847656 22.5 40.5 23.152344 40.5 24 L 40.5 27 L 37.5 27 L 37.5 24 C 37.5 23.152344 38.152344 22.5 39 22.5 Z M 37.5 30 L 63 30 C 65.503906 30 67.5 31.996094 67.5 34.5 L 67.5 36 L 37.5 36 Z M 12 33 C 11.460938 32.992188 10.957031 33.277344 10.683594 33.742188 C 10.410156 34.210938 10.410156 34.789062 10.683594 35.257812 C 10.957031 35.722656 11.460938 36.007812 12 36 L 19.5 36 C 20.039062 36.007812 20.542969 35.722656 20.816406 35.257812 C 21.089844 34.789062 21.089844 34.210938 20.816406 33.742188 C 20.542969 33.277344 20.039062 32.992188 19.5 33 Z M 27 33 C 26.460938 32.992188 25.957031 33.277344 25.683594 33.742188 C 25.410156 34.210938 25.410156 34.789062 25.683594 35.257812 C 25.957031 35.722656 26.460938 36.007812 27 36 L 30 36 C 30.539062 36.007812 31.042969 35.722656 31.316406 35.257812 C 31.589844 34.789062 31.589844 34.210938 31.316406 33.742188 C 31.042969 33.277344 30.539062 32.992188 30 33 Z M 12 39 C 11.460938 38.992188 10.957031 39.277344 10.683594 39.742188 C 10.410156 40.210938 10.410156 40.789062 10.683594 41.257812 C 10.957031 41.722656 11.460938 42.007812 12 42 L 15 42 C 15.539062 42.007812 16.042969 41.722656 16.316406 41.257812 C 16.589844 40.789062 16.589844 40.210938 16.316406 39.742188 C 16.042969 39.277344 15.539062 38.992188 15 39 Z M 27 39 C 26.460938 38.992188 25.957031 39.277344 25.683594 39.742188 C 25.410156 40.210938 25.410156 40.789062 25.683594 41.257812 C 25.957031 41.722656 26.460938 42.007812 27 42 L 30 42 C 30.539062 42.007812 31.042969 41.722656 31.316406 41.257812 C 31.589844 40.789062 31.589844 40.210938 31.316406 39.742188 C 31.042969 39.277344 30.539062 38.992188 30 39 Z M 37.5 42 L 67.5 42 L 67.5 54 C 67.5 56.503906 65.503906 58.5 63 58.5 L 37.5 58.5 Z M 12 45 C 11.460938 44.992188 10.957031 45.277344 10.683594 45.742188 C 10.410156 46.210938 10.410156 46.789062 10.683594 47.257812 C 10.957031 47.722656 11.460938 48.007812 12 48 L 19.5 48 C 20.039062 48.007812 20.542969 47.722656 20.816406 47.257812 C 21.089844 46.789062 21.089844 46.210938 20.816406 45.742188 C 20.542969 45.277344 20.039062 44.992188 19.5 45 Z M 27 45 C 26.460938 44.992188 25.957031 45.277344 25.683594 45.742188 C 25.410156 46.210938 25.410156 46.789062 25.683594 47.257812 C 25.957031 47.722656 26.460938 48.007812 27 48 L 30 48 C 30.539062 48.007812 31.042969 47.722656 31.316406 47.257812 C 31.589844 46.789062 31.589844 46.210938 31.316406 45.742188 C 31.042969 45.277344 30.539062 44.992188 30 45 Z M 12 51 C 11.460938 50.992188 10.957031 51.277344 10.683594 51.742188 C 10.410156 52.210938 10.410156 52.789062 10.683594 53.257812 C 10.957031 53.722656 11.460938 54.007812 12 54 L 16.5 54 C 17.039062 54.007812 17.542969 53.722656 17.816406 53.257812 C 18.089844 52.789062 18.089844 52.210938 17.816406 51.742188 C 17.542969 51.277344 17.039062 50.992188 16.5 51 Z M 27 51 C 26.460938 50.992188 25.957031 51.277344 25.683594 51.742188 C 25.410156 52.210938 25.410156 52.789062 25.683594 53.257812 C 25.957031 53.722656 26.460938 54.007812 27 54 L 30 54 C 30.539062 54.007812 31.042969 53.722656 31.316406 53.257812 C 31.589844 52.789062 31.589844 52.210938 31.316406 51.742188 C 31.042969 51.277344 30.539062 50.992188 30 51 Z M 27 51 "/>
</g>
</svg>
