<?xml version="1.0" encoding="UTF-8" standalone="no"?>
<!DOCTYPE svg PUBLIC "-//W3C//DTD SVG 1.1//EN" "http://www.w3.org/Graphics/SVG/1.1/DTD/svg11.dtd">
<svg width="100%" height="100%" viewBox="0 0 32 32" version="1.1" xmlns="http://www.w3.org/2000/svg" xmlns:xlink="http://www.w3.org/1999/xlink" xml:space="preserve" xmlns:serif="http://www.serif.com/" style="fill-rule:evenodd;clip-rule:evenodd;stroke-linejoin:round;stroke-miterlimit:2;">
    <g transform="matrix(1,0,0,1,5.75631,1.99983)">
        <path d="M6.928,17.186L14.44,20.658C15.371,21.089 16.028,21.812 16.383,22.641C17.28,24.74 16.054,26.887 14.128,27.659C12.202,28.431 10.149,27.934 9.215,25.751L5.946,18.087C5.693,17.493 6.329,16.909 6.928,17.186" style="fill:rgb(255,194,51);"/>
        <path d="M7.38,14.938L15.133,12.007C17.71,11.033 20.525,12.876 20.487,15.554C20.486,15.589 20.486,15.624 20.485,15.659C20.429,18.267 17.693,20.019 15.172,19.097L7.387,16.247C6.766,16.02 6.761,15.171 7.38,14.938" style="fill:rgb(255,194,51);"/>
        <path d="M6.945,13.922L14.567,10.684C17.1,9.607 17.743,6.377 15.759,4.51C15.733,4.486 15.707,4.462 15.681,4.437C13.736,2.632 10.521,3.268 9.413,5.645L5.993,12.992C5.72,13.577 6.337,14.181 6.945,13.922" style="fill:rgb(255,194,51);"/>
        <path d="M4.983,12.643L7.755,5.044C8.098,4.102 8.035,3.141 7.679,2.312C6.78,0.214 4.344,-0.464 2.419,0.31C0.493,1.083 -0.595,2.84 0.341,5.023L3.631,12.679C3.886,13.272 4.763,13.249 4.983,12.643" style="fill:rgb(255,194,51);"/>
    </g>
</svg>
