<svg xmlns="http://www.w3.org/2000/svg"  viewBox="0 0 48 48" width="48px" height="48px"><path d="M 35.957031 3 A 1.50015 1.50015 0 0 0 34.919922 3.4394531 L 3.4394531 34.919922 A 1.50015 1.50015 0 0 0 3.4394531 37.041016 C 12.703113 46.304675 27.777356 46.304675 37.041016 37.041016 C 46.304675 27.777356 46.304675 12.703113 37.041016 3.4394531 A 1.50015 1.50015 0 0 0 35.957031 3 z M 33.097656 9.5039062 C 34.346501 10.995701 35.302418 12.676232 35.958984 14.474609 L 25.259766 17.341797 L 33.097656 9.5039062 z M 36.732422 17.375 C 36.892885 18.313375 36.990234 19.268493 36.990234 20.240234 C 36.990234 21.211976 36.892885 22.167094 36.732422 23.105469 L 26.037109 20.240234 L 36.732422 17.375 z M 25.259766 23.138672 L 35.958984 26.005859 C 35.302418 27.804236 34.346501 29.484768 33.097656 30.976562 L 25.259766 23.138672 z M 17.341797 25.259766 L 14.474609 35.958984 C 12.676232 35.302418 10.995701 34.346501 9.5039062 33.097656 L 17.341797 25.259766 z M 23.138672 25.259766 L 30.976562 33.097656 C 29.48429 34.346901 27.802936 35.302406 26.003906 35.958984 L 23.138672 25.259766 z M 20.240234 26.037109 L 23.105469 36.730469 C 22.167004 36.890963 21.212072 36.990234 20.240234 36.990234 C 19.268493 36.990234 18.313375 36.892885 17.375 36.732422 L 20.240234 26.037109 z"/></svg>