<svg xmlns="http://www.w3.org/2000/svg"  viewBox="0 0 48 48" width="48px" height="48px"><path d="M 26.449219 7.1484375 C 24.684051 7.2292005 23 8.6286274 23 10.601562 L 23 19.087891 L 9.7558594 7.9257812 C 9.2072253 7.463596 8.5721271 7.220121 7.9296875 7.1601562 C 6.0023687 6.9802621 4 8.4492698 4 10.601562 L 4 37.398438 C 4 40.268161 7.5613229 41.92296 9.7558594 40.074219 L 23 28.912109 L 23 37.398438 C 23 40.268161 26.561323 41.92296 28.755859 40.074219 L 44.652344 26.675781 C 46.28886 25.296481 46.289693 22.702387 44.654297 21.322266 A 1.50015 1.50015 0 0 0 44.652344 21.322266 L 28.755859 7.9257812 C 28.070067 7.3480497 27.251568 7.111727 26.449219 7.1484375 z"/></svg>