<?xml version="1.0" encoding="UTF-8"?>
<svg xmlns="http://www.w3.org/2000/svg" xmlns:xlink="http://www.w3.org/1999/xlink" width="13.5pt" height="13.5pt" viewBox="0 0 13.5 13.5" version="1.1">
<g id="surface3475">
<path style=" stroke:none;fill-rule:nonzero;fill:rgb(9.019608%,9.019608%,9.411765%);fill-opacity:1;" d="M 1.710938 2.988281 C 1.644531 2.988281 1.574219 3.003906 1.507812 3.035156 C 1.378906 3.105469 1.300781 3.238281 1.300781 3.386719 L 1.300781 10.132812 C 1.300781 10.285156 1.382812 10.421875 1.515625 10.488281 C 1.574219 10.515625 1.632812 10.53125 1.695312 10.53125 C 1.773438 10.53125 1.855469 10.503906 1.925781 10.453125 L 6.726562 6.972656 C 6.738281 6.960938 6.75 6.949219 6.761719 6.9375 L 6.761719 10.132812 C 6.761719 10.285156 6.84375 10.421875 6.976562 10.488281 C 7.035156 10.515625 7.09375 10.53125 7.152344 10.53125 C 7.234375 10.53125 7.316406 10.503906 7.382812 10.453125 L 12.1875 6.972656 C 12.289062 6.894531 12.351562 6.769531 12.351562 6.640625 C 12.347656 6.511719 12.28125 6.390625 12.175781 6.316406 L 7.371094 3.054688 C 7.25 2.976562 7.097656 2.96875 6.96875 3.035156 C 6.839844 3.105469 6.761719 3.238281 6.761719 3.386719 L 6.761719 6.355469 C 6.746094 6.34375 6.730469 6.328125 6.714844 6.316406 L 1.910156 3.054688 C 1.851562 3.015625 1.78125 2.992188 1.710938 2.988281 Z M 1.710938 2.988281 "/>
</g>
</svg>
