<?xml version="1.0" encoding="UTF-8"?>
<svg xmlns="http://www.w3.org/2000/svg" xmlns:xlink="http://www.w3.org/1999/xlink" width="13.5pt" height="13.5pt" viewBox="0 0 13.5 13.5" version="1.1">
<g id="surface3786">
<path style=" stroke:none;fill-rule:nonzero;fill:rgb(9.019608%,9.019608%,9.411765%);fill-opacity:1;" d="M 4.671875 2.03125 C 4.894531 2.03125 5.078125 2.214844 5.078125 2.4375 L 5.078125 10.5625 C 5.078125 10.785156 4.894531 10.96875 4.671875 10.96875 C 4.449219 10.96875 4.265625 10.785156 4.265625 10.5625 L 4.265625 2.4375 C 4.265625 2.214844 4.449219 2.03125 4.671875 2.03125 Z M 8.328125 2.03125 C 8.550781 2.03125 8.734375 2.214844 8.734375 2.4375 L 8.734375 10.5625 C 8.734375 10.785156 8.550781 10.96875 8.328125 10.96875 C 8.105469 10.96875 7.921875 10.785156 7.921875 10.5625 L 7.921875 2.4375 C 7.921875 2.214844 8.105469 2.03125 8.328125 2.03125 Z M 8.328125 2.03125 "/>
</g>
</svg>
