<svg xmlns="http://www.w3.org/2000/svg"  viewBox="0 0 48 48" width="48px" height="48px"><path d="M 40.550781 7.1484375 C 39.748432 7.111727 38.929933 7.3480497 38.244141 7.9257812 L 25 19.087891 L 25 10.601562 C 25 8.4492698 22.997631 6.9802621 21.070312 7.1601562 C 20.427874 7.220121 19.792775 7.463596 19.244141 7.9257812 L 3.3476562 21.322266 A 1.50015 1.50015 0 0 0 3.3457031 21.324219 C 1.7102598 22.70434 1.711143 25.296481 3.3476562 26.675781 L 19.244141 40.074219 C 21.438677 41.92296 25 40.268161 25 37.398438 L 25 28.912109 L 38.244141 40.074219 C 40.438677 41.92296 44 40.268161 44 37.398438 L 44 10.601562 C 44 8.6286274 42.315949 7.2292005 40.550781 7.1484375 z"/></svg>