<?xml version="1.0" encoding="UTF-8"?>
<svg xmlns="http://www.w3.org/2000/svg" xmlns:xlink="http://www.w3.org/1999/xlink" width="13.5pt" height="13.5pt" viewBox="0 0 13.5 13.5" version="1.1">
<g id="surface3517">
<path style=" stroke:none;fill-rule:nonzero;fill:rgb(9.019608%,9.019608%,9.411765%);fill-opacity:1;" d="M 6.105469 2.730469 C 6.023438 2.730469 5.945312 2.753906 5.875 2.804688 L 1.074219 6.289062 C 0.96875 6.363281 0.90625 6.488281 0.910156 6.617188 C 0.910156 6.75 0.976562 6.871094 1.085938 6.941406 L 5.890625 10.203125 C 6.011719 10.285156 6.160156 10.292969 6.289062 10.222656 C 6.417969 10.152344 6.5 10.019531 6.5 9.871094 L 6.5 6.902344 C 6.515625 6.917969 6.527344 6.929688 6.542969 6.941406 L 11.347656 10.203125 C 11.472656 10.285156 11.621094 10.292969 11.75 10.222656 C 11.878906 10.152344 11.960938 10.019531 11.960938 9.871094 L 11.960938 3.128906 C 11.960938 2.976562 11.875 2.839844 11.742188 2.773438 C 11.6875 2.742188 11.625 2.730469 11.566406 2.730469 C 11.484375 2.730469 11.402344 2.753906 11.335938 2.804688 L 6.535156 6.289062 C 6.519531 6.296875 6.511719 6.308594 6.5 6.320312 L 6.5 3.128906 C 6.5 2.976562 6.417969 2.839844 6.28125 2.773438 C 6.226562 2.742188 6.167969 2.730469 6.105469 2.730469 Z M 6.105469 2.730469 "/>
</g>
</svg>
