<?xml version="1.0" encoding="UTF-8"?>
<svg xmlns="http://www.w3.org/2000/svg" width="60pt" height="60pt" viewBox="0 0 60 60" version="1.1">
<g>
<path style="stroke:none;fill-rule:nonzero;fill:rgb(30.588236%,47.843137%,70.980394%);fill-opacity:1;" d="M 30 26.25 C 27.929688 26.25 26.25 27.929688 26.25 30 C 26.25 32.070312 27.929688 33.75 30 33.75 C 32.070312 33.75 33.75 32.070312 33.75 30 C 33.75 27.929688 32.070312 26.25 30 26.25 Z M 30 26.25 "/>
<path style="stroke:none;fill-rule:nonzero;fill:rgb(54.509807%,71.764708%,94.117647%);fill-opacity:1;" d="M 19.933594 50.097656 C 12.574219 46.390625 7.5 38.785156 7.5 30 C 7.5 21.214844 12.578125 13.605469 19.9375 9.902344 L 18.257812 6.546875 C 9.664062 10.859375 3.75 19.730469 3.75 30 C 3.75 40.269531 9.660156 49.140625 18.253906 53.453125 Z M 41.746094 6.546875 L 40.066406 9.902344 C 47.425781 13.609375 52.5 21.214844 52.5 30 C 52.5 38.785156 47.421875 46.394531 40.0625 50.097656 L 41.742188 53.453125 C 50.335938 49.140625 56.25 40.269531 56.25 30 C 56.25 19.730469 50.339844 10.859375 41.746094 6.546875 Z M 41.746094 6.546875 "/>
<path style="stroke:none;fill-rule:nonzero;fill:rgb(45.490196%,58.823532%,76.862746%);fill-opacity:1;" d="M 38.363281 13.300781 L 36.691406 16.644531 C 41.59375 19.113281 45 24.140625 45 30 C 45 35.859375 41.589844 40.886719 36.6875 43.355469 L 38.359375 46.699219 C 44.496094 43.621094 48.75 37.335938 48.75 30 C 48.75 22.664062 44.496094 16.382812 38.363281 13.300781 Z M 21.636719 46.699219 L 23.3125 43.355469 C 18.40625 40.886719 15 35.859375 15 30 C 15 24.140625 18.410156 19.113281 23.3125 16.644531 L 21.636719 13.300781 C 15.503906 16.378906 11.25 22.664062 11.25 30 C 11.25 37.335938 15.503906 43.617188 21.636719 46.699219 Z M 21.636719 46.699219 "/>
<path style="stroke:none;fill-rule:nonzero;fill:rgb(30.588236%,47.843137%,70.980394%);fill-opacity:1;" d="M 37.5 30 C 37.5 32.929688 35.796875 35.441406 33.34375 36.679688 L 35.015625 40.019531 C 38.699219 38.171875 41.25 34.402344 41.25 30 C 41.25 25.601562 38.699219 21.828125 35.015625 19.980469 L 33.34375 23.320312 C 35.796875 24.558594 37.5 27.070312 37.5 30 Z M 22.5 30 C 22.5 27.070312 24.203125 24.558594 26.65625 23.320312 L 24.984375 19.980469 C 21.300781 21.828125 18.75 25.597656 18.75 30 C 18.75 34.398438 21.300781 38.171875 24.984375 40.019531 L 26.65625 36.679688 C 24.203125 35.441406 22.5 32.929688 22.5 30 Z M 22.5 30 "/>
<circle cx="48" cy="12" r="9" style="fill:rgb(35%,80%,45%);stroke:rgb(20%,55%,30%);stroke-width:1.5px;"/>
</g>
</svg>
