<svg xmlns="http://www.w3.org/2000/svg"  viewBox="0 0 48 48" width="48px" height="48px"><path d="M 12.5 4 C 10.019 4 8 6.019 8 8.5 L 8 39.5 C 8 41.981 10.019 44 12.5 44 L 25.632812 44 C 24.777812 43.111 24.050609 42.103 23.474609 41 L 12.5 41 C 11.673 41 11 40.327 11 39.5 L 11 8.5 C 11 7.673 11.673 7 12.5 7 L 24 7 L 24 15.5 C 24 17.981 26.019 20 28.5 20 L 37 20 L 37 22.169922 C 38.045 22.331922 39.053 22.603047 40 22.998047 L 40 18.498047 C 40 18.084088 39.831297 17.710744 39.560547 17.439453 L 39.560547 17.4375 C 39.556926 17.433879 39.552485 17.431318 39.548828 17.427734 L 26.560547 4.4394531 C 26.289172 4.1682031 25.9145 4 25.5 4 L 12.5 4 z M 27 9.1210938 L 34.876953 16.998047 L 28.5 16.998047 C 27.673 16.998047 27 16.325047 27 15.498047 L 27 9.1210938 z M 32.072266 24.511719 C 31.210187 24.409531 30.333891 24.936422 30.087891 25.857422 L 29.757812 27.089844 C 29.558813 27.834844 28.915437 28.374406 28.148438 28.441406 L 26.876953 28.550781 C 25.610953 28.661781 24.839953 29.996437 25.376953 31.148438 L 25.917969 32.304688 C 26.242969 33.002688 26.097734 33.829047 25.552734 34.373047 L 24.650391 35.275391 C 23.751391 36.173391 24.018922 37.691516 25.169922 38.228516 L 26.326172 38.767578 C 27.024172 39.092578 27.444953 39.819938 27.376953 40.585938 L 27.265625 41.857422 C 27.154625 43.123422 28.3355 44.114156 29.5625 43.785156 L 30.794922 43.455078 C 31.538922 43.255078 32.327531 43.543828 32.769531 44.173828 L 33.5 45.21875 C 34.229 46.26075 35.772 46.26075 36.5 45.21875 L 37.230469 44.173828 C 37.671469 43.543828 38.461078 43.255078 39.205078 43.455078 L 40.4375 43.787109 C 41.6635 44.116109 42.845375 43.125375 42.734375 41.859375 L 42.623047 40.587891 C 42.556047 39.821891 42.976828 39.092578 43.673828 38.767578 L 44.830078 38.230469 C 45.982078 37.693469 46.249563 36.173391 45.351562 35.275391 L 44.447266 34.375 C 43.903266 33.831 43.757031 33.002688 44.082031 32.304688 L 44.623047 31.150391 C 45.160047 29.998391 44.390047 28.663734 43.123047 28.552734 L 41.853516 28.441406 C 41.085516 28.374406 40.442188 27.836797 40.242188 27.091797 L 39.912109 25.859375 C 39.584109 24.631375 38.136703 24.103984 37.095703 24.833984 L 36.050781 25.564453 C 35.419781 26.006453 34.580219 26.007453 33.949219 25.564453 L 32.904297 24.832031 C 32.644047 24.649531 32.359625 24.545781 32.072266 24.511719 z"/></svg>