<?xml version="1.0" encoding="UTF-8"?>
<svg xmlns="http://www.w3.org/2000/svg" xmlns:xlink="http://www.w3.org/1999/xlink" width="13.5pt" height="13.5pt" viewBox="0 0 13.5 13.5" version="1.1">
<g id="surface6893">
<path style=" stroke:none;fill-rule:nonzero;fill:rgb(9.019608%,9.019608%,9.411765%);fill-opacity:1;" d="M 0.78125 1.039062 C 0.351562 1.039062 0 1.390625 0 1.820312 L 0 8.605469 C 0.382812 6.578125 0.808594 4.304688 0.828125 4.191406 C 0.960938 3.519531 1.46875 3.121094 2.195312 3.121094 L 12.21875 3.121094 L 12.21875 2.859375 C 12.21875 2.429688 11.871094 2.078125 11.441406 2.078125 L 4.6875 2.078125 C 4.617188 2.054688 4.46875 1.816406 4.386719 1.691406 C 4.1875 1.371094 3.980469 1.039062 3.640625 1.039062 Z M 2.195312 3.640625 C 1.859375 3.640625 1.445312 3.757812 1.339844 4.296875 C 1.308594 4.464844 0.292969 9.855469 0 11.421875 L 0 11.441406 C 0 11.871094 0.351562 12.21875 0.78125 12.21875 L 10.921875 12.21875 C 11.339844 12.21875 11.6875 11.882812 11.699219 11.464844 L 12.992188 4.46875 L 13 4.421875 C 13 3.992188 12.648438 3.640625 12.21875 3.640625 Z M 2.195312 3.640625 "/>
</g>
</svg>
