<?xml version="1.0" encoding="UTF-8"?>
<svg xmlns="http://www.w3.org/2000/svg" xmlns:xlink="http://www.w3.org/1999/xlink" width="13.5pt" height="13.5pt" viewBox="0 0 13.5 13.5" version="1.1">
<g id="surface4077">
<path style=" stroke:none;fill-rule:nonzero;fill:rgb(9.019608%,9.019608%,9.411765%);fill-opacity:1;" d="M 3.25 2.859375 C 2.75 2.859375 2.339844 3.269531 2.339844 3.769531 L 2.339844 9.230469 C 2.339844 9.371094 2.375 9.5 2.429688 9.617188 L 3.472656 6.265625 C 3.625 5.785156 4.066406 5.460938 4.570312 5.460938 L 10.523438 5.460938 C 10.570312 5.460938 10.613281 5.46875 10.660156 5.476562 L 10.660156 4.550781 C 10.660156 4.046875 10.25 3.640625 9.75 3.640625 L 5.851562 3.640625 C 5.710938 3.640625 5.570312 3.59375 5.460938 3.511719 L 4.835938 3.042969 C 4.679688 2.925781 4.484375 2.859375 4.289062 2.859375 Z M 4.570312 5.71875 C 4.179688 5.71875 3.839844 5.972656 3.722656 6.34375 L 2.621094 9.882812 C 2.785156 10.042969 3.003906 10.140625 3.25 10.140625 L 9.363281 10.140625 C 9.722656 10.140625 10.035156 9.933594 10.183594 9.617188 L 11.140625 6.558594 C 11.203125 6.359375 11.167969 6.152344 11.046875 5.984375 C 10.988281 5.902344 10.816406 5.71875 10.523438 5.71875 Z M 4.570312 5.71875 "/>
</g>
</svg>
