<?xml version="1.0" encoding="UTF-8"?>
<svg xmlns="http://www.w3.org/2000/svg" xmlns:xlink="http://www.w3.org/1999/xlink" width="36pt" height="36pt" viewBox="0 0 36 36" version="1.1">
<g id="surface883">
<path style=" stroke:none;fill-rule:nonzero;fill:rgb(9.019608%,9.019608%,9.411765%);fill-opacity:1;" d="M 6.375 6 C 4.523438 6 3 7.523438 3 9.375 L 3 27.304688 L 3.011719 27.304688 C 2.988281 28.707031 4.132812 30 5.625 30 L 27.410156 30 C 28.8125 30 30.078125 29.125 30.570312 27.8125 L 34.324219 17.8125 L 34.324219 17.808594 C 34.96875 16.125 33.675781 14.25 31.875 14.25 L 31.5 14.25 L 31.5 13.125 C 31.5 11.273438 29.976562 9.75 28.125 9.75 L 18.03125 9.75 L 14.679688 6.957031 C 13.9375 6.339844 13.003906 6 12.039062 6 Z M 6.375 8.25 L 12.039062 8.25 C 12.480469 8.25 12.902344 8.402344 13.238281 8.683594 L 16.902344 11.738281 C 17.105469 11.90625 17.363281 12 17.625 12 L 28.125 12 C 28.761719 12 29.25 12.488281 29.25 13.125 L 29.25 14.25 L 10.089844 14.25 C 8.6875 14.25 7.421875 15.125 6.929688 16.4375 L 5.25 20.910156 L 5.25 9.375 C 5.25 8.738281 5.738281 8.25 6.375 8.25 Z M 10.089844 16.5 L 31.875 16.5 C 32.171875 16.5 32.332031 16.730469 32.222656 17.007812 C 32.222656 17.011719 32.222656 17.011719 32.222656 17.015625 L 28.464844 27.019531 C 28.296875 27.460938 27.882812 27.75 27.410156 27.75 L 5.625 27.75 C 5.328125 27.75 5.171875 27.523438 5.273438 27.246094 C 5.277344 27.246094 5.277344 27.242188 5.277344 27.242188 L 9.035156 17.230469 C 9.203125 16.789062 9.617188 16.5 10.089844 16.5 Z M 10.089844 16.5 "/>
</g>
</svg>
