<svg xmlns="http://www.w3.org/2000/svg"  viewBox="0 0 48 48" width="48px" height="48px"><path d="M 12.841797 4 C 11.545797 4 10.410578 4.9194531 10.142578 6.1894531 L 4.3125 33.865234 C 4.1505 34.636234 4.3418906 35.428062 4.8378906 36.039062 C 5.3338906 36.650063 6.0675156 37 6.8535156 37 L 11.265625 37 L 16.482422 12.560547 C 16.923422 10.497547 18.772812 9 20.882812 9 L 34.953125 9 C 34.678125 8.486 34.364234 7.9893906 33.990234 7.5253906 C 32.182234 5.2843906 29.492281 4 26.613281 4 L 12.841797 4 z M 20.882812 12 C 20.178812 12 19.563016 12.4995 19.416016 13.1875 L 17.001953 24.5 L 23.734375 24.5 C 29.270375 24.5 34.137594 20.573109 35.308594 15.162109 L 35.992188 12 L 20.882812 12 z M 39.039062 12.103516 L 38.240234 15.796875 C 36.764234 22.626875 30.722375 27.5 23.734375 27.5 L 16.361328 27.5 L 13.355469 41.582031 C 13.090469 42.826031 14.038547 44 15.310547 44 L 22.5 44 C 23.209 44 23.82275 43.502594 23.96875 42.808594 L 26.140625 32.5 L 32.230469 32.5 C 37.762469 32.5 42.545844 28.640375 43.714844 23.234375 L 43.826172 22.714844 C 44.242172 20.786844 44.152297 18.756641 43.404297 16.931641 C 42.506297 14.740641 40.937062 13.104516 39.039062 12.103516 z"/></svg>