<?xml version="1.0" encoding="UTF-8"?>
<svg xmlns="http://www.w3.org/2000/svg" xmlns:xlink="http://www.w3.org/1999/xlink" width="36pt" height="36pt" viewBox="0 0 36 36" version="1.1">
<g id="surface1289">
<path style=" stroke:none;fill-rule:nonzero;fill:rgb(9.019608%,9.019608%,9.411765%);fill-opacity:1;" d="M 11.917969 5.625 C 10.125 5.625 9.445312 6.566406 9.167969 7.851562 L 5.953125 23.039062 C 5.660156 24.070312 5.625 26.4375 8.4375 26.4375 L 9 26.4375 L 12.109375 13.566406 C 12.351562 12.507812 13.382812 11.375 14.625 11.375 L 26.144531 11.375 C 25.515625 8.230469 23.179688 5.625 20.25 5.628906 C 20.25 5.628906 14.007812 5.625 11.917969 5.625 Z M 26.144531 11.386719 L 26.15625 12.207031 C 26.179688 14.050781 25.351562 15.953125 23.894531 17.433594 C 22.398438 18.945312 20.457031 19.8125 18.5625 19.8125 L 12.410156 19.8125 L 10.496094 28.125 C 10.355469 29.566406 11.453125 30.9375 13.332031 30.9375 L 16.03125 30.9375 C 17.351562 30.9375 18.496094 30.042969 18.777344 28.804688 L 19.664062 26.089844 C 19.703125 25.890625 20.210938 25.3125 20.8125 25.3125 L 23.625 25.3125 C 25.605469 25.3125 27.46875 24.53125 28.867188 23.113281 C 30.230469 21.734375 30.960938 19.953125 30.9375 18.089844 C 30.898438 14.945312 29.175781 12.019531 26.144531 11.386719 Z M 14.625 13.0625 C 14.296875 13.0625 13.855469 13.511719 13.757812 13.9375 L 12.796875 18.125 L 18.5625 18.125 C 20.007812 18.125 21.515625 17.4375 22.691406 16.25 C 23.613281 15.316406 24.210938 14.191406 24.402344 13.0625 Z M 14.625 13.0625 "/>
</g>
</svg>
