<?xml version="1.0" encoding="UTF-8"?>
<svg xmlns="http://www.w3.org/2000/svg" xmlns:xlink="http://www.w3.org/1999/xlink" width="48pt" height="48pt" viewBox="0 0 48 48" version="1.1">
<g id="surface25">
<path style=" stroke:none;fill-rule:nonzero;fill:rgb(9.803922%,9.803922%,9.803922%);fill-opacity:1;" d="M 9 4.5 L 9 15 L 12 15 L 12 7.5 L 36 7.5 L 36 15 L 39 15 L 39 4.5 Z M 12 18 L 12 30 L 15 30 L 15 27 C 17.464844 27 19.5 24.964844 19.5 22.5 C 19.5 20.035156 17.464844 18 15 18 Z M 21 18 L 21 30 L 24.75 30 C 26.824219 30 28.5 28.324219 28.5 26.25 L 28.5 21.75 C 28.5 19.675781 26.824219 18 24.75 18 Z M 30 18 L 30 30 L 33 30 L 33 25.5 L 36 25.5 L 36 22.5 L 33 22.5 L 33 21 L 37.5 21 L 37.5 18 Z M 15 21 C 15.832031 21 16.5 21.667969 16.5 22.5 C 16.5 23.332031 15.832031 24 15 24 Z M 24 21 L 24.75 21 C 25.074219 21 25.5 21.425781 25.5 21.75 L 25.5 26.25 C 25.5 26.574219 25.074219 27 24.75 27 L 24 27 Z M 9 33 L 9 43.5 L 39 43.5 L 39 33 L 36 33 L 36 40.5 L 12 40.5 L 12 33 Z M 9 33 "/>
</g>
</svg>
