<svg xmlns="http://www.w3.org/2000/svg"  viewBox="0 0 64 64" width="64px" height="64px"><path d="M 11 6 L 11 58 L 53 58 L 53 24.154297 C 53 22.117297 52.280703 20.144938 50.970703 18.585938 L 42.109375 8.0429688 C 41.021375 6.7479688 39.416609 6 37.724609 6 L 11 6 z M 15 10 L 36.695312 10 C 39.985312 10 41 11.365078 41 12.580078 C 41 14.365078 39 17 39 17 C 47.724993 21.129645 48.835785 21.437688 48.974609 24 L 15 24 L 15 10 z M 38.683594 27.917969 L 44.285156 27.917969 L 44.285156 29.712891 L 40.509766 29.712891 L 40.509766 31.962891 L 42.912109 31.962891 L 42.912109 33.759766 L 40.509766 33.759766 L 40.509766 38.072266 L 38.685547 38.072266 L 38.683594 27.917969 z M 20.107422 27.919922 L 23.898438 27.919922 C 25.765438 27.919922 26.980469 29.122547 26.980469 31.060547 C 26.980469 33.082547 25.680188 34.214844 23.742188 34.214844 L 21.931641 34.214844 L 21.933594 38.074219 L 20.107422 38.074219 L 20.107422 27.919922 z M 28.822266 27.919922 L 31.763672 27.919922 C 34.535672 27.919922 36.517578 30.068125 36.517578 32.953125 C 36.519578 36.149125 34.453016 38.073219 31.666016 38.074219 L 28.822266 38.074219 L 28.822266 27.919922 z M 30.646484 29.714844 L 30.648438 36.25 L 31.439453 36.25 C 33.433453 36.25 34.677734 34.86375 34.677734 32.96875 C 34.678734 31.04475 33.447453 29.713844 31.439453 29.714844 L 30.646484 29.714844 z M 21.931641 29.716797 L 21.931641 32.404297 L 23.855469 32.404297 C 24.718469 32.404297 25.185547 31.979859 25.185547 31.130859 C 25.186547 30.182859 24.719469 29.715797 23.855469 29.716797 L 21.931641 29.716797 z M 15 42 L 49 42 L 49 54 L 15 54 L 15 42 z"/></svg>