<?xml version="1.0" encoding="UTF-8"?>
<svg xmlns="http://www.w3.org/2000/svg" xmlns:xlink="http://www.w3.org/1999/xlink" width="13.5pt" height="13.5pt" viewBox="0 0 13.5 13.5" version="1.1">
<g id="surface5409">
<path style=" stroke:none;fill-rule:nonzero;fill:rgb(9.019608%,9.019608%,9.411765%);fill-opacity:1;" d="M 2.859375 0.519531 L 2.859375 3.898438 L 1.300781 3.898438 C 0.871094 3.898438 0.519531 4.25 0.519531 4.679688 L 0.519531 9.359375 C 0.519531 9.789062 0.871094 10.140625 1.300781 10.140625 L 2.859375 10.140625 L 2.859375 12.480469 L 10.140625 12.480469 L 10.140625 10.140625 L 11.699219 10.140625 C 12.128906 10.140625 12.480469 9.789062 12.480469 9.359375 L 12.480469 4.679688 C 12.480469 4.25 12.128906 3.898438 11.699219 3.898438 L 10.140625 3.898438 L 10.140625 0.519531 Z M 3.378906 1.039062 L 9.621094 1.039062 L 9.621094 3.898438 L 3.378906 3.898438 Z M 10.660156 5.199219 C 10.949219 5.199219 11.179688 5.433594 11.179688 5.71875 C 11.179688 6.007812 10.949219 6.238281 10.660156 6.238281 C 10.371094 6.238281 10.140625 6.007812 10.140625 5.71875 C 10.140625 5.433594 10.371094 5.199219 10.660156 5.199219 Z M 3.378906 7.800781 L 9.621094 7.800781 L 9.621094 11.960938 L 3.378906 11.960938 Z M 4.421875 8.578125 C 4.328125 8.578125 4.238281 8.628906 4.191406 8.707031 C 4.144531 8.789062 4.144531 8.890625 4.191406 8.972656 C 4.238281 9.050781 4.328125 9.101562 4.421875 9.101562 L 8.578125 9.101562 C 8.671875 9.101562 8.761719 9.050781 8.808594 8.972656 C 8.855469 8.890625 8.855469 8.789062 8.808594 8.707031 C 8.761719 8.628906 8.671875 8.578125 8.578125 8.578125 Z M 4.421875 9.621094 C 4.328125 9.617188 4.238281 9.667969 4.191406 9.75 C 4.144531 9.828125 4.144531 9.929688 4.191406 10.011719 C 4.238281 10.09375 4.328125 10.140625 4.421875 10.140625 L 7.539062 10.140625 C 7.632812 10.140625 7.722656 10.09375 7.769531 10.011719 C 7.816406 9.929688 7.816406 9.828125 7.769531 9.75 C 7.722656 9.667969 7.632812 9.617188 7.539062 9.621094 Z M 4.421875 10.660156 C 4.328125 10.660156 4.238281 10.707031 4.191406 10.789062 C 4.144531 10.871094 4.144531 10.96875 4.191406 11.050781 C 4.238281 11.132812 4.328125 11.179688 4.421875 11.179688 L 8.578125 11.179688 C 8.671875 11.179688 8.761719 11.132812 8.808594 11.050781 C 8.855469 10.96875 8.855469 10.871094 8.808594 10.789062 C 8.761719 10.707031 8.671875 10.660156 8.578125 10.660156 Z M 4.421875 10.660156 "/>
</g>
</svg>
