<?xml version="1.0" encoding="UTF-8"?>
<svg xmlns="http://www.w3.org/2000/svg" xmlns:xlink="http://www.w3.org/1999/xlink" width="13.5pt" height="13.5pt" viewBox="0 0 13.5 13.5" version="1.1">
<g id="surface4761">
<path style=" stroke:none;fill-rule:nonzero;fill:rgb(9.019608%,9.019608%,9.411765%);fill-opacity:1;" d="M 4.671875 2.4375 C 4.222656 2.4375 3.859375 2.800781 3.859375 3.25 L 3.859375 3.453125 L 9.140625 3.453125 L 9.140625 3.25 C 9.140625 2.800781 8.777344 2.4375 8.328125 2.4375 Z M 9.546875 4.0625 L 3.453125 4.0625 C 2.78125 4.0625 2.234375 4.609375 2.234375 5.28125 L 2.234375 8.53125 C 2.234375 9.203125 2.78125 9.75 3.453125 9.75 L 3.859375 9.75 L 3.859375 10.15625 C 3.859375 10.605469 4.222656 10.96875 4.671875 10.96875 L 8.328125 10.96875 C 8.777344 10.96875 9.140625 10.605469 9.140625 10.15625 L 9.140625 9.75 L 9.546875 9.75 C 10.21875 9.75 10.765625 9.203125 10.765625 8.53125 L 10.765625 5.28125 C 10.765625 4.609375 10.21875 4.0625 9.546875 4.0625 Z M 8.125 10.15625 L 4.875 10.15625 C 4.761719 10.15625 4.671875 10.066406 4.671875 9.953125 L 4.671875 7.71875 C 4.671875 7.605469 4.761719 7.515625 4.875 7.515625 L 8.125 7.515625 C 8.238281 7.515625 8.328125 7.605469 8.328125 7.71875 L 8.328125 9.953125 C 8.328125 10.066406 8.238281 10.15625 8.125 10.15625 Z M 8.734375 5.28125 C 8.957031 5.28125 9.140625 5.464844 9.140625 5.6875 C 9.140625 5.910156 8.957031 6.09375 8.734375 6.09375 C 8.511719 6.09375 8.328125 5.910156 8.328125 5.6875 C 8.328125 5.464844 8.511719 5.28125 8.734375 5.28125 Z M 8.734375 5.28125 "/>
</g>
</svg>
