<?xml version="1.0" encoding="UTF-8"?>
<svg xmlns="http://www.w3.org/2000/svg" xmlns:xlink="http://www.w3.org/1999/xlink" width="37.5pt" height="37.5pt" viewBox="0 0 37.5 37.5" version="1.1">
<g id="surface16">
<path style=" stroke:none;fill-rule:nonzero;fill:rgb(9.803922%,9.803922%,9.803922%);fill-opacity:1;" d="M 8.140625 1.480469 L 8.140625 11.101562 L 3.699219 11.101562 C 2.476562 11.101562 1.480469 12.097656 1.480469 13.320312 L 1.480469 26.640625 C 1.480469 27.863281 2.476562 28.859375 3.699219 28.859375 L 8.140625 28.859375 L 8.140625 35.519531 L 28.859375 35.519531 L 28.859375 28.859375 L 33.300781 28.859375 C 34.523438 28.859375 35.519531 27.863281 35.519531 26.640625 L 35.519531 13.320312 C 35.519531 12.097656 34.523438 11.101562 33.300781 11.101562 L 28.859375 11.101562 L 28.859375 1.480469 Z M 9.621094 2.960938 L 27.378906 2.960938 L 27.378906 11.101562 L 9.621094 11.101562 Z M 30.339844 14.800781 C 31.15625 14.800781 31.820312 15.460938 31.820312 16.28125 C 31.820312 17.097656 31.15625 17.761719 30.339844 17.761719 C 29.523438 17.761719 28.859375 17.097656 28.859375 16.28125 C 28.859375 15.460938 29.523438 14.800781 30.339844 14.800781 Z M 9.621094 22.199219 L 27.378906 22.199219 L 27.378906 34.039062 L 9.621094 34.039062 Z M 12.578125 24.421875 C 12.3125 24.417969 12.066406 24.554688 11.929688 24.785156 C 11.796875 25.015625 11.796875 25.300781 11.929688 25.53125 C 12.066406 25.761719 12.3125 25.902344 12.578125 25.898438 L 24.421875 25.898438 C 24.6875 25.902344 24.933594 25.761719 25.070312 25.53125 C 25.203125 25.300781 25.203125 25.015625 25.070312 24.785156 C 24.933594 24.554688 24.6875 24.417969 24.421875 24.421875 Z M 12.578125 27.378906 C 12.3125 27.375 12.066406 27.515625 11.929688 27.746094 C 11.796875 27.976562 11.796875 28.261719 11.929688 28.492188 C 12.066406 28.722656 12.3125 28.863281 12.578125 28.859375 L 21.460938 28.859375 C 21.726562 28.863281 21.976562 28.722656 22.109375 28.492188 C 22.246094 28.261719 22.246094 27.976562 22.109375 27.746094 C 21.976562 27.515625 21.726562 27.375 21.460938 27.378906 Z M 12.578125 30.339844 C 12.3125 30.335938 12.066406 30.476562 11.929688 30.707031 C 11.796875 30.9375 11.796875 31.222656 11.929688 31.453125 C 12.066406 31.683594 12.3125 31.824219 12.578125 31.820312 L 24.421875 31.820312 C 24.6875 31.824219 24.933594 31.683594 25.070312 31.453125 C 25.203125 31.222656 25.203125 30.9375 25.070312 30.707031 C 24.933594 30.476562 24.6875 30.335938 24.421875 30.339844 Z M 12.578125 30.339844 "/>
</g>
</svg>
