<svg xmlns="http://www.w3.org/2000/svg"  viewBox="0 0 48 48" width="48px" height="48px"><path d="M 16.5 5 C 14.032499 5 12 7.0324991 12 9.5 L 12 11 L 10.5 11 C 6.916 11 4 13.916 4 17.5 L 4 31.5 C 4 33.981 6.019 36 8.5 36 L 12 36 L 12 38.5 C 12 40.967501 14.032499 43 16.5 43 L 31.5 43 C 33.967501 43 36 40.967501 36 38.5 L 36 36 L 39.5 36 C 41.981 36 44 33.981 44 31.5 L 44 17.5 C 44 13.916 41.084 11 37.5 11 L 36 11 L 36 9.5 C 36 7.0324991 33.967501 5 31.5 5 L 16.5 5 z M 16.5 8 L 31.5 8 C 32.346499 8 33 8.6535009 33 9.5 L 33 11 L 15 11 L 15 9.5 C 15 8.6535009 15.653501 8 16.5 8 z M 16.5 28 L 31.5 28 C 32.346499 28 33 28.653501 33 29.5 L 33 38.5 C 33 39.346499 32.346499 40 31.5 40 L 16.5 40 C 15.653501 40 15 39.346499 15 38.5 L 15 29.5 C 15 28.653501 15.653501 28 16.5 28 z"/></svg>