<?xml version="1.0" encoding="UTF-8"?>
<svg xmlns="http://www.w3.org/2000/svg" xmlns:xlink="http://www.w3.org/1999/xlink" width="13.5pt" height="13.5pt" viewBox="0 0 13.5 13.5" version="1.1">
<g id="surface7762">
<path style=" stroke:none;fill-rule:nonzero;fill:rgb(9.019608%,9.019608%,9.411765%);fill-opacity:1;" d="M 5.199219 1.039062 C 3.773438 1.039062 2.601562 2.210938 2.601562 3.640625 L 2.601562 8.253906 L 1.851562 7.507812 L 1.121094 8.246094 L 3.121094 10.246094 L 5.117188 8.246094 L 4.386719 7.515625 L 3.640625 8.253906 L 3.640625 3.640625 C 3.640625 2.78125 4.339844 2.078125 5.199219 2.078125 L 8.058594 2.078125 L 8.058594 1.039062 Z M 9.878906 2.753906 L 7.875 4.761719 L 8.613281 5.492188 L 9.359375 4.746094 L 9.359375 9.359375 C 9.359375 10.21875 8.660156 10.921875 7.800781 10.921875 L 4.941406 10.921875 L 4.941406 11.960938 L 7.800781 11.960938 C 9.226562 11.960938 10.398438 10.789062 10.398438 9.359375 L 10.398438 4.746094 L 11.148438 5.492188 L 11.878906 4.753906 Z M 9.878906 2.753906 "/>
</g>
</svg>
