<?xml version="1.0" encoding="UTF-8"?>
<svg xmlns="http://www.w3.org/2000/svg" xmlns:xlink="http://www.w3.org/1999/xlink" width="13.5pt" height="13.5pt" viewBox="0 0 13.5 13.5" version="1.1">
<g id="surface13908">
<path style=" stroke:none;fill-rule:nonzero;fill:rgb(9.019608%,9.019608%,9.411765%);fill-opacity:1;" d="M 9.75 1.945312 C 9.675781 1.953125 9.601562 1.988281 9.550781 2.0625 L 9.007812 2.800781 C 8.058594 2.160156 6.859375 1.871094 5.617188 2.117188 C 3.566406 2.523438 2.050781 4.347656 2.03125 6.4375 C 2.003906 9.148438 4.324219 11.210938 6.945312 10.945312 C 9.253906 10.714844 10.976562 8.765625 10.96875 6.492188 C 10.96875 6.253906 10.757812 6.074219 10.519531 6.097656 C 10.308594 6.117188 10.15625 6.296875 10.15625 6.507812 C 10.15625 8.359375 8.75 9.949219 6.867188 10.136719 C 4.71875 10.351562 2.824219 8.667969 2.84375 6.453125 C 2.859375 4.730469 4.117188 3.230469 5.808594 2.910156 C 6.804688 2.71875 7.761719 2.949219 8.527344 3.460938 L 7.96875 4.222656 C 7.832031 4.414062 7.964844 4.675781 8.199219 4.675781 L 10.472656 4.675781 C 10.664062 4.675781 10.800781 4.488281 10.742188 4.304688 L 10.050781 2.140625 C 10.007812 2.003906 9.875 1.933594 9.75 1.945312 Z M 9.75 1.945312 "/>
</g>
</svg>
