<svg xmlns="http://www.w3.org/2000/svg"  viewBox="0 0 64 64" width="64px" height="64px"><path d="M 11.001953 6 L 11.001953 58 L 53.001953 58 L 53.001953 24.146484 C 53.001953 22.119484 52.284609 20.147891 50.974609 18.587891 L 42.111328 8.0390625 C 41.023328 6.7460625 39.418563 6 37.726562 6 L 11.001953 6 z M 15.001953 10 L 36.697266 10 C 39.988266 10 41.001953 11.359266 41.001953 12.572266 C 41.001953 14.359266 39.001953 17 39.001953 17 C 48.762953 21.613 49.001953 21.427 49.001953 25 L 49.001953 54 L 15.001953 54 L 15.001953 10 z M 27.998047 29 C 26.342047 29 24.996094 30.347 24.996094 32 C 24.996094 32.391781 25.0775 32.76388 25.214844 33.107422 L 22.367188 35.599609 C 23.210188 36.053609 23.907094 36.745937 24.371094 37.585938 L 26.865234 34.775391 C 27.2151 34.918595 27.59702 35 27.998047 35 C 29.654047 35 31 33.654 31 32 C 31 30.347 29.654047 29 27.998047 29 z M 43.996094 29 C 42.340094 29 40.996094 30.347 40.996094 32 C 40.996094 32.391803 41.077486 32.763864 41.214844 33.107422 L 38.369141 35.599609 C 39.212141 36.052609 39.909047 36.745266 40.373047 37.572266 L 42.861328 34.773438 C 43.212236 34.917641 43.593594 35 43.996094 35 C 45.652094 35 46.998047 33.654 46.998047 32 C 46.998047 30.347 45.652094 29 43.996094 29 z M 32.341797 34.480469 C 31.904797 35.240469 31.268859 35.879031 30.505859 36.332031 L 33.103516 39.251953 C 33.041108 39.492546 32.996094 39.740257 32.996094 40 C 32.996094 41.653 34.342047 43 35.998047 43 C 37.654047 43 39 41.653 39 40 C 39 38.347 37.654047 37 35.998047 37 C 35.763142 37 35.537797 37.032748 35.318359 37.083984 L 32.341797 34.480469 z M 19.994141 37 C 18.338141 37 16.994141 38.347 16.994141 40 C 16.994141 41.653 18.338141 43 19.994141 43 C 21.651141 43 22.996094 41.653 22.996094 40 C 22.996094 38.347 21.650141 37 19.994141 37 z"/></svg>