<?xml version="1.0" encoding="UTF-8"?>
<svg xmlns="http://www.w3.org/2000/svg" xmlns:xlink="http://www.w3.org/1999/xlink" width="36pt" height="36pt" viewBox="0 0 36 36" version="1.1">
<g id="surface17">
<path style=" stroke:none;fill-rule:nonzero;fill:rgb(9.803922%,9.803922%,9.803922%);fill-opacity:1;" d="M 9.375 3 C 7.515625 3 6 4.515625 6 6.375 L 6 29.625 C 6 31.484375 7.515625 33 9.375 33 L 18.75 33 L 18.75 30.75 L 9.375 30.75 C 8.753906 30.75 8.25 30.246094 8.25 29.625 L 8.25 6.375 C 8.25 5.753906 8.753906 5.25 9.375 5.25 L 18 5.25 L 18 11.625 C 18 13.484375 19.515625 15 21.375 15 L 27.75 15 L 27.75 22.011719 C 28.09375 21.847656 28.472656 21.75 28.875 21.75 C 29.277344 21.75 29.65625 21.847656 30 22.011719 L 30 13.875 C 30 13.5625 29.875 13.28125 29.671875 13.078125 L 19.921875 3.328125 C 19.71875 3.125 19.4375 3 19.125 3 Z M 20.25 6.839844 L 26.160156 12.75 L 21.375 12.75 C 20.753906 12.75 20.25 12.246094 20.25 11.625 Z M 32.605469 21.734375 C 31.988281 21.742188 31.492188 22.253906 31.5 22.875 L 31.5 33.375 C 31.496094 33.78125 31.707031 34.15625 32.058594 34.363281 C 32.410156 34.566406 32.839844 34.566406 33.191406 34.363281 C 33.542969 34.15625 33.753906 33.78125 33.75 33.375 L 33.75 22.875 C 33.753906 22.570312 33.636719 22.277344 33.421875 22.0625 C 33.203125 21.847656 32.910156 21.730469 32.605469 21.734375 Z M 28.855469 23.234375 C 28.238281 23.242188 27.742188 23.753906 27.75 24.375 L 27.75 33.375 C 27.746094 33.78125 27.957031 34.15625 28.308594 34.363281 C 28.660156 34.566406 29.089844 34.566406 29.441406 34.363281 C 29.792969 34.15625 30.003906 33.78125 30 33.375 L 30 24.375 C 30.003906 24.070312 29.886719 23.777344 29.671875 23.5625 C 29.453125 23.347656 29.160156 23.230469 28.855469 23.234375 Z M 25.105469 25.484375 C 24.488281 25.492188 23.992188 26.003906 24 26.625 L 24 33.375 C 23.996094 33.78125 24.207031 34.15625 24.558594 34.363281 C 24.910156 34.566406 25.339844 34.566406 25.691406 34.363281 C 26.042969 34.15625 26.253906 33.78125 26.25 33.375 L 26.25 26.625 C 26.253906 26.320312 26.136719 26.027344 25.921875 25.8125 C 25.703125 25.597656 25.410156 25.480469 25.105469 25.484375 Z M 21.355469 27.734375 C 20.738281 27.742188 20.242188 28.253906 20.25 28.875 L 20.25 33.375 C 20.246094 33.78125 20.457031 34.15625 20.808594 34.363281 C 21.160156 34.566406 21.589844 34.566406 21.941406 34.363281 C 22.292969 34.15625 22.503906 33.78125 22.5 33.375 L 22.5 28.875 C 22.503906 28.570312 22.386719 28.277344 22.171875 28.0625 C 21.953125 27.847656 21.660156 27.730469 21.355469 27.734375 Z M 21.355469 27.734375 "/>
</g>
</svg>
