<?xml version="1.0" encoding="UTF-8"?>
<svg xmlns="http://www.w3.org/2000/svg" xmlns:xlink="http://www.w3.org/1999/xlink" width="13.5pt" height="13.5pt" viewBox="0 0 13.5 13.5" version="1.1">
<g id="surface7127">
<path style=" stroke:none;fill-rule:nonzero;fill:rgb(9.019608%,9.019608%,9.411765%);fill-opacity:1;" d="M 2.078125 1.039062 C 1.636719 1.039062 1.300781 1.378906 1.300781 1.820312 L 1.300781 11.179688 C 1.300781 11.621094 1.636719 11.960938 2.078125 11.960938 L 11.441406 11.960938 C 11.882812 11.960938 12.21875 11.621094 12.21875 11.179688 L 12.21875 3.433594 C 12.21875 3.355469 12.195312 3.300781 12.140625 3.25 L 10.011719 1.117188 C 9.957031 1.066406 9.90625 1.039062 9.828125 1.039062 Z M 3.378906 1.558594 L 9.621094 1.558594 L 9.621094 4.679688 C 9.621094 4.964844 9.386719 5.199219 9.101562 5.199219 L 3.898438 5.199219 C 3.613281 5.199219 3.378906 4.964844 3.378906 4.679688 Z M 7.539062 2.339844 L 7.539062 4.421875 L 8.578125 4.421875 L 8.578125 2.339844 Z M 3.898438 7.019531 L 9.621094 7.019531 C 9.90625 7.019531 10.140625 7.253906 10.140625 7.539062 L 10.140625 11.441406 L 3.378906 11.441406 L 3.378906 7.539062 C 3.378906 7.253906 3.613281 7.019531 3.898438 7.019531 Z M 2.078125 10.660156 L 2.601562 10.660156 L 2.601562 11.179688 L 2.078125 11.179688 Z M 10.921875 10.660156 L 11.441406 10.660156 L 11.441406 11.179688 L 10.921875 11.179688 Z M 10.921875 10.660156 "/>
</g>
</svg>
