<?xml version="1.0" encoding="UTF-8"?>
<svg xmlns="http://www.w3.org/2000/svg" xmlns:xlink="http://www.w3.org/1999/xlink" width="13.5pt" height="13.5pt" viewBox="0 0 13.5 13.5" version="1.1">
<g id="surface4818">
<path style=" stroke:none;fill-rule:nonzero;fill:rgb(9.019608%,9.019608%,9.411765%);fill-opacity:1;" d="M 3.65625 2.4375 C 2.984375 2.4375 2.4375 2.984375 2.4375 3.65625 L 2.4375 9.34375 C 2.4375 10.015625 2.984375 10.5625 3.65625 10.5625 L 9.34375 10.5625 C 10.015625 10.5625 10.5625 10.015625 10.5625 9.34375 L 10.5625 3.859375 C 10.5625 3.75 10.519531 3.648438 10.441406 3.574219 L 9.425781 2.558594 C 9.351562 2.480469 9.25 2.4375 9.140625 2.4375 L 8.53125 2.4375 L 8.53125 4.671875 C 8.53125 5.007812 8.257812 5.28125 7.921875 5.28125 L 4.875 5.28125 C 4.539062 5.28125 4.265625 5.007812 4.265625 4.671875 L 4.265625 2.4375 Z M 6.703125 2.640625 C 6.589844 2.640625 6.5 2.730469 6.5 2.84375 L 6.5 4.46875 C 6.5 4.582031 6.589844 4.671875 6.703125 4.671875 L 7.3125 4.671875 C 7.425781 4.671875 7.515625 4.582031 7.515625 4.46875 L 7.515625 2.84375 C 7.515625 2.730469 7.425781 2.640625 7.3125 2.640625 Z M 4.671875 7.109375 L 8.328125 7.109375 C 8.664062 7.109375 8.9375 7.382812 8.9375 7.71875 L 8.9375 9.75 L 4.0625 9.75 L 4.0625 7.71875 C 4.0625 7.382812 4.335938 7.109375 4.671875 7.109375 Z M 4.671875 7.109375 "/>
</g>
</svg>
