<?xml version="1.0" encoding="UTF-8"?>
<svg xmlns="http://www.w3.org/2000/svg" xmlns:xlink="http://www.w3.org/1999/xlink" width="37.5pt" height="37.5pt" viewBox="0 0 37.5 37.5" version="1.1">
<g id="surface15">
<path style=" stroke:none;fill-rule:nonzero;fill:rgb(9.803922%,9.803922%,9.803922%);fill-opacity:1;" d="M 5.921875 2.960938 C 4.660156 2.960938 3.699219 3.921875 3.699219 5.179688 L 3.699219 31.820312 C 3.699219 33.078125 4.660156 34.039062 5.921875 34.039062 L 32.558594 34.039062 C 33.816406 34.039062 34.78125 33.078125 34.78125 31.820312 L 34.78125 9.765625 C 34.78125 9.546875 34.707031 9.398438 34.558594 9.25 L 28.488281 3.183594 C 28.34375 3.035156 28.195312 2.960938 27.972656 2.960938 Z M 9.621094 4.441406 L 27.378906 4.441406 L 27.378906 13.320312 C 27.378906 14.132812 26.714844 14.800781 25.898438 14.800781 L 11.101562 14.800781 C 10.285156 14.800781 9.621094 14.132812 9.621094 13.320312 Z M 21.460938 6.660156 L 21.460938 12.578125 L 24.421875 12.578125 L 24.421875 6.660156 Z M 11.101562 19.980469 L 27.378906 19.980469 C 28.195312 19.980469 28.859375 20.644531 28.859375 21.460938 L 28.859375 32.558594 L 9.621094 32.558594 L 9.621094 21.460938 C 9.621094 20.644531 10.285156 19.980469 11.101562 19.980469 Z M 5.921875 30.339844 L 7.398438 30.339844 L 7.398438 31.820312 L 5.921875 31.820312 Z M 31.078125 30.339844 L 32.558594 30.339844 L 32.558594 31.820312 L 31.078125 31.820312 Z M 31.078125 30.339844 "/>
</g>
</svg>
