<svg xmlns="http://www.w3.org/2000/svg"  viewBox="0 0 48 48" width="48px" height="48px"><path d="M 14.476562 5.9785156 A 1.50015 1.50015 0 0 0 14.257812 6 L 11.5 6 C 8.4802259 6 6 8.4802259 6 11.5 L 6 36.5 C 6 39.519774 8.4802259 42 11.5 42 L 13.253906 42 A 1.50015 1.50015 0 0 0 13.740234 42 L 34.253906 42 A 1.50015 1.50015 0 0 0 34.740234 42 L 36.5 42 C 39.519774 42 42 39.519774 42 36.5 L 42 15.5 A 1.50015 1.50015 0 0 0 41.496094 14.378906 L 32.496094 6.3789062 A 1.50015 1.50015 0 0 0 31.5 6 L 30.746094 6 A 1.50015 1.50015 0 0 0 30.259766 6 L 14.746094 6 A 1.50015 1.50015 0 0 0 14.476562 5.9785156 z M 11.5 9 L 13 9 L 13 14.5 C 13 16.414955 14.585045 18 16.5 18 L 28.5 18 C 30.414955 18 32 16.414955 32 14.5 L 32 9.9511719 L 39 16.173828 L 39 36.5 C 39 37.898226 37.898226 39 36.5 39 L 36 39 L 36 27.5 C 36 25.585045 34.414955 24 32.5 24 L 15.5 24 C 13.585045 24 12 25.585045 12 27.5 L 12 39 L 11.5 39 C 10.101774 39 9 37.898226 9 36.5 L 9 11.5 C 9 10.101774 10.101774 9 11.5 9 z M 16 9 L 29 9 L 29 14.5 C 29 14.795045 28.795045 15 28.5 15 L 16.5 15 C 16.204955 15 16 14.795045 16 14.5 L 16 9 z M 15.5 27 L 32.5 27 C 32.795045 27 33 27.204955 33 27.5 L 33 39 L 15 39 L 15 27.5 C 15 27.204955 15.204955 27 15.5 27 z"/></svg>