<?xml version="1.0" encoding="UTF-8" standalone="no"?>
<!DOCTYPE svg PUBLIC "-//W3C//DTD SVG 1.1//EN" "http://www.w3.org/Graphics/SVG/1.1/DTD/svg11.dtd">
<svg width="100%" height="100%" viewBox="0 0 2048 2048" version="1.1" xmlns="http://www.w3.org/2000/svg" xmlns:xlink="http://www.w3.org/1999/xlink" xml:space="preserve" xmlns:serif="http://www.serif.com/" style="fill-rule:evenodd;clip-rule:evenodd;stroke-linejoin:round;stroke-miterlimit:2;">
    <g transform="matrix(-1,0,0,1,2048,0)">
        <path d="M1344,0C1408.67,0 1471,8.333 1531,25C1591,41.667 1647,65.333 1699,96C1751,126.667 1798.33,163.333 1841,206C1883.67,248.667 1920.67,296.333 1952,349C1983.33,401.667 2007,457.667 2023,517C2039,576.333 2047.33,638.667 2048,704C2048,768.667 2039.67,831 2023,891C2006.33,951 1982.67,1007 1952,1059C1921.33,1111 1884.67,1158.33 1842,1201C1799.33,1243.67 1751.67,1280.67 1699,1312C1646.33,1343.33 1590.33,1367 1531,1383C1471.67,1399 1409.33,1407.33 1344,1408C1260.67,1408 1181,1394 1105,1366C1029,1338 958.667,1297.67 894,1245L109,2029C96.333,2041.67 81.333,2048 64,2048C46.667,2048 31.667,2041.67 19,2029C6.333,2016.33 0,2001.33 0,1984C0,1966.67 6.333,1951.67 19,1939L803,1154C750.333,1090 710,1020 682,944C654,868 640,788 640,704C640,639.333 648.333,577 665,517C681.667,457 705.333,401 736,349C766.667,297 803.333,249.667 846,207C888.667,164.333 936.333,127.333 989,96C1041.67,64.667 1097.67,41 1157,25C1216.33,9 1278.67,0.667 1344,0ZM1344,1280C1423.33,1280 1498,1265 1568,1235C1638,1205 1699,1163.67 1751,1111C1803,1058.33 1844,997.333 1874,928C1904,858.667 1919.33,784 1920,704C1920,624.667 1905,550 1875,480C1845,410 1803.67,349 1751,297C1698.33,245 1637.33,204 1568,174C1498.67,144 1424,128.667 1344,128C1264.67,128 1190,143 1120,173C1050,203 989,244.333 937,297C885,349.667 844,410.667 814,480C784,549.333 768.667,624 768,704C768,783.333 783,858 813,928C843,998 884.333,1059 937,1111C989.667,1163 1050.67,1204 1120,1234C1189.33,1264 1264,1279.33 1344,1280Z" style="fill:rgb(51,51,51);fill-rule:nonzero;"/>
    </g>
</svg>
