<?xml version="1.0" encoding="UTF-8"?>
<svg xmlns="http://www.w3.org/2000/svg" xmlns:xlink="http://www.w3.org/1999/xlink" width="12pt" height="12pt" viewBox="0 0 12 12" version="1.1">
<g id="surface3330">
<path style=" stroke:none;fill-rule:nonzero;fill:rgb(9.803922%,9.803922%,9.803922%);fill-opacity:1;" d="M 1.359375 1 C 1.242188 1.003906 1.128906 1.066406 1.0625 1.167969 C 0.996094 1.269531 0.980469 1.398438 1.023438 1.511719 L 2.398438 5.0625 C 2.449219 5.183594 2.558594 5.273438 2.691406 5.296875 L 6.425781 5.902344 C 6.519531 5.917969 6.507812 5.941406 6.507812 6 C 6.507812 6.058594 6.519531 6.082031 6.425781 6.097656 L 2.691406 6.703125 C 2.558594 6.726562 2.449219 6.816406 2.398438 6.9375 L 1.023438 10.488281 C 0.96875 10.632812 1.007812 10.796875 1.121094 10.902344 C 1.238281 11.007812 1.402344 11.03125 1.542969 10.960938 L 10.792969 6.335938 C 10.917969 6.273438 11 6.140625 11 6 C 11 5.859375 10.917969 5.726562 10.792969 5.664062 L 1.542969 1.039062 C 1.484375 1.011719 1.425781 1 1.359375 1 Z M 1.359375 1 "/>
</g>
</svg>
