<svg xmlns="http://www.w3.org/2000/svg"  viewBox="0 0 48 48" width="48px" height="48px"><path d="M 21.476562 5.9785156 A 1.50015 1.50015 0 0 0 21.259766 6 L 10.5 6 C 7.4802259 6 5 8.4802259 5 11.5 L 5 36.5 C 5 39.519774 7.4802259 42 10.5 42 L 21.253906 42 A 1.50015 1.50015 0 0 0 21.740234 42 L 37.5 42 C 40.519774 42 43 39.519774 43 36.5 L 43 11.5 C 43 8.4802259 40.519774 6 37.5 6 L 21.746094 6 A 1.50015 1.50015 0 0 0 21.476562 5.9785156 z M 10.5 9 L 20 9 L 20 23.730469 A 1.50015 1.50015 0 0 0 20 24.224609 L 20 39 L 10.5 39 C 9.1017741 39 8 37.898226 8 36.5 L 8 11.5 C 8 10.101774 9.1017741 9 10.5 9 z M 23 9 L 37.5 9 C 38.898226 9 40 10.101774 40 11.5 L 40 36.5 C 40 37.898226 38.898226 39 37.5 39 L 23 39 L 23 25.484375 L 28.882812 25.496094 L 26.939453 27.439453 A 1.50015 1.50015 0 1 0 29.060547 29.560547 L 33.560547 25.060547 A 1.50015 1.50015 0 0 0 33.560547 22.939453 L 29.060547 18.439453 A 1.50015 1.50015 0 0 0 27.984375 17.984375 A 1.50015 1.50015 0 0 0 26.939453 20.560547 L 28.875 22.496094 L 23 22.484375 L 23 9 z M 11.5 12 A 1.50015 1.50015 0 1 0 11.5 15 L 16.5 15 A 1.50015 1.50015 0 1 0 16.5 12 L 11.5 12 z M 11.5 17 A 1.50015 1.50015 0 1 0 11.5 20 L 16.5 20 A 1.50015 1.50015 0 1 0 16.5 17 L 11.5 17 z M 11.5 22 A 1.50015 1.50015 0 1 0 11.5 25 L 16.5 25 A 1.50015 1.50015 0 1 0 16.5 22 L 11.5 22 z"/></svg>