<svg xmlns="http://www.w3.org/2000/svg"  viewBox="0 0 48 48" width="48px" height="48px"><path d="M 32.978516 4.9804688 A 2.0002 2.0002 0 0 0 31.585938 8.4140625 L 36.171875 13 L 7 13 A 2.0002 2.0002 0 1 0 7 17 L 36.171875 17 L 31.585938 21.585938 A 2.0002 2.0002 0 1 0 34.414062 24.414062 L 42.414062 16.414062 A 2.0002 2.0002 0 0 0 42.414062 13.585938 L 34.414062 5.5859375 A 2.0002 2.0002 0 0 0 32.978516 4.9804688 z M 14.960938 22.980469 A 2.0002 2.0002 0 0 0 13.585938 23.585938 L 5.5859375 31.585938 A 2.0002 2.0002 0 0 0 5.5859375 34.414062 L 13.585938 42.414062 A 2.0002 2.0002 0 1 0 16.414062 39.585938 L 11.828125 35 L 41 35 A 2.0002 2.0002 0 1 0 41 31 L 11.828125 31 L 16.414062 26.414062 A 2.0002 2.0002 0 0 0 14.960938 22.980469 z"/></svg>