<?xml version="1.0" encoding="UTF-8"?>
<svg xmlns="http://www.w3.org/2000/svg" xmlns:xlink="http://www.w3.org/1999/xlink" width="37.5pt" height="37.5pt" viewBox="0 0 37.5 37.5" version="1.1">
<g id="surface234">
<path style=" stroke:none;fill-rule:nonzero;fill:rgb(9.803922%,9.803922%,9.803922%);fill-opacity:1;" d="M 27.449219 0.0703125 C 26.875 0.125 26.382812 0.511719 26.195312 1.058594 C 26.003906 1.605469 26.152344 2.214844 26.570312 2.613281 L 31.359375 7.398438 L 1.480469 7.398438 C 1.433594 7.398438 1.386719 7.398438 1.339844 7.398438 C 0.523438 7.4375 -0.105469 8.132812 -0.0703125 8.949219 C -0.03125 9.765625 0.660156 10.398438 1.480469 10.359375 L 31.359375 10.359375 L 26.570312 15.148438 C 26.183594 15.515625 26.023438 16.066406 26.15625 16.585938 C 26.289062 17.105469 26.691406 17.511719 27.210938 17.648438 C 27.726562 17.789062 28.277344 17.636719 28.652344 17.25 L 37.023438 8.878906 L 28.652344 0.507812 C 28.339844 0.1875 27.898438 0.0273438 27.449219 0.0703125 Z M 9.25 19.308594 C 8.914062 19.351562 8.605469 19.507812 8.371094 19.75 L 0 28.121094 L 8.371094 36.492188 C 8.742188 36.875 9.296875 37.027344 9.8125 36.890625 C 10.332031 36.75 10.734375 36.34375 10.867188 35.828125 C 11 35.304688 10.839844 34.757812 10.453125 34.386719 L 5.664062 29.601562 L 35.519531 29.601562 C 36.054688 29.609375 36.550781 29.328125 36.816406 28.867188 C 37.089844 28.40625 37.089844 27.832031 36.816406 27.375 C 36.550781 26.910156 36.054688 26.632812 35.519531 26.640625 L 5.664062 26.640625 L 10.453125 21.851562 C 10.917969 21.414062 11.046875 20.722656 10.773438 20.144531 C 10.5 19.566406 9.886719 19.226562 9.25 19.308594 Z M 9.25 19.308594 "/>
</g>
</svg>
