<?xml version="1.0" encoding="UTF-8"?>
<svg xmlns="http://www.w3.org/2000/svg" xmlns:xlink="http://www.w3.org/1999/xlink" width="72pt" height="72pt" viewBox="0 0 72 72" version="1.1">
<g id="surface11">
<path style=" stroke:none;fill-rule:nonzero;fill:rgb(9.803922%,9.803922%,9.803922%);fill-opacity:1;" d="M 36 6 C 30.738281 6 26.355469 9.933594 25.621094 15 L 15.355469 15 C 15.230469 14.976562 15.101562 14.96875 14.972656 14.96875 C 14.859375 14.96875 14.746094 14.980469 14.636719 15 L 9.75 15 C 8.9375 14.988281 8.183594 15.414062 7.773438 16.117188 C 7.367188 16.816406 7.367188 17.683594 7.773438 18.382812 C 8.183594 19.085938 8.9375 19.511719 9.75 19.5 L 12.957031 19.5 L 16.734375 58.542969 C 17.140625 62.753906 20.71875 66 24.945312 66 L 47.050781 66 C 51.28125 66 54.855469 62.753906 55.261719 58.542969 L 59.042969 19.5 L 62.25 19.5 C 63.0625 19.511719 63.816406 19.085938 64.226562 18.382812 C 64.632812 17.683594 64.632812 16.816406 64.226562 16.117188 C 63.816406 15.414062 63.0625 14.988281 62.25 15 L 57.367188 15 C 57.128906 14.960938 56.882812 14.960938 56.644531 15 L 46.378906 15 C 45.644531 9.933594 41.261719 6 36 6 Z M 36 10.5 C 38.820312 10.5 41.132812 12.402344 41.792969 15 L 30.207031 15 C 30.867188 12.402344 33.179688 10.5 36 10.5 Z M 17.476562 19.5 L 54.519531 19.5 L 50.785156 58.109375 C 50.59375 60.054688 49 61.5 47.050781 61.5 L 24.945312 61.5 C 22.996094 61.5 21.402344 60.050781 21.214844 58.109375 Z M 30.714844 26.96875 C 29.472656 26.988281 28.480469 28.007812 28.5 29.25 L 28.5 51.75 C 28.488281 52.5625 28.914062 53.316406 29.617188 53.726562 C 30.316406 54.132812 31.183594 54.132812 31.882812 53.726562 C 32.585938 53.316406 33.011719 52.5625 33 51.75 L 33 29.25 C 33.007812 28.640625 32.769531 28.054688 32.339844 27.625 C 31.910156 27.195312 31.324219 26.957031 30.714844 26.96875 Z M 41.214844 26.96875 C 39.972656 26.988281 38.980469 28.007812 39 29.25 L 39 51.75 C 38.988281 52.5625 39.414062 53.316406 40.117188 53.726562 C 40.816406 54.132812 41.683594 54.132812 42.382812 53.726562 C 43.085938 53.316406 43.511719 52.5625 43.5 51.75 L 43.5 29.25 C 43.507812 28.640625 43.269531 28.054688 42.839844 27.625 C 42.410156 27.195312 41.824219 26.957031 41.214844 26.96875 Z M 41.214844 26.96875 "/>
</g>
</svg>
