<?xml version="1.0" encoding="UTF-8"?>
<svg xmlns="http://www.w3.org/2000/svg" xmlns:xlink="http://www.w3.org/1999/xlink" width="37.5pt" height="37.5pt" viewBox="0 0 37.5 37.5" version="1.1">
<g id="surface224">
<path style=" stroke:none;fill-rule:nonzero;fill:rgb(9.803922%,9.803922%,9.803922%);fill-opacity:1;" d="M 16.859375 0 C 15.988281 -0.00390625 15.101562 0.121094 14.222656 0.394531 C 9.546875 1.84375 6.875 6.859375 8.324219 11.539062 L 8.324219 11.585938 C 8.515625 12.113281 9.027344 13.777344 9.34375 14.800781 L 6.660156 14.800781 C 5.402344 14.800781 4.441406 15.761719 4.441406 17.019531 L 4.441406 34.78125 C 4.441406 36.039062 5.402344 37 6.660156 37 L 30.339844 37 C 31.597656 37 32.558594 36.039062 32.558594 34.78125 L 32.558594 17.019531 C 32.558594 15.761719 31.597656 14.800781 30.339844 14.800781 L 10.914062 14.800781 C 10.6875 14.066406 10 11.894531 9.710938 11.101562 L 9.734375 11.101562 C 8.523438 7.195312 10.730469 3.039062 14.636719 1.828125 C 18.539062 0.617188 22.714844 2.808594 23.933594 6.707031 C 23.933594 6.710938 23.933594 6.726562 23.933594 6.730469 C 24.101562 7.316406 24.90625 9.921875 24.90625 9.921875 C 24.972656 10.1875 25.179688 10.398438 25.445312 10.460938 C 25.714844 10.527344 25.996094 10.441406 26.175781 10.234375 C 26.359375 10.027344 26.414062 9.738281 26.316406 9.480469 C 26.316406 9.480469 25.480469 6.789062 25.34375 6.3125 L 25.34375 6.289062 C 24.257812 2.785156 21.164062 0.402344 17.714844 0.046875 C 17.425781 0.015625 17.148438 0 16.859375 0 Z M 18.5 22.199219 C 19.757812 22.199219 20.71875 23.164062 20.71875 24.421875 C 20.71875 25.085938 20.425781 25.667969 19.980469 26.039062 L 19.980469 28.121094 C 19.980469 28.933594 19.316406 29.601562 18.5 29.601562 C 17.683594 29.601562 17.019531 28.933594 17.019531 28.121094 L 17.019531 26.039062 C 16.574219 25.667969 16.28125 25.085938 16.28125 24.421875 C 16.28125 23.164062 17.242188 22.199219 18.5 22.199219 Z M 18.5 22.199219 "/>
</g>
</svg>
