<?xml version="1.0" encoding="UTF-8"?>
<svg xmlns="http://www.w3.org/2000/svg" xmlns:xlink="http://www.w3.org/1999/xlink" width="13.5pt" height="13.5pt" viewBox="0 0 13.5 13.5" version="1.1">
<g id="surface7383">
<path style=" stroke:none;fill-rule:nonzero;fill:rgb(9.019608%,9.019608%,9.411765%);fill-opacity:1;" d="M 4.921875 3.339844 C 2.320312 4.042969 0.417969 6.21875 0.324219 6.328125 C 0.242188 6.425781 0.242188 6.574219 0.324219 6.671875 C 0.4375 6.800781 3.117188 9.878906 6.5 9.878906 C 9.882812 9.878906 12.5625 6.800781 12.675781 6.671875 C 12.757812 6.574219 12.757812 6.425781 12.675781 6.328125 C 12.582031 6.21875 10.679688 4.042969 8.078125 3.339844 C 8.847656 3.851562 9.359375 4.726562 9.359375 5.71875 C 9.359375 7.300781 8.078125 8.578125 6.5 8.578125 C 4.921875 8.578125 3.640625 7.300781 3.640625 5.71875 C 3.640625 4.726562 4.152344 3.851562 4.921875 3.339844 Z M 6.5 4.421875 C 5.78125 4.421875 5.199219 5 5.199219 5.71875 C 5.199219 6.4375 5.78125 7.019531 6.5 7.019531 C 7.21875 7.019531 7.800781 6.4375 7.800781 5.71875 C 7.800781 5 7.21875 4.421875 6.5 4.421875 Z M 6.5 4.421875 "/>
</g>
</svg>
