<?xml version="1.0" encoding="UTF-8"?>
<svg xmlns="http://www.w3.org/2000/svg" xmlns:xlink="http://www.w3.org/1999/xlink" width="36pt" height="36pt" viewBox="0 0 36 36" version="1.1">
<g id="surface1241">
<path style=" stroke:none;fill-rule:nonzero;fill:rgb(9.019608%,9.019608%,9.411765%);fill-opacity:1;" d="M 18 7.875 C 9.84375 7.875 2.8125 14.667969 2.8125 18 C 2.8125 21.332031 9.84375 28.125 18 28.125 C 26.15625 28.125 33.1875 21.332031 33.1875 18 C 33.1875 14.667969 26.15625 7.875 18 7.875 Z M 18 11.25 C 21.726562 11.25 24.75 14.273438 24.75 18 C 24.75 21.726562 21.726562 24.75 18 24.75 C 14.273438 24.75 11.25 21.726562 11.25 18 C 11.25 14.273438 14.273438 11.25 18 11.25 Z M 18 15.1875 C 16.445312 15.1875 15.1875 16.445312 15.1875 18 C 15.1875 19.554688 16.445312 20.8125 18 20.8125 C 19.554688 20.8125 20.8125 19.554688 20.8125 18 C 20.8125 16.445312 19.554688 15.1875 18 15.1875 Z M 18 15.1875 "/>
</g>
</svg>
