<?xml version="1.0" encoding="UTF-8"?>
<svg xmlns="http://www.w3.org/2000/svg" xmlns:xlink="http://www.w3.org/1999/xlink" width="13.5pt" height="13.5pt" viewBox="0 0 13.5 13.5" version="1.1">
<g id="surface4229">
<path style=" stroke:none;fill-rule:nonzero;fill:rgb(9.019608%,9.019608%,9.411765%);fill-opacity:1;" d="M 6.5 2.859375 C 3.460938 2.859375 1.039062 5.472656 1.039062 6.5 C 1.039062 7.527344 3.460938 10.140625 6.5 10.140625 C 9.539062 10.140625 11.960938 7.527344 11.960938 6.5 C 11.960938 5.472656 9.539062 2.859375 6.5 2.859375 Z M 6.5 4.160156 C 7.792969 4.160156 8.839844 5.207031 8.839844 6.5 C 8.839844 7.792969 7.792969 8.839844 6.5 8.839844 C 5.207031 8.839844 4.160156 7.792969 4.160156 6.5 C 4.160156 5.207031 5.207031 4.160156 6.5 4.160156 Z M 6.5 5.71875 C 6.070312 5.71875 5.71875 6.070312 5.71875 6.5 C 5.71875 6.929688 6.070312 7.28125 6.5 7.28125 C 6.929688 7.28125 7.28125 6.929688 7.28125 6.5 C 7.28125 6.070312 6.929688 5.71875 6.5 5.71875 Z M 6.5 5.71875 "/>
</g>
</svg>
