<?xml version="1.0" encoding="UTF-8"?>
<svg xmlns="http://www.w3.org/2000/svg" xmlns:xlink="http://www.w3.org/1999/xlink" width="36pt" height="36pt" viewBox="0 0 36 36" version="1.1">
<g id="surface1384">
<path style=" stroke:none;fill-rule:nonzero;fill:rgb(9.019608%,9.019608%,9.411765%);fill-opacity:1;" d="M 17.992188 5.058594 C 10.855469 5.058594 5.050781 10.863281 5.050781 17.996094 C 5.050781 25.132812 10.859375 30.9375 17.992188 30.9375 C 19.203125 30.9375 20.375 30.765625 21.488281 30.453125 C 20.488281 29.460938 20.707031 28.628906 20.707031 25.480469 C 20.210938 26.761719 19.617188 27.691406 19.027344 28.207031 L 19.027344 24.570312 C 19.597656 24.613281 20.152344 24.691406 20.703125 24.792969 L 20.703125 22.515625 C 20.152344 22.425781 19.59375 22.355469 19.027344 22.320312 L 19.027344 19.125 L 21.898438 19.125 C 21.882812 19.503906 21.859375 19.871094 21.828125 20.230469 C 22.507812 19.761719 23.292969 19.640625 24.105469 19.910156 C 24.125 19.648438 24.140625 19.390625 24.148438 19.125 L 28.621094 19.125 C 28.480469 20.46875 28.078125 21.734375 27.480469 22.882812 L 29.144531 24.546875 C 30.277344 22.625 30.933594 20.386719 30.933594 17.996094 C 30.933594 10.863281 25.128906 5.058594 17.992188 5.058594 Z M 19.027344 7.800781 C 19.679688 8.371094 20.34375 9.441406 20.867188 10.949219 C 20.265625 11.0625 19.652344 11.152344 19.027344 11.195312 Z M 16.777344 7.96875 L 16.777344 11.199219 C 16.210938 11.160156 15.65625 11.082031 15.105469 10.984375 C 15.585938 9.59375 16.179688 8.574219 16.777344 7.96875 Z M 13.917969 8.117188 C 13.542969 8.792969 13.207031 9.566406 12.921875 10.421875 C 12.335938 10.226562 11.777344 9.988281 11.238281 9.71875 C 12.042969 9.0625 12.945312 8.523438 13.917969 8.117188 Z M 22.066406 8.117188 C 23.003906 8.507812 23.875 9.027344 24.65625 9.65625 C 24.140625 9.917969 23.605469 10.15625 23.042969 10.355469 C 22.761719 9.527344 22.433594 8.777344 22.066406 8.117188 Z M 26.324219 11.316406 C 27.574219 12.871094 28.402344 14.785156 28.621094 16.875 L 24.152344 16.875 C 24.09375 15.320312 23.914062 13.859375 23.632812 12.527344 C 24.578125 12.203125 25.480469 11.796875 26.324219 11.316406 Z M 9.597656 11.402344 C 10.457031 11.878906 11.375 12.277344 12.339844 12.597656 C 12.066406 13.90625 11.890625 15.347656 11.832031 16.875 L 7.363281 16.875 C 7.578125 14.820312 8.382812 12.941406 9.597656 11.402344 Z M 21.453125 13.125 C 21.683594 14.242188 21.84375 15.492188 21.898438 16.875 L 19.027344 16.875 L 19.027344 13.449219 C 19.851562 13.394531 20.660156 13.289062 21.453125 13.125 Z M 14.523438 13.164062 C 15.261719 13.304688 16.015625 13.402344 16.777344 13.449219 L 16.777344 16.875 L 14.085938 16.875 C 14.140625 15.507812 14.296875 14.269531 14.523438 13.164062 Z M 7.363281 19.125 L 11.832031 19.125 C 11.886719 20.570312 12.046875 21.933594 12.292969 23.1875 C 11.300781 23.515625 10.359375 23.9375 9.480469 24.4375 C 8.335938 22.925781 7.574219 21.109375 7.363281 19.125 Z M 14.085938 19.125 L 16.777344 19.125 L 16.777344 22.316406 C 16 22.363281 15.230469 22.464844 14.472656 22.609375 C 14.273438 21.5625 14.136719 20.402344 14.085938 19.125 Z M 23.261719 22.019531 C 23.230469 22.023438 23.195312 22.03125 23.164062 22.046875 C 23.039062 22.097656 22.953125 22.222656 22.953125 22.359375 L 22.953125 28.59375 C 22.953125 28.738281 23.039062 28.875 23.175781 28.9375 C 23.308594 28.996094 23.472656 28.984375 23.578125 28.878906 L 24.691406 27.777344 L 26.355469 30.742188 C 26.398438 30.820312 26.472656 30.878906 26.558594 30.90625 C 26.644531 30.929688 26.738281 30.921875 26.820312 30.875 L 27.5625 30.445312 C 27.722656 30.355469 27.792969 30.152344 27.699219 29.996094 L 26.070312 27.234375 L 27.808594 27.183594 C 27.941406 27.179688 28.0625 27.097656 28.109375 26.976562 C 28.160156 26.851562 28.128906 26.710938 28.035156 26.617188 L 23.535156 22.117188 C 23.464844 22.046875 23.363281 22.011719 23.261719 22.019531 Z M 16.777344 24.570312 L 16.777344 28.039062 C 16.148438 27.398438 15.527344 26.292969 15.035156 24.796875 C 15.605469 24.6875 16.1875 24.609375 16.777344 24.570312 Z M 12.847656 25.367188 C 13.148438 26.304688 13.507812 27.144531 13.914062 27.875 C 12.871094 27.441406 11.917969 26.851562 11.070312 26.128906 C 11.636719 25.835938 12.230469 25.582031 12.847656 25.367188 Z M 12.847656 25.367188 "/>
</g>
</svg>
