<svg xmlns="http://www.w3.org/2000/svg"  viewBox="0 0 48 48" width="48px" height="48px"><path d="M 24 4 C 12.97 4 4 12.97 4 24 C 4 35.03 12.97 44 24 44 C 25.88 44 27.699688 43.74 29.429688 43.25 C 28.719687 42.67 28.289062 41.799141 28.289062 40.869141 L 28.289062 37.179688 C 27.029063 39.609687 25.48 41 24 41 C 21.67 41 19.159141 37.54 17.869141 32 L 28.289062 32 L 28.289062 29 L 17.330078 29 C 17.120078 27.44 17 25.77 17 24 C 17 22.229 17.120125 20.559 17.328125 19 L 30.677734 19 C 30.729734 19.385 30.778359 19.770922 30.818359 20.169922 C 30.988359 20.139922 31.158125 20.119141 31.328125 20.119141 C 32.048125 20.119141 32.748828 20.379844 33.298828 20.839844 L 33.908203 21.359375 C 33.857203 20.553375 33.777641 19.77 33.681641 19 L 40.242188 19 C 40.732188 20.581 41 22.259 41 24 C 41 25.06 40.900938 26.099375 40.710938 27.109375 L 43.289062 29.289062 C 43.749063 27.599063 44 25.83 44 24 C 44 12.97 35.03 4 24 4 z M 24 7 C 26.33 7 28.844719 10.46 30.136719 16 L 17.873047 16 C 19.161047 10.463 21.672 7 24 7 z M 17.830078 8.1796875 C 16.521078 10.210688 15.491172 12.899 14.826172 16 L 9.0195312 16 C 10.924531 12.455 14.046078 9.6566875 17.830078 8.1796875 z M 30.169922 8.1796875 C 33.953922 9.6566875 37.075469 12.455 38.980469 16 L 33.179688 16 C 32.517688 12.895 31.481922 10.212688 30.169922 8.1796875 z M 7.7578125 19 L 14.3125 19 C 14.1125 20.594 14 22.264 14 24 C 14 25.74 14.120312 27.4 14.320312 29 L 7.75 29 C 7.27 27.42 7 25.74 7 24 C 7 22.259 7.2688125 20.581 7.7578125 19 z M 31.472656 22.132812 C 31.277656 22.106563 31.075625 22.135703 30.890625 22.220703 C 30.530625 22.390703 30.289062 22.760156 30.289062 23.160156 L 30.289062 40.869141 C 30.289063 41.309141 30.570469 41.699609 30.980469 41.849609 C 31.390469 41.999609 31.850859 41.879063 32.130859 41.539062 L 35.230469 37.820312 L 38.306641 44.597656 C 38.761641 45.599656 39.940312 46.045703 40.945312 45.595703 L 41.935547 45.152344 C 42.947547 44.699344 43.3965 43.509 42.9375 42.5 L 39.830078 35.660156 L 44.869141 35.660156 C 45.309141 35.660156 45.699609 35.390469 45.849609 34.980469 C 45.999609 34.570469 45.880781 34.110078 45.550781 33.830078 L 32.009766 22.369141 C 31.854766 22.239141 31.667656 22.159062 31.472656 22.132812 z M 9.0097656 32 L 14.810547 32 C 15.470547 35.11 16.520078 37.790312 17.830078 39.820312 C 14.040078 38.340313 10.909766 35.55 9.0097656 32 z"/></svg>