<?xml version="1.0" encoding="UTF-8"?>
<svg xmlns="http://www.w3.org/2000/svg" xmlns:xlink="http://www.w3.org/1999/xlink" width="72pt" height="72pt" viewBox="0 0 72 72" version="1.1">
<g id="surface116">
<path style=" stroke:none;fill-rule:nonzero;fill:rgb(9.803922%,9.803922%,9.803922%);fill-opacity:1;" d="M 17.25 9 C 12.691406 9 9 12.691406 9 17.25 L 9 37.289062 C 9 39.296875 10.003906 41.167969 11.671875 42.28125 L 13.5 43.5 L 13.5 17.25 C 13.5 15.179688 15.179688 13.5 17.25 13.5 L 43.5 13.5 L 42.28125 11.671875 C 41.167969 10.003906 39.292969 9 37.289062 9 Z M 24.75 16.5 C 20.191406 16.5 16.5 20.191406 16.5 24.75 L 16.5 47.789062 C 16.5 49.796875 17.503906 51.667969 19.171875 52.78125 L 21 54 L 21 24.75 C 21 22.679688 22.679688 21 24.75 21 L 54 21 L 52.78125 19.171875 C 51.667969 17.503906 49.792969 16.5 47.789062 16.5 Z M 32.25 24 C 27.699219 24 24 27.699219 24 32.25 L 24 54.75 C 24 59.300781 27.699219 63 32.25 63 L 49.667969 63 L 45.167969 58.5 L 32.25 58.5 C 30.183594 58.5 28.5 56.816406 28.5 54.75 L 28.5 32.25 C 28.5 30.183594 30.183594 28.5 32.25 28.5 L 54.75 28.5 C 56.816406 28.5 58.5 30.183594 58.5 32.25 L 58.5 45.167969 L 63 49.667969 L 63 32.25 C 63 27.699219 59.300781 24 54.75 24 Z M 42.832031 40.503906 C 42.128906 40.476562 41.453125 40.78125 41.007812 41.328125 C 40.5625 41.871094 40.398438 42.59375 40.5625 43.277344 L 42.777344 52.457031 C 42.875 52.859375 43.082031 53.226562 43.375 53.519531 L 58.25 68.398438 C 61.035156 71.183594 65.617188 71.183594 68.398438 68.398438 C 71.183594 65.617188 71.183594 61.035156 68.398438 58.25 L 53.519531 43.375 C 53.226562 43.082031 52.859375 42.875 52.457031 42.777344 L 43.277344 40.5625 C 43.132812 40.527344 42.980469 40.507812 42.832031 40.503906 Z M 45.800781 45.800781 L 50.785156 47.003906 L 65.214844 61.433594 C 66.277344 62.496094 66.277344 64.152344 65.214844 65.214844 C 64.152344 66.277344 62.496094 66.277344 61.433594 65.214844 L 47.003906 50.785156 Z M 45.800781 45.800781 "/>
</g>
</svg>
