<?xml version="1.0" encoding="UTF-8"?>
<svg xmlns="http://www.w3.org/2000/svg" xmlns:xlink="http://www.w3.org/1999/xlink" width="36pt" height="36pt" viewBox="0 0 36 36" version="1.1">
<g id="surface25">
<path style=" stroke:none;fill-rule:nonzero;fill:rgb(9.803922%,9.803922%,9.803922%);fill-opacity:1;" d="M 31.554688 9.96875 C 31.410156 9.46875 30.765625 9.320312 30.398438 9.6875 C 28.367188 11.71875 26.476562 13.609375 26.253906 13.832031 C 24.984375 15.101562 22.832031 14.945312 21.785156 13.363281 C 21.019531 12.214844 21.246094 10.667969 22.21875 9.695312 L 26.3125 5.601562 C 26.679688 5.234375 26.53125 4.589844 26.03125 4.445312 C 23.296875 3.65625 20.234375 4.324219 18.082031 6.476562 C 15.800781 8.757812 15.175781 12.058594 16.1875 14.910156 C 13.113281 17.984375 5.589844 25.507812 5.140625 25.957031 C 3.707031 27.390625 3.792969 29.765625 5.390625 31.089844 C 6.789062 32.242188 8.867188 32.035156 10.148438 30.753906 L 21.089844 19.8125 C 23.9375 20.824219 27.238281 20.199219 29.519531 17.917969 C 31.675781 15.765625 32.34375 12.703125 31.554688 9.96875 Z M 31.554688 9.96875 "/>
</g>
</svg>
