<svg xmlns="http://www.w3.org/2000/svg"  viewBox="0 0 48 48" width="48px" height="48px"><path d="M34.988,18.962c-0.684,0.684-1.58,1.025-2.475,1.025c-0.841,0-1.683-0.302-2.349-0.905c-1.497-1.357-1.42-3.775,0.008-5.204	l5.88-5.88c0.79-0.79,0.479-2.166-0.591-2.489C34.351,5.174,33.174,4.995,31.953,5C25.931,5.023,20.74,9.709,20.072,15.694	c-0.217,1.946,0.063,3.794,0.687,5.476L7.633,34.296c-2.015,2.015-2.124,5.423-0.039,7.365C8.553,42.554,9.776,43,11,43	c1.28,0,2.559-0.488,3.536-1.465L27.83,28.24c1.681,0.624,3.53,0.904,5.476,0.687c5.985-0.669,10.67-5.859,10.693-11.881	c0.005-1.22-0.174-2.397-0.509-3.507c-0.323-1.07-1.699-1.381-2.489-0.591L34.988,18.962z"/></svg>