<?xml version="1.0" encoding="UTF-8"?>
<svg xmlns="http://www.w3.org/2000/svg" xmlns:xlink="http://www.w3.org/1999/xlink" width="96pt" height="96pt" viewBox="0 0 96 96" version="1.1">
<g id="surface1737">
<path style=" stroke:none;fill-rule:nonzero;fill:rgb(76.078433%,90.980393%,100%);fill-opacity:1;" d="M 29.441406 31.199219 L 0 31.199219 L 0 40.800781 L 27.519531 40.800781 Z M 25.359375 52.800781 L 26.640625 45.601562 L 0 45.601562 L 0 52.800781 Z M 24 62.398438 L 24.640625 57.601562 L 0 57.601562 L 0 62.398438 Z M 24 62.398438 "/>
<path style=" stroke:none;fill-rule:nonzero;fill:rgb(100%,100%,100%);fill-opacity:1;" d="M 17.527344 78.601562 L 29.296875 17.398438 L 95.269531 17.398438 L 83.027344 78.601562 Z M 17.527344 78.601562 "/>
<path style=" stroke:none;fill-rule:nonzero;fill:rgb(47.058824%,54.509807%,61.176473%);fill-opacity:1;" d="M 94.535156 18 L 82.535156 78 L 18.253906 78 L 29.789062 18 L 94.535156 18 M 96 16.800781 L 28.800781 16.800781 L 16.800781 79.199219 L 83.519531 79.199219 Z M 96 16.800781 "/>
<path style=" stroke:none;fill-rule:nonzero;fill:rgb(54.509807%,71.764708%,94.117647%);fill-opacity:1;" d="M 31.8125 59.398438 L 36.488281 36.601562 L 80.867188 36.601562 L 76.308594 59.398438 Z M 31.8125 59.398438 "/>
<path style=" stroke:none;fill-rule:nonzero;fill:rgb(30.588236%,47.843137%,70.980394%);fill-opacity:1;" d="M 80.136719 37.199219 L 75.816406 58.800781 L 32.546875 58.800781 L 36.976562 37.199219 L 80.136719 37.199219 M 81.601562 36 L 36 36 L 31.078125 60 L 76.800781 60 Z M 81.601562 36 "/>
<path style=" stroke:none;fill-rule:nonzero;fill:rgb(47.058824%,54.509807%,61.176473%);fill-opacity:1;" d="M 94.800781 16.800781 L 30 16.800781 L 27.601562 28.800781 L 92.398438 28.800781 Z M 94.800781 16.800781 "/>
<path style=" stroke:none;fill-rule:nonzero;fill:rgb(100%,100%,100%);fill-opacity:1;" d="M 38.007812 50.398438 L 73.679688 50.398438 L 75.121094 43.199219 L 39.449219 43.199219 Z M 38.007812 50.398438 "/>
<path style=" stroke:none;fill-rule:nonzero;fill:rgb(21.568628%,27.843139%,30.980393%);fill-opacity:1;" d="M 46.121094 50.398438 L 47.558594 43.199219 L 46.3125 43.199219 L 44.871094 50.398438 Z M 46.121094 50.398438 "/>
</g>
</svg>
