<?xml version="1.0" encoding="UTF-8"?>
<svg xmlns="http://www.w3.org/2000/svg" xmlns:xlink="http://www.w3.org/1999/xlink" width="18pt" height="18pt" viewBox="0 0 18 18" version="1.1">
<g id="surface22345">
<path style=" stroke:none;fill-rule:nonzero;fill:rgb(100%,100%,100%);fill-opacity:1;" d="M 2.925781 16.875 L 2.925781 1.125 L 11.15625 1.125 L 15.074219 5.042969 L 15.074219 16.875 Z M 2.925781 16.875 "/>
<path style=" stroke:none;fill-rule:nonzero;fill:rgb(47.058824%,54.509807%,61.176473%);fill-opacity:1;" d="M 11.0625 1.351562 L 14.851562 5.136719 L 14.851562 16.648438 L 3.148438 16.648438 L 3.148438 1.351562 L 11.0625 1.351562 M 11.25 0.898438 L 2.699219 0.898438 L 2.699219 17.101562 L 15.300781 17.101562 L 15.300781 4.949219 Z M 11.25 0.898438 "/>
<path style=" stroke:none;fill-rule:nonzero;fill:rgb(100%,100%,100%);fill-opacity:1;" d="M 11.023438 5.175781 L 11.023438 1.125 L 11.15625 1.125 L 15.074219 5.042969 L 15.074219 5.175781 Z M 11.023438 5.175781 "/>
<path style=" stroke:none;fill-rule:nonzero;fill:rgb(47.058824%,54.509807%,61.176473%);fill-opacity:1;" d="M 11.25 1.535156 L 14.664062 4.949219 L 11.25 4.949219 L 11.25 1.535156 M 11.25 0.898438 L 10.800781 0.898438 L 10.800781 5.398438 L 15.300781 5.398438 L 15.300781 4.949219 Z M 11.25 0.898438 "/>
<path style="fill:none;stroke-width:1;stroke-linecap:butt;stroke-linejoin:miter;stroke:rgb(69.803923%,44.705883%,85.882354%);stroke-opacity:1;stroke-miterlimit:10;" d="M 25.503472 19.496528 L 27.5 23.498264 L 25.503472 27.5 M 14.496528 19.496528 L 12.5 23.498264 L 14.496528 27.5 M 22.5 16.501736 L 17.5 30.503472 " transform="matrix(0.45,0,0,0.45,0,0)"/>
</g>
</svg>
