<?xml version="1.0" encoding="UTF-8"?>
<svg xmlns="http://www.w3.org/2000/svg" xmlns:xlink="http://www.w3.org/1999/xlink" width="96pt" height="96pt" viewBox="0 0 96 96" version="1.1">
<g id="surface13356">
<path style=" stroke:none;fill-rule:nonzero;fill:rgb(100%,100%,100%);fill-opacity:1;" d="M 18 90 L 18 6 L 61.902344 6 L 82.800781 26.898438 L 82.800781 84.617188 C 82.800781 87.585938 80.386719 90 77.417969 90 Z M 18 90 "/>
<path style=" stroke:none;fill-rule:nonzero;fill:rgb(47.058824%,54.509807%,61.176473%);fill-opacity:1;" d="M 61.40625 7.199219 L 81.601562 27.394531 L 81.601562 84.613281 C 81.601562 86.921875 79.722656 88.800781 77.417969 88.800781 L 19.199219 88.800781 L 19.199219 7.199219 L 61.40625 7.199219 M 62.398438 4.800781 L 16.800781 4.800781 L 16.800781 91.199219 L 77.417969 91.199219 C 81.054688 91.199219 84 88.253906 84 84.617188 L 84 26.398438 Z M 62.398438 4.800781 "/>
<path style=" stroke:none;fill-rule:nonzero;fill:rgb(100%,100%,100%);fill-opacity:1;" d="M 61.199219 27.601562 L 61.199219 6 L 61.902344 6 L 82.800781 26.898438 L 82.800781 27.601562 Z M 61.199219 27.601562 "/>
<path style=" stroke:none;fill-rule:nonzero;fill:rgb(47.058824%,54.509807%,61.176473%);fill-opacity:1;" d="M 62.398438 8.195312 L 80.605469 26.398438 L 62.398438 26.398438 L 62.398438 8.195312 M 62.398438 4.800781 L 60 4.800781 L 60 28.800781 L 84 28.800781 L 84 26.398438 Z M 62.398438 4.800781 "/>
<path style=" stroke:none;fill-rule:nonzero;fill:rgb(77.254903%,83.137256%,87.058824%);fill-opacity:1;" d="M 31.199219 38.398438 L 69.601562 38.398438 L 69.601562 40.800781 L 31.199219 40.800781 Z M 31.199219 45.601562 L 60 45.601562 L 60 48 L 31.199219 48 Z M 31.199219 52.800781 L 69.601562 52.800781 L 69.601562 55.199219 L 31.199219 55.199219 Z M 31.199219 60 L 60 60 L 60 62.398438 L 31.199219 62.398438 Z M 31.199219 67.199219 L 69.601562 67.199219 L 69.601562 69.601562 L 31.199219 69.601562 Z M 31.199219 67.199219 "/>
<path style=" stroke:none;fill-rule:nonzero;fill:rgb(83.92157%,89.019608%,92.941177%);fill-opacity:1;" d="M 81.601562 52.800781 L 81.601562 88.800781 L 64.800781 88.800781 L 67.199219 91.199219 L 76.808594 91.199219 C 80.78125 91.199219 84 87.980469 84 84.007812 L 84 52.800781 Z M 81.601562 52.800781 "/>
<path style=" stroke:none;fill-rule:nonzero;fill:rgb(54.509807%,71.764708%,94.117647%);fill-opacity:1;" d="M 60.269531 75.601562 L 70.800781 75.601562 L 70.800781 58.800781 L 82.800781 58.800781 L 82.800781 75.601562 L 93.328125 75.601562 L 76.800781 94.191406 Z M 60.269531 75.601562 "/>
<path style=" stroke:none;fill-rule:nonzero;fill:rgb(30.588236%,47.843137%,70.980394%);fill-opacity:1;" d="M 81.601562 60 L 81.601562 76.800781 L 90.65625 76.800781 L 76.800781 92.386719 L 62.945312 76.800781 L 72 76.800781 L 72 60 L 81.601562 60 M 84 57.601562 L 69.601562 57.601562 L 69.601562 74.398438 L 57.601562 74.398438 L 76.800781 96 L 96 74.398438 L 84 74.398438 Z M 84 57.601562 "/>
</g>
</svg>
