<svg xmlns="http://www.w3.org/2000/svg"  viewBox="0 0 40 40" width="40px" height="40px"><path fill="#c74343" d="M39 16L20 8.032 20 23.865 39 31.254zM20 23.865L1 31.254 1 16 20 8.032z"/><path fill="#c2e8ff" d="M20,28.5c-7.444,0-13.5-6.056-13.5-13.5S12.556,1.5,20,1.5S33.5,7.556,33.5,15S27.444,28.5,20,28.5 z M20,12.346c-1.464,0-2.654,1.19-2.654,2.654s1.19,2.654,2.654,2.654c1.463,0,2.653-1.19,2.653-2.654S21.463,12.346,20,12.346z"/><path fill="#7496c4" d="M20,2c7.168,0,13,5.832,13,13s-5.832,13-13,13c-7.168,0-13-5.832-13-13S12.832,2,20,2 M20,18.154 c1.739,0,3.154-1.415,3.154-3.154S21.739,11.846,20,11.846S16.846,13.261,16.846,15S18.261,18.154,20,18.154 M20,1 C12.268,1,6,7.268,6,15c0,7.732,6.268,14,14,14c7.732,0,14-6.268,14-14C34,7.268,27.732,1,20,1L20,1z M20,17.154 c-1.19,0-2.154-0.964-2.154-2.154c0-1.19,0.964-2.154,2.154-2.154c1.19,0,2.154,0.964,2.154,2.154 C22.154,16.19,21.19,17.154,20,17.154L20,17.154z"/><path fill="#e1f5ff" d="M22.436 13.26l8.133-5.81c-1.265-1.768-2.96-3.199-4.935-4.152l-4.337 9.008C21.752 12.526 22.144 12.852 22.436 13.26zM17.564 16.74L9.43 22.55c1.265 1.768 2.96 3.199 4.935 4.152l4.337-9.008C18.248 17.474 17.856 17.148 17.564 16.74z"/><path fill="#fff" d="M21.693 12.525l5.646-8.252c-.539-.369-1.112-.689-1.705-.975l-4.337 9.008C21.434 12.372 21.569 12.44 21.693 12.525zM18.233 17.413c-1.596 2.215-3.936 5.557-5.579 8.308.541.371 1.116.693 1.712.98l4.337-9.008C18.537 17.614 18.38 17.521 18.233 17.413z"/><g><path fill="#7496c4" d="M20,13c1.103,0,2,0.897,2,2c0,1.103-0.897,2-2,2s-2-0.897-2-2C18,13.897,18.897,13,20,13 M20,11 c-2.209,0-4,1.791-4,4s1.791,4,4,4s4-1.791,4-4S22.209,11,20,11L20,11z"/></g><g><path fill="#f7a3a3" d="M1.5 31.651L1.5 16.717 20 23.533 38.5 16.717 38.5 31.651 20 38.467z"/><path fill="#c74343" d="M38,17.434v13.869l-18,6.632L2,31.303V17.434l17.654,6.504L20,24.066l0.346-0.127L38,17.434 M39,16 l-19,7L1,16v16l19,7l19-7V16L39,16z"/></g><g><path fill="#f78f8f" d="M20.5 23.349L38.5 16.717 38.5 31.651 20.5 38.283z"/><path fill="#c74343" d="M38,17.434v13.869l-17,6.263V23.697L38,17.434 M39,16l-19,7v16l19-7V16L39,16z"/></g></svg>