<?xml version="1.0" encoding="UTF-8"?>
<svg xmlns="http://www.w3.org/2000/svg" xmlns:xlink="http://www.w3.org/1999/xlink" width="96pt" height="96pt" viewBox="0 0 96 96" version="1.1">
<g id="surface17332">
<path style=" stroke:none;fill-rule:nonzero;fill:rgb(69.01961%,75.686276%,83.137256%);fill-opacity:1;" d="M 64.824219 43.992188 C 67.304688 44.347656 68.878906 45.855469 69.441406 48.609375 L 80.21875 37.832031 C 77.605469 37.402344 76.089844 35.835938 75.601562 33.214844 Z M 64.824219 43.992188 "/>
<path style=" stroke:none;fill-rule:nonzero;fill:rgb(40.000001%,47.450981%,56.078434%);fill-opacity:1;" d="M 69.445312 49.8125 C 69.328125 49.8125 69.210938 49.796875 69.097656 49.761719 C 68.671875 49.632812 68.355469 49.285156 68.265625 48.855469 C 67.8125 46.640625 66.664062 45.472656 64.652344 45.183594 C 64.203125 45.117188 63.828125 44.804688 63.6875 44.371094 C 63.542969 43.941406 63.65625 43.464844 63.976562 43.144531 L 74.75 32.371094 C 75.066406 32.054688 75.535156 31.9375 75.953125 32.074219 C 76.378906 32.207031 76.695312 32.5625 76.777344 33 C 77.179688 35.152344 78.332031 36.308594 80.410156 36.652344 C 80.859375 36.726562 81.222656 37.042969 81.359375 37.46875 C 81.5 37.898438 81.386719 38.367188 81.066406 38.6875 L 70.292969 49.460938 C 70.0625 49.6875 69.757812 49.8125 69.445312 49.8125 Z M 67.09375 43.425781 C 68.363281 44.039062 69.335938 45.035156 69.972656 46.386719 L 77.964844 38.390625 C 76.664062 37.769531 75.6875 36.785156 75.058594 35.457031 Z M 67.09375 43.425781 "/>
<path style=" stroke:none;fill-rule:nonzero;fill:rgb(69.01961%,75.686276%,83.137256%);fill-opacity:1;" d="M 57.257812 48.738281 C 57.613281 46.261719 59.121094 44.6875 61.875 44.121094 L 48.789062 31.035156 C 48.359375 33.648438 46.792969 35.164062 44.171875 35.65625 Z M 57.257812 48.738281 "/>
<path style=" stroke:none;fill-rule:nonzero;fill:rgb(40.000001%,47.450981%,56.078434%);fill-opacity:1;" d="M 57.253906 49.9375 C 56.941406 49.9375 56.636719 49.816406 56.40625 49.589844 L 43.324219 36.507812 C 43.007812 36.191406 42.894531 35.730469 43.023438 35.304688 C 43.15625 34.875 43.511719 34.558594 43.953125 34.476562 C 46.097656 34.074219 47.261719 32.921875 47.605469 30.84375 C 47.675781 30.398438 47.992188 30.035156 48.421875 29.898438 C 48.847656 29.757812 49.316406 29.871094 49.632812 30.191406 L 62.71875 43.273438 C 63.03125 43.585938 63.148438 44.042969 63.019531 44.464844 C 62.890625 44.890625 62.542969 45.207031 62.113281 45.296875 C 59.898438 45.75 58.730469 46.898438 58.441406 48.910156 C 58.375 49.359375 58.0625 49.734375 57.628906 49.875 C 57.511719 49.917969 57.382812 49.9375 57.253906 49.9375 Z M 46.410156 36.195312 L 56.6875 46.472656 C 57.300781 45.199219 58.296875 44.226562 59.648438 43.589844 L 49.34375 33.289062 C 48.726562 34.589844 47.738281 35.566406 46.410156 36.195312 Z M 46.410156 36.195312 "/>
<path style=" stroke:none;fill-rule:nonzero;fill:rgb(100%,76.862746%,61.176473%);fill-opacity:1;" d="M 58.066406 49.378906 L 16.347656 91.097656 L 1.722656 76.476562 L 43.445312 34.753906 Z M 58.066406 49.378906 "/>
<path style=" stroke:none;fill-rule:nonzero;fill:rgb(63.137257%,41.568628%,29.019609%);fill-opacity:1;" d="M 16.347656 92.796875 L 0.0273438 76.476562 L 43.445312 33.058594 L 59.765625 49.378906 Z M 3.421875 76.476562 L 16.347656 89.40625 L 56.371094 49.378906 L 43.445312 36.453125 Z M 3.421875 76.476562 "/>
<path style=" stroke:none;fill-rule:nonzero;fill:rgb(77.254903%,83.137256%,87.058824%);fill-opacity:1;" d="M 67.902344 53.230469 L 75.601562 60.925781 C 76.449219 61.777344 77.828125 61.777344 78.679688 60.925781 L 91.765625 47.839844 C 92.613281 46.992188 92.613281 45.613281 91.765625 44.761719 L 84.066406 37.066406 C 83.21875 36.214844 81.835938 36.214844 80.988281 37.066406 L 67.902344 50.152344 C 67.054688 51 67.054688 52.378906 67.902344 53.230469 Z M 67.902344 53.230469 "/>
<path style=" stroke:none;fill-rule:nonzero;fill:rgb(40.000001%,47.450981%,56.078434%);fill-opacity:1;" d="M 77.140625 62.761719 C 76.238281 62.761719 75.390625 62.410156 74.753906 61.777344 L 67.054688 54.078125 C 66.417969 53.4375 66.066406 52.589844 66.066406 51.6875 C 66.066406 50.785156 66.417969 49.9375 67.054688 49.300781 L 80.140625 36.21875 C 81.410156 34.945312 83.640625 34.945312 84.914062 36.21875 L 92.609375 43.914062 C 93.25 44.550781 93.601562 45.398438 93.601562 46.304688 C 93.601562 47.207031 93.25 48.054688 92.609375 48.691406 L 79.527344 61.773438 C 78.886719 62.410156 78.042969 62.761719 77.140625 62.761719 Z M 82.527344 37.628906 C 82.265625 37.628906 82.023438 37.730469 81.839844 37.914062 L 68.753906 50.996094 C 68.566406 51.183594 68.46875 51.429688 68.46875 51.6875 C 68.46875 51.949219 68.566406 52.195312 68.753906 52.378906 L 76.449219 60.078125 C 76.8125 60.441406 77.464844 60.441406 77.828125 60.078125 L 90.914062 46.992188 C 91.097656 46.808594 91.199219 46.5625 91.199219 46.304688 C 91.199219 46.042969 91.097656 45.796875 90.914062 45.613281 L 83.21875 37.914062 C 83.03125 37.730469 82.785156 37.628906 82.527344 37.628906 Z M 82.527344 37.628906 "/>
<path style=" stroke:none;fill-rule:nonzero;fill:rgb(77.254903%,83.137256%,87.058824%);fill-opacity:1;" d="M 76.359375 29.371094 L 58.980469 12.234375 C 54.90625 8.238281 49.433594 6 43.730469 6 L 30.339844 6 C 29.136719 6 28.160156 6.972656 28.160156 8.175781 L 28.160156 8.558594 C 28.160156 9.417969 28.675781 10.1875 29.457031 10.542969 C 38.917969 14.875 44.910156 21.074219 48.902344 30.753906 L 48.921875 30.75 C 49.019531 31.085938 49.171875 31.410156 49.441406 31.675781 L 61.746094 43.980469 C 62.59375 44.832031 63.972656 44.832031 64.820312 43.980469 L 76.359375 32.445312 C 77.207031 31.597656 77.207031 30.222656 76.359375 29.371094 Z M 76.359375 29.371094 "/>
<path style=" stroke:none;fill-rule:nonzero;fill:rgb(40.000001%,47.450981%,56.078434%);fill-opacity:1;" d="M 63.285156 45.820312 C 62.382812 45.820312 61.535156 45.46875 60.898438 44.832031 L 48.59375 32.527344 C 48.472656 32.40625 48.363281 32.277344 48.265625 32.136719 L 48.203125 32.152344 L 48.015625 31.722656 C 47.964844 31.617188 47.917969 31.507812 47.878906 31.398438 L 47.792969 31.210938 C 43.945312 21.871094 38.136719 15.835938 28.957031 11.636719 C 27.742188 11.078125 26.960938 9.871094 26.960938 8.558594 L 26.960938 8.175781 C 26.960938 6.3125 28.476562 4.800781 30.339844 4.800781 L 43.730469 4.800781 C 49.78125 4.800781 55.496094 7.136719 59.820312 11.375 L 77.199219 28.515625 C 77.847656 29.160156 78.199219 30.007812 78.195312 30.910156 C 78.195312 31.8125 77.847656 32.660156 77.207031 33.296875 L 65.671875 44.832031 C 65.039062 45.46875 64.1875 45.820312 63.285156 45.820312 Z M 49.738281 29.324219 L 50.078125 30.414062 C 50.152344 30.667969 50.234375 30.773438 50.292969 30.832031 L 62.597656 43.136719 C 62.964844 43.503906 63.609375 43.503906 63.972656 43.136719 L 75.511719 31.597656 C 75.699219 31.414062 75.800781 31.167969 75.800781 30.910156 C 75.800781 30.652344 75.699219 30.402344 75.511719 30.21875 L 58.140625 13.085938 C 54.269531 9.289062 49.152344 7.199219 43.730469 7.199219 L 30.339844 7.199219 C 29.796875 7.199219 29.363281 7.640625 29.363281 8.175781 L 29.363281 8.554688 C 29.363281 8.933594 29.597656 9.285156 29.960938 9.453125 C 39.414062 13.78125 45.511719 19.941406 49.613281 29.351562 Z M 49.738281 29.324219 "/>
<path style=" stroke:none;fill-rule:nonzero;fill:rgb(100%,100%,100%);fill-opacity:1;" d="M 63.566406 25.226562 C 63.257812 25.226562 62.953125 25.109375 62.71875 24.875 L 55.246094 17.402344 C 51.761719 13.921875 47.132812 12 42.207031 12 L 40.648438 12 C 39.988281 12 39.449219 11.460938 39.449219 10.800781 C 39.449219 10.136719 39.988281 9.601562 40.648438 9.601562 L 42.207031 9.601562 C 47.773438 9.601562 53.007812 11.765625 56.945312 15.707031 L 64.414062 23.175781 C 64.882812 23.644531 64.882812 24.40625 64.414062 24.875 C 64.179688 25.109375 63.875 25.226562 63.566406 25.226562 Z M 63.566406 25.226562 "/>
</g>
</svg>
