<svg xmlns="http://www.w3.org/2000/svg"  viewBox="0 0 80 80" width="80px" height="80px"><path fill="#dbb065" d="M2.5 71.5L2.5 8.5 23.793 8.5 29.793 14.5 77.5 14.5 77.5 71.5z"/><path fill="#967a44" d="M23.586,9l5.707,5.707L29.586,15H30h47v56H3V9H23.586 M24,8H2v64h76V14H30L24,8L24,8z"/><path fill="#f5ce85" d="M2.5 71.5L2.5 18.5 24.151 18.5 30.151 14.5 77.5 14.5 77.5 71.5z"/><path fill="#967a44" d="M77,15v56H3V19h21h0.303l0.252-0.168L30.303,15H77 M78,14H30l-6,4H2v54h76V14L78,14z"/><path fill="#dbb065" d="M77,56.09V71H42v1h36V56.353C77.678,56.238,77.344,56.148,77,56.09z"/><path fill="#66798f" d="M74,59h-2v-3c0-5.514-4.486-10-10-10s-10,4.486-10,10v3h-2v-3c0-6.617,5.383-12,12-12s12,5.383,12,12 V59z"/><path fill="#b6c9d6" d="M79.5,79.5h-35V62c0-1.864,1.636-3.5,3.5-3.5h28c1.864,0,3.5,1.636,3.5,3.5V79.5z"/><path fill="#788b9c" d="M76,59c1.654,0,3,1.346,3,3v17H45V62c0-1.654,1.346-3,3-3H76 M76,58H48c-2.2,0-4,1.8-4,4v18h36V62 C80,59.8,78.2,58,76,58L76,58z"/><path fill="#e1ebf2" d="M45 72H79V76H45zM45 64H79V68H45z"/></svg>