<?xml version="1.0" encoding="UTF-8"?>
<svg xmlns="http://www.w3.org/2000/svg" xmlns:xlink="http://www.w3.org/1999/xlink" width="96pt" height="96pt" viewBox="0 0 96 96" version="1.1">
<g id="surface9094">
<path style=" stroke:none;fill-rule:nonzero;fill:rgb(77.254903%,83.137256%,87.058824%);fill-opacity:1;" d="M 24.601562 75 L 39 75 L 39 81 L 24.601562 81 Z M 24.601562 75 "/>
<path style=" stroke:none;fill-rule:nonzero;fill:rgb(47.058824%,54.509807%,61.176473%);fill-opacity:1;" d="M 39.601562 81.601562 L 24 81.601562 L 24 74.398438 L 39.601562 74.398438 Z M 25.199219 80.398438 L 38.398438 80.398438 L 38.398438 75.601562 L 25.199219 75.601562 Z M 25.199219 80.398438 "/>
<path style=" stroke:none;fill-rule:nonzero;fill:rgb(72.941178%,87.843138%,74.117649%);fill-opacity:1;" d="M 5.398438 21 L 90.601562 21 L 90.601562 75 L 5.398438 75 Z M 5.398438 21 "/>
<path style=" stroke:none;fill-rule:nonzero;fill:rgb(36.862746%,61.176473%,46.27451%);fill-opacity:1;" d="M 91.199219 75.601562 L 4.800781 75.601562 L 4.800781 20.398438 L 91.199219 20.398438 Z M 6 74.398438 L 90 74.398438 L 90 21.601562 L 6 21.601562 Z M 6 74.398438 "/>
<path style=" stroke:none;fill-rule:nonzero;fill:rgb(96.078432%,80.784315%,52.156866%);fill-opacity:1;" d="M 18.601562 30 C 18.601562 32.320312 16.71875 34.199219 14.398438 34.199219 C 12.082031 34.199219 10.199219 32.320312 10.199219 30 C 10.199219 27.679688 12.082031 25.800781 14.398438 25.800781 C 16.71875 25.800781 18.601562 27.679688 18.601562 30 Z M 18.601562 30 "/>
<path style=" stroke:none;fill-rule:nonzero;fill:rgb(72.941178%,60.784316%,28.235295%);fill-opacity:1;" d="M 14.398438 34.800781 C 11.753906 34.800781 9.601562 32.648438 9.601562 30 C 9.601562 27.351562 11.753906 25.199219 14.398438 25.199219 C 17.046875 25.199219 19.199219 27.351562 19.199219 30 C 19.199219 32.648438 17.046875 34.800781 14.398438 34.800781 Z M 14.398438 26.398438 C 12.414062 26.398438 10.800781 28.015625 10.800781 30 C 10.800781 31.984375 12.414062 33.601562 14.398438 33.601562 C 16.386719 33.601562 18 31.984375 18 30 C 18 28.015625 16.386719 26.398438 14.398438 26.398438 Z M 14.398438 26.398438 "/>
<path style=" stroke:none;fill-rule:nonzero;fill:rgb(96.078432%,80.784315%,52.156866%);fill-opacity:1;" d="M 31.800781 29.398438 C 31.800781 30.726562 30.726562 31.800781 29.398438 31.800781 C 28.074219 31.800781 27 30.726562 27 29.398438 C 27 28.074219 28.074219 27 29.398438 27 C 30.726562 27 31.800781 28.074219 31.800781 29.398438 Z M 31.800781 29.398438 "/>
<path style=" stroke:none;fill-rule:nonzero;fill:rgb(72.941178%,60.784316%,28.235295%);fill-opacity:1;" d="M 29.398438 32.398438 C 27.746094 32.398438 26.398438 31.054688 26.398438 29.398438 C 26.398438 27.746094 27.746094 26.398438 29.398438 26.398438 C 31.054688 26.398438 32.398438 27.746094 32.398438 29.398438 C 32.398438 31.054688 31.054688 32.398438 29.398438 32.398438 Z M 29.398438 27.601562 C 28.40625 27.601562 27.601562 28.40625 27.601562 29.398438 C 27.601562 30.390625 28.40625 31.199219 29.398438 31.199219 C 30.390625 31.199219 31.199219 30.390625 31.199219 29.398438 C 31.199219 28.40625 30.390625 27.601562 29.398438 27.601562 Z M 29.398438 27.601562 "/>
<path style=" stroke:none;fill-rule:nonzero;fill:rgb(96.078432%,80.784315%,52.156866%);fill-opacity:1;" d="M 41.398438 29.398438 C 41.398438 30.726562 40.324219 31.800781 39 31.800781 C 37.675781 31.800781 36.601562 30.726562 36.601562 29.398438 C 36.601562 28.074219 37.675781 27 39 27 C 40.324219 27 41.398438 28.074219 41.398438 29.398438 Z M 41.398438 29.398438 "/>
<path style=" stroke:none;fill-rule:nonzero;fill:rgb(72.941178%,60.784316%,28.235295%);fill-opacity:1;" d="M 39 32.398438 C 37.347656 32.398438 36 31.054688 36 29.398438 C 36 27.746094 37.347656 26.398438 39 26.398438 C 40.652344 26.398438 42 27.746094 42 29.398438 C 42 31.054688 40.652344 32.398438 39 32.398438 Z M 39 27.601562 C 38.007812 27.601562 37.199219 28.40625 37.199219 29.398438 C 37.199219 30.390625 38.007812 31.199219 39 31.199219 C 39.992188 31.199219 40.800781 30.390625 40.800781 29.398438 C 40.800781 28.40625 39.992188 27.601562 39 27.601562 Z M 39 27.601562 "/>
<path style=" stroke:none;fill-rule:nonzero;fill:rgb(96.078432%,80.784315%,52.156866%);fill-opacity:1;" d="M 51 29.398438 C 51 30.726562 49.925781 31.800781 48.601562 31.800781 C 47.273438 31.800781 46.199219 30.726562 46.199219 29.398438 C 46.199219 28.074219 47.273438 27 48.601562 27 C 49.925781 27 51 28.074219 51 29.398438 Z M 51 29.398438 "/>
<path style=" stroke:none;fill-rule:nonzero;fill:rgb(72.941178%,60.784316%,28.235295%);fill-opacity:1;" d="M 48.601562 32.398438 C 46.945312 32.398438 45.601562 31.054688 45.601562 29.398438 C 45.601562 27.746094 46.945312 26.398438 48.601562 26.398438 C 50.253906 26.398438 51.601562 27.746094 51.601562 29.398438 C 51.601562 31.054688 50.253906 32.398438 48.601562 32.398438 Z M 48.601562 27.601562 C 47.609375 27.601562 46.800781 28.40625 46.800781 29.398438 C 46.800781 30.390625 47.609375 31.199219 48.601562 31.199219 C 49.59375 31.199219 50.398438 30.390625 50.398438 29.398438 C 50.398438 28.40625 49.59375 27.601562 48.601562 27.601562 Z M 48.601562 27.601562 "/>
<path style=" stroke:none;fill-rule:nonzero;fill:rgb(96.078432%,80.784315%,52.156866%);fill-opacity:1;" d="M 60.601562 29.398438 C 60.601562 30.726562 59.527344 31.800781 58.199219 31.800781 C 56.875 31.800781 55.800781 30.726562 55.800781 29.398438 C 55.800781 28.074219 56.875 27 58.199219 27 C 59.527344 27 60.601562 28.074219 60.601562 29.398438 Z M 60.601562 29.398438 "/>
<path style=" stroke:none;fill-rule:nonzero;fill:rgb(72.941178%,60.784316%,28.235295%);fill-opacity:1;" d="M 58.199219 32.398438 C 56.546875 32.398438 55.199219 31.054688 55.199219 29.398438 C 55.199219 27.746094 56.546875 26.398438 58.199219 26.398438 C 59.855469 26.398438 61.199219 27.746094 61.199219 29.398438 C 61.199219 31.054688 59.855469 32.398438 58.199219 32.398438 Z M 58.199219 27.601562 C 57.207031 27.601562 56.398438 28.40625 56.398438 29.398438 C 56.398438 30.390625 57.207031 31.199219 58.199219 31.199219 C 59.191406 31.199219 60 30.390625 60 29.398438 C 60 28.40625 59.191406 27.601562 58.199219 27.601562 Z M 58.199219 27.601562 "/>
<path style=" stroke:none;fill-rule:nonzero;fill:rgb(96.078432%,80.784315%,52.156866%);fill-opacity:1;" d="M 70.199219 29.398438 C 70.199219 30.726562 69.125 31.800781 67.800781 31.800781 C 66.472656 31.800781 65.398438 30.726562 65.398438 29.398438 C 65.398438 28.074219 66.472656 27 67.800781 27 C 69.125 27 70.199219 28.074219 70.199219 29.398438 Z M 70.199219 29.398438 "/>
<path style=" stroke:none;fill-rule:nonzero;fill:rgb(72.941178%,60.784316%,28.235295%);fill-opacity:1;" d="M 67.800781 32.398438 C 66.144531 32.398438 64.800781 31.054688 64.800781 29.398438 C 64.800781 27.746094 66.144531 26.398438 67.800781 26.398438 C 69.453125 26.398438 70.800781 27.746094 70.800781 29.398438 C 70.800781 31.054688 69.453125 32.398438 67.800781 32.398438 Z M 67.800781 27.601562 C 66.808594 27.601562 66 28.40625 66 29.398438 C 66 30.390625 66.808594 31.199219 67.800781 31.199219 C 68.792969 31.199219 69.601562 30.390625 69.601562 29.398438 C 69.601562 28.40625 68.792969 27.601562 67.800781 27.601562 Z M 67.800781 27.601562 "/>
<path style=" stroke:none;fill-rule:nonzero;fill:rgb(96.078432%,80.784315%,52.156866%);fill-opacity:1;" d="M 18.601562 66 C 18.601562 68.320312 16.71875 70.199219 14.398438 70.199219 C 12.082031 70.199219 10.199219 68.320312 10.199219 66 C 10.199219 63.679688 12.082031 61.800781 14.398438 61.800781 C 16.71875 61.800781 18.601562 63.679688 18.601562 66 Z M 18.601562 66 "/>
<path style=" stroke:none;fill-rule:nonzero;fill:rgb(72.941178%,60.784316%,28.235295%);fill-opacity:1;" d="M 14.398438 70.800781 C 11.753906 70.800781 9.601562 68.648438 9.601562 66 C 9.601562 63.351562 11.753906 61.199219 14.398438 61.199219 C 17.046875 61.199219 19.199219 63.351562 19.199219 66 C 19.199219 68.648438 17.046875 70.800781 14.398438 70.800781 Z M 14.398438 62.398438 C 12.414062 62.398438 10.800781 64.015625 10.800781 66 C 10.800781 67.984375 12.414062 69.601562 14.398438 69.601562 C 16.386719 69.601562 18 67.984375 18 66 C 18 64.015625 16.386719 62.398438 14.398438 62.398438 Z M 14.398438 62.398438 "/>
<path style=" stroke:none;fill-rule:nonzero;fill:rgb(96.078432%,80.784315%,52.156866%);fill-opacity:1;" d="M 85.800781 30 C 85.800781 32.320312 83.917969 34.199219 81.601562 34.199219 C 79.28125 34.199219 77.398438 32.320312 77.398438 30 C 77.398438 27.679688 79.28125 25.800781 81.601562 25.800781 C 83.917969 25.800781 85.800781 27.679688 85.800781 30 Z M 85.800781 30 "/>
<path style=" stroke:none;fill-rule:nonzero;fill:rgb(72.941178%,60.784316%,28.235295%);fill-opacity:1;" d="M 81.601562 34.800781 C 78.953125 34.800781 76.800781 32.648438 76.800781 30 C 76.800781 27.351562 78.953125 25.199219 81.601562 25.199219 C 84.246094 25.199219 86.398438 27.351562 86.398438 30 C 86.398438 32.648438 84.246094 34.800781 81.601562 34.800781 Z M 81.601562 26.398438 C 79.613281 26.398438 78 28.015625 78 30 C 78 31.984375 79.613281 33.601562 81.601562 33.601562 C 83.585938 33.601562 85.199219 31.984375 85.199219 30 C 85.199219 28.015625 83.585938 26.398438 81.601562 26.398438 Z M 81.601562 26.398438 "/>
<path style=" stroke:none;fill-rule:nonzero;fill:rgb(96.078432%,80.784315%,52.156866%);fill-opacity:1;" d="M 85.800781 66 C 85.800781 68.320312 83.917969 70.199219 81.601562 70.199219 C 79.28125 70.199219 77.398438 68.320312 77.398438 66 C 77.398438 63.679688 79.28125 61.800781 81.601562 61.800781 C 83.917969 61.800781 85.800781 63.679688 85.800781 66 Z M 85.800781 66 "/>
<path style=" stroke:none;fill-rule:nonzero;fill:rgb(72.941178%,60.784316%,28.235295%);fill-opacity:1;" d="M 81.601562 70.800781 C 78.953125 70.800781 76.800781 68.648438 76.800781 66 C 76.800781 63.351562 78.953125 61.199219 81.601562 61.199219 C 84.246094 61.199219 86.398438 63.351562 86.398438 66 C 86.398438 68.648438 84.246094 70.800781 81.601562 70.800781 Z M 81.601562 62.398438 C 79.613281 62.398438 78 64.015625 78 66 C 78 67.984375 79.613281 69.601562 81.601562 69.601562 C 83.585938 69.601562 85.199219 67.984375 85.199219 66 C 85.199219 64.015625 83.585938 62.398438 81.601562 62.398438 Z M 81.601562 62.398438 "/>
<path style=" stroke:none;fill-rule:nonzero;fill:rgb(96.078432%,80.784315%,52.156866%);fill-opacity:1;" d="M 45 37.800781 L 47.398438 37.800781 L 47.398438 41.398438 L 45 41.398438 Z M 45 37.800781 "/>
<path style=" stroke:none;fill-rule:nonzero;fill:rgb(72.941178%,60.784316%,28.235295%);fill-opacity:1;" d="M 48 42 L 44.398438 42 L 44.398438 37.199219 L 48 37.199219 Z M 45.601562 40.800781 L 46.800781 40.800781 L 46.800781 38.398438 L 45.601562 38.398438 Z M 45.601562 40.800781 "/>
<path style=" stroke:none;fill-rule:nonzero;fill:rgb(96.078432%,80.784315%,52.156866%);fill-opacity:1;" d="M 57 37.800781 L 59.398438 37.800781 L 59.398438 41.398438 L 57 41.398438 Z M 57 37.800781 "/>
<path style=" stroke:none;fill-rule:nonzero;fill:rgb(72.941178%,60.784316%,28.235295%);fill-opacity:1;" d="M 60 42 L 56.398438 42 L 56.398438 37.199219 L 60 37.199219 Z M 57.601562 40.800781 L 58.800781 40.800781 L 58.800781 38.398438 L 57.601562 38.398438 Z M 57.601562 40.800781 "/>
<path style=" stroke:none;fill-rule:nonzero;fill:rgb(96.078432%,80.784315%,52.156866%);fill-opacity:1;" d="M 57 64.199219 L 59.398438 64.199219 L 59.398438 67.800781 L 57 67.800781 Z M 57 64.199219 "/>
<path style=" stroke:none;fill-rule:nonzero;fill:rgb(72.941178%,60.784316%,28.235295%);fill-opacity:1;" d="M 60 68.398438 L 56.398438 68.398438 L 56.398438 63.601562 L 60 63.601562 Z M 57.601562 67.199219 L 58.800781 67.199219 L 58.800781 64.800781 L 57.601562 64.800781 Z M 57.601562 67.199219 "/>
<path style=" stroke:none;fill-rule:nonzero;fill:rgb(96.078432%,80.784315%,52.156866%);fill-opacity:1;" d="M 37.800781 64.199219 L 40.199219 64.199219 L 40.199219 67.800781 L 37.800781 67.800781 Z M 37.800781 64.199219 "/>
<path style=" stroke:none;fill-rule:nonzero;fill:rgb(72.941178%,60.784316%,28.235295%);fill-opacity:1;" d="M 40.800781 68.398438 L 37.199219 68.398438 L 37.199219 63.601562 L 40.800781 63.601562 Z M 38.398438 67.199219 L 39.601562 67.199219 L 39.601562 64.800781 L 38.398438 64.800781 Z M 38.398438 67.199219 "/>
<path style=" stroke:none;fill-rule:nonzero;fill:rgb(96.078432%,80.784315%,52.156866%);fill-opacity:1;" d="M 35.398438 59.398438 L 35.398438 61.800781 L 31.800781 61.800781 L 31.800781 59.398438 Z M 35.398438 59.398438 "/>
<path style=" stroke:none;fill-rule:nonzero;fill:rgb(72.941178%,60.784316%,28.235295%);fill-opacity:1;" d="M 36 62.398438 L 31.199219 62.398438 L 31.199219 58.800781 L 36 58.800781 Z M 32.398438 61.199219 L 34.800781 61.199219 L 34.800781 60 L 32.398438 60 Z M 32.398438 61.199219 "/>
<path style=" stroke:none;fill-rule:nonzero;fill:rgb(96.078432%,80.784315%,52.156866%);fill-opacity:1;" d="M 65.398438 59.398438 L 65.398438 61.800781 L 61.800781 61.800781 L 61.800781 59.398438 Z M 65.398438 59.398438 "/>
<path style=" stroke:none;fill-rule:nonzero;fill:rgb(72.941178%,60.784316%,28.235295%);fill-opacity:1;" d="M 66 62.398438 L 61.199219 62.398438 L 61.199219 58.800781 L 66 58.800781 Z M 62.398438 61.199219 L 64.800781 61.199219 L 64.800781 60 L 62.398438 60 Z M 62.398438 61.199219 "/>
<path style=" stroke:none;fill-rule:nonzero;fill:rgb(96.078432%,80.784315%,52.156866%);fill-opacity:1;" d="M 35.398438 51 L 35.398438 53.398438 L 31.800781 53.398438 L 31.800781 51 Z M 35.398438 51 "/>
<path style=" stroke:none;fill-rule:nonzero;fill:rgb(72.941178%,60.784316%,28.235295%);fill-opacity:1;" d="M 36 54 L 31.199219 54 L 31.199219 50.398438 L 36 50.398438 Z M 32.398438 52.800781 L 34.800781 52.800781 L 34.800781 51.601562 L 32.398438 51.601562 Z M 32.398438 52.800781 "/>
<path style=" stroke:none;fill-rule:nonzero;fill:rgb(96.078432%,80.784315%,52.156866%);fill-opacity:1;" d="M 65.398438 43.800781 L 65.398438 46.199219 L 61.800781 46.199219 L 61.800781 43.800781 Z M 65.398438 43.800781 "/>
<path style=" stroke:none;fill-rule:nonzero;fill:rgb(72.941178%,60.784316%,28.235295%);fill-opacity:1;" d="M 66 46.800781 L 61.199219 46.800781 L 61.199219 43.199219 L 66 43.199219 Z M 62.398438 45.601562 L 64.800781 45.601562 L 64.800781 44.398438 L 62.398438 44.398438 Z M 62.398438 45.601562 "/>
<path style=" stroke:none;fill-rule:nonzero;fill:rgb(69.01961%,75.686276%,83.137256%);fill-opacity:1;" d="M 61.800781 64.199219 L 35.398438 64.199219 L 35.398438 48 L 42 41.398438 L 61.800781 41.398438 Z M 61.800781 64.199219 "/>
<path style=" stroke:none;fill-rule:nonzero;fill:rgb(40.000001%,47.450981%,56.078434%);fill-opacity:1;" d="M 62.398438 64.800781 L 34.800781 64.800781 L 34.800781 47.75 L 41.75 40.800781 L 62.398438 40.800781 Z M 36 63.601562 L 61.199219 63.601562 L 61.199219 42 L 42.25 42 L 36 48.25 Z M 36 63.601562 "/>
<path style=" stroke:none;fill-rule:nonzero;fill:rgb(77.254903%,83.137256%,87.058824%);fill-opacity:1;" d="M 71.398438 39 L 85.800781 39 L 85.800781 47.398438 L 71.398438 47.398438 Z M 71.398438 39 "/>
<path style=" stroke:none;fill-rule:nonzero;fill:rgb(47.058824%,54.509807%,61.176473%);fill-opacity:1;" d="M 86.398438 48 L 70.800781 48 L 70.800781 38.398438 L 86.398438 38.398438 Z M 72 46.800781 L 85.199219 46.800781 L 85.199219 39.601562 L 72 39.601562 Z M 72 46.800781 "/>
<path style=" stroke:none;fill-rule:nonzero;fill:rgb(77.254903%,83.137256%,87.058824%);fill-opacity:1;" d="M 10.199219 39 L 24.601562 39 L 24.601562 53.398438 L 10.199219 53.398438 Z M 10.199219 39 "/>
<path style=" stroke:none;fill-rule:nonzero;fill:rgb(47.058824%,54.509807%,61.176473%);fill-opacity:1;" d="M 25.199219 54 L 9.601562 54 L 9.601562 38.398438 L 25.199219 38.398438 Z M 10.800781 52.800781 L 24 52.800781 L 24 39.601562 L 10.800781 39.601562 Z M 10.800781 52.800781 "/>
<path style=" stroke:none;fill-rule:nonzero;fill:rgb(77.254903%,83.137256%,87.058824%);fill-opacity:1;" d="M 71.398438 52.199219 L 85.800781 52.199219 L 85.800781 57 L 71.398438 57 Z M 71.398438 52.199219 "/>
<path style=" stroke:none;fill-rule:nonzero;fill:rgb(47.058824%,54.509807%,61.176473%);fill-opacity:1;" d="M 86.398438 57.601562 L 70.800781 57.601562 L 70.800781 51.601562 L 86.398438 51.601562 Z M 72 56.398438 L 85.199219 56.398438 L 85.199219 52.800781 L 72 52.800781 Z M 72 56.398438 "/>
</g>
</svg>
