<?xml version="1.0" encoding="UTF-8"?>
<svg xmlns="http://www.w3.org/2000/svg" xmlns:xlink="http://www.w3.org/1999/xlink" width="30pt" height="30pt" viewBox="0 0 30 30" version="1.1">
<g id="surface257">
<path style=" stroke:none;fill-rule:nonzero;fill:rgb(96.862745%,56.078434%,56.078434%);fill-opacity:1;" d="M 1.125 12.375 L 9.375 12.375 L 9.375 18.375 L 1.125 18.375 Z M 1.125 12.375 "/>
<path style=" stroke:none;fill-rule:nonzero;fill:rgb(78.039217%,26.274511%,26.274511%);fill-opacity:1;" d="M 9 12.75 L 9 18 L 1.5 18 L 1.5 12.75 L 9 12.75 M 9.75 12 L 0.75 12 L 0.75 18.75 L 9.75 18.75 Z M 9.75 12 "/>
<path style=" stroke:none;fill-rule:nonzero;fill:rgb(54.509807%,71.764708%,94.117647%);fill-opacity:1;" d="M 20.625 12.375 L 28.875 12.375 L 28.875 18.375 L 20.625 18.375 Z M 20.625 12.375 "/>
<path style=" stroke:none;fill-rule:nonzero;fill:rgb(30.588236%,47.843137%,70.980394%);fill-opacity:1;" d="M 28.5 12.75 L 28.5 18 L 21 18 L 21 12.75 L 28.5 12.75 M 29.25 12 L 20.25 12 L 20.25 18.75 L 29.25 18.75 Z M 29.25 12 "/>
<path style=" stroke:none;fill-rule:nonzero;fill:rgb(54.509807%,71.764708%,94.117647%);fill-opacity:1;" d="M 20.625 22.875 L 28.875 22.875 L 28.875 28.875 L 20.625 28.875 Z M 20.625 22.875 "/>
<path style=" stroke:none;fill-rule:nonzero;fill:rgb(30.588236%,47.843137%,70.980394%);fill-opacity:1;" d="M 28.5 23.25 L 28.5 28.5 L 21 28.5 L 21 23.25 L 28.5 23.25 M 29.25 22.5 L 20.25 22.5 L 20.25 29.25 L 29.25 29.25 Z M 29.25 22.5 "/>
<path style=" stroke:none;fill-rule:nonzero;fill:rgb(54.509807%,71.764708%,94.117647%);fill-opacity:1;" d="M 20.625 1.875 L 28.875 1.875 L 28.875 7.875 L 20.625 7.875 Z M 20.625 1.875 "/>
<path style=" stroke:none;fill-rule:nonzero;fill:rgb(30.588236%,47.843137%,70.980394%);fill-opacity:1;" d="M 28.5 2.25 L 28.5 7.5 L 21 7.5 L 21 2.25 L 28.5 2.25 M 29.25 1.5 L 20.25 1.5 L 20.25 8.25 L 29.25 8.25 Z M 29.25 1.5 "/>
<path style=" stroke:none;fill-rule:nonzero;fill:rgb(40.000001%,47.450981%,56.078434%);fill-opacity:1;" d="M 9.75 15.75 L 9.75 15 L 20.25 15 L 20.25 15.75 Z M 9.75 15.75 "/>
<path style=" stroke:none;fill-rule:nonzero;fill:rgb(40.000001%,47.450981%,56.078434%);fill-opacity:1;" d="M 20.25 5.25 L 20.25 4.5 L 14.25 4.5 L 14.25 26.25 L 20.25 26.25 L 20.25 25.5 L 15 25.5 L 15 5.25 Z M 20.25 5.25 "/>
</g>
</svg>
