<?xml version="1.0" encoding="UTF-8" standalone="no"?>
<!DOCTYPE svg PUBLIC "-//W3C//DTD SVG 1.1//EN" "http://www.w3.org/Graphics/SVG/1.1/DTD/svg11.dtd">
<svg width="100%" height="100%" viewBox="0 0 30 30" version="1.1" xmlns="http://www.w3.org/2000/svg" xmlns:xlink="http://www.w3.org/1999/xlink" xml:space="preserve" xmlns:serif="http://www.serif.com/" style="fill-rule:evenodd;clip-rule:evenodd;stroke-miterlimit:10;">
    <g id="surface52" transform="matrix(1,0,0,1,-0.875,-0.375)">
        <g transform="matrix(0.880618,0,0,0.880618,2.66573,2.16573)">
            <path d="M15,28.875C9.625,28.875 4.125,27.227 4.125,15C4.125,2.773 9.625,1.125 15,1.125C20.379,1.125 25.875,2.773 25.875,15C25.875,27.227 20.379,28.875 15,28.875Z" style="fill:rgb(139,183,239);fill-rule:nonzero;"/>
            <path d="M15,1.5C20.191,1.5 25.5,3.105 25.5,15C25.5,26.895 20.191,28.5 15,28.5C9.809,28.5 4.5,26.895 4.5,15C4.5,3.105 9.809,1.5 15,1.5M15,0.75C8.375,0.75 3.75,3.707 3.75,15C3.75,26.293 8.375,29.25 15,29.25C21.629,29.25 26.25,26.293 26.25,15C26.25,3.707 21.629,0.75 15,0.75Z" style="fill:rgb(78,121,181);fill-rule:nonzero;"/>
            <g transform="matrix(0.75,0,0,0.75,0,0)">
                <path d="M13,26L26,14L19,7L19,32L26,25L13,13" style="fill:none;fill-rule:nonzero;stroke:rgb(254,254,254);stroke-width:2px;"/>
            </g>
        </g>
        <g transform="matrix(1,0,0,1,-1.46668,-0.645054)">
            <g transform="matrix(0.435638,0,0,0.435638,6.59928,5.16024)">
                <path d="M44.25,57.75C36.805,57.75 30.75,51.691 30.75,44.25C30.75,36.809 36.805,30.75 44.25,30.75C51.695,30.75 57.75,36.809 57.75,44.25C57.75,51.691 51.695,57.75 44.25,57.75ZM37.934,52.676L38.734,53.176C40.402,54.207 42.309,54.75 44.25,54.75C50.039,54.75 54.75,50.043 54.75,44.25C54.75,42.309 54.207,40.402 53.172,38.738L52.676,37.934L37.934,52.676ZM44.25,33.75C38.461,33.75 33.75,38.461 33.75,44.25C33.75,46.191 34.293,48.098 35.328,49.762L35.824,50.566L50.566,35.824L49.766,35.324C48.098,34.293 46.191,33.75 44.25,33.75Z" style="fill:rgb(246,143,143);fill-rule:nonzero;"/>
            </g>
            <g transform="matrix(0.435638,0,0,0.435638,6.27255,5.16024)">
                <path d="M44.25,31.5C51.281,31.5 57,37.219 57,44.25C57,51.281 51.281,57 44.25,57C37.219,57 31.5,51.281 31.5,44.25C31.5,37.219 37.219,31.5 44.25,31.5M35.684,51.77L51.77,35.684L50.16,34.688C48.375,33.582 46.332,33 44.25,33C38.047,33 33,38.047 33,44.25C33,46.332 33.582,48.375 34.688,50.16L35.684,51.77M44.25,55.5C50.453,55.5 55.5,50.453 55.5,44.25C55.5,42.168 54.918,40.125 53.813,38.34L52.816,36.73L36.73,52.816L38.34,53.813C40.125,54.918 42.168,55.5 44.25,55.5M44.25,30C36.379,30 30,36.379 30,44.25C30,52.121 36.379,58.5 44.25,58.5C52.121,58.5 58.5,52.121 58.5,44.25C58.5,36.379 52.121,30 44.25,30ZM35.961,49.367C35.043,47.879 34.5,46.129 34.5,44.25C34.5,38.863 38.863,34.5 44.25,34.5C46.129,34.5 47.879,35.043 49.367,35.961L35.961,49.367ZM44.25,54C42.371,54 40.621,53.457 39.133,52.539L52.539,39.133C53.457,40.621 54,42.371 54,44.25C54,49.637 49.637,54 44.25,54Z" style="fill:rgb(199,67,67);fill-rule:nonzero;"/>
            </g>
        </g>
    </g>
</svg>
