<?xml version="1.0" encoding="UTF-8"?>
<svg xmlns="http://www.w3.org/2000/svg" xmlns:xlink="http://www.w3.org/1999/xlink" width="60pt" height="60pt" viewBox="0 0 60 60" version="1.1">
<g id="surface2729">
<path style="fill:none;stroke-width:1;stroke-linecap:butt;stroke-linejoin:miter;stroke:rgb(54.509807%,45.882353%,63.137257%);stroke-opacity:1;stroke-miterlimit:10;" d="M 8 17.5 L 32 17.5 " transform="matrix(1.5,0,0,1.5,0,0)"/>
<path style=" stroke:none;fill-rule:nonzero;fill:rgb(86.274511%,83.529413%,94.901961%);fill-opacity:1;" d="M 27 39.75 C 23.277344 39.75 20.25 36.722656 20.25 33 L 20.25 9 C 20.25 5.277344 23.277344 2.25 27 2.25 L 33 2.25 C 36.722656 2.25 39.75 5.277344 39.75 9 L 39.75 32.683594 C 39.011719 33.421875 38.21875 34.320312 37.378906 35.269531 C 35.851562 36.996094 34.132812 38.949219 32.800781 39.75 Z M 27 39.75 "/>
<path style=" stroke:none;fill-rule:nonzero;fill:rgb(54.509807%,45.882353%,63.137257%);fill-opacity:1;" d="M 33 3 C 36.308594 3 39 5.691406 39 9 L 39 32.378906 C 38.308594 33.085938 37.582031 33.910156 36.820312 34.773438 C 35.394531 36.386719 33.792969 38.199219 32.585938 39 L 27 39 C 23.691406 39 21 36.308594 21 33 L 21 9 C 21 5.691406 23.691406 3 27 3 L 33 3 M 33 1.5 L 27 1.5 C 22.859375 1.5 19.5 4.859375 19.5 9 L 19.5 33 C 19.5 37.140625 22.859375 40.5 27 40.5 L 33 40.5 C 35.25 39.273438 38.25 35.171875 40.5 33 L 40.5 9 C 40.5 4.859375 37.140625 1.5 33 1.5 Z M 33 1.5 "/>
<path style=" stroke:none;fill-rule:nonzero;fill:rgb(86.274511%,83.529413%,94.901961%);fill-opacity:1;" d="M 27.75 47.25 L 32.25 47.25 L 32.25 56.25 L 27.75 56.25 Z M 27.75 47.25 "/>
<path style=" stroke:none;fill-rule:nonzero;fill:rgb(54.509807%,45.882353%,63.137257%);fill-opacity:1;" d="M 31.5 48 L 31.5 55.5 L 28.5 55.5 L 28.5 48 L 31.5 48 M 33 46.5 L 27 46.5 L 27 57 L 33 57 Z M 33 46.5 "/>
<path style=" stroke:none;fill-rule:nonzero;fill:rgb(86.274511%,83.529413%,94.901961%);fill-opacity:1;" d="M 17.25 57.75 L 17.25 57 C 17.25 54.933594 18.929688 53.25 21 53.25 L 37.5 53.25 C 40.140625 53.25 42.332031 55.210938 42.699219 57.75 Z M 17.25 57.75 "/>
<path style=" stroke:none;fill-rule:nonzero;fill:rgb(54.509807%,45.882353%,63.137257%);fill-opacity:1;" d="M 37.5 54 C 39.457031 54 41.125 55.253906 41.742188 57 L 18 57 C 18 55.34375 19.34375 54 21 54 L 37.5 54 M 37.5 52.5 L 21 52.5 C 18.515625 52.5 16.5 54.515625 16.5 57 L 16.5 58.5 L 43.5 58.5 C 43.5 55.1875 40.8125 52.5 37.5 52.5 Z M 37.5 52.5 "/>
<path style=" stroke:none;fill-rule:nonzero;fill:rgb(78.039217%,26.274511%,26.274511%);fill-opacity:1;" d="M 30 28.5 C 29.171875 28.5 28.5 29.171875 28.5 30 C 28.5 30.828125 29.171875 31.5 30 31.5 C 30.828125 31.5 31.5 30.828125 31.5 30 C 31.5 29.171875 30.828125 28.5 30 28.5 Z M 30 28.5 "/>
<path style="fill:none;stroke-width:1;stroke-linecap:butt;stroke-linejoin:miter;stroke:rgb(54.509807%,45.882353%,63.137257%);stroke-opacity:1;stroke-miterlimit:10;" d="M 8.5 16 L 8.5 19 M 31.5 16 L 31.5 19 " transform="matrix(1.5,0,0,1.5,0,0)"/>
<path style=" stroke:none;fill-rule:nonzero;fill:rgb(54.509807%,45.882353%,63.137257%);fill-opacity:1;" d="M 24.75 3 C 24.335938 3 24 3.335938 24 3.75 C 24 4.164062 24.335938 4.5 24.75 4.5 C 25.164062 4.5 25.5 4.164062 25.5 3.75 C 25.5 3.335938 25.164062 3 24.75 3 Z M 27.75 3 C 27.335938 3 27 3.335938 27 3.75 C 27 4.164062 27.335938 4.5 27.75 4.5 C 28.164062 4.5 28.5 4.164062 28.5 3.75 C 28.5 3.335938 28.164062 3 27.75 3 Z M 30.75 3 C 30.335938 3 30 3.335938 30 3.75 C 30 4.164062 30.335938 4.5 30.75 4.5 C 31.164062 4.5 31.5 4.164062 31.5 3.75 C 31.5 3.335938 31.164062 3 30.75 3 Z M 33.75 3 C 33.335938 3 33 3.335938 33 3.75 C 33 4.164062 33.335938 4.5 33.75 4.5 C 34.164062 4.5 34.5 4.164062 34.5 3.75 C 34.5 3.335938 34.164062 3 33.75 3 Z M 26.25 6 C 25.835938 6 25.5 6.335938 25.5 6.75 C 25.5 7.164062 25.835938 7.5 26.25 7.5 C 26.664062 7.5 27 7.164062 27 6.75 C 27 6.335938 26.664062 6 26.25 6 Z M 29.25 6 C 28.835938 6 28.5 6.335938 28.5 6.75 C 28.5 7.164062 28.835938 7.5 29.25 7.5 C 29.664062 7.5 30 7.164062 30 6.75 C 30 6.335938 29.664062 6 29.25 6 Z M 32.25 6 C 31.835938 6 31.5 6.335938 31.5 6.75 C 31.5 7.164062 31.835938 7.5 32.25 7.5 C 32.664062 7.5 33 7.164062 33 6.75 C 33 6.335938 32.664062 6 32.25 6 Z M 35.25 6 C 34.835938 6 34.5 6.335938 34.5 6.75 C 34.5 7.164062 34.835938 7.5 35.25 7.5 C 35.664062 7.5 36 7.164062 36 6.75 C 36 6.335938 35.664062 6 35.25 6 Z M 38.25 6 C 37.835938 6 37.5 6.335938 37.5 6.75 C 37.5 7.164062 37.835938 7.5 38.25 7.5 C 38.664062 7.5 39 7.164062 39 6.75 C 39 6.335938 38.664062 6 38.25 6 Z M 23.25 6 C 22.835938 6 22.5 6.335938 22.5 6.75 C 22.5 7.164062 22.835938 7.5 23.25 7.5 C 23.664062 7.5 24 7.164062 24 6.75 C 24 6.335938 23.664062 6 23.25 6 Z M 24.75 9 C 24.335938 9 24 9.335938 24 9.75 C 24 10.164062 24.335938 10.5 24.75 10.5 C 25.164062 10.5 25.5 10.164062 25.5 9.75 C 25.5 9.335938 25.164062 9 24.75 9 Z M 27.75 9 C 27.335938 9 27 9.335938 27 9.75 C 27 10.164062 27.335938 10.5 27.75 10.5 C 28.164062 10.5 28.5 10.164062 28.5 9.75 C 28.5 9.335938 28.164062 9 27.75 9 Z M 30.75 9 C 30.335938 9 30 9.335938 30 9.75 C 30 10.164062 30.335938 10.5 30.75 10.5 C 31.164062 10.5 31.5 10.164062 31.5 9.75 C 31.5 9.335938 31.164062 9 30.75 9 Z M 33.75 9 C 33.335938 9 33 9.335938 33 9.75 C 33 10.164062 33.335938 10.5 33.75 10.5 C 34.164062 10.5 34.5 10.164062 34.5 9.75 C 34.5 9.335938 34.164062 9 33.75 9 Z M 36.75 9 C 36.335938 9 36 9.335938 36 9.75 C 36 10.164062 36.335938 10.5 36.75 10.5 C 37.164062 10.5 37.5 10.164062 37.5 9.75 C 37.5 9.335938 37.164062 9 36.75 9 Z M 21.75 9 C 21.335938 9 21 9.335938 21 9.75 C 21 10.164062 21.335938 10.5 21.75 10.5 C 22.164062 10.5 22.5 10.164062 22.5 9.75 C 22.5 9.335938 22.164062 9 21.75 9 Z M 26.25 12 C 25.835938 12 25.5 12.335938 25.5 12.75 C 25.5 13.164062 25.835938 13.5 26.25 13.5 C 26.664062 13.5 27 13.164062 27 12.75 C 27 12.335938 26.664062 12 26.25 12 Z M 29.25 12 C 28.835938 12 28.5 12.335938 28.5 12.75 C 28.5 13.164062 28.835938 13.5 29.25 13.5 C 29.664062 13.5 30 13.164062 30 12.75 C 30 12.335938 29.664062 12 29.25 12 Z M 32.25 12 C 31.835938 12 31.5 12.335938 31.5 12.75 C 31.5 13.164062 31.835938 13.5 32.25 13.5 C 32.664062 13.5 33 13.164062 33 12.75 C 33 12.335938 32.664062 12 32.25 12 Z M 35.25 12 C 34.835938 12 34.5 12.335938 34.5 12.75 C 34.5 13.164062 34.835938 13.5 35.25 13.5 C 35.664062 13.5 36 13.164062 36 12.75 C 36 12.335938 35.664062 12 35.25 12 Z M 38.25 12 C 37.835938 12 37.5 12.335938 37.5 12.75 C 37.5 13.164062 37.835938 13.5 38.25 13.5 C 38.664062 13.5 39 13.164062 39 12.75 C 39 12.335938 38.664062 12 38.25 12 Z M 23.25 12 C 22.835938 12 22.5 12.335938 22.5 12.75 C 22.5 13.164062 22.835938 13.5 23.25 13.5 C 23.664062 13.5 24 13.164062 24 12.75 C 24 12.335938 23.664062 12 23.25 12 Z M 24.75 15 C 24.335938 15 24 15.335938 24 15.75 C 24 16.164062 24.335938 16.5 24.75 16.5 C 25.164062 16.5 25.5 16.164062 25.5 15.75 C 25.5 15.335938 25.164062 15 24.75 15 Z M 27.75 15 C 27.335938 15 27 15.335938 27 15.75 C 27 16.164062 27.335938 16.5 27.75 16.5 C 28.164062 16.5 28.5 16.164062 28.5 15.75 C 28.5 15.335938 28.164062 15 27.75 15 Z M 30.75 15 C 30.335938 15 30 15.335938 30 15.75 C 30 16.164062 30.335938 16.5 30.75 16.5 C 31.164062 16.5 31.5 16.164062 31.5 15.75 C 31.5 15.335938 31.164062 15 30.75 15 Z M 33.75 15 C 33.335938 15 33 15.335938 33 15.75 C 33 16.164062 33.335938 16.5 33.75 16.5 C 34.164062 16.5 34.5 16.164062 34.5 15.75 C 34.5 15.335938 34.164062 15 33.75 15 Z M 36.75 15 C 36.335938 15 36 15.335938 36 15.75 C 36 16.164062 36.335938 16.5 36.75 16.5 C 37.164062 16.5 37.5 16.164062 37.5 15.75 C 37.5 15.335938 37.164062 15 36.75 15 Z M 21.75 15 C 21.335938 15 21 15.335938 21 15.75 C 21 16.164062 21.335938 16.5 21.75 16.5 C 22.164062 16.5 22.5 16.164062 22.5 15.75 C 22.5 15.335938 22.164062 15 21.75 15 Z M 24.75 21 C 24.335938 21 24 21.335938 24 21.75 C 24 22.164062 24.335938 22.5 24.75 22.5 C 25.164062 22.5 25.5 22.164062 25.5 21.75 C 25.5 21.335938 25.164062 21 24.75 21 Z M 27.75 21 C 27.335938 21 27 21.335938 27 21.75 C 27 22.164062 27.335938 22.5 27.75 22.5 C 28.164062 22.5 28.5 22.164062 28.5 21.75 C 28.5 21.335938 28.164062 21 27.75 21 Z M 30.75 21 C 30.335938 21 30 21.335938 30 21.75 C 30 22.164062 30.335938 22.5 30.75 22.5 C 31.164062 22.5 31.5 22.164062 31.5 21.75 C 31.5 21.335938 31.164062 21 30.75 21 Z M 33.75 21 C 33.335938 21 33 21.335938 33 21.75 C 33 22.164062 33.335938 22.5 33.75 22.5 C 34.164062 22.5 34.5 22.164062 34.5 21.75 C 34.5 21.335938 34.164062 21 33.75 21 Z M 36.75 21 C 36.335938 21 36 21.335938 36 21.75 C 36 22.164062 36.335938 22.5 36.75 22.5 C 37.164062 22.5 37.5 22.164062 37.5 21.75 C 37.5 21.335938 37.164062 21 36.75 21 Z M 21.75 21 C 21.335938 21 21 21.335938 21 21.75 C 21 22.164062 21.335938 22.5 21.75 22.5 C 22.164062 22.5 22.5 22.164062 22.5 21.75 C 22.5 21.335938 22.164062 21 21.75 21 Z M 26.25 18 C 25.835938 18 25.5 18.335938 25.5 18.75 C 25.5 19.164062 25.835938 19.5 26.25 19.5 C 26.664062 19.5 27 19.164062 27 18.75 C 27 18.335938 26.664062 18 26.25 18 Z M 29.25 18 C 28.835938 18 28.5 18.335938 28.5 18.75 C 28.5 19.164062 28.835938 19.5 29.25 19.5 C 29.664062 19.5 30 19.164062 30 18.75 C 30 18.335938 29.664062 18 29.25 18 Z M 32.25 18 C 31.835938 18 31.5 18.335938 31.5 18.75 C 31.5 19.164062 31.835938 19.5 32.25 19.5 C 32.664062 19.5 33 19.164062 33 18.75 C 33 18.335938 32.664062 18 32.25 18 Z M 35.25 18 C 34.835938 18 34.5 18.335938 34.5 18.75 C 34.5 19.164062 34.835938 19.5 35.25 19.5 C 35.664062 19.5 36 19.164062 36 18.75 C 36 18.335938 35.664062 18 35.25 18 Z M 38.25 18 C 37.835938 18 37.5 18.335938 37.5 18.75 C 37.5 19.164062 37.835938 19.5 38.25 19.5 C 38.664062 19.5 39 19.164062 39 18.75 C 39 18.335938 38.664062 18 38.25 18 Z M 23.25 18 C 22.835938 18 22.5 18.335938 22.5 18.75 C 22.5 19.164062 22.835938 19.5 23.25 19.5 C 23.664062 19.5 24 19.164062 24 18.75 C 24 18.335938 23.664062 18 23.25 18 Z M 23.25 18 "/>
<path style="fill:none;stroke-width:1;stroke-linecap:butt;stroke-linejoin:miter;stroke:rgb(54.509807%,45.882353%,63.137257%);stroke-opacity:1;stroke-miterlimit:10;" d="M 13.213542 16.5 L 26.786458 16.5 M 22.059896 31.276042 C 21.395833 31.421875 20.708333 31.5 20 31.5 C 14.752604 31.5 10.5 27.247396 10.5 22 L 10.5 17.5 M 29.5 17.5 L 29.5 22 " transform="matrix(1.5,0,0,1.5,0,0)"/>
<path style=" stroke:none;fill-rule:nonzero;fill:rgb(96.862745%,56.078434%,56.078434%);fill-opacity:1;" d="M 44.25 57.75 C 36.804688 57.75 30.75 51.691406 30.75 44.25 C 30.75 36.808594 36.804688 30.75 44.25 30.75 C 51.695312 30.75 57.75 36.808594 57.75 44.25 C 57.75 51.691406 51.695312 57.75 44.25 57.75 Z M 37.933594 52.675781 L 38.734375 53.175781 C 40.402344 54.207031 42.308594 54.75 44.25 54.75 C 50.039062 54.75 54.75 50.042969 54.75 44.25 C 54.75 42.308594 54.207031 40.402344 53.171875 38.738281 L 52.675781 37.933594 Z M 44.25 33.75 C 38.460938 33.75 33.75 38.460938 33.75 44.25 C 33.75 46.191406 34.292969 48.097656 35.328125 49.761719 L 35.824219 50.566406 L 50.566406 35.824219 L 49.765625 35.324219 C 48.097656 34.292969 46.191406 33.75 44.25 33.75 Z M 44.25 33.75 "/>
<path style=" stroke:none;fill-rule:nonzero;fill:rgb(78.039217%,26.274511%,26.274511%);fill-opacity:1;" d="M 44.25 31.5 C 51.28125 31.5 57 37.21875 57 44.25 C 57 51.28125 51.28125 57 44.25 57 C 37.21875 57 31.5 51.28125 31.5 44.25 C 31.5 37.21875 37.21875 31.5 44.25 31.5 M 35.683594 51.769531 L 51.769531 35.683594 L 50.160156 34.6875 C 48.375 33.582031 46.332031 33 44.25 33 C 38.046875 33 33 38.046875 33 44.25 C 33 46.332031 33.582031 48.375 34.6875 50.160156 L 35.683594 51.769531 M 44.25 55.5 C 50.453125 55.5 55.5 50.453125 55.5 44.25 C 55.5 42.167969 54.917969 40.125 53.8125 38.339844 L 52.816406 36.730469 L 36.730469 52.816406 L 38.339844 53.8125 C 40.125 54.917969 42.167969 55.5 44.25 55.5 M 44.25 30 C 36.378906 30 30 36.378906 30 44.25 C 30 52.121094 36.378906 58.5 44.25 58.5 C 52.121094 58.5 58.5 52.121094 58.5 44.25 C 58.5 36.378906 52.121094 30 44.25 30 Z M 35.960938 49.367188 C 35.042969 47.878906 34.5 46.128906 34.5 44.25 C 34.5 38.863281 38.863281 34.5 44.25 34.5 C 46.128906 34.5 47.878906 35.042969 49.367188 35.960938 Z M 44.25 54 C 42.371094 54 40.621094 53.457031 39.132812 52.539062 L 52.539062 39.132812 C 53.457031 40.621094 54 42.371094 54 44.25 C 54 49.636719 49.636719 54 44.25 54 Z M 44.25 54 "/>
</g>
</svg>
