<?xml version="1.0" encoding="UTF-8"?>
<svg xmlns="http://www.w3.org/2000/svg" xmlns:xlink="http://www.w3.org/1999/xlink" width="30pt" height="30pt" viewBox="0 0 30 30" version="1.1">
<g id="surface26">
<path style=" stroke:none;fill-rule:nonzero;fill:rgb(71.372551%,78.823531%,83.92157%);fill-opacity:1;" d="M 2.625 29.0625 C 2.175781 29.0625 1.761719 28.875 1.425781 28.574219 C 0.75 27.898438 0.75 26.851562 1.425781 26.175781 L 15.226562 13.011719 L 16.988281 14.773438 L 3.824219 28.574219 C 3.488281 28.875 3.074219 29.0625 2.625 29.0625 Z M 2.625 29.0625 "/>
<path style=" stroke:none;fill-rule:nonzero;fill:rgb(47.058824%,54.509807%,61.176473%);fill-opacity:1;" d="M 15.226562 13.273438 L 16.726562 14.773438 L 3.675781 28.425781 C 3.414062 28.726562 3.039062 28.875 2.625 28.875 C 2.210938 28.875 1.835938 28.726562 1.574219 28.425781 C 0.976562 27.824219 0.976562 26.886719 1.574219 26.324219 L 15.226562 13.273438 M 15.261719 12.75 L 1.3125 26.0625 C 0.5625 26.8125 0.5625 27.976562 1.3125 28.726562 C 1.6875 29.101562 2.175781 29.289062 2.625 29.289062 C 3.074219 29.289062 3.601562 29.101562 3.9375 28.726562 L 17.25 14.773438 Z M 15.261719 12.75 "/>
<path style=" stroke:none;fill-rule:nonzero;fill:rgb(81.960785%,92.941177%,100%);fill-opacity:1;" d="M 19.5 20.0625 C 14.210938 20.0625 9.9375 15.789062 9.9375 10.5 C 9.9375 5.210938 14.210938 0.9375 19.5 0.9375 C 24.789062 0.9375 29.0625 5.210938 29.0625 10.5 C 29.0625 15.789062 24.789062 20.0625 19.5 20.0625 Z M 19.5 20.0625 "/>
<path style=" stroke:none;fill-rule:nonzero;fill:rgb(47.058824%,54.509807%,61.176473%);fill-opacity:1;" d="M 19.5 1.125 C 24.675781 1.125 28.875 5.324219 28.875 10.5 C 28.875 15.675781 24.675781 19.875 19.5 19.875 C 14.324219 19.875 10.125 15.675781 10.125 10.5 C 10.125 5.324219 14.324219 1.125 19.5 1.125 M 19.5 0.75 C 14.101562 0.75 9.75 5.101562 9.75 10.5 C 9.75 15.898438 14.101562 20.25 19.5 20.25 C 24.898438 20.25 29.25 15.898438 29.25 10.5 C 29.25 5.101562 24.898438 0.75 19.5 0.75 Z M 19.5 0.75 "/>
<path style=" stroke:none;fill-rule:nonzero;fill:rgb(78.039217%,26.274511%,26.274511%);fill-opacity:1;" d="M 15.097656 14.371094 L 23.34375 6.125 L 23.875 6.65625 L 15.628906 14.902344 Z M 15.097656 14.371094 "/>
<path style=" stroke:none;fill-rule:nonzero;fill:rgb(78.039217%,26.274511%,26.274511%);fill-opacity:1;" d="M 15.097656 6.628906 L 15.628906 6.097656 L 23.875 14.34375 L 23.34375 14.875 Z M 15.097656 6.628906 "/>
</g>
</svg>
