<?xml version="1.0" encoding="UTF-8"?>
<svg xmlns="http://www.w3.org/2000/svg" xmlns:xlink="http://www.w3.org/1999/xlink" width="30pt" height="30pt" viewBox="0 0 30 30" version="1.1">
<g id="surface96">
<path style=" stroke:none;fill-rule:nonzero;fill:rgb(71.372551%,78.823531%,83.92157%);fill-opacity:1;" d="M 8.625 1.125 L 19.875 1.125 L 19.875 14.625 L 8.625 14.625 Z M 8.625 1.125 "/>
<path style=" stroke:none;fill-rule:nonzero;fill:rgb(47.058824%,54.509807%,61.176473%);fill-opacity:1;" d="M 19.5 1.5 L 19.5 14.25 L 9 14.25 L 9 1.5 L 19.5 1.5 M 20.25 0.75 L 8.25 0.75 L 8.25 15 L 20.25 15 Z M 20.25 0.75 "/>
<path style=" stroke:none;fill-rule:nonzero;fill:rgb(21.176471%,25.098041%,30.19608%);fill-opacity:1;" d="M 10.5 4.5 L 13.5 4.5 L 13.5 6.75 L 10.5 6.75 Z M 15 4.5 L 18 4.5 L 18 6.75 L 15 6.75 Z M 15 4.5 "/>
<path style=" stroke:none;fill-rule:nonzero;fill:rgb(86.274511%,83.529413%,94.901961%);fill-opacity:1;" d="M 11.625 28.875 L 11.625 24.375 L 11.25 24.375 C 8.558594 24.371094 6.378906 22.191406 6.375 19.5 L 6.375 12 C 6.375 10.964844 7.214844 10.125 8.25 10.125 L 20.25 10.125 C 21.285156 10.125 22.125 10.964844 22.125 12 L 22.125 19.5 C 22.121094 22.191406 19.941406 24.371094 17.25 24.375 L 16.875 24.375 L 16.875 28.875 Z M 11.625 28.875 "/>
<path style=" stroke:none;fill-rule:nonzero;fill:rgb(54.509807%,45.882353%,63.137257%);fill-opacity:1;" d="M 20.25 10.5 C 21.078125 10.5 21.75 11.171875 21.75 12 L 21.75 19.5 C 21.71875 21.972656 19.722656 23.96875 17.25 24 L 16.5 24 L 16.5 28.5 L 12 28.5 L 12 24 L 11.25 24 C 8.777344 23.96875 6.78125 21.972656 6.75 19.5 L 6.75 12 C 6.75 11.171875 7.421875 10.5 8.25 10.5 L 20.25 10.5 M 20.25 9.75 L 8.25 9.75 C 7.007812 9.75 6 10.757812 6 12 L 6 19.5 C 6 22.398438 8.351562 24.75 11.25 24.75 L 11.25 29.25 L 17.25 29.25 L 17.25 24.75 C 20.148438 24.75 22.5 22.398438 22.5 19.5 L 22.5 12 C 22.5 10.757812 21.492188 9.75 20.25 9.75 Z M 20.25 9.75 "/>
<path style=" stroke:none;fill-rule:nonzero;fill:rgb(96.862745%,56.078434%,56.078434%);fill-opacity:1;" d="M 22.875 29.625 C 19.148438 29.625 16.125 26.601562 16.125 22.875 C 16.125 19.148438 19.148438 16.125 22.875 16.125 C 26.601562 16.125 29.625 19.148438 29.625 22.875 C 29.625 26.601562 26.601562 29.625 22.875 29.625 Z M 22.875 29.625 "/>
<path style=" stroke:none;fill-rule:nonzero;fill:rgb(78.039217%,26.274511%,26.274511%);fill-opacity:1;" d="M 22.875 16.5 C 26.394531 16.5 29.25 19.355469 29.25 22.875 C 29.25 26.394531 26.394531 29.25 22.875 29.25 C 19.355469 29.25 16.5 26.394531 16.5 22.875 C 16.503906 19.355469 19.355469 16.503906 22.875 16.5 M 22.875 15.75 C 18.941406 15.75 15.75 18.941406 15.75 22.875 C 15.75 26.808594 18.941406 30 22.875 30 C 26.808594 30 30 26.808594 30 22.875 C 30 18.941406 26.808594 15.75 22.875 15.75 Z M 22.875 15.75 "/>
<path style="fill:none;stroke-width:2;stroke-linecap:butt;stroke-linejoin:miter;stroke:rgb(100%,100%,100%);stroke-opacity:1;stroke-miterlimit:10;" d="M 26.661458 34.338542 L 34.338542 26.661458 M 26.661458 26.661458 L 34.338542 34.338542 " transform="matrix(0.75,0,0,0.75,0,0)"/>
</g>
</svg>
