<?xml version="1.0" encoding="UTF-8"?>
<svg xmlns="http://www.w3.org/2000/svg" xmlns:xlink="http://www.w3.org/1999/xlink" width="120pt" height="120pt" viewBox="0 0 120 120" version="1.1">
<g id="surface115">
<path style=" stroke:none;fill-rule:nonzero;fill:rgb(54.509807%,71.764708%,94.117647%);fill-opacity:1;" d="M 8.25 6.75 L 86.25 6.75 L 86.25 96.75 L 8.25 96.75 Z M 8.25 6.75 "/>
<path style=" stroke:none;fill-rule:nonzero;fill:rgb(30.588236%,47.843137%,70.980394%);fill-opacity:1;" d="M 85.5 7.5 L 85.5 96 L 9 96 L 9 7.5 L 85.5 7.5 M 87 6 L 7.5 6 L 7.5 97.5 L 87 97.5 Z M 87 6 "/>
<path style=" stroke:none;fill-rule:nonzero;fill:rgb(30.588236%,47.843137%,70.980394%);fill-opacity:1;" d="M 19.5 12 L 21 12 L 21 13.5 L 19.5 13.5 Z M 19.5 15 L 21 15 L 21 16.5 L 19.5 16.5 Z M 19.5 18 L 21 18 L 21 19.5 L 19.5 19.5 Z M 19.5 21 L 21 21 L 21 22.5 L 19.5 22.5 Z M 19.5 24 L 21 24 L 21 25.5 L 19.5 25.5 Z M 19.5 27 L 21 27 L 21 28.5 L 19.5 28.5 Z M 19.5 30 L 21 30 L 21 31.5 L 19.5 31.5 Z M 19.5 33 L 21 33 L 21 34.5 L 19.5 34.5 Z M 19.5 36 L 21 36 L 21 37.5 L 19.5 37.5 Z M 25.5 12 L 27 12 L 27 13.5 L 25.5 13.5 Z M 25.5 15 L 27 15 L 27 16.5 L 25.5 16.5 Z M 25.5 21 L 27 21 L 27 22.5 L 25.5 22.5 Z M 25.5 24 L 27 24 L 27 25.5 L 25.5 25.5 Z M 25.5 27 L 27 27 L 27 28.5 L 25.5 28.5 Z M 25.5 30 L 27 30 L 27 31.5 L 25.5 31.5 Z M 25.5 33 L 27 33 L 27 34.5 L 25.5 34.5 Z M 25.5 36 L 27 36 L 27 37.5 L 25.5 37.5 Z M 31.5 12 L 33 12 L 33 13.5 L 31.5 13.5 Z M 31.5 15 L 33 15 L 33 16.5 L 31.5 16.5 Z M 31.5 21 L 33 21 L 33 22.5 L 31.5 22.5 Z M 31.5 24 L 33 24 L 33 25.5 L 31.5 25.5 Z M 31.5 27 L 33 27 L 33 28.5 L 31.5 28.5 Z M 31.5 30 L 33 30 L 33 31.5 L 31.5 31.5 Z M 31.5 33 L 33 33 L 33 34.5 L 31.5 34.5 Z M 31.5 36 L 33 36 L 33 37.5 L 31.5 37.5 Z M 37.5 12 L 39 12 L 39 13.5 L 37.5 13.5 Z M 37.5 15 L 39 15 L 39 16.5 L 37.5 16.5 Z M 37.5 21 L 39 21 L 39 22.5 L 37.5 22.5 Z M 37.5 24 L 39 24 L 39 25.5 L 37.5 25.5 Z M 37.5 27 L 39 27 L 39 28.5 L 37.5 28.5 Z M 37.5 30 L 39 30 L 39 31.5 L 37.5 31.5 Z M 37.5 33 L 39 33 L 39 34.5 L 37.5 34.5 Z M 37.5 36 L 39 36 L 39 37.5 L 37.5 37.5 Z M 16.5 18 L 18 18 L 18 19.5 L 16.5 19.5 Z M 13.5 18 L 15 18 L 15 19.5 L 13.5 19.5 Z M 28.5 18 L 30 18 L 30 19.5 L 28.5 19.5 Z M 25.5 18 L 27 18 L 27 19.5 L 25.5 19.5 Z M 22.5 18 L 24 18 L 24 19.5 L 22.5 19.5 Z M 37.5 18 L 39 18 L 39 19.5 L 37.5 19.5 Z M 43.5 12 L 45 12 L 45 13.5 L 43.5 13.5 Z M 43.5 15 L 45 15 L 45 16.5 L 43.5 16.5 Z M 43.5 21 L 45 21 L 45 22.5 L 43.5 22.5 Z M 43.5 24 L 45 24 L 45 25.5 L 43.5 25.5 Z M 43.5 27 L 45 27 L 45 28.5 L 43.5 28.5 Z M 43.5 30 L 45 30 L 45 31.5 L 43.5 31.5 Z M 43.5 33 L 45 33 L 45 34.5 L 43.5 34.5 Z M 43.5 36 L 45 36 L 45 37.5 L 43.5 37.5 Z M 43.5 18 L 45 18 L 45 19.5 L 43.5 19.5 Z M 49.5 12 L 51 12 L 51 13.5 L 49.5 13.5 Z M 49.5 15 L 51 15 L 51 16.5 L 49.5 16.5 Z M 49.5 21 L 51 21 L 51 22.5 L 49.5 22.5 Z M 49.5 24 L 51 24 L 51 25.5 L 49.5 25.5 Z M 49.5 27 L 51 27 L 51 28.5 L 49.5 28.5 Z M 49.5 30 L 51 30 L 51 31.5 L 49.5 31.5 Z M 49.5 33 L 51 33 L 51 34.5 L 49.5 34.5 Z M 49.5 36 L 51 36 L 51 37.5 L 49.5 37.5 Z M 49.5 18 L 51 18 L 51 19.5 L 49.5 19.5 Z M 55.5 12 L 57 12 L 57 13.5 L 55.5 13.5 Z M 55.5 15 L 57 15 L 57 16.5 L 55.5 16.5 Z M 55.5 21 L 57 21 L 57 22.5 L 55.5 22.5 Z M 55.5 24 L 57 24 L 57 25.5 L 55.5 25.5 Z M 55.5 27 L 57 27 L 57 28.5 L 55.5 28.5 Z M 55.5 30 L 57 30 L 57 31.5 L 55.5 31.5 Z M 55.5 33 L 57 33 L 57 34.5 L 55.5 34.5 Z M 55.5 36 L 57 36 L 57 37.5 L 55.5 37.5 Z M 55.5 18 L 57 18 L 57 19.5 L 55.5 19.5 Z M 61.5 12 L 63 12 L 63 13.5 L 61.5 13.5 Z M 61.5 15 L 63 15 L 63 16.5 L 61.5 16.5 Z M 61.5 21 L 63 21 L 63 22.5 L 61.5 22.5 Z M 61.5 24 L 63 24 L 63 25.5 L 61.5 25.5 Z M 61.5 27 L 63 27 L 63 28.5 L 61.5 28.5 Z M 61.5 30 L 63 30 L 63 31.5 L 61.5 31.5 Z M 61.5 33 L 63 33 L 63 34.5 L 61.5 34.5 Z M 61.5 36 L 63 36 L 63 37.5 L 61.5 37.5 Z M 61.5 18 L 63 18 L 63 19.5 L 61.5 19.5 Z M 67.5 12 L 69 12 L 69 13.5 L 67.5 13.5 Z M 67.5 15 L 69 15 L 69 16.5 L 67.5 16.5 Z M 67.5 21 L 69 21 L 69 22.5 L 67.5 22.5 Z M 67.5 24 L 69 24 L 69 25.5 L 67.5 25.5 Z M 67.5 27 L 69 27 L 69 28.5 L 67.5 28.5 Z M 67.5 30 L 69 30 L 69 31.5 L 67.5 31.5 Z M 67.5 33 L 69 33 L 69 34.5 L 67.5 34.5 Z M 67.5 36 L 69 36 L 69 37.5 L 67.5 37.5 Z M 67.5 18 L 69 18 L 69 19.5 L 67.5 19.5 Z M 73.5 12 L 75 12 L 75 13.5 L 73.5 13.5 Z M 73.5 15 L 75 15 L 75 16.5 L 73.5 16.5 Z M 73.5 21 L 75 21 L 75 22.5 L 73.5 22.5 Z M 73.5 24 L 75 24 L 75 25.5 L 73.5 25.5 Z M 73.5 27 L 75 27 L 75 28.5 L 73.5 28.5 Z M 73.5 30 L 75 30 L 75 31.5 L 73.5 31.5 Z M 73.5 33 L 75 33 L 75 34.5 L 73.5 34.5 Z M 73.5 36 L 75 36 L 75 37.5 L 73.5 37.5 Z M 73.5 18 L 75 18 L 75 19.5 L 73.5 19.5 Z M 34.5 18 L 36 18 L 36 19.5 L 34.5 19.5 Z M 40.5 18 L 42 18 L 42 19.5 L 40.5 19.5 Z M 52.5 18 L 54 18 L 54 19.5 L 52.5 19.5 Z M 46.5 18 L 48 18 L 48 19.5 L 46.5 19.5 Z M 58.5 18 L 60 18 L 60 19.5 L 58.5 19.5 Z M 64.5 18 L 66 18 L 66 19.5 L 64.5 19.5 Z M 76.5 18 L 78 18 L 78 19.5 L 76.5 19.5 Z M 70.5 18 L 72 18 L 72 19.5 L 70.5 19.5 Z M 79.5 18 L 81 18 L 81 19.5 L 79.5 19.5 Z M 16.5 24 L 18 24 L 18 25.5 L 16.5 25.5 Z M 13.5 24 L 15 24 L 15 25.5 L 13.5 25.5 Z M 28.5 24 L 30 24 L 30 25.5 L 28.5 25.5 Z M 22.5 24 L 24 24 L 24 25.5 L 22.5 25.5 Z M 34.5 24 L 36 24 L 36 25.5 L 34.5 25.5 Z M 40.5 24 L 42 24 L 42 25.5 L 40.5 25.5 Z M 52.5 24 L 54 24 L 54 25.5 L 52.5 25.5 Z M 46.5 24 L 48 24 L 48 25.5 L 46.5 25.5 Z M 58.5 24 L 60 24 L 60 25.5 L 58.5 25.5 Z M 64.5 24 L 66 24 L 66 25.5 L 64.5 25.5 Z M 76.5 24 L 78 24 L 78 25.5 L 76.5 25.5 Z M 70.5 24 L 72 24 L 72 25.5 L 70.5 25.5 Z M 79.5 24 L 81 24 L 81 25.5 L 79.5 25.5 Z M 16.5 30 L 18 30 L 18 31.5 L 16.5 31.5 Z M 13.5 30 L 15 30 L 15 31.5 L 13.5 31.5 Z M 28.5 30 L 30 30 L 30 31.5 L 28.5 31.5 Z M 22.5 30 L 24 30 L 24 31.5 L 22.5 31.5 Z M 34.5 30 L 36 30 L 36 31.5 L 34.5 31.5 Z M 40.5 30 L 42 30 L 42 31.5 L 40.5 31.5 Z M 52.5 30 L 54 30 L 54 31.5 L 52.5 31.5 Z M 46.5 30 L 48 30 L 48 31.5 L 46.5 31.5 Z M 58.5 30 L 60 30 L 60 31.5 L 58.5 31.5 Z M 64.5 30 L 66 30 L 66 31.5 L 64.5 31.5 Z M 76.5 30 L 78 30 L 78 31.5 L 76.5 31.5 Z M 70.5 30 L 72 30 L 72 31.5 L 70.5 31.5 Z M 79.5 30 L 81 30 L 81 31.5 L 79.5 31.5 Z M 16.5 36 L 18 36 L 18 37.5 L 16.5 37.5 Z M 13.5 36 L 15 36 L 15 37.5 L 13.5 37.5 Z M 28.5 36 L 30 36 L 30 37.5 L 28.5 37.5 Z M 22.5 36 L 24 36 L 24 37.5 L 22.5 37.5 Z M 34.5 36 L 36 36 L 36 37.5 L 34.5 37.5 Z M 40.5 36 L 42 36 L 42 37.5 L 40.5 37.5 Z M 52.5 36 L 54 36 L 54 37.5 L 52.5 37.5 Z M 46.5 36 L 48 36 L 48 37.5 L 46.5 37.5 Z M 58.5 36 L 60 36 L 60 37.5 L 58.5 37.5 Z M 64.5 36 L 66 36 L 66 37.5 L 64.5 37.5 Z M 76.5 36 L 78 36 L 78 37.5 L 76.5 37.5 Z M 70.5 36 L 72 36 L 72 37.5 L 70.5 37.5 Z M 79.5 36 L 81 36 L 81 37.5 L 79.5 37.5 Z M 16.5 42 L 18 42 L 18 43.5 L 16.5 43.5 Z M 13.5 42 L 15 42 L 15 43.5 L 13.5 43.5 Z M 28.5 42 L 30 42 L 30 43.5 L 28.5 43.5 Z M 22.5 42 L 24 42 L 24 43.5 L 22.5 43.5 Z M 34.5 42 L 36 42 L 36 43.5 L 34.5 43.5 Z M 40.5 42 L 42 42 L 42 43.5 L 40.5 43.5 Z M 52.5 42 L 54 42 L 54 43.5 L 52.5 43.5 Z M 46.5 42 L 48 42 L 48 43.5 L 46.5 43.5 Z M 58.5 42 L 60 42 L 60 43.5 L 58.5 43.5 Z M 64.5 42 L 66 42 L 66 43.5 L 64.5 43.5 Z M 76.5 42 L 78 42 L 78 43.5 L 76.5 43.5 Z M 70.5 42 L 72 42 L 72 43.5 L 70.5 43.5 Z M 79.5 42 L 81 42 L 81 43.5 L 79.5 43.5 Z M 16.5 48 L 18 48 L 18 49.5 L 16.5 49.5 Z M 13.5 48 L 15 48 L 15 49.5 L 13.5 49.5 Z M 28.5 48 L 30 48 L 30 49.5 L 28.5 49.5 Z M 22.5 48 L 24 48 L 24 49.5 L 22.5 49.5 Z M 34.5 48 L 36 48 L 36 49.5 L 34.5 49.5 Z M 40.5 48 L 42 48 L 42 49.5 L 40.5 49.5 Z M 52.5 48 L 54 48 L 54 49.5 L 52.5 49.5 Z M 46.5 48 L 48 48 L 48 49.5 L 46.5 49.5 Z M 58.5 48 L 60 48 L 60 49.5 L 58.5 49.5 Z M 64.5 48 L 66 48 L 66 49.5 L 64.5 49.5 Z M 76.5 48 L 78 48 L 78 49.5 L 76.5 49.5 Z M 70.5 48 L 72 48 L 72 49.5 L 70.5 49.5 Z M 79.5 48 L 81 48 L 81 49.5 L 79.5 49.5 Z M 16.5 54 L 18 54 L 18 55.5 L 16.5 55.5 Z M 13.5 54 L 15 54 L 15 55.5 L 13.5 55.5 Z M 28.5 54 L 30 54 L 30 55.5 L 28.5 55.5 Z M 22.5 54 L 24 54 L 24 55.5 L 22.5 55.5 Z M 34.5 54 L 36 54 L 36 55.5 L 34.5 55.5 Z M 40.5 54 L 42 54 L 42 55.5 L 40.5 55.5 Z M 52.5 54 L 54 54 L 54 55.5 L 52.5 55.5 Z M 46.5 54 L 48 54 L 48 55.5 L 46.5 55.5 Z M 58.5 54 L 60 54 L 60 55.5 L 58.5 55.5 Z M 64.5 54 L 66 54 L 66 55.5 L 64.5 55.5 Z M 76.5 54 L 78 54 L 78 55.5 L 76.5 55.5 Z M 70.5 54 L 72 54 L 72 55.5 L 70.5 55.5 Z M 79.5 54 L 81 54 L 81 55.5 L 79.5 55.5 Z M 16.5 60 L 18 60 L 18 61.5 L 16.5 61.5 Z M 13.5 60 L 15 60 L 15 61.5 L 13.5 61.5 Z M 28.5 60 L 30 60 L 30 61.5 L 28.5 61.5 Z M 22.5 60 L 24 60 L 24 61.5 L 22.5 61.5 Z M 34.5 60 L 36 60 L 36 61.5 L 34.5 61.5 Z M 40.5 60 L 42 60 L 42 61.5 L 40.5 61.5 Z M 52.5 60 L 54 60 L 54 61.5 L 52.5 61.5 Z M 46.5 60 L 48 60 L 48 61.5 L 46.5 61.5 Z M 58.5 60 L 60 60 L 60 61.5 L 58.5 61.5 Z M 64.5 60 L 66 60 L 66 61.5 L 64.5 61.5 Z M 76.5 60 L 78 60 L 78 61.5 L 76.5 61.5 Z M 70.5 60 L 72 60 L 72 61.5 L 70.5 61.5 Z M 79.5 60 L 81 60 L 81 61.5 L 79.5 61.5 Z M 16.5 66 L 18 66 L 18 67.5 L 16.5 67.5 Z M 13.5 66 L 15 66 L 15 67.5 L 13.5 67.5 Z M 28.5 66 L 30 66 L 30 67.5 L 28.5 67.5 Z M 22.5 66 L 24 66 L 24 67.5 L 22.5 67.5 Z M 34.5 66 L 36 66 L 36 67.5 L 34.5 67.5 Z M 40.5 66 L 42 66 L 42 67.5 L 40.5 67.5 Z M 52.5 66 L 54 66 L 54 67.5 L 52.5 67.5 Z M 46.5 66 L 48 66 L 48 67.5 L 46.5 67.5 Z M 58.5 66 L 60 66 L 60 67.5 L 58.5 67.5 Z M 64.5 66 L 66 66 L 66 67.5 L 64.5 67.5 Z M 76.5 66 L 78 66 L 78 67.5 L 76.5 67.5 Z M 70.5 66 L 72 66 L 72 67.5 L 70.5 67.5 Z M 79.5 66 L 81 66 L 81 67.5 L 79.5 67.5 Z M 16.5 72 L 18 72 L 18 73.5 L 16.5 73.5 Z M 13.5 72 L 15 72 L 15 73.5 L 13.5 73.5 Z M 28.5 72 L 30 72 L 30 73.5 L 28.5 73.5 Z M 22.5 72 L 24 72 L 24 73.5 L 22.5 73.5 Z M 34.5 72 L 36 72 L 36 73.5 L 34.5 73.5 Z M 40.5 72 L 42 72 L 42 73.5 L 40.5 73.5 Z M 52.5 72 L 54 72 L 54 73.5 L 52.5 73.5 Z M 46.5 72 L 48 72 L 48 73.5 L 46.5 73.5 Z M 58.5 72 L 60 72 L 60 73.5 L 58.5 73.5 Z M 64.5 72 L 66 72 L 66 73.5 L 64.5 73.5 Z M 76.5 72 L 78 72 L 78 73.5 L 76.5 73.5 Z M 70.5 72 L 72 72 L 72 73.5 L 70.5 73.5 Z M 79.5 72 L 81 72 L 81 73.5 L 79.5 73.5 Z M 16.5 78 L 18 78 L 18 79.5 L 16.5 79.5 Z M 13.5 78 L 15 78 L 15 79.5 L 13.5 79.5 Z M 28.5 78 L 30 78 L 30 79.5 L 28.5 79.5 Z M 22.5 78 L 24 78 L 24 79.5 L 22.5 79.5 Z M 34.5 78 L 36 78 L 36 79.5 L 34.5 79.5 Z M 40.5 78 L 42 78 L 42 79.5 L 40.5 79.5 Z M 52.5 78 L 54 78 L 54 79.5 L 52.5 79.5 Z M 46.5 78 L 48 78 L 48 79.5 L 46.5 79.5 Z M 58.5 78 L 60 78 L 60 79.5 L 58.5 79.5 Z M 64.5 78 L 66 78 L 66 79.5 L 64.5 79.5 Z M 76.5 78 L 78 78 L 78 79.5 L 76.5 79.5 Z M 70.5 78 L 72 78 L 72 79.5 L 70.5 79.5 Z M 79.5 78 L 81 78 L 81 79.5 L 79.5 79.5 Z M 16.5 84 L 18 84 L 18 85.5 L 16.5 85.5 Z M 13.5 84 L 15 84 L 15 85.5 L 13.5 85.5 Z M 28.5 84 L 30 84 L 30 85.5 L 28.5 85.5 Z M 22.5 84 L 24 84 L 24 85.5 L 22.5 85.5 Z M 34.5 84 L 36 84 L 36 85.5 L 34.5 85.5 Z M 40.5 84 L 42 84 L 42 85.5 L 40.5 85.5 Z M 52.5 84 L 54 84 L 54 85.5 L 52.5 85.5 Z M 46.5 84 L 48 84 L 48 85.5 L 46.5 85.5 Z M 58.5 84 L 60 84 L 60 85.5 L 58.5 85.5 Z M 64.5 84 L 66 84 L 66 85.5 L 64.5 85.5 Z M 76.5 84 L 78 84 L 78 85.5 L 76.5 85.5 Z M 70.5 84 L 72 84 L 72 85.5 L 70.5 85.5 Z M 79.5 84 L 81 84 L 81 85.5 L 79.5 85.5 Z M 31.5 18 L 33 18 L 33 19.5 L 31.5 19.5 Z M 19.5 39 L 21 39 L 21 40.5 L 19.5 40.5 Z M 19.5 42 L 21 42 L 21 43.5 L 19.5 43.5 Z M 19.5 45 L 21 45 L 21 46.5 L 19.5 46.5 Z M 19.5 48 L 21 48 L 21 49.5 L 19.5 49.5 Z M 19.5 51 L 21 51 L 21 52.5 L 19.5 52.5 Z M 19.5 54 L 21 54 L 21 55.5 L 19.5 55.5 Z M 19.5 57 L 21 57 L 21 58.5 L 19.5 58.5 Z M 19.5 60 L 21 60 L 21 61.5 L 19.5 61.5 Z M 19.5 63 L 21 63 L 21 64.5 L 19.5 64.5 Z M 19.5 66 L 21 66 L 21 67.5 L 19.5 67.5 Z M 19.5 69 L 21 69 L 21 70.5 L 19.5 70.5 Z M 19.5 72 L 21 72 L 21 73.5 L 19.5 73.5 Z M 19.5 75 L 21 75 L 21 76.5 L 19.5 76.5 Z M 19.5 78 L 21 78 L 21 79.5 L 19.5 79.5 Z M 19.5 81 L 21 81 L 21 82.5 L 19.5 82.5 Z M 19.5 84 L 21 84 L 21 85.5 L 19.5 85.5 Z M 19.5 87 L 21 87 L 21 88.5 L 19.5 88.5 Z M 19.5 90 L 21 90 L 21 91.5 L 19.5 91.5 Z M 25.5 66 L 27 66 L 27 67.5 L 25.5 67.5 Z M 25.5 69 L 27 69 L 27 70.5 L 25.5 70.5 Z M 25.5 72 L 27 72 L 27 73.5 L 25.5 73.5 Z M 25.5 75 L 27 75 L 27 76.5 L 25.5 76.5 Z M 25.5 78 L 27 78 L 27 79.5 L 25.5 79.5 Z M 25.5 81 L 27 81 L 27 82.5 L 25.5 82.5 Z M 25.5 84 L 27 84 L 27 85.5 L 25.5 85.5 Z M 25.5 87 L 27 87 L 27 88.5 L 25.5 88.5 Z M 25.5 90 L 27 90 L 27 91.5 L 25.5 91.5 Z M 31.5 66 L 33 66 L 33 67.5 L 31.5 67.5 Z M 31.5 69 L 33 69 L 33 70.5 L 31.5 70.5 Z M 31.5 72 L 33 72 L 33 73.5 L 31.5 73.5 Z M 31.5 75 L 33 75 L 33 76.5 L 31.5 76.5 Z M 31.5 78 L 33 78 L 33 79.5 L 31.5 79.5 Z M 31.5 81 L 33 81 L 33 82.5 L 31.5 82.5 Z M 31.5 84 L 33 84 L 33 85.5 L 31.5 85.5 Z M 31.5 87 L 33 87 L 33 88.5 L 31.5 88.5 Z M 31.5 90 L 33 90 L 33 91.5 L 31.5 91.5 Z M 37.5 66 L 39 66 L 39 67.5 L 37.5 67.5 Z M 37.5 69 L 39 69 L 39 70.5 L 37.5 70.5 Z M 37.5 72 L 39 72 L 39 73.5 L 37.5 73.5 Z M 37.5 75 L 39 75 L 39 76.5 L 37.5 76.5 Z M 37.5 78 L 39 78 L 39 79.5 L 37.5 79.5 Z M 37.5 81 L 39 81 L 39 82.5 L 37.5 82.5 Z M 37.5 84 L 39 84 L 39 85.5 L 37.5 85.5 Z M 37.5 87 L 39 87 L 39 88.5 L 37.5 88.5 Z M 37.5 90 L 39 90 L 39 91.5 L 37.5 91.5 Z M 43.5 66 L 45 66 L 45 67.5 L 43.5 67.5 Z M 43.5 69 L 45 69 L 45 70.5 L 43.5 70.5 Z M 43.5 72 L 45 72 L 45 73.5 L 43.5 73.5 Z M 43.5 75 L 45 75 L 45 76.5 L 43.5 76.5 Z M 43.5 78 L 45 78 L 45 79.5 L 43.5 79.5 Z M 43.5 81 L 45 81 L 45 82.5 L 43.5 82.5 Z M 43.5 84 L 45 84 L 45 85.5 L 43.5 85.5 Z M 43.5 87 L 45 87 L 45 88.5 L 43.5 88.5 Z M 43.5 90 L 45 90 L 45 91.5 L 43.5 91.5 Z M 49.5 66 L 51 66 L 51 67.5 L 49.5 67.5 Z M 49.5 69 L 51 69 L 51 70.5 L 49.5 70.5 Z M 49.5 72 L 51 72 L 51 73.5 L 49.5 73.5 Z M 49.5 75 L 51 75 L 51 76.5 L 49.5 76.5 Z M 49.5 78 L 51 78 L 51 79.5 L 49.5 79.5 Z M 49.5 81 L 51 81 L 51 82.5 L 49.5 82.5 Z M 49.5 84 L 51 84 L 51 85.5 L 49.5 85.5 Z M 49.5 87 L 51 87 L 51 88.5 L 49.5 88.5 Z M 49.5 90 L 51 90 L 51 91.5 L 49.5 91.5 Z M 55.5 66 L 57 66 L 57 67.5 L 55.5 67.5 Z M 55.5 69 L 57 69 L 57 70.5 L 55.5 70.5 Z M 55.5 72 L 57 72 L 57 73.5 L 55.5 73.5 Z M 55.5 75 L 57 75 L 57 76.5 L 55.5 76.5 Z M 55.5 78 L 57 78 L 57 79.5 L 55.5 79.5 Z M 55.5 81 L 57 81 L 57 82.5 L 55.5 82.5 Z M 55.5 84 L 57 84 L 57 85.5 L 55.5 85.5 Z M 55.5 87 L 57 87 L 57 88.5 L 55.5 88.5 Z M 55.5 90 L 57 90 L 57 91.5 L 55.5 91.5 Z M 61.5 66 L 63 66 L 63 67.5 L 61.5 67.5 Z M 61.5 69 L 63 69 L 63 70.5 L 61.5 70.5 Z M 61.5 72 L 63 72 L 63 73.5 L 61.5 73.5 Z M 61.5 75 L 63 75 L 63 76.5 L 61.5 76.5 Z M 61.5 78 L 63 78 L 63 79.5 L 61.5 79.5 Z M 61.5 81 L 63 81 L 63 82.5 L 61.5 82.5 Z M 61.5 84 L 63 84 L 63 85.5 L 61.5 85.5 Z M 61.5 87 L 63 87 L 63 88.5 L 61.5 88.5 Z M 61.5 90 L 63 90 L 63 91.5 L 61.5 91.5 Z M 67.5 66 L 69 66 L 69 67.5 L 67.5 67.5 Z M 67.5 69 L 69 69 L 69 70.5 L 67.5 70.5 Z M 67.5 72 L 69 72 L 69 73.5 L 67.5 73.5 Z M 67.5 75 L 69 75 L 69 76.5 L 67.5 76.5 Z M 67.5 78 L 69 78 L 69 79.5 L 67.5 79.5 Z M 67.5 81 L 69 81 L 69 82.5 L 67.5 82.5 Z M 67.5 84 L 69 84 L 69 85.5 L 67.5 85.5 Z M 67.5 87 L 69 87 L 69 88.5 L 67.5 88.5 Z M 67.5 90 L 69 90 L 69 91.5 L 67.5 91.5 Z M 73.5 66 L 75 66 L 75 67.5 L 73.5 67.5 Z M 73.5 69 L 75 69 L 75 70.5 L 73.5 70.5 Z M 73.5 72 L 75 72 L 75 73.5 L 73.5 73.5 Z M 73.5 75 L 75 75 L 75 76.5 L 73.5 76.5 Z M 73.5 78 L 75 78 L 75 79.5 L 73.5 79.5 Z M 73.5 81 L 75 81 L 75 82.5 L 73.5 82.5 Z M 73.5 84 L 75 84 L 75 85.5 L 73.5 85.5 Z M 73.5 87 L 75 87 L 75 88.5 L 73.5 88.5 Z M 73.5 90 L 75 90 L 75 91.5 L 73.5 91.5 Z M 25.5 39 L 27 39 L 27 40.5 L 25.5 40.5 Z M 25.5 42 L 27 42 L 27 43.5 L 25.5 43.5 Z M 25.5 48 L 27 48 L 27 49.5 L 25.5 49.5 Z M 25.5 51 L 27 51 L 27 52.5 L 25.5 52.5 Z M 25.5 54 L 27 54 L 27 55.5 L 25.5 55.5 Z M 25.5 57 L 27 57 L 27 58.5 L 25.5 58.5 Z M 25.5 60 L 27 60 L 27 61.5 L 25.5 61.5 Z M 25.5 63 L 27 63 L 27 64.5 L 25.5 64.5 Z M 31.5 39 L 33 39 L 33 40.5 L 31.5 40.5 Z M 31.5 42 L 33 42 L 33 43.5 L 31.5 43.5 Z M 31.5 48 L 33 48 L 33 49.5 L 31.5 49.5 Z M 31.5 51 L 33 51 L 33 52.5 L 31.5 52.5 Z M 31.5 54 L 33 54 L 33 55.5 L 31.5 55.5 Z M 31.5 57 L 33 57 L 33 58.5 L 31.5 58.5 Z M 31.5 60 L 33 60 L 33 61.5 L 31.5 61.5 Z M 31.5 63 L 33 63 L 33 64.5 L 31.5 64.5 Z M 37.5 39 L 39 39 L 39 40.5 L 37.5 40.5 Z M 37.5 42 L 39 42 L 39 43.5 L 37.5 43.5 Z M 37.5 48 L 39 48 L 39 49.5 L 37.5 49.5 Z M 37.5 51 L 39 51 L 39 52.5 L 37.5 52.5 Z M 37.5 54 L 39 54 L 39 55.5 L 37.5 55.5 Z M 37.5 57 L 39 57 L 39 58.5 L 37.5 58.5 Z M 37.5 60 L 39 60 L 39 61.5 L 37.5 61.5 Z M 37.5 63 L 39 63 L 39 64.5 L 37.5 64.5 Z M 25.5 45 L 27 45 L 27 46.5 L 25.5 46.5 Z M 37.5 45 L 39 45 L 39 46.5 L 37.5 46.5 Z M 43.5 39 L 45 39 L 45 40.5 L 43.5 40.5 Z M 43.5 42 L 45 42 L 45 43.5 L 43.5 43.5 Z M 43.5 48 L 45 48 L 45 49.5 L 43.5 49.5 Z M 43.5 51 L 45 51 L 45 52.5 L 43.5 52.5 Z M 43.5 54 L 45 54 L 45 55.5 L 43.5 55.5 Z M 43.5 57 L 45 57 L 45 58.5 L 43.5 58.5 Z M 43.5 60 L 45 60 L 45 61.5 L 43.5 61.5 Z M 43.5 63 L 45 63 L 45 64.5 L 43.5 64.5 Z M 43.5 45 L 45 45 L 45 46.5 L 43.5 46.5 Z M 49.5 39 L 51 39 L 51 40.5 L 49.5 40.5 Z M 49.5 42 L 51 42 L 51 43.5 L 49.5 43.5 Z M 49.5 48 L 51 48 L 51 49.5 L 49.5 49.5 Z M 49.5 51 L 51 51 L 51 52.5 L 49.5 52.5 Z M 49.5 54 L 51 54 L 51 55.5 L 49.5 55.5 Z M 49.5 57 L 51 57 L 51 58.5 L 49.5 58.5 Z M 49.5 60 L 51 60 L 51 61.5 L 49.5 61.5 Z M 49.5 63 L 51 63 L 51 64.5 L 49.5 64.5 Z M 49.5 45 L 51 45 L 51 46.5 L 49.5 46.5 Z M 55.5 39 L 57 39 L 57 40.5 L 55.5 40.5 Z M 55.5 42 L 57 42 L 57 43.5 L 55.5 43.5 Z M 55.5 48 L 57 48 L 57 49.5 L 55.5 49.5 Z M 55.5 51 L 57 51 L 57 52.5 L 55.5 52.5 Z M 55.5 54 L 57 54 L 57 55.5 L 55.5 55.5 Z M 55.5 57 L 57 57 L 57 58.5 L 55.5 58.5 Z M 55.5 60 L 57 60 L 57 61.5 L 55.5 61.5 Z M 55.5 63 L 57 63 L 57 64.5 L 55.5 64.5 Z M 55.5 45 L 57 45 L 57 46.5 L 55.5 46.5 Z M 61.5 39 L 63 39 L 63 40.5 L 61.5 40.5 Z M 61.5 42 L 63 42 L 63 43.5 L 61.5 43.5 Z M 61.5 48 L 63 48 L 63 49.5 L 61.5 49.5 Z M 61.5 51 L 63 51 L 63 52.5 L 61.5 52.5 Z M 61.5 54 L 63 54 L 63 55.5 L 61.5 55.5 Z M 61.5 57 L 63 57 L 63 58.5 L 61.5 58.5 Z M 61.5 60 L 63 60 L 63 61.5 L 61.5 61.5 Z M 61.5 63 L 63 63 L 63 64.5 L 61.5 64.5 Z M 61.5 45 L 63 45 L 63 46.5 L 61.5 46.5 Z M 67.5 39 L 69 39 L 69 40.5 L 67.5 40.5 Z M 67.5 42 L 69 42 L 69 43.5 L 67.5 43.5 Z M 67.5 48 L 69 48 L 69 49.5 L 67.5 49.5 Z M 67.5 51 L 69 51 L 69 52.5 L 67.5 52.5 Z M 67.5 54 L 69 54 L 69 55.5 L 67.5 55.5 Z M 67.5 57 L 69 57 L 69 58.5 L 67.5 58.5 Z M 67.5 60 L 69 60 L 69 61.5 L 67.5 61.5 Z M 67.5 63 L 69 63 L 69 64.5 L 67.5 64.5 Z M 67.5 45 L 69 45 L 69 46.5 L 67.5 46.5 Z M 73.5 39 L 75 39 L 75 40.5 L 73.5 40.5 Z M 73.5 42 L 75 42 L 75 43.5 L 73.5 43.5 Z M 73.5 48 L 75 48 L 75 49.5 L 73.5 49.5 Z M 73.5 51 L 75 51 L 75 52.5 L 73.5 52.5 Z M 73.5 54 L 75 54 L 75 55.5 L 73.5 55.5 Z M 73.5 57 L 75 57 L 75 58.5 L 73.5 58.5 Z M 73.5 60 L 75 60 L 75 61.5 L 73.5 61.5 Z M 73.5 63 L 75 63 L 75 64.5 L 73.5 64.5 Z M 73.5 45 L 75 45 L 75 46.5 L 73.5 46.5 Z M 31.5 45 L 33 45 L 33 46.5 L 31.5 46.5 Z M 31.5 45 "/>
<path style=" stroke:none;fill-rule:nonzero;fill:rgb(100%,76.862746%,61.176473%);fill-opacity:1;" d="M 35.550781 94.050781 L 92.851562 38.398438 L 111.449219 55.5 L 54.300781 112.949219 Z M 35.550781 94.050781 "/>
<path style=" stroke:none;fill-rule:nonzero;fill:rgb(58.823532%,47.843137%,26.666668%);fill-opacity:1;" d="M 92.851562 39.449219 L 110.398438 55.5 L 54.300781 111.898438 L 36.601562 94.050781 L 92.851562 39.449219 M 92.851562 37.351562 L 34.351562 94.050781 L 54.300781 114 L 112.5 55.5 Z M 92.851562 37.351562 "/>
<path style=" stroke:none;fill-rule:nonzero;fill:rgb(58.823532%,47.843137%,26.666668%);fill-opacity:1;" d="M 66.992188 63.554688 L 68.054688 62.492188 L 72.507812 66.945312 L 71.445312 68.007812 Z M 66.992188 63.554688 "/>
<path style=" stroke:none;fill-rule:nonzero;fill:rgb(58.823532%,47.843137%,26.666668%);fill-opacity:1;" d="M 61.015625 69.574219 L 62.074219 68.515625 L 71.089844 77.53125 L 70.03125 78.589844 Z M 61.015625 69.574219 "/>
<path style=" stroke:none;fill-rule:nonzero;fill:rgb(58.823532%,47.843137%,26.666668%);fill-opacity:1;" d="M 49.035156 81.5 L 50.074219 80.414062 L 59.175781 89.125 L 58.140625 90.210938 Z M 49.035156 81.5 "/>
<path style=" stroke:none;fill-rule:nonzero;fill:rgb(58.823532%,47.843137%,26.666668%);fill-opacity:1;" d="M 54.992188 75.554688 L 56.054688 74.492188 L 60.507812 78.945312 L 59.445312 80.007812 Z M 54.992188 75.554688 "/>
<path style=" stroke:none;fill-rule:nonzero;fill:rgb(58.823532%,47.843137%,26.666668%);fill-opacity:1;" d="M 42.992188 87.554688 L 44.054688 86.492188 L 48.507812 90.945312 L 47.445312 92.007812 Z M 42.992188 87.554688 "/>
<path style=" stroke:none;fill-rule:nonzero;fill:rgb(58.823532%,47.843137%,26.666668%);fill-opacity:1;" d="M 85.015625 45.574219 L 86.074219 44.515625 L 95.089844 53.53125 L 94.03125 54.589844 Z M 85.015625 45.574219 "/>
<path style=" stroke:none;fill-rule:nonzero;fill:rgb(58.823532%,47.843137%,26.666668%);fill-opacity:1;" d="M 78.957031 51.472656 L 80.007812 50.402344 L 84.714844 55.03125 L 83.664062 56.097656 Z M 78.957031 51.472656 "/>
<path style=" stroke:none;fill-rule:nonzero;fill:rgb(58.823532%,47.843137%,26.666668%);fill-opacity:1;" d="M 73.015625 57.574219 L 74.074219 56.515625 L 83.089844 65.53125 L 82.03125 66.589844 Z M 73.015625 57.574219 "/>
</g>
</svg>
