<?xml version="1.0" encoding="UTF-8"?>
<svg xmlns="http://www.w3.org/2000/svg" xmlns:xlink="http://www.w3.org/1999/xlink" width="72pt" height="72pt" viewBox="0 0 72 72" version="1.1">
<defs>
<linearGradient id="linear0" gradientUnits="userSpaceOnUse" x1="43.862" y1="501" x2="3.407" y2="501" gradientTransform="matrix(1.5,0,0,-1.5,0,789)">
<stop offset="0" style="stop-color:rgb(0%,40.784314%,72.156864%);stop-opacity:1;"/>
<stop offset="1" style="stop-color:rgb(0%,30.19608%,58.039218%);stop-opacity:1;"/>
</linearGradient>
<linearGradient id="linear1" gradientUnits="userSpaceOnUse" x1="4.159" y1="507.5" x2="15.268" y2="507.5" gradientTransform="matrix(1.5,0,0,-1.5,0,789)">
<stop offset="0" style="stop-color:rgb(15.686275%,68.627453%,91.764706%);stop-opacity:1;"/>
<stop offset="1" style="stop-color:rgb(4.313726%,53.333336%,85.490197%);stop-opacity:1;"/>
</linearGradient>
<radialGradient id="radial0" gradientUnits="userSpaceOnUse" cx="36.778999" cy="37.764999" fx="36.778999" fy="37.764999" r="11.792" gradientTransform="matrix(1.5,0,0,1.5,0,0)">
<stop offset="0" style="stop-color:rgb(0%,0%,0%);stop-opacity:1;"/>
<stop offset="1" style="stop-color:rgb(0%,0%,0%);stop-opacity:0;"/>
</radialGradient>
<linearGradient id="linear2" gradientUnits="userSpaceOnUse" x1="30.188999" y1="494.811005" x2="44.425999" y2="480.574005" gradientTransform="matrix(1.5,0,0,-1.5,0,789)">
<stop offset="0" style="stop-color:rgb(53.333336%,56.470591%,59.215689%);stop-opacity:1;"/>
<stop offset="0.331" style="stop-color:rgb(51.764709%,54.901963%,58.039218%);stop-opacity:1;"/>
<stop offset="0.669" style="stop-color:rgb(47.058824%,50.980395%,54.509807%);stop-opacity:1;"/>
<stop offset="1" style="stop-color:rgb(39.215687%,44.313726%,48.627451%);stop-opacity:1;"/>
</linearGradient>
<linearGradient id="linear3" gradientUnits="userSpaceOnUse" x1="40.751999" y1="484.247986" x2="33.199001" y2="491.800995" gradientTransform="matrix(1.5,0,0,-1.5,0,789)">
<stop offset="0" style="stop-color:rgb(100%,100%,100%);stop-opacity:1;"/>
<stop offset="0.242" style="stop-color:rgb(94.901961%,94.901961%,94.901961%);stop-opacity:1;"/>
<stop offset="1" style="stop-color:rgb(80.000001%,80.000001%,80.000001%);stop-opacity:1;"/>
</linearGradient>
<linearGradient id="linear4" gradientUnits="userSpaceOnUse" x1="33.932999" y1="491.066986" x2="39.313" y2="485.687012" gradientTransform="matrix(1.5,0,0,-1.5,0,789)">
<stop offset="0" style="stop-color:rgb(5.098039%,38.039216%,66.274512%);stop-opacity:1;"/>
<stop offset="0.363" style="stop-color:rgb(5.490196%,37.254903%,64.313728%);stop-opacity:1;"/>
<stop offset="0.78" style="stop-color:rgb(7.450981%,34.117648%,58.823532%);stop-opacity:1;"/>
<stop offset="1" style="stop-color:rgb(8.627451%,32.156864%,54.901963%);stop-opacity:1;"/>
</linearGradient>
<linearGradient id="linear5" gradientUnits="userSpaceOnUse" x1="30.188999" y1="494.811005" x2="44.425999" y2="480.574005" gradientTransform="matrix(1.5,0,0,-1.5,0,789)">
<stop offset="0" style="stop-color:rgb(53.333336%,56.470591%,59.215689%);stop-opacity:1;"/>
<stop offset="0.331" style="stop-color:rgb(51.764709%,54.901963%,58.039218%);stop-opacity:1;"/>
<stop offset="0.669" style="stop-color:rgb(47.058824%,50.980395%,54.509807%);stop-opacity:1;"/>
<stop offset="1" style="stop-color:rgb(39.215687%,44.313726%,48.627451%);stop-opacity:1;"/>
</linearGradient>
<linearGradient id="linear6" gradientUnits="userSpaceOnUse" x1="40.484001" y1="484.515991" x2="33.470001" y2="491.529999" gradientTransform="matrix(1.5,0,0,-1.5,0,789)">
<stop offset="0" style="stop-color:rgb(100%,100%,100%);stop-opacity:1;"/>
<stop offset="0.242" style="stop-color:rgb(94.901961%,94.901961%,94.901961%);stop-opacity:1;"/>
<stop offset="1" style="stop-color:rgb(80.000001%,80.000001%,80.000001%);stop-opacity:1;"/>
</linearGradient>
<linearGradient id="linear7" gradientUnits="userSpaceOnUse" x1="34.193001" y1="490.807007" x2="39.117001" y2="485.882996" gradientTransform="matrix(1.5,0,0,-1.5,0,789)">
<stop offset="0" style="stop-color:rgb(5.098039%,38.039216%,66.274512%);stop-opacity:1;"/>
<stop offset="0.363" style="stop-color:rgb(5.490196%,37.254903%,64.313728%);stop-opacity:1;"/>
<stop offset="0.78" style="stop-color:rgb(7.450981%,34.117648%,58.823532%);stop-opacity:1;"/>
<stop offset="1" style="stop-color:rgb(8.627451%,32.156864%,54.901963%);stop-opacity:1;"/>
</linearGradient>
</defs>
<g id="surface274">
<path style=" stroke:none;fill-rule:nonzero;fill:url(#linear0);" d="M 6 15 L 63 15 C 64.65625 15 66 16.34375 66 18 L 66 57 C 66 58.65625 64.65625 60 63 60 L 16.5 60 C 10.699219 60 6 55.300781 6 49.5 Z M 6 15 "/>
<path style=" stroke:none;fill-rule:nonzero;fill:url(#linear1);" d="M 16.5 39 L 19.5 39 C 21.15625 39 22.5 37.65625 22.5 36 L 22.5 9 C 22.5 7.34375 21.15625 6 19.5 6 L 16.5 6 C 10.699219 6 6 10.699219 6 16.5 L 6 49.5 C 6 43.699219 10.699219 39 16.5 39 Z M 16.5 39 "/>
<path style=" stroke:none;fill-rule:nonzero;fill:rgb(20.784314%,75.686276%,94.509804%);fill-opacity:1;" d="M 27.75 46.5 L 56.25 46.5 C 56.664062 46.5 57 46.835938 57 47.25 L 57 48.75 C 57 49.164062 56.664062 49.5 56.25 49.5 L 27.75 49.5 C 27.335938 49.5 27 49.164062 27 48.75 L 27 47.25 C 27 46.835938 27.335938 46.5 27.75 46.5 Z M 27.75 46.5 "/>
<path style=" stroke:none;fill-rule:nonzero;fill:rgb(20.784314%,75.686276%,94.509804%);fill-opacity:1;" d="M 29.03125 41.03125 L 27.96875 39.96875 C 27.675781 39.675781 27.675781 39.199219 27.96875 38.910156 L 37.71875 29.160156 C 38.011719 28.867188 38.488281 28.867188 38.78125 29.160156 L 44.25 34.628906 L 52.1875 26.6875 L 54.308594 28.808594 L 44.78125 38.339844 C 44.488281 38.632812 44.011719 38.632812 43.71875 38.339844 L 38.25 32.871094 L 30.089844 41.03125 C 29.796875 41.324219 29.324219 41.324219 29.03125 41.03125 Z M 29.03125 41.03125 "/>
<path style=" stroke:none;fill-rule:nonzero;fill:rgb(20.784314%,75.686276%,94.509804%);fill-opacity:1;" d="M 49.28125 25.28125 L 55.71875 31.71875 C 56.191406 32.191406 57 31.855469 57 31.191406 L 57 24.75 C 57 24.335938 56.664062 24 56.25 24 L 49.808594 24 C 49.144531 24 48.808594 24.808594 49.28125 25.28125 Z M 49.28125 25.28125 "/>
<path style=" stroke:none;fill-rule:nonzero;fill:url(#radial0);" d="M 37.5 57 C 37.5 58.027344 37.621094 59.023438 37.792969 60 L 63 60 C 64.65625 60 66 58.65625 66 57 L 66 42.402344 C 63.042969 40.269531 59.425781 39 55.5 39 C 45.558594 39 37.5 47.058594 37.5 57 Z M 37.5 57 "/>
<path style=" stroke:none;fill-rule:nonzero;fill:url(#linear2);" d="M 70.074219 53.503906 C 68.285156 53.730469 66.449219 52.890625 65.492188 51.230469 C 64.535156 49.570312 64.722656 47.566406 65.8125 46.128906 C 64.121094 44.523438 62.054688 43.300781 59.757812 42.621094 C 59.0625 44.289062 57.417969 45.460938 55.5 45.460938 C 53.578125 45.460938 51.9375 44.289062 51.238281 42.621094 C 48.941406 43.304688 46.878906 44.519531 45.183594 46.128906 C 46.273438 47.566406 46.464844 49.570312 45.503906 51.230469 C 44.546875 52.890625 42.714844 53.726562 40.925781 53.503906 C 40.65625 54.625 40.5 55.792969 40.5 57 C 40.5 58.207031 40.65625 59.375 40.925781 60.496094 C 42.714844 60.269531 44.550781 61.109375 45.507812 62.769531 C 46.464844 64.429688 46.277344 66.433594 45.1875 67.871094 C 46.878906 69.476562 48.945312 70.699219 51.242188 71.378906 C 51.9375 69.710938 53.582031 68.539062 55.5 68.539062 C 57.421875 68.539062 59.0625 69.710938 59.761719 71.378906 C 62.058594 70.695312 64.121094 69.480469 65.816406 67.871094 C 64.726562 66.433594 64.535156 64.429688 65.496094 62.769531 C 66.453125 61.109375 68.285156 60.273438 70.074219 60.496094 C 70.34375 59.375 70.5 58.207031 70.5 57 C 70.5 55.792969 70.34375 54.625 70.074219 53.503906 Z M 70.074219 53.503906 "/>
<path style=" stroke:none;fill-rule:nonzero;fill:url(#linear3);" d="M 63.578125 57 C 63.578125 61.460938 59.960938 65.078125 55.5 65.078125 C 51.039062 65.078125 47.421875 61.460938 47.421875 57 C 47.421875 52.539062 51.039062 48.921875 55.5 48.921875 C 59.960938 48.921875 63.578125 52.539062 63.578125 57 Z M 63.578125 57 "/>
<path style=" stroke:none;fill-rule:nonzero;fill:url(#linear4);" d="M 60.417969 57 C 60.417969 59.714844 58.214844 61.917969 55.5 61.917969 C 52.785156 61.917969 50.582031 59.714844 50.582031 57 C 50.582031 54.285156 52.785156 52.082031 55.5 52.082031 C 58.214844 52.082031 60.417969 54.285156 60.417969 57 Z M 60.417969 57 "/>
<path style=" stroke:none;fill-rule:nonzero;fill:url(#linear5);" d="M 70.074219 53.503906 C 68.285156 53.730469 66.449219 52.890625 65.492188 51.230469 C 64.535156 49.570312 64.722656 47.566406 65.8125 46.128906 C 64.121094 44.523438 62.054688 43.300781 59.757812 42.621094 C 59.0625 44.289062 57.417969 45.460938 55.5 45.460938 C 53.578125 45.460938 51.9375 44.289062 51.238281 42.621094 C 48.941406 43.304688 46.878906 44.519531 45.183594 46.128906 C 46.273438 47.566406 46.464844 49.570312 45.503906 51.230469 C 44.546875 52.890625 42.714844 53.726562 40.925781 53.503906 C 40.65625 54.625 40.5 55.792969 40.5 57 C 40.5 58.207031 40.65625 59.375 40.925781 60.496094 C 42.714844 60.269531 44.550781 61.109375 45.507812 62.769531 C 46.464844 64.429688 46.277344 66.433594 45.1875 67.871094 C 46.878906 69.476562 48.945312 70.699219 51.242188 71.378906 C 51.9375 69.710938 53.582031 68.539062 55.5 68.539062 C 57.421875 68.539062 59.0625 69.710938 59.761719 71.378906 C 62.058594 70.695312 64.121094 69.480469 65.816406 67.871094 C 64.726562 66.433594 64.535156 64.429688 65.496094 62.769531 C 66.453125 61.109375 68.285156 60.273438 70.074219 60.496094 C 70.34375 59.375 70.5 58.207031 70.5 57 C 70.5 55.792969 70.34375 54.625 70.074219 53.503906 Z M 70.074219 53.503906 "/>
<path style=" stroke:none;fill-rule:nonzero;fill:url(#linear6);" d="M 63 57 C 63 61.140625 59.640625 64.5 55.5 64.5 C 51.359375 64.5 48 61.140625 48 57 C 48 52.859375 51.359375 49.5 55.5 49.5 C 59.640625 49.5 63 52.859375 63 57 Z M 63 57 "/>
<path style=" stroke:none;fill-rule:nonzero;fill:url(#linear7);" d="M 60 57 C 60 59.484375 57.984375 61.5 55.5 61.5 C 53.015625 61.5 51 59.484375 51 57 C 51 54.515625 53.015625 52.5 55.5 52.5 C 57.984375 52.5 60 54.515625 60 57 Z M 60 57 "/>
</g>
</svg>
