<?xml version="1.0" encoding="UTF-8"?>
<svg xmlns="http://www.w3.org/2000/svg" xmlns:xlink="http://www.w3.org/1999/xlink" width="96pt" height="96pt" viewBox="0 0 96 96" version="1.1">
<g id="surface11895">
<path style="fill:none;stroke-width:2;stroke-linecap:butt;stroke-linejoin:miter;stroke:rgb(21.176471%,25.098041%,30.19608%);stroke-opacity:1;stroke-miterlimit:10;" d="M 27.000326 10 L 35.213216 1.785482 " transform="matrix(2.4,0,0,2.4,0,0)"/>
<path style=" stroke:none;fill-rule:nonzero;fill:rgb(69.01961%,75.686276%,83.137256%);fill-opacity:1;" d="M 37.683594 45.875 L 72.242188 11.3125 L 77.519531 16.78125 L 42.957031 51.34375 Z M 37.683594 45.875 "/>
<path style=" stroke:none;fill-rule:nonzero;fill:rgb(47.058824%,54.509807%,61.176473%);fill-opacity:1;" d="M 72.226562 13.023438 L 75.835938 16.769531 L 42.972656 49.632812 L 39.363281 45.886719 L 72.226562 13.023438 M 72.257812 9.601562 L 36 45.855469 L 42.941406 53.058594 L 79.199219 16.800781 Z M 72.257812 9.601562 "/>
<path style="fill:none;stroke-width:2;stroke-linecap:butt;stroke-linejoin:miter;stroke:rgb(40.000001%,47.450981%,56.078434%);stroke-opacity:1;stroke-miterlimit:10;" d="M 5.999349 30.999349 C 4.500326 32.26237 2.999674 34.697266 2.999674 35.940755 C 2.999674 37.980143 5.019531 38.004557 5.035807 37.999674 C 6.917318 37.999674 8.89974 37.021484 10.499674 35.597331 C 12.000326 34.262695 13.416341 32.999674 15 32.999674 C 16.549479 32.999674 17.373047 33.683268 18.167318 34.344076 C 19.036458 35.065104 19.988607 35.999349 22.000326 35.999349 C 25.112305 35.999349 31.000977 27.620443 33.230794 24.640299 " transform="matrix(2.4,0,0,2.4,0,0)"/>
<path style=" stroke:none;fill-rule:nonzero;fill:rgb(96.862745%,56.078434%,56.078434%);fill-opacity:1;" d="M 18.925781 78 C 16.753906 77.996094 14.714844 77.152344 13.179688 75.621094 C 10.011719 72.453125 10.011719 67.296875 13.179688 64.132812 C 15.503906 62.46875 37.167969 46.574219 37.167969 39.644531 C 37.167969 39.449219 37.175781 39.289062 37.1875 39.160156 C 37.988281 39.738281 39.480469 41.3125 40.628906 42.511719 C 41.464844 43.390625 42.359375 44.332031 43.289062 45.246094 C 44.15625 46.097656 45.054688 46.929688 45.90625 47.71875 C 47.292969 49.003906 49.117188 50.695312 49.734375 51.605469 C 49.585938 51.621094 49.398438 51.632812 49.15625 51.632812 C 42.152344 51.632812 26.324219 73.296875 24.542969 75.769531 C 23.132812 77.15625 21.09375 78 18.925781 78 Z M 18.925781 78 "/>
<path style=" stroke:none;fill-rule:nonzero;fill:rgb(78.039217%,26.274511%,26.274511%);fill-opacity:1;" d="M 38.011719 41.535156 C 38.59375 42.113281 39.214844 42.769531 39.75 43.335938 C 40.597656 44.226562 41.503906 45.175781 42.445312 46.097656 C 43.324219 46.960938 44.230469 47.796875 45.085938 48.59375 C 45.804688 49.257812 46.652344 50.042969 47.363281 50.75 C 39.855469 53.230469 27.671875 69.390625 23.691406 74.898438 C 22.398438 76.125 20.710938 76.800781 18.925781 76.800781 C 17.074219 76.800781 15.335938 76.078125 14.027344 74.773438 C 11.371094 72.113281 11.328125 67.816406 13.90625 65.105469 C 19.378906 61.132812 35.410156 49.003906 38.011719 41.535156 M 36.796875 37.742188 C 36.269531 37.742188 35.96875 38.296875 35.96875 39.644531 C 35.96875 46.160156 12.332031 63.28125 12.332031 63.28125 C 8.691406 66.925781 8.691406 72.828125 12.332031 76.46875 C 14.152344 78.289062 16.535156 79.199219 18.925781 79.199219 C 21.3125 79.199219 23.695312 78.289062 25.515625 76.46875 C 25.515625 76.46875 42.5625 52.832031 49.15625 52.832031 C 54.105469 52.832031 48.757812 48.917969 44.125 44.386719 C 40.921875 41.246094 38.125 37.742188 36.796875 37.742188 Z M 36.796875 37.742188 "/>
<path style="fill:none;stroke-width:2;stroke-linecap:butt;stroke-linejoin:miter;stroke:rgb(78.039217%,26.274511%,26.274511%);stroke-opacity:1;stroke-miterlimit:10;" d="M 15 15 L 22.000326 22.000326 " transform="matrix(2.4,0,0,2.4,0,0)"/>
</g>
</svg>
