<?xml version="1.0" encoding="UTF-8"?>
<svg xmlns="http://www.w3.org/2000/svg" xmlns:xlink="http://www.w3.org/1999/xlink" width="13.5pt" height="13.5pt" viewBox="0 0 13.5 13.5" version="1.1">
<g id="surface1581">
<path style=" stroke:none;fill-rule:nonzero;fill:rgb(30.588236%,47.843137%,70.980394%);fill-opacity:1;" d="M 8.890625 9.375 C 8.34375 9.921875 8.34375 10.800781 8.890625 11.347656 C 9.433594 11.890625 10.3125 11.890625 10.859375 11.347656 C 11.402344 10.800781 11.402344 9.921875 10.859375 9.375 C 10.3125 8.832031 9.433594 8.832031 8.890625 9.375 Z M 8.890625 9.375 "/>
<path style=" stroke:none;fill-rule:nonzero;fill:rgb(30.588236%,47.843137%,70.980394%);fill-opacity:1;" d="M 1.667969 2.152344 C 1.304688 2.515625 1.304688 3.105469 1.667969 3.46875 C 2.027344 3.828125 2.617188 3.828125 2.980469 3.46875 C 3.34375 3.105469 3.34375 2.515625 2.980469 2.152344 C 2.617188 1.792969 2.027344 1.792969 1.667969 2.152344 Z M 1.667969 2.152344 "/>
<path style=" stroke:none;fill-rule:nonzero;fill:rgb(30.588236%,47.843137%,70.980394%);fill-opacity:1;" d="M 1.996094 10.03125 C 1.8125 10.214844 1.8125 10.507812 1.996094 10.6875 C 2.175781 10.871094 2.46875 10.871094 2.652344 10.6875 C 2.832031 10.507812 2.832031 10.214844 2.652344 10.03125 C 2.46875 9.851562 2.175781 9.851562 1.996094 10.03125 Z M 1.996094 10.03125 "/>
<path style=" stroke:none;fill-rule:nonzero;fill:rgb(30.588236%,47.843137%,70.980394%);fill-opacity:1;" d="M 9.050781 1.988281 C 8.597656 2.441406 8.597656 3.179688 9.050781 3.632812 C 9.507812 4.085938 10.242188 4.085938 10.695312 3.632812 C 11.148438 3.179688 11.148438 2.441406 10.695312 1.988281 C 10.242188 1.535156 9.507812 1.535156 9.050781 1.988281 Z M 9.050781 1.988281 "/>
<path style=" stroke:none;fill-rule:nonzero;fill:rgb(30.588236%,47.843137%,70.980394%);fill-opacity:1;" d="M 5.523438 11.753906 C 5.386719 11.890625 5.386719 12.113281 5.523438 12.25 C 5.660156 12.386719 5.878906 12.386719 6.015625 12.25 C 6.152344 12.113281 6.152344 11.890625 6.015625 11.753906 C 5.878906 11.621094 5.660156 11.621094 5.523438 11.753906 Z M 5.523438 11.753906 "/>
<path style=" stroke:none;fill-rule:nonzero;fill:rgb(30.588236%,47.843137%,70.980394%);fill-opacity:1;" d="M 5.195312 0.429688 C 4.785156 0.835938 4.785156 1.5 5.195312 1.90625 C 5.601562 2.316406 6.265625 2.316406 6.671875 1.90625 C 7.082031 1.5 7.082031 0.835938 6.671875 0.429688 C 6.265625 0.0195312 5.601562 0.0234375 5.195312 0.429688 Z M 5.195312 0.429688 "/>
<path style=" stroke:none;fill-rule:nonzero;fill:rgb(30.588236%,47.843137%,70.980394%);fill-opacity:1;" d="M 0.1875 5.929688 C -0.0820312 6.199219 -0.0820312 6.640625 0.1875 6.914062 C 0.460938 7.183594 0.902344 7.183594 1.171875 6.914062 C 1.445312 6.640625 1.445312 6.199219 1.171875 5.929688 C 0.902344 5.65625 0.460938 5.65625 0.1875 5.929688 Z M 0.1875 5.929688 "/>
<path style=" stroke:none;fill-rule:nonzero;fill:rgb(30.588236%,47.843137%,70.980394%);fill-opacity:1;" d="M 10.503906 5.65625 C 10.007812 6.152344 10.007812 6.953125 10.503906 7.449219 C 11 7.945312 11.800781 7.945312 12.296875 7.449219 C 12.792969 6.953125 12.792969 6.152344 12.296875 5.65625 C 11.800781 5.160156 11 5.160156 10.503906 5.65625 Z M 10.503906 5.65625 "/>
</g>
</svg>
