<?xml version="1.0" encoding="UTF-8"?>
<svg xmlns="http://www.w3.org/2000/svg" xmlns:xlink="http://www.w3.org/1999/xlink" width="18pt" height="18pt" viewBox="0 0 18 18" version="1.1">
<g id="surface19821">
<path style=" stroke:none;fill-rule:nonzero;fill:rgb(100%,93.333334%,63.921571%);fill-opacity:1;" d="M 6.523438 13.425781 L 6.523438 12.601562 C 6.523438 11.738281 6 10.90625 5.390625 9.945312 C 4.65625 8.785156 3.824219 7.472656 3.824219 5.851562 C 3.824219 2.996094 6.148438 0.675781 9 0.675781 C 11.851562 0.675781 14.175781 2.996094 14.175781 5.851562 C 14.175781 7.472656 13.34375 8.785156 12.609375 9.945312 C 12 10.90625 11.476562 11.738281 11.476562 12.601562 L 11.476562 13.425781 Z M 6.523438 13.425781 "/>
<path style=" stroke:none;fill-rule:nonzero;fill:rgb(72.941178%,60.784316%,28.235295%);fill-opacity:1;" d="M 9 0.898438 C 11.730469 0.898438 13.949219 3.121094 13.949219 5.851562 C 13.949219 7.40625 13.136719 8.691406 12.417969 9.824219 C 11.816406 10.777344 11.25 11.671875 11.25 12.601562 L 11.25 13.199219 L 6.75 13.199219 L 6.75 12.601562 C 6.75 11.671875 6.183594 10.777344 5.582031 9.824219 C 4.863281 8.691406 4.050781 7.40625 4.050781 5.851562 C 4.050781 3.121094 6.269531 0.898438 9 0.898438 M 9 0.449219 C 6.019531 0.449219 3.601562 2.867188 3.601562 5.851562 C 3.601562 8.851562 6.300781 10.78125 6.300781 12.601562 L 6.300781 13.648438 L 11.699219 13.648438 L 11.699219 12.601562 C 11.699219 10.78125 14.398438 8.851562 14.398438 5.851562 C 14.398438 2.867188 11.980469 0.449219 9 0.449219 Z M 9 0.449219 "/>
<path style=" stroke:none;fill-rule:nonzero;fill:rgb(100%,100%,100%);fill-opacity:1;" d="M 10.222656 5.101562 C 10.445312 5.101562 10.660156 5.1875 10.820312 5.347656 C 11.148438 5.679688 11.148438 6.214844 10.820312 6.542969 L 9.898438 7.464844 L 9.898438 13.050781 L 8.101562 13.050781 L 8.101562 7.464844 L 7.179688 6.542969 C 6.851562 6.214844 6.851562 5.679688 7.179688 5.347656 C 7.339844 5.1875 7.554688 5.101562 7.777344 5.101562 C 8.003906 5.101562 8.21875 5.1875 8.375 5.347656 L 8.683594 5.652344 L 9 5.972656 L 9.316406 5.652344 L 9.625 5.347656 C 9.785156 5.1875 9.996094 5.101562 10.222656 5.101562 M 10.222656 4.652344 C 9.890625 4.652344 9.558594 4.777344 9.304688 5.03125 L 9 5.335938 L 8.695312 5.03125 C 8.441406 4.777344 8.109375 4.652344 7.777344 4.652344 C 7.445312 4.652344 7.113281 4.777344 6.863281 5.03125 C 6.355469 5.535156 6.355469 6.355469 6.863281 6.863281 L 7.648438 7.648438 L 7.648438 13.5 L 10.351562 13.5 L 10.351562 7.648438 L 11.136719 6.863281 C 11.644531 6.355469 11.644531 5.535156 11.136719 5.03125 C 10.882812 4.777344 10.554688 4.652344 10.222656 4.652344 Z M 10.222656 4.652344 "/>
<path style=" stroke:none;fill-rule:nonzero;fill:rgb(54.509807%,45.882353%,63.137257%);fill-opacity:1;" d="M 9 13.949219 C 8.007812 13.949219 7.199219 14.757812 7.199219 15.75 C 7.199219 16.742188 8.007812 17.550781 9 17.550781 C 9.992188 17.550781 10.800781 16.742188 10.800781 15.75 C 10.800781 14.757812 9.992188 13.949219 9 13.949219 Z M 9 13.949219 "/>
<path style=" stroke:none;fill-rule:nonzero;fill:rgb(86.274511%,83.529413%,94.901961%);fill-opacity:1;" d="M 7.648438 16.425781 C 7.03125 16.425781 6.523438 15.921875 6.523438 15.300781 L 6.523438 12.824219 L 11.476562 12.824219 L 11.476562 15.300781 C 11.476562 15.921875 10.96875 16.425781 10.351562 16.425781 Z M 7.648438 16.425781 "/>
<path style=" stroke:none;fill-rule:nonzero;fill:rgb(54.509807%,45.882353%,63.137257%);fill-opacity:1;" d="M 11.25 13.050781 L 11.25 15.300781 C 11.25 15.796875 10.847656 16.199219 10.351562 16.199219 L 7.648438 16.199219 C 7.152344 16.199219 6.75 15.796875 6.75 15.300781 L 6.75 13.050781 L 11.25 13.050781 M 11.699219 12.601562 L 6.300781 12.601562 L 6.300781 15.300781 C 6.300781 16.046875 6.90625 16.648438 7.648438 16.648438 L 10.351562 16.648438 C 11.09375 16.648438 11.699219 16.046875 11.699219 15.300781 Z M 11.699219 12.601562 "/>
<path style=" stroke:none;fill-rule:nonzero;fill:rgb(54.509807%,45.882353%,63.137257%);fill-opacity:1;" d="M 8.550781 15.300781 L 11.46875 15.300781 L 11.46875 15.75 L 8.550781 15.75 Z M 6.550781 15.300781 L 7.648438 15.300781 L 7.648438 15.75 L 6.550781 15.75 Z M 8.550781 14.398438 L 11.699219 14.398438 L 11.699219 14.851562 L 8.550781 14.851562 Z M 6.300781 14.398438 L 7.648438 14.398438 L 7.648438 14.851562 L 6.300781 14.851562 Z M 8.550781 13.5 L 11.699219 13.5 L 11.699219 13.949219 L 8.550781 13.949219 Z M 6.300781 13.5 L 7.648438 13.5 L 7.648438 13.949219 L 6.300781 13.949219 Z M 6.300781 13.5 "/>
</g>
</svg>
