<svg xmlns="http://www.w3.org/2000/svg"  viewBox="0 0 30 30" width="30px" height="30px"><path fill="#ffeea3" d="M11.5,22.5V21c0-1.49-1.035-2.911-2.131-4.415C8.024,14.74,6.5,12.648,6.5,10 c0-4.687,3.813-8.5,8.5-8.5s8.5,3.813,8.5,8.5c0,2.648-1.524,4.74-2.869,6.585C19.535,18.089,18.5,19.51,18.5,21v1.5H11.5z"/><path fill="#ba9b48" d="M15,2c4.411,0,8,3.589,8,8c0,2.485-1.409,4.42-2.773,6.29C19.082,17.862,18,19.347,18,21v1h-3h-3v-1 c0-1.653-1.082-3.138-2.227-4.71C8.409,14.42,7,12.485,7,10C7,5.589,10.589,2,15,2 M15,1c-4.971,0-9,4.029-9,9c0,5,5,7.969,5,11v2 h4h4v-2c0-3.031,5-6,5-11C24,5.029,19.971,1,15,1L15,1z"/><path fill="#fff" d="M17,8.879c0.3,0,0.581,0.117,0.793,0.328c0.437,0.437,0.437,1.149,0,1.586l-1.5,1.5L16,12.586V13v10 h-2V13v-0.414l-0.293-0.293l-1.5-1.5c-0.437-0.437-0.437-1.149,0-1.586C12.419,8.995,12.7,8.879,13,8.879s0.581,0.117,0.793,0.328 l0.5,0.5L15,10.414l0.707-0.707l0.5-0.5C16.419,8.995,16.7,8.879,17,8.879 M17,7.879c-0.543,0-1.086,0.207-1.5,0.621L15,9l-0.5-0.5 c-0.414-0.414-0.957-0.621-1.5-0.621S11.914,8.086,11.5,8.5c-0.828,0.828-0.828,2.172,0,3L13,13v11h4V13l1.5-1.5 c0.828-0.828,0.828-2.172,0-3C18.086,8.086,17.543,7.879,17,7.879L17,7.879z"/><path fill="#8b75a1" d="M15 23A3 3 0 1 0 15 29A3 3 0 1 0 15 23Z"/><path fill="#dcd5f2" d="M13,27.5c-0.827,0-1.5-0.673-1.5-1.5v-4.5h7V26c0,0.827-0.673,1.5-1.5,1.5H13z"/><path fill="#8b75a1" d="M18,22v4c0,0.551-0.449,1-1,1h-4c-0.551,0-1-0.449-1-1v-4H18 M19,21h-8v5c0,1.105,0.895,2,2,2h4 c1.105,0,2-0.895,2-2V21L19,21z"/><path fill="#8b75a1" d="M14 23H19V24H14zM14 25H19V26H14zM11 23H13V24H11zM11 25H13V26H11z"/></svg>