<?xml version="1.0" encoding="UTF-8"?>
<svg xmlns="http://www.w3.org/2000/svg" xmlns:xlink="http://www.w3.org/1999/xlink" width="96pt" height="96pt" viewBox="0 0 96 96" version="1.1">
<g id="surface12551">
<path style=" stroke:none;fill-rule:nonzero;fill:rgb(54.509807%,71.764708%,94.117647%);fill-opacity:1;" d="M 59.40625 67.800781 L 93.007812 67.800781 L 93.007812 93 L 59.40625 93 Z M 59.40625 67.800781 "/>
<path style=" stroke:none;fill-rule:nonzero;fill:rgb(30.588236%,47.843137%,70.980394%);fill-opacity:1;" d="M 92.40625 68.398438 L 92.40625 92.398438 L 60.007812 92.398438 L 60.007812 68.398438 L 92.40625 68.398438 M 93.605469 67.199219 L 58.804688 67.199219 L 58.804688 93.601562 L 93.605469 93.601562 Z M 93.605469 67.199219 "/>
<path style=" stroke:none;fill-rule:nonzero;fill:rgb(54.509807%,71.764708%,94.117647%);fill-opacity:1;" d="M 59.40625 31.800781 L 93.007812 31.800781 L 93.007812 55.800781 L 59.40625 55.800781 Z M 59.40625 31.800781 "/>
<path style=" stroke:none;fill-rule:nonzero;fill:rgb(30.588236%,47.843137%,70.980394%);fill-opacity:1;" d="M 92.40625 32.398438 L 92.40625 55.199219 L 60.007812 55.199219 L 60.007812 32.398438 L 92.40625 32.398438 M 93.605469 31.199219 L 58.804688 31.199219 L 58.804688 56.398438 L 93.605469 56.398438 Z M 93.605469 31.199219 "/>
<path style=" stroke:none;fill-rule:nonzero;fill:rgb(96.862745%,56.078434%,56.078434%);fill-opacity:1;" d="M 3 3 L 36.601562 3 L 36.601562 28.199219 L 3 28.199219 Z M 3 3 "/>
<path style=" stroke:none;fill-rule:nonzero;fill:rgb(78.039217%,26.274511%,26.274511%);fill-opacity:1;" d="M 36 3.601562 L 36 27.601562 L 3.601562 27.601562 L 3.601562 3.601562 L 36 3.601562 M 37.199219 2.402344 L 2.398438 2.402344 L 2.398438 28.800781 L 37.199219 28.800781 Z M 37.199219 2.402344 "/>
<path style=" stroke:none;fill-rule:nonzero;fill:rgb(40.000001%,47.450981%,56.078434%);fill-opacity:1;" d="M 58.804688 80.398438 L 20.40625 80.398438 L 20.40625 28.800781 L 19.207031 28.800781 L 19.207031 81.601562 L 58.804688 81.601562 Z M 58.804688 80.398438 "/>
<path style=" stroke:none;fill-rule:nonzero;fill:rgb(40.000001%,47.450981%,56.078434%);fill-opacity:1;" d="M 19.207031 44.398438 L 19.207031 43.199219 L 58.808594 43.199219 L 58.808594 44.398438 Z M 19.207031 44.398438 "/>
</g>
</svg>
