<?xml version="1.0" encoding="UTF-8"?>
<svg xmlns="http://www.w3.org/2000/svg" xmlns:xlink="http://www.w3.org/1999/xlink" width="30pt" height="30pt" viewBox="0 0 30 30" version="1.1">
<g id="surface50">
<path style=" stroke:none;fill-rule:nonzero;fill:rgb(30.588236%,47.843137%,70.980394%);fill-opacity:1;" d="M 25.527344 7.5 C 25.527344 7.5 16.695312 7.5 10.75 7.5 C 3.3125 7.5 2.535156 12.75 2.535156 12.75 L 1.101562 12.75 L 0 16.5 L 1.878906 16.5 C 1.878906 16.5 1.253906 21.75 8.714844 21.75 L 22.367188 21.75 L 22.964844 19.714844 L 26.015625 19.714844 C 29.300781 19.714844 29.761719 17.222656 29.761719 16.121094 C 29.761719 14.875 29.105469 14.355469 29.105469 14.355469 C 29.105469 14.355469 30 13.882812 30 12.207031 C 30 9.296875 26.945312 9.535156 26.945312 9.535156 L 25 9.535156 Z M 17.476562 10.042969 C 21.191406 10.042969 20.90625 12.917969 20.90625 12.917969 L 18.398438 12.917969 C 18.398438 12.117188 17.894531 11.992188 17.296875 11.992188 C 16.699219 11.992188 16.28125 12.246094 16.28125 12.710938 C 16.28125 13.832031 20.488281 13.058594 20.488281 16.183594 C 20.484375 17.53125 19.441406 19.234375 16.519531 19.234375 C 14.527344 19.234375 12.808594 18.261719 12.882812 16.0625 L 15.445312 16.0625 C 15.445312 16.503906 15.519531 17.320312 16.667969 17.320312 C 17.140625 17.320312 17.921875 17.121094 17.921875 16.449219 C 17.921875 15.203125 13.746094 15.84375 13.746094 12.949219 C 13.75 11.371094 15.171875 10.042969 17.476562 10.042969 Z M 5.757812 10.195312 L 8.441406 10.195312 L 7.484375 14.953125 C 7.484375 14.953125 6.804688 17.019531 8.351562 17.019531 C 9.792969 17.019531 9.960938 15.101562 9.960938 15.101562 L 11.003906 10.195312 L 13.660156 10.195312 L 12.554688 15.433594 C 12.554688 15.433594 12.472656 19.203125 8.144531 19.203125 C 4.460938 19.203125 4.484375 16.488281 4.535156 16.210938 C 4.582031 15.9375 5.757812 10.195312 5.757812 10.195312 Z M 22.277344 10.253906 L 26.929688 10.253906 C 27.71875 10.253906 29.140625 10.492188 29.140625 12.179688 C 29.140625 14.078125 27.792969 14.296875 27.792969 14.296875 C 27.792969 14.296875 28.933594 14.589844 28.933594 16.09375 C 28.933594 18.949219 26.0625 18.996094 25.765625 18.996094 L 20.429688 18.996094 Z M 24.335938 12.320312 L 24.097656 13.636719 L 25.734375 13.636719 C 25.867188 13.636719 26.542969 13.515625 26.542969 12.886719 C 26.542969 12.261719 25.886719 12.320312 25.886719 12.320312 Z M 23.738281 15.253906 L 23.410156 16.898438 L 25.199219 16.898438 C 25.367188 16.898438 26.273438 16.769531 26.273438 15.972656 C 26.273438 15.175781 25.289062 15.253906 25.289062 15.253906 Z M 23.738281 15.253906 "/>
</g>
</svg>
