<?xml version="1.0" encoding="UTF-8"?>
<svg xmlns="http://www.w3.org/2000/svg" width="18pt" height="18pt" viewBox="0 0 18 18" version="1.1">
<g id="surface_add_waterfall_action" transform="matrix(0.887349,0,0,0.887349,0.126732,0.331791)">
<!-- Cream plot area (rounded rect) -->
<path style="stroke:none;fill-rule:nonzero;fill:rgb(88.235295%,92.156863%,94.901961%);fill-opacity:1;" d="M 1.800781 16.875 C 1.179688 16.875 0.675781 16.371094 0.675781 15.75 L 0.675781 1.800781 C 0.675781 1.179688 1.179688 0.675781 1.800781 0.675781 L 15.75 0.675781 C 16.371094 0.675781 16.875 1.179688 16.875 1.800781 L 16.875 15.75 C 16.875 16.371094 16.371094 16.875 15.75 16.875 Z M 1.800781 16.875 "/>
<!-- Grey border -->
<path style="stroke:none;fill-rule:nonzero;fill:rgb(47.058824%,54.509807%,61.176473%);fill-opacity:1;" d="M 15.75 0.898438 C 16.246094 0.898438 16.648438 1.304688 16.648438 1.800781 L 16.648438 15.75 C 16.648438 16.246094 16.246094 16.648438 15.75 16.648438 L 1.800781 16.648438 C 1.304688 16.648438 0.898438 16.246094 0.898438 15.75 L 0.898438 1.800781 C 0.898438 1.304688 1.304688 0.898438 1.800781 0.898438 L 15.75 0.898438 M 15.75 0.449219 L 1.800781 0.449219 C 1.054688 0.449219 0.449219 1.054688 0.449219 1.800781 L 0.449219 15.75 C 0.449219 16.496094 1.054688 17.101562 1.800781 17.101562 L 15.75 17.101562 C 16.496094 17.101562 17.101562 16.496094 17.101562 15.75 L 17.101562 1.800781 C 17.101562 1.054688 16.496094 0.449219 15.75 0.449219 Z M 15.75 0.449219 "/>
<!-- Light-grey crosshair axes -->
<path style="stroke:none;fill-rule:nonzero;fill:rgb(71.372551%,78.823531%,83.92157%);fill-opacity:1;" d="M 8.550781 0.898438 L 9 0.898438 L 9 16.648438 L 8.550781 16.648438 Z M 8.550781 0.898438 "/>
<path style="stroke:none;fill-rule:nonzero;fill:rgb(71.372551%,78.823531%,83.92157%);fill-opacity:1;" d="M 0.898438 8.550781 L 16.648438 8.550781 L 16.648438 9 L 0.898438 9 Z M 0.898438 8.550781 "/>
<!-- Spectrogram stripes -->
<rect x="2.25" y="2.5"  width="13.5" height="2.1" fill="rgb(217,56,35)"/>
<rect x="2.25" y="4.6"  width="13.5" height="2.1" fill="rgb(245,166,36)"/>
<rect x="2.25" y="6.7"  width="13.5" height="2.1" fill="rgb(149,223,60)"/>
<rect x="2.25" y="8.8"  width="13.5" height="2.1" fill="rgb(60,180,220)"/>
<rect x="2.25" y="10.9" width="13.5" height="2.1" fill="rgb(56,80,200)"/>
<rect x="2.25" y="13.0" width="13.5" height="2.1" fill="rgb(48,18,91)"/>
<!-- Row separators -->
<rect x="2.25" y="4.55" width="13.5" height="0.15" fill="rgba(0,0,0,0.18)"/>
<rect x="2.25" y="6.65" width="13.5" height="0.15" fill="rgba(0,0,0,0.18)"/>
<rect x="2.25" y="8.75" width="13.5" height="0.15" fill="rgba(0,0,0,0.18)"/>
<rect x="2.25" y="10.85" width="13.5" height="0.15" fill="rgba(0,0,0,0.18)"/>
<rect x="2.25" y="12.95" width="13.5" height="0.15" fill="rgba(0,0,0,0.18)"/>
</g>
<g id="surface1634" transform="matrix(0.738175,0,0,0.738175,9.00349,9.00349)">
<path d="M6.094,0.406C2.953,0.406 0.406,2.953 0.406,6.094C0.406,9.234 2.953,11.781 6.094,11.781C9.234,11.781 11.781,9.234 11.781,6.094C11.781,2.953 9.234,0.406 6.094,0.406Z" style="fill:rgb(186,224,189);fill-rule:nonzero;"/>
<path d="M6.094,0.813C9.004,0.813 11.375,3.184 11.375,6.094C11.375,9.004 9.004,11.375 6.094,11.375C3.184,11.375 0.813,9.004 0.813,6.094C0.813,3.184 3.184,0.813 6.094,0.813M6.094,0C2.727,0 0,2.727 0,6.094C0,9.461 2.727,12.188 6.094,12.188C9.461,12.188 12.188,9.461 12.188,6.094C12.188,2.727 9.461,0 6.094,0Z" style="fill:rgb(94,156,118);fill-rule:nonzero;"/>
<g transform="matrix(1,0,0,1.94409,0,-5.75304)">
<rect x="2.844" y="5.688" width="6.5" height="0.813" style="fill:white;"/>
</g>
<g transform="matrix(1.94409,0,0,1,-5.75304,0)">
<rect x="5.688" y="2.844" width="0.813" height="6.5" style="fill:white;fill-rule:nonzero;"/>
</g>
</g>
</svg>
