<?xml version="1.0" encoding="UTF-8" standalone="no"?>
<!DOCTYPE svg PUBLIC "-//W3C//DTD SVG 1.1//EN" "http://www.w3.org/Graphics/SVG/1.1/DTD/svg11.dtd">
<svg width="100%" height="100%" viewBox="0 0 18 18" version="1.1" xmlns="http://www.w3.org/2000/svg" xmlns:xlink="http://www.w3.org/1999/xlink" xml:space="preserve" xmlns:serif="http://www.serif.com/" style="fill-rule:evenodd;clip-rule:evenodd;stroke-linejoin:round;stroke-miterlimit:2;">
    <g id="surface1957" transform="matrix(0.819182,0,0,0.819182,0.81368,0.0812268)">
        <rect x="10.574" y="10.574" width="0.902" height="6.75" style="fill:rgb(254,238,163);fill-rule:nonzero;"/>
        <path d="M11.25,10.801L11.25,17.102L10.801,17.102L10.801,10.801L11.25,10.801M11.699,10.352L10.352,10.352L10.352,17.551L11.699,17.551L11.699,10.352Z" style="fill:rgb(245,194,118);fill-rule:nonzero;"/>
        <rect x="6.523" y="10.574" width="0.902" height="6.75" style="fill:rgb(254,238,163);fill-rule:nonzero;"/>
        <path d="M7.199,10.801L7.199,17.102L6.75,17.102L6.75,10.801L7.199,10.801M7.648,10.352L6.301,10.352L6.301,17.551L7.648,17.551L7.648,10.352Z" style="fill:rgb(245,194,118);fill-rule:nonzero;"/>
        <path d="M5.625,9.227L5.625,4.051C5.625,2.188 7.141,0.676 9,0.676C10.859,0.676 12.375,2.188 12.375,4.051L12.375,9.227L5.625,9.227Z" style="fill:rgb(246,143,143);fill-rule:nonzero;"/>
        <path d="M9,0.898C10.738,0.898 12.148,2.313 12.148,4.051L12.148,9L5.852,9L5.852,4.051C5.852,2.313 7.262,0.898 9,0.898M9,0.449C7.02,0.449 5.398,2.07 5.398,4.051L5.398,9.449L12.602,9.449L12.602,4.051C12.602,2.07 10.98,0.449 9,0.449Z" style="fill:rgb(171,52,52);fill-rule:nonzero;"/>
        <rect x="4.727" y="9.227" width="8.547" height="1.348" style="fill:rgb(246,143,143);fill-rule:nonzero;"/>
        <path d="M13.051,9.449L13.051,10.352L4.949,10.352L4.949,9.449L13.051,9.449M13.5,9L4.5,9L4.5,10.801L13.5,10.801L13.5,9Z" style="fill:rgb(171,52,52);fill-rule:nonzero;"/>
        <path d="M6.301,9.449L7.648,9.449L7.648,10.352L6.301,10.352L6.301,9.449ZM10.352,9.449L11.699,9.449L11.699,10.352L10.352,10.352L10.352,9.449ZM7.648,9L6.301,9L6.301,7.168C6.301,7.168 6.242,5.398 8.102,5.398L8.102,6.75C7.617,6.75 7.648,7.18 7.648,7.18L7.648,9ZM10.352,9L11.699,9L11.699,7.168C11.699,7.168 11.758,5.398 9.898,5.398L9.898,6.75C10.383,6.75 10.352,7.18 10.352,7.18L10.352,9Z" style="fill:rgb(246,82,82);fill-rule:nonzero;"/>
        <path d="M9,4.5C8.254,4.5 7.648,5.105 7.648,5.852C7.648,6.594 8.254,7.199 9,7.199C9.746,7.199 10.352,6.594 10.352,5.852C10.352,5.105 9.746,4.5 9,4.5Z" style="fill:rgb(254,254,254);fill-rule:nonzero;"/>
    </g>
    <g id="surface1634" transform="matrix(0.738175,0,0,0.738175,9.00349,9.00349)">
        <path d="M6.094,0.406C2.953,0.406 0.406,2.953 0.406,6.094C0.406,9.234 2.953,11.781 6.094,11.781C9.234,11.781 11.781,9.234 11.781,6.094C11.781,2.953 9.234,0.406 6.094,0.406Z" style="fill:rgb(186,224,189);fill-rule:nonzero;"/>
        <path d="M6.094,0.813C9.004,0.813 11.375,3.184 11.375,6.094C11.375,9.004 9.004,11.375 6.094,11.375C3.184,11.375 0.813,9.004 0.813,6.094C0.813,3.184 3.184,0.813 6.094,0.813M6.094,0C2.727,0 0,2.727 0,6.094C0,9.461 2.727,12.188 6.094,12.188C9.461,12.188 12.188,9.461 12.188,6.094C12.188,2.727 9.461,0 6.094,0Z" style="fill:rgb(94,156,118);fill-rule:nonzero;"/>
        <g transform="matrix(1,0,0,1.94409,0,-5.75304)">
            <rect x="2.844" y="5.688" width="6.5" height="0.813" style="fill:white;"/>
        </g>
        <g transform="matrix(1.94409,0,0,1,-5.75304,0)">
            <rect x="5.688" y="2.844" width="0.813" height="6.5" style="fill:white;"/>
        </g>
    </g>
</svg>
