<?xml version="1.0" encoding="UTF-8"?>
<svg xmlns="http://www.w3.org/2000/svg" xmlns:xlink="http://www.w3.org/1999/xlink" width="18pt" height="18pt" viewBox="0 0 18 18" version="1.1">
<g id="surface3046">
<path style=" stroke:none;fill-rule:nonzero;fill:rgb(69.01961%,50.588238%,34.901962%);fill-opacity:1;" d="M 9 10.894531 L 4.257812 13.738281 L 7.101562 9 L 4.265625 4.25 L 9 7.101562 L 13.742188 4.257812 L 10.898438 9 L 13.742188 13.738281 Z M 9 10.894531 "/>
<path style=" stroke:none;fill-rule:nonzero;fill:rgb(43.921569%,30.588236%,20.392157%);fill-opacity:1;" d="M 4.917969 4.910156 L 8.769531 7.226562 L 9 7.367188 L 9.230469 7.226562 L 13.085938 4.914062 L 10.773438 8.769531 L 10.636719 9 L 10.773438 9.230469 L 13.085938 13.082031 L 9.230469 10.773438 L 9 10.632812 L 8.769531 10.769531 L 4.914062 13.082031 L 7.226562 9.230469 L 7.363281 9 L 7.226562 8.769531 L 4.917969 4.910156 M 3.609375 3.59375 L 6.839844 9 L 3.601562 14.394531 L 9 11.15625 L 14.398438 14.394531 L 11.160156 9 L 14.398438 3.605469 L 9 6.839844 Z M 3.609375 3.59375 "/>
<path style=" stroke:none;fill-rule:nonzero;fill:rgb(96.078432%,80.784315%,52.156866%);fill-opacity:1;" d="M 7.226562 8.769531 L 7.363281 9 L 9 9 L 4.933594 4.933594 Z M 8.769531 10.769531 L 9 10.632812 L 9 9 L 4.921875 13.078125 Z M 9.230469 7.226562 L 9 7.367188 L 9 9 L 13.082031 4.917969 Z M 13.085938 13.082031 L 10.773438 9.230469 L 10.636719 9 L 9 9 L 13.078125 13.078125 Z M 13.085938 13.082031 "/>
<path style=" stroke:none;fill-rule:nonzero;fill:rgb(69.01961%,50.588238%,34.901962%);fill-opacity:1;" d="M 7.386719 10.613281 L 0.929688 9 L 7.386719 7.386719 L 9.011719 0.929688 L 10.613281 7.386719 L 17.070312 9 L 10.613281 10.613281 L 9 17.070312 Z M 7.386719 10.613281 "/>
<path style=" stroke:none;fill-rule:nonzero;fill:rgb(43.921569%,30.588236%,20.392157%);fill-opacity:1;" d="M 9.011719 1.855469 L 10.363281 7.308594 L 10.429688 7.570312 L 10.691406 7.636719 L 16.144531 9 L 10.691406 10.363281 L 10.429688 10.429688 L 10.363281 10.691406 L 9 16.144531 L 7.636719 10.691406 L 7.570312 10.429688 L 7.308594 10.363281 L 1.855469 9 L 7.308594 7.636719 L 7.570312 7.570312 L 7.636719 7.308594 L 9.011719 1.855469 M 9.015625 0 L 7.199219 7.199219 L 0 9 L 7.199219 10.800781 L 9 18 L 10.800781 10.800781 L 18 9 L 10.800781 7.199219 Z M 9.015625 0 "/>
<path style=" stroke:none;fill-rule:nonzero;fill:rgb(96.078432%,80.784315%,52.156866%);fill-opacity:1;" d="M 7.308594 10.363281 L 7.570312 10.429688 L 9 9 L 1.855469 9 Z M 10.363281 10.691406 L 10.429688 10.429688 L 9 9 L 9 16.144531 Z M 10.429688 7.570312 L 9 9 L 16.144531 9 L 10.691406 7.636719 Z M 7.636719 7.308594 L 7.570312 7.570312 L 9 9 L 9 1.902344 Z M 7.636719 7.308594 "/>
</g>
</svg>
