<?xml version="1.0" encoding="UTF-8" standalone="no"?>
<!DOCTYPE svg PUBLIC "-//W3C//DTD SVG 1.1//EN" "http://www.w3.org/Graphics/SVG/1.1/DTD/svg11.dtd">
<svg width="100%" height="100%" viewBox="0 0 60 60" version="1.1" xmlns="http://www.w3.org/2000/svg" xmlns:xlink="http://www.w3.org/1999/xlink" xml:space="preserve" xmlns:serif="http://www.serif.com/" style="fill-rule:evenodd;clip-rule:evenodd;stroke-linejoin:round;stroke-miterlimit:2;">
    <g id="surface950" transform="matrix(0.833333,0,0,0.833333,0.5,0.5)">
        <path d="M56.59,30C56.59,44.684 44.684,56.59 30,56.59C15.316,56.59 3.41,44.684 3.41,30C3.41,15.316 15.316,3.41 30,3.41C44.684,3.41 56.59,15.316 56.59,30Z" style="fill:rgb(194,232,254);fill-rule:nonzero;"/>
        <path d="M14.051,50.852L17.703,45.484C16.008,43.84 13.387,40.969 12.477,38.75L6.664,42.031C8.184,45.402 11.262,48.496 14.051,50.852Z" style="fill:rgb(245,206,133);fill-rule:nonzero;"/>
        <path d="M6.48,41.285L12.184,38.18C11.426,35.941 10.406,32.191 10.613,29.801L3.941,30.066C3.75,33.758 5.074,37.914 6.48,41.285Z" style="fill:rgb(245,206,133);fill-rule:nonzero;"/>
        <path d="M30,57C15.113,57 3,44.887 3,30C3,15.113 15.113,3 30,3C44.887,3 57,15.113 57,30C57,44.887 44.887,57 30,57ZM30,4.5C15.938,4.5 4.5,15.938 4.5,30C4.5,44.063 15.938,55.5 30,55.5C44.063,55.5 55.5,44.063 55.5,30C55.5,15.938 44.063,4.5 30,4.5Z" style="fill:rgb(78,121,181);fill-rule:nonzero;"/>
        <path d="M49.5,30C49.5,40.77 40.77,49.5 30,49.5C19.23,49.5 10.5,40.77 10.5,30C10.5,19.23 19.23,10.5 30,10.5C40.77,10.5 49.5,19.23 49.5,30Z" style="fill:rgb(225,235,242);fill-rule:nonzero;"/>
        <path d="M30,50.25C18.836,50.25 9.75,41.164 9.75,30C9.75,18.836 18.836,9.75 30,9.75C41.164,9.75 50.25,18.836 50.25,30C50.25,41.164 41.164,50.25 30,50.25ZM30,11.25C19.66,11.25 11.25,19.66 11.25,30C11.25,40.34 19.66,48.75 30,48.75C40.34,48.75 48.75,40.34 48.75,30C48.75,19.66 40.34,11.25 30,11.25Z" style="fill:rgb(78,121,181);fill-rule:nonzero;"/>
        <rect x="3.75" y="28.5" width="6.75" height="1.5" style="fill:rgb(78,121,181);fill-rule:nonzero;"/>
        <path d="M6.063,40.871L12.125,37.684L12.824,39.012L6.758,42.199L6.063,40.871Z" style="fill:rgb(78,121,181);fill-rule:nonzero;"/>
        <path d="M13.852,50.75L17.699,45.188L18.934,46.039L15.086,51.602L13.852,50.75Z" style="fill:rgb(78,121,181);fill-rule:nonzero;"/>
        <path d="M48.652,48.531L46.406,46.539L47.406,45.418L49.648,47.406L48.652,48.531Z" style="fill:rgb(78,121,181);fill-rule:nonzero;"/>
        <path d="M52.215,37.02L52.574,35.563L55.484,36.281L55.129,37.738L52.215,37.02Z" style="fill:rgb(78,121,181);fill-rule:nonzero;"/>
        <path d="M52.574,24.434L55.488,23.719L55.844,25.176L52.934,25.891L52.574,24.434Z" style="fill:rgb(78,121,181);fill-rule:nonzero;"/>
        <path d="M48.398,15.703L47.402,14.582L49.648,12.594L50.645,13.715L48.398,15.703Z" style="fill:rgb(78,121,181);fill-rule:nonzero;"/>
        <path d="M38.242,8.262L39.309,5.457L40.711,5.988L39.648,8.793L38.242,8.262Z" style="fill:rgb(78,121,181);fill-rule:nonzero;"/>
        <path d="M26.836,3.941L28.324,3.762L28.688,6.738L27.199,6.918L26.836,3.941Z" style="fill:rgb(78,121,181);fill-rule:nonzero;"/>
        <path d="M15.09,8.398L16.324,7.543L18.027,10.016L16.793,10.867L15.09,8.398Z" style="fill:rgb(78,121,181);fill-rule:nonzero;"/>
        <path d="M6.758,17.801L7.453,16.473L10.109,17.867L9.414,19.195L6.758,17.801Z" style="fill:rgb(78,121,181);fill-rule:nonzero;"/>
        <path d="M21.75,32.25C21.75,33.906 20.406,35.25 18.75,35.25C17.094,35.25 15.75,33.906 15.75,32.25C15.75,30.594 17.094,29.25 18.75,29.25C20.406,29.25 21.75,30.594 21.75,32.25Z" style="fill:rgb(194,232,254);fill-rule:nonzero;"/>
        <path d="M18.75,36C16.68,36 15,34.32 15,32.25C15,30.18 16.68,28.5 18.75,28.5C20.82,28.5 22.5,30.18 22.5,32.25C22.5,34.32 20.82,36 18.75,36ZM18.75,30C17.508,30 16.5,31.008 16.5,32.25C16.5,33.492 17.508,34.5 18.75,34.5C19.992,34.5 21,33.492 21,32.25C21,31.008 19.992,30 18.75,30Z" style="fill:rgb(78,121,181);fill-rule:nonzero;"/>
    </g>
    <g id="surface1634" transform="matrix(2.46144,0,0,2.46144,30,30)">
        <path d="M6.094,0.406C2.953,0.406 0.406,2.953 0.406,6.094C0.406,9.234 2.953,11.781 6.094,11.781C9.234,11.781 11.781,9.234 11.781,6.094C11.781,2.953 9.234,0.406 6.094,0.406Z" style="fill:rgb(186,224,189);fill-rule:nonzero;"/>
        <path d="M6.094,0.813C9.004,0.813 11.375,3.184 11.375,6.094C11.375,9.004 9.004,11.375 6.094,11.375C3.184,11.375 0.813,9.004 0.813,6.094C0.813,3.184 3.184,0.813 6.094,0.813M6.094,0C2.727,0 0,2.727 0,6.094C0,9.461 2.727,12.188 6.094,12.188C9.461,12.188 12.188,9.461 12.188,6.094C12.188,2.727 9.461,0 6.094,0Z" style="fill:rgb(94,156,118);fill-rule:nonzero;"/>
        <g transform="matrix(1,0,0,1.94409,0,-5.75304)">
            <rect x="2.844" y="5.688" width="6.5" height="0.813" style="fill:white;"/>
        </g>
        <g transform="matrix(1.94409,0,0,1,-5.75304,0)">
            <rect x="5.688" y="2.844" width="0.813" height="6.5" style="fill:white;"/>
        </g>
    </g>
</svg>
