<?xml version="1.0" encoding="UTF-8"?>
<svg xmlns="http://www.w3.org/2000/svg" xmlns:xlink="http://www.w3.org/1999/xlink" width="18pt" height="18pt" viewBox="0 0 18 18" version="1.1">
<g id="surface2381">
<path style=" stroke:none;fill-rule:nonzero;fill:rgb(88.235295%,92.156863%,94.901961%);fill-opacity:1;" d="M 7.648438 9.996094 C 6.535156 9.996094 5.625 9.085938 5.625 7.972656 L 5.625 2.699219 C 5.625 1.582031 6.535156 0.675781 7.648438 0.675781 C 8.765625 0.675781 9.675781 1.582031 9.675781 2.699219 L 9.675781 7.972656 C 9.675781 9.089844 8.765625 9.996094 7.648438 9.996094 Z M 7.648438 9.996094 "/>
<path style=" stroke:none;fill-rule:nonzero;fill:rgb(47.058824%,54.509807%,61.176473%);fill-opacity:1;" d="M 7.648438 0.898438 C 8.644531 0.898438 9.449219 1.707031 9.449219 2.699219 L 9.449219 7.972656 C 9.449219 8.964844 8.644531 9.769531 7.648438 9.769531 C 6.65625 9.769531 5.851562 8.964844 5.851562 7.972656 L 5.851562 2.699219 C 5.851562 1.707031 6.65625 0.898438 7.648438 0.898438 M 7.648438 0.449219 C 6.414062 0.449219 5.398438 1.460938 5.398438 2.699219 L 5.398438 7.972656 C 5.398438 9.207031 6.414062 10.222656 7.648438 10.222656 C 8.886719 10.222656 9.898438 9.207031 9.898438 7.972656 L 9.898438 2.699219 C 9.898438 1.460938 8.886719 0.449219 7.648438 0.449219 Z M 7.648438 0.449219 "/>
<path style=" stroke:none;fill-rule:nonzero;fill:rgb(96.862745%,56.078434%,56.078434%);fill-opacity:1;" d="M 7.648438 17.324219 C 5.789062 17.324219 4.273438 15.8125 4.273438 13.949219 C 4.273438 12.921875 4.734375 11.964844 5.539062 11.316406 L 5.625 11.25 L 5.625 6.976562 L 9.675781 6.976562 L 9.675781 11.25 L 9.757812 11.316406 C 10.5625 11.964844 11.023438 12.921875 11.023438 13.949219 C 11.023438 15.8125 9.511719 17.324219 7.648438 17.324219 Z M 7.648438 17.324219 "/>
<path style=" stroke:none;fill-rule:nonzero;fill:rgb(78.039217%,26.274511%,26.274511%);fill-opacity:1;" d="M 9.449219 7.199219 L 9.449219 11.359375 L 9.617188 11.492188 C 10.371094 12.09375 10.800781 12.992188 10.800781 13.949219 C 10.800781 15.6875 9.386719 17.101562 7.648438 17.101562 C 5.914062 17.101562 4.5 15.6875 4.5 13.949219 C 4.5 12.992188 4.929688 12.09375 5.683594 11.492188 L 5.851562 11.359375 L 5.851562 7.199219 L 9.449219 7.199219 M 9.898438 6.75 L 5.398438 6.75 L 5.398438 11.140625 C 4.578125 11.800781 4.050781 12.8125 4.050781 13.949219 C 4.050781 15.9375 5.660156 17.550781 7.648438 17.550781 C 9.636719 17.550781 11.25 15.9375 11.25 13.949219 C 11.25 12.8125 10.722656 11.800781 9.898438 11.140625 Z M 9.898438 6.75 "/>
<path style=" stroke:none;fill-rule:nonzero;fill:rgb(30.588236%,47.843137%,70.980394%);fill-opacity:1;" d="M 11.25 10.800781 L 13.949219 10.800781 L 13.949219 11.25 L 11.25 11.25 Z M 11.25 9 L 13.949219 9 L 13.949219 9.449219 L 11.25 9.449219 Z M 11.25 7.199219 L 13.949219 7.199219 L 13.949219 7.648438 L 11.25 7.648438 Z M 11.25 7.199219 "/>
<path style=" stroke:none;fill-rule:nonzero;fill:rgb(78.039217%,26.274511%,26.274511%);fill-opacity:1;" d="M 11.25 5.398438 L 13.949219 5.398438 L 13.949219 5.851562 L 11.25 5.851562 Z M 11.25 3.601562 L 13.949219 3.601562 L 13.949219 4.050781 L 11.25 4.050781 Z M 11.25 1.800781 L 13.949219 1.800781 L 13.949219 2.25 L 11.25 2.25 Z M 11.25 1.800781 "/>
</g>
</svg>
