<?xml version="1.0" encoding="UTF-8" standalone="no"?>
<!DOCTYPE svg PUBLIC "-//W3C//DTD SVG 1.1//EN" "http://www.w3.org/Graphics/SVG/1.1/DTD/svg11.dtd">
<svg width="100%" height="100%" viewBox="0 0 18 18" version="1.1" xmlns="http://www.w3.org/2000/svg" xmlns:xlink="http://www.w3.org/1999/xlink" xml:space="preserve" xmlns:serif="http://www.serif.com/" style="fill-rule:evenodd;clip-rule:evenodd;stroke-linejoin:round;stroke-miterlimit:2;">
    <g id="surface3046" transform="matrix(0.991017,0,0,0.991017,0,0)">
        <path d="M9,10.895L4.258,13.738L7.102,9L4.266,4.25L9,7.102L13.742,4.258L10.898,9L13.742,13.738L9,10.895Z" style="fill:rgb(176,129,89);fill-rule:nonzero;"/>
        <path d="M4.918,4.91L8.77,7.227L9,7.367L9.23,7.227L13.086,4.914L10.773,8.77L10.637,9L10.773,9.23L13.086,13.082L9.23,10.773L9,10.633L8.77,10.77L4.914,13.082L7.227,9.23L7.363,9L7.227,8.77L4.918,4.91M3.609,3.594L6.84,9L3.602,14.395L9,11.156L14.398,14.395L11.16,9L14.398,3.605L9,6.84L3.609,3.594Z" style="fill:rgb(112,78,52);fill-rule:nonzero;"/>
        <path d="M7.227,8.77L7.363,9L9,9L4.934,4.934L7.227,8.77ZM8.77,10.77L9,10.633L9,9L4.922,13.078L8.77,10.77ZM9.23,7.227L9,7.367L9,9L13.082,4.918L9.23,7.227ZM13.086,13.082L10.773,9.23L10.637,9L9,9L13.078,13.078L13.086,13.082Z" style="fill:rgb(245,206,133);fill-rule:nonzero;"/>
        <path d="M7.387,10.613L0.93,9L7.387,7.387L9.012,0.93L10.613,7.387L17.07,9L10.613,10.613L9,17.07L7.387,10.613Z" style="fill:rgb(176,129,89);fill-rule:nonzero;"/>
        <path d="M9.012,1.855L10.363,7.309L10.43,7.57L10.691,7.637L16.145,9L10.691,10.363L10.43,10.43L10.363,10.691L9,16.145L7.637,10.691L7.57,10.43L7.309,10.363L1.855,9L7.309,7.637L7.57,7.57L7.637,7.309L9.012,1.855M9.016,0L7.199,7.199L0,9L7.199,10.801L9,18L10.801,10.801L18,9L10.801,7.199L9.016,0Z" style="fill:rgb(112,78,52);fill-rule:nonzero;"/>
        <path d="M7.309,10.363L7.57,10.43L9,9L1.855,9L7.309,10.363ZM10.363,10.691L10.43,10.43L9,9L9,16.145L10.363,10.691ZM10.43,7.57L9,9L16.145,9L10.691,7.637L10.43,7.57ZM7.637,7.309L7.57,7.57L9,9L9,1.902L7.637,7.309Z" style="fill:rgb(245,206,133);fill-rule:nonzero;"/>
    </g>
    <g id="surface1634" transform="matrix(0.738175,0,0,0.738175,9.00349,9.00349)">
        <path d="M6.094,0.406C2.953,0.406 0.406,2.953 0.406,6.094C0.406,9.234 2.953,11.781 6.094,11.781C9.234,11.781 11.781,9.234 11.781,6.094C11.781,2.953 9.234,0.406 6.094,0.406Z" style="fill:rgb(186,224,189);fill-rule:nonzero;"/>
        <path d="M6.094,0.813C9.004,0.813 11.375,3.184 11.375,6.094C11.375,9.004 9.004,11.375 6.094,11.375C3.184,11.375 0.813,9.004 0.813,6.094C0.813,3.184 3.184,0.813 6.094,0.813M6.094,0C2.727,0 0,2.727 0,6.094C0,9.461 2.727,12.188 6.094,12.188C9.461,12.188 12.188,9.461 12.188,6.094C12.188,2.727 9.461,0 6.094,0Z" style="fill:rgb(94,156,118);fill-rule:nonzero;"/>
        <g transform="matrix(1,0,0,1.94409,0,-5.75304)">
            <rect x="2.844" y="5.688" width="6.5" height="0.813" style="fill:white;"/>
        </g>
        <g transform="matrix(1.94409,0,0,1,-5.75304,0)">
            <rect x="5.688" y="2.844" width="0.813" height="6.5" style="fill:white;fill-rule:nonzero;"/>
        </g>
    </g>
</svg>
