<?xml version="1.0" encoding="UTF-8" standalone="no"?>
<!DOCTYPE svg PUBLIC "-//W3C//DTD SVG 1.1//EN" "http://www.w3.org/Graphics/SVG/1.1/DTD/svg11.dtd">
<svg width="100%" height="100%" viewBox="0 0 18 18" version="1.1" xmlns="http://www.w3.org/2000/svg" xml:space="preserve" style="fill-rule:evenodd;clip-rule:evenodd;stroke-linejoin:round;stroke-miterlimit:2;">
    <g id="surface-add-bar" transform="matrix(0.42,0,0,0.42,-3.7,0)">
        <path fill="#e1ebf2" d="M13.5,19.5v-16h-1c-0.552,0-1-0.448-1-1s0.448-1,1-1h15c0.552,0,1,0.448,1,1s-0.448,1-1,1h-1v16 H13.5z"/>
        <path fill="#788b9c" d="M27.5,2C27.771,2,28,2.229,28,2.5S27.771,3,27.5,3H27h-1v1v15H14V4V3h-1h-0.5 C12.229,3,12,2.771,12,2.5S12.229,2,12.5,2H27.5 M27.5,1h-15C11.675,1,11,1.675,11,2.5S11.675,4,12.5,4H13v16h14V4h0.5 C28.325,4,29,3.325,29,2.5S28.325,1,27.5,1L27.5,1z"/>
        <path fill="#8bb7f0" d="M15,32.5c-0.827,0-1.5-0.673-1.5-1.5V16.5h13V31c0,0.827-0.673,1.5-1.5,1.5H15z"/>
        <path fill="#4e7ab5" d="M26,17v14c0,0.551-0.449,1-1,1H15c-0.551,0-1-0.449-1-1V17H26 M27,16H13v15c0,1.1,0.9,2,2,2h10 c1.1,0,2-0.9,2-2V16L27,16z"/>
        <path fill="#788b9c" d="M18 4H19V16H18z"/>
        <path fill="#788b9c" d="M18 4H23V5H18zM19 8H21V9H19zM18 12H21V13H18z"/>
        <path fill="#4e7ab5" d="M18 20H23V21H18zM18 24H21V25H18zM18 28H21V29H18z"/>
        <path fill="#4e7ab5" d="M18 16H19V33H18z"/>
    </g>
    <g id="surface-add-bar-plus" transform="matrix(0.738175,0,0,0.738175,9.00349,9.00349)">
        <path d="M6.094,0.406C2.953,0.406 0.406,2.953 0.406,6.094C0.406,9.234 2.953,11.781 6.094,11.781C9.234,11.781 11.781,9.234 11.781,6.094C11.781,2.953 9.234,0.406 6.094,0.406Z" style="fill:rgb(186,224,189);fill-rule:nonzero;"/>
        <path d="M6.094,0.813C9.004,0.813 11.375,3.184 11.375,6.094C11.375,9.004 9.004,11.375 6.094,11.375C3.184,11.375 0.813,9.004 0.813,6.094C0.813,3.184 3.184,0.813 6.094,0.813M6.094,0C2.727,0 0,2.727 0,6.094C0,9.461 2.727,12.188 6.094,12.188C9.461,12.188 12.188,9.461 12.188,6.094C12.188,2.727 9.461,0 6.094,0Z" style="fill:rgb(94,156,118);fill-rule:nonzero;"/>
        <g transform="matrix(1,0,0,1.94409,0,-5.75304)">
            <rect x="2.844" y="5.688" width="6.5" height="0.813" style="fill:white;"/>
        </g>
        <g transform="matrix(1.94409,0,0,1,-5.75304,0)">
            <rect x="5.688" y="2.844" width="0.813" height="6.5" style="fill:white;fill-rule:nonzero;"/>
        </g>
    </g>
</svg>
