<?xml version="1.0" encoding="UTF-8" standalone="no"?>
<!DOCTYPE svg PUBLIC "-//W3C//DTD SVG 1.1//EN" "http://www.w3.org/Graphics/SVG/1.1/DTD/svg11.dtd">
<svg width="100%" height="100%" viewBox="0 0 60 60" version="1.1" xmlns="http://www.w3.org/2000/svg" xmlns:xlink="http://www.w3.org/1999/xlink" xml:space="preserve" xmlns:serif="http://www.serif.com/" style="fill-rule:evenodd;clip-rule:evenodd;stroke-linejoin:round;stroke-miterlimit:2;">
    <g id="surface684" transform="matrix(0.789474,0,0,0.789474,0.315789,0.315789)">
        <path d="M52.5,7.5L52.5,52.5L7.5,52.5L7.5,7.5L52.5,7.5M54,6L6,6L6,54L54,54L54,6Z" style="fill:rgb(102,121,143);fill-rule:nonzero;"/>
        <rect x="48.75" y="2.25" width="9" height="9" style="fill:rgb(139,183,239);fill-rule:nonzero;"/>
        <path d="M57,3L57,10.5L49.5,10.5L49.5,3L57,3M58.5,1.5L48,1.5L48,12L58.5,12L58.5,1.5Z" style="fill:rgb(78,121,181);fill-rule:nonzero;"/>
        <rect x="2.25" y="2.25" width="9" height="9" style="fill:rgb(139,183,239);fill-rule:nonzero;"/>
        <path d="M10.5,3L10.5,10.5L3,10.5L3,3L10.5,3M12,1.5L1.5,1.5L1.5,12L12,12L12,1.5Z" style="fill:rgb(78,121,181);fill-rule:nonzero;"/>
        <rect x="48.75" y="48.75" width="9" height="9" style="fill:rgb(139,183,239);fill-rule:nonzero;"/>
        <path d="M57,49.5L57,57L49.5,57L49.5,49.5L57,49.5M58.5,48L48,48L48,58.5L58.5,58.5L58.5,48Z" style="fill:rgb(78,121,181);fill-rule:nonzero;"/>
        <rect x="2.25" y="48.75" width="9" height="9" style="fill:rgb(139,183,239);fill-rule:nonzero;"/>
        <path d="M10.5,49.5L10.5,57L3,57L3,49.5L10.5,49.5M12,48L1.5,48L1.5,58.5L12,58.5L12,48Z" style="fill:rgb(78,121,181);fill-rule:nonzero;"/>
        <path d="M23.25,44.25L23.25,41.852L27.75,40.352L27.75,18.75L20.293,18.75L18.941,23.25L17.25,23.25L17.25,15.75L42.75,15.75L42.75,23.25L41.059,23.25L39.707,18.75L32.25,18.75L32.25,40.352L36.75,41.852L36.75,44.25L23.25,44.25Z" style="fill:rgb(176,193,212);fill-rule:nonzero;"/>
        <path d="M42,16.5L42,22.5L41.617,22.5L40.586,19.07L40.266,18L31.5,18L31.5,40.891L32.527,41.234L36,42.391L36,43.5L24,43.5L24,42.391L27.473,41.23L28.5,40.891L28.5,18L19.734,18L19.414,19.07L18.383,22.5L18,22.5L18,16.5L42,16.5M43.5,15L16.5,15L16.5,24L19.5,24L20.852,19.5L27,19.5L27,39.809L22.5,41.309L22.5,45L37.5,45L37.5,41.309L33,39.809L33,19.5L39.148,19.5L40.5,24L43.5,24L43.5,15Z" style="fill:rgb(102,121,143);fill-rule:nonzero;"/>
    </g>
    <g id="surface1634" transform="matrix(2.46144,0,0,2.46144,30,30)">
        <path d="M6.094,0.406C2.953,0.406 0.406,2.953 0.406,6.094C0.406,9.234 2.953,11.781 6.094,11.781C9.234,11.781 11.781,9.234 11.781,6.094C11.781,2.953 9.234,0.406 6.094,0.406Z" style="fill:rgb(186,224,189);fill-rule:nonzero;"/>
        <path d="M6.094,0.813C9.004,0.813 11.375,3.184 11.375,6.094C11.375,9.004 9.004,11.375 6.094,11.375C3.184,11.375 0.813,9.004 0.813,6.094C0.813,3.184 3.184,0.813 6.094,0.813M6.094,0C2.727,0 0,2.727 0,6.094C0,9.461 2.727,12.188 6.094,12.188C9.461,12.188 12.188,9.461 12.188,6.094C12.188,2.727 9.461,0 6.094,0Z" style="fill:rgb(94,156,118);fill-rule:nonzero;"/>
        <g transform="matrix(1,0,0,1.94409,0,-5.75304)">
            <rect x="2.844" y="5.688" width="6.5" height="0.813" style="fill:white;"/>
        </g>
        <g transform="matrix(1.94409,0,0,1,-5.75304,0)">
            <rect x="5.688" y="2.844" width="0.813" height="6.5" style="fill:white;"/>
        </g>
    </g>
</svg>
