<?xml version="1.0" encoding="UTF-8" standalone="no"?>
<!DOCTYPE svg PUBLIC "-//W3C//DTD SVG 1.1//EN" "http://www.w3.org/Graphics/SVG/1.1/DTD/svg11.dtd">
<svg width="100%" height="100%" viewBox="0 0 18 18" version="1.1" xmlns="http://www.w3.org/2000/svg" xml:space="preserve" style="fill-rule:evenodd;clip-rule:evenodd;stroke-linejoin:round;stroke-miterlimit:2;">
    <g id="surface-add-meter" transform="matrix(0.40,0,0,0.40,0,0)">
        <g transform="translate(-2, -18)">
            <path fill="#66798f" d="M19 16H20V21H19z"/>
            <path fill="#8bb7f0" d="M7,39.5c-1.379,0-2.5-1.122-2.5-2.5V23c0-1.378,1.121-2.5,2.5-2.5h25c1.379,0,2.5,1.122,2.5,2.5v14 c0,1.378-1.121,2.5-2.5,2.5H7z"/>
            <path fill="#4e7ab5" d="M32,21c1.103,0,2,0.897,2,2v14c0,1.103-0.897,2-2,2H7c-1.103,0-2-0.897-2-2V23c0-1.103,0.897-2,2-2 H32 M32,20H7c-1.657,0-3,1.343-3,3v14c0,1.657,1.343,3,3,3h25c1.657,0,3-1.343,3-3V23C35,21.343,33.657,20,32,20L32,20z"/>
            <path fill="#fff" d="M12.229,35.5l-5.317-6.205C10.4,26.2,14.852,24.5,19.5,24.5s9.1,1.7,12.588,4.795L26.771,35.5 H12.229z"/>
            <path fill="#4e7ab5" d="M19.5,25c4.362,0,8.546,1.537,11.885,4.348L26.54,35H12.46l-4.844-5.652 C10.954,26.537,15.138,25,19.5,25 M19.5,24c-5.139,0-9.8,2.003-13.284,5.252L12,36h15l5.784-6.748C29.3,26.003,24.639,24,19.5,24 L19.5,24z"/>
            <path fill="#36404d" d="M23 28L18 35 21 35z"/>
            <path fill="#66798f" d="M19.5 25c-.168 0-.333.017-.5.022V28h1v-2.978C19.833 25.017 19.668 25 19.5 25zM13.106 29.371l.924-.383-1.139-2.751c-.311.12-.619.248-.923.385L13.106 29.371zM26.109 26.238l-1.139 2.751.924.383 1.139-2.749C26.728 26.486 26.42 26.358 26.109 26.238z"/>
        </g>
    </g>
    <g id="surface-add-meter-plus" transform="matrix(0.738175,0,0,0.738175,9.00349,9.00349)">
        <path d="M6.094,0.406C2.953,0.406 0.406,2.953 0.406,6.094C0.406,9.234 2.953,11.781 6.094,11.781C9.234,11.781 11.781,9.234 11.781,6.094C11.781,2.953 9.234,0.406 6.094,0.406Z" style="fill:rgb(186,224,189);fill-rule:nonzero;"/>
        <path d="M6.094,0.813C9.004,0.813 11.375,3.184 11.375,6.094C11.375,9.004 9.004,11.375 6.094,11.375C3.184,11.375 0.813,9.004 0.813,6.094C0.813,3.184 3.184,0.813 6.094,0.813M6.094,0C2.727,0 0,2.727 0,6.094C0,9.461 2.727,12.188 6.094,12.188C9.461,12.188 12.188,9.461 12.188,6.094C12.188,2.727 9.461,0 6.094,0Z" style="fill:rgb(94,156,118);fill-rule:nonzero;"/>
        <g transform="matrix(1,0,0,1.94409,0,-5.75304)">
            <rect x="2.844" y="5.688" width="6.5" height="0.813" style="fill:white;"/>
        </g>
        <g transform="matrix(1.94409,0,0,1,-5.75304,0)">
            <rect x="5.688" y="2.844" width="0.813" height="6.5" style="fill:white;fill-rule:nonzero;"/>
        </g>
    </g>
</svg>
