<?xml version="1.0" encoding="UTF-8" standalone="no"?>
<!DOCTYPE svg PUBLIC "-//W3C//DTD SVG 1.1//EN" "http://www.w3.org/Graphics/SVG/1.1/DTD/svg11.dtd">
<svg width="100%" height="100%" viewBox="0 0 18 18" version="1.1" xmlns="http://www.w3.org/2000/svg" xmlns:xlink="http://www.w3.org/1999/xlink" xml:space="preserve" xmlns:serif="http://www.serif.com/" style="fill-rule:evenodd;clip-rule:evenodd;stroke-miterlimit:10;">
    <g id="surface3557" transform="matrix(0.84262,0,0,0.84262,0.0706979,0.0706979)">
        <path d="M1.801,16.875C1.18,16.875 0.676,16.371 0.676,15.75L0.676,1.801C0.676,1.18 1.18,0.676 1.801,0.676L15.75,0.676C16.371,0.676 16.875,1.18 16.875,1.801L16.875,15.75C16.875,16.371 16.371,16.875 15.75,16.875L1.801,16.875Z" style="fill:rgb(225,235,242);fill-rule:nonzero;"/>
        <path d="M15.75,0.898C16.246,0.898 16.648,1.305 16.648,1.801L16.648,15.75C16.648,16.246 16.246,16.648 15.75,16.648L1.801,16.648C1.305,16.648 0.898,16.246 0.898,15.75L0.898,1.801C0.898,1.305 1.305,0.898 1.801,0.898L15.75,0.898M15.75,0.449L1.801,0.449C1.055,0.449 0.449,1.055 0.449,1.801L0.449,15.75C0.449,16.496 1.055,17.102 1.801,17.102L15.75,17.102C16.496,17.102 17.102,16.496 17.102,15.75L17.102,1.801C17.102,1.055 16.496,0.449 15.75,0.449Z" style="fill:rgb(120,139,156);fill-rule:nonzero;"/>
        <rect x="8.551" y="0.898" width="0.449" height="15.75" style="fill:rgb(182,201,214);fill-rule:nonzero;"/>
        <rect x="0.898" y="8.551" width="15.75" height="0.449" style="fill:rgb(182,201,214);fill-rule:nonzero;"/>
        <g transform="matrix(0.45,0,0,0.45,0,0)">
            <path d="M1.997,34.497C11.797,34.497 11.102,4.497 19.497,4.497C27.899,4.497 27.335,34.497 36.997,34.497" style="fill:none;fill-rule:nonzero;stroke:rgb(199,67,67);stroke-width:1px;"/>
        </g>
    </g>
    <g id="surface1634" transform="matrix(0.738175,0,0,0.738175,9.00349,9.00349)">
        <path d="M6.094,0.406C2.953,0.406 0.406,2.953 0.406,6.094C0.406,9.234 2.953,11.781 6.094,11.781C9.234,11.781 11.781,9.234 11.781,6.094C11.781,2.953 9.234,0.406 6.094,0.406Z" style="fill:rgb(186,224,189);fill-rule:nonzero;"/>
        <path d="M6.094,0.813C9.004,0.813 11.375,3.184 11.375,6.094C11.375,9.004 9.004,11.375 6.094,11.375C3.184,11.375 0.813,9.004 0.813,6.094C0.813,3.184 3.184,0.813 6.094,0.813M6.094,0C2.727,0 0,2.727 0,6.094C0,9.461 2.727,12.188 6.094,12.188C9.461,12.188 12.188,9.461 12.188,6.094C12.188,2.727 9.461,0 6.094,0Z" style="fill:rgb(94,156,118);fill-rule:nonzero;"/>
        <g transform="matrix(1,0,0,1.94409,0,-5.75304)">
            <rect x="2.844" y="5.688" width="6.5" height="0.813" style="fill:white;"/>
        </g>
        <g transform="matrix(1.94409,0,0,1,-5.75304,0)">
            <rect x="5.688" y="2.844" width="0.813" height="6.5" style="fill:white;fill-rule:nonzero;"/>
        </g>
    </g>
</svg>
