<?xml version="1.0" encoding="UTF-8"?>
<svg xmlns="http://www.w3.org/2000/svg" xmlns:xlink="http://www.w3.org/1999/xlink" width="18pt" height="18pt" viewBox="0 0 18 18" version="1.1">
<g id="surface4226">
<path style="fill-rule:nonzero;fill:rgb(54.509807%,71.764708%,94.117647%);fill-opacity:1;stroke-width:1;stroke-linecap:butt;stroke-linejoin:miter;stroke:rgb(30.588236%,47.843137%,70.980394%);stroke-opacity:1;stroke-miterlimit:4;" d="M 19.001736 17.456597 L 20.998264 17.456597 L 20.998264 22.543403 L 19.001736 22.543403 Z M 19.001736 17.456597 " transform="matrix(0.45,0,0,0.45,0,0)"/>
<path style="fill-rule:nonzero;fill:rgb(54.509807%,71.764708%,94.117647%);fill-opacity:1;stroke-width:1;stroke-linecap:butt;stroke-linejoin:miter;stroke:rgb(30.588236%,47.843137%,70.980394%);stroke-opacity:1;stroke-miterlimit:4;" d="M 14.496528 13.498264 L 16.501736 13.498264 L 16.501736 26.501736 L 14.496528 26.501736 Z M 14.496528 13.498264 " transform="matrix(0.45,0,0,0.45,0,0)"/>
<path style="fill-rule:nonzero;fill:rgb(54.509807%,71.764708%,94.117647%);fill-opacity:1;stroke-width:1;stroke-linecap:butt;stroke-linejoin:miter;stroke:rgb(30.588236%,47.843137%,70.980394%);stroke-opacity:1;stroke-miterlimit:4;" d="M 6.501736 13.498264 L 8.498264 13.498264 L 8.498264 26.501736 L 6.501736 26.501736 Z M 6.501736 13.498264 " transform="matrix(0.45,0,0,0.45,0,0)"/>
<path style="fill-rule:nonzero;fill:rgb(54.509807%,71.764708%,94.117647%);fill-opacity:1;stroke-width:1;stroke-linecap:butt;stroke-linejoin:miter;stroke:rgb(30.588236%,47.843137%,70.980394%);stroke-opacity:1;stroke-miterlimit:4;" d="M 2.5 17.456597 L 4.496528 17.456597 L 4.496528 22.543403 L 2.5 22.543403 Z M 2.5 17.456597 " transform="matrix(0.45,0,0,0.45,0,0)"/>
<path style="fill-rule:nonzero;fill:rgb(54.509807%,71.764708%,94.117647%);fill-opacity:1;stroke-width:1;stroke-linecap:butt;stroke-linejoin:miter;stroke:rgb(30.588236%,47.843137%,70.980394%);stroke-opacity:1;stroke-miterlimit:4;" d="M 10.503472 6.545139 L 12.5 6.545139 L 12.5 33.454861 L 10.503472 33.454861 Z M 10.503472 6.545139 " transform="matrix(0.45,0,0,0.45,0,0)"/>
<path style="fill-rule:nonzero;fill:rgb(54.509807%,71.764708%,94.117647%);fill-opacity:1;stroke-width:1;stroke-linecap:butt;stroke-linejoin:miter;stroke:rgb(30.588236%,47.843137%,70.980394%);stroke-opacity:1;stroke-miterlimit:4;" d="M 23.498264 13.498264 L 25.503472 13.498264 L 25.503472 26.501736 L 23.498264 26.501736 Z M 23.498264 13.498264 " transform="matrix(0.45,0,0,0.45,0,0)"/>
<path style="fill-rule:nonzero;fill:rgb(54.509807%,71.764708%,94.117647%);fill-opacity:1;stroke-width:1;stroke-linecap:butt;stroke-linejoin:miter;stroke:rgb(30.588236%,47.843137%,70.980394%);stroke-opacity:1;stroke-miterlimit:4;" d="M 31.501736 13.498264 L 33.498264 13.498264 L 33.498264 26.501736 L 31.501736 26.501736 Z M 31.501736 13.498264 " transform="matrix(0.45,0,0,0.45,0,0)"/>
<path style="fill-rule:nonzero;fill:rgb(54.509807%,71.764708%,94.117647%);fill-opacity:1;stroke-width:1;stroke-linecap:butt;stroke-linejoin:miter;stroke:rgb(30.588236%,47.843137%,70.980394%);stroke-opacity:1;stroke-miterlimit:4;" d="M 35.503472 17.456597 L 37.5 17.456597 L 37.5 22.543403 L 35.503472 22.543403 Z M 35.503472 17.456597 " transform="matrix(0.45,0,0,0.45,0,0)"/>
<path style="fill-rule:nonzero;fill:rgb(54.509807%,71.764708%,94.117647%);fill-opacity:1;stroke-width:1;stroke-linecap:butt;stroke-linejoin:miter;stroke:rgb(30.588236%,47.843137%,70.980394%);stroke-opacity:1;stroke-miterlimit:4;" d="M 27.5 6.545139 L 29.496528 6.545139 L 29.496528 33.454861 L 27.5 33.454861 Z M 27.5 6.545139 " transform="matrix(0.45,0,0,0.45,0,0)"/>
</g>
</svg>
