<?xml version="1.0" encoding="UTF-8" standalone="no"?>
<!DOCTYPE svg PUBLIC "-//W3C//DTD SVG 1.1//EN" "http://www.w3.org/Graphics/SVG/1.1/DTD/svg11.dtd">
<svg width="100%" height="100%" viewBox="0 0 18 18" version="1.1" xmlns="http://www.w3.org/2000/svg" xmlns:xlink="http://www.w3.org/1999/xlink" xml:space="preserve" xmlns:serif="http://www.serif.com/" style="fill-rule:evenodd;clip-rule:evenodd;">
    <g id="surface4226" transform="matrix(0.887349,0,0,0.887349,0.126732,0.331791)">
        <g transform="matrix(0.45,0,0,0.45,0,0)">
            <rect x="19.002" y="17.457" width="1.997" height="5.087" style="fill:rgb(139,183,239);fill-rule:nonzero;stroke:rgb(78,121,181);stroke-width:1px;"/>
        </g>
        <g transform="matrix(0.45,0,0,0.45,0,0)">
            <rect x="14.497" y="13.498" width="2.005" height="13.003" style="fill:rgb(139,183,239);fill-rule:nonzero;stroke:rgb(78,121,181);stroke-width:1px;"/>
        </g>
        <g transform="matrix(0.45,0,0,0.45,0,0)">
            <rect x="6.502" y="13.498" width="1.997" height="13.003" style="fill:rgb(139,183,239);fill-rule:nonzero;stroke:rgb(78,121,181);stroke-width:1px;"/>
        </g>
        <g transform="matrix(0.45,0,0,0.45,0,0)">
            <rect x="2.5" y="17.457" width="1.997" height="5.087" style="fill:rgb(139,183,239);fill-rule:nonzero;stroke:rgb(78,121,181);stroke-width:1px;"/>
        </g>
        <g transform="matrix(0.45,0,0,0.45,0,0)">
            <rect x="10.503" y="6.545" width="1.997" height="26.91" style="fill:rgb(139,183,239);fill-rule:nonzero;stroke:rgb(78,121,181);stroke-width:1px;"/>
        </g>
        <g transform="matrix(0.45,0,0,0.45,0,0)">
            <rect x="23.498" y="13.498" width="2.005" height="13.003" style="fill:rgb(139,183,239);fill-rule:nonzero;stroke:rgb(78,121,181);stroke-width:1px;"/>
        </g>
        <g transform="matrix(0.45,0,0,0.45,0,0)">
            <rect x="31.502" y="13.498" width="1.997" height="13.003" style="fill:rgb(139,183,239);fill-rule:nonzero;stroke:rgb(78,121,181);stroke-width:1px;"/>
        </g>
        <g transform="matrix(0.45,0,0,0.45,0,0)">
            <rect x="35.503" y="17.457" width="1.997" height="5.087" style="fill:rgb(139,183,239);fill-rule:nonzero;stroke:rgb(78,121,181);stroke-width:1px;"/>
        </g>
        <g transform="matrix(0.45,0,0,0.45,0,0)">
            <rect x="27.5" y="6.545" width="1.997" height="26.91" style="fill:rgb(139,183,239);fill-rule:nonzero;stroke:rgb(78,121,181);stroke-width:1px;"/>
        </g>
    </g>
    <g id="surface1634" transform="matrix(0.738175,0,0,0.738175,9.00349,9.00349)">
        <path d="M6.094,0.406C2.953,0.406 0.406,2.953 0.406,6.094C0.406,9.234 2.953,11.781 6.094,11.781C9.234,11.781 11.781,9.234 11.781,6.094C11.781,2.953 9.234,0.406 6.094,0.406Z" style="fill:rgb(186,224,189);fill-rule:nonzero;"/>
        <path d="M6.094,0.813C9.004,0.813 11.375,3.184 11.375,6.094C11.375,9.004 9.004,11.375 6.094,11.375C3.184,11.375 0.813,9.004 0.813,6.094C0.813,3.184 3.184,0.813 6.094,0.813M6.094,0C2.727,0 0,2.727 0,6.094C0,9.461 2.727,12.188 6.094,12.188C9.461,12.188 12.188,9.461 12.188,6.094C12.188,2.727 9.461,0 6.094,0Z" style="fill:rgb(94,156,118);fill-rule:nonzero;"/>
        <g transform="matrix(1,0,0,1.94409,0,-5.75304)">
            <rect x="2.844" y="5.688" width="6.5" height="0.813" style="fill:white;"/>
        </g>
        <g transform="matrix(1.94409,0,0,1,-5.75304,0)">
            <rect x="5.688" y="2.844" width="0.813" height="6.5" style="fill:white;fill-rule:nonzero;"/>
        </g>
    </g>
</svg>
