<?xml version="1.0" encoding="UTF-8" standalone="no"?>
<!DOCTYPE svg PUBLIC "-//W3C//DTD SVG 1.1//EN" "http://www.w3.org/Graphics/SVG/1.1/DTD/svg11.dtd">
<svg width="100%" height="100%" viewBox="0 0 60 60" version="1.1" xmlns="http://www.w3.org/2000/svg" xmlns:xlink="http://www.w3.org/1999/xlink" xml:space="preserve" xmlns:serif="http://www.serif.com/" style="fill-rule:evenodd;clip-rule:evenodd;stroke-linecap:round;stroke-miterlimit:10;">
    <g id="surface62" transform="matrix(0.769231,0,0,0.810811,0.346154,0.425676)">
        <g transform="matrix(1.5,0,0,1.5,0,0)">
            <path d="M1,38.5L7.5,38.5L38.5,1.5" style="fill:none;fill-rule:nonzero;stroke:rgb(94,156,118);stroke-width:1px;"/>
        </g>
        <path d="M2.25,29.25C1.836,29.25 1.5,29.586 1.5,30C1.5,30.414 1.836,30.75 2.25,30.75C2.664,30.75 3,30.414 3,30C3,29.586 2.664,29.25 2.25,29.25ZM5.25,29.25C4.836,29.25 4.5,29.586 4.5,30C4.5,30.414 4.836,30.75 5.25,30.75C5.664,30.75 6,30.414 6,30C6,29.586 5.664,29.25 5.25,29.25ZM8.25,29.25C7.836,29.25 7.5,29.586 7.5,30C7.5,30.414 7.836,30.75 8.25,30.75C8.664,30.75 9,30.414 9,30C9,29.586 8.664,29.25 8.25,29.25ZM11.25,29.25C10.836,29.25 10.5,29.586 10.5,30C10.5,30.414 10.836,30.75 11.25,30.75C11.664,30.75 12,30.414 12,30C12,29.586 11.664,29.25 11.25,29.25ZM14.25,29.25C13.836,29.25 13.5,29.586 13.5,30C13.5,30.414 13.836,30.75 14.25,30.75C14.664,30.75 15,30.414 15,30C15,29.586 14.664,29.25 14.25,29.25ZM44.25,29.25C43.836,29.25 43.5,29.586 43.5,30C43.5,30.414 43.836,30.75 44.25,30.75C44.664,30.75 45,30.414 45,30C45,29.586 44.664,29.25 44.25,29.25ZM47.25,29.25C46.836,29.25 46.5,29.586 46.5,30C46.5,30.414 46.836,30.75 47.25,30.75C47.664,30.75 48,30.414 48,30C48,29.586 47.664,29.25 47.25,29.25ZM50.25,29.25C49.836,29.25 49.5,29.586 49.5,30C49.5,30.414 49.836,30.75 50.25,30.75C50.664,30.75 51,30.414 51,30C51,29.586 50.664,29.25 50.25,29.25ZM53.25,29.25C52.836,29.25 52.5,29.586 52.5,30C52.5,30.414 52.836,30.75 53.25,30.75C53.664,30.75 54,30.414 54,30C54,29.586 53.664,29.25 53.25,29.25ZM56.25,29.25C55.836,29.25 55.5,29.586 55.5,30C55.5,30.414 55.836,30.75 56.25,30.75C56.664,30.75 57,30.414 57,30C57,29.586 56.664,29.25 56.25,29.25ZM59.25,29.25C58.836,29.25 58.5,29.586 58.5,30C58.5,30.414 58.836,30.75 59.25,30.75C59.664,30.75 60,30.414 60,30C60,29.586 59.664,29.25 59.25,29.25ZM17.25,29.25C16.836,29.25 16.5,29.586 16.5,30C16.5,30.414 16.836,30.75 17.25,30.75C17.664,30.75 18,30.414 18,30C18,29.586 17.664,29.25 17.25,29.25ZM20.25,29.25C19.836,29.25 19.5,29.586 19.5,30C19.5,30.414 19.836,30.75 20.25,30.75C20.664,30.75 21,30.414 21,30C21,29.586 20.664,29.25 20.25,29.25ZM23.25,29.25C22.836,29.25 22.5,29.586 22.5,30C22.5,30.414 22.836,30.75 23.25,30.75C23.664,30.75 24,30.414 24,30C24,29.586 23.664,29.25 23.25,29.25ZM26.25,29.25C25.836,29.25 25.5,29.586 25.5,30C25.5,30.414 25.836,30.75 26.25,30.75C26.664,30.75 27,30.414 27,30C27,29.586 26.664,29.25 26.25,29.25ZM29.25,29.25C28.836,29.25 28.5,29.586 28.5,30C28.5,30.414 28.836,30.75 29.25,30.75C29.664,30.75 30,30.414 30,30C30,29.586 29.664,29.25 29.25,29.25ZM32.25,29.25C31.836,29.25 31.5,29.586 31.5,30C31.5,30.414 31.836,30.75 32.25,30.75C32.664,30.75 33,30.414 33,30C33,29.586 32.664,29.25 32.25,29.25ZM35.25,29.25C34.836,29.25 34.5,29.586 34.5,30C34.5,30.414 34.836,30.75 35.25,30.75C35.664,30.75 36,30.414 36,30C36,29.586 35.664,29.25 35.25,29.25ZM38.25,29.25C37.836,29.25 37.5,29.586 37.5,30C37.5,30.414 37.836,30.75 38.25,30.75C38.664,30.75 39,30.414 39,30C39,29.586 38.664,29.25 38.25,29.25ZM41.25,29.25C40.836,29.25 40.5,29.586 40.5,30C40.5,30.414 40.836,30.75 41.25,30.75C41.664,30.75 42,30.414 42,30C42,29.586 41.664,29.25 41.25,29.25Z" style="fill:rgb(54,64,77);fill-rule:nonzero;"/>
    </g>
    <g id="surface1634" transform="matrix(2.46144,0,0,2.46144,30,30)">
        <path d="M6.094,0.406C2.953,0.406 0.406,2.953 0.406,6.094C0.406,9.234 2.953,11.781 6.094,11.781C9.234,11.781 11.781,9.234 11.781,6.094C11.781,2.953 9.234,0.406 6.094,0.406Z" style="fill:rgb(186,224,189);fill-rule:nonzero;"/>
        <path d="M6.094,0.813C9.004,0.813 11.375,3.184 11.375,6.094C11.375,9.004 9.004,11.375 6.094,11.375C3.184,11.375 0.813,9.004 0.813,6.094C0.813,3.184 3.184,0.813 6.094,0.813M6.094,0C2.727,0 0,2.727 0,6.094C0,9.461 2.727,12.188 6.094,12.188C9.461,12.188 12.188,9.461 12.188,6.094C12.188,2.727 9.461,0 6.094,0Z" style="fill:rgb(94,156,118);fill-rule:nonzero;"/>
        <g transform="matrix(1,0,0,1.94409,0,-5.75304)">
            <rect x="2.844" y="5.688" width="6.5" height="0.813" style="fill:white;"/>
        </g>
        <g transform="matrix(1.94409,0,0,1,-5.75304,0)">
            <rect x="5.688" y="2.844" width="0.813" height="6.5" style="fill:white;"/>
        </g>
    </g>
</svg>
