<?xml version="1.0" encoding="UTF-8" standalone="no"?>
<!DOCTYPE svg PUBLIC "-//W3C//DTD SVG 1.1//EN" "http://www.w3.org/Graphics/SVG/1.1/DTD/svg11.dtd">
<svg width="100%" height="100%" viewBox="0 0 18 18" version="1.1" xmlns="http://www.w3.org/2000/svg" xmlns:xlink="http://www.w3.org/1999/xlink" xml:space="preserve" xmlns:serif="http://www.serif.com/" style="fill-rule:evenodd;clip-rule:evenodd;stroke-linejoin:round;stroke-miterlimit:2;">
    <g transform="matrix(0.474625,0,0,0.474625,-3.7427,0.090926)">
        <g id="surface-add-bar">
            <g>
                <path d="M13.5,19.5L13.5,3.5L12.5,3.5C11.948,3.5 11.5,3.052 11.5,2.5C11.5,1.948 11.948,1.5 12.5,1.5L27.5,1.5C28.052,1.5 28.5,1.948 28.5,2.5C28.5,3.052 28.052,3.5 27.5,3.5L26.5,3.5L26.5,19.5L13.5,19.5Z" style="fill:rgb(225,235,242);"/>
                <path d="M27.5,2C27.771,2 28,2.229 28,2.5C28,2.771 27.771,3 27.5,3L26,3L26,19L14,19L14,3L12.5,3C12.229,3 12,2.771 12,2.5C12,2.229 12.229,2 12.5,2L27.5,2M27.5,1L12.5,1C11.675,1 11,1.675 11,2.5C11,3.325 11.675,4 12.5,4L13,4L13,20L27,20L27,4L27.5,4C28.325,4 29,3.325 29,2.5C29,1.675 28.325,1 27.5,1Z" style="fill:rgb(120,139,156);"/>
                <path d="M15,32.5C14.173,32.5 13.5,31.827 13.5,31L13.5,16.5L26.5,16.5L26.5,31C26.5,31.827 25.827,32.5 25,32.5L15,32.5Z" style="fill:rgb(139,183,240);"/>
                <path d="M26,17L26,31C26,31.551 25.551,32 25,32L15,32C14.449,32 14,31.551 14,31L14,17L26,17M27,16L13,16L13,31C13,32.1 13.9,33 15,33L25,33C26.1,33 27,32.1 27,31L27,16Z" style="fill:rgb(78,122,181);"/>
                <rect x="18" y="4" width="1" height="12" style="fill:rgb(120,139,156);"/>
                <path d="M18,4L23,4L23,5L18,5L18,4ZM19,8L21,8L21,9L19,9L19,8ZM18,12L21,12L21,13L18,13L18,12Z" style="fill:rgb(120,139,156);"/>
                <path d="M18,20L23,20L23,21L18,21L18,20ZM18,24L21,24L21,25L18,25L18,24ZM18,28L21,28L21,29L18,29L18,28Z" style="fill:rgb(78,122,181);"/>
                <rect x="18" y="16" width="1" height="17" style="fill:rgb(78,122,181);"/>
                <g transform="matrix(1.55528,0,0,1.55528,23.7401,18.7781)">
                    <path d="M6.094,0.406C2.953,0.406 0.406,2.953 0.406,6.094C0.406,9.234 2.953,11.781 6.094,11.781C9.234,11.781 11.781,9.234 11.781,6.094C11.781,2.953 9.234,0.406 6.094,0.406Z" style="fill:rgb(186,224,189);fill-rule:nonzero;"/>
                </g>
                <g transform="matrix(1.55528,0,0,1.55528,23.7401,18.7781)">
                    <path d="M6.094,0.813C9.004,0.813 11.375,3.184 11.375,6.094C11.375,9.004 9.004,11.375 6.094,11.375C3.184,11.375 0.813,9.004 0.813,6.094C0.813,3.184 3.184,0.813 6.094,0.813M6.094,0C2.727,0 0,2.727 0,6.094C0,9.461 2.727,12.188 6.094,12.188C9.461,12.188 12.188,9.461 12.188,6.094C12.188,2.727 9.461,0 6.094,0Z" style="fill:rgb(94,156,118);fill-rule:nonzero;"/>
                </g>
                <g transform="matrix(1.55528,0,0,3.0236,23.7401,9.83052)">
                    <rect x="2.844" y="5.688" width="6.5" height="0.813" style="fill:white;"/>
                </g>
                <g transform="matrix(3.0236,0,0,1.55528,14.7925,18.7781)">
                    <rect x="5.688" y="2.844" width="0.813" height="6.5" style="fill:white;"/>
                </g>
            </g>
        </g>
    </g>
    <g id="surface-add-bar-plus">
    </g>
</svg>
