<?xml version="1.0" encoding="UTF-8" standalone="no"?>
<!DOCTYPE svg PUBLIC "-//W3C//DTD SVG 1.1//EN" "http://www.w3.org/Graphics/SVG/1.1/DTD/svg11.dtd">
<svg width="100%" height="100%" viewBox="0 0 18 18" version="1.1" xmlns="http://www.w3.org/2000/svg" xmlns:xlink="http://www.w3.org/1999/xlink" xml:space="preserve" xmlns:serif="http://www.serif.com/" style="fill-rule:evenodd;clip-rule:evenodd;stroke-linejoin:round;stroke-miterlimit:2;">
    <g id="surface7556" transform="matrix(0.889692,0,0,0.889692,0.0991051,0.149088)">
        <path d="M6.57,16.426C3.617,16.426 1.125,13.273 1.125,9.539L1.125,8.281C1.125,4.52 3.199,1.574 5.852,1.574C8.57,1.574 9.734,3.883 10.586,6.371L10.855,7.16L11.883,2.023L13.676,2.023L12.004,10.379L12.117,10.77C12.699,12.789 13.363,15.074 14.625,15.074C15.734,15.074 16.426,14.125 16.426,12.602C16.426,15.715 15.535,15.977 14.625,15.977C12.863,15.977 11.855,12.566 11.844,12.531L11.645,11.848L11.414,12.523C10.805,14.305 9.469,16.426 6.57,16.426ZM6.57,2.477C4.719,2.477 3.082,5.074 2.926,8.27L2.926,9.539C3.086,12.789 4.754,15.523 6.57,15.523C8.902,15.523 10.406,9.715 10.566,9.055L10.582,9L10.566,8.945C10.039,6.836 8.367,2.477 6.57,2.477Z" style="fill:rgb(139,183,239);fill-rule:nonzero;"/>
        <path d="M5.852,1.801C7.934,1.801 9.246,3.145 10.375,6.445L10.914,8.023L11.242,6.387L12.07,2.25L13.402,2.25L11.793,10.281L11.773,10.391L11.805,10.496L11.902,10.832C12.508,12.926 13.191,15.301 14.625,15.301C15.168,15.301 15.625,15.105 15.961,14.746C15.648,15.75 15.078,15.75 14.625,15.75C13.305,15.75 12.328,13.383 12.059,12.469L11.664,11.105L11.203,12.449C10.617,14.16 9.336,16.199 6.57,16.199C3.742,16.199 1.352,13.148 1.352,9.539L1.352,8.281C1.352,4.707 3.367,1.801 5.852,1.801M6.57,15.75C9.074,15.75 10.617,9.789 10.785,9.109L10.813,9L10.785,8.891C10.355,7.168 8.656,2.25 6.57,2.25C4.602,2.25 2.863,4.945 2.699,8.281L2.699,9.563C2.867,12.918 4.641,15.75 6.57,15.75M5.852,1.352C3.066,1.352 0.898,4.453 0.898,8.281L0.898,9.539C0.898,13.367 3.438,16.648 6.57,16.648C9.152,16.648 10.793,15.031 11.629,12.594C11.629,12.594 12.676,16.199 14.625,16.199C15.898,16.199 16.648,15.516 16.648,12.602L16.648,12.148L16.199,12.148L16.199,12.602C16.199,13.82 15.723,14.852 14.625,14.852C13.461,14.852 12.781,12.234 12.234,10.371L13.949,1.801L11.699,1.801L10.801,6.301C9.84,3.488 8.57,1.352 5.852,1.352ZM6.57,15.301C4.938,15.301 3.309,12.723 3.148,9.539L3.148,8.281C3.309,5.098 4.938,2.699 6.57,2.699C8.074,2.699 9.719,6.469 10.352,9C10.352,9 8.793,15.301 6.57,15.301Z" style="fill:rgb(78,121,181);fill-rule:nonzero;"/>
    </g>
    <g id="surface1634" transform="matrix(0.738175,0,0,0.738175,9.00349,9.00349)">
        <path d="M6.094,0.406C2.953,0.406 0.406,2.953 0.406,6.094C0.406,9.234 2.953,11.781 6.094,11.781C9.234,11.781 11.781,9.234 11.781,6.094C11.781,2.953 9.234,0.406 6.094,0.406Z" style="fill:rgb(186,224,189);fill-rule:nonzero;"/>
        <path d="M6.094,0.813C9.004,0.813 11.375,3.184 11.375,6.094C11.375,9.004 9.004,11.375 6.094,11.375C3.184,11.375 0.813,9.004 0.813,6.094C0.813,3.184 3.184,0.813 6.094,0.813M6.094,0C2.727,0 0,2.727 0,6.094C0,9.461 2.727,12.188 6.094,12.188C9.461,12.188 12.188,9.461 12.188,6.094C12.188,2.727 9.461,0 6.094,0Z" style="fill:rgb(94,156,118);fill-rule:nonzero;"/>
        <g transform="matrix(1,0,0,1.94409,0,-5.75304)">
            <rect x="2.844" y="5.688" width="6.5" height="0.813" style="fill:white;"/>
        </g>
        <g transform="matrix(1.94409,0,0,1,-5.75304,0)">
            <rect x="5.688" y="2.844" width="0.813" height="6.5" style="fill:white;fill-rule:nonzero;"/>
        </g>
    </g>
</svg>
