<?xml version="1.0" encoding="UTF-8" standalone="no"?>
<!DOCTYPE svg PUBLIC "-//W3C//DTD SVG 1.1//EN" "http://www.w3.org/Graphics/SVG/1.1/DTD/svg11.dtd">
<svg width="100%" height="100%" viewBox="0 0 60 60" version="1.1" xmlns="http://www.w3.org/2000/svg" xmlns:xlink="http://www.w3.org/1999/xlink" xml:space="preserve" xmlns:serif="http://www.serif.com/" style="fill-rule:evenodd;clip-rule:evenodd;stroke-linejoin:round;stroke-miterlimit:2;">
    <g id="surface631" transform="matrix(0.75,0,0,0.757576,0,3.27273)">
        <path d="M16.5,45.75C7.816,45.75 0.75,38.684 0.75,30C0.75,21.316 7.816,14.25 16.5,14.25L43.5,14.25C52.184,14.25 59.25,21.316 59.25,30C59.25,38.684 52.184,45.75 43.5,45.75L16.5,45.75Z" style="fill:rgb(139,183,239);fill-rule:nonzero;"/>
        <path d="M43.5,15C51.77,15 58.5,21.73 58.5,30C58.5,38.27 51.77,45 43.5,45L16.5,45C8.23,45 1.5,38.27 1.5,30C1.5,21.73 8.23,15 16.5,15L43.5,15M43.5,13.5L16.5,13.5C7.387,13.5 0,20.887 0,30C0,39.113 7.387,46.5 16.5,46.5L43.5,46.5C52.613,46.5 60,39.113 60,30C60,20.887 52.613,13.5 43.5,13.5Z" style="fill:rgb(78,121,181);fill-rule:nonzero;"/>
        <path d="M43.5,42C50.129,42 55.5,36.629 55.5,30C55.5,23.371 50.129,18 43.5,18C36.871,18 31.5,23.371 31.5,30C31.5,36.629 36.871,42 43.5,42Z" style="fill:rgb(254,254,254);fill-rule:nonzero;"/>
    </g>
    <g id="surface1634" transform="matrix(2.46144,0,0,2.46144,30,30)">
        <path d="M6.094,0.406C2.953,0.406 0.406,2.953 0.406,6.094C0.406,9.234 2.953,11.781 6.094,11.781C9.234,11.781 11.781,9.234 11.781,6.094C11.781,2.953 9.234,0.406 6.094,0.406Z" style="fill:rgb(186,224,189);fill-rule:nonzero;"/>
        <path d="M6.094,0.813C9.004,0.813 11.375,3.184 11.375,6.094C11.375,9.004 9.004,11.375 6.094,11.375C3.184,11.375 0.813,9.004 0.813,6.094C0.813,3.184 3.184,0.813 6.094,0.813M6.094,0C2.727,0 0,2.727 0,6.094C0,9.461 2.727,12.188 6.094,12.188C9.461,12.188 12.188,9.461 12.188,6.094C12.188,2.727 9.461,0 6.094,0Z" style="fill:rgb(94,156,118);fill-rule:nonzero;"/>
        <g transform="matrix(1,0,0,1.94409,0,-5.75304)">
            <rect x="2.844" y="5.688" width="6.5" height="0.813" style="fill:white;"/>
        </g>
        <g transform="matrix(1.94409,0,0,1,-5.75304,0)">
            <rect x="5.688" y="2.844" width="0.813" height="6.5" style="fill:white;"/>
        </g>
    </g>
</svg>
