<?xml version="1.0" encoding="UTF-8"?>
<svg xmlns="http://www.w3.org/2000/svg" xmlns:xlink="http://www.w3.org/1999/xlink" width="18pt" height="18pt" viewBox="0 0 18 18" version="1.1">
<g id="surface3410">
<path style=" stroke:none;fill-rule:nonzero;fill:rgb(100%,100%,100%);fill-opacity:1;" d="M 1.816406 15.523438 C 0.773438 14.066406 0.226562 12.355469 0.226562 10.574219 C 0.226562 5.859375 4.058594 2.023438 8.773438 2.023438 C 13.488281 2.023438 17.324219 5.859375 17.324219 10.574219 C 17.324219 12.355469 16.777344 14.066406 15.734375 15.523438 Z M 1.816406 15.523438 "/>
<path style=" stroke:none;fill-rule:nonzero;fill:rgb(30.588236%,47.843137%,70.980394%);fill-opacity:1;" d="M 8.773438 2.25 C 13.367188 2.25 17.101562 5.984375 17.101562 10.574219 C 17.101562 12.273438 16.589844 13.902344 15.617188 15.300781 L 1.929688 15.300781 C 0.960938 13.902344 0.449219 12.273438 0.449219 10.574219 C 0.449219 5.984375 4.183594 2.25 8.773438 2.25 M 8.773438 1.800781 C 3.929688 1.800781 0 5.726562 0 10.574219 C 0 12.511719 0.636719 14.296875 1.699219 15.75 L 15.851562 15.75 C 16.914062 14.296875 17.550781 12.511719 17.550781 10.574219 C 17.550781 5.726562 13.621094 1.800781 8.773438 1.800781 Z M 8.773438 1.800781 "/>
<path style=" stroke:none;fill-rule:nonzero;fill:rgb(71.372551%,78.823531%,83.92157%);fill-opacity:1;" d="M 6.75 13.050781 L 10.800781 13.050781 L 10.800781 13.949219 L 6.75 13.949219 Z M 6.75 13.050781 "/>
<path style=" stroke:none;fill-rule:nonzero;fill:rgb(96.862745%,56.078434%,56.078434%);fill-opacity:1;" d="M 8.773438 10.125 C 8.527344 10.125 8.324219 10.328125 8.324219 10.574219 C 8.324219 10.824219 8.527344 11.023438 8.773438 11.023438 C 9.023438 11.023438 9.226562 10.824219 9.226562 10.574219 C 9.226562 10.328125 9.023438 10.125 8.773438 10.125 Z M 8.773438 10.125 "/>
<path style=" stroke:none;fill-rule:nonzero;fill:rgb(78.039217%,26.274511%,26.274511%);fill-opacity:1;" d="M 8.773438 10.351562 C 8.898438 10.351562 9 10.449219 9 10.574219 C 9 10.699219 8.898438 10.800781 8.773438 10.800781 C 8.652344 10.800781 8.550781 10.699219 8.550781 10.574219 C 8.550781 10.449219 8.652344 10.351562 8.773438 10.351562 M 8.773438 9.898438 C 8.402344 9.898438 8.101562 10.203125 8.101562 10.574219 C 8.101562 10.949219 8.402344 11.25 8.773438 11.25 C 9.148438 11.25 9.449219 10.949219 9.449219 10.574219 C 9.449219 10.203125 9.148438 9.898438 8.773438 9.898438 Z M 8.773438 9.898438 "/>
<path style="fill-rule:nonzero;fill:rgb(96.862745%,56.078434%,56.078434%);fill-opacity:1;stroke-width:1;stroke-linecap:butt;stroke-linejoin:miter;stroke:rgb(78.039217%,26.274511%,26.274511%);stroke-opacity:1;stroke-miterlimit:10;" d="M 19.001736 24.001736 L 30 13.003472 " transform="matrix(0.45,0,0,0.45,0,0)"/>
<path style=" stroke:none;fill-rule:nonzero;fill:rgb(47.058824%,54.509807%,61.176473%);fill-opacity:1;" d="M 8.773438 2.25 C 8.699219 2.25 8.625 2.257812 8.550781 2.261719 L 8.550781 3.601562 L 9 3.601562 L 9 2.261719 C 8.925781 2.257812 8.851562 2.25 8.773438 2.25 Z M 8.773438 2.25 "/>
<path style=" stroke:none;fill-rule:nonzero;fill:rgb(88.235295%,92.156863%,94.901961%);fill-opacity:1;" d="M 15.75 10.800781 L 17.089844 10.800781 C 17.09375 10.726562 17.101562 10.652344 17.101562 10.574219 C 17.101562 10.5 17.089844 10.425781 17.089844 10.351562 L 15.75 10.351562 Z M 15.75 10.800781 "/>
<path style=" stroke:none;fill-rule:nonzero;fill:rgb(47.058824%,54.509807%,61.176473%);fill-opacity:1;" d="M 17.089844 10.351562 L 15.75 10.351562 L 15.75 10.800781 L 17.089844 10.800781 C 17.09375 10.726562 17.101562 10.652344 17.101562 10.574219 C 17.101562 10.5 17.089844 10.425781 17.089844 10.351562 Z M 17.089844 10.351562 "/>
<path style=" stroke:none;fill-rule:nonzero;fill:rgb(88.235295%,92.156863%,94.901961%);fill-opacity:1;" d="M 0.457031 10.800781 L 1.800781 10.800781 L 1.800781 10.351562 L 0.460938 10.351562 C 0.460938 10.425781 0.449219 10.5 0.449219 10.574219 C 0.449219 10.652344 0.457031 10.726562 0.457031 10.800781 Z M 0.457031 10.800781 "/>
<path style=" stroke:none;fill-rule:nonzero;fill:rgb(47.058824%,54.509807%,61.176473%);fill-opacity:1;" d="M 1.800781 10.351562 L 0.460938 10.351562 C 0.460938 10.425781 0.449219 10.5 0.449219 10.574219 C 0.449219 10.652344 0.457031 10.726562 0.457031 10.800781 L 1.800781 10.800781 Z M 1.800781 10.351562 "/>
<path style=" stroke:none;fill-rule:nonzero;fill:rgb(88.235295%,92.156863%,94.901961%);fill-opacity:1;" d="M 5.09375 4.648438 L 5.480469 4.421875 L 4.808594 3.257812 C 4.675781 3.328125 4.550781 3.410156 4.425781 3.492188 Z M 5.09375 4.648438 "/>
<path style=" stroke:none;fill-rule:nonzero;fill:rgb(47.058824%,54.509807%,61.176473%);fill-opacity:1;" d="M 4.808594 3.257812 C 4.675781 3.328125 4.550781 3.410156 4.425781 3.492188 L 5.09375 4.648438 L 5.480469 4.421875 Z M 4.808594 3.257812 "/>
<path style=" stroke:none;fill-rule:nonzero;fill:rgb(88.235295%,92.156863%,94.901961%);fill-opacity:1;" d="M 15.859375 6.226562 L 14.703125 6.894531 L 14.929688 7.28125 L 16.09375 6.609375 C 16.019531 6.476562 15.9375 6.351562 15.859375 6.226562 Z M 15.859375 6.226562 "/>
<path style=" stroke:none;fill-rule:nonzero;fill:rgb(47.058824%,54.509807%,61.176473%);fill-opacity:1;" d="M 15.859375 6.226562 L 14.703125 6.894531 L 14.929688 7.28125 L 16.09375 6.609375 C 16.019531 6.476562 15.9375 6.351562 15.859375 6.226562 Z M 15.859375 6.226562 "/>
<path style=" stroke:none;fill-rule:nonzero;fill:rgb(88.235295%,92.156863%,94.901961%);fill-opacity:1;" d="M 1.691406 14.925781 L 2.847656 14.257812 L 2.621094 13.867188 L 1.464844 14.535156 C 1.539062 14.667969 1.613281 14.796875 1.691406 14.925781 Z M 1.691406 14.925781 "/>
<path style=" stroke:none;fill-rule:nonzero;fill:rgb(47.058824%,54.509807%,61.176473%);fill-opacity:1;" d="M 2.621094 13.867188 L 1.464844 14.535156 C 1.539062 14.667969 1.613281 14.796875 1.691406 14.925781 L 2.847656 14.257812 Z M 2.621094 13.867188 "/>
<path style=" stroke:none;fill-rule:nonzero;fill:rgb(88.235295%,92.156863%,94.901961%);fill-opacity:1;" d="M 13.125 3.492188 C 12.996094 3.410156 12.871094 3.328125 12.742188 3.257812 L 12.066406 4.421875 L 12.457031 4.648438 Z M 13.125 3.492188 "/>
<path style=" stroke:none;fill-rule:nonzero;fill:rgb(47.058824%,54.509807%,61.176473%);fill-opacity:1;" d="M 12.742188 3.257812 L 12.066406 4.421875 L 12.457031 4.648438 L 13.125 3.492188 C 12.996094 3.410156 12.871094 3.328125 12.742188 3.257812 Z M 12.742188 3.257812 "/>
<path style=" stroke:none;fill-rule:nonzero;fill:rgb(88.235295%,92.156863%,94.901961%);fill-opacity:1;" d="M 16.085938 14.535156 L 14.929688 13.867188 L 14.703125 14.257812 L 15.859375 14.925781 C 15.9375 14.796875 16.011719 14.667969 16.085938 14.535156 Z M 16.085938 14.535156 "/>
<path style=" stroke:none;fill-rule:nonzero;fill:rgb(47.058824%,54.509807%,61.176473%);fill-opacity:1;" d="M 14.929688 13.867188 L 14.703125 14.257812 L 15.859375 14.925781 C 15.9375 14.796875 16.011719 14.667969 16.082031 14.535156 Z M 14.929688 13.867188 "/>
<path style=" stroke:none;fill-rule:nonzero;fill:rgb(88.235295%,92.156863%,94.901961%);fill-opacity:1;" d="M 2.621094 7.28125 L 2.847656 6.894531 L 1.691406 6.226562 C 1.613281 6.351562 1.527344 6.476562 1.457031 6.609375 Z M 2.621094 7.28125 "/>
<path style=" stroke:none;fill-rule:nonzero;fill:rgb(47.058824%,54.509807%,61.176473%);fill-opacity:1;" d="M 1.691406 6.226562 C 1.613281 6.351562 1.527344 6.476562 1.457031 6.609375 L 2.621094 7.28125 L 2.847656 6.894531 Z M 1.691406 6.226562 "/>
</g>
</svg>
