<?xml version="1.0" encoding="UTF-8"?>
<svg xmlns="http://www.w3.org/2000/svg" xmlns:xlink="http://www.w3.org/1999/xlink" width="60pt" height="60pt" viewBox="0 0 60 60" version="1.1">
<g id="surface25">
<path style=" stroke:none;fill-rule:nonzero;fill:rgb(85.882354%,69.01961%,39.607844%);fill-opacity:1;" d="M 1.875 39.375 L 1.875 5.625 L 18 5.625 L 25.5 13.125 L 58.125 13.125 L 58.125 39.375 Z M 1.875 39.375 "/>
<path style=" stroke:none;fill-rule:nonzero;fill:rgb(58.823532%,47.843137%,26.666668%);fill-opacity:1;" d="M 17.25 7.5 L 24.75 15 L 56.25 15 L 56.25 37.5 L 3.75 37.5 L 3.75 7.5 L 17.25 7.5 M 18.75 3.75 L 0 3.75 L 0 41.25 L 60 41.25 L 60 11.25 L 26.25 11.25 Z M 18.75 3.75 "/>
<path style=" stroke:none;fill-rule:nonzero;fill:rgb(96.078432%,80.784315%,52.156866%);fill-opacity:1;" d="M 1.875 54.375 L 1.875 16.875 L 19.125 16.875 L 26.625 13.125 L 58.125 13.125 L 58.125 42.375 L 46.125 54.375 Z M 1.875 54.375 "/>
<path style=" stroke:none;fill-rule:nonzero;fill:rgb(58.823532%,47.843137%,26.666668%);fill-opacity:1;" d="M 56.25 15 L 56.25 41.625 L 45.375 52.5 L 3.75 52.5 L 3.75 18.75 L 19.5 18.75 L 27 15 L 56.25 15 M 60 11.25 L 26.25 11.25 L 18.75 15 L 0 15 L 0 56.25 L 46.875 56.25 L 60 43.125 Z M 60 11.25 "/>
<path style=" stroke:none;fill-rule:nonzero;fill:rgb(36.862746%,61.176473%,46.27451%);fill-opacity:1;" d="M 43.125 26.25 C 33.804688 26.25 26.25 33.804688 26.25 43.125 C 26.25 52.445312 33.804688 60 43.125 60 C 52.445312 60 60 52.445312 60 43.125 C 60 33.804688 52.445312 26.25 43.125 26.25 Z M 43.125 26.25 "/>
<path style=" stroke:none;fill-rule:nonzero;fill:rgb(100%,100%,100%);fill-opacity:1;" d="M 41.25 33.75 L 45 33.75 L 45 52.5 L 41.25 52.5 Z M 41.25 33.75 "/>
<path style=" stroke:none;fill-rule:nonzero;fill:rgb(100%,100%,100%);fill-opacity:1;" d="M 33.75 41.25 L 52.5 41.25 L 52.5 45 L 33.75 45 Z M 33.75 41.25 "/>
</g>
</svg>
