<?xml version="1.0" encoding="UTF-8" standalone="no"?>
<!DOCTYPE svg PUBLIC "-//W3C//DTD SVG 1.1//EN" "http://www.w3.org/Graphics/SVG/1.1/DTD/svg11.dtd">
<svg width="100%" height="100%" viewBox="0 0 18 18" version="1.1" xmlns="http://www.w3.org/2000/svg" xmlns:xlink="http://www.w3.org/1999/xlink" xml:space="preserve" xmlns:serif="http://www.serif.com/" style="fill-rule:evenodd;clip-rule:evenodd;stroke-miterlimit:10;">
    <g id="surface3410" transform="matrix(0.799832,0,0,0.799832,0,0.360458)">
        <path d="M1.816,15.523C0.773,14.066 0.227,12.355 0.227,10.574C0.227,5.859 4.059,2.023 8.773,2.023C13.488,2.023 17.324,5.859 17.324,10.574C17.324,12.355 16.777,14.066 15.734,15.523L1.816,15.523Z" style="fill:rgb(254,254,254);fill-rule:nonzero;"/>
        <path d="M8.773,2.25C13.367,2.25 17.102,5.984 17.102,10.574C17.102,12.273 16.59,13.902 15.617,15.301L1.93,15.301C0.961,13.902 0.449,12.273 0.449,10.574C0.449,5.984 4.184,2.25 8.773,2.25M8.773,1.801C3.93,1.801 0,5.727 0,10.574C0,12.512 0.637,14.297 1.699,15.75L15.852,15.75C16.914,14.297 17.551,12.512 17.551,10.574C17.551,5.727 13.621,1.801 8.773,1.801Z" style="fill:rgb(78,121,181);fill-rule:nonzero;"/>
        <rect x="6.75" y="13.051" width="4.051" height="0.898" style="fill:rgb(182,201,214);fill-rule:nonzero;"/>
        <path d="M8.773,10.125C8.527,10.125 8.324,10.328 8.324,10.574C8.324,10.824 8.527,11.023 8.773,11.023C9.023,11.023 9.227,10.824 9.227,10.574C9.227,10.328 9.023,10.125 8.773,10.125Z" style="fill:rgb(246,143,143);fill-rule:nonzero;"/>
        <path d="M8.773,10.352C8.898,10.352 9,10.449 9,10.574C9,10.699 8.898,10.801 8.773,10.801C8.652,10.801 8.551,10.699 8.551,10.574C8.551,10.449 8.652,10.352 8.773,10.352M8.773,9.898C8.402,9.898 8.102,10.203 8.102,10.574C8.102,10.949 8.402,11.25 8.773,11.25C9.148,11.25 9.449,10.949 9.449,10.574C9.449,10.203 9.148,9.898 8.773,9.898Z" style="fill:rgb(199,67,67);fill-rule:nonzero;"/>
        <g transform="matrix(0.45,0,0,0.45,0,0)">
            <path d="M19.002,24.002L30,13.003" style="fill:none;fill-rule:nonzero;stroke:rgb(199,67,67);stroke-width:1px;"/>
        </g>
        <path d="M8.773,2.25C8.699,2.25 8.625,2.258 8.551,2.262L8.551,3.602L9,3.602L9,2.262C8.926,2.258 8.852,2.25 8.773,2.25Z" style="fill:rgb(120,139,156);fill-rule:nonzero;"/>
        <path d="M15.75,10.801L17.09,10.801C17.094,10.727 17.102,10.652 17.102,10.574C17.102,10.5 17.09,10.426 17.09,10.352L15.75,10.352L15.75,10.801Z" style="fill:rgb(225,235,242);fill-rule:nonzero;"/>
        <path d="M17.09,10.352L15.75,10.352L15.75,10.801L17.09,10.801C17.094,10.727 17.102,10.652 17.102,10.574C17.102,10.5 17.09,10.426 17.09,10.352Z" style="fill:rgb(120,139,156);fill-rule:nonzero;"/>
        <path d="M0.457,10.801L1.801,10.801L1.801,10.352L0.461,10.352C0.461,10.426 0.449,10.5 0.449,10.574C0.449,10.652 0.457,10.727 0.457,10.801Z" style="fill:rgb(225,235,242);fill-rule:nonzero;"/>
        <path d="M1.801,10.352L0.461,10.352C0.461,10.426 0.449,10.5 0.449,10.574C0.449,10.652 0.457,10.727 0.457,10.801L1.801,10.801L1.801,10.352Z" style="fill:rgb(120,139,156);fill-rule:nonzero;"/>
        <path d="M5.094,4.648L5.48,4.422L4.809,3.258C4.676,3.328 4.551,3.41 4.426,3.492L5.094,4.648Z" style="fill:rgb(225,235,242);fill-rule:nonzero;"/>
        <path d="M4.809,3.258C4.676,3.328 4.551,3.41 4.426,3.492L5.094,4.648L5.48,4.422L4.809,3.258Z" style="fill:rgb(120,139,156);fill-rule:nonzero;"/>
        <path d="M15.859,6.227L14.703,6.895L14.93,7.281L16.094,6.609C16.02,6.477 15.938,6.352 15.859,6.227Z" style="fill:rgb(225,235,242);fill-rule:nonzero;"/>
        <path d="M15.859,6.227L14.703,6.895L14.93,7.281L16.094,6.609C16.02,6.477 15.938,6.352 15.859,6.227Z" style="fill:rgb(120,139,156);fill-rule:nonzero;"/>
        <path d="M1.691,14.926L2.848,14.258L2.621,13.867L1.465,14.535C1.539,14.668 1.613,14.797 1.691,14.926Z" style="fill:rgb(225,235,242);fill-rule:nonzero;"/>
        <path d="M2.621,13.867L1.465,14.535C1.539,14.668 1.613,14.797 1.691,14.926L2.848,14.258L2.621,13.867Z" style="fill:rgb(120,139,156);fill-rule:nonzero;"/>
        <path d="M13.125,3.492C12.996,3.41 12.871,3.328 12.742,3.258L12.066,4.422L12.457,4.648L13.125,3.492Z" style="fill:rgb(225,235,242);fill-rule:nonzero;"/>
        <path d="M12.742,3.258L12.066,4.422L12.457,4.648L13.125,3.492C12.996,3.41 12.871,3.328 12.742,3.258Z" style="fill:rgb(120,139,156);fill-rule:nonzero;"/>
        <path d="M16.086,14.535L14.93,13.867L14.703,14.258L15.859,14.926C15.938,14.797 16.012,14.668 16.086,14.535Z" style="fill:rgb(225,235,242);fill-rule:nonzero;"/>
        <path d="M14.93,13.867L14.703,14.258L15.859,14.926C15.938,14.797 16.012,14.668 16.082,14.535L14.93,13.867Z" style="fill:rgb(120,139,156);fill-rule:nonzero;"/>
        <path d="M2.621,7.281L2.848,6.895L1.691,6.227C1.613,6.352 1.527,6.477 1.457,6.609L2.621,7.281Z" style="fill:rgb(225,235,242);fill-rule:nonzero;"/>
        <path d="M1.691,6.227C1.613,6.352 1.527,6.477 1.457,6.609L2.621,7.281L2.848,6.895L1.691,6.227Z" style="fill:rgb(120,139,156);fill-rule:nonzero;"/>
    </g>
    <g id="surface1634" transform="matrix(0.738175,0,0,0.738175,9.00349,9.00349)">
        <path d="M6.094,0.406C2.953,0.406 0.406,2.953 0.406,6.094C0.406,9.234 2.953,11.781 6.094,11.781C9.234,11.781 11.781,9.234 11.781,6.094C11.781,2.953 9.234,0.406 6.094,0.406Z" style="fill:rgb(186,224,189);fill-rule:nonzero;"/>
        <path d="M6.094,0.813C9.004,0.813 11.375,3.184 11.375,6.094C11.375,9.004 9.004,11.375 6.094,11.375C3.184,11.375 0.813,9.004 0.813,6.094C0.813,3.184 3.184,0.813 6.094,0.813M6.094,0C2.727,0 0,2.727 0,6.094C0,9.461 2.727,12.188 6.094,12.188C9.461,12.188 12.188,9.461 12.188,6.094C12.188,2.727 9.461,0 6.094,0Z" style="fill:rgb(94,156,118);fill-rule:nonzero;"/>
        <g transform="matrix(1,0,0,1.94409,0,-5.75304)">
            <rect x="2.844" y="5.688" width="6.5" height="0.813" style="fill:white;"/>
        </g>
        <g transform="matrix(1.94409,0,0,1,-5.75304,0)">
            <rect x="5.688" y="2.844" width="0.813" height="6.5" style="fill:white;fill-rule:nonzero;"/>
        </g>
    </g>
</svg>
