<?xml version="1.0" encoding="UTF-8" standalone="no"?>
<!DOCTYPE svg PUBLIC "-//W3C//DTD SVG 1.1//EN" "http://www.w3.org/Graphics/SVG/1.1/DTD/svg11.dtd">
<svg width="100%" height="100%" viewBox="0 0 18 18" version="1.1" xmlns="http://www.w3.org/2000/svg" xmlns:xlink="http://www.w3.org/1999/xlink" xml:space="preserve" xmlns:serif="http://www.serif.com/" style="fill-rule:evenodd;clip-rule:evenodd;stroke-linejoin:round;stroke-miterlimit:2;">
    <g id="surface2381" transform="matrix(0.862168,0,0,0.862168,0.558328,0.0619168)">
        <path d="M7.648,9.996C6.535,9.996 5.625,9.086 5.625,7.973L5.625,2.699C5.625,1.582 6.535,0.676 7.648,0.676C8.766,0.676 9.676,1.582 9.676,2.699L9.676,7.973C9.676,9.09 8.766,9.996 7.648,9.996Z" style="fill:rgb(225,235,242);fill-rule:nonzero;"/>
        <path d="M7.648,0.898C8.645,0.898 9.449,1.707 9.449,2.699L9.449,7.973C9.449,8.965 8.645,9.77 7.648,9.77C6.656,9.77 5.852,8.965 5.852,7.973L5.852,2.699C5.852,1.707 6.656,0.898 7.648,0.898M7.648,0.449C6.414,0.449 5.398,1.461 5.398,2.699L5.398,7.973C5.398,9.207 6.414,10.223 7.648,10.223C8.887,10.223 9.898,9.207 9.898,7.973L9.898,2.699C9.898,1.461 8.887,0.449 7.648,0.449Z" style="fill:rgb(120,139,156);fill-rule:nonzero;"/>
        <path d="M7.648,17.324C5.789,17.324 4.273,15.813 4.273,13.949C4.273,12.922 4.734,11.965 5.539,11.316L5.625,11.25L5.625,6.977L9.676,6.977L9.676,11.25L9.758,11.316C10.563,11.965 11.023,12.922 11.023,13.949C11.023,15.813 9.512,17.324 7.648,17.324Z" style="fill:rgb(246,143,143);fill-rule:nonzero;"/>
        <path d="M9.449,7.199L9.449,11.359L9.617,11.492C10.371,12.094 10.801,12.992 10.801,13.949C10.801,15.688 9.387,17.102 7.648,17.102C5.914,17.102 4.5,15.688 4.5,13.949C4.5,12.992 4.93,12.094 5.684,11.492L5.852,11.359L5.852,7.199L9.449,7.199M9.898,6.75L5.398,6.75L5.398,11.141C4.578,11.801 4.051,12.813 4.051,13.949C4.051,15.938 5.66,17.551 7.648,17.551C9.637,17.551 11.25,15.938 11.25,13.949C11.25,12.813 10.723,11.801 9.898,11.141L9.898,6.75Z" style="fill:rgb(199,67,67);fill-rule:nonzero;"/>
        <path d="M11.25,10.801L13.949,10.801L13.949,11.25L11.25,11.25L11.25,10.801ZM11.25,9L13.949,9L13.949,9.449L11.25,9.449L11.25,9ZM11.25,7.199L13.949,7.199L13.949,7.648L11.25,7.648L11.25,7.199Z" style="fill:rgb(78,121,181);fill-rule:nonzero;"/>
        <path d="M11.25,5.398L13.949,5.398L13.949,5.852L11.25,5.852L11.25,5.398ZM11.25,3.602L13.949,3.602L13.949,4.051L11.25,4.051L11.25,3.602ZM11.25,1.801L13.949,1.801L13.949,2.25L11.25,2.25L11.25,1.801Z" style="fill:rgb(199,67,67);fill-rule:nonzero;"/>
    </g>
    <g id="surface1634" transform="matrix(0.738175,0,0,0.738175,9.00349,9.00349)">
        <path d="M6.094,0.406C2.953,0.406 0.406,2.953 0.406,6.094C0.406,9.234 2.953,11.781 6.094,11.781C9.234,11.781 11.781,9.234 11.781,6.094C11.781,2.953 9.234,0.406 6.094,0.406Z" style="fill:rgb(186,224,189);fill-rule:nonzero;"/>
        <path d="M6.094,0.813C9.004,0.813 11.375,3.184 11.375,6.094C11.375,9.004 9.004,11.375 6.094,11.375C3.184,11.375 0.813,9.004 0.813,6.094C0.813,3.184 3.184,0.813 6.094,0.813M6.094,0C2.727,0 0,2.727 0,6.094C0,9.461 2.727,12.188 6.094,12.188C9.461,12.188 12.188,9.461 12.188,6.094C12.188,2.727 9.461,0 6.094,0Z" style="fill:rgb(94,156,118);fill-rule:nonzero;"/>
        <g transform="matrix(1,0,0,1.94409,0,-5.75304)">
            <rect x="2.844" y="5.688" width="6.5" height="0.813" style="fill:white;"/>
        </g>
        <g transform="matrix(1.94409,0,0,1,-5.75304,0)">
            <rect x="5.688" y="2.844" width="0.813" height="6.5" style="fill:white;fill-rule:nonzero;"/>
        </g>
    </g>
</svg>
