<?xml version="1.0" encoding="UTF-8" standalone="no"?>
<!DOCTYPE svg PUBLIC "-//W3C//DTD SVG 1.1//EN" "http://www.w3.org/Graphics/SVG/1.1/DTD/svg11.dtd">
<svg width="100%" height="100%" viewBox="0 0 60 60" version="1.1" xmlns="http://www.w3.org/2000/svg" xmlns:xlink="http://www.w3.org/1999/xlink" xml:space="preserve" xmlns:serif="http://www.serif.com/" style="fill-rule:evenodd;clip-rule:evenodd;stroke-linejoin:round;stroke-miterlimit:2;">
    <g id="surface730" transform="matrix(0.833333,0,0,0.833333,0.5,0.5)">
        <path d="M9,3.75L51,3.75C53.898,3.75 56.25,6.102 56.25,9L56.25,51C56.25,53.898 53.898,56.25 51,56.25L9,56.25C6.102,56.25 3.75,53.898 3.75,51L3.75,9C3.75,6.102 6.102,3.75 9,3.75Z" style="fill:rgb(176,193,212);fill-rule:nonzero;"/>
        <path d="M51,4.5C53.484,4.5 55.5,6.516 55.5,9L55.5,51C55.5,53.484 53.484,55.5 51,55.5L9,55.5C6.516,55.5 4.5,53.484 4.5,51L4.5,9C4.5,6.516 6.516,4.5 9,4.5L51,4.5M51,3L9,3C5.688,3 3,5.688 3,9L3,51C3,54.313 5.688,57 9,57L51,57C54.313,57 57,54.313 57,51L57,9C57,5.688 54.313,3 51,3Z" style="fill:rgb(102,121,143);fill-rule:nonzero;"/>
        <path d="M9,4.5L51,4.5C53.484,4.5 55.5,6.516 55.5,9L55.5,46.5C55.5,48.984 53.484,51 51,51L9,51C6.516,51 4.5,48.984 4.5,46.5L4.5,9C4.5,6.516 6.516,4.5 9,4.5Z" style="fill:rgb(216,226,237);fill-rule:nonzero;"/>
        <g transform="matrix(1,0,0,1,15,15)">
            <g>
                <g id="surface5367">
                    <path d="M26,20L26,21C26,22.656 24.883,24 23.5,24C22.25,24 21.637,22.641 21,21C20.859,20.648 20.352,18.949 20.031,17.855L23,4L19,4L17.566,10.695C16.039,6.234 14.316,3 10,3C5.582,3 2,7.926 2,14L2,16C2,22.074 6.027,27 11,27C15.102,27 17.762,24.359 19.227,20.559L21.172,25.387C21.527,26.328 22.434,27 23.5,27C23.746,27 24,26.934 24,26.934C25.695,26.516 27,24.023 27,21L27,20L26,20ZM16.645,15L16,18C15.172,22.016 13.238,25 11,25C8.406,25 6.277,21.055 6.023,16L6,16L6,14L6.023,14C6.277,8.945 8.406,5 11,5C13.391,5 16.133,9.945 16.828,14.129L16.645,15Z" style="fill:rgb(54,64,77);fill-rule:nonzero;"/>
                </g>
            </g>
        </g>
    </g>
    <g id="surface1634" transform="matrix(2.46144,0,0,2.46144,30,30)">
        <path d="M6.094,0.406C2.953,0.406 0.406,2.953 0.406,6.094C0.406,9.234 2.953,11.781 6.094,11.781C9.234,11.781 11.781,9.234 11.781,6.094C11.781,2.953 9.234,0.406 6.094,0.406Z" style="fill:rgb(186,224,189);fill-rule:nonzero;"/>
        <path d="M6.094,0.813C9.004,0.813 11.375,3.184 11.375,6.094C11.375,9.004 9.004,11.375 6.094,11.375C3.184,11.375 0.813,9.004 0.813,6.094C0.813,3.184 3.184,0.813 6.094,0.813M6.094,0C2.727,0 0,2.727 0,6.094C0,9.461 2.727,12.188 6.094,12.188C9.461,12.188 12.188,9.461 12.188,6.094C12.188,2.727 9.461,0 6.094,0Z" style="fill:rgb(94,156,118);fill-rule:nonzero;"/>
        <g transform="matrix(1,0,0,1.94409,0,-5.75304)">
            <rect x="2.844" y="5.688" width="6.5" height="0.813" style="fill:white;"/>
        </g>
        <g transform="matrix(1.94409,0,0,1,-5.75304,0)">
            <rect x="5.688" y="2.844" width="0.813" height="6.5" style="fill:white;"/>
        </g>
    </g>
</svg>
