<?xml version="1.0" encoding="UTF-8"?>
<svg xmlns="http://www.w3.org/2000/svg" xmlns:xlink="http://www.w3.org/1999/xlink" width="18pt" height="18pt" viewBox="0 0 18 18" version="1.1">
<g id="surface7556">
<path style=" stroke:none;fill-rule:nonzero;fill:rgb(54.509807%,71.764708%,94.117647%);fill-opacity:1;" d="M 6.570312 16.425781 C 3.617188 16.425781 1.125 13.273438 1.125 9.539062 L 1.125 8.28125 C 1.125 4.519531 3.199219 1.574219 5.851562 1.574219 C 8.570312 1.574219 9.734375 3.882812 10.585938 6.371094 L 10.855469 7.160156 L 11.882812 2.023438 L 13.675781 2.023438 L 12.003906 10.378906 L 12.117188 10.769531 C 12.699219 12.789062 13.363281 15.074219 14.625 15.074219 C 15.734375 15.074219 16.425781 14.125 16.425781 12.601562 C 16.425781 15.714844 15.535156 15.976562 14.625 15.976562 C 12.863281 15.976562 11.855469 12.566406 11.84375 12.53125 L 11.644531 11.847656 L 11.414062 12.523438 C 10.804688 14.304688 9.46875 16.425781 6.570312 16.425781 Z M 6.570312 2.476562 C 4.71875 2.476562 3.082031 5.074219 2.925781 8.269531 L 2.925781 9.539062 C 3.085938 12.789062 4.753906 15.523438 6.570312 15.523438 C 8.902344 15.523438 10.40625 9.714844 10.566406 9.054688 L 10.582031 9 L 10.566406 8.945312 C 10.039062 6.835938 8.367188 2.476562 6.570312 2.476562 Z M 6.570312 2.476562 "/>
<path style=" stroke:none;fill-rule:nonzero;fill:rgb(30.588236%,47.843137%,70.980394%);fill-opacity:1;" d="M 5.851562 1.800781 C 7.933594 1.800781 9.246094 3.144531 10.375 6.445312 L 10.914062 8.023438 L 11.242188 6.386719 L 12.070312 2.25 L 13.402344 2.25 L 11.792969 10.28125 L 11.773438 10.390625 L 11.804688 10.496094 L 11.902344 10.832031 C 12.507812 12.925781 13.191406 15.300781 14.625 15.300781 C 15.167969 15.300781 15.625 15.105469 15.960938 14.746094 C 15.648438 15.75 15.078125 15.75 14.625 15.75 C 13.304688 15.75 12.328125 13.382812 12.058594 12.46875 L 11.664062 11.105469 L 11.203125 12.449219 C 10.617188 14.160156 9.335938 16.199219 6.570312 16.199219 C 3.742188 16.199219 1.351562 13.148438 1.351562 9.539062 L 1.351562 8.28125 C 1.351562 4.707031 3.367188 1.800781 5.851562 1.800781 M 6.570312 15.75 C 9.074219 15.75 10.617188 9.789062 10.785156 9.109375 L 10.8125 9 L 10.785156 8.890625 C 10.355469 7.167969 8.65625 2.25 6.570312 2.25 C 4.601562 2.25 2.863281 4.945312 2.699219 8.28125 L 2.699219 9.5625 C 2.867188 12.917969 4.640625 15.75 6.570312 15.75 M 5.851562 1.351562 C 3.066406 1.351562 0.898438 4.453125 0.898438 8.28125 L 0.898438 9.539062 C 0.898438 13.367188 3.4375 16.648438 6.570312 16.648438 C 9.152344 16.648438 10.792969 15.03125 11.628906 12.59375 C 11.628906 12.59375 12.675781 16.199219 14.625 16.199219 C 15.898438 16.199219 16.648438 15.515625 16.648438 12.601562 L 16.648438 12.148438 L 16.199219 12.148438 L 16.199219 12.601562 C 16.199219 13.820312 15.722656 14.851562 14.625 14.851562 C 13.460938 14.851562 12.78125 12.234375 12.234375 10.371094 L 13.949219 1.800781 L 11.699219 1.800781 L 10.800781 6.300781 C 9.839844 3.488281 8.570312 1.351562 5.851562 1.351562 Z M 6.570312 15.300781 C 4.9375 15.300781 3.308594 12.722656 3.148438 9.539062 L 3.148438 8.28125 C 3.308594 5.097656 4.9375 2.699219 6.570312 2.699219 C 8.074219 2.699219 9.71875 6.46875 10.351562 9 C 10.351562 9 8.792969 15.300781 6.570312 15.300781 Z M 6.570312 15.300781 "/>
</g>
</svg>
