<?xml version="1.0" encoding="UTF-8"?>
<svg xmlns="http://www.w3.org/2000/svg" xmlns:xlink="http://www.w3.org/1999/xlink" width="18pt" height="18pt" viewBox="0 0 18 18" version="1.1">
<g id="surface3866">
<path style=" stroke:none;fill-rule:nonzero;fill:rgb(40.000001%,47.450981%,56.078434%);fill-opacity:1;" d="M 10.800781 2.25 L 10.800781 10.800781 L 2.25 10.800781 L 2.25 2.25 L 10.800781 2.25 M 11.25 1.800781 L 1.800781 1.800781 L 1.800781 11.25 L 11.25 11.25 Z M 11.25 1.800781 "/>
<path style=" stroke:none;fill-rule:nonzero;fill:rgb(54.509807%,71.764708%,94.117647%);fill-opacity:1;" d="M 9.675781 0.675781 L 12.375 0.675781 L 12.375 3.375 L 9.675781 3.375 Z M 9.675781 0.675781 "/>
<path style=" stroke:none;fill-rule:nonzero;fill:rgb(30.588236%,47.843137%,70.980394%);fill-opacity:1;" d="M 12.148438 0.898438 L 12.148438 3.148438 L 9.898438 3.148438 L 9.898438 0.898438 L 12.148438 0.898438 M 12.601562 0.449219 L 9.449219 0.449219 L 9.449219 3.601562 L 12.601562 3.601562 Z M 12.601562 0.449219 "/>
<path style=" stroke:none;fill-rule:nonzero;fill:rgb(54.509807%,71.764708%,94.117647%);fill-opacity:1;" d="M 9.675781 9.675781 L 12.375 9.675781 L 12.375 12.375 L 9.675781 12.375 Z M 9.675781 9.675781 "/>
<path style=" stroke:none;fill-rule:nonzero;fill:rgb(30.588236%,47.843137%,70.980394%);fill-opacity:1;" d="M 12.148438 9.898438 L 12.148438 12.148438 L 9.898438 12.148438 L 9.898438 9.898438 L 12.148438 9.898438 M 12.601562 9.449219 L 9.449219 9.449219 L 9.449219 12.601562 L 12.601562 12.601562 Z M 12.601562 9.449219 "/>
<path style=" stroke:none;fill-rule:nonzero;fill:rgb(54.509807%,71.764708%,94.117647%);fill-opacity:1;" d="M 0.675781 0.675781 L 3.375 0.675781 L 3.375 3.375 L 0.675781 3.375 Z M 0.675781 0.675781 "/>
<path style=" stroke:none;fill-rule:nonzero;fill:rgb(30.588236%,47.843137%,70.980394%);fill-opacity:1;" d="M 3.148438 0.898438 L 3.148438 3.148438 L 0.898438 3.148438 L 0.898438 0.898438 L 3.148438 0.898438 M 3.601562 0.449219 L 0.449219 0.449219 L 0.449219 3.601562 L 3.601562 3.601562 Z M 3.601562 0.449219 "/>
<path style=" stroke:none;fill-rule:nonzero;fill:rgb(54.509807%,71.764708%,94.117647%);fill-opacity:1;" d="M 0.675781 9.675781 L 3.375 9.675781 L 3.375 12.375 L 0.675781 12.375 Z M 0.675781 9.675781 "/>
<path style=" stroke:none;fill-rule:nonzero;fill:rgb(30.588236%,47.843137%,70.980394%);fill-opacity:1;" d="M 3.148438 9.898438 L 3.148438 12.148438 L 0.898438 12.148438 L 0.898438 9.898438 L 3.148438 9.898438 M 3.601562 9.449219 L 0.449219 9.449219 L 0.449219 12.601562 L 3.601562 12.601562 Z M 3.601562 9.449219 "/>
<path style=" stroke:none;fill-rule:nonzero;fill:rgb(40.000001%,47.450981%,56.078434%);fill-opacity:1;" d="M 10.800781 6.75 L 10.800781 7.199219 L 15.75 7.199219 L 15.75 15.75 L 7.199219 15.75 L 7.199219 10.800781 L 6.75 10.800781 L 6.75 16.199219 L 16.199219 16.199219 L 16.199219 6.75 Z M 10.800781 6.75 "/>
<path style=" stroke:none;fill-rule:nonzero;fill:rgb(54.509807%,71.764708%,94.117647%);fill-opacity:1;" d="M 14.625 14.625 L 17.324219 14.625 L 17.324219 17.324219 L 14.625 17.324219 Z M 14.625 14.625 "/>
<path style=" stroke:none;fill-rule:nonzero;fill:rgb(30.588236%,47.843137%,70.980394%);fill-opacity:1;" d="M 17.101562 14.851562 L 17.101562 17.101562 L 14.851562 17.101562 L 14.851562 14.851562 L 17.101562 14.851562 M 17.550781 14.398438 L 14.398438 14.398438 L 14.398438 17.550781 L 17.550781 17.550781 Z M 17.550781 14.398438 "/>
<path style=" stroke:none;fill-rule:nonzero;fill:rgb(54.509807%,71.764708%,94.117647%);fill-opacity:1;" d="M 5.625 14.625 L 8.324219 14.625 L 8.324219 17.324219 L 5.625 17.324219 Z M 5.625 14.625 "/>
<path style=" stroke:none;fill-rule:nonzero;fill:rgb(30.588236%,47.843137%,70.980394%);fill-opacity:1;" d="M 8.101562 14.851562 L 8.101562 17.101562 L 5.851562 17.101562 L 5.851562 14.851562 L 8.101562 14.851562 M 8.550781 14.398438 L 5.398438 14.398438 L 5.398438 17.550781 L 8.550781 17.550781 Z M 8.550781 14.398438 "/>
<path style=" stroke:none;fill-rule:nonzero;fill:rgb(54.509807%,71.764708%,94.117647%);fill-opacity:1;" d="M 14.625 5.625 L 17.324219 5.625 L 17.324219 8.324219 L 14.625 8.324219 Z M 14.625 5.625 "/>
<path style=" stroke:none;fill-rule:nonzero;fill:rgb(30.588236%,47.843137%,70.980394%);fill-opacity:1;" d="M 17.101562 5.851562 L 17.101562 8.101562 L 14.851562 8.101562 L 14.851562 5.851562 L 17.101562 5.851562 M 17.550781 5.398438 L 14.398438 5.398438 L 14.398438 8.550781 L 17.550781 8.550781 Z M 17.550781 5.398438 "/>
</g>
</svg>
