<?xml version="1.0" encoding="UTF-8" standalone="no"?>
<!DOCTYPE svg PUBLIC "-//W3C//DTD SVG 1.1//EN" "http://www.w3.org/Graphics/SVG/1.1/DTD/svg11.dtd">
<svg width="100%" height="100%" viewBox="0 0 18 18" version="1.1" xmlns="http://www.w3.org/2000/svg" xmlns:xlink="http://www.w3.org/1999/xlink" xml:space="preserve" xmlns:serif="http://www.serif.com/" style="fill-rule:evenodd;clip-rule:evenodd;stroke-linejoin:round;stroke-miterlimit:2;">
    <g id="surface4832">
        <g>
            <g transform="matrix(0.64,0,0,0.64,0,0)">
                <path d="M14.063,25.313C7.859,25.313 2.813,20.266 2.813,14.063C2.813,9.59 5.441,5.625 9.406,3.832L8.129,6.793C5.906,8.641 4.688,11.215 4.688,14.063C4.688,19.23 8.895,23.438 14.063,23.438C19.23,23.438 23.438,19.23 23.438,14.063C23.438,11.281 22.223,8.664 20.098,6.844L18.836,3.887C22.73,5.707 25.313,9.645 25.313,14.063C25.313,20.266 20.266,25.313 14.063,25.313Z" style="fill:rgb(194,232,254);fill-rule:nonzero;"/>
            </g>
            <g transform="matrix(0.64,0,0,0.64,0,0)">
                <path d="M24.375,14.063C24.375,19.75 19.75,24.375 14.063,24.375C8.375,24.375 3.75,19.75 3.75,14.063C3.75,19.75 8.375,24.375 14.063,24.375C19.75,24.375 24.375,19.75 24.375,14.063M11.109,2.25C5.809,3.574 1.875,8.352 1.875,14.063C1.875,20.793 7.332,26.25 14.063,26.25C20.793,26.25 26.25,20.793 26.25,14.063C26.25,8.391 22.371,3.641 17.129,2.281L19.324,7.418C21.227,8.965 22.5,11.316 22.5,14.063C22.5,18.723 18.723,22.5 14.063,22.5C9.402,22.5 5.625,18.723 5.625,14.063C5.625,11.211 6.953,8.922 8.898,7.375L11.109,2.25Z" style="fill:rgb(115,150,196);fill-rule:nonzero;"/>
            </g>
            <g transform="matrix(0.64,0,0,0.64,0,0)">
                <rect x="0" y="13.125" width="5.625" height="1.875" style="fill:rgb(139,183,239);fill-rule:nonzero;"/>
            </g>
            <g transform="matrix(0.64,0,0,0.64,0,0)">
                <path d="M5.625,13.125L0,13.125L0,15L5.625,15L5.625,13.125ZM15,22.5L13.125,22.5L13.125,28.125L15,28.125L15,22.5Z" style="fill:rgb(78,121,181);fill-rule:nonzero;"/>
            </g>
            <g transform="matrix(0.64,0,0,0.64,0,0)">
                <rect x="22.5" y="13.125" width="5.625" height="1.875" style="fill:rgb(139,183,239);fill-rule:nonzero;"/>
            </g>
            <g transform="matrix(0.64,0,0,0.64,0,0)">
                <rect x="22.5" y="13.125" width="5.625" height="1.875" style="fill:rgb(78,121,181);fill-rule:nonzero;"/>
            </g>
            <g transform="matrix(0.64,0,0,0.64,0,0)">
                <path d="M14.063,10.262L10.133,11.57L14.117,2.383L18.012,11.578L14.063,10.262Z" style="fill:rgb(246,143,143);fill-rule:nonzero;"/>
            </g>
            <g transform="matrix(0.64,0,0,0.64,0,0)">
                <path d="M14.109,4.762L16.34,10.031L14.656,9.469L14.063,9.273L13.469,9.469L11.828,10.02L14.109,4.762M14.129,0L8.438,13.125L14.063,11.25L19.688,13.125L14.129,0Z" style="fill:rgb(199,67,67);fill-rule:nonzero;"/>
            </g>
        </g>
    </g>
    <g id="surface1634">
    </g>
</svg>
