<?xml version="1.0" encoding="UTF-8"?>
<svg xmlns="http://www.w3.org/2000/svg" xmlns:xlink="http://www.w3.org/1999/xlink" width="60pt" height="60pt" viewBox="0 0 60 60" version="1.1">
<g id="surface419">
<path style=" stroke:none;fill-rule:nonzero;fill:rgb(54.509807%,71.764708%,94.117647%);fill-opacity:1;" d="M 2.5625 12.726562 L 12.722656 2.5625 L 57.441406 47.277344 L 47.277344 57.441406 Z M 2.5625 12.726562 "/>
<path style=" stroke:none;fill-rule:nonzero;fill:rgb(30.588236%,47.843137%,70.980394%);fill-opacity:1;" d="M 12.722656 3.621094 L 56.378906 47.277344 L 47.277344 56.378906 L 3.621094 12.722656 L 12.722656 3.621094 M 12.722656 1.5 L 1.5 12.722656 L 47.277344 58.5 L 58.5 47.277344 Z M 12.722656 1.5 "/>
<path style=" stroke:none;fill-rule:nonzero;fill:rgb(96.078432%,80.784315%,52.156866%);fill-opacity:1;" d="M 10.257812 42.675781 L 14.140625 38.792969 L 21.710938 45.386719 L 17.355469 49.742188 L 4.964844 55.035156 Z M 10.257812 42.675781 "/>
<path style=" stroke:none;fill-rule:nonzero;fill:rgb(58.823532%,47.843137%,26.666668%);fill-opacity:1;" d="M 14.175781 39.816406 L 20.613281 45.421875 L 16.925781 49.109375 L 6.386719 53.609375 L 10.890625 43.105469 L 14.175781 39.816406 M 14.105469 37.765625 L 9.625 42.25 L 3.535156 56.460938 L 17.785156 50.375 L 22.808594 45.347656 Z M 14.105469 37.765625 "/>
<path style=" stroke:none;fill-rule:nonzero;fill:rgb(21.176471%,25.098041%,30.19608%);fill-opacity:1;" d="M 6.992188 48.410156 L 3.539062 56.464844 L 11.617188 53.015625 Z M 6.992188 48.410156 "/>
<path style=" stroke:none;fill-rule:nonzero;fill:rgb(96.862745%,56.078434%,56.078434%);fill-opacity:1;" d="M 43.808594 9.109375 L 47.164062 5.753906 C 48.109375 4.808594 49.367188 4.285156 50.707031 4.285156 C 52.042969 4.285156 53.300781 4.804688 54.246094 5.753906 C 55.191406 6.699219 55.714844 7.957031 55.714844 9.292969 C 55.714844 10.632812 55.191406 11.890625 54.246094 12.835938 L 50.890625 16.191406 Z M 43.808594 9.109375 "/>
<path style=" stroke:none;fill-rule:nonzero;fill:rgb(78.039217%,26.274511%,26.274511%);fill-opacity:1;" d="M 50.707031 5.035156 C 51.84375 5.035156 52.914062 5.476562 53.714844 6.28125 C 55.378906 7.941406 55.378906 10.644531 53.714844 12.304688 L 50.890625 15.128906 L 44.871094 9.109375 L 47.695312 6.28125 C 48.5 5.476562 49.570312 5.035156 50.707031 5.035156 M 50.707031 3.535156 C 49.234375 3.535156 47.757812 4.097656 46.636719 5.222656 L 42.75 9.109375 L 50.890625 17.25 L 54.777344 13.363281 C 57.027344 11.117188 57.027344 7.46875 54.777344 5.222656 C 53.652344 4.097656 52.179688 3.535156 50.707031 3.535156 Z M 50.707031 3.535156 "/>
<path style=" stroke:none;fill-rule:nonzero;fill:rgb(100%,93.333334%,63.921571%);fill-opacity:1;" d="M 18.304688 48.796875 C 18.203125 48.566406 18.066406 48.332031 17.878906 48.113281 C 17.414062 47.570312 16.757812 47.238281 15.914062 47.121094 C 15.613281 45.222656 14.105469 44.417969 12.929688 44.175781 C 12.730469 42.878906 11.957031 42.160156 11.128906 41.800781 L 43.550781 9.363281 L 50.636719 16.441406 Z M 18.304688 48.796875 "/>
<path style=" stroke:none;fill-rule:nonzero;fill:rgb(72.941178%,60.784316%,28.235295%);fill-opacity:1;" d="M 43.550781 10.421875 L 49.574219 16.441406 L 18.429688 47.605469 C 18.066406 47.1875 17.472656 46.71875 16.539062 46.484375 C 16.078125 44.867188 14.804688 43.957031 13.5625 43.570312 C 13.335938 42.75 12.890625 42.117188 12.332031 41.660156 L 43.550781 10.421875 M 43.550781 8.300781 L 9.625 42.25 C 9.625 42.25 9.632812 42.25 9.65625 42.25 C 9.949219 42.25 12.226562 42.328125 12.226562 44.84375 C 12.226562 44.84375 15.21875 44.9375 15.21875 47.832031 C 18.191406 47.832031 17.78125 50.375 17.78125 50.375 L 51.691406 16.445312 Z M 43.550781 8.300781 "/>
<path style=" stroke:none;fill-rule:nonzero;fill:rgb(85.09804%,90.588236%,96.078432%);fill-opacity:1;" d="M 40.78125 12.136719 L 45.976562 6.941406 L 53.058594 14.023438 L 47.863281 19.21875 Z M 40.78125 12.136719 "/>
<path style=" stroke:none;fill-rule:nonzero;fill:rgb(47.058824%,54.509807%,61.176473%);fill-opacity:1;" d="M 45.976562 8.003906 L 51.996094 14.023438 L 47.863281 18.160156 L 41.839844 12.136719 L 45.976562 8.003906 M 45.976562 5.878906 L 39.71875 12.136719 L 47.863281 20.28125 L 54.121094 14.023438 Z M 45.976562 5.878906 "/>
<path style="fill:none;stroke-width:1;stroke-linecap:butt;stroke-linejoin:miter;stroke:rgb(30.588236%,47.843137%,70.980394%);stroke-opacity:1;stroke-miterlimit:10;" d="M 11.010417 4.559896 L 8.296875 7.276042 M 13.723958 7.276042 L 12.197917 8.802083 M 16.440104 9.989583 L 13.723958 12.703125 M 19.153646 12.703125 L 17.627604 14.229167 M 27.296875 20.846354 L 25.770833 22.372396 M 30.010417 23.559896 L 27.296875 26.276042 M 32.723958 26.276042 L 31.197917 27.802083 M 35.440104 28.989583 L 32.723958 31.703125 " transform="matrix(1.5,0,0,1.5,0,0)"/>
</g>
</svg>
