<?xml version="1.0" encoding="UTF-8"?>
<svg xmlns="http://www.w3.org/2000/svg" xmlns:xlink="http://www.w3.org/1999/xlink" width="18pt" height="18pt" viewBox="0 0 18 18" version="1.1">
<g id="surface9218">
<path style=" stroke:none;fill-rule:nonzero;fill:rgb(54.509807%,45.882353%,63.137257%);fill-opacity:1;" d="M 10.925781 1.351562 L 11.226562 2.25 L 6.773438 2.25 L 7.074219 1.351562 L 10.925781 1.351562 M 10.925781 0.898438 L 7.074219 0.898438 C 6.882812 0.898438 6.707031 1.023438 6.648438 1.207031 L 6.300781 2.25 L 6.300781 2.699219 L 11.699219 2.699219 L 11.699219 2.25 L 11.351562 1.207031 C 11.292969 1.023438 11.121094 0.898438 10.925781 0.898438 Z M 10.925781 0.898438 "/>
<path style=" stroke:none;fill-rule:nonzero;fill:rgb(86.274511%,83.529413%,94.901961%);fill-opacity:1;" d="M 3.601562 16.875 C 3.226562 16.875 2.925781 16.570312 2.925781 16.199219 L 2.925781 3.824219 L 15.074219 3.824219 L 15.074219 16.199219 C 15.074219 16.570312 14.773438 16.875 14.398438 16.875 Z M 3.601562 16.875 "/>
<path style=" stroke:none;fill-rule:nonzero;fill:rgb(54.509807%,45.882353%,63.137257%);fill-opacity:1;" d="M 14.851562 4.050781 L 14.851562 16.199219 C 14.851562 16.449219 14.648438 16.648438 14.398438 16.648438 L 3.601562 16.648438 C 3.351562 16.648438 3.148438 16.449219 3.148438 16.199219 L 3.148438 4.050781 L 14.851562 4.050781 M 15.300781 3.601562 L 2.699219 3.601562 L 2.699219 16.199219 C 2.699219 16.695312 3.101562 17.101562 3.601562 17.101562 L 14.398438 17.101562 C 14.898438 17.101562 15.300781 16.695312 15.300781 16.199219 Z M 15.300781 3.601562 "/>
<path style=" stroke:none;fill-rule:nonzero;fill:rgb(86.274511%,83.529413%,94.901961%);fill-opacity:1;" d="M 2.023438 3.824219 L 2.023438 3.148438 C 2.023438 2.777344 2.328125 2.476562 2.699219 2.476562 L 15.300781 2.476562 C 15.671875 2.476562 15.976562 2.777344 15.976562 3.148438 L 15.976562 3.824219 Z M 2.023438 3.824219 "/>
<path style=" stroke:none;fill-rule:nonzero;fill:rgb(54.509807%,45.882353%,63.137257%);fill-opacity:1;" d="M 15.300781 2.699219 C 15.546875 2.699219 15.75 2.902344 15.75 3.148438 L 15.75 3.601562 L 2.25 3.601562 L 2.25 3.148438 C 2.25 2.902344 2.453125 2.699219 2.699219 2.699219 L 15.300781 2.699219 M 15.300781 2.25 L 2.699219 2.25 C 2.203125 2.25 1.800781 2.652344 1.800781 3.148438 L 1.800781 4.050781 L 16.199219 4.050781 L 16.199219 3.148438 C 16.199219 2.652344 15.796875 2.25 15.300781 2.25 Z M 10.800781 4.949219 L 11.25 4.949219 L 11.25 15.75 L 10.800781 15.75 Z M 6.75 4.949219 L 7.199219 4.949219 L 7.199219 15.75 L 6.75 15.75 Z M 4.5 4.949219 L 4.949219 4.949219 L 4.949219 15.75 L 4.5 15.75 Z M 13.050781 4.949219 L 13.5 4.949219 L 13.5 15.75 L 13.050781 15.75 Z M 13.050781 4.949219 "/>
</g>
</svg>
