<?xml version="1.0" encoding="UTF-8"?>
<svg xmlns="http://www.w3.org/2000/svg" xmlns:xlink="http://www.w3.org/1999/xlink" width="18pt" height="18pt" viewBox="0 0 18 18" version="1.1">
<g id="surface9174">
<path style=" stroke:none;fill-rule:nonzero;fill:rgb(100%,100%,100%);fill-opacity:1;" d="M 0.675781 15.976562 L 0.675781 3.847656 L 17.324219 3.847656 L 17.324219 14.851562 C 17.324219 15.46875 16.820312 15.976562 16.199219 15.976562 Z M 0.675781 15.976562 "/>
<path style=" stroke:none;fill-rule:nonzero;fill:rgb(47.058824%,54.509807%,61.176473%);fill-opacity:1;" d="M 17.101562 4.074219 L 17.101562 14.851562 C 17.101562 15.347656 16.695312 15.75 16.199219 15.75 L 0.898438 15.75 L 0.898438 4.074219 L 17.101562 4.074219 M 17.550781 3.621094 L 0.449219 3.621094 L 0.449219 16.199219 L 16.199219 16.199219 C 16.945312 16.199219 17.550781 15.59375 17.550781 14.851562 Z M 17.550781 3.621094 "/>
<path style=" stroke:none;fill-rule:nonzero;fill:rgb(78.431374%,81.960785%,85.882354%);fill-opacity:1;" d="M 0.675781 3.824219 L 0.675781 2.925781 C 0.675781 2.429688 1.078125 2.023438 1.574219 2.023438 L 16.425781 2.023438 C 16.921875 2.023438 17.324219 2.429688 17.324219 2.925781 L 17.324219 3.824219 Z M 0.675781 3.824219 "/>
<path style=" stroke:none;fill-rule:nonzero;fill:rgb(40.000001%,47.450981%,56.078434%);fill-opacity:1;" d="M 16.425781 2.25 C 16.796875 2.25 17.101562 2.554688 17.101562 2.925781 L 17.101562 3.601562 L 0.898438 3.601562 L 0.898438 2.925781 C 0.898438 2.554688 1.203125 2.25 1.574219 2.25 L 16.425781 2.25 M 16.425781 1.800781 L 1.574219 1.800781 C 0.953125 1.800781 0.449219 2.304688 0.449219 2.925781 L 0.449219 4.050781 L 17.550781 4.050781 L 17.550781 2.925781 C 17.550781 2.304688 17.046875 1.800781 16.425781 1.800781 Z M 16.425781 1.800781 "/>
<path style="fill:none;stroke-width:1;stroke-linecap:butt;stroke-linejoin:miter;stroke:rgb(47.058824%,54.509807%,61.176473%);stroke-opacity:1;stroke-miterlimit:10;" d="M 6.996528 16.501736 L 10 16.501736 M 13.003472 16.501736 L 33.003472 16.501736 M 6.996528 20.503472 L 10 20.503472 M 13.003472 20.503472 L 33.003472 20.503472 M 6.996528 24.496528 L 10 24.496528 M 6.996528 28.498264 L 10 28.498264 " transform="matrix(0.45,0,0,0.45,0,0)"/>
<path style=" stroke:none;fill-rule:nonzero;fill:rgb(47.058824%,54.509807%,61.176473%);fill-opacity:1;" d="M 10.738281 10.800781 L 5.851562 10.800781 L 5.851562 11.25 L 10.355469 11.25 C 10.476562 11.09375 10.601562 10.941406 10.738281 10.800781 Z M 9.65625 12.601562 L 5.851562 12.601562 L 5.851562 13.050781 L 9.539062 13.050781 C 9.570312 12.898438 9.609375 12.746094 9.65625 12.601562 Z M 9.65625 12.601562 "/>
<path style=" stroke:none;fill-rule:nonzero;fill:rgb(83.92157%,89.019608%,92.941177%);fill-opacity:1;" d="M 9.425781 15.75 L 11.699219 15.75 L 11.699219 16.199219 L 9.6875 16.199219 Z M 17.101562 12.792969 L 17.550781 12.355469 L 17.550781 11.1875 L 17.101562 10.484375 Z M 17.101562 12.792969 "/>
<path style=" stroke:none;fill-rule:nonzero;fill:rgb(96.862745%,56.078434%,56.078434%);fill-opacity:1;" d="M 13.949219 17.773438 C 11.839844 17.773438 10.125 16.058594 10.125 13.949219 C 10.125 11.839844 11.839844 10.125 13.949219 10.125 C 16.058594 10.125 17.773438 11.839844 17.773438 13.949219 C 17.773438 16.058594 16.058594 17.773438 13.949219 17.773438 Z M 13.949219 17.773438 "/>
<path style=" stroke:none;fill-rule:nonzero;fill:rgb(78.039217%,26.274511%,26.274511%);fill-opacity:1;" d="M 13.949219 10.351562 C 15.933594 10.351562 17.550781 11.964844 17.550781 13.949219 C 17.550781 15.933594 15.933594 17.550781 13.949219 17.550781 C 11.964844 17.550781 10.351562 15.933594 10.351562 13.949219 C 10.351562 11.964844 11.964844 10.351562 13.949219 10.351562 M 13.949219 9.898438 C 11.714844 9.898438 9.898438 11.714844 9.898438 13.949219 C 9.898438 16.1875 11.714844 18 13.949219 18 C 16.1875 18 18 16.1875 18 13.949219 C 18 11.714844 16.1875 9.898438 13.949219 9.898438 Z M 13.949219 9.898438 "/>
<path style="fill:none;stroke-width:2;stroke-linecap:butt;stroke-linejoin:miter;stroke:rgb(100%,100%,100%);stroke-opacity:1;stroke-miterlimit:10;" d="M 27.5 34.496528 L 34.496528 27.5 M 27.5 27.5 L 34.496528 34.496528 " transform="matrix(0.45,0,0,0.45,0,0)"/>
</g>
</svg>
