<?xml version="1.0" encoding="UTF-8"?>
<svg xmlns="http://www.w3.org/2000/svg" xmlns:xlink="http://www.w3.org/1999/xlink" width="60pt" height="60pt" viewBox="0 0 60 60" version="1.1">
<g id="surface52">
<path style=" stroke:none;fill-rule:nonzero;fill:rgb(100%,100%,100%);fill-opacity:1;" d="M 1.875 54.375 L 1.875 5.625 L 58.125 5.625 L 58.125 43.125 C 58.125 49.5 53.25 54.375 46.875 54.375 Z M 1.875 54.375 "/>
<path style=" stroke:none;fill-rule:nonzero;fill:rgb(47.058824%,54.509807%,61.176473%);fill-opacity:1;" d="M 56.25 7.5 L 56.25 43.125 C 56.25 48.375 52.125 52.5 46.875 52.5 L 3.75 52.5 L 3.75 7.5 L 56.25 7.5 M 60 3.75 L 0 3.75 L 0 56.25 L 46.875 56.25 C 54 56.25 60 50.25 60 43.125 Z M 60 3.75 "/>
<path style=" stroke:none;fill-rule:nonzero;fill:rgb(47.058824%,54.509807%,61.176473%);fill-opacity:1;" d="M 0 3.75 L 60 3.75 L 60 11.25 L 0 11.25 Z M 0 3.75 "/>
<path style=" stroke:none;fill-rule:nonzero;fill:rgb(54.509807%,71.764708%,94.117647%);fill-opacity:1;" d="M 18.75 18.75 L 48.75 18.75 L 48.75 22.5 L 18.75 22.5 Z M 11.25 18.75 L 15 18.75 L 15 22.5 L 11.25 22.5 Z M 18.75 26.25 L 43.125 26.25 L 43.125 30 L 18.75 30 Z M 11.25 26.25 L 15 26.25 L 15 30 L 11.25 30 Z M 18.75 33.75 L 48.75 33.75 L 48.75 37.5 L 18.75 37.5 Z M 11.25 33.75 L 15 33.75 L 15 37.5 L 11.25 37.5 Z M 18.75 41.25 L 48.75 41.25 L 48.75 45 L 18.75 45 Z M 11.25 41.25 L 15 41.25 L 15 45 L 11.25 45 Z M 11.25 41.25 "/>
<path style=" stroke:none;fill-rule:nonzero;fill:rgb(78.431374%,81.960785%,85.882354%);fill-opacity:1;" d="M 60 43.125 L 60 25.5 C 58.875 24.375 57.75 23.25 56.25 22.5 L 56.25 52.5 L 20.625 52.5 C 21 54 21.75 55.125 22.5 56.25 L 53.625 56.25 C 57.375 53.25 60 48.375 60 43.125 Z M 60 43.125 "/>
<path style=" stroke:none;fill-rule:nonzero;fill:rgb(78.039217%,26.274511%,26.274511%);fill-opacity:1;" d="M 43.125 26.25 C 33.804688 26.25 26.25 33.804688 26.25 43.125 C 26.25 52.445312 33.804688 60 43.125 60 C 52.445312 60 60 52.445312 60 43.125 C 60 33.804688 52.445312 26.25 43.125 26.25 Z M 43.125 26.25 "/>
<path style=" stroke:none;fill-rule:nonzero;fill:rgb(100%,100%,100%);fill-opacity:1;" d="M 34.375 49.222656 L 49.488281 34.109375 L 52.140625 36.761719 L 37.027344 51.875 Z M 34.375 49.222656 "/>
<path style=" stroke:none;fill-rule:nonzero;fill:rgb(100%,100%,100%);fill-opacity:1;" d="M 34.375 37.027344 L 37.027344 34.375 L 52.140625 49.488281 L 49.488281 52.140625 Z M 34.375 37.027344 "/>
</g>
</svg>
