<?xml version="1.0" encoding="UTF-8"?>
<svg xmlns="http://www.w3.org/2000/svg" xmlns:xlink="http://www.w3.org/1999/xlink" width="18pt" height="18pt" viewBox="0 0 18 18" version="1.1">
<g id="surface1696">
<path style=" stroke:none;fill-rule:nonzero;fill:rgb(94.901961%,98.039216%,100%);fill-opacity:1;" d="M 6.523438 15.074219 L 6.523438 0.675781 L 13.855469 0.675781 L 17.324219 4.144531 L 17.324219 15.074219 Z M 6.523438 15.074219 "/>
<path style=" stroke:none;fill-rule:nonzero;fill:rgb(47.058824%,54.509807%,61.176473%);fill-opacity:1;" d="M 13.765625 0.898438 L 17.101562 4.234375 L 17.101562 14.851562 L 6.75 14.851562 L 6.75 0.898438 L 13.765625 0.898438 M 13.949219 0.449219 L 6.300781 0.449219 L 6.300781 15.300781 L 17.550781 15.300781 L 17.550781 4.050781 Z M 13.949219 0.449219 "/>
<path style=" stroke:none;fill-rule:nonzero;fill:rgb(100%,100%,100%);fill-opacity:1;" d="M 13.726562 4.273438 L 13.726562 0.675781 L 13.855469 0.675781 L 17.324219 4.144531 L 17.324219 4.273438 Z M 13.726562 4.273438 "/>
<path style=" stroke:none;fill-rule:nonzero;fill:rgb(47.058824%,54.509807%,61.176473%);fill-opacity:1;" d="M 13.949219 1.085938 L 16.914062 4.050781 L 13.949219 4.050781 L 13.949219 1.085938 M 13.949219 0.449219 L 13.5 0.449219 L 13.5 4.5 L 17.550781 4.5 L 17.550781 4.050781 Z M 13.949219 0.449219 "/>
<path style=" stroke:none;fill-rule:nonzero;fill:rgb(100%,100%,100%);fill-opacity:1;" d="M 0.675781 17.324219 L 0.675781 2.925781 L 8.007812 2.925781 L 11.476562 6.394531 L 11.476562 17.324219 Z M 0.675781 17.324219 "/>
<path style=" stroke:none;fill-rule:nonzero;fill:rgb(47.058824%,54.509807%,61.176473%);fill-opacity:1;" d="M 7.914062 3.148438 L 11.25 6.484375 L 11.25 17.101562 L 0.898438 17.101562 L 0.898438 3.148438 L 7.914062 3.148438 M 8.101562 2.699219 L 0.449219 2.699219 L 0.449219 17.550781 L 11.699219 17.550781 L 11.699219 6.300781 Z M 8.101562 2.699219 "/>
<path style=" stroke:none;fill-rule:nonzero;fill:rgb(100%,100%,100%);fill-opacity:1;" d="M 7.875 6.523438 L 7.875 2.925781 L 8.007812 2.925781 L 11.476562 6.394531 L 11.476562 6.523438 Z M 7.875 6.523438 "/>
<path style=" stroke:none;fill-rule:nonzero;fill:rgb(47.058824%,54.509807%,61.176473%);fill-opacity:1;" d="M 8.101562 3.335938 L 11.0625 6.300781 L 8.101562 6.300781 L 8.101562 3.335938 M 8.101562 2.699219 L 7.648438 2.699219 L 7.648438 6.75 L 11.699219 6.75 L 11.699219 6.300781 Z M 8.101562 2.699219 "/>
</g>
</svg>
