<?xml version="1.0" encoding="UTF-8"?>
<svg xmlns="http://www.w3.org/2000/svg" xmlns:xlink="http://www.w3.org/1999/xlink" width="60pt" height="60pt" viewBox="0 0 60 60" version="1.1">
<g id="surface25">
<path style=" stroke:none;fill-rule:nonzero;fill:rgb(94.901961%,98.039216%,100%);fill-opacity:1;" d="M 20.625 46.875 L 20.625 1.875 L 44.5 1.875 L 58.125 15.765625 L 58.125 46.875 Z M 20.625 46.875 "/>
<path style=" stroke:none;fill-rule:nonzero;fill:rgb(47.058824%,54.509807%,61.176473%);fill-opacity:1;" d="M 43.714844 3.75 L 56.25 16.535156 L 56.25 45 L 22.5 45 L 22.5 3.75 L 43.714844 3.75 M 45.289062 0 L 18.75 0 L 18.75 48.75 L 60 48.75 L 60 15 Z M 45.289062 0 "/>
<path style=" stroke:none;fill-rule:nonzero;fill:rgb(100%,100%,100%);fill-opacity:1;" d="M 43.125 16.875 L 43.125 1.875 L 44.371094 1.875 L 58.125 15.773438 L 58.125 16.875 Z M 43.125 16.875 "/>
<path style=" stroke:none;fill-rule:nonzero;fill:rgb(47.058824%,54.509807%,61.176473%);fill-opacity:1;" d="M 45 5.179688 L 54.722656 15 L 45 15 L 45 5.179688 M 45.148438 0 L 41.25 0 L 41.25 18.75 L 60 18.75 L 60 15 Z M 45.148438 0 "/>
<path style=" stroke:none;fill-rule:nonzero;fill:rgb(100%,100%,100%);fill-opacity:1;" d="M 1.875 58.125 L 1.875 13.125 L 25.75 13.125 L 39.375 27.015625 L 39.375 58.125 Z M 1.875 58.125 "/>
<path style=" stroke:none;fill-rule:nonzero;fill:rgb(47.058824%,54.509807%,61.176473%);fill-opacity:1;" d="M 24.964844 15 L 37.5 27.785156 L 37.5 56.25 L 3.75 56.25 L 3.75 15 L 24.964844 15 M 26.539062 11.25 L 0 11.25 L 0 60 L 41.25 60 L 41.25 26.25 Z M 26.539062 11.25 "/>
<path style=" stroke:none;fill-rule:nonzero;fill:rgb(100%,100%,100%);fill-opacity:1;" d="M 24.375 28.125 L 24.375 13.125 L 25.621094 13.125 L 39.375 27.023438 L 39.375 28.125 Z M 24.375 28.125 "/>
<path style=" stroke:none;fill-rule:nonzero;fill:rgb(47.058824%,54.509807%,61.176473%);fill-opacity:1;" d="M 26.25 16.429688 L 35.972656 26.25 L 26.25 26.25 L 26.25 16.429688 M 26.398438 11.25 L 22.5 11.25 L 22.5 30 L 41.25 30 L 41.25 26.25 Z M 26.398438 11.25 "/>
</g>
</svg>
