<?xml version="1.0" encoding="UTF-8"?>
<svg xmlns="http://www.w3.org/2000/svg" xmlns:xlink="http://www.w3.org/1999/xlink" width="60pt" height="60pt" viewBox="0 0 60 60" version="1.1">
<g id="surface35">
<path style=" stroke:none;fill-rule:nonzero;fill:rgb(100%,100%,100%);fill-opacity:1;" d="M 5.25 56.25 L 5.25 3.75 L 32.691406 3.75 L 45.75 16.808594 L 45.75 56.25 Z M 5.25 56.25 "/>
<path style=" stroke:none;fill-rule:nonzero;fill:rgb(47.058824%,54.509807%,61.176473%);fill-opacity:1;" d="M 32.378906 4.5 L 45 17.121094 L 45 55.5 L 6 55.5 L 6 4.5 L 32.378906 4.5 M 33 3 L 4.5 3 L 4.5 57 L 46.5 57 L 46.5 16.5 Z M 33 3 "/>
<path style=" stroke:none;fill-rule:nonzero;fill:rgb(100%,100%,100%);fill-opacity:1;" d="M 32.25 17.25 L 32.25 3.75 L 32.691406 3.75 L 45.75 16.808594 L 45.75 17.25 Z M 32.25 17.25 "/>
<path style=" stroke:none;fill-rule:nonzero;fill:rgb(47.058824%,54.509807%,61.176473%);fill-opacity:1;" d="M 33 5.121094 L 44.378906 16.5 L 33 16.5 L 33 5.121094 M 33 3 L 31.5 3 L 31.5 18 L 46.5 18 L 46.5 16.5 Z M 33 3 "/>
<path style=" stroke:none;fill-rule:nonzero;fill:rgb(72.941178%,87.843138%,74.117649%);fill-opacity:1;" d="M 10.5 13.5 L 16.5 13.5 L 16.5 12 L 10.5 12 Z M 21 12 L 21 13.5 L 30 13.5 L 30 12 Z M 10.5 16.5 L 16.5 16.5 L 16.5 15 L 10.5 15 Z M 21 15 L 21 16.5 L 30 16.5 L 30 15 Z M 10.5 19.5 L 16.5 19.5 L 16.5 18 L 10.5 18 Z M 34.5 18 L 34.5 19.5 L 40.5 19.5 L 40.5 18 Z M 21 19.5 L 30 19.5 L 30 18 L 21 18 Z M 10.5 45 L 16.5 45 L 16.5 43.5 L 10.5 43.5 Z M 34.5 43.5 L 34.5 45 L 40.5 45 L 40.5 43.5 Z M 21 45 L 30 45 L 30 43.5 L 21 43.5 Z M 10.5 48 L 16.5 48 L 16.5 46.5 L 10.5 46.5 Z M 34.5 46.5 L 34.5 48 L 40.5 48 L 40.5 46.5 Z M 21 48 L 30 48 L 30 46.5 L 21 46.5 Z M 10.5 51 L 16.5 51 L 16.5 49.5 L 10.5 49.5 Z M 34.5 49.5 L 34.5 51 L 40.5 51 L 40.5 49.5 Z M 21 51 L 30 51 L 30 49.5 L 21 49.5 Z M 21 51 "/>
<path style=" stroke:none;fill-rule:nonzero;fill:rgb(36.862746%,61.176473%,46.27451%);fill-opacity:1;" d="M 4.5 21 L 46.5 21 L 46.5 42 L 4.5 42 Z M 4.5 21 "/>
<path style=" stroke:none;fill-rule:nonzero;fill:rgb(72.941178%,87.843138%,74.117649%);fill-opacity:1;" d="M 42 31.5 L 46.5 31.5 L 46.5 42 L 42 42 Z M 42 31.5 "/>
<path style=" stroke:none;fill-rule:nonzero;fill:rgb(100%,100%,100%);fill-opacity:1;" d="M 17.644531 27.601562 L 17.644531 28.414062 L 14.941406 28.414062 L 14.941406 27.722656 C 14.941406 26.480469 13.789062 26.222656 13.273438 26.222656 C 12.605469 26.222656 11.609375 26.382812 11.609375 27.90625 L 11.609375 35.296875 C 11.609375 35.71875 11.625 36.78125 13.25 36.78125 C 14.78125 36.78125 14.941406 35.605469 14.941406 35.320312 L 14.941406 34.609375 L 17.640625 34.609375 L 17.640625 35.503906 C 17.640625 36.691406 16.445312 38.851562 13.355469 38.851562 C 12.839844 38.851562 8.910156 38.796875 8.910156 35.441406 L 8.910156 27.480469 C 8.910156 26 10.167969 24.152344 13.300781 24.152344 C 17.113281 24.148438 17.644531 26.796875 17.644531 27.601562 Z M 26.515625 24.148438 C 22.019531 24.148438 21.882812 27.566406 21.882812 28.109375 C 21.882812 30.917969 23.65625 31.460938 24.820312 31.824219 L 26.753906 32.433594 C 27.957031 32.859375 28.3125 32.9375 28.3125 34.625 C 28.3125 36.375 27.804688 36.777344 26.355469 36.777344 C 24.808594 36.777344 24.449219 35.921875 24.449219 35.292969 L 24.449219 34.644531 L 21.75 34.644531 L 21.75 35.417969 C 21.75 37.921875 24.605469 38.847656 26.355469 38.847656 C 29.980469 38.847656 31.011719 36.863281 31.011719 34.601562 C 31.011719 31.699219 29.75 31.167969 28.183594 30.644531 L 26.117188 30.015625 C 24.554688 29.539062 24.648438 29.003906 24.625 28.808594 C 24.597656 28.609375 24.582031 28.371094 24.582031 28.085938 C 24.582031 26.203125 26.039062 26.21875 26.410156 26.21875 C 28.085938 26.21875 28.3125 27.492188 28.3125 27.964844 L 28.3125 28.429688 L 31.011719 28.429688 L 31.011719 27.421875 C 31.011719 26.320312 29.824219 24.148438 26.515625 24.148438 Z M 40.507812 24.273438 L 38.335938 34.363281 L 38.28125 34.363281 L 36.140625 24.273438 L 33.285156 24.273438 L 37.117188 38.726562 L 39.5 38.726562 L 43.363281 24.273438 Z M 40.507812 24.273438 "/>
<path style=" stroke:none;fill-rule:nonzero;fill:rgb(83.92157%,89.019608%,92.941177%);fill-opacity:1;" d="M 45 34.5 L 45 55.5 L 41.410156 55.5 L 42.597656 57 L 46.5 57 L 46.5 34.5 Z M 45 34.5 "/>
<path style=" stroke:none;fill-rule:nonzero;fill:rgb(61.176473%,67.450982%,74.117649%);fill-opacity:1;" d="M 37.5625 45.75 L 44.25 45.75 L 44.25 33.75 L 51.75 33.75 L 51.75 45.75 L 58.4375 45.75 L 48 58.796875 Z M 37.5625 45.75 "/>
<path style=" stroke:none;fill-rule:nonzero;fill:rgb(21.176471%,25.098041%,30.19608%);fill-opacity:1;" d="M 51 34.5 L 51 46.5 L 56.878906 46.5 L 48 57.597656 L 39.121094 46.5 L 45 46.5 L 45 34.5 L 51 34.5 M 52.5 33 L 43.5 33 L 43.5 45 L 36 45 L 48 60 L 60 45 L 52.5 45 Z M 52.5 33 "/>
</g>
</svg>
