<?xml version="1.0" encoding="UTF-8"?>
<svg xmlns="http://www.w3.org/2000/svg" xmlns:xlink="http://www.w3.org/1999/xlink" width="60pt" height="60pt" viewBox="0 0 60 60" version="1.1">
<g id="surface64">
<path style=" stroke:none;fill-rule:nonzero;fill:rgb(94.901961%,98.039216%,100%);fill-opacity:1;" d="M 30 57.75 C 14.699219 57.75 2.25 45.300781 2.25 30 C 2.25 14.699219 14.699219 2.25 30 2.25 C 45.300781 2.25 57.75 14.699219 57.75 30 C 57.75 45.300781 45.300781 57.75 30 57.75 Z M 30 57.75 "/>
<path style=" stroke:none;fill-rule:nonzero;fill:rgb(47.058824%,54.509807%,61.176473%);fill-opacity:1;" d="M 30 3 C 44.886719 3 57 15.113281 57 30 C 57 44.886719 44.886719 57 30 57 C 15.113281 57 3 44.886719 3 30 C 3 15.113281 15.113281 3 30 3 M 30 1.5 C 14.261719 1.5 1.5 14.261719 1.5 30 C 1.5 45.738281 14.261719 58.5 30 58.5 C 45.738281 58.5 58.5 45.738281 58.5 30 C 58.5 14.261719 45.738281 1.5 30 1.5 Z M 30 1.5 "/>
<path style=" stroke:none;fill-rule:nonzero;fill:rgb(94.901961%,98.039216%,100%);fill-opacity:1;" d="M 30 54.75 C 16.351562 54.75 5.25 43.648438 5.25 30 C 5.25 16.351562 16.351562 5.25 30 5.25 C 43.648438 5.25 54.75 16.351562 54.75 30 C 54.75 43.648438 43.648438 54.75 30 54.75 Z M 30 54.75 "/>
<path style=" stroke:none;fill-rule:nonzero;fill:rgb(47.058824%,54.509807%,61.176473%);fill-opacity:1;" d="M 30 6 C 43.234375 6 54 16.765625 54 30 C 54 43.234375 43.234375 54 30 54 C 16.765625 54 6 43.234375 6 30 C 6 16.765625 16.765625 6 30 6 M 30 4.5 C 15.917969 4.5 4.5 15.917969 4.5 30 C 4.5 44.082031 15.917969 55.5 30 55.5 C 44.082031 55.5 55.5 44.082031 55.5 30 C 55.5 15.917969 44.082031 4.5 30 4.5 Z M 30 4.5 "/>
<path style="fill:none;stroke-width:1;stroke-linecap:butt;stroke-linejoin:miter;stroke:rgb(30.588236%,47.843137%,70.980394%);stroke-opacity:1;stroke-miterlimit:10;" d="M 20 20 L 11.5 11.5 " transform="matrix(1.5,0,0,1.5,0,0)"/>
<path style=" stroke:none;fill-rule:nonzero;fill:rgb(54.509807%,71.764708%,94.117647%);fill-opacity:1;" d="M 30 27.75 C 28.757812 27.75 27.75 28.757812 27.75 30 C 27.75 31.242188 28.757812 32.25 30 32.25 C 31.242188 32.25 32.25 31.242188 32.25 30 C 32.25 28.757812 31.242188 27.75 30 27.75 Z M 30 27.75 "/>
<path style=" stroke:none;fill-rule:nonzero;fill:rgb(30.588236%,47.843137%,70.980394%);fill-opacity:1;" d="M 30 28.5 C 30.828125 28.5 31.5 29.171875 31.5 30 C 31.5 30.828125 30.828125 31.5 30 31.5 C 29.171875 31.5 28.5 30.828125 28.5 30 C 28.5 29.171875 29.171875 28.5 30 28.5 M 30 27 C 28.34375 27 27 28.34375 27 30 C 27 31.65625 28.34375 33 30 33 C 31.65625 33 33 31.65625 33 30 C 33 28.34375 31.65625 27 30 27 Z M 30 27 "/>
<path style="fill:none;stroke-width:1;stroke-linecap:butt;stroke-linejoin:miter;stroke:rgb(47.058824%,54.509807%,61.176473%);stroke-opacity:1;stroke-miterlimit:10;" d="M 17.304688 6.372396 L 16.776042 3.789062 M 33.604167 17.294271 L 36.210938 16.776042 M 6.382812 22.708333 L 3.789062 23.223958 M 27.703125 8.46875 L 29.182292 6.257812 M 31.520833 27.697917 L 33.742188 29.182292 M 8.458333 12.289062 L 6.257812 10.817708 M 12.289062 8.460938 L 10.817708 6.257812 M 31.53125 12.294271 L 33.742188 10.817708 M 8.46875 27.705729 L 6.257812 29.182292 M 22.690104 6.398438 L 23.223958 3.789062 M 33.601562 22.705729 L 36.210938 23.223958 M 6.395833 17.294271 L 3.789062 16.776042 " transform="matrix(1.5,0,0,1.5,0,0)"/>
</g>
</svg>
