<?xml version="1.0" encoding="UTF-8" standalone="no"?>
<!DOCTYPE svg PUBLIC "-//W3C//DTD SVG 1.1//EN" "http://www.w3.org/Graphics/SVG/1.1/DTD/svg11.dtd">
<svg width="100%" height="100%" viewBox="0 0 60 60" version="1.1" xmlns="http://www.w3.org/2000/svg" xmlns:xlink="http://www.w3.org/1999/xlink" xml:space="preserve" xmlns:serif="http://www.serif.com/" style="fill-rule:evenodd;clip-rule:evenodd;stroke-miterlimit:10;">
    <g id="surface820">
        <g transform="matrix(1.23896,0,0,1.29716,0.65259,0.507097)">
            <path d="M28.987,37.5C25.5,37.5 23.5,35.005 23.5,30.651C23.5,27.539 24.107,23.909 24.813,19.706C25.383,16.305 26.031,12.448 26.497,8.052L26.557,7.5L17.544,7.5L17.503,7.953C17.201,11.172 16.956,14.081 16.732,16.708C15.411,32.26 14.969,37.5 9.487,37.5C7.497,37.5 5.487,36.263 5.487,33.5C5.487,31.805 6.344,31.018 7.271,30.419C10.107,28.591 13.182,24.505 14.497,8.039L14.542,7.5L11,7.5C8.109,7.5 5.432,9.417 3.646,12.76C3.331,13.393 3.151,13.5 2.888,13.5C2.81,13.5 2.5,13.419 2.5,13.25C2.5,9.5 6.448,2.5 14,2.5L37.5,2.5L37.5,7.5L29.576,7.5L29.508,7.919C27.378,20.828 27.453,28.732 29.732,31.417C30.341,32.135 31.102,32.5 31.99,32.5C35.414,32.5 37.292,29.573 37.484,26.521C37.318,35.578 32.794,37.5 28.987,37.5Z" style="fill:rgb(139,183,239);fill-rule:nonzero;stroke:rgb(78,121,181);stroke-width:1px;"/>
        </g>
        <path d="M46.5,59.25C39.469,59.25 33.75,53.531 33.75,46.5C33.75,39.469 39.469,33.75 46.5,33.75C53.531,33.75 59.25,39.469 59.25,46.5C59.25,53.531 53.531,59.25 46.5,59.25Z" style="fill:rgb(186,224,189);fill-rule:nonzero;"/>
        <path d="M46.5,34.5C53.117,34.5 58.5,39.883 58.5,46.5C58.5,53.117 53.117,58.5 46.5,58.5C39.883,58.5 34.5,53.117 34.5,46.5C34.5,39.883 39.883,34.5 46.5,34.5M46.5,33C39.043,33 33,39.043 33,46.5C33,53.957 39.043,60 46.5,60C53.957,60 60,53.957 60,46.5C60,39.043 53.957,33 46.5,33Z" style="fill:rgb(94,156,118);fill-rule:nonzero;"/>
        <g transform="matrix(1.5,0,0,1.5,0,0)">
            <path d="M31,36L31,26M26,31L36,31" style="fill:none;fill-rule:nonzero;stroke:rgb(254,254,254);stroke-width:2px;"/>
        </g>
    </g>
</svg>
