<?xml version="1.0" encoding="UTF-8"?>
<svg xmlns="http://www.w3.org/2000/svg" xmlns:xlink="http://www.w3.org/1999/xlink" width="18pt" height="18pt" viewBox="0 0 18 18" version="1.1">
<g id="surface1957">
<path style=" stroke:none;fill-rule:nonzero;fill:rgb(100%,93.333334%,63.921571%);fill-opacity:1;" d="M 10.574219 10.574219 L 11.476562 10.574219 L 11.476562 17.324219 L 10.574219 17.324219 Z M 10.574219 10.574219 "/>
<path style=" stroke:none;fill-rule:nonzero;fill:rgb(96.078432%,76.078433%,46.27451%);fill-opacity:1;" d="M 11.25 10.800781 L 11.25 17.101562 L 10.800781 17.101562 L 10.800781 10.800781 L 11.25 10.800781 M 11.699219 10.351562 L 10.351562 10.351562 L 10.351562 17.550781 L 11.699219 17.550781 Z M 11.699219 10.351562 "/>
<path style=" stroke:none;fill-rule:nonzero;fill:rgb(100%,93.333334%,63.921571%);fill-opacity:1;" d="M 6.523438 10.574219 L 7.425781 10.574219 L 7.425781 17.324219 L 6.523438 17.324219 Z M 6.523438 10.574219 "/>
<path style=" stroke:none;fill-rule:nonzero;fill:rgb(96.078432%,76.078433%,46.27451%);fill-opacity:1;" d="M 7.199219 10.800781 L 7.199219 17.101562 L 6.75 17.101562 L 6.75 10.800781 L 7.199219 10.800781 M 7.648438 10.351562 L 6.300781 10.351562 L 6.300781 17.550781 L 7.648438 17.550781 Z M 7.648438 10.351562 "/>
<path style=" stroke:none;fill-rule:nonzero;fill:rgb(96.862745%,56.078434%,56.078434%);fill-opacity:1;" d="M 5.625 9.226562 L 5.625 4.050781 C 5.625 2.1875 7.140625 0.675781 9 0.675781 C 10.859375 0.675781 12.375 2.1875 12.375 4.050781 L 12.375 9.226562 Z M 5.625 9.226562 "/>
<path style=" stroke:none;fill-rule:nonzero;fill:rgb(67.058825%,20.392157%,20.392157%);fill-opacity:1;" d="M 9 0.898438 C 10.738281 0.898438 12.148438 2.3125 12.148438 4.050781 L 12.148438 9 L 5.851562 9 L 5.851562 4.050781 C 5.851562 2.3125 7.261719 0.898438 9 0.898438 M 9 0.449219 C 7.019531 0.449219 5.398438 2.070312 5.398438 4.050781 L 5.398438 9.449219 L 12.601562 9.449219 L 12.601562 4.050781 C 12.601562 2.070312 10.980469 0.449219 9 0.449219 Z M 9 0.449219 "/>
<path style=" stroke:none;fill-rule:nonzero;fill:rgb(96.862745%,56.078434%,56.078434%);fill-opacity:1;" d="M 4.726562 9.226562 L 13.273438 9.226562 L 13.273438 10.574219 L 4.726562 10.574219 Z M 4.726562 9.226562 "/>
<path style=" stroke:none;fill-rule:nonzero;fill:rgb(67.058825%,20.392157%,20.392157%);fill-opacity:1;" d="M 13.050781 9.449219 L 13.050781 10.351562 L 4.949219 10.351562 L 4.949219 9.449219 L 13.050781 9.449219 M 13.5 9 L 4.5 9 L 4.5 10.800781 L 13.5 10.800781 Z M 13.5 9 "/>
<path style=" stroke:none;fill-rule:nonzero;fill:rgb(96.862745%,32.156864%,32.156864%);fill-opacity:1;" d="M 6.300781 9.449219 L 7.648438 9.449219 L 7.648438 10.351562 L 6.300781 10.351562 Z M 10.351562 9.449219 L 11.699219 9.449219 L 11.699219 10.351562 L 10.351562 10.351562 Z M 7.648438 9 L 6.300781 9 L 6.300781 7.167969 C 6.300781 7.167969 6.242188 5.398438 8.101562 5.398438 L 8.101562 6.75 C 7.617188 6.75 7.648438 7.179688 7.648438 7.179688 Z M 10.351562 9 L 11.699219 9 L 11.699219 7.167969 C 11.699219 7.167969 11.757812 5.398438 9.898438 5.398438 L 9.898438 6.75 C 10.382812 6.75 10.351562 7.179688 10.351562 7.179688 Z M 10.351562 9 "/>
<path style=" stroke:none;fill-rule:nonzero;fill:rgb(100%,100%,100%);fill-opacity:1;" d="M 9 4.5 C 8.253906 4.5 7.648438 5.105469 7.648438 5.851562 C 7.648438 6.59375 8.253906 7.199219 9 7.199219 C 9.746094 7.199219 10.351562 6.59375 10.351562 5.851562 C 10.351562 5.105469 9.746094 4.5 9 4.5 Z M 9 4.5 "/>
</g>
</svg>
