<?xml version="1.0" encoding="UTF-8"?>
<svg xmlns="http://www.w3.org/2000/svg" xmlns:xlink="http://www.w3.org/1999/xlink" width="60pt" height="60pt" viewBox="0 0 60 60" version="1.1">
<g id="surface631">
<path style=" stroke:none;fill-rule:nonzero;fill:rgb(54.509807%,71.764708%,94.117647%);fill-opacity:1;" d="M 16.5 45.75 C 7.816406 45.75 0.75 38.683594 0.75 30 C 0.75 21.316406 7.816406 14.25 16.5 14.25 L 43.5 14.25 C 52.183594 14.25 59.25 21.316406 59.25 30 C 59.25 38.683594 52.183594 45.75 43.5 45.75 Z M 16.5 45.75 "/>
<path style=" stroke:none;fill-rule:nonzero;fill:rgb(30.588236%,47.843137%,70.980394%);fill-opacity:1;" d="M 43.5 15 C 51.769531 15 58.5 21.730469 58.5 30 C 58.5 38.269531 51.769531 45 43.5 45 L 16.5 45 C 8.230469 45 1.5 38.269531 1.5 30 C 1.5 21.730469 8.230469 15 16.5 15 L 43.5 15 M 43.5 13.5 L 16.5 13.5 C 7.386719 13.5 0 20.886719 0 30 C 0 39.113281 7.386719 46.5 16.5 46.5 L 43.5 46.5 C 52.613281 46.5 60 39.113281 60 30 C 60 20.886719 52.613281 13.5 43.5 13.5 Z M 43.5 13.5 "/>
<path style=" stroke:none;fill-rule:nonzero;fill:rgb(100%,100%,100%);fill-opacity:1;" d="M 43.5 42 C 50.128906 42 55.5 36.628906 55.5 30 C 55.5 23.371094 50.128906 18 43.5 18 C 36.871094 18 31.5 23.371094 31.5 30 C 31.5 36.628906 36.871094 42 43.5 42 Z M 43.5 42 "/>
</g>
</svg>
