<?xml version="1.0" encoding="UTF-8"?>
<svg xmlns="http://www.w3.org/2000/svg" xmlns:xlink="http://www.w3.org/1999/xlink" width="60pt" height="60pt" viewBox="0 0 60 60" version="1.1">
<g id="surface950">
<path style=" stroke:none;fill-rule:nonzero;fill:rgb(76.078433%,90.980393%,100%);fill-opacity:1;" d="M 56.589844 30 C 56.589844 44.683594 44.683594 56.589844 30 56.589844 C 15.316406 56.589844 3.410156 44.683594 3.410156 30 C 3.410156 15.316406 15.316406 3.410156 30 3.410156 C 44.683594 3.410156 56.589844 15.316406 56.589844 30 Z M 56.589844 30 "/>
<path style=" stroke:none;fill-rule:nonzero;fill:rgb(96.078432%,80.784315%,52.156866%);fill-opacity:1;" d="M 14.050781 50.851562 L 17.703125 45.484375 C 16.007812 43.839844 13.386719 40.96875 12.476562 38.75 L 6.664062 42.03125 C 8.183594 45.402344 11.261719 48.496094 14.050781 50.851562 Z M 14.050781 50.851562 "/>
<path style=" stroke:none;fill-rule:nonzero;fill:rgb(96.078432%,80.784315%,52.156866%);fill-opacity:1;" d="M 6.480469 41.285156 L 12.183594 38.179688 C 11.425781 35.941406 10.40625 32.191406 10.613281 29.800781 L 3.941406 30.066406 C 3.75 33.757812 5.074219 37.914062 6.480469 41.285156 Z M 6.480469 41.285156 "/>
<path style=" stroke:none;fill-rule:nonzero;fill:rgb(30.588236%,47.843137%,70.980394%);fill-opacity:1;" d="M 30 57 C 15.113281 57 3 44.886719 3 30 C 3 15.113281 15.113281 3 30 3 C 44.886719 3 57 15.113281 57 30 C 57 44.886719 44.886719 57 30 57 Z M 30 4.5 C 15.9375 4.5 4.5 15.9375 4.5 30 C 4.5 44.0625 15.9375 55.5 30 55.5 C 44.0625 55.5 55.5 44.0625 55.5 30 C 55.5 15.9375 44.0625 4.5 30 4.5 Z M 30 4.5 "/>
<path style=" stroke:none;fill-rule:nonzero;fill:rgb(88.235295%,92.156863%,94.901961%);fill-opacity:1;" d="M 49.5 30 C 49.5 40.769531 40.769531 49.5 30 49.5 C 19.230469 49.5 10.5 40.769531 10.5 30 C 10.5 19.230469 19.230469 10.5 30 10.5 C 40.769531 10.5 49.5 19.230469 49.5 30 Z M 49.5 30 "/>
<path style=" stroke:none;fill-rule:nonzero;fill:rgb(30.588236%,47.843137%,70.980394%);fill-opacity:1;" d="M 30 50.25 C 18.835938 50.25 9.75 41.164062 9.75 30 C 9.75 18.835938 18.835938 9.75 30 9.75 C 41.164062 9.75 50.25 18.835938 50.25 30 C 50.25 41.164062 41.164062 50.25 30 50.25 Z M 30 11.25 C 19.660156 11.25 11.25 19.660156 11.25 30 C 11.25 40.339844 19.660156 48.75 30 48.75 C 40.339844 48.75 48.75 40.339844 48.75 30 C 48.75 19.660156 40.339844 11.25 30 11.25 Z M 30 11.25 "/>
<path style=" stroke:none;fill-rule:nonzero;fill:rgb(30.588236%,47.843137%,70.980394%);fill-opacity:1;" d="M 3.75 28.5 L 10.5 28.5 L 10.5 30 L 3.75 30 Z M 3.75 28.5 "/>
<path style=" stroke:none;fill-rule:nonzero;fill:rgb(30.588236%,47.843137%,70.980394%);fill-opacity:1;" d="M 6.0625 40.871094 L 12.125 37.683594 L 12.824219 39.011719 L 6.757812 42.199219 Z M 6.0625 40.871094 "/>
<path style=" stroke:none;fill-rule:nonzero;fill:rgb(30.588236%,47.843137%,70.980394%);fill-opacity:1;" d="M 13.851562 50.75 L 17.699219 45.1875 L 18.933594 46.039062 L 15.085938 51.601562 Z M 13.851562 50.75 "/>
<path style=" stroke:none;fill-rule:nonzero;fill:rgb(30.588236%,47.843137%,70.980394%);fill-opacity:1;" d="M 48.652344 48.53125 L 46.40625 46.539062 L 47.40625 45.417969 L 49.648438 47.40625 Z M 48.652344 48.53125 "/>
<path style=" stroke:none;fill-rule:nonzero;fill:rgb(30.588236%,47.843137%,70.980394%);fill-opacity:1;" d="M 52.214844 37.019531 L 52.574219 35.5625 L 55.484375 36.28125 L 55.128906 37.738281 Z M 52.214844 37.019531 "/>
<path style=" stroke:none;fill-rule:nonzero;fill:rgb(30.588236%,47.843137%,70.980394%);fill-opacity:1;" d="M 52.574219 24.433594 L 55.488281 23.71875 L 55.84375 25.175781 L 52.933594 25.890625 Z M 52.574219 24.433594 "/>
<path style=" stroke:none;fill-rule:nonzero;fill:rgb(30.588236%,47.843137%,70.980394%);fill-opacity:1;" d="M 48.398438 15.703125 L 47.402344 14.582031 L 49.648438 12.59375 L 50.644531 13.714844 Z M 48.398438 15.703125 "/>
<path style=" stroke:none;fill-rule:nonzero;fill:rgb(30.588236%,47.843137%,70.980394%);fill-opacity:1;" d="M 38.242188 8.261719 L 39.308594 5.457031 L 40.710938 5.988281 L 39.648438 8.792969 Z M 38.242188 8.261719 "/>
<path style=" stroke:none;fill-rule:nonzero;fill:rgb(30.588236%,47.843137%,70.980394%);fill-opacity:1;" d="M 26.835938 3.941406 L 28.324219 3.761719 L 28.6875 6.738281 L 27.199219 6.917969 Z M 26.835938 3.941406 "/>
<path style=" stroke:none;fill-rule:nonzero;fill:rgb(30.588236%,47.843137%,70.980394%);fill-opacity:1;" d="M 15.089844 8.398438 L 16.324219 7.542969 L 18.027344 10.015625 L 16.792969 10.867188 Z M 15.089844 8.398438 "/>
<path style=" stroke:none;fill-rule:nonzero;fill:rgb(30.588236%,47.843137%,70.980394%);fill-opacity:1;" d="M 6.757812 17.800781 L 7.453125 16.472656 L 10.109375 17.867188 L 9.414062 19.195312 Z M 6.757812 17.800781 "/>
<path style=" stroke:none;fill-rule:nonzero;fill:rgb(76.078433%,90.980393%,100%);fill-opacity:1;" d="M 21.75 32.25 C 21.75 33.90625 20.40625 35.25 18.75 35.25 C 17.09375 35.25 15.75 33.90625 15.75 32.25 C 15.75 30.59375 17.09375 29.25 18.75 29.25 C 20.40625 29.25 21.75 30.59375 21.75 32.25 Z M 21.75 32.25 "/>
<path style=" stroke:none;fill-rule:nonzero;fill:rgb(30.588236%,47.843137%,70.980394%);fill-opacity:1;" d="M 18.75 36 C 16.679688 36 15 34.320312 15 32.25 C 15 30.179688 16.679688 28.5 18.75 28.5 C 20.820312 28.5 22.5 30.179688 22.5 32.25 C 22.5 34.320312 20.820312 36 18.75 36 Z M 18.75 30 C 17.507812 30 16.5 31.007812 16.5 32.25 C 16.5 33.492188 17.507812 34.5 18.75 34.5 C 19.992188 34.5 21 33.492188 21 32.25 C 21 31.007812 19.992188 30 18.75 30 Z M 18.75 30 "/>
</g>
</svg>
