<?xml version="1.0" encoding="UTF-8"?>
<svg xmlns="http://www.w3.org/2000/svg" xmlns:xlink="http://www.w3.org/1999/xlink" width="60pt" height="60pt" viewBox="0 0 60 60" version="1.1">
<g id="surface62">
<path style="fill:none;stroke-width:1;stroke-linecap:round;stroke-linejoin:miter;stroke:rgb(36.862746%,61.176473%,46.27451%);stroke-opacity:1;stroke-miterlimit:10;" d="M 1 38.5 L 7.5 38.5 L 38.5 1.5 " transform="matrix(1.5,0,0,1.5,0,0)"/>
<path style=" stroke:none;fill-rule:nonzero;fill:rgb(21.176471%,25.098041%,30.19608%);fill-opacity:1;" d="M 2.25 29.25 C 1.835938 29.25 1.5 29.585938 1.5 30 C 1.5 30.414062 1.835938 30.75 2.25 30.75 C 2.664062 30.75 3 30.414062 3 30 C 3 29.585938 2.664062 29.25 2.25 29.25 Z M 5.25 29.25 C 4.835938 29.25 4.5 29.585938 4.5 30 C 4.5 30.414062 4.835938 30.75 5.25 30.75 C 5.664062 30.75 6 30.414062 6 30 C 6 29.585938 5.664062 29.25 5.25 29.25 Z M 8.25 29.25 C 7.835938 29.25 7.5 29.585938 7.5 30 C 7.5 30.414062 7.835938 30.75 8.25 30.75 C 8.664062 30.75 9 30.414062 9 30 C 9 29.585938 8.664062 29.25 8.25 29.25 Z M 11.25 29.25 C 10.835938 29.25 10.5 29.585938 10.5 30 C 10.5 30.414062 10.835938 30.75 11.25 30.75 C 11.664062 30.75 12 30.414062 12 30 C 12 29.585938 11.664062 29.25 11.25 29.25 Z M 14.25 29.25 C 13.835938 29.25 13.5 29.585938 13.5 30 C 13.5 30.414062 13.835938 30.75 14.25 30.75 C 14.664062 30.75 15 30.414062 15 30 C 15 29.585938 14.664062 29.25 14.25 29.25 Z M 44.25 29.25 C 43.835938 29.25 43.5 29.585938 43.5 30 C 43.5 30.414062 43.835938 30.75 44.25 30.75 C 44.664062 30.75 45 30.414062 45 30 C 45 29.585938 44.664062 29.25 44.25 29.25 Z M 47.25 29.25 C 46.835938 29.25 46.5 29.585938 46.5 30 C 46.5 30.414062 46.835938 30.75 47.25 30.75 C 47.664062 30.75 48 30.414062 48 30 C 48 29.585938 47.664062 29.25 47.25 29.25 Z M 50.25 29.25 C 49.835938 29.25 49.5 29.585938 49.5 30 C 49.5 30.414062 49.835938 30.75 50.25 30.75 C 50.664062 30.75 51 30.414062 51 30 C 51 29.585938 50.664062 29.25 50.25 29.25 Z M 53.25 29.25 C 52.835938 29.25 52.5 29.585938 52.5 30 C 52.5 30.414062 52.835938 30.75 53.25 30.75 C 53.664062 30.75 54 30.414062 54 30 C 54 29.585938 53.664062 29.25 53.25 29.25 Z M 56.25 29.25 C 55.835938 29.25 55.5 29.585938 55.5 30 C 55.5 30.414062 55.835938 30.75 56.25 30.75 C 56.664062 30.75 57 30.414062 57 30 C 57 29.585938 56.664062 29.25 56.25 29.25 Z M 59.25 29.25 C 58.835938 29.25 58.5 29.585938 58.5 30 C 58.5 30.414062 58.835938 30.75 59.25 30.75 C 59.664062 30.75 60 30.414062 60 30 C 60 29.585938 59.664062 29.25 59.25 29.25 Z M 17.25 29.25 C 16.835938 29.25 16.5 29.585938 16.5 30 C 16.5 30.414062 16.835938 30.75 17.25 30.75 C 17.664062 30.75 18 30.414062 18 30 C 18 29.585938 17.664062 29.25 17.25 29.25 Z M 20.25 29.25 C 19.835938 29.25 19.5 29.585938 19.5 30 C 19.5 30.414062 19.835938 30.75 20.25 30.75 C 20.664062 30.75 21 30.414062 21 30 C 21 29.585938 20.664062 29.25 20.25 29.25 Z M 23.25 29.25 C 22.835938 29.25 22.5 29.585938 22.5 30 C 22.5 30.414062 22.835938 30.75 23.25 30.75 C 23.664062 30.75 24 30.414062 24 30 C 24 29.585938 23.664062 29.25 23.25 29.25 Z M 26.25 29.25 C 25.835938 29.25 25.5 29.585938 25.5 30 C 25.5 30.414062 25.835938 30.75 26.25 30.75 C 26.664062 30.75 27 30.414062 27 30 C 27 29.585938 26.664062 29.25 26.25 29.25 Z M 29.25 29.25 C 28.835938 29.25 28.5 29.585938 28.5 30 C 28.5 30.414062 28.835938 30.75 29.25 30.75 C 29.664062 30.75 30 30.414062 30 30 C 30 29.585938 29.664062 29.25 29.25 29.25 Z M 32.25 29.25 C 31.835938 29.25 31.5 29.585938 31.5 30 C 31.5 30.414062 31.835938 30.75 32.25 30.75 C 32.664062 30.75 33 30.414062 33 30 C 33 29.585938 32.664062 29.25 32.25 29.25 Z M 35.25 29.25 C 34.835938 29.25 34.5 29.585938 34.5 30 C 34.5 30.414062 34.835938 30.75 35.25 30.75 C 35.664062 30.75 36 30.414062 36 30 C 36 29.585938 35.664062 29.25 35.25 29.25 Z M 38.25 29.25 C 37.835938 29.25 37.5 29.585938 37.5 30 C 37.5 30.414062 37.835938 30.75 38.25 30.75 C 38.664062 30.75 39 30.414062 39 30 C 39 29.585938 38.664062 29.25 38.25 29.25 Z M 41.25 29.25 C 40.835938 29.25 40.5 29.585938 40.5 30 C 40.5 30.414062 40.835938 30.75 41.25 30.75 C 41.664062 30.75 42 30.414062 42 30 C 42 29.585938 41.664062 29.25 41.25 29.25 Z M 41.25 29.25 "/>
</g>
</svg>
