<?xml version="1.0" encoding="UTF-8"?>
<svg xmlns="http://www.w3.org/2000/svg" xmlns:xlink="http://www.w3.org/1999/xlink" width="60pt" height="60pt" viewBox="0 0 60 60" version="1.1">
<g id="surface684">
<path style=" stroke:none;fill-rule:nonzero;fill:rgb(40.000001%,47.450981%,56.078434%);fill-opacity:1;" d="M 52.5 7.5 L 52.5 52.5 L 7.5 52.5 L 7.5 7.5 L 52.5 7.5 M 54 6 L 6 6 L 6 54 L 54 54 Z M 54 6 "/>
<path style=" stroke:none;fill-rule:nonzero;fill:rgb(54.509807%,71.764708%,94.117647%);fill-opacity:1;" d="M 48.75 2.25 L 57.75 2.25 L 57.75 11.25 L 48.75 11.25 Z M 48.75 2.25 "/>
<path style=" stroke:none;fill-rule:nonzero;fill:rgb(30.588236%,47.843137%,70.980394%);fill-opacity:1;" d="M 57 3 L 57 10.5 L 49.5 10.5 L 49.5 3 L 57 3 M 58.5 1.5 L 48 1.5 L 48 12 L 58.5 12 Z M 58.5 1.5 "/>
<path style=" stroke:none;fill-rule:nonzero;fill:rgb(54.509807%,71.764708%,94.117647%);fill-opacity:1;" d="M 2.25 2.25 L 11.25 2.25 L 11.25 11.25 L 2.25 11.25 Z M 2.25 2.25 "/>
<path style=" stroke:none;fill-rule:nonzero;fill:rgb(30.588236%,47.843137%,70.980394%);fill-opacity:1;" d="M 10.5 3 L 10.5 10.5 L 3 10.5 L 3 3 L 10.5 3 M 12 1.5 L 1.5 1.5 L 1.5 12 L 12 12 Z M 12 1.5 "/>
<path style=" stroke:none;fill-rule:nonzero;fill:rgb(54.509807%,71.764708%,94.117647%);fill-opacity:1;" d="M 48.75 48.75 L 57.75 48.75 L 57.75 57.75 L 48.75 57.75 Z M 48.75 48.75 "/>
<path style=" stroke:none;fill-rule:nonzero;fill:rgb(30.588236%,47.843137%,70.980394%);fill-opacity:1;" d="M 57 49.5 L 57 57 L 49.5 57 L 49.5 49.5 L 57 49.5 M 58.5 48 L 48 48 L 48 58.5 L 58.5 58.5 Z M 58.5 48 "/>
<path style=" stroke:none;fill-rule:nonzero;fill:rgb(54.509807%,71.764708%,94.117647%);fill-opacity:1;" d="M 2.25 48.75 L 11.25 48.75 L 11.25 57.75 L 2.25 57.75 Z M 2.25 48.75 "/>
<path style=" stroke:none;fill-rule:nonzero;fill:rgb(30.588236%,47.843137%,70.980394%);fill-opacity:1;" d="M 10.5 49.5 L 10.5 57 L 3 57 L 3 49.5 L 10.5 49.5 M 12 48 L 1.5 48 L 1.5 58.5 L 12 58.5 Z M 12 48 "/>
<path style=" stroke:none;fill-rule:nonzero;fill:rgb(69.01961%,75.686276%,83.137256%);fill-opacity:1;" d="M 23.25 44.25 L 23.25 41.851562 L 27.75 40.351562 L 27.75 18.75 L 20.292969 18.75 L 18.941406 23.25 L 17.25 23.25 L 17.25 15.75 L 42.75 15.75 L 42.75 23.25 L 41.058594 23.25 L 39.707031 18.75 L 32.25 18.75 L 32.25 40.351562 L 36.75 41.851562 L 36.75 44.25 Z M 23.25 44.25 "/>
<path style=" stroke:none;fill-rule:nonzero;fill:rgb(40.000001%,47.450981%,56.078434%);fill-opacity:1;" d="M 42 16.5 L 42 22.5 L 41.617188 22.5 L 40.585938 19.070312 L 40.265625 18 L 31.5 18 L 31.5 40.890625 L 32.527344 41.234375 L 36 42.390625 L 36 43.5 L 24 43.5 L 24 42.390625 L 27.472656 41.230469 L 28.5 40.890625 L 28.5 18 L 19.734375 18 L 19.414062 19.070312 L 18.382812 22.5 L 18 22.5 L 18 16.5 L 42 16.5 M 43.5 15 L 16.5 15 L 16.5 24 L 19.5 24 L 20.851562 19.5 L 27 19.5 L 27 39.808594 L 22.5 41.308594 L 22.5 45 L 37.5 45 L 37.5 41.308594 L 33 39.808594 L 33 19.5 L 39.148438 19.5 L 40.5 24 L 43.5 24 Z M 43.5 15 "/>
</g>
</svg>
