<?xml version="1.0" encoding="UTF-8"?>
<svg xmlns="http://www.w3.org/2000/svg" xmlns:xlink="http://www.w3.org/1999/xlink" width="18pt" height="18pt" viewBox="0 0 18 18" version="1.1">
<g id="surface3557">
<path style=" stroke:none;fill-rule:nonzero;fill:rgb(88.235295%,92.156863%,94.901961%);fill-opacity:1;" d="M 1.800781 16.875 C 1.179688 16.875 0.675781 16.371094 0.675781 15.75 L 0.675781 1.800781 C 0.675781 1.179688 1.179688 0.675781 1.800781 0.675781 L 15.75 0.675781 C 16.371094 0.675781 16.875 1.179688 16.875 1.800781 L 16.875 15.75 C 16.875 16.371094 16.371094 16.875 15.75 16.875 Z M 1.800781 16.875 "/>
<path style=" stroke:none;fill-rule:nonzero;fill:rgb(47.058824%,54.509807%,61.176473%);fill-opacity:1;" d="M 15.75 0.898438 C 16.246094 0.898438 16.648438 1.304688 16.648438 1.800781 L 16.648438 15.75 C 16.648438 16.246094 16.246094 16.648438 15.75 16.648438 L 1.800781 16.648438 C 1.304688 16.648438 0.898438 16.246094 0.898438 15.75 L 0.898438 1.800781 C 0.898438 1.304688 1.304688 0.898438 1.800781 0.898438 L 15.75 0.898438 M 15.75 0.449219 L 1.800781 0.449219 C 1.054688 0.449219 0.449219 1.054688 0.449219 1.800781 L 0.449219 15.75 C 0.449219 16.496094 1.054688 17.101562 1.800781 17.101562 L 15.75 17.101562 C 16.496094 17.101562 17.101562 16.496094 17.101562 15.75 L 17.101562 1.800781 C 17.101562 1.054688 16.496094 0.449219 15.75 0.449219 Z M 15.75 0.449219 "/>
<path style=" stroke:none;fill-rule:nonzero;fill:rgb(71.372551%,78.823531%,83.92157%);fill-opacity:1;" d="M 8.550781 0.898438 L 9 0.898438 L 9 16.648438 L 8.550781 16.648438 Z M 8.550781 0.898438 "/>
<path style=" stroke:none;fill-rule:nonzero;fill:rgb(71.372551%,78.823531%,83.92157%);fill-opacity:1;" d="M 0.898438 8.550781 L 16.648438 8.550781 L 16.648438 9 L 0.898438 9 Z M 0.898438 8.550781 "/>
<path style="fill:none;stroke-width:1;stroke-linecap:butt;stroke-linejoin:miter;stroke:rgb(78.039217%,26.274511%,26.274511%);stroke-opacity:1;stroke-miterlimit:10;" d="M 1.996528 34.496528 C 11.796875 34.496528 11.102431 4.496528 19.496528 4.496528 C 27.899306 4.496528 27.335069 34.496528 36.996528 34.496528 " transform="matrix(0.45,0,0,0.45,0,0)"/>
</g>
</svg>
