<?xml version="1.0" encoding="UTF-8"?>
<svg xmlns="http://www.w3.org/2000/svg" xmlns:xlink="http://www.w3.org/1999/xlink" width="60pt" height="60pt" viewBox="0 0 60 60" version="1.1">
<g id="surface185">
<path style=" stroke:none;fill-rule:nonzero;fill:rgb(100%,100%,100%);fill-opacity:1;" d="M 30 46.875 C 16.824219 46.875 5.476562 33.898438 2.367188 30 C 5.480469 26.105469 16.847656 13.125 30 13.125 C 43.175781 13.125 54.523438 26.101562 57.632812 30 C 54.519531 33.894531 43.152344 46.875 30 46.875 Z M 30 46.875 "/>
<path style=" stroke:none;fill-rule:nonzero;fill:rgb(72.941178%,60.784316%,28.235295%);fill-opacity:1;" d="M 30 15 C 41.257812 15 51.296875 25.375 55.210938 30.003906 C 51.304688 34.636719 41.296875 45 30 45 C 18.742188 45 8.703125 34.625 4.789062 29.996094 C 8.695312 25.363281 18.703125 15 30 15 M 30 11.25 C 13.433594 11.25 0 30 0 30 C 0 30 13.433594 48.75 30 48.75 C 46.566406 48.75 60 30 60 30 C 60 30 46.566406 11.25 30 11.25 Z M 30 11.25 "/>
<path style=" stroke:none;fill-rule:nonzero;fill:rgb(54.509807%,71.764708%,94.117647%);fill-opacity:1;" d="M 30 20.625 C 24.824219 20.625 20.625 24.824219 20.625 30 C 20.625 35.175781 24.824219 39.375 30 39.375 C 35.175781 39.375 39.375 35.175781 39.375 30 C 39.375 24.824219 35.175781 20.625 30 20.625 Z M 30 20.625 "/>
<path style=" stroke:none;fill-rule:nonzero;fill:rgb(30.588236%,47.843137%,70.980394%);fill-opacity:1;" d="M 30 22.5 C 34.136719 22.5 37.5 25.863281 37.5 30 C 37.5 34.136719 34.136719 37.5 30 37.5 C 25.863281 37.5 22.5 34.136719 22.5 30 C 22.5 25.863281 25.863281 22.5 30 22.5 M 30 18.75 C 23.785156 18.75 18.75 23.785156 18.75 30 C 18.75 36.214844 23.785156 41.25 30 41.25 C 36.214844 41.25 41.25 36.214844 41.25 30 C 41.25 23.785156 36.214844 18.75 30 18.75 Z M 30 18.75 "/>
<path style=" stroke:none;fill-rule:nonzero;fill:rgb(21.176471%,25.098041%,30.19608%);fill-opacity:1;" d="M 30 26.25 C 27.929688 26.25 26.25 27.929688 26.25 30 C 26.25 32.070312 27.929688 33.75 30 33.75 C 32.070312 33.75 33.75 32.070312 33.75 30 C 33.75 27.929688 32.070312 26.25 30 26.25 Z M 30 26.25 "/>
<path style=" stroke:none;fill-rule:nonzero;fill:rgb(100%,100%,100%);fill-opacity:1;" d="M 35.625 22.5 C 34.589844 22.5 33.75 23.339844 33.75 24.375 C 33.75 25.410156 34.589844 26.25 35.625 26.25 C 36.660156 26.25 37.5 25.410156 37.5 24.375 C 37.5 23.339844 36.660156 22.5 35.625 22.5 Z M 35.625 22.5 "/>
</g>
</svg>
