<?xml version="1.0" encoding="UTF-8"?>
<svg xmlns="http://www.w3.org/2000/svg" xmlns:xlink="http://www.w3.org/1999/xlink" width="30pt" height="30pt" viewBox="0 0 30 30" version="1.1">
<g id="surface78">
<path style=" stroke:none;fill-rule:nonzero;fill:rgb(85.882354%,94.901961%,100%);fill-opacity:1;" d="M 1.125 1.125 L 13.875 1.125 L 13.875 13.875 L 1.125 13.875 Z M 1.125 1.125 "/>
<path style=" stroke:none;fill-rule:nonzero;fill:rgb(45.490196%,58.823532%,76.862746%);fill-opacity:1;" d="M 13.5 1.5 L 13.5 13.5 L 1.5 13.5 L 1.5 1.5 L 13.5 1.5 M 14.25 0.75 L 0.75 0.75 L 0.75 14.25 L 14.25 14.25 Z M 14.25 0.75 "/>
<path style=" stroke:none;fill-rule:nonzero;fill:rgb(63.921571%,85.09804%,98.039216%);fill-opacity:1;" d="M 9.75 21.375 C 8.300781 21.375 7.125 20.199219 7.125 18.75 L 7.125 10.5 C 7.125 9.050781 8.300781 7.875 9.75 7.875 L 18 7.875 C 19.449219 7.875 20.625 9.050781 20.625 10.5 L 20.625 18.75 C 20.625 20.199219 19.449219 21.375 18 21.375 Z M 9.75 21.375 "/>
<path style=" stroke:none;fill-rule:nonzero;fill:rgb(45.490196%,58.823532%,76.862746%);fill-opacity:1;" d="M 18 8.25 C 19.242188 8.25 20.25 9.257812 20.25 10.5 L 20.25 18.75 C 20.25 19.992188 19.242188 21 18 21 L 9.75 21 C 8.507812 21 7.5 19.992188 7.5 18.75 L 7.5 10.5 C 7.5 9.257812 8.507812 8.25 9.75 8.25 L 18 8.25 M 18 7.5 L 9.75 7.5 C 8.09375 7.5 6.75 8.84375 6.75 10.5 L 6.75 18.75 C 6.75 20.40625 8.09375 21.75 9.75 21.75 L 18 21.75 C 19.65625 21.75 21 20.40625 21 18.75 L 21 10.5 C 21 8.84375 19.65625 7.5 18 7.5 Z M 18 7.5 "/>
<path style=" stroke:none;fill-rule:nonzero;fill:rgb(54.509807%,71.764708%,94.117647%);fill-opacity:1;" d="M 21.375 28.875 C 17.238281 28.875 13.875 25.511719 13.875 21.375 C 13.875 17.238281 17.238281 13.875 21.375 13.875 C 25.511719 13.875 28.875 17.238281 28.875 21.375 C 28.875 25.511719 25.511719 28.875 21.375 28.875 Z M 21.375 28.875 "/>
<path style=" stroke:none;fill-rule:nonzero;fill:rgb(30.588236%,47.843137%,70.980394%);fill-opacity:1;" d="M 21.375 14.25 C 25.304688 14.25 28.5 17.445312 28.5 21.375 C 28.5 25.304688 25.304688 28.5 21.375 28.5 C 17.445312 28.5 14.25 25.304688 14.25 21.375 C 14.25 17.445312 17.445312 14.25 21.375 14.25 M 21.375 13.5 C 17.027344 13.5 13.5 17.027344 13.5 21.375 C 13.5 25.722656 17.027344 29.25 21.375 29.25 C 25.722656 29.25 29.25 25.722656 29.25 21.375 C 29.25 17.027344 25.722656 13.5 21.375 13.5 Z M 21.375 13.5 "/>
</g>
</svg>
