<?xml version="1.0" encoding="UTF-8"?>
<svg xmlns="http://www.w3.org/2000/svg" xmlns:xlink="http://www.w3.org/1999/xlink" width="13.5pt" height="13.5pt" viewBox="0 0 13.5 13.5" version="1.1">
<g id="surface34814">
<path style=" stroke:none;fill-rule:nonzero;fill:rgb(88.235295%,92.156863%,94.901961%);fill-opacity:1;" d="M 12.214844 10.398438 L 10.238281 8.585938 L 10.238281 9.914062 L 3.085938 9.914062 L 3.085938 10.886719 L 10.238281 10.886719 L 10.238281 12.210938 Z M 12.214844 10.398438 "/>
<path style=" stroke:none;fill-rule:nonzero;fill:rgb(47.058824%,54.509807%,61.176473%);fill-opacity:1;" d="M 10.074219 12.582031 L 10.074219 11.050781 L 2.925781 11.050781 L 2.925781 9.75 L 10.074219 9.75 L 10.074219 8.21875 L 12.457031 10.398438 Z M 3.25 10.726562 L 10.398438 10.726562 L 10.398438 11.84375 L 11.976562 10.398438 L 10.398438 8.957031 L 10.398438 10.074219 L 3.25 10.074219 Z M 3.25 10.726562 "/>
<path style=" stroke:none;fill-rule:nonzero;fill:rgb(54.509807%,71.764708%,94.117647%);fill-opacity:1;" d="M 4.414062 2.761719 L 2.601562 0.785156 L 0.789062 2.761719 L 2.113281 2.761719 L 2.113281 10.328125 L 3.085938 10.328125 L 3.085938 2.761719 Z M 4.414062 2.761719 "/>
<path style=" stroke:none;fill-rule:nonzero;fill:rgb(30.588236%,47.843137%,70.980394%);fill-opacity:1;" d="M 3.25 10.488281 L 1.949219 10.488281 L 1.949219 2.925781 L 0.417969 2.925781 L 2.601562 0.542969 L 4.78125 2.925781 L 3.25 2.925781 Z M 2.273438 10.164062 L 2.925781 10.164062 L 2.925781 2.601562 L 4.042969 2.601562 L 2.601562 1.023438 L 1.15625 2.601562 L 2.273438 2.601562 Z M 2.273438 10.164062 "/>
<path style=" stroke:none;fill-rule:nonzero;fill:rgb(96.862745%,56.078434%,56.078434%);fill-opacity:1;" d="M 3.738281 10.398438 C 3.738281 11.027344 3.226562 11.539062 2.601562 11.539062 C 1.972656 11.539062 1.460938 11.027344 1.460938 10.398438 C 1.460938 9.773438 1.972656 9.261719 2.601562 9.261719 C 3.226562 9.261719 3.738281 9.773438 3.738281 10.398438 Z M 3.738281 10.398438 "/>
<path style=" stroke:none;fill-rule:nonzero;fill:rgb(78.039217%,26.274511%,26.274511%);fill-opacity:1;" d="M 2.601562 11.699219 C 1.882812 11.699219 1.300781 11.117188 1.300781 10.398438 C 1.300781 9.683594 1.882812 9.101562 2.601562 9.101562 C 3.316406 9.101562 3.898438 9.683594 3.898438 10.398438 C 3.898438 11.117188 3.316406 11.699219 2.601562 11.699219 Z M 2.601562 9.425781 C 2.0625 9.425781 1.625 9.863281 1.625 10.398438 C 1.625 10.9375 2.0625 11.375 2.601562 11.375 C 3.136719 11.375 3.574219 10.9375 3.574219 10.398438 C 3.574219 9.863281 3.136719 9.425781 2.601562 9.425781 Z M 2.601562 9.425781 "/>
</g>
</svg>
