<?xml version="1.0" encoding="UTF-8"?>
<svg xmlns="http://www.w3.org/2000/svg" xmlns:xlink="http://www.w3.org/1999/xlink" width="13.5pt" height="13.5pt" viewBox="0 0 13.5 13.5" version="1.1">
<g id="surface5966">
<path style=" stroke:none;fill-rule:nonzero;fill:rgb(76.078433%,90.980393%,100%);fill-opacity:1;" d="M 4.0625 4.0625 L 0 4.042969 L 0 5.6875 L 3.65625 5.6875 Z M 3.433594 7.3125 L 3.609375 6.5 L 0 6.5 L 0 7.3125 Z M 2.945312 8.9375 L 3.25 8.125 L 0 8.125 L 0 8.9375 Z M 2.945312 8.9375 "/>
<path style=" stroke:none;fill-rule:nonzero;fill:rgb(100%,100%,100%);fill-opacity:1;" d="M 2.933594 10.15625 L 4.394531 2.84375 L 12.503906 2.84375 L 11.042969 10.15625 Z M 2.933594 10.15625 "/>
<path style=" stroke:none;fill-rule:nonzero;fill:rgb(47.058824%,54.509807%,61.176473%);fill-opacity:1;" d="M 12.007812 3.25 L 10.707031 9.75 L 3.429688 9.75 L 4.730469 3.25 L 12.007812 3.25 M 13 2.4375 L 4.0625 2.4375 L 2.4375 10.5625 L 11.375 10.5625 Z M 13 2.4375 "/>
<path style=" stroke:none;fill-rule:nonzero;fill:rgb(54.509807%,71.764708%,94.117647%);fill-opacity:1;" d="M 5.078125 7.71875 L 5.566406 5.28125 L 10.359375 5.28125 L 9.871094 7.71875 Z M 5.078125 7.71875 "/>
<path style=" stroke:none;fill-rule:nonzero;fill:rgb(30.588236%,47.843137%,70.980394%);fill-opacity:1;" d="M 9.863281 5.6875 L 9.539062 7.3125 L 5.574219 7.3125 L 5.898438 5.6875 L 9.863281 5.6875 M 10.855469 4.875 L 5.234375 4.875 L 4.582031 8.125 L 10.207031 8.125 Z M 10.855469 4.875 "/>
<path style=" stroke:none;fill-rule:nonzero;fill:rgb(47.058824%,54.509807%,61.176473%);fill-opacity:1;" d="M 4.0625 2.4375 L 12.1875 2.4375 L 12.1875 4.0625 L 4.0625 4.0625 Z M 4.0625 2.4375 "/>
<path style=" stroke:none;fill-rule:nonzero;fill:rgb(100%,100%,100%);fill-opacity:1;" d="M 9.703125 6.5 L 9.863281 5.6875 L 5.898438 5.6875 L 5.734375 6.5 Z M 9.703125 6.5 "/>
<path style=" stroke:none;fill-rule:nonzero;fill:rgb(21.568628%,27.843139%,30.980393%);fill-opacity:1;" d="M 7.128906 6.5 L 7.304688 5.6875 L 6.5 5.6875 L 6.328125 6.5 Z M 7.128906 6.5 "/>
</g>
</svg>
