<?xml version="1.0" encoding="UTF-8"?>
<svg xmlns="http://www.w3.org/2000/svg" xmlns:xlink="http://www.w3.org/1999/xlink" width="60pt" height="60pt" viewBox="0 0 60 60" version="1.1">
<g id="surface332">
<path style=" stroke:none;fill-rule:nonzero;fill:rgb(36.862746%,61.176473%,46.27451%);fill-opacity:1;" d="M 7.835938 33.75 C 7.632812 32.527344 7.5 31.277344 7.5 30 C 7.5 23.359375 10.410156 17.398438 15 13.273438 L 15 4.058594 C 6.046875 9.253906 0 18.925781 0 30 C 0 31.269531 0.105469 32.519531 0.257812 33.75 Z M 26.25 7.835938 C 27.472656 7.632812 28.722656 7.5 30 7.5 C 36.640625 7.5 42.601562 10.410156 46.726562 15 L 55.941406 15 C 50.746094 6.046875 41.074219 0 30 0 C 28.730469 0 27.480469 0.105469 26.25 0.257812 Z M 33.75 52.164062 C 32.527344 52.367188 31.277344 52.5 30 52.5 C 23.359375 52.5 17.398438 49.589844 13.273438 45 L 4.058594 45 C 9.253906 53.953125 18.925781 60 30 60 C 31.269531 60 32.519531 59.894531 33.75 59.742188 Z M 52.164062 26.25 C 52.367188 27.472656 52.5 28.722656 52.5 30 C 52.5 36.640625 49.589844 42.601562 45 46.726562 L 45 55.941406 C 53.953125 50.746094 60 41.078125 60 30 C 60 28.730469 59.894531 27.480469 59.742188 26.25 Z M 52.164062 26.25 "/>
<path style=" stroke:none;fill-rule:nonzero;fill:rgb(36.862746%,61.176473%,46.27451%);fill-opacity:1;" d="M 56.25 0 L 56.25 18.75 L 37.5 18.75 Z M 60 56.25 L 41.25 56.25 L 41.25 37.5 Z M 3.75 60 L 3.75 41.25 L 22.5 41.25 Z M 0 3.75 L 18.75 3.75 L 18.75 22.5 Z M 0 3.75 "/>
</g>
</svg>
