<?xml version="1.0" encoding="UTF-8"?>
<svg xmlns="http://www.w3.org/2000/svg" xmlns:xlink="http://www.w3.org/1999/xlink" width="60pt" height="60pt" viewBox="0 0 60 60" version="1.1">
<g id="surface929">
<path style=" stroke:none;fill-rule:nonzero;fill:rgb(72.941178%,87.843138%,74.117649%);fill-opacity:1;" d="M 1.875 43.125 L 9.375 43.125 L 9.375 54.375 L 1.875 54.375 Z M 1.875 43.125 "/>
<path style=" stroke:none;fill-rule:nonzero;fill:rgb(36.862746%,61.176473%,46.27451%);fill-opacity:1;" d="M 7.5 45 L 7.5 52.5 L 3.75 52.5 L 3.75 45 L 7.5 45 M 11.25 41.25 L 0 41.25 L 0 56.25 L 11.25 56.25 Z M 11.25 41.25 "/>
<path style=" stroke:none;fill-rule:nonzero;fill:rgb(72.941178%,87.843138%,74.117649%);fill-opacity:1;" d="M 16.875 31.875 L 24.375 31.875 L 24.375 54.375 L 16.875 54.375 Z M 16.875 31.875 "/>
<path style=" stroke:none;fill-rule:nonzero;fill:rgb(36.862746%,61.176473%,46.27451%);fill-opacity:1;" d="M 22.5 33.75 L 22.5 52.5 L 18.75 52.5 L 18.75 33.75 L 22.5 33.75 M 26.25 30 L 15 30 L 15 56.25 L 26.25 56.25 Z M 26.25 30 "/>
<path style=" stroke:none;fill-rule:nonzero;fill:rgb(72.941178%,87.843138%,74.117649%);fill-opacity:1;" d="M 31.875 43.125 L 39.375 43.125 L 39.375 54.375 L 31.875 54.375 Z M 31.875 43.125 "/>
<path style=" stroke:none;fill-rule:nonzero;fill:rgb(36.862746%,61.176473%,46.27451%);fill-opacity:1;" d="M 37.5 45 L 37.5 52.5 L 33.75 52.5 L 33.75 45 L 37.5 45 M 41.25 41.25 L 30 41.25 L 30 56.25 L 41.25 56.25 Z M 41.25 41.25 "/>
<path style=" stroke:none;fill-rule:nonzero;fill:rgb(72.941178%,87.843138%,74.117649%);fill-opacity:1;" d="M 46.875 31.875 L 54.375 31.875 L 54.375 54.375 L 46.875 54.375 Z M 46.875 31.875 "/>
<path style=" stroke:none;fill-rule:nonzero;fill:rgb(36.862746%,61.176473%,46.27451%);fill-opacity:1;" d="M 52.5 33.75 L 52.5 52.5 L 48.75 52.5 L 48.75 33.75 L 52.5 33.75 M 56.25 30 L 45 30 L 45 56.25 L 56.25 56.25 Z M 56.25 30 "/>
<path style=" stroke:none;fill-rule:nonzero;fill:rgb(30.588236%,47.843137%,70.980394%);fill-opacity:1;" d="M 35.625 19.125 L 20.625 11.625 L 6.75 18.375 L 4.875 15.375 L 20.625 7.125 L 35.625 15 L 49.875 7.5 L 51.375 10.875 Z M 35.625 19.125 "/>
<path style=" stroke:none;fill-rule:nonzero;fill:rgb(54.509807%,71.764708%,94.117647%);fill-opacity:1;" d="M 5.625 13.125 C 3.554688 13.125 1.875 14.804688 1.875 16.875 C 1.875 18.945312 3.554688 20.625 5.625 20.625 C 7.695312 20.625 9.375 18.945312 9.375 16.875 C 9.375 14.804688 7.695312 13.125 5.625 13.125 Z M 5.625 13.125 "/>
<path style=" stroke:none;fill-rule:nonzero;fill:rgb(30.588236%,47.843137%,70.980394%);fill-opacity:1;" d="M 5.625 15 C 6.75 15 7.5 15.75 7.5 16.875 C 7.5 18 6.75 18.75 5.625 18.75 C 4.5 18.75 3.75 18 3.75 16.875 C 3.75 15.75 4.5 15 5.625 15 M 5.625 11.25 C 2.625 11.25 0 13.875 0 16.875 C 0 19.875 2.625 22.5 5.625 22.5 C 8.625 22.5 11.25 19.875 11.25 16.875 C 11.25 13.875 8.625 11.25 5.625 11.25 Z M 5.625 11.25 "/>
<path style=" stroke:none;fill-rule:nonzero;fill:rgb(54.509807%,71.764708%,94.117647%);fill-opacity:1;" d="M 20.625 5.625 C 18.554688 5.625 16.875 7.304688 16.875 9.375 C 16.875 11.445312 18.554688 13.125 20.625 13.125 C 22.695312 13.125 24.375 11.445312 24.375 9.375 C 24.375 7.304688 22.695312 5.625 20.625 5.625 Z M 20.625 5.625 "/>
<path style=" stroke:none;fill-rule:nonzero;fill:rgb(30.588236%,47.843137%,70.980394%);fill-opacity:1;" d="M 20.625 7.5 C 21.75 7.5 22.5 8.25 22.5 9.375 C 22.5 10.5 21.75 11.25 20.625 11.25 C 19.5 11.25 18.75 10.5 18.75 9.375 C 18.75 8.25 19.5 7.5 20.625 7.5 M 20.625 3.75 C 17.625 3.75 15 6.375 15 9.375 C 15 12.375 17.625 15 20.625 15 C 23.625 15 26.25 12.375 26.25 9.375 C 26.25 6.375 23.625 3.75 20.625 3.75 Z M 20.625 3.75 "/>
<path style=" stroke:none;fill-rule:nonzero;fill:rgb(54.509807%,71.764708%,94.117647%);fill-opacity:1;" d="M 35.625 13.125 C 33.554688 13.125 31.875 14.804688 31.875 16.875 C 31.875 18.945312 33.554688 20.625 35.625 20.625 C 37.695312 20.625 39.375 18.945312 39.375 16.875 C 39.375 14.804688 37.695312 13.125 35.625 13.125 Z M 35.625 13.125 "/>
<path style=" stroke:none;fill-rule:nonzero;fill:rgb(30.588236%,47.843137%,70.980394%);fill-opacity:1;" d="M 35.625 15 C 36.75 15 37.5 15.75 37.5 16.875 C 37.5 18 36.75 18.75 35.625 18.75 C 34.5 18.75 33.75 18 33.75 16.875 C 33.75 15.75 34.5 15 35.625 15 M 35.625 11.25 C 32.625 11.25 30 13.875 30 16.875 C 30 19.875 32.625 22.5 35.625 22.5 C 38.625 22.5 41.25 19.875 41.25 16.875 C 41.25 13.875 38.625 11.25 35.625 11.25 Z M 35.625 11.25 "/>
<path style=" stroke:none;fill-rule:nonzero;fill:rgb(54.509807%,71.764708%,94.117647%);fill-opacity:1;" d="M 50.625 5.625 C 48.554688 5.625 46.875 7.304688 46.875 9.375 C 46.875 11.445312 48.554688 13.125 50.625 13.125 C 52.695312 13.125 54.375 11.445312 54.375 9.375 C 54.375 7.304688 52.695312 5.625 50.625 5.625 Z M 50.625 5.625 "/>
<path style=" stroke:none;fill-rule:nonzero;fill:rgb(30.588236%,47.843137%,70.980394%);fill-opacity:1;" d="M 50.625 7.5 C 51.75 7.5 52.5 8.25 52.5 9.375 C 52.5 10.5 51.75 11.25 50.625 11.25 C 49.5 11.25 48.75 10.5 48.75 9.375 C 48.75 8.25 49.5 7.5 50.625 7.5 M 50.625 3.75 C 47.625 3.75 45 6.375 45 9.375 C 45 12.375 47.625 15 50.625 15 C 53.625 15 56.25 12.375 56.25 9.375 C 56.25 6.375 53.625 3.75 50.625 3.75 Z M 50.625 3.75 "/>
</g>
</svg>
