<?xml version="1.0" encoding="UTF-8"?>
<svg xmlns="http://www.w3.org/2000/svg" xmlns:xlink="http://www.w3.org/1999/xlink" width="13.5pt" height="13.5pt" viewBox="0 0 13.5 13.5" version="1.1">
<g id="surface920">
<path style=" stroke:none;fill-rule:nonzero;fill:rgb(30.588236%,47.843137%,70.980394%);fill-opacity:1;" d="M 12.1875 8.9375 L 12.1875 9.140625 C 12.1875 9.851562 11.898438 10.5625 11.179688 10.5625 C 9.992188 10.5625 9.78125 8.109375 9.734375 7.542969 L 11.375 0.8125 L 8.9375 0.8125 L 8.238281 3.734375 C 7.476562 1.714844 6.5625 0 4.46875 0 C 1.90625 0 0 2.601562 0 5.6875 L 0 6.5 C 0 9.585938 1.714844 12.1875 4.46875 12.1875 C 6.871094 12.1875 8.464844 11.035156 9.101562 9.355469 C 9.101562 9.355469 9.253906 12.1875 11.179688 12.1875 C 12.503906 12.1875 13 10.828125 13 9.140625 L 13 8.9375 Z M 4.46875 11.375 C 2.886719 11.375 1.753906 9.066406 1.625 6.5 L 1.625 5.6875 C 1.753906 3.121094 2.9375 0.8125 4.46875 0.8125 C 6.03125 0.8125 7.3125 3.578125 7.789062 5.6875 C 7.789062 5.6875 6.804688 11.375 4.46875 11.375 Z M 4.46875 11.375 "/>
</g>
</svg>
