<?xml version="1.0" encoding="UTF-8"?>
<svg xmlns="http://www.w3.org/2000/svg" xmlns:xlink="http://www.w3.org/1999/xlink" width="12pt" height="12pt" viewBox="0 0 12 12" version="1.1">
<g id="surface99">
<path style=" stroke:none;fill-rule:nonzero;fill:rgb(86.274511%,83.529413%,94.901961%);fill-opacity:1;" d="M 6 10.875 C 3.601562 10.875 1.875 9.898438 1.875 9 L 1.875 3 L 10.125 3 L 10.125 8.625 C 10.125 7.800781 9.449219 7.125 8.625 7.125 C 7.800781 7.125 7.125 7.800781 7.125 8.625 C 7.125 9.449219 7.800781 10.125 8.625 10.125 C 9.449219 10.125 10.125 9.449219 10.125 8.625 L 10.125 9 C 10.125 9.898438 8.398438 10.875 6 10.875 Z M 6 10.875 "/>
<path style=" stroke:none;fill-rule:nonzero;fill:rgb(54.509807%,45.882353%,63.137257%);fill-opacity:1;" d="M 9.75 3.375 L 9.75 7.125 C 9.449219 6.898438 9.074219 6.75 8.625 6.75 C 7.574219 6.75 6.75 7.574219 6.75 8.625 C 6.75 9.375 7.199219 9.976562 7.800781 10.273438 C 7.273438 10.425781 6.675781 10.5 6 10.5 C 3.675781 10.5 2.25 9.601562 2.25 9 L 2.25 3.375 L 9.75 3.375 M 10.5 2.625 L 1.5 2.625 C 1.5 2.625 1.5 8.398438 1.5 9 C 1.5 10.273438 3.523438 11.25 6 11.25 C 8.476562 11.25 10.5 10.273438 10.5 9 C 10.5 8.398438 10.5 2.625 10.5 2.625 Z M 8.625 9.75 C 8.023438 9.75 7.5 9.226562 7.5 8.625 C 7.5 8.023438 8.023438 7.5 8.625 7.5 C 9.226562 7.5 9.75 8.023438 9.75 8.625 C 9.75 9.226562 9.226562 9.75 8.625 9.75 Z M 8.625 9.75 "/>
<path style=" stroke:none;fill-rule:nonzero;fill:rgb(86.274511%,83.529413%,94.901961%);fill-opacity:1;" d="M 6 4.125 C 3.675781 4.125 1.875 3.300781 1.875 2.625 C 1.875 1.949219 3.675781 1.125 6 1.125 C 8.324219 1.125 10.125 1.949219 10.125 2.625 C 10.125 3.300781 8.324219 4.125 6 4.125 Z M 6 4.125 "/>
<path style=" stroke:none;fill-rule:nonzero;fill:rgb(54.509807%,45.882353%,63.137257%);fill-opacity:1;" d="M 6 1.5 C 8.476562 1.5 9.75 2.324219 9.75 2.625 C 9.75 2.925781 8.476562 3.75 6 3.75 C 3.523438 3.75 2.25 2.925781 2.25 2.625 C 2.25 2.324219 3.523438 1.5 6 1.5 M 6 0.75 C 3.523438 0.75 1.5 1.574219 1.5 2.625 C 1.5 3.675781 3.523438 4.5 6 4.5 C 8.476562 4.5 10.5 3.675781 10.5 2.625 C 10.5 1.574219 8.476562 0.75 6 0.75 Z M 6 6.75 C 3.449219 6.75 1.5 5.851562 1.5 4.648438 L 2.25 4.648438 C 2.25 5.25 3.675781 6 6 6 C 8.324219 6 9.75 5.25 9.75 4.648438 L 10.5 4.648438 C 10.5 5.851562 8.550781 6.75 6 6.75 Z M 6 9 C 3.449219 9 1.5 8.101562 1.5 6.898438 L 2.25 6.898438 C 2.25 7.5 3.675781 8.25 6 8.25 C 6.226562 8.25 6.449219 8.25 6.75 8.25 L 6.75 9 C 6.523438 9 6.300781 9 6 9 Z M 6 9 "/>
<path style=" stroke:none;fill-rule:nonzero;fill:rgb(30.588236%,47.843137%,70.980394%);fill-opacity:1;" d="M 11.25 8.625 C 11.25 8.398438 11.25 8.175781 11.175781 7.949219 L 11.851562 7.425781 L 11.25 6.449219 L 10.425781 6.75 C 10.125 6.449219 9.75 6.226562 9.300781 6.074219 L 9.226562 5.25 L 8.101562 5.25 L 7.949219 6.074219 C 7.5 6.226562 7.125 6.449219 6.824219 6.75 L 6 6.449219 L 5.398438 7.425781 L 6.074219 7.949219 C 6 8.175781 6 8.398438 6 8.625 C 6 8.851562 6 9.074219 6.074219 9.300781 L 5.398438 9.824219 L 6 10.800781 L 6.824219 10.5 C 7.125 10.800781 7.5 11.023438 7.949219 11.175781 L 8.101562 12 L 9.226562 12 L 9.375 11.175781 C 9.824219 11.023438 10.199219 10.800781 10.5 10.5 L 11.324219 10.800781 L 11.925781 9.824219 L 11.25 9.300781 C 11.25 9.074219 11.25 8.851562 11.25 8.625 Z M 8.625 9.601562 C 8.101562 9.601562 7.648438 9.148438 7.648438 8.625 C 7.648438 8.101562 8.101562 7.648438 8.625 7.648438 C 9.148438 7.648438 9.601562 8.101562 9.601562 8.625 C 9.601562 9.148438 9.148438 9.601562 8.625 9.601562 Z M 8.625 9.601562 "/>
</g>
</svg>
