<?xml version="1.0" encoding="UTF-8"?>
<svg xmlns="http://www.w3.org/2000/svg" xmlns:xlink="http://www.w3.org/1999/xlink" width="18pt" height="18pt" viewBox="0 0 18 18" version="1.1">
<g id="surface6029">
<path style=" stroke:none;fill-rule:nonzero;fill:rgb(100%,100%,100%);fill-opacity:1;" d="M 2.8125 16.3125 L 2.8125 0.5625 L 11.136719 0.5625 L 15.1875 4.726562 L 15.1875 16.3125 Z M 2.8125 16.3125 "/>
<path style=" stroke:none;fill-rule:nonzero;fill:rgb(47.058824%,54.509807%,61.176473%);fill-opacity:1;" d="M 10.914062 1.125 L 14.625 4.949219 L 14.625 15.75 L 3.375 15.75 L 3.375 1.125 L 10.914062 1.125 M 11.363281 0 L 2.25 0 L 2.25 16.875 L 15.75 16.875 L 15.75 4.5 Z M 11.363281 0 "/>
<path style=" stroke:none;fill-rule:nonzero;fill:rgb(100%,100%,100%);fill-opacity:1;" d="M 10.6875 5.0625 L 10.6875 0.5625 L 11.023438 0.5625 L 15.1875 4.726562 L 15.1875 5.0625 Z M 10.6875 5.0625 "/>
<path style=" stroke:none;fill-rule:nonzero;fill:rgb(47.058824%,54.509807%,61.176473%);fill-opacity:1;" d="M 11.25 1.574219 L 14.175781 4.5 L 11.25 4.5 L 11.25 1.574219 M 11.25 0 L 10.125 0 L 10.125 5.625 L 15.75 5.625 L 15.75 4.5 Z M 7.875 12.375 L 6.75 12.375 L 6.75 9 L 6.1875 9 L 6.1875 7.875 L 7.875 7.875 Z M 10.6875 12.375 C 9.789062 12.375 9 11.585938 9 10.6875 L 9 9.5625 C 9 8.664062 9.789062 7.875 10.6875 7.875 C 11.585938 7.875 12.375 8.664062 12.375 9.5625 L 12.375 10.6875 C 12.375 11.585938 11.585938 12.375 10.6875 12.375 Z M 10.6875 9 C 10.351562 9 10.125 9.226562 10.125 9.5625 L 10.125 10.6875 C 10.125 11.023438 10.351562 11.25 10.6875 11.25 C 11.023438 11.25 11.25 11.023438 11.25 10.6875 L 11.25 9.5625 C 11.25 9.226562 11.023438 9 10.6875 9 Z M 10.6875 9 "/>
</g>
</svg>
