<?xml version="1.0" encoding="UTF-8"?>
<svg xmlns="http://www.w3.org/2000/svg" xmlns:xlink="http://www.w3.org/1999/xlink" width="30pt" height="30pt" viewBox="0 0 30 30" version="1.1">
<g id="surface116">
<path style=" stroke:none;fill-rule:nonzero;fill:rgb(100%,100%,100%);fill-opacity:1;" d="M 0.9375 2.8125 L 29.0625 2.8125 L 29.0625 27.1875 L 0.9375 27.1875 Z M 0.9375 2.8125 "/>
<path style=" stroke:none;fill-rule:nonzero;fill:rgb(47.058824%,54.509807%,61.176473%);fill-opacity:1;" d="M 28.125 3.75 L 28.125 26.25 L 1.875 26.25 L 1.875 3.75 L 28.125 3.75 M 30 1.875 L 0 1.875 L 0 28.125 L 30 28.125 Z M 30 1.875 "/>
<path style=" stroke:none;fill-rule:nonzero;fill:rgb(70.980394%,87.058824%,100%);fill-opacity:1;" d="M 5.625 7.5 L 24.375 7.5 L 24.375 19.6875 L 5.625 19.6875 Z M 5.625 7.5 "/>
<path style=" stroke:none;fill-rule:nonzero;fill:rgb(85.09804%,96.470588%,100%);fill-opacity:1;" d="M 5.625 14.0625 L 24.375 14.0625 L 24.375 19.417969 L 5.625 19.417969 Z M 5.625 14.0625 "/>
<path style=" stroke:none;fill-rule:nonzero;fill:rgb(47.843137%,67.843139%,94.117647%);fill-opacity:1;" d="M 5.625 19.6875 L 24.375 19.6875 L 24.375 22.5 L 5.625 22.5 Z M 5.625 19.6875 "/>
<path style=" stroke:none;fill-rule:nonzero;fill:rgb(85.09804%,96.470588%,100%);fill-opacity:1;" d="M 11.484375 11.917969 C 10.191406 11.917969 9.140625 12.878906 9.140625 14.0625 C 9.140625 15.246094 10.191406 16.207031 11.484375 16.207031 C 12.777344 16.207031 13.828125 15.246094 13.828125 14.0625 C 13.828125 12.878906 12.777344 11.917969 11.484375 11.917969 Z M 11.484375 11.917969 "/>
<path style=" stroke:none;fill-rule:nonzero;fill:rgb(85.09804%,96.470588%,100%);fill-opacity:1;" d="M 9.140625 12.457031 C 8.167969 12.457031 7.382812 13.175781 7.382812 14.0625 C 7.382812 14.949219 8.167969 15.667969 9.140625 15.667969 C 10.113281 15.667969 10.898438 14.949219 10.898438 14.0625 C 10.898438 13.175781 10.113281 12.457031 9.140625 12.457031 Z M 15 12.988281 C 13.707031 12.988281 12.65625 13.949219 12.65625 15.132812 C 12.65625 16.316406 13.707031 17.277344 15 17.277344 C 16.292969 17.277344 17.34375 16.316406 17.34375 15.132812 C 17.34375 13.949219 16.292969 12.988281 15 12.988281 Z M 15 12.988281 "/>
<path style=" stroke:none;fill-rule:nonzero;fill:rgb(85.09804%,96.470588%,100%);fill-opacity:1;" d="M 18.515625 11.917969 C 17.222656 11.917969 16.171875 12.878906 16.171875 14.0625 C 16.171875 15.246094 17.222656 16.207031 18.515625 16.207031 C 19.808594 16.207031 20.859375 15.246094 20.859375 14.0625 C 20.859375 12.878906 19.808594 11.917969 18.515625 11.917969 Z M 23.203125 12.992188 C 22.554688 12.992188 22.03125 13.472656 22.03125 14.0625 C 22.03125 14.652344 22.554688 15.132812 23.203125 15.132812 C 23.851562 15.132812 24.375 14.652344 24.375 14.0625 C 24.375 13.472656 23.851562 12.992188 23.203125 12.992188 Z M 6.796875 12.992188 C 6.148438 12.992188 5.625 13.472656 5.625 14.0625 C 5.625 14.652344 6.148438 15.132812 6.796875 15.132812 C 7.445312 15.132812 7.96875 14.652344 7.96875 14.0625 C 7.96875 13.472656 7.445312 12.992188 6.796875 12.992188 Z M 6.796875 12.992188 "/>
<path style=" stroke:none;fill-rule:nonzero;fill:rgb(85.09804%,96.470588%,100%);fill-opacity:1;" d="M 20.859375 12.457031 C 19.886719 12.457031 19.101562 13.175781 19.101562 14.0625 C 19.101562 14.949219 19.886719 15.667969 20.859375 15.667969 C 21.832031 15.667969 22.617188 14.949219 22.617188 14.0625 C 22.617188 13.175781 21.832031 12.457031 20.859375 12.457031 Z M 20.859375 12.457031 "/>
<path style=" stroke:none;fill-rule:nonzero;fill:rgb(29.019609%,42.745098%,61.176473%);fill-opacity:1;" d="M 5.625 19.6875 L 24.375 19.6875 L 24.375 18.75 L 18.515625 15 Z M 5.625 19.6875 "/>
<path style=" stroke:none;fill-rule:nonzero;fill:rgb(36.470589%,51.764709%,72.156864%);fill-opacity:1;" d="M 19.6875 19.6875 L 5.625 19.6875 L 5.625 16.875 L 11.484375 14.0625 Z M 19.6875 19.6875 "/>
</g>
</svg>
