<?xml version="1.0" encoding="UTF-8"?>
<svg xmlns="http://www.w3.org/2000/svg" xmlns:xlink="http://www.w3.org/1999/xlink" width="60pt" height="60pt" viewBox="0 0 60 60" version="1.1">
<g id="surface170">
<path style=" stroke:none;fill-rule:nonzero;fill:rgb(76.078433%,90.980393%,100%);fill-opacity:1;" d="M 56.25 30 C 56.25 44.496094 44.496094 56.25 30 56.25 C 15.503906 56.25 3.75 44.496094 3.75 30 C 3.75 15.503906 15.503906 3.75 30 3.75 C 44.496094 3.75 56.25 15.503906 56.25 30 Z M 56.25 30 "/>
<path style=" stroke:none;fill-rule:nonzero;fill:rgb(96.078432%,80.784315%,52.156866%);fill-opacity:1;" d="M 15.617188 50.273438 L 19.242188 44.949219 C 17.5625 43.316406 14.960938 40.46875 14.058594 38.269531 L 8.296875 41.523438 C 9.796875 44.867188 12.851562 47.9375 15.617188 50.273438 Z M 15.617188 50.273438 "/>
<path style=" stroke:none;fill-rule:nonzero;fill:rgb(30.588236%,47.843137%,70.980394%);fill-opacity:1;" d="M 30.019531 58.125 C 29.21875 58.125 28.414062 58.089844 27.601562 58.023438 C 12.148438 56.703125 0.652344 43.058594 1.976562 27.605469 C 3.292969 12.148438 16.878906 0.65625 32.398438 1.976562 C 47.851562 3.296875 59.347656 16.941406 58.023438 32.394531 C 56.773438 47.035156 44.453125 58.125 30.019531 58.125 Z M 29.984375 5.625 C 17.472656 5.625 6.796875 15.234375 5.710938 27.921875 C 4.566406 41.3125 14.53125 53.140625 27.921875 54.285156 C 41.253906 55.398438 53.140625 45.464844 54.285156 32.074219 C 55.429688 18.683594 45.464844 6.855469 32.074219 5.710938 C 31.375 5.65625 30.679688 5.625 29.984375 5.625 Z M 29.984375 5.625 "/>
<path style=" stroke:none;fill-rule:nonzero;fill:rgb(88.235295%,92.156863%,94.901961%);fill-opacity:1;" d="M 46.875 30 C 46.875 39.320312 39.320312 46.875 30 46.875 C 20.679688 46.875 13.125 39.320312 13.125 30 C 13.125 20.679688 20.679688 13.125 30 13.125 C 39.320312 13.125 46.875 20.679688 46.875 30 Z M 46.875 30 "/>
<path style=" stroke:none;fill-rule:nonzero;fill:rgb(30.588236%,47.843137%,70.980394%);fill-opacity:1;" d="M 30.015625 48.75 C 29.480469 48.75 28.941406 48.726562 28.398438 48.679688 C 18.101562 47.796875 10.4375 38.699219 11.316406 28.398438 C 12.199219 18.097656 21.316406 10.386719 31.601562 11.320312 C 41.898438 12.203125 49.5625 21.300781 48.683594 31.601562 C 47.847656 41.359375 39.632812 48.75 30.015625 48.75 Z M 29.988281 15 C 22.289062 15 15.722656 20.914062 15.054688 28.722656 C 14.351562 36.960938 20.484375 44.238281 28.726562 44.945312 C 36.945312 45.605469 44.242188 39.515625 44.949219 31.273438 C 45.652344 23.035156 39.519531 15.757812 31.277344 15.050781 C 30.847656 15.019531 30.417969 15 29.988281 15 Z M 29.988281 15 "/>
<path style=" stroke:none;fill-rule:nonzero;fill:rgb(30.588236%,47.843137%,70.980394%);fill-opacity:1;" d="M 30 37.5 C 30 39.570312 28.320312 41.25 26.25 41.25 C 24.179688 41.25 22.5 39.570312 22.5 37.5 C 22.5 35.429688 24.179688 33.75 26.25 33.75 C 28.320312 33.75 30 35.429688 30 37.5 Z M 30 37.5 "/>
<path style=" stroke:none;fill-rule:nonzero;fill:rgb(76.078433%,90.980393%,100%);fill-opacity:1;" d="M 8.257812 41.175781 L 15.171875 38.269531 "/>
<path style=" stroke:none;fill-rule:nonzero;fill:rgb(30.588236%,47.843137%,70.980394%);fill-opacity:1;" d="M 7.53125 39.445312 L 14.445312 36.542969 L 15.898438 40.003906 L 8.980469 42.902344 Z M 7.53125 39.445312 "/>
<path style=" stroke:none;fill-rule:nonzero;fill:rgb(76.078433%,90.980393%,100%);fill-opacity:1;" d="M 15.941406 50 L 20.710938 44.210938 "/>
<path style=" stroke:none;fill-rule:nonzero;fill:rgb(30.588236%,47.843137%,70.980394%);fill-opacity:1;" d="M 14.496094 48.800781 L 19.269531 43.015625 L 22.164062 45.402344 L 17.386719 51.1875 Z M 14.496094 48.800781 "/>
<path style=" stroke:none;fill-rule:nonzero;fill:rgb(76.078433%,90.980393%,100%);fill-opacity:1;" d="M 48.160156 46.367188 L 42.988281 40.933594 "/>
<path style=" stroke:none;fill-rule:nonzero;fill:rgb(30.588236%,47.843137%,70.980394%);fill-opacity:1;" d="M 41.628906 42.226562 L 44.34375 39.640625 L 49.515625 45.070312 L 46.800781 47.65625 Z M 41.628906 42.226562 "/>
</g>
</svg>
