<?xml version="1.0" encoding="UTF-8"?>
<svg xmlns="http://www.w3.org/2000/svg" xmlns:xlink="http://www.w3.org/1999/xlink" width="60pt" height="60pt" viewBox="0 0 60 60" version="1.1">
<g id="surface142">
<path style=" stroke:none;fill-rule:nonzero;fill:rgb(54.509807%,71.764708%,94.117647%);fill-opacity:1;" d="M 18.75 46.875 C 9.445312 46.875 1.875 39.304688 1.875 30 C 1.875 20.695312 9.445312 13.125 18.75 13.125 L 41.25 13.125 C 50.554688 13.125 58.125 20.695312 58.125 30 C 58.125 39.304688 50.554688 46.875 41.25 46.875 Z M 18.75 46.875 "/>
<path style=" stroke:none;fill-rule:nonzero;fill:rgb(30.588236%,47.843137%,70.980394%);fill-opacity:1;" d="M 41.25 15 C 49.523438 15 56.25 21.726562 56.25 30 C 56.25 38.273438 49.523438 45 41.25 45 L 18.75 45 C 10.476562 45 3.75 38.273438 3.75 30 C 3.75 21.726562 10.476562 15 18.75 15 L 41.25 15 M 41.25 11.25 L 18.75 11.25 C 8.394531 11.25 0 19.644531 0 30 C 0 40.355469 8.394531 48.75 18.75 48.75 L 41.25 48.75 C 51.605469 48.75 60 40.355469 60 30 C 60 19.644531 51.605469 11.25 41.25 11.25 Z M 41.25 11.25 "/>
<path style=" stroke:none;fill-rule:nonzero;fill:rgb(100%,100%,100%);fill-opacity:1;" d="M 41.25 41.25 C 47.464844 41.25 52.5 36.214844 52.5 30 C 52.5 23.785156 47.464844 18.75 41.25 18.75 C 35.035156 18.75 30 23.785156 30 30 C 30 36.214844 35.035156 41.25 41.25 41.25 Z M 41.25 41.25 "/>
</g>
</svg>
