<?xml version="1.0" encoding="UTF-8"?>
<svg xmlns="http://www.w3.org/2000/svg" xmlns:xlink="http://www.w3.org/1999/xlink" width="60pt" height="60pt" viewBox="0 0 60 60" version="1.1">
<g id="surface130">
<path style=" stroke:none;fill-rule:nonzero;fill:rgb(40.000001%,47.450981%,56.078434%);fill-opacity:1;" d="M 52.5 7.5 L 52.5 52.5 L 7.5 52.5 L 7.5 7.5 L 52.5 7.5 M 56.25 3.75 L 3.75 3.75 L 3.75 56.25 L 56.25 56.25 Z M 56.25 3.75 "/>
<path style=" stroke:none;fill-rule:nonzero;fill:rgb(40.000001%,47.450981%,56.078434%);fill-opacity:1;" d="M 41.25 15 L 15 15 L 15 22.5 L 18.75 22.5 L 19.6875 18.75 L 26.25 18.75 L 26.25 40 L 22.5 41.25 L 22.5 45 L 37.5 45 L 37.5 41.25 L 33.75 40 L 33.75 18.75 L 40.3125 18.75 L 41.25 22.5 L 45 22.5 L 45 15 Z M 41.25 15 "/>
<path style=" stroke:none;fill-rule:nonzero;fill:rgb(30.588236%,47.843137%,70.980394%);fill-opacity:1;" d="M 48.75 0 L 60 0 L 60 11.25 L 48.75 11.25 Z M 0 0 L 11.25 0 L 11.25 11.25 L 0 11.25 Z M 48.75 48.75 L 60 48.75 L 60 60 L 48.75 60 Z M 0 48.75 L 11.25 48.75 L 11.25 60 L 0 60 Z M 0 48.75 "/>
</g>
</svg>
