<?xml version="1.0" encoding="UTF-8"?>
<svg xmlns="http://www.w3.org/2000/svg" xmlns:xlink="http://www.w3.org/1999/xlink" width="60pt" height="60pt" viewBox="0 0 60 60" version="1.1">
<g id="surface523">
<path style=" stroke:none;fill-rule:nonzero;fill:rgb(76.078433%,90.980393%,100%);fill-opacity:1;" d="M 1.875 9.375 L 58.125 9.375 L 58.125 50.625 L 1.875 50.625 Z M 1.875 9.375 "/>
<path style=" stroke:none;fill-rule:nonzero;fill:rgb(45.490196%,58.823532%,76.862746%);fill-opacity:1;" d="M 56.25 11.25 L 56.25 48.75 L 3.75 48.75 L 3.75 11.25 L 56.25 11.25 M 60 7.5 L 0 7.5 L 0 52.5 L 60 52.5 Z M 60 7.5 "/>
<path style=" stroke:none;fill-rule:nonzero;fill:rgb(69.01961%,75.686276%,83.137256%);fill-opacity:1;" d="M 20.8125 54.375 C 21.683594 50.101562 25.46875 46.875 30 46.875 C 34.53125 46.875 38.3125 50.101562 39.1875 54.375 Z M 20.8125 54.375 "/>
<path style=" stroke:none;fill-rule:nonzero;fill:rgb(40.000001%,47.450981%,56.078434%);fill-opacity:1;" d="M 30 48.75 C 32.769531 48.75 35.195312 50.261719 36.496094 52.5 L 23.503906 52.5 C 24.804688 50.261719 27.230469 48.75 30 48.75 M 30 45 C 23.785156 45 18.75 50.035156 18.75 56.25 L 41.25 56.25 C 41.25 50.035156 36.214844 45 30 45 Z M 30 45 "/>
<path style=" stroke:none;fill-rule:nonzero;fill:rgb(54.509807%,71.764708%,94.117647%);fill-opacity:1;" d="M 18.75 20.625 C 13.574219 20.625 9.375 24.824219 9.375 30 C 9.375 35.175781 13.574219 39.375 18.75 39.375 C 23.925781 39.375 28.125 35.175781 28.125 30 C 28.125 24.824219 23.925781 20.625 18.75 20.625 Z M 18.75 20.625 "/>
<path style=" stroke:none;fill-rule:nonzero;fill:rgb(30.588236%,47.843137%,70.980394%);fill-opacity:1;" d="M 18.75 22.5 C 22.886719 22.5 26.25 25.863281 26.25 30 C 26.25 34.136719 22.886719 37.5 18.75 37.5 C 14.613281 37.5 11.25 34.136719 11.25 30 C 11.25 25.863281 14.613281 22.5 18.75 22.5 M 18.75 18.75 C 12.535156 18.75 7.5 23.785156 7.5 30 C 7.5 36.214844 12.535156 41.25 18.75 41.25 C 24.964844 41.25 30 36.214844 30 30 C 30 23.785156 24.964844 18.75 18.75 18.75 Z M 18.75 18.75 "/>
<path style=" stroke:none;fill-rule:nonzero;fill:rgb(96.862745%,56.078434%,56.078434%);fill-opacity:1;" d="M 20.625 28.125 L 20.625 20.8125 C 24.292969 21.5625 27.1875 24.457031 27.9375 28.125 Z M 20.625 28.125 "/>
<path style=" stroke:none;fill-rule:nonzero;fill:rgb(78.039217%,26.274511%,26.274511%);fill-opacity:1;" d="M 22.5 23.503906 C 23.636719 24.164062 24.585938 25.113281 25.246094 26.25 L 22.5 26.25 L 22.5 23.503906 M 18.75 18.75 L 18.75 30 L 30 30 C 30 23.785156 24.964844 18.75 18.75 18.75 Z M 18.75 18.75 "/>
<path style=" stroke:none;fill-rule:nonzero;fill:rgb(30.588236%,47.843137%,70.980394%);fill-opacity:1;" d="M 52.5 22.5 L 37.5 22.5 L 37.5 18.75 L 52.5 18.75 Z M 52.5 22.5 "/>
<path style=" stroke:none;fill-rule:nonzero;fill:rgb(55.29412%,75.686276%,87.843138%);fill-opacity:1;" d="M 52.5 22.5 L 48.75 22.5 L 48.75 18.75 L 52.5 18.75 Z M 52.5 22.5 "/>
<path style=" stroke:none;fill-rule:nonzero;fill:rgb(30.588236%,47.843137%,70.980394%);fill-opacity:1;" d="M 52.5 30 L 37.5 30 L 37.5 26.25 L 52.5 26.25 Z M 52.5 30 "/>
<path style=" stroke:none;fill-rule:nonzero;fill:rgb(55.29412%,75.686276%,87.843138%);fill-opacity:1;" d="M 52.5 30 L 41.25 30 L 41.25 26.25 L 52.5 26.25 Z M 52.5 30 "/>
<path style=" stroke:none;fill-rule:nonzero;fill:rgb(30.588236%,47.843137%,70.980394%);fill-opacity:1;" d="M 52.5 37.5 L 37.5 37.5 L 37.5 33.75 L 52.5 33.75 Z M 52.5 37.5 "/>
<path style=" stroke:none;fill-rule:nonzero;fill:rgb(55.29412%,75.686276%,87.843138%);fill-opacity:1;" d="M 52.5 37.5 L 45 37.5 L 45 33.75 L 52.5 33.75 Z M 52.5 37.5 "/>
</g>
</svg>
