<?xml version="1.0" encoding="UTF-8"?>
<svg xmlns="http://www.w3.org/2000/svg" xmlns:xlink="http://www.w3.org/1999/xlink" width="13.5pt" height="13.5pt" viewBox="0 0 13.5 13.5" version="1.1">
<g id="surface3783">
<path style=" stroke:none;fill-rule:nonzero;fill:rgb(100%,93.333334%,63.921571%);fill-opacity:1;" d="M 8.53125 4.875 L 7.3125 2.84375 L 3.898438 2.753906 L 4.0625 10.15625 C 3.976562 9.488281 3.167969 8.980469 2.476562 8.980469 C 1.722656 8.980469 1.269531 9.605469 1.269531 10.359375 C 1.269531 11.109375 1.78125 11.78125 2.535156 11.78125 L 10.15625 11.78125 L 10.15625 5.53125 Z M 8.53125 4.875 "/>
<path style=" stroke:none;fill-rule:nonzero;fill:rgb(90.980393%,83.137256%,48.235294%);fill-opacity:1;" d="M 3.800781 10.039062 C 3.828125 9.644531 3.25 8.933594 2.484375 8.933594 C 1.703125 8.933594 1.261719 9.335938 1.261719 10.117188 L 1.21875 2.394531 C 1.21875 1.613281 1.851562 0.980469 2.632812 0.980469 C 3.417969 0.980469 3.800781 1.664062 3.800781 2.445312 C 3.800781 2.816406 3.800781 10.039062 3.800781 10.039062 Z M 3.800781 10.039062 "/>
<path style="fill:none;stroke-width:1;stroke-linecap:butt;stroke-linejoin:miter;stroke:rgb(72.941178%,60.784316%,28.235295%);stroke-opacity:1;stroke-miterlimit:10;" d="M 5 3.25 C 5 2.283654 4.216346 1.5 3.25 1.5 C 2.283654 1.5 1.5 2.283654 1.5 3.25 L 1.5 12.557692 " transform="matrix(0.8125,0,0,0.8125,0,0)"/>
<path style="fill:none;stroke-width:1;stroke-linecap:butt;stroke-linejoin:miter;stroke:rgb(72.941178%,60.784316%,28.235295%);stroke-opacity:1;stroke-miterlimit:10;" d="M 12.5 7.528846 L 12.5 14.5 L 3.25 14.5 C 2.283654 14.5 1.5 13.716346 1.5 12.75 C 1.5 11.783654 2.283654 11 3.25 11 C 4.216346 11 5 11.783654 5 12.75 L 4.990385 3.5 L 9 3.5 " transform="matrix(0.8125,0,0,0.8125,0,0)"/>
<path style=" stroke:none;fill-rule:nonzero;fill:rgb(54.509807%,45.882353%,63.137257%);fill-opacity:1;" d="M 12.1875 3.65625 C 12.1875 3.414062 12.1875 3.167969 12.105469 2.925781 L 12.835938 2.355469 L 12.1875 1.300781 L 11.292969 1.625 C 10.96875 1.300781 10.5625 1.054688 10.074219 0.894531 L 9.992188 0 L 8.773438 0 L 8.613281 0.894531 C 8.125 1.054688 7.71875 1.300781 7.394531 1.625 L 6.5 1.300781 L 5.851562 2.355469 L 6.582031 2.925781 C 6.5 3.167969 6.5 3.414062 6.5 3.65625 C 6.5 3.898438 6.5 4.144531 6.582031 4.386719 L 5.851562 4.957031 L 6.5 6.011719 L 7.394531 5.6875 C 7.71875 6.011719 8.125 6.257812 8.613281 6.417969 L 8.773438 7.3125 L 9.992188 7.3125 L 10.15625 6.417969 C 10.644531 6.257812 11.050781 6.011719 11.375 5.6875 L 12.269531 6.011719 L 12.917969 4.957031 L 12.1875 4.386719 C 12.1875 4.144531 12.1875 3.898438 12.1875 3.65625 Z M 9.34375 4.710938 C 8.773438 4.710938 8.289062 4.226562 8.289062 3.65625 C 8.289062 3.085938 8.773438 2.601562 9.34375 2.601562 C 9.914062 2.601562 10.398438 3.085938 10.398438 3.65625 C 10.398438 4.226562 9.914062 4.710938 9.34375 4.710938 Z M 9.34375 4.710938 "/>
</g>
</svg>
