<?xml version="1.0" encoding="UTF-8"?>
<svg xmlns="http://www.w3.org/2000/svg" xmlns:xlink="http://www.w3.org/1999/xlink" width="12pt" height="12pt" viewBox="0 0 12 12" version="1.1">
<g id="surface71">
<path style=" stroke:none;fill-rule:nonzero;fill:rgb(60.000002%,78.823531%,61.960787%);fill-opacity:1;" d="M 0.375 7.875 L 0.375 3 C 0.375 2.792969 0.542969 2.625 0.75 2.625 L 11.25 2.625 C 11.457031 2.625 11.625 2.792969 11.625 3 L 11.625 7.875 Z M 0.375 7.875 "/>
<path style=" stroke:none;fill-rule:nonzero;fill:rgb(36.862746%,61.176473%,46.27451%);fill-opacity:1;" d="M 11.25 3 L 11.25 7.5 L 0.75 7.5 L 0.75 3 L 11.25 3 M 11.25 2.25 L 0.75 2.25 C 0.335938 2.25 0 2.585938 0 3 L 0 8.25 L 12 8.25 L 12 3 C 12 2.585938 11.664062 2.25 11.25 2.25 Z M 11.25 2.25 "/>
<path style=" stroke:none;fill-rule:nonzero;fill:rgb(21.176471%,25.098041%,30.19608%);fill-opacity:1;" d="M 0 7.5 L 0 9.75 L 5.25 9.75 L 5.25 9 C 5.25 8.585938 5.585938 8.25 6 8.25 C 6.414062 8.25 6.75 8.585938 6.75 9 L 6.75 9.75 L 12 9.75 L 12 7.5 Z M 0 7.5 "/>
<path style=" stroke:none;fill-rule:nonzero;fill:rgb(96.078432%,80.784315%,52.156866%);fill-opacity:1;" d="M 11.25 9.75 L 11.25 8.609375 C 11.25 8.410156 11.082031 8.25 10.875 8.25 C 10.667969 8.25 10.5 8.410156 10.5 8.609375 L 10.5 9.75 Z M 9.75 9.75 L 9.75 8.609375 C 9.75 8.410156 9.582031 8.25 9.375 8.25 C 9.167969 8.25 9 8.410156 9 8.609375 L 9 9.75 Z M 8.25 9.75 L 8.25 8.609375 C 8.25 8.410156 8.082031 8.25 7.875 8.25 C 7.667969 8.25 7.5 8.410156 7.5 8.609375 L 7.5 9.75 Z M 4.5 9.75 L 4.5 8.609375 C 4.5 8.410156 4.332031 8.25 4.125 8.25 C 3.917969 8.25 3.75 8.410156 3.75 8.609375 L 3.75 9.75 Z M 3 9.75 L 3 8.609375 C 3 8.410156 2.832031 8.25 2.625 8.25 C 2.417969 8.25 2.25 8.410156 2.25 8.609375 L 2.25 9.75 Z M 1.5 9.75 L 1.5 8.609375 C 1.5 8.410156 1.332031 8.25 1.125 8.25 C 0.917969 8.25 0.75 8.410156 0.75 8.609375 L 0.75 9.75 Z M 1.5 9.75 "/>
<path style=" stroke:none;fill-rule:nonzero;fill:rgb(29.411766%,39.215687%,46.666667%);fill-opacity:1;" d="M 1.875 4.125 L 2.625 4.125 L 2.625 6.375 L 1.875 6.375 Z M 1.875 4.125 "/>
<path style=" stroke:none;fill-rule:nonzero;fill:rgb(21.176471%,25.098041%,30.19608%);fill-opacity:1;" d="M 2.25 4.5 L 2.25 6 L 2.25 4.5 M 3 3.75 L 1.5 3.75 L 1.5 6.75 L 3 6.75 Z M 3 3.75 "/>
<path style=" stroke:none;fill-rule:nonzero;fill:rgb(29.411766%,39.215687%,46.666667%);fill-opacity:1;" d="M 4.125 4.125 L 4.875 4.125 L 4.875 6.375 L 4.125 6.375 Z M 4.125 4.125 "/>
<path style=" stroke:none;fill-rule:nonzero;fill:rgb(21.176471%,25.098041%,30.19608%);fill-opacity:1;" d="M 4.5 4.5 L 4.5 6 L 4.5 4.5 M 5.25 3.75 L 3.75 3.75 L 3.75 6.75 L 5.25 6.75 Z M 5.25 3.75 "/>
<path style=" stroke:none;fill-rule:nonzero;fill:rgb(29.411766%,39.215687%,46.666667%);fill-opacity:1;" d="M 7.125 4.125 L 7.875 4.125 L 7.875 6.375 L 7.125 6.375 Z M 7.125 4.125 "/>
<path style=" stroke:none;fill-rule:nonzero;fill:rgb(21.176471%,25.098041%,30.19608%);fill-opacity:1;" d="M 7.5 4.5 L 7.5 6 L 7.5 4.5 M 8.25 3.75 L 6.75 3.75 L 6.75 6.75 L 8.25 6.75 Z M 8.25 3.75 "/>
<path style=" stroke:none;fill-rule:nonzero;fill:rgb(29.411766%,39.215687%,46.666667%);fill-opacity:1;" d="M 9.375 4.125 L 10.125 4.125 L 10.125 6.375 L 9.375 6.375 Z M 9.375 4.125 "/>
<path style=" stroke:none;fill-rule:nonzero;fill:rgb(21.176471%,25.098041%,30.19608%);fill-opacity:1;" d="M 9.75 4.5 L 9.75 6 L 9.75 4.5 M 10.5 3.75 L 9 3.75 L 9 6.75 L 10.5 6.75 Z M 10.5 3.75 "/>
</g>
</svg>
