<?xml version="1.0" encoding="UTF-8"?>
<svg xmlns="http://www.w3.org/2000/svg" xmlns:xlink="http://www.w3.org/1999/xlink" width="60pt" height="60pt" viewBox="0 0 60 60" version="1.1">
<g id="surface951">
<path style=" stroke:none;fill-rule:nonzero;fill:rgb(100%,100%,100%);fill-opacity:1;" d="M 1.875 1.875 L 58.125 1.875 L 58.125 58.125 L 1.875 58.125 Z M 1.875 1.875 "/>
<path style=" stroke:none;fill-rule:nonzero;fill:rgb(47.058824%,54.509807%,61.176473%);fill-opacity:1;" d="M 56.25 3.75 L 56.25 56.25 L 3.75 56.25 L 3.75 3.75 L 56.25 3.75 M 60 0 L 0 0 L 0 60 L 60 60 Z M 60 0 "/>
<path style=" stroke:none;fill-rule:nonzero;fill:rgb(77.254903%,83.137256%,87.058824%);fill-opacity:1;" d="M 15 3.75 L 15 56.25 L 11.25 56.25 L 11.25 3.75 Z M 15 3.75 "/>
<path style=" stroke:none;fill-rule:nonzero;fill:rgb(77.254903%,83.137256%,87.058824%);fill-opacity:1;" d="M 26.25 3.75 L 26.25 56.25 L 22.5 56.25 L 22.5 3.75 Z M 26.25 3.75 "/>
<path style=" stroke:none;fill-rule:nonzero;fill:rgb(77.254903%,83.137256%,87.058824%);fill-opacity:1;" d="M 37.5 3.75 L 37.5 56.25 L 33.75 56.25 L 33.75 3.75 Z M 37.5 3.75 "/>
<path style=" stroke:none;fill-rule:nonzero;fill:rgb(77.254903%,83.137256%,87.058824%);fill-opacity:1;" d="M 48.75 3.75 L 48.75 56.25 L 45 56.25 L 45 3.75 Z M 48.75 3.75 "/>
<path style=" stroke:none;fill-rule:nonzero;fill:rgb(77.254903%,83.137256%,87.058824%);fill-opacity:1;" d="M 56.25 15 L 3.75 15 L 3.75 11.25 L 56.25 11.25 Z M 56.25 15 "/>
<path style=" stroke:none;fill-rule:nonzero;fill:rgb(77.254903%,83.137256%,87.058824%);fill-opacity:1;" d="M 56.25 26.25 L 3.75 26.25 L 3.75 22.5 L 56.25 22.5 Z M 56.25 26.25 "/>
<path style=" stroke:none;fill-rule:nonzero;fill:rgb(77.254903%,83.137256%,87.058824%);fill-opacity:1;" d="M 56.25 37.5 L 3.75 37.5 L 3.75 33.75 L 56.25 33.75 Z M 56.25 37.5 "/>
<path style=" stroke:none;fill-rule:nonzero;fill:rgb(77.254903%,83.137256%,87.058824%);fill-opacity:1;" d="M 56.25 48.75 L 3.75 48.75 L 3.75 45 L 56.25 45 Z M 56.25 48.75 "/>
</g>
</svg>
