<?xml version="1.0" encoding="UTF-8"?>
<svg xmlns="http://www.w3.org/2000/svg" xmlns:xlink="http://www.w3.org/1999/xlink" width="60pt" height="60pt" viewBox="0 0 60 60" version="1.1">
<g id="surface1108">
<path style=" stroke:none;fill-rule:nonzero;fill:rgb(100%,100%,100%);fill-opacity:1;" d="M 1.875 16.875 L 50.625 16.875 L 50.625 58.125 L 1.875 58.125 Z M 1.875 16.875 "/>
<path style=" stroke:none;fill-rule:nonzero;fill:rgb(47.058824%,54.509807%,61.176473%);fill-opacity:1;" d="M 48.75 18.75 L 48.75 56.25 L 3.75 56.25 L 3.75 18.75 L 48.75 18.75 M 52.5 15 L 0 15 L 0 60 L 52.5 60 Z M 52.5 15 "/>
<path style=" stroke:none;fill-rule:nonzero;fill:rgb(78.431374%,81.960785%,85.882354%);fill-opacity:1;" d="M 1.875 16.875 L 1.875 11.25 C 1.875 10.125 2.625 9.375 3.75 9.375 L 48.75 9.375 C 49.875 9.375 50.625 10.125 50.625 11.25 L 50.625 16.875 Z M 1.875 16.875 "/>
<path style=" stroke:none;fill-rule:nonzero;fill:rgb(40.000001%,47.450981%,56.078434%);fill-opacity:1;" d="M 48.75 11.25 L 48.75 15 L 3.75 15 L 3.75 11.25 L 48.75 11.25 M 48.75 7.5 L 3.75 7.5 C 1.5 7.5 0 9 0 11.25 L 0 18.75 L 52.5 18.75 L 52.5 11.25 C 52.5 9 51 7.5 48.75 7.5 Z M 48.75 7.5 "/>
<path style=" stroke:none;fill-rule:nonzero;fill:rgb(100%,100%,100%);fill-opacity:1;" d="M 9.375 9.375 L 58.125 9.375 L 58.125 50.625 L 9.375 50.625 Z M 9.375 9.375 "/>
<path style=" stroke:none;fill-rule:nonzero;fill:rgb(47.058824%,54.509807%,61.176473%);fill-opacity:1;" d="M 56.25 11.25 L 56.25 48.75 L 11.25 48.75 L 11.25 11.25 L 56.25 11.25 M 60 7.5 L 7.5 7.5 L 7.5 52.5 L 60 52.5 Z M 60 7.5 "/>
<path style=" stroke:none;fill-rule:nonzero;fill:rgb(78.431374%,81.960785%,85.882354%);fill-opacity:1;" d="M 9.375 9.375 L 9.375 3.75 C 9.375 2.625 10.125 1.875 11.25 1.875 L 56.25 1.875 C 57.375 1.875 58.125 2.625 58.125 3.75 L 58.125 9.375 Z M 9.375 9.375 "/>
<path style=" stroke:none;fill-rule:nonzero;fill:rgb(40.000001%,47.450981%,56.078434%);fill-opacity:1;" d="M 56.25 3.75 L 56.25 7.5 L 11.25 7.5 L 11.25 3.75 L 56.25 3.75 M 56.25 0 L 11.25 0 C 9 0 7.5 1.5 7.5 3.75 L 7.5 11.25 L 60 11.25 L 60 3.75 C 60 1.5 58.5 0 56.25 0 Z M 56.25 0 "/>
<path style=" stroke:none;fill-rule:nonzero;fill:rgb(47.058824%,54.509807%,61.176473%);fill-opacity:1;" d="M 26.25 18.75 L 48.75 18.75 L 48.75 22.5 L 26.25 22.5 Z M 26.25 26.25 L 48.75 26.25 L 48.75 30 L 26.25 30 Z M 26.25 33.75 L 48.75 33.75 L 48.75 37.5 L 26.25 37.5 Z M 18.75 18.75 L 22.5 18.75 L 22.5 22.5 L 18.75 22.5 Z M 18.75 26.25 L 22.5 26.25 L 22.5 30 L 18.75 30 Z M 18.75 33.75 L 22.5 33.75 L 22.5 37.5 L 18.75 37.5 Z M 18.75 33.75 "/>
</g>
</svg>
