<svg width="16" height="16" enable-background="new" version="1.1" xmlns="http://www.w3.org/2000/svg">
 <title>Gnome Symbolic Icons</title>
 <path d="m11.889 4.1109c-0.19587-0.19587-0.51124-0.19587-0.70711 0l-3.182 3.182-3.182-3.182c-0.19587-0.19587-0.51124-0.19587-0.70711 0s-0.19587 0.51124 0 0.70711l3.182 3.182-3.182 3.182c-0.19587 0.19587-0.19587 0.51124 0 0.70711s0.51124 0.19587 0.70711 0l3.182-3.182 3.182 3.182c0.19587 0.19587 0.51124 0.19587 0.70711 0s0.19587-0.51124 0-0.70711l-3.182-3.182 3.182-3.182c0.19587-0.19587 0.19587-0.51124 0-0.70711z" fill="#ffffff" stroke-linecap="square" stroke-width="2" style="paint-order:stroke fill markers"/>
</svg>
