<?xml version="1.0" encoding="UTF-8"?>
<svg xmlns="http://www.w3.org/2000/svg" xmlns:xlink="http://www.w3.org/1999/xlink" width="13.5pt" height="13.5pt" viewBox="0 0 13.5 13.5" version="1.1">
<g id="surface5089">
<path style=" stroke:none;fill-rule:nonzero;fill:rgb(65.882355%,87.058824%,100%);fill-opacity:1;" d="M 4.332031 6.714844 C 3.976562 6.714844 3.683594 6.425781 3.683594 6.066406 L 3.683594 1.300781 C 3.683594 0.941406 3.976562 0.648438 4.332031 0.648438 L 11.265625 0.648438 C 11.625 0.648438 11.917969 0.941406 11.917969 1.300781 L 11.917969 6.066406 C 11.917969 6.425781 11.625 6.714844 11.265625 6.714844 Z M 4.332031 6.714844 "/>
<path style=" stroke:none;fill-rule:nonzero;fill:rgb(47.058824%,54.509807%,61.176473%);fill-opacity:1;" d="M 11.265625 0.867188 C 11.503906 0.867188 11.699219 1.0625 11.699219 1.300781 L 11.699219 6.066406 C 11.699219 6.304688 11.503906 6.5 11.265625 6.5 L 4.332031 6.5 C 4.09375 6.5 3.898438 6.304688 3.898438 6.066406 L 3.898438 1.300781 C 3.898438 1.0625 4.09375 0.867188 4.332031 0.867188 L 11.265625 0.867188 M 11.265625 0.433594 L 4.332031 0.433594 C 3.855469 0.433594 3.464844 0.820312 3.464844 1.300781 L 3.464844 6.066406 C 3.464844 6.546875 3.855469 6.933594 4.332031 6.933594 L 11.265625 6.933594 C 11.746094 6.933594 12.132812 6.546875 12.132812 6.066406 L 12.132812 1.300781 C 12.132812 0.820312 11.746094 0.433594 11.265625 0.433594 Z M 11.265625 0.433594 "/>
<path style=" stroke:none;fill-rule:nonzero;fill:rgb(47.058824%,54.509807%,61.176473%);fill-opacity:1;" d="M 3.464844 7.367188 L 12.132812 7.367188 C 12.613281 7.367188 13 6.980469 13 6.5 L 2.601562 6.5 C 2.601562 6.980469 2.988281 7.367188 3.464844 7.367188 Z M 3.464844 7.367188 "/>
<path style=" stroke:none;fill-rule:nonzero;fill:rgb(86.274511%,83.529413%,94.901961%);fill-opacity:1;" d="M 2.601562 10.183594 C 2.242188 10.183594 1.949219 9.890625 1.949219 9.535156 L 1.949219 3.464844 C 1.949219 3.109375 2.242188 2.816406 2.601562 2.816406 L 6.933594 2.816406 C 7.292969 2.816406 7.582031 3.109375 7.582031 3.464844 L 7.582031 9.535156 C 7.582031 9.890625 7.292969 10.183594 6.933594 10.183594 Z M 2.601562 10.183594 "/>
<path style=" stroke:none;fill-rule:nonzero;fill:rgb(54.509807%,45.882353%,63.137257%);fill-opacity:1;" d="M 6.933594 3.035156 C 7.171875 3.035156 7.367188 3.226562 7.367188 3.464844 L 7.367188 9.535156 C 7.367188 9.773438 7.171875 9.964844 6.933594 9.964844 L 2.601562 9.964844 C 2.359375 9.964844 2.167969 9.773438 2.167969 9.535156 L 2.167969 3.464844 C 2.167969 3.226562 2.359375 3.035156 2.601562 3.035156 L 6.933594 3.035156 M 6.933594 2.601562 L 2.601562 2.601562 C 2.121094 2.601562 1.734375 2.988281 1.734375 3.464844 L 1.734375 9.535156 C 1.734375 10.011719 2.121094 10.398438 2.601562 10.398438 L 6.933594 10.398438 C 7.414062 10.398438 7.800781 10.011719 7.800781 9.535156 L 7.800781 3.464844 C 7.800781 2.988281 7.414062 2.601562 6.933594 2.601562 Z M 6.933594 2.601562 "/>
<path style=" stroke:none;fill-rule:nonzero;fill:rgb(94.901961%,98.039216%,100%);fill-opacity:1;" d="M 2.816406 3.683594 L 6.714844 3.683594 L 6.714844 9.316406 L 2.816406 9.316406 Z M 2.816406 3.683594 "/>
<path style=" stroke:none;fill-rule:nonzero;fill:rgb(54.509807%,45.882353%,63.137257%);fill-opacity:1;" d="M 6.5 3.898438 L 6.5 9.101562 L 3.035156 9.101562 L 3.035156 3.898438 L 6.5 3.898438 M 6.933594 3.464844 L 2.601562 3.464844 L 2.601562 9.535156 L 6.933594 9.535156 Z M 6.933594 3.464844 "/>
<path style=" stroke:none;fill-rule:nonzero;fill:rgb(100%,76.862746%,61.176473%);fill-opacity:1;" d="M 0.867188 12.351562 C 0.746094 12.351562 0.648438 12.253906 0.648438 12.132812 L 0.648438 6.5 C 0.648438 6.378906 0.746094 6.285156 0.867188 6.285156 L 3.898438 6.285156 C 4.019531 6.285156 4.117188 6.378906 4.117188 6.5 L 4.117188 12.132812 C 4.117188 12.253906 4.019531 12.351562 3.898438 12.351562 Z M 0.867188 12.351562 "/>
<path style=" stroke:none;fill-rule:nonzero;fill:rgb(63.137257%,41.568628%,29.019609%);fill-opacity:1;" d="M 3.898438 6.5 L 3.898438 12.132812 L 0.867188 12.132812 L 0.867188 6.5 L 3.898438 6.5 M 3.898438 6.066406 L 0.867188 6.066406 C 0.628906 6.066406 0.433594 6.261719 0.433594 6.5 L 0.433594 12.132812 C 0.433594 12.371094 0.628906 12.566406 0.867188 12.566406 L 3.898438 12.566406 C 4.140625 12.566406 4.332031 12.371094 4.332031 12.132812 L 4.332031 6.5 C 4.332031 6.261719 4.140625 6.066406 3.898438 6.066406 Z M 3.898438 6.066406 "/>
<path style=" stroke:none;fill-rule:nonzero;fill:rgb(94.901961%,98.039216%,100%);fill-opacity:1;" d="M 0.648438 7.148438 L 4.117188 7.148438 L 4.117188 11.484375 L 0.648438 11.484375 Z M 0.648438 7.148438 "/>
<path style=" stroke:none;fill-rule:nonzero;fill:rgb(63.137257%,41.568628%,29.019609%);fill-opacity:1;" d="M 3.898438 7.367188 L 3.898438 11.265625 L 0.867188 11.265625 L 0.867188 7.367188 L 3.898438 7.367188 M 4.332031 6.933594 L 0.433594 6.933594 L 0.433594 11.699219 L 4.332031 11.699219 Z M 4.332031 6.933594 "/>
</g>
</svg>
