<?xml version="1.0" encoding="UTF-8"?>
<svg xmlns="http://www.w3.org/2000/svg" xmlns:xlink="http://www.w3.org/1999/xlink" width="13.5pt" height="13.5pt" viewBox="0 0 13.5 13.5" version="1.1">
<g id="surface2791">
<path style=" stroke:none;fill-rule:nonzero;fill:rgb(76.078433%,90.980393%,100%);fill-opacity:1;" d="M 6.507812 12.53125 C 4.765625 12.53125 3.339844 11.996094 2.265625 10.9375 C 1.195312 9.882812 0.648438 8.480469 0.648438 6.777344 C 0.648438 5.027344 1.21875 3.554688 2.339844 2.394531 C 3.460938 1.238281 4.914062 0.648438 6.652344 0.648438 C 8.28125 0.648438 9.652344 1.144531 10.722656 2.113281 C 11.800781 3.09375 12.351562 4.382812 12.351562 5.949219 C 12.351562 7.101562 12.058594 8.058594 11.484375 8.804688 C 10.898438 9.566406 10.167969 9.953125 9.316406 9.953125 C 8.671875 9.953125 7.929688 9.738281 7.664062 8.835938 C 7.25 9.578125 6.605469 9.953125 5.746094 9.953125 C 5.046875 9.953125 4.472656 9.6875 4.042969 9.167969 C 3.621094 8.660156 3.410156 7.976562 3.410156 7.132812 C 3.410156 6.039062 3.695312 5.113281 4.261719 4.382812 C 4.839844 3.636719 5.609375 3.257812 6.546875 3.257812 C 6.921875 3.257812 7.265625 3.355469 7.5625 3.550781 C 7.65625 3.613281 7.738281 3.679688 7.8125 3.75 C 7.820312 3.691406 7.824219 3.625 7.832031 3.558594 C 7.84375 3.445312 7.9375 3.363281 8.046875 3.363281 L 8.917969 3.363281 C 8.980469 3.363281 9.039062 3.386719 9.078125 3.429688 C 9.121094 3.476562 9.140625 3.535156 9.132812 3.597656 C 8.835938 7.082031 8.808594 7.460938 8.808594 7.496094 C 8.808594 8.714844 9.269531 8.714844 9.421875 8.714844 C 9.847656 8.714844 10.195312 8.484375 10.488281 8.003906 C 10.796875 7.496094 10.953125 6.824219 10.953125 6.003906 C 10.953125 4.792969 10.566406 3.789062 9.804688 3.027344 C 9.042969 2.265625 7.964844 1.878906 6.597656 1.878906 C 5.285156 1.878906 4.1875 2.34375 3.332031 3.257812 C 2.472656 4.179688 2.039062 5.347656 2.039062 6.734375 C 2.039062 8.097656 2.449219 9.210938 3.261719 10.039062 C 4.074219 10.867188 5.1875 11.289062 6.578125 11.289062 C 7.6875 11.289062 8.644531 11.101562 9.425781 10.738281 C 9.457031 10.722656 9.488281 10.71875 9.519531 10.71875 C 9.558594 10.71875 9.601562 10.726562 9.636719 10.75 C 9.699219 10.789062 9.734375 10.859375 9.734375 10.933594 L 9.734375 11.796875 C 9.734375 11.886719 9.683594 11.964844 9.605469 11.996094 C 8.777344 12.351562 7.734375 12.53125 6.507812 12.53125 Z M 6.535156 4.5 C 6.03125 4.5 5.632812 4.738281 5.320312 5.222656 C 4.988281 5.734375 4.820312 6.382812 4.820312 7.148438 C 4.820312 7.644531 4.925781 8.039062 5.136719 8.3125 C 5.332031 8.574219 5.589844 8.703125 5.921875 8.703125 C 6.417969 8.703125 6.804688 8.457031 7.105469 7.949219 C 7.421875 7.410156 7.578125 6.679688 7.578125 5.773438 C 7.578125 4.632812 6.984375 4.5 6.535156 4.5 Z M 6.535156 4.5 "/>
<path style=" stroke:none;fill-rule:nonzero;fill:rgb(30.588236%,47.843137%,70.980394%);fill-opacity:1;" d="M 6.652344 0.867188 C 8.234375 0.867188 9.542969 1.335938 10.578125 2.273438 C 11.613281 3.214844 12.132812 4.4375 12.132812 5.949219 C 12.132812 7.054688 11.859375 7.964844 11.3125 8.671875 C 10.769531 9.378906 10.101562 9.734375 9.316406 9.734375 C 8.296875 9.734375 7.789062 9.183594 7.78125 8.074219 L 7.746094 8.074219 C 7.410156 9.183594 6.742188 9.734375 5.746094 9.734375 C 5.109375 9.734375 4.597656 9.5 4.210938 9.03125 C 3.820312 8.5625 3.628906 7.929688 3.628906 7.136719 C 3.628906 6.085938 3.894531 5.210938 4.433594 4.515625 C 4.96875 3.824219 5.675781 3.476562 6.546875 3.476562 C 6.882812 3.476562 7.183594 3.5625 7.445312 3.734375 C 7.707031 3.90625 7.875 4.121094 7.949219 4.382812 L 7.976562 4.382812 C 7.988281 4.25 8.007812 3.984375 8.046875 3.578125 L 8.917969 3.578125 C 8.699219 6.140625 8.589844 7.445312 8.589844 7.492188 C 8.589844 8.453125 8.867188 8.933594 9.421875 8.933594 C 9.921875 8.933594 10.339844 8.660156 10.671875 8.117188 C 11.003906 7.574219 11.171875 6.871094 11.171875 6.003906 C 11.171875 4.726562 10.765625 3.683594 9.957031 2.875 C 9.148438 2.066406 8.027344 1.660156 6.597656 1.660156 C 5.214844 1.660156 4.074219 2.144531 3.171875 3.113281 C 2.273438 4.078125 1.820312 5.289062 1.820312 6.738281 C 1.820312 8.164062 2.25 9.316406 3.109375 10.191406 C 3.964844 11.066406 5.121094 11.507812 6.574219 11.507812 C 7.722656 11.507812 8.703125 11.316406 9.519531 10.933594 L 9.519531 11.800781 C 8.714844 12.144531 7.710938 12.316406 6.507812 12.316406 C 4.8125 12.316406 3.453125 11.804688 2.417969 10.785156 C 1.382812 9.765625 0.867188 8.429688 0.867188 6.777344 C 0.867188 5.078125 1.410156 3.667969 2.496094 2.546875 C 3.578125 1.425781 4.964844 0.867188 6.652344 0.867188 M 5.921875 8.917969 C 6.496094 8.917969 6.953125 8.632812 7.292969 8.058594 C 7.628906 7.484375 7.796875 6.722656 7.796875 5.773438 C 7.796875 4.78125 7.375 4.28125 6.535156 4.28125 C 5.957031 4.28125 5.492188 4.558594 5.136719 5.105469 C 4.78125 5.65625 4.601562 6.335938 4.601562 7.148438 C 4.601562 7.699219 4.722656 8.128906 4.960938 8.445312 C 5.203125 8.761719 5.523438 8.917969 5.921875 8.917969 M 8.917969 3.578125 L 8.921875 3.578125 M 6.652344 0.433594 C 4.851562 0.433594 3.347656 1.042969 2.183594 2.246094 C 1.023438 3.445312 0.433594 4.96875 0.433594 6.777344 C 0.433594 8.542969 1 9.992188 2.113281 11.09375 C 3.226562 12.191406 4.707031 12.75 6.507812 12.75 C 7.761719 12.75 8.835938 12.5625 9.6875 12.199219 C 9.847656 12.128906 9.953125 11.972656 9.953125 11.800781 L 9.953125 10.933594 C 9.953125 10.785156 9.875 10.648438 9.75 10.570312 C 9.679688 10.523438 9.601562 10.5 9.519531 10.5 C 9.457031 10.5 9.394531 10.515625 9.335938 10.542969 C 8.582031 10.894531 7.65625 11.074219 6.578125 11.074219 C 5.230469 11.074219 4.199219 10.6875 3.417969 9.890625 C 2.636719 9.089844 2.253906 8.058594 2.253906 6.738281 C 2.253906 5.386719 2.660156 4.300781 3.492188 3.40625 C 4.316406 2.523438 5.332031 2.09375 6.597656 2.09375 C 7.921875 2.09375 8.921875 2.449219 9.652344 3.179688 C 10.382812 3.914062 10.738281 4.835938 10.738281 6.003906 C 10.738281 6.785156 10.59375 7.417969 10.304688 7.890625 C 9.96875 8.4375 9.640625 8.5 9.421875 8.5 C 9.160156 8.5 9.023438 8.160156 9.023438 7.492188 C 9.027344 7.445312 9.074219 6.863281 9.347656 3.648438 C 9.351562 3.625 9.351562 3.601562 9.351562 3.578125 C 9.351562 3.339844 9.160156 3.144531 8.921875 3.144531 L 8.046875 3.144531 C 7.886719 3.144531 7.746094 3.234375 7.671875 3.363281 C 7.339844 3.148438 6.964844 3.042969 6.550781 3.042969 C 5.539062 3.042969 4.710938 3.449219 4.089844 4.253906 C 3.496094 5.023438 3.195312 5.992188 3.195312 7.136719 C 3.195312 8.03125 3.421875 8.761719 3.875 9.308594 C 4.347656 9.878906 4.976562 10.167969 5.746094 10.167969 C 6.339844 10.167969 7.070312 9.992188 7.621094 9.292969 C 7.933594 9.867188 8.507812 10.167969 9.316406 10.167969 C 10.238281 10.167969 11.027344 9.753906 11.65625 8.9375 C 12.261719 8.152344 12.566406 7.148438 12.566406 5.949219 C 12.566406 4.320312 11.996094 2.972656 10.871094 1.953125 C 9.753906 0.945312 8.335938 0.433594 6.652344 0.433594 Z M 5.921875 8.484375 C 5.65625 8.484375 5.464844 8.394531 5.308594 8.183594 C 5.128906 7.945312 5.035156 7.597656 5.035156 7.148438 C 5.035156 6.421875 5.191406 5.816406 5.5 5.339844 C 5.777344 4.914062 6.105469 4.714844 6.535156 4.714844 C 6.964844 4.714844 7.363281 4.84375 7.363281 5.773438 C 7.363281 6.640625 7.214844 7.335938 6.917969 7.839844 C 6.660156 8.28125 6.34375 8.484375 5.921875 8.484375 Z M 5.921875 8.484375 "/>
</g>
</svg>
