<?xml version="1.0" encoding="UTF-8"?>
<svg xmlns="http://www.w3.org/2000/svg" xmlns:xlink="http://www.w3.org/1999/xlink" width="13.5pt" height="13.5pt" viewBox="0 0 13.5 13.5" version="1.1">
<g id="surface1501">
<path style=" stroke:none;fill-rule:nonzero;fill:rgb(96.078432%,80.784315%,52.156866%);fill-opacity:1;" d="M 0.679688 11.527344 L 1.113281 10.117188 L 4.921875 6.308594 L 4.691406 6.082031 C 4.4375 5.828125 4.4375 5.414062 4.691406 5.160156 L 5.015625 4.835938 L 5.007812 4.730469 C 4.992188 4.601562 4.984375 4.46875 4.984375 4.332031 C 4.984375 2.300781 6.636719 0.648438 8.667969 0.648438 L 8.769531 0.652344 C 10.691406 0.703125 12.296875 2.308594 12.347656 4.226562 C 12.375 5.234375 12.007812 6.183594 11.308594 6.902344 C 10.609375 7.621094 9.667969 8.015625 8.667969 8.015625 C 8.53125 8.015625 8.398438 8.007812 8.269531 7.992188 L 8.164062 7.984375 L 7.839844 8.308594 C 7.714844 8.433594 7.554688 8.5 7.378906 8.5 C 7.207031 8.5 7.042969 8.433594 6.917969 8.308594 L 6.691406 8.078125 L 5.453125 9.316406 L 4.550781 9.316406 L 4.550781 10.21875 L 4.152344 10.617188 L 3.25 10.617188 L 3.25 11.519531 L 2.882812 11.890625 L 1.472656 12.320312 Z M 8.667969 1.949219 C 8.03125 1.949219 7.429688 2.199219 6.980469 2.648438 L 6.828125 2.800781 L 10.199219 6.171875 L 10.351562 6.019531 C 10.800781 5.570312 11.050781 4.96875 11.050781 4.332031 C 11.050781 3.695312 10.800781 3.097656 10.351562 2.648438 C 9.902344 2.199219 9.304688 1.949219 8.667969 1.949219 Z M 8.667969 1.949219 "/>
<path style=" stroke:none;fill-rule:nonzero;fill:rgb(58.823532%,47.843137%,26.666668%);fill-opacity:1;" d="M 8.667969 0.867188 C 8.699219 0.867188 8.734375 0.867188 8.765625 0.867188 C 10.570312 0.917969 12.082031 2.429688 12.132812 4.234375 C 12.15625 5.179688 11.808594 6.074219 11.152344 6.75 C 10.492188 7.425781 9.609375 7.800781 8.667969 7.800781 C 8.546875 7.800781 8.421875 7.792969 8.292969 7.777344 L 8.085938 7.757812 L 7.9375 7.902344 L 7.6875 8.15625 C 7.605469 8.238281 7.496094 8.28125 7.378906 8.28125 C 7.261719 8.28125 7.15625 8.238281 7.074219 8.15625 L 6.691406 7.773438 L 6.382812 8.078125 L 5.363281 9.101562 L 4.332031 9.101562 L 4.332031 10.128906 L 4.0625 10.398438 L 3.035156 10.398438 L 3.035156 11.429688 L 2.765625 11.699219 L 1.535156 12.074219 L 0.925781 11.464844 L 1.304688 10.230469 L 5.226562 6.308594 L 4.917969 6.003906 L 4.84375 5.925781 C 4.761719 5.84375 4.71875 5.738281 4.71875 5.621094 C 4.71875 5.503906 4.761719 5.398438 4.84375 5.316406 L 5.097656 5.0625 L 5.242188 4.914062 L 5.222656 4.710938 C 5.207031 4.578125 5.199219 4.453125 5.199219 4.332031 C 5.199219 2.421875 6.753906 0.867188 8.667969 0.867188 M 10.199219 6.476562 L 10.503906 6.171875 C 10.996094 5.679688 11.265625 5.027344 11.265625 4.332031 C 11.265625 3.640625 10.996094 2.984375 10.503906 2.496094 C 10.015625 2.003906 9.359375 1.734375 8.667969 1.734375 C 7.972656 1.734375 7.320312 2.003906 6.828125 2.496094 L 6.523438 2.800781 L 6.828125 3.109375 L 9.890625 6.171875 L 10.199219 6.476562 M 8.667969 0.433594 C 6.511719 0.433594 4.765625 2.179688 4.765625 4.332031 C 4.765625 4.476562 4.773438 4.617188 4.789062 4.753906 L 4.539062 5.007812 C 4.199219 5.347656 4.199219 5.894531 4.539062 6.234375 L 4.613281 6.308594 L 0.921875 10 L 0.433594 11.585938 L 1.414062 12.566406 L 2.996094 12.078125 L 3.464844 11.609375 L 3.464844 10.832031 L 4.242188 10.832031 L 4.765625 10.308594 L 4.765625 9.535156 L 5.542969 9.535156 L 6.691406 8.386719 L 6.765625 8.464844 C 6.9375 8.632812 7.15625 8.71875 7.378906 8.71875 C 7.601562 8.71875 7.824219 8.632812 7.992188 8.464844 L 8.246094 8.210938 C 8.382812 8.226562 8.523438 8.234375 8.667969 8.234375 C 10.855469 8.234375 12.625 6.425781 12.566406 4.222656 C 12.507812 2.1875 10.8125 0.492188 8.777344 0.433594 C 8.742188 0.433594 8.703125 0.433594 8.667969 0.433594 Z M 10.199219 5.867188 L 7.136719 2.800781 C 7.558594 2.378906 8.113281 2.167969 8.667969 2.167969 C 9.222656 2.167969 9.777344 2.378906 10.199219 2.800781 C 11.042969 3.648438 11.042969 5.019531 10.199219 5.867188 Z M 10.199219 5.867188 "/>
<path style=" stroke:none;fill-rule:nonzero;fill:rgb(85.882354%,69.01961%,39.607844%);fill-opacity:1;" d="M 1.796875 10.464844 L 5.480469 6.78125 L 5.785156 7.085938 L 2.101562 10.769531 Z M 1.796875 10.464844 "/>
<path style=" stroke:none;fill-rule:nonzero;fill:rgb(58.823532%,47.843137%,26.666668%);fill-opacity:1;" d="M 4.796875 6.492188 L 5.101562 6.1875 L 6.8125 7.898438 L 6.507812 8.203125 Z M 4.796875 6.492188 "/>
</g>
</svg>
