<?xml version="1.0" encoding="UTF-8" standalone="no"?>
<!DOCTYPE svg PUBLIC "-//W3C//DTD SVG 1.1//EN" "http://www.w3.org/Graphics/SVG/1.1/DTD/svg11.dtd">
<svg width="100%" height="100%" viewBox="0 0 60 60" version="1.1" xmlns="http://www.w3.org/2000/svg" xmlns:xlink="http://www.w3.org/1999/xlink" xml:space="preserve" xmlns:serif="http://www.serif.com/" style="fill-rule:evenodd;clip-rule:evenodd;stroke-linejoin:round;stroke-miterlimit:2;">
    <g id="surface3755">
        <rect x="1.875" y="7.875" width="56.25" height="44.25" style="fill:url(#_Linear1);fill-rule:nonzero;"/>
        <path d="M57.75,8.25L57.75,51.75L2.25,51.75L2.25,8.25L57.75,8.25M58.5,7.5L1.5,7.5L1.5,52.5L58.5,52.5L58.5,7.5Z" style="fill:rgb(186,155,72);fill-rule:nonzero;"/>
        <path d="M13.5,15L46.5,15L46.5,18L13.5,18L13.5,15ZM13.5,21L46.5,21L46.5,21.75L13.5,21.75L13.5,21ZM13.5,24L46.5,24L46.5,24.75L13.5,24.75L13.5,24Z" style="fill:rgb(186,155,72);fill-rule:nonzero;"/>
        <path d="M6,52.5C6,50.016 3.984,48 1.5,48L1.5,52.5L6,52.5ZM58.5,48C56.016,48 54,50.016 54,52.5L58.5,52.5L58.5,48ZM54,7.5C54,9.984 56.016,12 58.5,12L58.5,7.5L54,7.5ZM1.5,12C3.984,12 6,9.984 6,7.5L1.5,7.5L1.5,12Z" style="fill:rgb(186,155,72);fill-rule:nonzero;"/>
        <g transform="matrix(1,0,0,1,30,39.2205)">
            <g transform="matrix(1,0,0,1,-11.25,-11.25)">
                <g id="surface1565">
                    <path d="M9.742,12.789L13.887,8.641L20.891,15.641L17.434,16.336L16.742,19.793L9.742,12.789Z" style="fill:rgb(194,232,254);fill-rule:nonzero;"/>
                    <path d="M13.887,9.027L20.352,15.477L17.602,16.027L17.242,16.098L17.172,16.457L16.621,19.207L10.125,12.789L13.887,9.027M13.887,8.25L9.352,12.789L16.914,20.352L17.672,16.57L21.449,15.813L13.887,8.25Z" style="fill:rgb(115,150,196);fill-rule:nonzero;"/>
                    <path d="M4.566,16.336L1.109,15.641L8.113,8.641L12.258,12.789L5.258,19.793L4.566,16.336Z" style="fill:rgb(194,232,254);fill-rule:nonzero;"/>
                    <path d="M8.113,9.027L11.875,12.789L5.422,19.25L4.871,16.5L4.801,16.141L4.445,16.07L1.695,15.52L8.113,9.027M8.113,8.25L0.551,15.813L4.336,16.57L5.086,20.352L12.648,12.789L8.113,8.25Z" style="fill:rgb(115,150,196);fill-rule:nonzero;"/>
                    <path d="M11,16.773C10.086,16.773 9.23,16.313 8.723,15.555C8.633,15.418 8.48,15.332 8.316,15.336L8.219,15.336C8.035,15.371 7.852,15.391 7.668,15.391C6.848,15.383 6.07,15.008 5.555,14.367C5.039,13.73 4.836,12.895 5,12.09C5.039,11.895 4.957,11.695 4.789,11.59C4.035,11.078 3.582,10.223 3.582,9.313C3.582,8.398 4.035,7.547 4.789,7.035C4.934,6.938 5.016,6.773 5.004,6.602C4.84,5.797 5.043,4.961 5.563,4.32C6.078,3.684 6.852,3.309 7.672,3.301C7.855,3.301 8.043,3.32 8.223,3.355L8.32,3.355C8.484,3.355 8.641,3.273 8.727,3.137C9.238,2.379 10.094,1.926 11.004,1.926C11.918,1.926 12.77,2.379 13.281,3.137C13.371,3.273 13.523,3.355 13.691,3.355L13.789,3.355C13.969,3.316 14.152,3.301 14.34,3.301C15.16,3.309 15.934,3.684 16.449,4.32C16.965,4.961 17.172,5.797 17.008,6.602C16.969,6.793 17.051,6.992 17.215,7.102C17.969,7.613 18.422,8.465 18.422,9.379C18.422,10.289 17.969,11.145 17.215,11.656C17.051,11.762 16.969,11.961 17.008,12.156C17.172,12.961 16.965,13.797 16.449,14.434C15.934,15.074 15.16,15.445 14.34,15.453C14.152,15.453 13.969,15.438 13.789,15.398L13.691,15.398C13.523,15.398 13.371,15.48 13.281,15.621C12.758,16.355 11.906,16.789 11,16.773Z" style="fill:rgb(254,196,156);fill-rule:nonzero;"/>
                    <path d="M11,2.199C11.824,2.195 12.598,2.609 13.047,3.301C13.188,3.512 13.422,3.641 13.68,3.641L13.828,3.641C13.988,3.609 14.156,3.59 14.32,3.59C15.059,3.594 15.75,3.926 16.215,4.496C16.68,5.066 16.863,5.813 16.719,6.535C16.664,6.832 16.797,7.137 17.051,7.305C17.734,7.762 18.145,8.527 18.145,9.352C18.145,10.172 17.734,10.941 17.051,11.395C16.793,11.566 16.664,11.879 16.727,12.184C16.871,12.902 16.684,13.648 16.223,14.219C15.758,14.789 15.063,15.121 14.328,15.125C14.16,15.125 13.996,15.109 13.832,15.074L13.684,15.074C13.43,15.074 13.191,15.203 13.051,15.418C12.594,16.102 11.828,16.512 11.004,16.512C10.184,16.512 9.414,16.102 8.961,15.418C8.82,15.203 8.582,15.074 8.328,15.074L8.18,15.074C8.016,15.109 7.852,15.125 7.684,15.125C6.949,15.121 6.254,14.789 5.789,14.219C5.324,13.648 5.141,12.902 5.285,12.184C5.348,11.875 5.215,11.563 4.949,11.395C4.266,10.941 3.855,10.172 3.855,9.352C3.855,8.527 4.266,7.762 4.949,7.305C5.207,7.133 5.336,6.82 5.273,6.516C5.129,5.797 5.316,5.051 5.777,4.48C6.242,3.91 6.938,3.578 7.672,3.574C7.84,3.574 8.004,3.59 8.168,3.625L8.316,3.625C8.57,3.629 8.809,3.508 8.953,3.301C9.402,2.609 10.176,2.195 11,2.199M11,1.648C9.992,1.648 9.051,2.152 8.496,2.992C8.457,3.051 8.391,3.086 8.32,3.086L8.25,3.086C8.051,3.047 7.848,3.023 7.645,3.023C6.754,3.039 5.918,3.445 5.355,4.133C4.797,4.824 4.566,5.727 4.734,6.602C4.754,6.684 4.719,6.77 4.648,6.82C3.809,7.379 3.305,8.316 3.305,9.324C3.305,10.332 3.809,11.273 4.648,11.832C4.719,11.879 4.754,11.965 4.734,12.051C4.559,12.934 4.785,13.848 5.352,14.547C5.922,15.242 6.773,15.648 7.672,15.652C7.875,15.652 8.078,15.633 8.277,15.594L8.32,15.594C8.391,15.594 8.457,15.629 8.496,15.688C9.055,16.523 9.996,17.027 11.004,17.027C12.012,17.027 12.949,16.523 13.508,15.688C13.547,15.629 13.613,15.594 13.684,15.594L13.75,15.594C13.949,15.633 14.152,15.652 14.355,15.652C15.238,15.637 16.074,15.234 16.633,14.551C17.195,13.867 17.426,12.969 17.266,12.102C17.246,12.016 17.281,11.93 17.352,11.879C18.191,11.324 18.695,10.383 18.695,9.375C18.695,8.367 18.191,7.426 17.352,6.871C17.281,6.82 17.246,6.734 17.266,6.648C17.449,5.766 17.227,4.844 16.656,4.141C16.086,3.438 15.23,3.027 14.328,3.023C14.125,3.023 13.922,3.047 13.723,3.086L13.68,3.086C13.609,3.086 13.543,3.051 13.504,2.992C12.949,2.152 12.008,1.648 11,1.648Z" style="fill:rgb(161,106,74);fill-rule:nonzero;"/>
                    <path d="M11,14.574C8.113,14.574 5.773,12.234 5.773,9.352C5.773,6.465 8.113,4.125 11,4.125C13.887,4.125 16.227,6.465 16.227,9.352C16.223,12.234 13.883,14.57 11,14.574Z" style="fill:rgb(254,196,156);fill-rule:nonzero;"/>
                    <path d="M11,4.398C13.734,4.398 15.949,6.617 15.949,9.352C15.949,12.082 13.734,14.301 11,14.301C8.266,14.301 6.051,12.082 6.051,9.352C6.051,6.617 8.266,4.398 11,4.398M11,3.852C7.961,3.852 5.5,6.313 5.5,9.352C5.5,12.387 7.961,14.852 11,14.852C14.039,14.852 16.5,12.387 16.5,9.352C16.5,6.313 14.039,3.852 11,3.852Z" style="fill:rgb(161,106,74);fill-rule:nonzero;"/>
                </g>
            </g>
        </g>
    </g>
    <defs>
        <linearGradient id="_Linear1" x1="0" y1="0" x2="1" y2="0" gradientUnits="userSpaceOnUse" gradientTransform="matrix(56.25,0,0,44.25,1.875,30)"><stop offset="0" style="stop-color:rgb(255,243,195);stop-opacity:1"/><stop offset="1" style="stop-color:rgb(255,237,162);stop-opacity:1"/></linearGradient>
    </defs>
</svg>
