<?xml version="1.0" encoding="UTF-8"?>
<svg xmlns="http://www.w3.org/2000/svg" xmlns:xlink="http://www.w3.org/1999/xlink" width="13.5pt" height="13.5pt" viewBox="0 0 13.5 13.5" version="1.1">
<g id="surface2406">
<path style=" stroke:none;fill-rule:nonzero;fill:rgb(54.509807%,71.764708%,94.117647%);fill-opacity:1;" d="M 1.300781 10.617188 C 0.941406 10.617188 0.648438 10.324219 0.648438 9.964844 L 0.648438 3.035156 C 0.648438 2.675781 0.941406 2.382812 1.300781 2.382812 L 11.699219 2.382812 C 12.058594 2.382812 12.351562 2.675781 12.351562 3.035156 L 12.351562 9.964844 C 12.351562 10.324219 12.058594 10.617188 11.699219 10.617188 Z M 1.300781 10.617188 "/>
<path style=" stroke:none;fill-rule:nonzero;fill:rgb(30.588236%,47.843137%,70.980394%);fill-opacity:1;" d="M 11.699219 2.601562 C 11.9375 2.601562 12.132812 2.792969 12.132812 3.035156 L 12.132812 9.964844 C 12.132812 10.207031 11.9375 10.398438 11.699219 10.398438 L 1.300781 10.398438 C 1.0625 10.398438 0.867188 10.207031 0.867188 9.964844 L 0.867188 3.035156 C 0.867188 2.792969 1.0625 2.601562 1.300781 2.601562 L 11.699219 2.601562 M 11.699219 2.167969 L 1.300781 2.167969 C 0.820312 2.167969 0.433594 2.554688 0.433594 3.035156 L 0.433594 9.964844 C 0.433594 10.445312 0.820312 10.832031 1.300781 10.832031 L 11.699219 10.832031 C 12.179688 10.832031 12.566406 10.445312 12.566406 9.964844 L 12.566406 3.035156 C 12.566406 2.554688 12.179688 2.167969 11.699219 2.167969 Z M 11.699219 2.167969 "/>
<path style=" stroke:none;fill-rule:nonzero;fill:rgb(88.235295%,92.156863%,94.901961%);fill-opacity:1;" d="M 1.949219 4.117188 L 4.117188 4.117188 L 4.117188 5.851562 L 1.949219 5.851562 Z M 1.949219 4.117188 "/>
<path style=" stroke:none;fill-rule:nonzero;fill:rgb(30.588236%,47.843137%,70.980394%);fill-opacity:1;" d="M 3.898438 4.332031 L 3.898438 5.632812 L 2.167969 5.632812 L 2.167969 4.332031 L 3.898438 4.332031 M 4.332031 3.898438 L 1.734375 3.898438 L 1.734375 6.066406 L 4.332031 6.066406 Z M 4.332031 3.898438 "/>
<path style=" stroke:none;fill-rule:nonzero;fill:rgb(88.235295%,92.156863%,94.901961%);fill-opacity:1;" d="M 1.734375 6.933594 L 3.464844 6.933594 L 3.464844 7.800781 L 1.734375 7.800781 Z M 4.332031 6.933594 L 6.066406 6.933594 L 6.066406 7.800781 L 4.332031 7.800781 Z M 6.933594 6.933594 L 8.667969 6.933594 L 8.667969 7.800781 L 6.933594 7.800781 Z M 6.066406 3.464844 L 11.265625 3.464844 L 11.265625 4.765625 L 6.066406 4.765625 Z M 1.734375 8.667969 L 7.367188 8.667969 L 7.367188 9.535156 L 1.734375 9.535156 Z M 1.734375 8.667969 "/>
<path style=" stroke:none;fill-rule:nonzero;fill:rgb(100%,93.333334%,63.921571%);fill-opacity:1;" d="M 10.398438 12.765625 C 9.996094 12.597656 8.070312 11.59375 8.015625 7.957031 L 10.398438 7.160156 L 12.78125 7.957031 C 12.726562 11.582031 10.800781 12.59375 10.398438 12.765625 Z M 10.398438 12.765625 "/>
<path style=" stroke:none;fill-rule:nonzero;fill:rgb(72.941178%,60.784316%,28.235295%);fill-opacity:1;" d="M 10.398438 7.390625 L 12.5625 8.109375 C 12.464844 11.269531 10.886719 12.289062 10.398438 12.527344 C 9.910156 12.289062 8.335938 11.273438 8.238281 8.109375 L 10.398438 7.390625 M 10.398438 6.933594 L 7.800781 7.800781 C 7.800781 12.132812 10.398438 13 10.398438 13 C 10.398438 13 13 12.121094 13 7.800781 Z M 10.398438 6.933594 "/>
<path style=" stroke:none;fill-rule:nonzero;fill:rgb(100%,76.862746%,61.176473%);fill-opacity:1;" d="M 10.398438 12.03125 C 9.882812 11.703125 8.84375 10.757812 8.6875 8.417969 L 10.398438 7.847656 L 12.113281 8.417969 C 11.953125 10.757812 10.910156 11.703125 10.398438 12.03125 Z M 10.398438 12.03125 "/>
</g>
</svg>
