<?xml version="1.0" encoding="UTF-8"?>
<svg xmlns="http://www.w3.org/2000/svg" xmlns:xlink="http://www.w3.org/1999/xlink" width="13.5pt" height="13.5pt" viewBox="0 0 13.5 13.5" version="1.1">
<g id="surface2590">
<path style=" stroke:none;fill-rule:nonzero;fill:rgb(83.92157%,89.019608%,92.941177%);fill-opacity:1;" d="M 1.300781 10.617188 C 0.941406 10.617188 0.648438 10.324219 0.648438 9.964844 L 0.648438 3.035156 C 0.648438 2.675781 0.941406 2.382812 1.300781 2.382812 L 11.699219 2.382812 C 12.058594 2.382812 12.351562 2.675781 12.351562 3.035156 L 12.351562 9.964844 C 12.351562 10.324219 12.058594 10.617188 11.699219 10.617188 Z M 1.300781 10.617188 "/>
<path style=" stroke:none;fill-rule:nonzero;fill:rgb(47.058824%,54.509807%,61.176473%);fill-opacity:1;" d="M 11.699219 2.601562 C 11.9375 2.601562 12.132812 2.792969 12.132812 3.035156 L 12.132812 9.964844 C 12.132812 10.207031 11.9375 10.398438 11.699219 10.398438 L 1.300781 10.398438 C 1.0625 10.398438 0.867188 10.207031 0.867188 9.964844 L 0.867188 3.035156 C 0.867188 2.792969 1.0625 2.601562 1.300781 2.601562 L 11.699219 2.601562 M 11.699219 2.167969 L 1.300781 2.167969 C 0.820312 2.167969 0.433594 2.554688 0.433594 3.035156 L 0.433594 9.964844 C 0.433594 10.445312 0.820312 10.832031 1.300781 10.832031 L 11.699219 10.832031 C 12.179688 10.832031 12.566406 10.445312 12.566406 9.964844 L 12.566406 3.035156 C 12.566406 2.554688 12.179688 2.167969 11.699219 2.167969 Z M 11.699219 2.167969 "/>
<path style=" stroke:none;fill-rule:nonzero;fill:rgb(100%,93.333334%,63.921571%);fill-opacity:1;" d="M 4.332031 4.117188 C 3.734375 4.117188 3.25 4.601562 3.25 5.199219 C 3.25 5.796875 3.734375 6.285156 4.332031 6.285156 C 4.933594 6.285156 5.417969 5.796875 5.417969 5.199219 C 5.417969 4.601562 4.933594 4.117188 4.332031 4.117188 Z M 4.332031 4.117188 "/>
<path style=" stroke:none;fill-rule:nonzero;fill:rgb(72.941178%,60.784316%,28.235295%);fill-opacity:1;" d="M 4.332031 4.332031 C 4.8125 4.332031 5.199219 4.722656 5.199219 5.199219 C 5.199219 5.679688 4.8125 6.066406 4.332031 6.066406 C 3.855469 6.066406 3.464844 5.679688 3.464844 5.199219 C 3.464844 4.722656 3.855469 4.332031 4.332031 4.332031 M 4.332031 3.898438 C 3.617188 3.898438 3.035156 4.480469 3.035156 5.199219 C 3.035156 5.917969 3.617188 6.5 4.332031 6.5 C 5.050781 6.5 5.632812 5.917969 5.632812 5.199219 C 5.632812 4.480469 5.050781 3.898438 4.332031 3.898438 Z M 4.332031 3.898438 "/>
<path style=" stroke:none;fill-rule:nonzero;fill:rgb(76.078433%,90.980393%,100%);fill-opacity:1;" d="M 2.394531 8.882812 C 2.503906 7.910156 3.332031 7.148438 4.332031 7.148438 C 5.335938 7.148438 6.164062 7.910156 6.269531 8.882812 Z M 2.394531 8.882812 "/>
<path style=" stroke:none;fill-rule:nonzero;fill:rgb(45.490196%,58.823532%,76.862746%);fill-opacity:1;" d="M 4.332031 7.367188 C 5.140625 7.367188 5.820312 7.921875 6.011719 8.667969 L 2.65625 8.667969 C 2.847656 7.921875 3.527344 7.367188 4.332031 7.367188 M 4.332031 6.933594 C 3.136719 6.933594 2.167969 7.902344 2.167969 9.101562 L 6.5 9.101562 C 6.5 7.902344 5.53125 6.933594 4.332031 6.933594 Z M 4.332031 6.933594 "/>
<path style="fill:none;stroke-width:1;stroke-linecap:butt;stroke-linejoin:miter;stroke:rgb(47.058824%,54.509807%,61.176473%);stroke-opacity:1;stroke-miterlimit:10;" d="M 24.996995 12.503005 L 17.001202 12.503005 M 24.996995 15.495793 L 17.001202 15.495793 M 24.996995 18.497596 L 17.001202 18.497596 " transform="matrix(0.433333,0,0,0.433333,0,0)"/>
</g>
</svg>
