<?xml version="1.0" encoding="UTF-8"?>
<svg xmlns="http://www.w3.org/2000/svg" xmlns:xlink="http://www.w3.org/1999/xlink" width="13.5pt" height="13.5pt" viewBox="0 0 13.5 13.5" version="1.1">
<g id="surface4934">
<path style=" stroke:none;fill-rule:nonzero;fill:rgb(69.01961%,75.686276%,83.137256%);fill-opacity:1;" d="M 5.417969 8.882812 L 7.582031 8.882812 L 7.582031 11.050781 L 5.417969 11.050781 Z M 5.417969 8.882812 "/>
<path style=" stroke:none;fill-rule:nonzero;fill:rgb(40.000001%,47.450981%,56.078434%);fill-opacity:1;" d="M 7.367188 9.101562 L 7.367188 10.832031 L 5.632812 10.832031 L 5.632812 9.101562 L 7.367188 9.101562 M 7.800781 8.667969 L 5.199219 8.667969 L 5.199219 11.265625 L 7.800781 11.265625 Z M 7.800781 8.667969 "/>
<path style=" stroke:none;fill-rule:nonzero;fill:rgb(72.941178%,87.843138%,74.117649%);fill-opacity:1;" d="M 0.648438 1.515625 L 12.351562 1.515625 L 12.351562 9.75 L 0.648438 9.75 Z M 0.648438 1.515625 "/>
<path style=" stroke:none;fill-rule:nonzero;fill:rgb(40.000001%,47.450981%,56.078434%);fill-opacity:1;" d="M 12.132812 1.734375 L 12.132812 9.535156 L 0.867188 9.535156 L 0.867188 1.734375 L 12.132812 1.734375 M 12.566406 1.300781 L 0.433594 1.300781 L 0.433594 9.964844 L 12.566406 9.964844 Z M 12.566406 1.300781 "/>
<path style=" stroke:none;fill-rule:nonzero;fill:rgb(40.000001%,47.450981%,56.078434%);fill-opacity:1;" d="M 0.867188 8.667969 L 12.132812 8.667969 L 12.132812 9.535156 L 0.867188 9.535156 Z M 9.964844 11.699219 L 2.945312 11.699219 C 2.945312 11.222656 3.335938 10.832031 3.8125 10.832031 L 9.101562 10.832031 C 9.578125 10.832031 9.964844 11.222656 9.964844 11.699219 Z M 9.964844 11.699219 "/>
<path style=" stroke:none;fill-rule:nonzero;fill:rgb(100%,93.333334%,63.921571%);fill-opacity:1;" d="M 10.832031 9.101562 L 11.699219 9.101562 L 11.699219 9.535156 L 10.832031 9.535156 Z M 10.832031 9.101562 "/>
<path style=" stroke:none;fill-rule:nonzero;fill:rgb(36.862746%,61.176473%,46.27451%);fill-opacity:1;" d="M 5.632812 7.539062 L 3.597656 5.503906 L 4.203125 4.898438 L 5.632812 6.328125 L 8.796875 3.164062 L 9.402344 3.769531 Z M 5.632812 7.539062 "/>
</g>
</svg>
