<?xml version="1.0" encoding="UTF-8"?>
<svg xmlns="http://www.w3.org/2000/svg" xmlns:xlink="http://www.w3.org/1999/xlink" width="13.5pt" height="13.5pt" viewBox="0 0 13.5 13.5" version="1.1">
<g id="surface2014">
<path style=" stroke:none;fill-rule:nonzero;fill:rgb(100%,100%,100%);fill-opacity:1;" d="M 2.03125 11.78125 L 2.03125 0.40625 L 8.042969 0.40625 L 10.96875 3.414062 L 10.96875 11.78125 Z M 2.03125 11.78125 "/>
<path style=" stroke:none;fill-rule:nonzero;fill:rgb(47.058824%,54.509807%,61.176473%);fill-opacity:1;" d="M 7.882812 0.8125 L 10.5625 3.574219 L 10.5625 11.375 L 2.4375 11.375 L 2.4375 0.8125 L 7.882812 0.8125 M 8.207031 0 L 1.625 0 L 1.625 12.1875 L 11.375 12.1875 L 11.375 3.25 Z M 8.207031 0 "/>
<path style=" stroke:none;fill-rule:nonzero;fill:rgb(100%,100%,100%);fill-opacity:1;" d="M 7.71875 3.65625 L 7.71875 0.40625 L 7.960938 0.40625 L 10.96875 3.414062 L 10.96875 3.65625 Z M 7.71875 3.65625 "/>
<path style=" stroke:none;fill-rule:nonzero;fill:rgb(47.058824%,54.509807%,61.176473%);fill-opacity:1;" d="M 8.125 1.136719 L 10.238281 3.25 L 8.125 3.25 L 8.125 1.136719 M 8.125 0 L 7.3125 0 L 7.3125 4.0625 L 11.375 4.0625 L 11.375 3.25 Z M 8.125 0 "/>
<path style=" stroke:none;fill-rule:nonzero;fill:rgb(69.803923%,44.705883%,85.882354%);fill-opacity:1;" d="M 8.855469 9.507812 L 8.207031 9.179688 L 8.855469 7.71875 L 8.207031 6.257812 L 8.855469 5.929688 L 9.832031 7.71875 Z M 4.144531 9.507812 L 3.167969 7.71875 L 4.144531 5.929688 L 4.792969 6.257812 L 4.144531 7.71875 L 4.792969 9.179688 Z M 4.144531 9.507812 "/>
<path style=" stroke:none;fill-rule:nonzero;fill:rgb(69.803923%,44.705883%,85.882354%);fill-opacity:1;" d="M 5.699219 10.054688 L 6.511719 5.167969 L 7.3125 5.300781 L 6.5 10.191406 Z M 5.699219 10.054688 "/>
</g>
</svg>
