<?xml version="1.0" encoding="UTF-8"?>
<svg xmlns="http://www.w3.org/2000/svg" xmlns:xlink="http://www.w3.org/1999/xlink" width="13.5pt" height="13.5pt" viewBox="0 0 13.5 13.5" version="1.1">
<g id="surface36470">
<path style=" stroke:none;fill-rule:nonzero;fill:rgb(40.000001%,47.450981%,56.078434%);fill-opacity:1;" d="M 11.375 1.625 L 11.375 11.375 L 1.625 11.375 L 1.625 1.625 L 11.375 1.625 M 11.699219 1.300781 L 1.300781 1.300781 L 1.300781 11.699219 L 11.699219 11.699219 Z M 11.699219 1.300781 "/>
<path style=" stroke:none;fill-rule:nonzero;fill:rgb(54.509807%,71.764708%,94.117647%);fill-opacity:1;" d="M 10.5625 0.488281 L 12.511719 0.488281 L 12.511719 2.4375 L 10.5625 2.4375 Z M 10.5625 0.488281 "/>
<path style=" stroke:none;fill-rule:nonzero;fill:rgb(30.588236%,47.843137%,70.980394%);fill-opacity:1;" d="M 12.351562 0.648438 L 12.351562 2.273438 L 10.726562 2.273438 L 10.726562 0.648438 L 12.351562 0.648438 M 12.675781 0.324219 L 10.398438 0.324219 L 10.398438 2.601562 L 12.675781 2.601562 Z M 12.675781 0.324219 "/>
<path style=" stroke:none;fill-rule:nonzero;fill:rgb(54.509807%,71.764708%,94.117647%);fill-opacity:1;" d="M 0.488281 0.488281 L 2.4375 0.488281 L 2.4375 2.4375 L 0.488281 2.4375 Z M 0.488281 0.488281 "/>
<path style=" stroke:none;fill-rule:nonzero;fill:rgb(30.588236%,47.843137%,70.980394%);fill-opacity:1;" d="M 2.273438 0.648438 L 2.273438 2.273438 L 0.648438 2.273438 L 0.648438 0.648438 L 2.273438 0.648438 M 2.601562 0.324219 L 0.324219 0.324219 L 0.324219 2.601562 L 2.601562 2.601562 Z M 2.601562 0.324219 "/>
<path style=" stroke:none;fill-rule:nonzero;fill:rgb(54.509807%,71.764708%,94.117647%);fill-opacity:1;" d="M 10.5625 10.5625 L 12.511719 10.5625 L 12.511719 12.511719 L 10.5625 12.511719 Z M 10.5625 10.5625 "/>
<path style=" stroke:none;fill-rule:nonzero;fill:rgb(30.588236%,47.843137%,70.980394%);fill-opacity:1;" d="M 12.351562 10.726562 L 12.351562 12.351562 L 10.726562 12.351562 L 10.726562 10.726562 L 12.351562 10.726562 M 12.675781 10.398438 L 10.398438 10.398438 L 10.398438 12.675781 L 12.675781 12.675781 Z M 12.675781 10.398438 "/>
<path style=" stroke:none;fill-rule:nonzero;fill:rgb(54.509807%,71.764708%,94.117647%);fill-opacity:1;" d="M 0.488281 10.5625 L 2.4375 10.5625 L 2.4375 12.511719 L 0.488281 12.511719 Z M 0.488281 10.5625 "/>
<path style=" stroke:none;fill-rule:nonzero;fill:rgb(30.588236%,47.843137%,70.980394%);fill-opacity:1;" d="M 2.273438 10.726562 L 2.273438 12.351562 L 0.648438 12.351562 L 0.648438 10.726562 L 2.273438 10.726562 M 2.601562 10.398438 L 0.324219 10.398438 L 0.324219 12.675781 L 2.601562 12.675781 Z M 2.601562 10.398438 "/>
<path style=" stroke:none;fill-rule:nonzero;fill:rgb(86.274511%,83.529413%,94.901961%);fill-opacity:1;" d="M 6.011719 6.011719 L 9.585938 6.011719 L 9.585938 9.585938 L 6.011719 9.585938 Z M 6.011719 6.011719 "/>
<path style=" stroke:none;fill-rule:nonzero;fill:rgb(54.509807%,45.882353%,63.137257%);fill-opacity:1;" d="M 9.425781 6.175781 L 9.425781 9.425781 L 6.175781 9.425781 L 6.175781 6.175781 L 9.425781 6.175781 M 9.75 5.851562 L 5.851562 5.851562 L 5.851562 9.75 L 9.75 9.75 Z M 9.75 5.851562 "/>
<path style=" stroke:none;fill-rule:nonzero;fill:rgb(94.901961%,98.039216%,100%);fill-opacity:1;" d="M 3.414062 3.414062 L 6.988281 3.414062 L 6.988281 6.988281 L 3.414062 6.988281 Z M 3.414062 3.414062 "/>
<path style=" stroke:none;fill-rule:nonzero;fill:rgb(47.058824%,54.509807%,61.176473%);fill-opacity:1;" d="M 6.824219 3.574219 L 6.824219 6.824219 L 3.574219 6.824219 L 3.574219 3.574219 L 6.824219 3.574219 M 7.148438 3.25 L 3.25 3.25 L 3.25 7.148438 L 7.148438 7.148438 Z M 7.148438 3.25 "/>
</g>
</svg>
