<?xml version="1.0" encoding="UTF-8"?>
<svg xmlns="http://www.w3.org/2000/svg" xmlns:xlink="http://www.w3.org/1999/xlink" width="13.5pt" height="13.5pt" viewBox="0 0 13.5 13.5" version="1.1">
<g id="surface3815">
<path style=" stroke:none;fill-rule:nonzero;fill:rgb(100%,100%,100%);fill-opacity:1;" d="M 2.03125 11.78125 L 2.03125 0.40625 L 8.015625 0.40625 L 10.96875 3.414062 L 10.96875 11.78125 Z M 2.03125 11.78125 "/>
<path style=" stroke:none;fill-rule:nonzero;fill:rgb(47.058824%,54.509807%,61.176473%);fill-opacity:1;" d="M 7.847656 0.8125 L 10.5625 3.582031 L 10.5625 11.375 L 2.4375 11.375 L 2.4375 0.8125 L 7.847656 0.8125 M 8.1875 0 L 1.625 0 L 1.625 12.1875 L 11.375 12.1875 L 11.375 3.25 Z M 8.1875 0 "/>
<path style=" stroke:none;fill-rule:nonzero;fill:rgb(100%,100%,100%);fill-opacity:1;" d="M 7.71875 3.65625 L 7.71875 0.40625 L 7.988281 0.40625 L 10.96875 3.417969 L 10.96875 3.65625 Z M 7.71875 3.65625 "/>
<path style=" stroke:none;fill-rule:nonzero;fill:rgb(47.058824%,54.509807%,61.176473%);fill-opacity:1;" d="M 8.125 1.121094 L 10.230469 3.25 L 8.125 3.25 L 8.125 1.121094 M 8.15625 0 L 7.3125 0 L 7.3125 4.0625 L 11.375 4.0625 L 11.375 3.25 Z M 8.15625 0 "/>
<path style=" stroke:none;fill-rule:nonzero;fill:rgb(69.01961%,75.686276%,83.137256%);fill-opacity:1;" d="M 6.5 10.15625 L 4.875 10.15625 L 4.875 9.34375 L 5.6875 9.34375 L 5.6875 4.46875 L 4.875 4.46875 L 4.875 3.65625 L 6.5 3.65625 Z M 6.5 10.15625 "/>
<path style=" stroke:none;fill-rule:nonzero;fill:rgb(69.01961%,75.686276%,83.137256%);fill-opacity:1;" d="M 4.875 6.5 L 7.3125 6.5 L 7.3125 7.3125 L 4.875 7.3125 Z M 4.875 6.5 "/>
<path style=" stroke:none;fill-rule:nonzero;fill:rgb(78.039217%,26.274511%,26.274511%);fill-opacity:1;" d="M 9.75 5.6875 L 9.75 8.125 L 7.3125 8.125 L 7.3125 5.6875 Z M 9.75 5.6875 "/>
<path style=" stroke:none;fill-rule:nonzero;fill:rgb(30.588236%,47.843137%,70.980394%);fill-opacity:1;" d="M 4.875 3.25 L 4.875 4.875 L 3.25 4.875 L 3.25 3.25 Z M 4.875 3.25 "/>
<path style=" stroke:none;fill-rule:nonzero;fill:rgb(30.588236%,47.843137%,70.980394%);fill-opacity:1;" d="M 4.875 6.09375 L 4.875 7.71875 L 3.25 7.71875 L 3.25 6.09375 Z M 4.875 6.09375 "/>
<path style=" stroke:none;fill-rule:nonzero;fill:rgb(30.588236%,47.843137%,70.980394%);fill-opacity:1;" d="M 4.875 8.9375 L 4.875 10.5625 L 3.25 10.5625 L 3.25 8.9375 Z M 4.875 8.9375 "/>
</g>
</svg>
