<?xml version="1.0" encoding="UTF-8"?>
<svg xmlns="http://www.w3.org/2000/svg" xmlns:xlink="http://www.w3.org/1999/xlink" width="72pt" height="72pt" viewBox="0 0 72 72" version="1.1">
<g id="surface31">
<path style=" stroke:none;fill-rule:nonzero;fill:rgb(9.803922%,9.803922%,9.803922%);fill-opacity:1;" d="M 20.25 4.5 C 15.71875 4.5 12 8.21875 12 12.75 L 12 19.5 L 8.25 19.5 C 5.378906 19.5 3 21.878906 3 24.75 L 3 32.25 C 3 35.121094 5.378906 37.5 8.25 37.5 L 12 37.5 L 12 44.25 C 12 48.78125 15.71875 52.5 20.25 52.5 L 51.75 52.5 C 56.28125 52.5 60 48.78125 60 44.25 L 60 37.5 L 64.5 37.5 L 64.5 53.25 C 64.5 57.003906 61.503906 60 57.75 60 L 44.488281 60 C 43.621094 58.167969 41.777344 57 39.75 57 C 36.851562 57 34.5 59.351562 34.5 62.25 C 34.5 65.148438 36.851562 67.5 39.75 67.5 C 41.777344 67.496094 43.621094 66.332031 44.488281 64.5 L 57.75 64.5 C 63.9375 64.5 69 59.4375 69 53.25 L 69 24.75 C 69 21.878906 66.621094 19.5 63.75 19.5 L 60 19.5 L 60 12.75 C 60 8.21875 56.28125 4.5 51.75 4.5 Z M 20.25 9 L 51.75 9 C 53.847656 9 55.5 10.652344 55.5 12.75 L 55.5 44.25 C 55.5 46.347656 53.847656 48 51.75 48 L 20.25 48 C 18.152344 48 16.5 46.347656 16.5 44.25 L 16.5 12.75 C 16.5 10.652344 18.152344 9 20.25 9 Z M 25.5 21 C 23.84375 21 22.5 22.34375 22.5 24 C 22.5 25.65625 23.84375 27 25.5 27 C 27.15625 27 28.5 25.65625 28.5 24 C 28.5 22.34375 27.15625 21 25.5 21 Z M 46.5 21 C 44.84375 21 43.5 22.34375 43.5 24 C 43.5 25.65625 44.84375 27 46.5 27 C 48.15625 27 49.5 25.65625 49.5 24 C 49.5 22.34375 48.15625 21 46.5 21 Z M 8.25 24 L 12 24 L 12 33 L 8.25 33 C 7.808594 33 7.5 32.691406 7.5 32.25 L 7.5 24.75 C 7.5 24.308594 7.808594 24 8.25 24 Z M 60 24 L 63.75 24 C 64.191406 24 64.5 24.308594 64.5 24.75 L 64.5 33 L 60 33 Z M 45.730469 34.46875 C 45.136719 34.480469 44.570312 34.730469 44.160156 35.160156 C 44.160156 35.160156 43.765625 35.59375 42.449219 36.214844 C 41.132812 36.832031 39.042969 37.5 36 37.5 C 32.957031 37.5 30.867188 36.832031 29.550781 36.214844 C 28.234375 35.59375 27.839844 35.160156 27.839844 35.160156 C 27.417969 34.722656 26.835938 34.476562 26.226562 34.476562 C 25.3125 34.476562 24.484375 35.03125 24.140625 35.882812 C 23.796875 36.730469 24.003906 37.703125 24.660156 38.339844 C 24.660156 38.339844 25.765625 39.40625 27.636719 40.285156 C 29.507812 41.167969 32.292969 42 36 42 C 39.707031 42 42.492188 41.167969 44.363281 40.285156 C 46.234375 39.40625 47.339844 38.339844 47.339844 38.339844 C 48.011719 37.699219 48.214844 36.710938 47.859375 35.851562 C 47.503906 34.996094 46.65625 34.445312 45.730469 34.46875 Z M 45.730469 34.46875 "/>
</g>
</svg>
