<?xml version="1.0" encoding="UTF-8"?>
<svg xmlns="http://www.w3.org/2000/svg" xmlns:xlink="http://www.w3.org/1999/xlink" width="72pt" height="72pt" viewBox="0 0 72 72" version="1.1">
<g id="surface45">
<path style=" stroke:none;fill-rule:nonzero;fill:rgb(9.803922%,9.803922%,9.803922%);fill-opacity:1;" d="M 5.199219 5.980469 C 4.242188 5.988281 3.394531 6.605469 3.089844 7.511719 C 2.785156 8.417969 3.085938 9.421875 3.84375 10.007812 L 11.34375 16.007812 C 12.316406 16.785156 13.730469 16.628906 14.507812 15.65625 C 15.285156 14.683594 15.128906 13.269531 14.15625 12.492188 L 6.65625 6.492188 C 6.246094 6.15625 5.730469 5.972656 5.199219 5.980469 Z M 66.730469 5.980469 C 66.226562 5.988281 65.734375 6.167969 65.34375 6.492188 L 57.84375 12.492188 C 56.871094 13.269531 56.714844 14.683594 57.492188 15.65625 C 58.269531 16.628906 59.683594 16.785156 60.65625 16.007812 L 68.15625 10.007812 C 68.921875 9.414062 69.222656 8.394531 68.898438 7.480469 C 68.574219 6.566406 67.703125 5.960938 66.730469 5.980469 Z M 36 6 C 23.601562 6 13.5 16.101562 13.5 28.5 L 13.5 40.777344 L 9.355469 50.246094 C 8.308594 52.648438 10.171875 55.5 12.792969 55.5 L 27 55.5 C 27 60.445312 31.054688 64.5 36 64.5 C 40.945312 64.5 45 60.445312 45 55.5 L 59.207031 55.5 C 61.828125 55.5 63.691406 52.648438 62.644531 50.246094 L 58.5 40.777344 L 58.5 28.5 C 58.5 16.101562 48.398438 6 36 6 Z M 36 10.5 C 45.96875 10.5 54 18.53125 54 28.5 L 54 41.25 C 54 41.558594 54.0625 41.867188 54.1875 42.152344 L 58.058594 51 L 13.941406 51 L 17.8125 42.152344 C 17.9375 41.867188 18 41.558594 18 41.25 L 18 28.5 C 18 18.53125 26.03125 10.5 36 10.5 Z M 2.25 24 C 1.4375 23.988281 0.683594 24.414062 0.273438 25.117188 C -0.132812 25.816406 -0.132812 26.683594 0.273438 27.382812 C 0.683594 28.085938 1.4375 28.511719 2.25 28.5 L 8.25 28.5 C 9.0625 28.511719 9.816406 28.085938 10.226562 27.382812 C 10.632812 26.683594 10.632812 25.816406 10.226562 25.117188 C 9.816406 24.414062 9.0625 23.988281 8.25 24 Z M 63.75 24 C 62.9375 23.988281 62.183594 24.414062 61.773438 25.117188 C 61.367188 25.816406 61.367188 26.683594 61.773438 27.382812 C 62.183594 28.085938 62.9375 28.511719 63.75 28.5 L 69.75 28.5 C 70.5625 28.511719 71.316406 28.085938 71.726562 27.382812 C 72.132812 26.683594 72.132812 25.816406 71.726562 25.117188 C 71.316406 24.414062 70.5625 23.988281 69.75 24 Z M 31.5 55.5 L 40.5 55.5 C 40.5 58.011719 38.511719 60 36 60 C 33.488281 60 31.5 58.011719 31.5 55.5 Z M 31.5 55.5 "/>
</g>
</svg>
