<?xml version="1.0" encoding="UTF-8"?>
<svg xmlns="http://www.w3.org/2000/svg" xmlns:xlink="http://www.w3.org/1999/xlink" width="72pt" height="72pt" viewBox="0 0 72 72" version="1.1">
<g id="surface227">
<path style=" stroke:none;fill-rule:nonzero;fill:rgb(9.803922%,9.803922%,9.803922%);fill-opacity:1;" d="M 54.75 4.5 C 51.3125 4.5 48.546875 7.164062 48.152344 10.5 L 42.75 10.5 C 37.390625 10.5 33 14.890625 33 20.25 L 33 33.75 L 24 33.75 C 24 30.046875 20.953125 27 17.25 27 L 12.75 27 C 9.046875 27 6 30.046875 6 33.75 L 6 38.25 C 6 41.953125 9.046875 45 12.75 45 L 17.25 45 C 20.953125 45 24 41.953125 24 38.25 L 33 38.25 L 33 51.75 C 33 57.109375 37.390625 61.5 42.75 61.5 L 48.152344 61.5 C 48.546875 64.835938 51.3125 67.5 54.75 67.5 L 59.25 67.5 C 62.953125 67.5 66 64.453125 66 60.75 L 66 56.25 C 66 52.546875 62.953125 49.5 59.25 49.5 L 54.75 49.5 C 51.046875 49.5 48 52.546875 48 56.25 L 48 57 L 42.75 57 C 39.824219 57 37.5 54.675781 37.5 51.75 L 37.5 38.25 L 48 38.25 C 48 41.953125 51.046875 45 54.75 45 L 59.25 45 C 62.953125 45 66 41.953125 66 38.25 L 66 33.75 C 66 30.046875 62.953125 27 59.25 27 L 54.75 27 C 51.046875 27 48 30.046875 48 33.75 L 37.5 33.75 L 37.5 20.25 C 37.5 17.324219 39.824219 15 42.75 15 L 48 15 L 48 15.75 C 48 19.453125 51.046875 22.5 54.75 22.5 L 59.25 22.5 C 62.953125 22.5 66 19.453125 66 15.75 L 66 11.25 C 66 7.546875 62.953125 4.5 59.25 4.5 Z M 54.75 9 L 59.25 9 C 60.519531 9 61.5 9.980469 61.5 11.25 L 61.5 15.75 C 61.5 17.019531 60.519531 18 59.25 18 L 54.75 18 C 53.480469 18 52.5 17.019531 52.5 15.75 L 52.5 13.121094 C 52.539062 12.878906 52.539062 12.632812 52.5 12.390625 L 52.5 11.25 C 52.5 9.980469 53.480469 9 54.75 9 Z M 12.75 31.5 L 17.25 31.5 C 18.519531 31.5 19.5 32.480469 19.5 33.75 L 19.5 38.25 C 19.5 39.519531 18.519531 40.5 17.25 40.5 L 12.75 40.5 C 11.480469 40.5 10.5 39.519531 10.5 38.25 L 10.5 33.75 C 10.5 32.480469 11.480469 31.5 12.75 31.5 Z M 54.75 31.5 L 59.25 31.5 C 60.519531 31.5 61.5 32.480469 61.5 33.75 L 61.5 38.25 C 61.5 39.519531 60.519531 40.5 59.25 40.5 L 54.75 40.5 C 53.480469 40.5 52.5 39.519531 52.5 38.25 L 52.5 33.75 C 52.5 32.480469 53.480469 31.5 54.75 31.5 Z M 54.75 54 L 59.25 54 C 60.519531 54 61.5 54.980469 61.5 56.25 L 61.5 60.75 C 61.5 62.019531 60.519531 63 59.25 63 L 54.75 63 C 53.480469 63 52.5 62.019531 52.5 60.75 L 52.5 59.621094 C 52.539062 59.378906 52.539062 59.132812 52.5 58.890625 L 52.5 56.25 C 52.5 54.980469 53.480469 54 54.75 54 Z M 54.75 54 "/>
</g>
</svg>
