<?xml version="1.0" encoding="UTF-8"?>
<svg xmlns="http://www.w3.org/2000/svg" xmlns:xlink="http://www.w3.org/1999/xlink" width="72pt" height="72pt" viewBox="0 0 72 72" version="1.1">
<g id="surface345">
<path style=" stroke:none;fill-rule:nonzero;fill:rgb(9.803922%,9.803922%,9.803922%);fill-opacity:1;" d="M 36 6 C 33.488281 6 31.042969 6.308594 28.707031 6.894531 C 27.910156 7.074219 27.273438 7.667969 27.039062 8.453125 C 26.808594 9.234375 27.019531 10.082031 27.59375 10.664062 C 28.164062 11.246094 29.007812 11.476562 29.792969 11.257812 C 31.78125 10.761719 33.855469 10.5 36 10.5 C 43.070312 10.5 49.445312 13.367188 54.0625 18 L 48.75 18 C 47.9375 17.988281 47.183594 18.414062 46.773438 19.117188 C 46.367188 19.816406 46.367188 20.683594 46.773438 21.382812 C 47.183594 22.085938 47.9375 22.511719 48.75 22.5 L 58.417969 22.5 C 58.734375 22.566406 59.066406 22.566406 59.382812 22.496094 C 60.570312 22.425781 61.5 21.441406 61.5 20.25 L 61.5 9.75 C 61.507812 9.140625 61.269531 8.554688 60.839844 8.125 C 60.410156 7.695312 59.824219 7.457031 59.214844 7.46875 C 57.972656 7.488281 56.980469 8.507812 57 9.75 L 57 14.589844 C 51.585938 9.28125 44.167969 6 36 6 Z M 9.75 10.5 C 8.9375 10.488281 8.183594 10.914062 7.773438 11.617188 C 7.367188 12.316406 7.367188 13.183594 7.773438 13.882812 C 8.183594 14.585938 8.9375 15.011719 9.75 15 L 14.589844 15 C 9.28125 20.414062 6 27.832031 6 36 C 6 38.511719 6.308594 40.957031 6.894531 43.292969 C 7.074219 44.089844 7.667969 44.726562 8.453125 44.960938 C 9.234375 45.191406 10.082031 44.980469 10.664062 44.40625 C 11.246094 43.835938 11.476562 42.992188 11.257812 42.207031 C 10.761719 40.222656 10.5 38.144531 10.5 36 C 10.5 28.929688 13.367188 22.554688 18 17.9375 L 18 23.25 C 17.988281 24.0625 18.414062 24.816406 19.117188 25.226562 C 19.816406 25.632812 20.683594 25.632812 21.382812 25.226562 C 22.085938 24.816406 22.511719 24.0625 22.5 23.25 L 22.5 13.445312 C 22.53125 13.234375 22.53125 13.019531 22.5 12.808594 L 22.5 12.75 C 22.5 11.507812 21.492188 10.5 20.25 10.5 Z M 63.003906 26.972656 C 62.292969 26.941406 61.609375 27.253906 61.160156 27.8125 C 60.714844 28.367188 60.558594 29.105469 60.742188 29.792969 C 61.238281 31.78125 61.5 33.855469 61.5 36 C 61.5 43.070312 58.632812 49.445312 54 54.0625 L 54 48.75 C 54.007812 48.140625 53.769531 47.554688 53.339844 47.125 C 52.910156 46.695312 52.324219 46.457031 51.714844 46.46875 C 50.472656 46.488281 49.480469 47.507812 49.5 48.75 L 49.5 58.417969 C 49.433594 58.734375 49.433594 59.066406 49.503906 59.382812 C 49.574219 60.570312 50.558594 61.5 51.75 61.5 L 62.25 61.5 C 63.0625 61.511719 63.816406 61.085938 64.226562 60.382812 C 64.632812 59.683594 64.632812 58.816406 64.226562 58.117188 C 63.816406 57.414062 63.0625 56.988281 62.25 57 L 57.410156 57 C 62.71875 51.585938 66 44.167969 66 36 C 66 33.488281 65.691406 31.042969 65.105469 28.707031 C 64.875 27.71875 64.015625 27.011719 63.003906 26.972656 Z M 13.085938 49.472656 C 12.988281 49.476562 12.890625 49.484375 12.792969 49.5 L 12.75 49.5 C 11.507812 49.5 10.5 50.507812 10.5 51.75 L 10.5 62.25 C 10.488281 63.0625 10.914062 63.816406 11.617188 64.226562 C 12.316406 64.632812 13.183594 64.632812 13.882812 64.226562 C 14.585938 63.816406 15.011719 63.0625 15 62.25 L 15 57.410156 C 20.414062 62.71875 27.832031 66 36 66 C 38.511719 66 40.957031 65.691406 43.292969 65.105469 C 44.089844 64.925781 44.726562 64.332031 44.960938 63.546875 C 45.191406 62.765625 44.980469 61.917969 44.40625 61.335938 C 43.835938 60.753906 42.992188 60.523438 42.207031 60.742188 C 40.222656 61.238281 38.144531 61.5 36 61.5 C 28.929688 61.5 22.554688 58.632812 17.9375 54 L 23.25 54 C 24.0625 54.011719 24.816406 53.585938 25.226562 52.882812 C 25.632812 52.183594 25.632812 51.316406 25.226562 50.617188 C 24.816406 49.914062 24.0625 49.488281 23.25 49.5 L 13.46875 49.5 C 13.339844 49.480469 13.214844 49.472656 13.085938 49.472656 Z M 13.085938 49.472656 "/>
</g>
</svg>
