<?xml version="1.0" encoding="UTF-8"?>
<svg xmlns="http://www.w3.org/2000/svg" xmlns:xlink="http://www.w3.org/1999/xlink" width="72pt" height="72pt" viewBox="0 0 72 72" version="1.1">
<g id="surface63">
<path style=" stroke:none;fill-rule:nonzero;fill:rgb(9.803922%,9.803922%,9.803922%);fill-opacity:1;" d="M 24 7.5 C 19.03125 7.5 15 11.53125 15 16.5 L 15 37.5 C 15.003906 39.183594 15.480469 40.832031 16.375 42.257812 C 11.320312 43.355469 7.5 47.878906 7.5 53.25 C 7.5 59.4375 12.5625 64.5 18.75 64.5 L 62.25 64.5 C 63.0625 64.511719 63.816406 64.085938 64.226562 63.382812 C 64.632812 62.683594 64.632812 61.816406 64.226562 61.117188 C 63.816406 60.414062 63.0625 59.988281 62.25 60 L 18.75 60 C 14.996094 60 12 57.003906 12 53.25 C 12 49.496094 14.996094 46.5 18.75 46.5 L 62.25 46.5 C 63.0625 46.511719 63.816406 46.085938 64.226562 45.382812 C 64.632812 44.683594 64.632812 43.816406 64.226562 43.117188 C 63.816406 42.414062 63.0625 41.988281 62.25 42 L 55.78125 42 C 56.574219 40.632812 56.996094 39.082031 57 37.5 L 57 16.5 C 57 11.53125 52.96875 7.5 48 7.5 Z M 24 12 L 48 12 C 50.484375 12 52.5 14.015625 52.5 16.5 L 52.5 37.5 C 52.5 39.984375 50.484375 42 48 42 L 24 42 C 21.515625 42 19.5 39.984375 19.5 37.5 L 19.5 16.5 C 19.5 14.015625 21.515625 12 24 12 Z M 29.25 16.5 C 28.4375 16.488281 27.683594 16.914062 27.273438 17.617188 C 26.867188 18.316406 26.867188 19.183594 27.273438 19.882812 C 27.683594 20.585938 28.4375 21.011719 29.25 21 L 42.75 21 C 43.5625 21.011719 44.316406 20.585938 44.726562 19.882812 C 45.132812 19.183594 45.132812 18.316406 44.726562 17.617188 C 44.316406 16.914062 43.5625 16.488281 42.75 16.5 Z M 18.75 49.5 C 16.679688 49.5 15 51.179688 15 53.25 C 15 55.320312 16.679688 57 18.75 57 C 20.820312 57 22.5 55.320312 22.5 53.25 C 22.5 51.179688 20.820312 49.5 18.75 49.5 Z M 32.25 49.5 C 30.179688 49.5 28.5 51.179688 28.5 53.25 C 28.5 55.320312 30.179688 57 32.25 57 C 34.320312 57 36 55.320312 36 53.25 C 36 51.179688 34.320312 49.5 32.25 49.5 Z M 45.75 49.5 C 43.679688 49.5 42 51.179688 42 53.25 C 42 55.320312 43.679688 57 45.75 57 C 47.820312 57 49.5 55.320312 49.5 53.25 C 49.5 51.179688 47.820312 49.5 45.75 49.5 Z M 59.25 49.5 C 57.179688 49.5 55.5 51.179688 55.5 53.25 C 55.5 55.320312 57.179688 57 59.25 57 C 61.320312 57 63 55.320312 63 53.25 C 63 51.179688 61.320312 49.5 59.25 49.5 Z M 59.25 49.5 "/>
</g>
</svg>
