<?xml version="1.0" encoding="UTF-8"?>
<svg xmlns="http://www.w3.org/2000/svg" xmlns:xlink="http://www.w3.org/1999/xlink" width="72pt" height="72pt" viewBox="0 0 72 72" version="1.1">
<g id="surface71">
<path style=" stroke:none;fill-rule:nonzero;fill:rgb(9.803922%,9.803922%,9.803922%);fill-opacity:1;" d="M 17.25 9 C 12.71875 9 9 12.71875 9 17.25 L 9 54.75 C 9 59.28125 12.71875 63 17.25 63 L 54.75 63 C 59.28125 63 63 59.28125 63 54.75 L 63 17.25 C 63 12.71875 59.28125 9 54.75 9 Z M 17.25 13.5 L 54.75 13.5 C 56.847656 13.5 58.5 15.152344 58.5 17.25 L 58.5 47.933594 L 49.480469 39.207031 C 48.3125 38.078125 46.78125 37.5 45.261719 37.5 C 43.742188 37.5 42.210938 38.078125 41.042969 39.207031 L 37.96875 42.183594 L 28.699219 33.214844 C 27.535156 32.085938 26.003906 31.5 24.476562 31.5 C 22.949219 31.5 21.421875 32.089844 20.257812 33.210938 C 20.257812 33.210938 20.257812 33.210938 20.253906 33.214844 L 13.5 39.75 L 13.5 17.25 C 13.5 15.152344 15.152344 13.5 17.25 13.5 Z M 45.75 19.5 C 43.6875 19.5 41.855469 20.355469 40.691406 21.660156 C 39.53125 22.96875 39 24.625 39 26.25 C 39 27.875 39.53125 29.53125 40.691406 30.839844 C 41.855469 32.144531 43.6875 33 45.75 33 C 47.8125 33 49.644531 32.144531 50.808594 30.839844 C 51.96875 29.53125 52.5 27.875 52.5 26.25 C 52.5 24.625 51.96875 22.96875 50.808594 21.660156 C 49.644531 20.355469 47.8125 19.5 45.75 19.5 Z M 45.75 24 C 46.6875 24 47.105469 24.269531 47.441406 24.652344 C 47.78125 25.03125 48 25.625 48 26.25 C 48 26.875 47.78125 27.46875 47.441406 27.847656 C 47.105469 28.230469 46.6875 28.5 45.75 28.5 C 44.8125 28.5 44.394531 28.230469 44.058594 27.847656 C 43.71875 27.46875 43.5 26.875 43.5 26.25 C 43.5 25.625 43.71875 25.03125 44.058594 24.652344 C 44.394531 24.269531 44.8125 24 45.75 24 Z M 24.476562 36 C 24.867188 36 25.253906 36.140625 25.566406 36.445312 C 25.566406 36.445312 25.570312 36.449219 25.570312 36.449219 L 34.730469 45.308594 L 21.097656 58.5 L 17.25 58.5 C 15.152344 58.5 13.5 56.847656 13.5 54.75 L 13.5 46.011719 L 23.386719 36.449219 C 23.703125 36.140625 24.089844 36 24.476562 36 Z M 45.261719 42 C 45.660156 42 46.039062 42.136719 46.355469 42.441406 L 58.5 54.191406 L 58.5 54.75 C 58.5 56.847656 56.847656 58.5 54.75 58.5 L 27.570312 58.5 L 44.171875 42.441406 C 44.480469 42.140625 44.867188 42 45.261719 42 Z M 45.261719 42 "/>
</g>
</svg>
