<?xml version="1.0" encoding="UTF-8"?>
<svg xmlns="http://www.w3.org/2000/svg" xmlns:xlink="http://www.w3.org/1999/xlink" width="72pt" height="72pt" viewBox="0 0 72 72" version="1.1">
<g id="surface81">
<path style=" stroke:none;fill-rule:nonzero;fill:rgb(9.803922%,9.803922%,9.803922%);fill-opacity:1;" d="M 36 6 C 29.398438 6 24 11.398438 24 18 L 24 24 L 18.75 24 C 15.046875 24 12 27.046875 12 30.75 L 12 59.25 C 12 62.953125 15.046875 66 18.75 66 L 53.25 66 C 56.953125 66 60 62.953125 60 59.25 L 60 30.75 C 60 27.046875 56.953125 24 53.25 24 L 48 24 L 48 18 C 48 11.398438 42.601562 6 36 6 Z M 36 10.5 C 40.167969 10.5 43.5 13.832031 43.5 18 L 43.5 24 L 28.5 24 L 28.5 18 C 28.5 13.832031 31.832031 10.5 36 10.5 Z M 18.75 28.5 L 53.25 28.5 C 54.519531 28.5 55.5 29.480469 55.5 30.75 L 55.5 59.25 C 55.5 60.519531 54.519531 61.5 53.25 61.5 L 18.75 61.5 C 17.480469 61.5 16.5 60.519531 16.5 59.25 L 16.5 30.75 C 16.5 29.480469 17.480469 28.5 18.75 28.5 Z M 36 40.5 C 33.515625 40.5 31.5 42.515625 31.5 45 C 31.5 47.484375 33.515625 49.5 36 49.5 C 38.484375 49.5 40.5 47.484375 40.5 45 C 40.5 42.515625 38.484375 40.5 36 40.5 Z M 36 40.5 "/>
</g>
</svg>
