<?xml version="1.0" encoding="UTF-8"?>
<svg xmlns="http://www.w3.org/2000/svg" xmlns:xlink="http://www.w3.org/1999/xlink" width="72pt" height="72pt" viewBox="0 0 72 72" version="1.1">
<g id="surface101">
<path style=" stroke:none;fill-rule:nonzero;fill:rgb(9.803922%,9.803922%,9.803922%);fill-opacity:1;" d="M 20.25 15 C 19.007812 15 18 16.007812 18 17.25 L 18 34.5 L 5.25 34.5 C 4.4375 34.488281 3.683594 34.914062 3.273438 35.617188 C 2.867188 36.316406 2.867188 37.183594 3.273438 37.882812 C 3.683594 38.585938 4.4375 39.011719 5.25 39 L 20.25 39 C 21.492188 39 22.5 37.992188 22.5 36.75 L 22.5 19.5 L 33 19.5 L 33 54.75 C 33 55.992188 34.007812 57 35.25 57 L 50.25 57 C 51.492188 57 52.5 55.992188 52.5 54.75 L 52.5 37.5 L 66.75 37.5 C 67.5625 37.511719 68.316406 37.085938 68.726562 36.382812 C 69.132812 35.683594 69.132812 34.816406 68.726562 34.117188 C 68.316406 33.414062 67.5625 32.988281 66.75 33 L 50.25 33 C 49.007812 33 48 34.007812 48 35.25 L 48 52.5 L 37.5 52.5 L 37.5 17.25 C 37.5 16.007812 36.492188 15 35.25 15 Z M 20.25 15 "/>
</g>
</svg>
