<?xml version="1.0" encoding="UTF-8"?>
<svg xmlns="http://www.w3.org/2000/svg" xmlns:xlink="http://www.w3.org/1999/xlink" width="72pt" height="72pt" viewBox="0 0 72 72" version="1.1">
<g id="surface113">
<path style=" stroke:none;fill-rule:nonzero;fill:rgb(9.803922%,9.803922%,9.803922%);fill-opacity:1;" d="M 12.75 7.5 C 9.027344 7.5 6 10.527344 6 14.25 L 6 45.75 C 6 49.472656 9.027344 52.5 12.75 52.5 L 25.5 52.5 L 25.5 60 L 20.25 60 C 19.4375 59.988281 18.683594 60.414062 18.273438 61.117188 C 17.867188 61.816406 17.867188 62.683594 18.273438 63.382812 C 18.683594 64.085938 19.4375 64.511719 20.25 64.5 L 27.378906 64.5 C 27.621094 64.539062 27.867188 64.539062 28.109375 64.5 L 43.878906 64.5 C 44.121094 64.539062 44.367188 64.539062 44.609375 64.5 L 51.75 64.5 C 52.5625 64.511719 53.316406 64.085938 53.726562 63.382812 C 54.132812 62.683594 54.132812 61.816406 53.726562 61.117188 C 53.316406 60.414062 52.5625 59.988281 51.75 60 L 46.5 60 L 46.5 52.5 L 59.25 52.5 C 62.972656 52.5 66 49.472656 66 45.75 L 66 35.925781 L 61.5 40.425781 L 61.5 45.75 C 61.5 46.992188 60.492188 48 59.25 48 L 44.621094 48 C 44.378906 47.960938 44.132812 47.960938 43.890625 48 L 28.121094 48 C 27.984375 47.976562 27.851562 47.964844 27.714844 47.96875 C 27.605469 47.96875 27.496094 47.980469 27.386719 48 L 12.75 48 C 11.507812 48 10.5 46.992188 10.5 45.75 L 10.5 14.25 C 10.5 13.007812 11.507812 12 12.75 12 L 59.25 12 C 60.492188 12 61.5 13.007812 61.5 14.25 L 61.5 21.074219 L 66 25.574219 L 66 14.25 C 66 10.527344 62.972656 7.5 59.25 7.5 Z M 54.726562 19.476562 C 53.8125 19.476562 52.984375 20.03125 52.640625 20.882812 C 52.296875 21.730469 52.503906 22.703125 53.160156 23.339844 L 58.316406 28.5 L 39.75 28.5 C 38.9375 28.488281 38.183594 28.914062 37.773438 29.617188 C 37.367188 30.316406 37.367188 31.183594 37.773438 31.882812 C 38.183594 32.585938 38.9375 33.011719 39.75 33 L 58.316406 33 L 53.160156 38.160156 C 52.570312 38.722656 52.335938 39.5625 52.539062 40.351562 C 52.746094 41.136719 53.363281 41.753906 54.148438 41.960938 C 54.9375 42.164062 55.777344 41.929688 56.339844 41.339844 L 65.339844 32.339844 C 66.21875 31.460938 66.21875 30.039062 65.339844 29.160156 L 56.339844 20.160156 C 55.917969 19.722656 55.335938 19.476562 54.726562 19.476562 Z M 30 52.5 L 42 52.5 L 42 60 L 30 60 Z M 30 52.5 "/>
</g>
</svg>
