<?xml version="1.0" encoding="UTF-8"?>
<svg xmlns="http://www.w3.org/2000/svg" xmlns:xlink="http://www.w3.org/1999/xlink" width="72pt" height="72pt" viewBox="0 0 72 72" version="1.1">
<g id="surface121">
<path style=" stroke:none;fill-rule:nonzero;fill:rgb(9.803922%,9.803922%,9.803922%);fill-opacity:1;" d="M 47.96875 6.75 C 47.316406 6.757812 46.699219 7.050781 46.277344 7.550781 L 31.109375 25.613281 C 26.960938 25.515625 22.773438 26.953125 19.613281 30.113281 C 17.816406 31.914062 16.5625 34.542969 15.332031 37.636719 C 14.105469 40.726562 13.011719 44.253906 12.082031 47.605469 C 10.226562 54.304688 9.039062 60.316406 9.042969 60.316406 C 8.894531 61.050781 9.128906 61.8125 9.65625 62.34375 C 10.1875 62.871094 10.949219 63.105469 11.683594 62.957031 C 11.683594 62.957031 17.695312 61.773438 24.394531 59.917969 C 27.746094 58.988281 31.273438 57.894531 34.363281 56.667969 C 37.457031 55.4375 40.085938 54.183594 41.886719 52.386719 C 45.046875 49.226562 46.484375 45.039062 46.386719 40.890625 L 64.449219 25.722656 C 64.929688 25.316406 65.21875 24.726562 65.246094 24.097656 C 65.273438 23.46875 65.035156 22.855469 64.589844 22.410156 L 49.589844 7.410156 C 49.160156 6.980469 48.574219 6.742188 47.96875 6.75 Z M 48.144531 12.324219 L 59.675781 23.855469 L 54.972656 27.800781 C 54.929688 27.753906 54.886719 27.707031 54.839844 27.660156 L 44.203125 17.019531 Z M 41.296875 20.480469 L 51.519531 30.703125 L 44.382812 36.699219 L 35.300781 27.617188 Z M 30.300781 30.132812 C 30.691406 30.121094 31.082031 30.128906 31.472656 30.152344 L 41.847656 40.527344 C 42.046875 43.644531 41.09375 46.816406 38.703125 49.203125 C 37.867188 50.042969 35.550781 51.351562 32.699219 52.484375 C 29.851562 53.617188 26.445312 54.679688 23.195312 55.582031 C 18.511719 56.878906 16.363281 57.273438 14.289062 57.710938 C 14.726562 55.636719 15.121094 53.488281 16.417969 48.804688 C 17.320312 45.554688 18.382812 42.148438 19.515625 39.300781 C 20.648438 36.449219 21.957031 34.132812 22.796875 33.296875 C 24.882812 31.207031 27.574219 30.214844 30.300781 30.132812 Z M 30.300781 30.132812 "/>
</g>
</svg>
