<?xml version="1.0" encoding="UTF-8"?>
<svg xmlns="http://www.w3.org/2000/svg" xmlns:xlink="http://www.w3.org/1999/xlink" width="72pt" height="72pt" viewBox="0 0 72 72" version="1.1">
<g id="surface135">
<path style=" stroke:none;fill-rule:nonzero;fill:rgb(9.803922%,9.803922%,9.803922%);fill-opacity:1;" d="M 42.726562 11.972656 C 41.742188 11.984375 40.882812 12.636719 40.601562 13.582031 L 27.101562 57.082031 C 26.832031 57.859375 27.007812 58.71875 27.558594 59.332031 C 28.109375 59.941406 28.949219 60.203125 29.746094 60.011719 C 30.546875 59.820312 31.179688 59.210938 31.398438 58.417969 L 44.898438 14.917969 C 45.121094 14.226562 45 13.472656 44.570312 12.886719 C 44.140625 12.300781 43.453125 11.960938 42.726562 11.972656 Z M 20.265625 19.476562 C 19.679688 19.480469 19.117188 19.710938 18.699219 20.117188 L 3.699219 34.367188 C 3.253906 34.792969 3 35.382812 3 36 C 3 36.617188 3.253906 37.207031 3.699219 37.632812 L 18.699219 51.882812 C 19.601562 52.738281 21.027344 52.703125 21.882812 51.800781 C 22.738281 50.898438 22.703125 49.472656 21.800781 48.617188 L 8.515625 36 L 21.800781 23.382812 C 22.484375 22.753906 22.710938 21.769531 22.371094 20.902344 C 22.03125 20.039062 21.195312 19.472656 20.265625 19.476562 Z M 51.667969 19.480469 C 50.753906 19.503906 49.941406 20.078125 49.621094 20.9375 C 49.296875 21.792969 49.527344 22.761719 50.199219 23.382812 L 63.484375 36 L 50.199219 48.617188 C 49.296875 49.472656 49.261719 50.898438 50.117188 51.800781 C 50.972656 52.703125 52.398438 52.738281 53.300781 51.882812 L 68.300781 37.632812 C 68.746094 37.207031 69 36.617188 69 36 C 69 35.382812 68.746094 34.792969 68.300781 34.367188 L 53.300781 20.117188 C 52.863281 19.695312 52.277344 19.464844 51.667969 19.480469 Z M 51.667969 19.480469 "/>
</g>
</svg>
