<?xml version="1.0" encoding="UTF-8"?>
<svg xmlns="http://www.w3.org/2000/svg" xmlns:xlink="http://www.w3.org/1999/xlink" width="72pt" height="72pt" viewBox="0 0 72 72" version="1.1">
<g id="surface147">
<path style=" stroke:none;fill-rule:nonzero;fill:rgb(9.803922%,9.803922%,9.803922%);fill-opacity:1;" d="M 18.75 9 C 14.21875 9 10.5 12.71875 10.5 17.25 L 10.5 21.75 C 10.5 24.105469 11.511719 26.234375 13.113281 27.746094 C 11.507812 29.25 10.5 31.382812 10.5 33.75 L 10.5 38.25 C 10.5 40.617188 11.503906 42.742188 13.105469 44.25 C 11.503906 45.757812 10.5 47.882812 10.5 50.25 L 10.5 54.75 C 10.5 59.300781 14.203125 63 18.75 63 L 36.085938 63 C 35.195312 61.609375 34.46875 60.101562 33.953125 58.5 L 18.75 58.5 C 16.679688 58.5 15 56.816406 15 54.75 L 15 50.25 C 15 48.183594 16.679688 46.5 18.75 46.5 L 33.953125 46.5 C 34.46875 44.898438 35.195312 43.390625 36.089844 42 L 18.75 42 C 16.679688 42 15 40.316406 15 38.25 L 15 33.75 C 15 31.683594 16.679688 30 18.75 30 L 53.25 30 C 55.246094 30 56.867188 31.570312 56.980469 33.535156 C 58.570312 33.910156 60.085938 34.472656 61.5 35.210938 L 61.5 33.75 C 61.5 31.382812 60.492188 29.25 58.886719 27.746094 C 60.488281 26.234375 61.5 24.105469 61.5 21.75 L 61.5 17.25 C 61.5 12.71875 57.78125 9 53.25 9 Z M 18.75 13.5 L 53.25 13.5 C 55.347656 13.5 57 15.152344 57 17.25 L 57 21.75 C 57 23.847656 55.347656 25.5 53.25 25.5 L 18.75 25.5 C 16.652344 25.5 15 23.847656 15 21.75 L 15 17.25 C 15 15.152344 16.652344 13.5 18.75 13.5 Z M 52.5 36 C 43.386719 36 36 43.386719 36 52.5 C 36 61.613281 43.386719 69 52.5 69 C 61.613281 69 69 61.613281 69 52.5 C 69 43.386719 61.613281 36 52.5 36 Z M 61.5 45 C 61.882812 45 62.265625 45.144531 62.558594 45.441406 C 63.148438 46.027344 63.148438 46.972656 62.558594 47.558594 L 50.558594 59.558594 C 50.269531 59.851562 49.882812 60 49.5 60 C 49.117188 60 48.730469 59.851562 48.441406 59.558594 L 42.441406 53.558594 C 41.851562 52.972656 41.851562 52.027344 42.441406 51.441406 C 43.027344 50.851562 43.972656 50.851562 44.558594 51.441406 L 49.5 56.378906 L 60.441406 45.441406 C 60.734375 45.144531 61.117188 45 61.5 45 Z M 61.5 45 "/>
</g>
</svg>
