<?xml version="1.0" encoding="UTF-8"?>
<svg xmlns="http://www.w3.org/2000/svg" xmlns:xlink="http://www.w3.org/1999/xlink" width="72pt" height="72pt" viewBox="0 0 72 72" version="1.1">
<g id="surface159">
<path style=" stroke:none;fill-rule:nonzero;fill:rgb(9.803922%,9.803922%,9.803922%);fill-opacity:1;" d="M 44.214844 8.96875 C 44.105469 8.96875 43.996094 8.980469 43.886719 9 L 17.25 9 C 12.71875 9 9 12.71875 9 17.25 L 9 43.878906 C 8.960938 44.121094 8.960938 44.367188 9 44.609375 L 9 54.75 C 9 59.28125 12.71875 63 17.25 63 L 43.878906 63 C 44.121094 63.039062 44.367188 63.039062 44.609375 63 L 54.75 63 C 59.28125 63 63 59.28125 63 54.75 L 63 44.621094 C 63.039062 44.378906 63.039062 44.132812 63 43.890625 L 63 17.25 C 63 12.71875 59.28125 9 54.75 9 L 44.621094 9 C 44.484375 8.976562 44.351562 8.964844 44.214844 8.96875 Z M 17.25 13.5 L 25.5 13.5 L 25.5 25.5 L 13.5 25.5 L 13.5 17.25 C 13.5 15.152344 15.152344 13.5 17.25 13.5 Z M 30 13.5 L 42 13.5 L 42 25.5 L 30 25.5 Z M 46.5 13.5 L 54.75 13.5 C 56.847656 13.5 58.5 15.152344 58.5 17.25 L 58.5 25.5 L 46.5 25.5 Z M 19.5 16.5 C 17.84375 16.5 16.5 17.84375 16.5 19.5 C 16.5 21.15625 17.84375 22.5 19.5 22.5 C 21.15625 22.5 22.5 21.15625 22.5 19.5 C 22.5 17.84375 21.15625 16.5 19.5 16.5 Z M 36 16.5 C 34.34375 16.5 33 17.84375 33 19.5 C 33 21.15625 34.34375 22.5 36 22.5 C 37.65625 22.5 39 21.15625 39 19.5 C 39 17.84375 37.65625 16.5 36 16.5 Z M 52.5 16.5 C 50.84375 16.5 49.5 17.84375 49.5 19.5 C 49.5 21.15625 50.84375 22.5 52.5 22.5 C 54.15625 22.5 55.5 21.15625 55.5 19.5 C 55.5 17.84375 54.15625 16.5 52.5 16.5 Z M 13.5 30 L 25.5 30 L 25.5 42 L 13.5 42 Z M 30 30 L 42 30 L 42 42 L 30 42 Z M 46.5 30 L 58.5 30 L 58.5 42 L 46.5 42 Z M 19.5 33 C 17.84375 33 16.5 34.34375 16.5 36 C 16.5 37.65625 17.84375 39 19.5 39 C 21.15625 39 22.5 37.65625 22.5 36 C 22.5 34.34375 21.15625 33 19.5 33 Z M 13.5 46.5 L 25.5 46.5 L 25.5 58.5 L 17.25 58.5 C 15.152344 58.5 13.5 56.847656 13.5 54.75 Z M 30 46.5 L 42 46.5 L 42 58.5 L 30 58.5 Z M 46.5 46.5 L 58.5 46.5 L 58.5 54.75 C 58.5 56.847656 56.847656 58.5 54.75 58.5 L 46.5 58.5 Z M 19.5 49.5 C 17.84375 49.5 16.5 50.84375 16.5 52.5 C 16.5 54.15625 17.84375 55.5 19.5 55.5 C 21.15625 55.5 22.5 54.15625 22.5 52.5 C 22.5 50.84375 21.15625 49.5 19.5 49.5 Z M 19.5 49.5 "/>
</g>
</svg>
