<?xml version="1.0" encoding="UTF-8"?>
<svg xmlns="http://www.w3.org/2000/svg" xmlns:xlink="http://www.w3.org/1999/xlink" width="72pt" height="72pt" viewBox="0 0 72 72" version="1.1">
<g id="surface171">
<path style=" stroke:none;fill-rule:nonzero;fill:rgb(9.803922%,9.803922%,9.803922%);fill-opacity:1;" d="M 8.25 6 C 7.007812 6 6 7.007812 6 8.25 L 6 30.75 C 6 31.992188 7.007812 33 8.25 33 L 17.273438 33 C 17.269531 33.105469 17.25 33.277344 17.25 33.375 C 17.25 34.820312 17.492188 37.269531 17.933594 39.785156 C 18.152344 41.042969 18.417969 42.285156 18.757812 43.394531 C 19.097656 44.503906 19.351562 45.449219 20.324219 46.425781 C 21.050781 47.148438 21.753906 47.421875 22.53125 47.714844 C 23.308594 48.003906 24.160156 48.234375 25.058594 48.441406 C 26.214844 48.699219 27.417969 48.894531 28.589844 49.058594 C 29.507812 58.542969 37.53125 66 47.25 66 C 57.578125 66 66 57.578125 66 47.25 C 66 37.53125 58.542969 29.507812 49.058594 28.589844 C 48.894531 27.417969 48.699219 26.214844 48.441406 25.058594 C 48.234375 24.160156 48.003906 23.308594 47.714844 22.53125 C 47.421875 21.753906 47.148438 21.050781 46.425781 20.324219 C 45.449219 19.351562 44.503906 19.097656 43.394531 18.757812 C 42.285156 18.417969 41.042969 18.152344 39.785156 17.933594 C 37.269531 17.492188 34.820312 17.25 33.375 17.25 C 33.277344 17.25 33.105469 17.269531 33 17.273438 L 33 8.25 C 33 7.007812 31.992188 6 30.75 6 Z M 10.5 10.5 L 28.5 10.5 L 28.5 17.714844 C 27.980469 17.792969 27.5 17.839844 26.964844 17.933594 C 25.707031 18.152344 24.464844 18.417969 23.355469 18.757812 C 22.246094 19.097656 21.300781 19.351562 20.324219 20.324219 C 19.351562 21.300781 19.097656 22.246094 18.757812 23.355469 C 18.417969 24.464844 18.152344 25.707031 17.933594 26.964844 C 17.839844 27.5 17.792969 27.980469 17.714844 28.5 L 10.5 28.5 Z M 33.375 21.75 C 34.210938 21.75 36.742188 21.96875 39.011719 22.363281 C 40.148438 22.5625 41.25 22.804688 42.074219 23.058594 C 42.65625 23.238281 43.097656 23.492188 43.234375 23.550781 C 43.292969 23.660156 43.402344 23.851562 43.496094 24.105469 C 43.679688 24.59375 43.875 25.285156 44.050781 26.058594 C 44.238281 26.886719 44.398438 27.804688 44.535156 28.71875 C 36.378906 29.914062 29.914062 36.378906 28.71875 44.535156 C 27.804688 44.398438 26.886719 44.238281 26.058594 44.050781 C 25.285156 43.875 24.59375 43.679688 24.105469 43.496094 C 23.851562 43.402344 23.660156 43.292969 23.550781 43.234375 C 23.492188 43.097656 23.238281 42.65625 23.058594 42.074219 C 22.804688 41.25 22.5625 40.148438 22.363281 39.011719 C 21.96875 36.742188 21.75 34.210938 21.75 33.375 C 21.75 32.539062 21.96875 30.007812 22.363281 27.738281 C 22.5625 26.601562 22.804688 25.5 23.058594 24.675781 C 23.230469 24.117188 23.46875 23.695312 23.539062 23.539062 C 23.695312 23.46875 24.117188 23.230469 24.675781 23.058594 C 25.5 22.804688 26.601562 22.5625 27.738281 22.363281 C 30.007812 21.96875 32.539062 21.75 33.375 21.75 Z M 47.242188 33 C 47.246094 33 47.246094 33 47.25 33 C 55.148438 33 61.5 39.351562 61.5 47.25 C 61.5 55.148438 55.148438 61.5 47.25 61.5 C 39.355469 61.5 33.007812 55.152344 33 47.261719 C 33.003906 47.21875 33.003906 47.179688 33.003906 47.136719 C 33.066406 39.34375 39.3125 33.089844 47.101562 33.007812 C 47.148438 33.007812 47.195312 33.003906 47.242188 33 Z M 47.242188 33 "/>
</g>
</svg>
