<?xml version="1.0" encoding="UTF-8"?>
<svg xmlns="http://www.w3.org/2000/svg" xmlns:xlink="http://www.w3.org/1999/xlink" width="72pt" height="72pt" viewBox="0 0 72 72" version="1.1">
<g id="surface181">
<path style=" stroke:none;fill-rule:nonzero;fill:rgb(9.803922%,9.803922%,9.803922%);fill-opacity:1;" d="M 35.945312 9 C 34.84375 9 33.726562 9.0625 32.597656 9.1875 C 18.789062 10.710938 7.6875 21.839844 6.183594 35.648438 L 6.183594 35.652344 C 5.175781 44.882812 8.40625 53.425781 14.15625 59.535156 C 16.277344 61.789062 19.242188 63.003906 22.289062 63.003906 L 49.710938 63.003906 C 52.761719 63.003906 55.730469 61.785156 57.851562 59.527344 C 62.894531 54.167969 66 46.9375 66 39 C 66 23.542969 54.226562 10.789062 39.207031 9.171875 C 38.136719 9.058594 37.046875 9 35.945312 9 Z M 35.957031 13.496094 C 36.898438 13.496094 37.832031 13.542969 38.746094 13.640625 C 51.578125 14.996094 61.5 25.816406 61.5 39 C 61.5 45.765625 58.867188 51.878906 54.574219 56.441406 C 53.335938 57.761719 51.5625 58.503906 49.710938 58.503906 L 22.289062 58.503906 C 20.4375 58.503906 18.667969 57.765625 17.433594 56.453125 L 17.433594 56.449219 C 12.535156 51.25 9.792969 44.046875 10.65625 36.136719 C 11.929688 24.449219 21.40625 14.949219 33.089844 13.660156 C 34.054688 13.554688 35.011719 13.5 35.957031 13.496094 Z M 36 15.75 C 34.757812 15.75 33.75 16.757812 33.75 18 C 33.75 19.242188 34.757812 20.25 36 20.25 C 37.242188 20.25 38.25 19.242188 38.25 18 C 38.25 16.757812 37.242188 15.75 36 15.75 Z M 21.152344 21.902344 C 19.910156 21.902344 18.902344 22.910156 18.902344 24.152344 C 18.902344 25.394531 19.910156 26.402344 21.152344 26.402344 C 22.394531 26.402344 23.402344 25.394531 23.402344 24.152344 C 23.402344 22.910156 22.394531 21.902344 21.152344 21.902344 Z M 50.847656 21.902344 C 49.605469 21.902344 48.597656 22.910156 48.597656 24.152344 C 48.597656 25.394531 49.605469 26.402344 50.847656 26.402344 C 52.089844 26.402344 53.097656 25.394531 53.097656 24.152344 C 53.097656 22.910156 52.089844 21.902344 50.847656 21.902344 Z M 51.746094 31.824219 C 48.3125 31.765625 36.191406 35.671875 34.851562 36.230469 C 33.320312 36.863281 32.59375 38.617188 33.230469 40.148438 C 33.863281 41.679688 35.617188 42.40625 37.148438 41.769531 C 38.679688 41.136719 53.261719 33.640625 52.628906 32.113281 C 52.550781 31.921875 52.238281 31.832031 51.746094 31.824219 Z M 15 36.75 C 13.757812 36.75 12.75 37.757812 12.75 39 C 12.75 40.242188 13.757812 41.25 15 41.25 C 16.242188 41.25 17.25 40.242188 17.25 39 C 17.25 37.757812 16.242188 36.75 15 36.75 Z M 57 36.75 C 55.757812 36.75 54.75 37.757812 54.75 39 C 54.75 40.242188 55.757812 41.25 57 41.25 C 58.242188 41.25 59.25 40.242188 59.25 39 C 59.25 37.757812 58.242188 36.75 57 36.75 Z M 21.152344 51.597656 C 19.910156 51.597656 18.902344 52.605469 18.902344 53.847656 C 18.902344 55.089844 19.910156 56.097656 21.152344 56.097656 C 22.394531 56.097656 23.402344 55.089844 23.402344 53.847656 C 23.402344 52.605469 22.394531 51.597656 21.152344 51.597656 Z M 50.847656 51.597656 C 49.605469 51.597656 48.597656 52.605469 48.597656 53.847656 C 48.597656 55.089844 49.605469 56.097656 50.847656 56.097656 C 52.089844 56.097656 53.097656 55.089844 53.097656 53.847656 C 53.097656 52.605469 52.089844 51.597656 50.847656 51.597656 Z M 50.847656 51.597656 "/>
</g>
</svg>
