<?xml version="1.0" encoding="UTF-8"?>
<svg xmlns="http://www.w3.org/2000/svg" xmlns:xlink="http://www.w3.org/1999/xlink" width="72pt" height="72pt" viewBox="0 0 72 72" version="1.1">
<g id="surface205">
<path style=" stroke:none;fill-rule:nonzero;fill:rgb(9.803922%,9.803922%,9.803922%);fill-opacity:1;" d="M 15.75 9 C 12.046875 9 9 12.046875 9 15.75 L 9 27.75 C 9 31.453125 12.046875 34.5 15.75 34.5 L 27.75 34.5 C 31.453125 34.5 34.5 31.453125 34.5 27.75 L 34.5 15.75 C 34.5 12.046875 31.453125 9 27.75 9 Z M 44.25 9 C 40.546875 9 37.5 12.046875 37.5 15.75 L 37.5 27.75 C 37.5 31.453125 40.546875 34.5 44.25 34.5 L 56.25 34.5 C 59.953125 34.5 63 31.453125 63 27.75 L 63 15.75 C 63 12.046875 59.953125 9 56.25 9 Z M 15.75 13.5 L 27.75 13.5 C 29.019531 13.5 30 14.480469 30 15.75 L 30 27.75 C 30 29.019531 29.019531 30 27.75 30 L 15.75 30 C 14.480469 30 13.5 29.019531 13.5 27.75 L 13.5 15.75 C 13.5 14.480469 14.480469 13.5 15.75 13.5 Z M 44.25 13.5 L 56.25 13.5 C 57.519531 13.5 58.5 14.480469 58.5 15.75 L 58.5 27.75 C 58.5 29.019531 57.519531 30 56.25 30 L 44.25 30 C 42.980469 30 42 29.019531 42 27.75 L 42 15.75 C 42 14.480469 42.980469 13.5 44.25 13.5 Z M 15.75 37.5 C 12.046875 37.5 9 40.546875 9 44.25 L 9 56.25 C 9 59.953125 12.046875 63 15.75 63 L 27.75 63 C 31.453125 63 34.5 59.953125 34.5 56.25 L 34.5 44.25 C 34.5 40.546875 31.453125 37.5 27.75 37.5 Z M 44.25 37.5 C 40.546875 37.5 37.5 40.546875 37.5 44.25 L 37.5 56.25 C 37.5 59.953125 40.546875 63 44.25 63 L 56.25 63 C 59.953125 63 63 59.953125 63 56.25 L 63 44.25 C 63 40.546875 59.953125 37.5 56.25 37.5 Z M 15.75 42 L 27.75 42 C 29.019531 42 30 42.980469 30 44.25 L 30 56.25 C 30 57.519531 29.019531 58.5 27.75 58.5 L 15.75 58.5 C 14.480469 58.5 13.5 57.519531 13.5 56.25 L 13.5 44.25 C 13.5 42.980469 14.480469 42 15.75 42 Z M 44.25 42 L 56.25 42 C 57.519531 42 58.5 42.980469 58.5 44.25 L 58.5 56.25 C 58.5 57.519531 57.519531 58.5 56.25 58.5 L 44.25 58.5 C 42.980469 58.5 42 57.519531 42 56.25 L 42 44.25 C 42 42.980469 42.980469 42 44.25 42 Z M 44.25 42 "/>
</g>
</svg>
