<?xml version="1.0" encoding="UTF-8"?>
<svg xmlns="http://www.w3.org/2000/svg" xmlns:xlink="http://www.w3.org/1999/xlink" width="12pt" height="12pt" viewBox="0 0 12 12" version="1.1">
<g id="surface2633">
<path style=" stroke:none;fill-rule:nonzero;fill:rgb(96.078432%,80.784315%,52.156866%);fill-opacity:1;" d="M 1.625 7.542969 C 2.859375 7.332031 4.898438 6.699219 6.085938 4.765625 L 10.613281 7.292969 C 9.191406 9.328125 7.765625 10.925781 7.230469 11.503906 Z M 1.625 7.542969 "/>
<path style=" stroke:none;fill-rule:nonzero;fill:rgb(58.823532%,47.843137%,26.666668%);fill-opacity:1;" d="M 6.207031 5.261719 L 10.066406 7.417969 C 8.90625 9.039062 7.773438 10.347656 7.179688 11.007812 L 2.53125 7.722656 C 3.714844 7.394531 5.191406 6.707031 6.207031 5.261719 M 5.941406 4.257812 C 4.367188 7.269531 0.589844 7.269531 0.589844 7.269531 L 7.28125 12 C 7.28125 12 9.257812 9.957031 11.15625 7.167969 Z M 5.941406 4.257812 "/>
<path style=" stroke:none;fill-rule:nonzero;fill:rgb(54.509807%,71.764708%,94.117647%);fill-opacity:1;" d="M 5.820312 5.082031 L 6.253906 4.464844 C 6.378906 4.242188 6.546875 4.097656 6.75 4.027344 C 6.847656 3.992188 6.949219 3.972656 7.054688 3.972656 C 7.207031 3.972656 7.359375 4.011719 7.492188 4.085938 L 8.429688 4.609375 L 11.121094 0.539062 C 11.171875 0.464844 11.257812 0.417969 11.351562 0.417969 C 11.398438 0.417969 11.441406 0.429688 11.484375 0.453125 C 11.609375 0.523438 11.65625 0.679688 11.597656 0.808594 L 9.546875 5.234375 L 10.4375 5.730469 C 10.617188 5.832031 10.757812 5.992188 10.832031 6.179688 C 10.960938 6.496094 10.941406 6.777344 10.808594 7.015625 L 10.378906 7.625 Z M 5.820312 5.082031 "/>
<path style=" stroke:none;fill-rule:nonzero;fill:rgb(30.588236%,47.843137%,70.980394%);fill-opacity:1;" d="M 10.695312 1.867188 L 9.355469 4.761719 L 9.0625 5.390625 L 9.667969 5.730469 L 10.257812 6.058594 C 10.359375 6.117188 10.441406 6.210938 10.488281 6.320312 L 10.511719 6.386719 C 10.566406 6.523438 10.5625 6.675781 10.5 6.804688 L 10.265625 7.132812 L 6.367188 4.957031 L 6.558594 4.679688 L 6.582031 4.648438 L 6.601562 4.613281 C 6.660156 4.503906 6.757812 4.421875 6.878906 4.378906 C 6.933594 4.359375 6.996094 4.347656 7.054688 4.347656 C 7.144531 4.347656 7.230469 4.371094 7.308594 4.414062 L 7.945312 4.769531 L 8.550781 5.109375 L 8.9375 4.527344 L 10.695312 1.867188 M 11.351562 0.0429688 C 11.140625 0.0429688 10.933594 0.144531 10.808594 0.332031 L 8.308594 4.113281 L 7.675781 3.757812 C 7.484375 3.652344 7.269531 3.597656 7.054688 3.597656 C 6.910156 3.597656 6.761719 3.621094 6.621094 3.671875 C 6.335938 3.777344 6.09375 3.984375 5.945312 4.25 L 5.273438 5.207031 L 10.488281 8.117188 L 11.140625 7.199219 C 11.324219 6.863281 11.351562 6.460938 11.207031 6.105469 L 11.183594 6.042969 C 11.074219 5.769531 10.875 5.546875 10.621094 5.402344 L 10.035156 5.074219 L 11.941406 0.964844 C 12.082031 0.65625 11.964844 0.289062 11.667969 0.125 C 11.566406 0.0703125 11.457031 0.0429688 11.351562 0.0429688 Z M 11.351562 0.0429688 "/>
<path style=" stroke:none;fill-rule:nonzero;fill:rgb(58.823532%,47.843137%,26.666668%);fill-opacity:1;" d="M 3.003906 8.65625 L 3.75 9.21875 C 3.75 9.21875 4.738281 8.632812 6.09375 7.019531 C 4.664062 8.199219 3.003906 8.65625 3.003906 8.65625 Z M 5.257812 10.40625 L 5.972656 10.863281 C 5.972656 10.863281 6.507812 10.601562 7.339844 9.5625 C 6.28125 10.40625 5.257812 10.40625 5.257812 10.40625 Z M 5.257812 10.40625 "/>
<path style=" stroke:none;fill-rule:nonzero;fill:rgb(69.01961%,75.686276%,83.137256%);fill-opacity:1;" d="M 1.5 1.125 C 0.878906 1.125 0.375 1.628906 0.375 2.25 C 0.375 2.871094 0.878906 3.375 1.5 3.375 C 2.121094 3.375 2.625 2.871094 2.625 2.25 C 2.625 1.628906 2.121094 1.125 1.5 1.125 Z M 1.5 1.125 "/>
<path style=" stroke:none;fill-rule:nonzero;fill:rgb(40.000001%,47.450981%,56.078434%);fill-opacity:1;" d="M 1.5 1.5 C 1.914062 1.5 2.25 1.835938 2.25 2.25 C 2.25 2.664062 1.914062 3 1.5 3 C 1.085938 3 0.75 2.664062 0.75 2.25 C 0.75 1.835938 1.085938 1.5 1.5 1.5 M 1.5 0.75 C 0.671875 0.75 0 1.421875 0 2.25 C 0 3.078125 0.671875 3.75 1.5 3.75 C 2.328125 3.75 3 3.078125 3 2.25 C 3 1.421875 2.328125 0.75 1.5 0.75 Z M 1.5 0.75 "/>
<path style=" stroke:none;fill-rule:nonzero;fill:rgb(40.000001%,47.450981%,56.078434%);fill-opacity:1;" d="M 2.25 4.5 C 1.835938 4.5 1.5 4.835938 1.5 5.25 C 1.5 5.664062 1.835938 6 2.25 6 C 2.664062 6 3 5.664062 3 5.25 C 3 4.835938 2.664062 4.5 2.25 4.5 Z M 2.25 4.5 "/>
</g>
</svg>
