<?xml version="1.0" encoding="UTF-8"?>
<svg xmlns="http://www.w3.org/2000/svg" xmlns:xlink="http://www.w3.org/1999/xlink" width="12pt" height="12pt" viewBox="0 0 12 12" version="1.1">
<g id="surface11501">
<path style=" stroke:none;fill-rule:nonzero;fill:rgb(72.941178%,87.843138%,74.117649%);fill-opacity:1;" d="M 0.375 8.625 L 1.875 8.625 L 1.875 10.875 L 0.375 10.875 Z M 0.375 8.625 "/>
<path style=" stroke:none;fill-rule:nonzero;fill:rgb(36.862746%,61.176473%,46.27451%);fill-opacity:1;" d="M 1.5 9 L 1.5 10.5 L 0.75 10.5 L 0.75 9 L 1.5 9 M 2.25 8.25 L 0 8.25 L 0 11.25 L 2.25 11.25 Z M 2.25 8.25 "/>
<path style=" stroke:none;fill-rule:nonzero;fill:rgb(72.941178%,87.843138%,74.117649%);fill-opacity:1;" d="M 3.375 6.375 L 4.875 6.375 L 4.875 10.875 L 3.375 10.875 Z M 3.375 6.375 "/>
<path style=" stroke:none;fill-rule:nonzero;fill:rgb(36.862746%,61.176473%,46.27451%);fill-opacity:1;" d="M 4.5 6.75 L 4.5 10.5 L 3.75 10.5 L 3.75 6.75 L 4.5 6.75 M 5.25 6 L 3 6 L 3 11.25 L 5.25 11.25 Z M 5.25 6 "/>
<path style=" stroke:none;fill-rule:nonzero;fill:rgb(72.941178%,87.843138%,74.117649%);fill-opacity:1;" d="M 6.375 8.625 L 7.875 8.625 L 7.875 10.875 L 6.375 10.875 Z M 6.375 8.625 "/>
<path style=" stroke:none;fill-rule:nonzero;fill:rgb(36.862746%,61.176473%,46.27451%);fill-opacity:1;" d="M 7.5 9 L 7.5 10.5 L 6.75 10.5 L 6.75 9 L 7.5 9 M 8.25 8.25 L 6 8.25 L 6 11.25 L 8.25 11.25 Z M 8.25 8.25 "/>
<path style=" stroke:none;fill-rule:nonzero;fill:rgb(72.941178%,87.843138%,74.117649%);fill-opacity:1;" d="M 9.375 6.375 L 10.875 6.375 L 10.875 10.875 L 9.375 10.875 Z M 9.375 6.375 "/>
<path style=" stroke:none;fill-rule:nonzero;fill:rgb(36.862746%,61.176473%,46.27451%);fill-opacity:1;" d="M 10.5 6.75 L 10.5 10.5 L 9.75 10.5 L 9.75 6.75 L 10.5 6.75 M 11.25 6 L 9 6 L 9 11.25 L 11.25 11.25 Z M 11.25 6 "/>
<path style=" stroke:none;fill-rule:nonzero;fill:rgb(30.588236%,47.843137%,70.980394%);fill-opacity:1;" d="M 7.125 3.824219 L 4.125 2.324219 L 1.351562 3.675781 L 0.976562 3.074219 L 4.125 1.425781 L 7.125 3 L 9.976562 1.5 L 10.273438 2.175781 Z M 7.125 3.824219 "/>
<path style=" stroke:none;fill-rule:nonzero;fill:rgb(54.509807%,71.764708%,94.117647%);fill-opacity:1;" d="M 1.125 2.625 C 0.710938 2.625 0.375 2.960938 0.375 3.375 C 0.375 3.789062 0.710938 4.125 1.125 4.125 C 1.539062 4.125 1.875 3.789062 1.875 3.375 C 1.875 2.960938 1.539062 2.625 1.125 2.625 Z M 1.125 2.625 "/>
<path style=" stroke:none;fill-rule:nonzero;fill:rgb(30.588236%,47.843137%,70.980394%);fill-opacity:1;" d="M 1.125 3 C 1.351562 3 1.5 3.148438 1.5 3.375 C 1.5 3.601562 1.351562 3.75 1.125 3.75 C 0.898438 3.75 0.75 3.601562 0.75 3.375 C 0.75 3.148438 0.898438 3 1.125 3 M 1.125 2.25 C 0.523438 2.25 0 2.773438 0 3.375 C 0 3.976562 0.523438 4.5 1.125 4.5 C 1.726562 4.5 2.25 3.976562 2.25 3.375 C 2.25 2.773438 1.726562 2.25 1.125 2.25 Z M 1.125 2.25 "/>
<path style=" stroke:none;fill-rule:nonzero;fill:rgb(54.509807%,71.764708%,94.117647%);fill-opacity:1;" d="M 4.125 1.125 C 3.710938 1.125 3.375 1.460938 3.375 1.875 C 3.375 2.289062 3.710938 2.625 4.125 2.625 C 4.539062 2.625 4.875 2.289062 4.875 1.875 C 4.875 1.460938 4.539062 1.125 4.125 1.125 Z M 4.125 1.125 "/>
<path style=" stroke:none;fill-rule:nonzero;fill:rgb(30.588236%,47.843137%,70.980394%);fill-opacity:1;" d="M 4.125 1.5 C 4.351562 1.5 4.5 1.648438 4.5 1.875 C 4.5 2.101562 4.351562 2.25 4.125 2.25 C 3.898438 2.25 3.75 2.101562 3.75 1.875 C 3.75 1.648438 3.898438 1.5 4.125 1.5 M 4.125 0.75 C 3.523438 0.75 3 1.273438 3 1.875 C 3 2.476562 3.523438 3 4.125 3 C 4.726562 3 5.25 2.476562 5.25 1.875 C 5.25 1.273438 4.726562 0.75 4.125 0.75 Z M 4.125 0.75 "/>
<path style=" stroke:none;fill-rule:nonzero;fill:rgb(54.509807%,71.764708%,94.117647%);fill-opacity:1;" d="M 7.125 2.625 C 6.710938 2.625 6.375 2.960938 6.375 3.375 C 6.375 3.789062 6.710938 4.125 7.125 4.125 C 7.539062 4.125 7.875 3.789062 7.875 3.375 C 7.875 2.960938 7.539062 2.625 7.125 2.625 Z M 7.125 2.625 "/>
<path style=" stroke:none;fill-rule:nonzero;fill:rgb(30.588236%,47.843137%,70.980394%);fill-opacity:1;" d="M 7.125 3 C 7.351562 3 7.5 3.148438 7.5 3.375 C 7.5 3.601562 7.351562 3.75 7.125 3.75 C 6.898438 3.75 6.75 3.601562 6.75 3.375 C 6.75 3.148438 6.898438 3 7.125 3 M 7.125 2.25 C 6.523438 2.25 6 2.773438 6 3.375 C 6 3.976562 6.523438 4.5 7.125 4.5 C 7.726562 4.5 8.25 3.976562 8.25 3.375 C 8.25 2.773438 7.726562 2.25 7.125 2.25 Z M 7.125 2.25 "/>
<path style=" stroke:none;fill-rule:nonzero;fill:rgb(54.509807%,71.764708%,94.117647%);fill-opacity:1;" d="M 10.125 1.125 C 9.710938 1.125 9.375 1.460938 9.375 1.875 C 9.375 2.289062 9.710938 2.625 10.125 2.625 C 10.539062 2.625 10.875 2.289062 10.875 1.875 C 10.875 1.460938 10.539062 1.125 10.125 1.125 Z M 10.125 1.125 "/>
<path style=" stroke:none;fill-rule:nonzero;fill:rgb(30.588236%,47.843137%,70.980394%);fill-opacity:1;" d="M 10.125 1.5 C 10.351562 1.5 10.5 1.648438 10.5 1.875 C 10.5 2.101562 10.351562 2.25 10.125 2.25 C 9.898438 2.25 9.75 2.101562 9.75 1.875 C 9.75 1.648438 9.898438 1.5 10.125 1.5 M 10.125 0.75 C 9.523438 0.75 9 1.273438 9 1.875 C 9 2.476562 9.523438 3 10.125 3 C 10.726562 3 11.25 2.476562 11.25 1.875 C 11.25 1.273438 10.726562 0.75 10.125 0.75 Z M 10.125 0.75 "/>
</g>
</svg>
