<?xml version="1.0" encoding="UTF-8"?>
<svg xmlns="http://www.w3.org/2000/svg" xmlns:xlink="http://www.w3.org/1999/xlink" width="30pt" height="30pt" viewBox="0 0 30 30" version="1.1">
<g id="surface182">
<path style=" stroke:none;fill-rule:nonzero;fill:rgb(100%,100%,100%);fill-opacity:1;" d="M 2.8125 0.9375 L 27.1875 0.9375 L 27.1875 29.0625 L 2.8125 29.0625 Z M 2.8125 0.9375 "/>
<path style=" stroke:none;fill-rule:nonzero;fill:rgb(47.058824%,54.509807%,61.176473%);fill-opacity:1;" d="M 26.25 1.875 L 26.25 28.125 L 3.75 28.125 L 3.75 1.875 L 26.25 1.875 M 28.125 0 L 1.875 0 L 1.875 30 L 28.125 30 Z M 28.125 0 "/>
<path style=" stroke:none;fill-rule:nonzero;fill:rgb(47.058824%,54.509807%,61.176473%);fill-opacity:1;" d="M 7.5 7.5 L 9.375 7.5 L 9.375 9.375 L 7.5 9.375 Z M 11.25 7.5 L 22.5 7.5 L 22.5 9.375 L 11.25 9.375 Z M 7.5 11.25 L 9.375 11.25 L 9.375 13.125 L 7.5 13.125 Z M 11.25 11.25 L 22.5 11.25 L 22.5 13.125 L 11.25 13.125 Z M 7.5 15 L 9.375 15 L 9.375 16.875 L 7.5 16.875 Z M 11.25 15 L 22.5 15 L 22.5 16.875 L 11.25 16.875 Z M 7.5 18.75 L 9.375 18.75 L 9.375 20.625 L 7.5 20.625 Z M 11.25 18.75 L 22.5 18.75 L 22.5 20.625 L 11.25 20.625 Z M 11.25 18.75 "/>
</g>
</svg>
