<?xml version="1.0" encoding="UTF-8"?>
<svg xmlns="http://www.w3.org/2000/svg" xmlns:xlink="http://www.w3.org/1999/xlink" width="30pt" height="30pt" viewBox="0 0 30 30" version="1.1">
<g id="surface361">
<path style=" stroke:none;fill-rule:nonzero;fill:rgb(100%,100%,100%);fill-opacity:1;" d="M 4.6875 27.1875 L 4.6875 0.9375 L 18.5625 0.9375 L 25.3125 7.875 L 25.3125 27.1875 Z M 4.6875 27.1875 "/>
<path style=" stroke:none;fill-rule:nonzero;fill:rgb(47.058824%,54.509807%,61.176473%);fill-opacity:1;" d="M 18.1875 1.875 L 24.375 8.25 L 24.375 26.25 L 5.625 26.25 L 5.625 1.875 L 18.1875 1.875 M 18.9375 0 L 3.75 0 L 3.75 28.125 L 26.25 28.125 L 26.25 7.5 Z M 18.9375 0 "/>
<path style=" stroke:none;fill-rule:nonzero;fill:rgb(100%,100%,100%);fill-opacity:1;" d="M 17.8125 8.4375 L 17.8125 0.9375 L 18.375 0.9375 L 25.3125 7.875 L 25.3125 8.4375 Z M 17.8125 8.4375 "/>
<path style=" stroke:none;fill-rule:nonzero;fill:rgb(47.058824%,54.509807%,61.176473%);fill-opacity:1;" d="M 18.75 2.625 L 23.625 7.5 L 18.75 7.5 L 18.75 2.625 M 18.75 0 L 16.875 0 L 16.875 9.375 L 26.25 9.375 L 26.25 7.5 Z M 9.375 13.125 L 20.625 13.125 L 20.625 15 L 9.375 15 Z M 9.375 16.875 L 16.875 16.875 L 16.875 18.75 L 9.375 18.75 Z M 9.375 20.625 L 16.875 20.625 L 16.875 22.5 L 9.375 22.5 Z M 9.375 20.625 "/>
<path style=" stroke:none;fill-rule:nonzero;fill:rgb(83.92157%,89.019608%,92.941177%);fill-opacity:1;" d="M 24.375 13.125 L 24.375 26.25 L 15 26.25 L 15 28.125 L 26.25 28.125 L 26.25 13.125 Z M 24.375 13.125 "/>
<path style=" stroke:none;fill-rule:nonzero;fill:rgb(86.274511%,83.529413%,94.901961%);fill-opacity:1;" d="M 19.6875 17.8125 L 29.0625 17.8125 L 29.0625 29.0625 L 19.6875 29.0625 Z M 19.6875 17.8125 "/>
<path style=" stroke:none;fill-rule:nonzero;fill:rgb(54.509807%,45.882353%,63.137257%);fill-opacity:1;" d="M 28.125 18.75 L 28.125 28.125 L 20.625 28.125 L 20.625 18.75 L 28.125 18.75 M 30 16.875 L 18.75 16.875 L 18.75 30 L 30 30 Z M 30 16.875 "/>
<path style=" stroke:none;fill-rule:nonzero;fill:rgb(97.647059%,96.862745%,100%);fill-opacity:1;" d="M 22.5 18.75 L 24.375 18.75 L 24.375 28.125 L 22.5 28.125 Z M 22.5 18.75 "/>
<path style=" stroke:none;fill-rule:nonzero;fill:rgb(54.509807%,45.882353%,63.137257%);fill-opacity:1;" d="M 18.75 20.625 L 30 20.625 L 30 22.5 L 18.75 22.5 Z M 18.75 24.375 L 30 24.375 L 30 26.25 L 18.75 26.25 Z M 18.75 24.375 "/>
</g>
</svg>
