<?xml version="1.0" encoding="UTF-8"?>
<svg xmlns="http://www.w3.org/2000/svg" xmlns:xlink="http://www.w3.org/1999/xlink" width="30pt" height="30pt" viewBox="0 0 30 30" version="1.1">
<g id="surface101">
<path style=" stroke:none;fill-rule:nonzero;fill:rgb(100%,93.333334%,63.921571%);fill-opacity:1;" d="M 14.0625 0.9375 C 6.75 0.9375 0.9375 6.75 0.9375 14.0625 C 0.9375 21.375 6.75 27.1875 14.0625 27.1875 C 21.375 27.1875 27.1875 21.375 27.1875 14.0625 C 27.1875 6.75 21.375 0.9375 14.0625 0.9375 Z M 14.0625 0.9375 "/>
<path style=" stroke:none;fill-rule:nonzero;fill:rgb(72.941178%,60.784316%,28.235295%);fill-opacity:1;" d="M 14.0625 1.875 C 20.8125 1.875 26.25 7.3125 26.25 14.0625 C 26.25 20.8125 20.8125 26.25 14.0625 26.25 C 7.3125 26.25 1.875 20.8125 1.875 14.0625 C 1.875 7.3125 7.3125 1.875 14.0625 1.875 M 14.0625 0 C 6.375 0 0 6.375 0 14.0625 C 0 21.75 6.375 28.125 14.0625 28.125 C 21.75 28.125 28.125 21.75 28.125 14.0625 C 28.125 6.375 21.75 0 14.0625 0 Z M 14.0625 0 "/>
<path style=" stroke:none;fill-rule:nonzero;fill:rgb(21.176471%,25.098041%,30.19608%);fill-opacity:1;" d="M 14.0625 17.8125 C 12.9375 17.8125 12.1875 18.5625 12.1875 19.6875 C 12.1875 20.8125 12.9375 21.5625 14.0625 21.5625 C 15.1875 21.5625 15.9375 20.8125 15.9375 19.6875 C 15.9375 18.5625 15.1875 17.8125 14.0625 17.8125 Z M 13.125 5.625 L 15 5.625 L 15 15 L 13.125 15 Z M 13.125 5.625 "/>
</g>
</svg>
