<?xml version="1.0" encoding="UTF-8"?>
<svg xmlns="http://www.w3.org/2000/svg" xmlns:xlink="http://www.w3.org/1999/xlink" width="30pt" height="30pt" viewBox="0 0 30 30" version="1.1">
<g id="surface92">
<path style=" stroke:none;fill-rule:nonzero;fill:rgb(30.588236%,47.843137%,70.980394%);fill-opacity:1;" d="M 28.125 5.625 L 1.875 5.625 C 0.839844 5.625 0 6.464844 0 7.5 L 0 26.25 C 0 27.285156 0.839844 28.125 1.875 28.125 L 28.125 28.125 C 29.160156 28.125 30 27.285156 30 26.25 L 30 7.5 C 30 6.464844 29.160156 5.625 28.125 5.625 Z M 28.125 5.625 "/>
<path style=" stroke:none;fill-rule:nonzero;fill:rgb(30.588236%,47.843137%,70.980394%);fill-opacity:1;" d="M 15 22.5 C 12.929688 22.5 11.25 24.179688 11.25 26.25 C 11.25 28.320312 12.929688 30 15 30 C 17.070312 30 18.75 28.320312 18.75 26.25 C 18.75 24.179688 17.070312 22.5 15 22.5 Z M 15 22.5 "/>
<path style=" stroke:none;fill-rule:nonzero;fill:rgb(100%,100%,100%);fill-opacity:1;" d="M 15.011719 25.117188 C 14.023438 24.503906 11.824219 23.4375 8.4375 23.4375 C 5.886719 23.4375 4.007812 24.042969 2.8125 24.605469 L 2.8125 4.359375 C 3.511719 3.878906 5.402344 2.8125 8.4375 2.8125 C 12.335938 2.8125 14.347656 4.570312 14.371094 4.589844 L 15 5.152344 L 15.628906 4.589844 C 15.648438 4.574219 17.679688 2.8125 21.5625 2.8125 C 24.617188 2.8125 26.492188 3.871094 27.1875 4.355469 L 27.1875 24.625 C 25.976562 24.058594 24.078125 23.4375 21.5625 23.4375 C 18.265625 23.4375 16.019531 24.511719 15.011719 25.117188 Z M 15.011719 25.117188 "/>
<path style=" stroke:none;fill-rule:nonzero;fill:rgb(47.058824%,54.509807%,61.176473%);fill-opacity:1;" d="M 21.5625 3.75 C 23.894531 3.75 25.457031 4.414062 26.25 4.871094 L 26.25 23.238281 C 25.03125 22.828125 23.460938 22.5 21.5625 22.5 C 18.488281 22.5 16.273438 23.359375 15.015625 24.03125 C 13.773438 23.351562 11.582031 22.5 8.4375 22.5 C 6.519531 22.5 4.960938 22.816406 3.75 23.21875 L 3.75 4.871094 C 4.546875 4.410156 6.101562 3.75 8.4375 3.75 C 11.929688 3.75 13.679688 5.230469 13.734375 5.277344 L 14.996094 6.433594 L 16.261719 5.28125 C 16.277344 5.265625 18.042969 3.75 21.5625 3.75 M 21.5625 1.875 C 17.21875 1.875 15 3.894531 15 3.894531 C 15 3.894531 12.796875 1.875 8.4375 1.875 C 4.078125 1.875 1.875 3.894531 1.875 3.894531 L 1.875 26.25 C 1.875 26.25 4.074219 24.375 8.4375 24.375 C 12.800781 24.375 15 26.25 15 26.25 C 15 26.25 17.339844 24.375 21.5625 24.375 C 25.785156 24.375 28.125 26.25 28.125 26.25 L 28.125 3.894531 C 28.125 3.894531 25.90625 1.875 21.5625 1.875 Z M 21.5625 1.875 "/>
<path style=" stroke:none;fill-rule:nonzero;fill:rgb(88.235295%,92.156863%,94.901961%);fill-opacity:1;" d="M 26.25 23.238281 C 25.03125 22.828125 23.460938 22.5 21.5625 22.5 C 18.488281 22.5 16.273438 23.359375 15.015625 24.03125 L 14.996094 6.433594 L 16.261719 5.28125 C 16.277344 5.265625 18.042969 3.75 21.5625 3.75 C 23.894531 3.75 25.457031 4.414062 26.25 4.871094 Z M 26.25 23.238281 "/>
<path style=" stroke:none;fill-rule:nonzero;fill:rgb(21.176471%,25.098041%,30.19608%);fill-opacity:1;" d="M 20.625 11.25 L 22.5 11.25 L 22.5 18.75 L 20.625 18.75 Z M 21.5625 6.832031 C 20.675781 6.832031 19.957031 7.550781 19.957031 8.4375 C 19.957031 9.324219 20.675781 10.042969 21.5625 10.042969 C 22.449219 10.042969 23.167969 9.324219 23.167969 8.4375 C 23.167969 7.550781 22.449219 6.832031 21.5625 6.832031 Z M 21.5625 6.832031 "/>
<path style=" stroke:none;fill-rule:nonzero;fill:rgb(21.176471%,25.098041%,30.19608%);fill-opacity:1;" d="M 19.6875 16.875 L 23.4375 16.875 L 23.4375 18.75 L 19.6875 18.75 Z M 19.6875 11.25 L 22.5 11.25 L 22.5 13.125 L 19.6875 13.125 Z M 19.6875 11.25 "/>
</g>
</svg>
