<?xml version="1.0" encoding="UTF-8"?>
<svg xmlns="http://www.w3.org/2000/svg" xmlns:xlink="http://www.w3.org/1999/xlink" width="12pt" height="12pt" viewBox="0 0 12 12" version="1.1">
<g id="surface1845">
<path style=" stroke:none;fill-rule:nonzero;fill:rgb(85.882354%,94.901961%,100%);fill-opacity:1;" d="M 1.125 10.875 L 1.125 4.191406 L 6 1.191406 L 10.875 4.191406 L 10.875 10.875 Z M 1.125 10.875 "/>
<path style=" stroke:none;fill-rule:nonzero;fill:rgb(45.490196%,58.823532%,76.862746%);fill-opacity:1;" d="M 6 1.628906 L 10.5 4.398438 L 10.5 10.5 L 1.5 10.5 L 1.5 4.398438 L 6 1.628906 M 6 0.75 L 0.75 3.980469 L 0.75 11.25 L 11.25 11.25 L 11.25 3.980469 Z M 6 0.75 "/>
<path style=" stroke:none;fill-rule:nonzero;fill:rgb(70.980394%,86.666667%,96.078432%);fill-opacity:1;" d="M 1.5 9.75 L 10.5 9.75 L 10.5 10.5 L 1.5 10.5 Z M 1.5 9.75 "/>
<path style=" stroke:none;fill-rule:nonzero;fill:rgb(96.862745%,56.078434%,56.078434%);fill-opacity:1;" d="M 6 2.125 L 0.375 5.585938 L 0.375 3.902344 L 6 0.441406 L 11.625 3.902344 L 11.625 5.585938 Z M 6 2.125 "/>
<path style=" stroke:none;fill-rule:nonzero;fill:rgb(78.039217%,26.274511%,26.274511%);fill-opacity:1;" d="M 6 0.878906 L 11.25 4.113281 L 11.25 4.914062 L 6.390625 1.925781 L 6 1.683594 L 5.605469 1.925781 L 0.75 4.914062 L 0.75 4.113281 L 6 0.878906 M 6 0 L 0 3.691406 L 0 6.253906 L 6 2.5625 L 12 6.253906 L 12 3.691406 Z M 6 0 "/>
<path style=" stroke:none;fill-rule:nonzero;fill:rgb(100%,76.862746%,61.176473%);fill-opacity:1;" d="M 4.875 6.375 L 7.125 6.375 L 7.125 10.875 L 4.875 10.875 Z M 4.875 6.375 "/>
<path style=" stroke:none;fill-rule:nonzero;fill:rgb(63.137257%,41.568628%,29.019609%);fill-opacity:1;" d="M 6.75 6.75 L 6.75 10.5 L 5.25 10.5 L 5.25 6.75 L 6.75 6.75 M 7.5 6 L 4.5 6 L 4.5 11.25 L 7.5 11.25 Z M 7.5 6 "/>
</g>
</svg>
