<?xml version="1.0" encoding="UTF-8"?>
<svg xmlns="http://www.w3.org/2000/svg" xmlns:xlink="http://www.w3.org/1999/xlink" width="13.5pt" height="13.5pt" viewBox="0 0 13.5 13.5" version="1.1">
<g id="surface4125">
<path style="fill-rule:nonzero;fill:rgb(88.235295%,92.156863%,94.901961%);fill-opacity:1;stroke-width:1;stroke-linecap:butt;stroke-linejoin:miter;stroke:rgb(63.921571%,71.764708%,80.000001%);stroke-opacity:1;stroke-miterlimit:4;" d="M 2.496995 13.503606 L 27.503005 13.503606 L 27.503005 16.496394 L 2.496995 16.496394 Z M 2.496995 13.503606 " transform="matrix(0.433333,0,0,0.433333,0,0)"/>
<path style="fill-rule:nonzero;fill:rgb(72.941178%,87.843138%,74.117649%);fill-opacity:1;stroke-width:1;stroke-linecap:butt;stroke-linejoin:miter;stroke:rgb(36.862746%,61.176473%,46.27451%);stroke-opacity:1;stroke-miterlimit:4;" d="M 2.496995 13.503606 L 20.498798 13.503606 L 20.498798 16.496394 L 2.496995 16.496394 Z M 2.496995 13.503606 " transform="matrix(0.433333,0,0,0.433333,0,0)"/>
<path style="fill-rule:nonzero;fill:rgb(72.941178%,87.843138%,74.117649%);fill-opacity:1;stroke-width:1;stroke-linecap:butt;stroke-linejoin:miter;stroke:rgb(36.862746%,61.176473%,46.27451%);stroke-opacity:1;stroke-miterlimit:4;" d="M 18.416466 12.503005 L 21.499399 12.503005 L 21.499399 17.496995 L 18.416466 17.496995 Z M 18.416466 12.503005 " transform="matrix(0.433333,0,0,0.433333,0,0)"/>
<path style="fill-rule:nonzero;fill:rgb(88.235295%,92.156863%,94.901961%);fill-opacity:1;stroke-width:1;stroke-linecap:butt;stroke-linejoin:miter;stroke:rgb(63.921571%,71.764708%,80.000001%);stroke-opacity:1;stroke-miterlimit:4;" d="M 2.496995 22.5 L 27.503005 22.5 L 27.503005 25.501803 L 2.496995 25.501803 Z M 2.496995 22.5 " transform="matrix(0.433333,0,0,0.433333,0,0)"/>
<path style="fill-rule:nonzero;fill:rgb(72.941178%,87.843138%,74.117649%);fill-opacity:1;stroke-width:1;stroke-linecap:butt;stroke-linejoin:miter;stroke:rgb(36.862746%,61.176473%,46.27451%);stroke-opacity:1;stroke-miterlimit:4;" d="M 2.496995 22.5 L 7.995793 22.5 L 7.995793 25.501803 L 2.496995 25.501803 Z M 2.496995 22.5 " transform="matrix(0.433333,0,0,0.433333,0,0)"/>
<path style="fill-rule:nonzero;fill:rgb(72.941178%,87.843138%,74.117649%);fill-opacity:1;stroke-width:1;stroke-linecap:butt;stroke-linejoin:miter;stroke:rgb(36.862746%,61.176473%,46.27451%);stroke-opacity:1;stroke-miterlimit:4;" d="M 6.499399 21.499399 L 9.501202 21.499399 L 9.501202 26.502404 L 6.499399 26.502404 Z M 6.499399 21.499399 " transform="matrix(0.433333,0,0,0.433333,0,0)"/>
<path style="fill-rule:nonzero;fill:rgb(88.235295%,92.156863%,94.901961%);fill-opacity:1;stroke-width:1;stroke-linecap:butt;stroke-linejoin:miter;stroke:rgb(63.921571%,71.764708%,80.000001%);stroke-opacity:1;stroke-miterlimit:4;" d="M 2.496995 4.498197 L 27.503005 4.498197 L 27.503005 7.5 L 2.496995 7.5 Z M 2.496995 4.498197 " transform="matrix(0.433333,0,0,0.433333,0,0)"/>
<path style="fill-rule:nonzero;fill:rgb(72.941178%,87.843138%,74.117649%);fill-opacity:1;stroke-width:1;stroke-linecap:butt;stroke-linejoin:miter;stroke:rgb(36.862746%,61.176473%,46.27451%);stroke-opacity:1;stroke-miterlimit:4;" d="M 2.496995 4.498197 L 12.998798 4.498197 L 12.998798 7.5 L 2.496995 7.5 Z M 2.496995 4.498197 " transform="matrix(0.433333,0,0,0.433333,0,0)"/>
<path style="fill-rule:nonzero;fill:rgb(72.941178%,87.843138%,74.117649%);fill-opacity:1;stroke-width:1;stroke-linecap:butt;stroke-linejoin:miter;stroke:rgb(36.862746%,61.176473%,46.27451%);stroke-opacity:1;stroke-miterlimit:4;" d="M 11.502404 3.497596 L 14.504207 3.497596 L 14.504207 8.500601 L 11.502404 8.500601 Z M 11.502404 3.497596 " transform="matrix(0.433333,0,0,0.433333,0,0)"/>
</g>
</svg>
