<?xml version="1.0" encoding="UTF-8"?>
<svg xmlns="http://www.w3.org/2000/svg" xmlns:xlink="http://www.w3.org/1999/xlink" width="30pt" height="30pt" viewBox="0 0 30 30" version="1.1">
<g id="surface61">
<path style=" stroke:none;fill-rule:nonzero;fill:rgb(88.235295%,92.156863%,94.901961%);fill-opacity:1;" d="M 6.5625 0.9375 L 23.4375 0.9375 L 23.4375 29.0625 L 6.5625 29.0625 Z M 6.5625 0.9375 "/>
<path style=" stroke:none;fill-rule:nonzero;fill:rgb(40.000001%,47.450981%,56.078434%);fill-opacity:1;" d="M 22.5 1.875 L 22.5 28.125 L 7.5 28.125 L 7.5 1.875 L 22.5 1.875 M 24.375 0 L 5.625 0 L 5.625 30 L 24.375 30 Z M 24.375 0 "/>
<path style=" stroke:none;fill-rule:nonzero;fill:rgb(69.01961%,75.686276%,83.137256%);fill-opacity:1;" d="M 10.3125 4.6875 L 19.6875 4.6875 L 19.6875 15.9375 L 10.3125 15.9375 Z M 10.3125 4.6875 "/>
<path style=" stroke:none;fill-rule:nonzero;fill:rgb(40.000001%,47.450981%,56.078434%);fill-opacity:1;" d="M 18.75 5.625 L 18.75 15 L 11.25 15 L 11.25 5.625 L 18.75 5.625 M 20.625 3.75 L 9.375 3.75 L 9.375 16.875 L 20.625 16.875 Z M 20.625 3.75 "/>
<path style=" stroke:none;fill-rule:nonzero;fill:rgb(40.000001%,47.450981%,56.078434%);fill-opacity:1;" d="M 20.625 7.5 L 20.625 9.375 L 9.375 9.375 L 9.375 7.5 Z M 20.625 7.5 "/>
<path style=" stroke:none;fill-rule:nonzero;fill:rgb(100%,100%,100%);fill-opacity:1;" d="M 18.75 5.625 L 18.75 7.5 L 16.875 7.5 L 16.875 5.625 Z M 18.75 5.625 "/>
<path style=" stroke:none;fill-rule:nonzero;fill:rgb(40.000001%,47.450981%,56.078434%);fill-opacity:1;" d="M 20.625 11.25 L 20.625 13.125 L 9.375 13.125 L 9.375 11.25 Z M 20.625 11.25 "/>
<path style=" stroke:none;fill-rule:nonzero;fill:rgb(100%,100%,100%);fill-opacity:1;" d="M 18.75 9.375 L 18.75 11.25 L 16.875 11.25 L 16.875 9.375 Z M 18.75 9.375 "/>
<path style=" stroke:none;fill-rule:nonzero;fill:rgb(100%,100%,100%);fill-opacity:1;" d="M 18.75 13.125 L 18.75 15 L 16.875 15 L 16.875 13.125 Z M 18.75 13.125 "/>
<path style=" stroke:none;fill-rule:nonzero;fill:rgb(30.588236%,47.843137%,70.980394%);fill-opacity:1;" d="M 15 20.625 C 13.964844 20.625 13.125 21.464844 13.125 22.5 C 13.125 23.535156 13.964844 24.375 15 24.375 C 16.035156 24.375 16.875 23.535156 16.875 22.5 C 16.875 21.464844 16.035156 20.625 15 20.625 Z M 15 20.625 "/>
<path style=" stroke:none;fill-rule:nonzero;fill:rgb(86.274511%,83.529413%,94.901961%);fill-opacity:1;" d="M 23.4375 14.542969 C 20.386719 14.542969 17.8125 15.457031 17.8125 16.546875 L 17.8125 26.574219 C 17.8125 27.867188 20.386719 28.796875 23.4375 28.796875 C 26.488281 28.796875 29.0625 27.867188 29.0625 26.574219 L 29.0625 16.546875 C 29.0625 15.457031 26.488281 14.542969 23.4375 14.542969 Z M 23.4375 14.542969 "/>
<path style=" stroke:none;fill-rule:nonzero;fill:rgb(54.509807%,45.882353%,63.137257%);fill-opacity:1;" d="M 23.4375 19.5 C 20.175781 19.5 16.875 18.40625 16.875 16.3125 C 16.875 12.128906 30 12.128906 30 16.3125 C 30 18.40625 26.699219 19.5 23.4375 19.5 Z M 23.4375 15 C 20.566406 15 18.847656 15.929688 18.75 16.324219 C 18.847656 16.695312 20.566406 17.625 23.4375 17.625 C 26.308594 17.625 28.027344 16.695312 28.125 16.300781 C 28.027344 15.929688 26.3125 15 23.4375 15 Z M 23.4375 15 "/>
<path style=" stroke:none;fill-rule:nonzero;fill:rgb(54.509807%,45.882353%,63.137257%);fill-opacity:1;" d="M 23.4375 23.128906 C 20.277344 23.128906 16.875 22.207031 16.875 20.183594 L 18.75 20.183594 C 18.902344 20.433594 20.546875 21.253906 23.4375 21.253906 C 26.328125 21.253906 27.972656 20.433594 28.140625 20.105469 L 30 20.183594 C 30 22.207031 26.597656 23.128906 23.4375 23.128906 Z M 23.4375 23.128906 "/>
<path style=" stroke:none;fill-rule:nonzero;fill:rgb(54.509807%,45.882353%,63.137257%);fill-opacity:1;" d="M 23.4375 26.59375 C 20.257812 26.59375 16.875 25.417969 16.875 23.246094 L 18.75 23.246094 C 18.75 23.613281 20.414062 24.71875 23.4375 24.71875 C 26.460938 24.71875 28.125 23.613281 28.125 23.246094 L 30 23.246094 C 30 25.417969 26.621094 26.59375 23.4375 26.59375 Z M 23.4375 26.59375 "/>
<path style=" stroke:none;fill-rule:nonzero;fill:rgb(54.509807%,45.882353%,63.137257%);fill-opacity:1;" d="M 23.4375 30 C 20.257812 30 16.875 28.835938 16.875 26.679688 L 16.875 16.3125 L 18.75 16.3125 L 18.75 26.679688 C 18.75 27.039062 20.414062 28.125 23.4375 28.125 C 26.460938 28.125 28.125 27.039062 28.125 26.679688 L 28.125 16.3125 L 30 16.3125 L 30 26.679688 C 30 28.835938 26.621094 30 23.4375 30 Z M 23.4375 30 "/>
</g>
</svg>
