<?xml version="1.0" encoding="UTF-8"?>
<svg xmlns="http://www.w3.org/2000/svg" xmlns:xlink="http://www.w3.org/1999/xlink" width="30pt" height="30pt" viewBox="0 0 30 30" version="1.1">
<g id="surface272">
<path style=" stroke:none;fill-rule:nonzero;fill:rgb(100%,100%,100%);fill-opacity:1;" d="M 14.0625 0.9375 C 6.8125 0.9375 0.9375 6.8125 0.9375 14.0625 C 0.9375 21.3125 6.8125 27.1875 14.0625 27.1875 C 21.3125 27.1875 27.1875 21.3125 27.1875 14.0625 C 27.1875 6.8125 21.3125 0.9375 14.0625 0.9375 Z M 14.0625 0.9375 "/>
<path style=" stroke:none;fill-rule:nonzero;fill:rgb(78.039217%,26.274511%,26.274511%);fill-opacity:1;" d="M 14.0625 1.875 C 20.8125 1.875 26.25 7.3125 26.25 14.0625 C 26.25 20.8125 20.8125 26.25 14.0625 26.25 C 7.3125 26.25 1.875 20.8125 1.875 14.0625 C 1.875 7.3125 7.3125 1.875 14.0625 1.875 M 14.0625 0 C 6.375 0 0 6.375 0 14.0625 C 0 21.75 6.375 28.125 14.0625 28.125 C 21.75 28.125 28.125 21.75 28.125 14.0625 C 28.125 6.375 21.75 0 14.0625 0 Z M 14.0625 0 "/>
<path style=" stroke:none;fill-rule:nonzero;fill:rgb(40.000001%,47.450981%,56.078434%);fill-opacity:1;" d="M 14.0625 12.1875 C 13.027344 12.1875 12.1875 13.027344 12.1875 14.0625 C 12.1875 15.097656 13.027344 15.9375 14.0625 15.9375 C 15.097656 15.9375 15.9375 15.097656 15.9375 14.0625 C 15.9375 13.027344 15.097656 12.1875 14.0625 12.1875 Z M 14.0625 12.1875 "/>
<path style=" stroke:none;fill-rule:nonzero;fill:rgb(40.000001%,47.450981%,56.078434%);fill-opacity:1;" d="M 17.8125 20.25 L 12.9375 14.25 L 16.6875 4.3125 L 18.375 5.0625 L 15.1875 13.875 L 19.3125 18.9375 Z M 17.8125 20.25 "/>
<path style=" stroke:none;fill-rule:nonzero;fill:rgb(100%,100%,100%);fill-opacity:1;" d="M 1.6875 7.5 L 5.625 7.5 L 5.625 13.125 L 0 13.125 C 0.1875 11.0625 0.75 9.1875 1.6875 7.5 Z M 1.6875 7.5 "/>
<path style=" stroke:none;fill-rule:nonzero;fill:rgb(78.039217%,26.274511%,26.274511%);fill-opacity:1;" d="M 0 9.375 L 7.5 9.375 L 0 1.875 Z M 0 9.375 "/>
</g>
</svg>
