<?xml version="1.0" encoding="UTF-8"?>
<svg xmlns="http://www.w3.org/2000/svg" xmlns:xlink="http://www.w3.org/1999/xlink" width="13.5pt" height="13.5pt" viewBox="0 0 13.5 13.5" version="1.1">
<g id="surface2521">
<path style=" stroke:none;fill-rule:nonzero;fill:rgb(88.235295%,92.156863%,94.901961%);fill-opacity:1;" d="M 6.90625 0.40625 L 12.59375 0.40625 L 12.59375 12.59375 L 6.90625 12.59375 Z M 6.90625 0.40625 "/>
<path style=" stroke:none;fill-rule:nonzero;fill:rgb(40.000001%,47.450981%,56.078434%);fill-opacity:1;" d="M 12.1875 0.8125 L 12.1875 12.1875 L 7.3125 12.1875 L 7.3125 0.8125 L 12.1875 0.8125 M 13 0 L 6.5 0 L 6.5 13 L 13 13 Z M 13 0 "/>
<path style=" stroke:none;fill-rule:nonzero;fill:rgb(30.588236%,47.843137%,70.980394%);fill-opacity:1;" d="M 9.75 8.9375 C 9.300781 8.9375 8.9375 9.300781 8.9375 9.75 C 8.9375 10.199219 9.300781 10.5625 9.75 10.5625 C 10.199219 10.5625 10.5625 10.199219 10.5625 9.75 C 10.5625 9.300781 10.199219 8.9375 9.75 8.9375 Z M 9.75 8.9375 "/>
<path style=" stroke:none;fill-rule:nonzero;fill:rgb(40.000001%,47.450981%,56.078434%);fill-opacity:1;" d="M 8.125 4.0625 L 11.375 4.0625 L 11.375 4.875 L 8.125 4.875 Z M 8.125 4.0625 "/>
<path style=" stroke:none;fill-rule:nonzero;fill:rgb(21.176471%,25.098041%,30.19608%);fill-opacity:1;" d="M 5.628906 5.6875 C 5.660156 5.6875 5.6875 5.714844 5.6875 5.746094 L 5.6875 10.503906 C 5.6875 10.535156 5.660156 10.5625 5.628906 10.5625 L 4.121094 10.5625 C 4.089844 10.5625 4.0625 10.535156 4.0625 10.503906 L 4.0625 5.746094 C 4.0625 5.714844 4.089844 5.6875 4.121094 5.6875 L 5.628906 5.6875 M 5.628906 4.875 L 4.121094 4.875 C 3.640625 4.875 3.25 5.265625 3.25 5.746094 L 3.25 10.503906 C 3.25 10.984375 3.640625 11.375 4.121094 11.375 L 5.628906 11.375 C 6.109375 11.375 6.5 10.984375 6.5 10.503906 L 6.5 5.746094 C 6.5 5.265625 6.109375 4.875 5.628906 4.875 Z M 5.628906 4.875 "/>
<path style=" stroke:none;fill-rule:nonzero;fill:rgb(40.000001%,47.450981%,56.078434%);fill-opacity:1;" d="M 8.125 1.625 L 11.375 1.625 L 11.375 3.25 L 8.125 3.25 Z M 8.125 1.625 "/>
<path style=" stroke:none;fill-rule:nonzero;fill:rgb(96.862745%,42.745098%,42.745098%);fill-opacity:1;" d="M 0.40625 8.53125 L 9.34375 8.53125 L 9.34375 12.59375 L 0.40625 12.59375 Z M 0.40625 8.53125 "/>
<path style=" stroke:none;fill-rule:nonzero;fill:rgb(78.039217%,26.274511%,26.274511%);fill-opacity:1;" d="M 8.9375 8.9375 L 8.9375 12.1875 L 0.8125 12.1875 L 0.8125 8.9375 L 8.9375 8.9375 M 9.75 8.125 L 0 8.125 L 0 13 L 9.75 13 Z M 9.75 8.125 "/>
<path style=" stroke:none;fill-rule:nonzero;fill:rgb(96.862745%,56.078434%,56.078434%);fill-opacity:1;" d="M 0.40625 8.53125 L 0.40625 8.125 C 0.40625 7.453125 0.953125 6.90625 1.625 6.90625 L 8.125 6.90625 C 8.796875 6.90625 9.34375 7.453125 9.34375 8.125 L 9.34375 8.53125 Z M 0.40625 8.53125 "/>
<path style=" stroke:none;fill-rule:nonzero;fill:rgb(78.039217%,26.274511%,26.274511%);fill-opacity:1;" d="M 8.125 7.3125 C 8.574219 7.3125 8.9375 7.675781 8.9375 8.125 L 0.8125 8.125 C 0.8125 7.675781 1.175781 7.3125 1.625 7.3125 L 8.125 7.3125 M 8.125 6.5 L 1.625 6.5 C 0.726562 6.5 0 7.226562 0 8.125 L 0 8.9375 L 9.75 8.9375 L 9.75 8.125 C 9.75 7.226562 9.023438 6.5 8.125 6.5 Z M 8.125 6.5 "/>
<path style=" stroke:none;fill-rule:nonzero;fill:rgb(69.01961%,75.686276%,83.137256%);fill-opacity:1;" d="M 1.625 8.125 L 3.25 8.125 L 3.25 8.9375 L 1.625 8.9375 Z M 6.5 8.125 L 8.125 8.125 L 8.125 8.9375 L 6.5 8.9375 Z M 6.5 8.125 "/>
</g>
</svg>
