<?xml version="1.0" encoding="UTF-8"?>
<svg xmlns="http://www.w3.org/2000/svg" xmlns:xlink="http://www.w3.org/1999/xlink" width="13.5pt" height="13.5pt" viewBox="0 0 13.5 13.5" version="1.1">
<g id="surface11031">
<path style=" stroke:none;fill-rule:nonzero;fill:rgb(96.862745%,56.078434%,56.078434%);fill-opacity:1;" d="M 0.40625 0.40625 L 5.28125 0.40625 L 5.28125 3.65625 L 0.40625 3.65625 Z M 0.40625 0.40625 "/>
<path style=" stroke:none;fill-rule:nonzero;fill:rgb(78.039217%,26.274511%,26.274511%);fill-opacity:1;" d="M 4.875 0.8125 L 4.875 3.25 L 0.8125 3.25 L 0.8125 0.8125 L 4.875 0.8125 M 5.6875 0 L 0 0 L 0 4.0625 L 5.6875 4.0625 Z M 5.6875 0 "/>
<path style=" stroke:none;fill-rule:nonzero;fill:rgb(54.509807%,71.764708%,94.117647%);fill-opacity:1;" d="M 7.71875 9.34375 L 12.59375 9.34375 L 12.59375 12.59375 L 7.71875 12.59375 Z M 7.71875 9.34375 "/>
<path style=" stroke:none;fill-rule:nonzero;fill:rgb(30.588236%,47.843137%,70.980394%);fill-opacity:1;" d="M 12.1875 9.75 L 12.1875 12.1875 L 8.125 12.1875 L 8.125 9.75 L 12.1875 9.75 M 13 8.9375 L 7.3125 8.9375 L 7.3125 13 L 13 13 Z M 13 8.9375 "/>
<path style=" stroke:none;fill-rule:nonzero;fill:rgb(40.000001%,47.450981%,56.078434%);fill-opacity:1;" d="M 7.3125 10.5625 L 3.25 10.5625 L 3.25 4.0625 L 2.4375 4.0625 L 2.4375 11.375 L 7.3125 11.375 Z M 7.3125 10.5625 "/>
<path style=" stroke:none;fill-rule:nonzero;fill:rgb(40.000001%,47.450981%,56.078434%);fill-opacity:1;" d="M 2.4375 6.5 L 2.4375 5.6875 L 7.3125 5.6875 L 7.3125 6.5 Z M 2.4375 6.5 "/>
<path style=" stroke:none;fill-rule:nonzero;fill:rgb(54.509807%,71.764708%,94.117647%);fill-opacity:1;" d="M 7.71875 4.46875 L 12.59375 4.46875 L 12.59375 7.71875 L 7.71875 7.71875 Z M 7.71875 4.46875 "/>
<path style=" stroke:none;fill-rule:nonzero;fill:rgb(30.588236%,47.843137%,70.980394%);fill-opacity:1;" d="M 12.1875 4.875 L 12.1875 7.3125 L 8.125 7.3125 L 8.125 4.875 L 12.1875 4.875 M 13 4.0625 L 7.3125 4.0625 L 7.3125 8.125 L 13 8.125 Z M 13 4.0625 "/>
</g>
</svg>
