<?xml version="1.0" encoding="UTF-8"?>
<svg xmlns="http://www.w3.org/2000/svg" xmlns:xlink="http://www.w3.org/1999/xlink" width="12pt" height="12pt" viewBox="0 0 12 12" version="1.1">
<g id="surface11013">
<path style=" stroke:none;fill-rule:nonzero;fill:rgb(100%,100%,100%);fill-opacity:1;" d="M 6 9.375 C 3.363281 9.375 1.09375 6.78125 0.472656 6 C 1.097656 5.222656 3.371094 2.625 6 2.625 C 8.636719 2.625 10.90625 5.21875 11.527344 6 C 10.902344 6.777344 8.628906 9.375 6 9.375 Z M 6 9.375 "/>
<path style=" stroke:none;fill-rule:nonzero;fill:rgb(72.941178%,60.784316%,28.235295%);fill-opacity:1;" d="M 6 3 C 8.25 3 10.257812 5.074219 11.042969 6 C 10.261719 6.925781 8.257812 9 6 9 C 3.75 9 1.742188 6.925781 0.957031 6 C 1.738281 5.074219 3.742188 3 6 3 M 6 2.25 C 2.6875 2.25 0 6 0 6 C 0 6 2.6875 9.75 6 9.75 C 9.3125 9.75 12 6 12 6 C 12 6 9.3125 2.25 6 2.25 Z M 6 2.25 "/>
<path style=" stroke:none;fill-rule:nonzero;fill:rgb(54.509807%,71.764708%,94.117647%);fill-opacity:1;" d="M 6 4.125 C 4.964844 4.125 4.125 4.964844 4.125 6 C 4.125 7.035156 4.964844 7.875 6 7.875 C 7.035156 7.875 7.875 7.035156 7.875 6 C 7.875 4.964844 7.035156 4.125 6 4.125 Z M 6 4.125 "/>
<path style=" stroke:none;fill-rule:nonzero;fill:rgb(30.588236%,47.843137%,70.980394%);fill-opacity:1;" d="M 6 4.5 C 6.828125 4.5 7.5 5.171875 7.5 6 C 7.5 6.828125 6.828125 7.5 6 7.5 C 5.171875 7.5 4.5 6.828125 4.5 6 C 4.5 5.171875 5.171875 4.5 6 4.5 M 6 3.75 C 4.757812 3.75 3.75 4.757812 3.75 6 C 3.75 7.242188 4.757812 8.25 6 8.25 C 7.242188 8.25 8.25 7.242188 8.25 6 C 8.25 4.757812 7.242188 3.75 6 3.75 Z M 6 3.75 "/>
<path style=" stroke:none;fill-rule:nonzero;fill:rgb(21.176471%,25.098041%,30.19608%);fill-opacity:1;" d="M 6 5.25 C 5.585938 5.25 5.25 5.585938 5.25 6 C 5.25 6.414062 5.585938 6.75 6 6.75 C 6.414062 6.75 6.75 6.414062 6.75 6 C 6.75 5.585938 6.414062 5.25 6 5.25 Z M 6 5.25 "/>
<path style=" stroke:none;fill-rule:nonzero;fill:rgb(100%,100%,100%);fill-opacity:1;" d="M 7.125 4.5 C 6.917969 4.5 6.75 4.667969 6.75 4.875 C 6.75 5.082031 6.917969 5.25 7.125 5.25 C 7.332031 5.25 7.5 5.082031 7.5 4.875 C 7.5 4.667969 7.332031 4.5 7.125 4.5 Z M 7.125 4.5 "/>
</g>
</svg>
