<?xml version="1.0" encoding="UTF-8" standalone="no"?>
<!DOCTYPE svg PUBLIC "-//W3C//DTD SVG 1.1//EN" "http://www.w3.org/Graphics/SVG/1.1/DTD/svg11.dtd">
<svg width="100%" height="100%" viewBox="0 0 1024 1024" version="1.1" xmlns="http://www.w3.org/2000/svg" xmlns:xlink="http://www.w3.org/1999/xlink" xml:space="preserve" xmlns:serif="http://www.serif.com/" style="fill-rule:evenodd;clip-rule:evenodd;stroke-linejoin:round;stroke-miterlimit:2;">
    <g id="Layer_2">
        <g transform="matrix(1.42433,0,0,1.45525,-217.274,-233.072)">
            <g>
                <path d="M490.918,395.423C512.988,335.417 601.28,322.286 626.12,381.2L634.853,400.774L701.024,549.079L856.033,549.079L856.033,427.172L780.099,427.172L667.716,175.276L575.616,175.276" style="fill:url(#_Linear1);fill-rule:nonzero;"/>
            </g>
            <path d="M667.716,175.276L571.91,175.276L491.393,394.203C491.235,394.61 491.07,395.01 490.918,395.423L399.941,642.775L379.976,700.87C366.346,740.532 319.202,742.978 302.115,704.678L362.309,848.698L454.151,848.698L534.668,629.772C534.826,629.364 534.991,628.965 535.143,628.552L626.12,381.2L646.085,323.105C659.715,283.443 714.883,280.996 731.97,319.297L667.716,175.276Z" style="fill:url(#_Linear2);fill-rule:nonzero;"/>
            <g>
                <path d="M535.143,628.552C513.073,688.558 428.921,690.517 404.082,631.603L404.082,631.603L328.302,448.743L167.99,448.743L167.99,570.701L246.859,570.701L362.073,848.698L454.173,848.698" style="fill:white;fill-rule:nonzero;"/>
            </g>
        </g>
        <g id="Layer_4">
        </g>
    </g>
    <defs>
        <linearGradient id="_Linear1" x1="0" y1="0" x2="1" y2="-0.0164123" gradientUnits="userSpaceOnUse" gradientTransform="matrix(-206.925,-455.235,455.235,-206.925,718.456,510.255)"><stop offset="0" style="stop-color:white;stop-opacity:1"/><stop offset="0.23" style="stop-color:white;stop-opacity:1"/><stop offset="0.53" style="stop-color:rgb(106,142,210);stop-opacity:1"/><stop offset="1" style="stop-color:rgb(106,142,210);stop-opacity:1"/></linearGradient>
        <linearGradient id="_Linear2" x1="0" y1="0" x2="1" y2="0.014136" gradientUnits="userSpaceOnUse" gradientTransform="matrix(-331.08,901.064,-901.064,-331.08,610.223,258.387)"><stop offset="0" style="stop-color:white;stop-opacity:1"/><stop offset="0.23" style="stop-color:white;stop-opacity:1"/><stop offset="0.54" style="stop-color:rgb(106,142,210);stop-opacity:1"/><stop offset="1" style="stop-color:rgb(106,142,210);stop-opacity:1"/></linearGradient>
    </defs>
</svg>
