/* XPM */
static const char *app_xpm[] = {
/* columns rows colors chars-per-pixel */
"64 64 11 1 ",
"  c None",
". c gray40",
"X c #686868",
"o c DimGray",
"O c gray48",
"+ c gray49",
"@ c #3F77AF",
"# c #3E78B3",
"$ c #808080",
"% c #F8F8F8",
"& c white",
/* pixels */
"                                                                ",
"                                                                ",
"                                                                ",
"                                                                ",
"    ############################                                ",
"    ############################                                ",
"    ############################                                ",
"    ############################                                ",
"    ############################                                ",
"    ############################                                ",
"    ############################                                ",
"    ############################                                ",
"    ############################                                ",
"    ############################                                ",
"            ..                                                  ",
"            ..                                                  ",
"            ..                                                  ",
"            ..                                                  ",
"            ..                                                  ",
"            ..                                                  ",
"            ..                                                  ",
"        +$$$$$$$$+              ############################    ",
"        $+$$$$$$+$              ############################    ",
"        $$%%%%%%$$              ############################    ",
"        $$&&&&&&$$              ############################    ",
"        $$&&&&&&$$XXXXXXXXXXXXXX############################    ",
"        $$&&&&&&$$XXXXXXXXXXXXXX############################    ",
"        $$&&&&&&$$              ############################    ",
"        $$&&&&&&$$              ############################    ",
"        $+$$$$$$+$              ############################    ",
"        +$$$$$$$$+              ############################    ",
"            ..                                                  ",
"            ..                                                  ",
"            ..                                                  ",
"            ..                                                  ",
"            ..                                                  ",
"        +$$$$$$$$+              ############################    ",
"        $+$$$$$$+$              ############################    ",
"        $$%%%%%%$$              ############################    ",
"        $$&&&&&&$$              ############################    ",
"        $$&&&&&&$$XXXXXXXXXXXXXX@###########################    ",
"        $$&&&&&&$$XXXXXXXXXXXXXX@###########################    ",
"        $$&&&&&&$$              ############################    ",
"        $$&&&&&&$$              ############################    ",
"        $+$$$$$$+$              ############################    ",
"        +$$$$$$$$+              ############################    ",
"            ..                                                  ",
"            ..                                                  ",
"            ..                                                  ",
"            ..                                                  ",
"            ..                                                  ",
"        +$$$$$$$$+              ############################    ",
"        $+$$$$$$$$              ############################    ",
"        $$%%%%%%$$              ############################    ",
"        $$&&&&&&$$              ############################    ",
"        $$&&&&&&$$XXXXXXXXXXXXXX@###########################    ",
"        $$&&&&&&$$XXXXXXXXXXXXXX@###########################    ",
"        $$&&&&&&$$              ############################    ",
"        $$&&&&&&O$              ############################    ",
"        $+$$$$$$$$              ############################    ",
"        +$$$$$$$$+              ############################    ",
"                                                                ",
"                                                                ",
"                                                                "
};
