/* XPM */
static const char *folder_open_xpm[] = {
/* columns rows colors chars-per-pixel */
"16 16 14 1 ",
"  c None",
". c #777777",
"X c #787877",
"o c #7A7977",
"O c #7B7A77",
"+ c #7C7A77",
"@ c gray47",
"# c #817C76",
"$ c #878075",
"% c #E4B366",
"& c #E6B566",
"* c #E9B665",
"= c #E9B666",
"- c #EAB766",
/* pixels */
"                ",
"                ",
" @@@@@          ",
"@@@@@@@$        ",
"@@@@@@@@@@@@@@@ ",
"@@@@@@@@@@@@@@@ ",
"@@              ",
"@+  ------------",
"@X &------------",
"@X -------------",
"@X -------------",
".  -------------",
". %------------ ",
"X ------------- ",
"X ------------- ",
"# ------------- "
};
