/* XPM */
static const char *sub_xpm[] = {
/* columns rows colors chars-per-pixel */
"64 64 14 1 ",
"  c None",
". c gray40",
"X c #686868",
"o c DimGray",
"O c gray49",
"+ c #3F77AF",
"@ c #3E78B3",
"# c #808080",
"$ c #A9C3DD",
"% c #CCDBEB",
"& c #DDE7F1",
"* c #F8F8F8",
"= c #FEFEFE",
"- c white",
/* pixels */
"                                                                ",
"                                                                ",
"                                                                ",
"      @@@@@@@@@@@@@@@@@@@@@@@@@@@@                              ",
"      @@@@@@@@@@@@@@@@@@@@@@@@@@@@                              ",
"      @@@@@@@@@@@@@@@@@@@@@@@@@@@@                              ",
"      @@@@@@@@@@@@@@@@@@@@@@@@@@@@                              ",
"      @@@@@@@@@@@@@@@@@@@@@@@@@@@@                              ",
"      @@@@@@@@@@@@@@@@@@@@@@@@@@@@                              ",
"      @@@@@@@@@@@@@@@@@@@@@@@@@@@@                              ",
"      @@@@@@@@@@@@@@@@@@@@@@@@@@@@                              ",
"      @@@@@@@@@@@@@@@@@@@@@@@@@@@@                              ",
"      @@@@@@@@@@@@@@@@@@@@@@@@@@@@                              ",
"              ..                                                ",
"              ..                                                ",
"              ..                                                ",
"              ..                                                ",
"              ..                                                ",
"              ..                                                ",
"              ..                                                ",
"          O########O              @@@@@@@@@@@@@@@@@@@@@@@@@@@@  ",
"          #O######O#              @@@@@@@@@@@@@@@@@@@@@@@@@@@@  ",
"          ##******##              @@@@@@@@@@@@@@@@@@@@@@@@@@@@  ",
"          ##------##              @@@@@@@@@@@@@@@@@@@@@@@@@@@@  ",
"          ##------##XXXXXXXXXXXXXX@@@@@@@@@@@@@@@@@@@@@@@@@@@@  ",
"          ##------##XXXXXXXXXXXXXX@@@@@@@@@@@@@@@@@@@@@@@@@@@@  ",
"          ##------##              @@@@@@@@@@@@@@@@@@@@@@@@@@@@  ",
"          ##------##              @@@@@@@@@@@@@@@@@@@@@@@@@@@@  ",
"          #O######O#              @@@@@@@@@@@@@@@@@@@@@@@@@@@@  ",
"          O########O              @@@@@@@@@@@@@@@@@@@@@@@@@@@@  ",
"              ..                                                ",
"              ..                                                ",
"                                                                ",
"                                                                ",
"            @@@@@@@@                                            ",
"          @@@@@@@@@@@@            @@@@@@@@@@@@@@@@@@@@@@@@@@@@  ",
"        @@@@@@@@@@@@@@@@          @@@@@@@@@@@@@@@@@@@@@@@@@@@@  ",
"       @@@@@@@@@@@@@@@@@@         @@@@@@@@@@@@@@@@@@@@@@@@@@@@  ",
"      @@@@@@@@&--$@@@@@@@@        @@@@@@@@@@@@@@@@@@@@@@@@@@@@  ",
"     @@@@@@@@@---%@@@@@@@@@  XXXXX+@@@@@@@@@@@@@@@@@@@@@@@@@@@  ",
"    @@@@@@@@@@---%@@@@@@@@@@  XXXX+@@@@@@@@@@@@@@@@@@@@@@@@@@@  ",
"    @@@@@@@@@@&--$@@@@@@@@@@      @@@@@@@@@@@@@@@@@@@@@@@@@@@@  ",
"   @@@@@@@@@@@@@@@@@@@@@@@@@@     @@@@@@@@@@@@@@@@@@@@@@@@@@@@  ",
"   @@@@@@@@@@@@@@@@@@@@@@@@@@     @@@@@@@@@@@@@@@@@@@@@@@@@@@@  ",
"  @@@@@@@@@@@@&--$@@@@@@@@@@@@    @@@@@@@@@@@@@@@@@@@@@@@@@@@@  ",
"  @@@@@@@@@@@@---%@@@@@@@@@@@@                                  ",
"  @@@@@@@@@@@@---%@@@@@@@@@@@@                                  ",
"  @@@@@@@@@@@@---%@@@@@@@@@@@@                                  ",
"  @@@@@@@@@@@@---%@@@@@@@@@@@@                                  ",
"  @@@@@@@@@@@@---%@@@@@@@@@@@@                                  ",
"  @@@@@@@@@@@@---%@@@@@@@@@@@@    @@@@@@@@@@@@@@@@@@@@@@@@@@@@  ",
"  @@@@@@@@@@@@---%@@@@@@@@@@@@    @@@@@@@@@@@@@@@@@@@@@@@@@@@@  ",
"   @@@@@@@@@@@---%@@@@@@@@@@@     @@@@@@@@@@@@@@@@@@@@@@@@@@@@  ",
"   @@@@@@@@@@@---%@@@@@@@@@@@     @@@@@@@@@@@@@@@@@@@@@@@@@@@@  ",
"    @@@@@@@@@@---%@@@@@@@@@@   XXX+@@@@@@@@@@@@@@@@@@@@@@@@@@@  ",
"    @@@@@@@@@@---%@@@@@@@@@@  XXXX+@@@@@@@@@@@@@@@@@@@@@@@@@@@  ",
"     @@@@@@@@@---%@@@@@@@@@       @@@@@@@@@@@@@@@@@@@@@@@@@@@@  ",
"      @@@@@@@@&--$@@@@@@@@        @@@@@@@@@@@@@@@@@@@@@@@@@@@@  ",
"       @@@@@@@@@@@@@@@@@@         @@@@@@@@@@@@@@@@@@@@@@@@@@@@  ",
"        @@@@@@@@@@@@@@@@          @@@@@@@@@@@@@@@@@@@@@@@@@@@@  ",
"          @@@@@@@@@@@@                                          ",
"            @@@@@@@@                                            ",
"                                                                ",
"                                                                "
};
