/* XPM */
static const char *tree_list_xpm[] = {
/* columns rows colors chars-per-pixel */
"400 16 131 2 ",
"   c None",
".  c #275078",
"X  c #285179",
"o  c #595959",
"O  c #605D5D",
"+  c #666666",
"@  c #6B6B6B",
"#  c #766E73",
"$  c #717171",
"%  c #797979",
"&  c #8A7D6C",
"*  c #269B6B",
"=  c #2B9D6D",
"-  c #2D9E70",
";  c #33A274",
":  c #38A377",
">  c #3AA379",
",  c #D5A95F",
"<  c #E4A644",
"1  c #E5A847",
"2  c #EAAA46",
"3  c #E6AC4D",
"4  c #EBAE4F",
"5  c #E7AD52",
"6  c #E8AF57",
"7  c #EAB055",
"8  c #E8B15A",
"9  c #EBB764",
"0  c #ECB965",
"q  c #EAB869",
"w  c #E6BB77",
"e  c #EBBD74",
"r  c #E8BC7D",
"t  c #ECC07E",
"y  c #365D83",
"u  c #395F84",
"i  c #3C6287",
"p  c #3F688E",
"a  c #336494",
"s  c #1659A5",
"d  c #1B5EA5",
"f  c #1D5AA8",
"g  c #1D61A6",
"h  c #1D64AC",
"j  c #2163A6",
"k  c #2767AA",
"l  c #2768AA",
"z  c #2D6CAC",
"x  c #336EAB",
"c  c #3370AF",
"v  c #3572B0",
"b  c #3C76B1",
"n  c #3778B5",
"m  c #3E78B3",
"M  c #3879BA",
"N  c #476B8E",
"B  c #496C8F",
"V  c #437BB4",
"C  c #487CB3",
"Z  c #437EBB",
"A  c #8C4EAD",
"S  c #8E53AC",
"D  c #8D4BB1",
"F  c #9464B1",
"G  c #9864B0",
"H  c #9F76B7",
"J  c #4BAC84",
"K  c #5AB38E",
"L  c #62B793",
"P  c #5383B7",
"I  c #5386BB",
"U  c #5688BC",
"Y  c #5C8DBF",
"T  c #728DA8",
"R  c #618ABA",
"E  c #6691BF",
"W  c #6896C4",
"Q  c #7EA4CC",
"!  c #808080",
"~  c #8D8D8D",
"^  c #939393",
"/  c #9A9A9A",
"(  c #879EB5",
")  c #B698BF",
"_  c #94A9BD",
"`  c gray64",
"'  c #A9A9A9",
"]  c gray69",
"[  c #B8B8B8",
"{  c #ECC281",
"}  c #EEC78B",
"|  c #EFCC91",
" . c #F2D19C",
".. c #F0D3A3",
"X. c #B596C0",
"o. c #BA9AC0",
"O. c #8AA2C3",
"+. c #8EAFD2",
"@. c #95B5D5",
"#. c #A0B0C9",
"$. c #A9C3DD",
"%. c #B5C3D2",
"&. c #ABE1CA",
"*. c #BED2E5",
"=. c #C3C3C3",
"-. c #CCCCCC",
";. c #C9D4DE",
":. c #D5D5D5",
">. c #DADADA",
",. c #EFDCC7",
"<. c #EDDBCC",
"1. c #F0DFC3",
"2. c #F4E1C1",
"3. c #F1E2CA",
"4. c #F8E7CD",
"5. c #F9E8D1",
"6. c #FAEFDF",
"7. c #E5D9E4",
"8. c #D8ECE3",
"9. c #D4E1EE",
"0. c #DEE4ED",
"q. c #E5E5E5",
"w. c #E9E9E9",
"e. c #FBEFE0",
"r. c #FBF2E5",
"t. c #EBEFF3",
"y. c #EFF2F7",
"u. c #F3F3F4",
"i. c #F9F6F7",
"p. c #FEFBF4",
"a. c #FFFFFF",
/* pixels */
"  @ % @ ^ @ @ ^ % @                                                                             @ @ @ @ @ @ @ @ @ @ @ @ @ @ @   @ @ @ @ @ @ @ @ @ @ @ @ @ @ @     7 3 3 3 3 3 3 4                   8 8 8 8 8 8 8 8 8           + o o o o o o o o +               + o o o o o o o o +           + + +   + + +   + + +   + + +   + + +   + + +   + + +   + + +           8 8 8 8 8 8 8 8 8 8                 8 8 8 8 8 8 8 8 8 8       C b b b b b b b b b b b C + o o o o o o o o +                                                                                                             + + + + + + + + + + + + + + + + + + + + + + + + + + + + + + +   + + + + + + + + + + + + + + +   + + + + + + + + + + + + + + +   m m m m m m m m m m m             + + @ @ + + + +                 % % % % % % % % % % % % % %   ",
"a.' a.a.a.a.a.a.^ =.@                                           + + + + + + + + + + + + + + + + @ u.a.a.a.a.a.a.a.a.a.a.a.u.@   @ u.a.a.a.a.a.a.a.a.a.a.a.u.@   1 1 1 3 3 3 3 1 1 3             7 8 8 8 8 8 8 8 8 8 8 8 5       o a.a.a.a.a.a.a.o [ +             o a.a.a.a.a.a.a.o [ +         + a.a.a.,.0 <.a.a.a.a.a.a.a.+   + a.a.a.,.0 <.a.a.a.a.a.a.a.+           8 8 8 8 8 8 8 8 8                   8 8 8 8 8 8 8 8 8         b b b b b b b b b b b b b o a.a.a.a.a.a.a.o [ +             x x x x x x x x x x x x x x     J J J J J J J J J J J J J J     J J J J J J J J J J J J       + a.a.a.a.-.a.a.a.a.-.a.a.a.a.+ + a.a.a.a.-.a.a.a.-.a.a.a.a.+   + a.a.a.a.-.a.a.a.-.a.a.a.a.+   + a.a.a.a.-.a.a.a.-.a.a.a.a.+   m m m m m m m m m m m           + + + + @ @ @ + + + @ @ @         % a.a.a.a.a.a.a.a.a.a.a.a.%   ",
"a.a.a.a.a.a.a.a./ a.-.` a.                                      + u.a.a.a.a.a.a.a.a.a.a.a.a.u.+ @ a.a.a.a.a.a.a.a.a.a.a.a.a.@   @ a.a.a.a.a.a.a.a.a.a.a.a.a.@   r. .q 1 < < 1 q ..e.             .< 5 8 8 8 8 8 8 8 6 < |       o a.a.t.y u.a.a.o a.[ +           o a.a.t.y u.a.a.o a.[ +       + a.a.3.0 q 0 <.a.a.i.7.a.a.+   + a.a.3.0 q 0 <.a.a.i.7.a.a.+         8 8 8 8 8 8 8 8 8                   8 8 8 8 8 8 8 8 8           b b b b b b b b b b b b b o a.a.a.a.a.a.a.o a.[ +           x x x x x x x x x x x x x x   J J J J J J J J J J J J J J J J J J J J J J J J J J J J J J     + a.a.a.a.[ a.a.a.a.[ a.a.a.a.+ + a.a.a.a.[ a.a.a.[ a.a.a.a.+   + a.a.a.a.[ a.a.a.[ a.a.a.a.+   + a.a.a.a.[ a.a.a.[ a.a.a.a.+   m m m m m m m m m m m                             @ @ @ @         % a./ % % % % % % % % ` a.%   ",
"a.a.a.a.a.a.a.a.o a.a.:.q.                                      + a.a.a.a.a.a.a.a.a.a.a.a.a.a.+ @ a.a.z z z z z z z z z a.a.@   @ a.a.z z z z z z z z z a.a.@   < } 2.r.r.r.6.2.} <             p.a...e 6 < < < 6 e ..a.p.      o a.a.( . _ a.a.o a.a.[ +         o a.a.( . _ a.a.o a.a.[ +       a.3.q q q 0 r a.a.G S u.a.      a.3.q q q 0 r a.a.G S u.a.          8 8 8 8 8 8 8                       8 8 8 8 8 8 8               b b b b b b b b b b b b b o a.a.a.a.a.a.a.o a.a.[ +         x x x x x x x x x x x x x x   J J J J J J J J J J J J J J J J J J J J J J J J J J J J J J     + a.a.a.a.[ a.a.a.a.[ a.a.a.a.+ + a.a.a.a.[ a.a.a.[ a.a.a.a.+   + a.a.a.a.[ a.a.a.[ a.a.a.a.+   + a.a.a.a.[ a.a.a.[ a.a.a.a.+   m m m m m m m m m m m             8 8 8 8 8 8 8                   % a.% a.a.a.a.a.a.a.a.% a.%   ",
"  >.a.a.a.a.a.a.^ ^ -.^ >.                        v v v v v     + a.a.Z m m m m m m m m Z a.a.+ @ a.a.a.a.a.a.a.a.a.        $   @ a.a.a.a.a.a.a.a.a.    a.a.@   3 1 < < < < <                   2 t 4.a.a.a.a.a.a.a.5.{ <       o a.a.N T u a.a.^ o o o o         o a.a.N T u a.a.^ o o o o     + 2.q q q 0 , u.o.D S A F a.+   + 1.q q q 0 , u.o.A S A F a.+       8 8 8 8 8 8 8                       8 8 8 8 8 8 8                 b b b b b b b b b b b b b o a.a.~ ~ ~ ~ a.^ o o o o         x x x a.a.a.a.a.a.a.a.x x x   J J J a.a.a.a.a.a.a.a.a.a.J J J J J J a.a.a.a.a.a.a.a.J J J     + -.[ [ [ [ [ [ [ [ [ [ [ [ -.+ + -.[ [ [ [ [ [ [ [ [ [ [ -.+   + -.[ [ [ [ [ [ [ [ [ [ [ -.+   + -.[ [ [ [ [ [ [ [ [ [ [ -.+         +                           8 8 8 8 8 8 8     @ @           % a.% a.a.@.I I @.a.a.% a.%   ",
"  -.a.a.a.a.a.a.a.a.a.a.-.                      v v v v v v v   + a.a.a.a.a.a.a.a.a.a.a.a.a.a.+ @ a.a.z z z z z z     &.&.      @ a.a.z z z z z             @   3 3 3 3 3       3 3 3 3 3 3 4   0 8 3 1 < < 1 < < 1 3 6 8       o a.%.B T X ;.a.a.a.a.a.o         o a.%.B T X ;.a.a.a.a.a.o     + 0 q q 0 & o #             +   + 0 q q 0 & o # D S A H a.a.+     8 8 8 8 8 8 8                       8 8 8 8 8 8 8                                       C b b o a.a.a.a.a.a.a.a.a.a.a.  z z     x x x a.a.a.a.a.a.a.a.x x x   J J J a.a.a.a.a.a.a.a.a.a.J J J J J J a.a.a.a.a.                + a.a.a.a.[ a.a.a.a.[ a.a.a.a.+ + a.a.a.a.[ a.a.a.[ a.a.a.a.+   + a.a.a.a.[ a.a.a.[ a.a.a.a.+   + a.a.a.a.[ a.a.            +         +                           8 8 8 8 8 8 8                   % a.% a.a.Y U U Y a.a.% a.%   ",
"  ` a.a.a.a.a.a.a.a.a.a.`       v v v v         v v         v v + a.a.Z m m m m m m m m P a.a.+ @ a.a.a.a.a.a.a.a.  * ; = K     @ a.a.a.a.a.a.    z z z z       3 3 3 3 3   1 1 1 3 3 3 3 1 1 3 0 8 8 8 8 8                     o a.y _ u.u i a.~                 o a.y _ u.u i a.~ ~ ~ a.o     + 1.0 0 w a.O     x x x x       + 1.0 0 w a.O a.) A G a.a.a.+     8 8 8 8 8 8     x x x x             8 8 8 8 8 8 8 8 8 8         b b b b b b b b b b b C   b b o a.a.a.~ ~ ~ ~ ~ ~ a.      l z   x x x a.a.a.a.a.a.a.a.x x x   J J J J J J J J J J J J J J J J J J J J J J J     J J J J       + a.a.a.a.[ a.a.a.a.[ a.a.a.a.+ + a.a.a.a.[ a.a.a.[ a.a.a.a.+   + a.a.a.a.[ a.a.a.          +   + a.a.a.a.[ a.    x x x x         % ! ! ! %     m m m m m m m m                   + + + +         % a.% a.a.a.a.a.a.a.a.% a.%   ",
"  o a.a.a.a.a.a.a.a.a.a.o       v v v v v v v v v           v v + a.a.a.a.a.a.a.a.a.a.a.a.a.a.+ @ a.a.z z           = > ; L     @ a.a.z z z z     z z z z       3 3 3 3 3   r. .q 1 < < 1 q ..e.0 8 8 8 8 8   a a a a a a a a a o a.a.a.a.a.a.      k k k         o a.a.a.a.a.a.a.a.a.a.a.o       a.3.w a.a.    x x x x x x       a.3.w a.a.O a.a.X.a.u.a.a.    8 8 8 8 8 8     x x x x x x         8 8 8 8 8 8 8 8 8 8         b b b b b b b b b b b b b   b b o a.a.a.a.a.a.a.a.a.  z l     l   x x x a.a.a.a.a.a.a.a.x x x   J J J J J J J J J J J J J J J J J J J J J J     J J J J J J     + a.a.a.a.[ a.a.a.a.[ a.a.a.a.+ + -.[ [ [ [               -.+   + -.[ [ [ [ [ [     $ o   @     + -.[ [ [ [     x x x x x x       ! a.a.a.!     m m m m m m m m @ @ + + + + + + + + + + +         % a./ % % % % % % % % ` a.%   ",
"                                v v v v v v v v v           v v + a.a.Z m m m m m m W a.a.a.a.+ @ a.a.a.a.  c d g f   ; ; K     @ a.a.a.a.a.a.    z z z z       3 3 3 3 3   < } 2.6.r.r.6.2.} < 0 9 8 8 8 8   a Z Z Z Z Z Z Z a o a.~ ~ ~ ~ ~   k k k Q k k k     o a.~ ~ ~ ~ ~ ~ ~ ~ ~ a.o     + a.a.a.a.    x m m a.a.m I x   + a.a.a.a.a.O a.a.a.O.R a.a.+         8 8     x m m a.a.m I x             8 8 8 8 8 8           b b b b b b b b b b b b b   b b o a.a.a.~ ~ ~ ~ ~   l l l l       x x x a.a.a.a.a.a.a.a.x x x   J J J J J J J J J J J J J J J J J J J J J     J J J a.8.J J J   + -.[ [ [ [ [ [ [ [ [ [ [ [ -.+ + a.a.a.a.  z z       z z   +   + a.a.a.a.[ a.  + ~ u.u.u.!     + a.a.a.a.    x m m a.a.m I x     ! a.a.a.! + + m m m m m m m m   + + + @ @ @ + +                 % a.% a.a.a.a.a.a.a.a.% a.%   ",
"    m m m m m m m m m m m m m   v v v v         v v         v v + a.a.a.a.a.a.a.a.a.a.a.a.a.a.+ @ u.a.a.a.  h z z d   - -       @ u.a.a.a.a.a.    z z z z       3 3 3 3 3   3 1 < < < < < < 1 3 0 9 9 8 8 8   a Z Z Z Z Z Z Z a o a.a.a.a.a.    k k Q a.Q C k     o a.a.a.a.a.a.a.a.a.a.a.o     + a.a.a.a.  x x m m +.+.m m x x + a.a.a.a.a.O a.a.#.n n P a.+         8 8   x x m m +.+.m m x x           8 8 8 8 8             b b b b b b b b b b b b b   C   o a.a.a.a.a.a.a.  l l l l l       x x x a.a.a.a.a.a.a.a.x x x   J J J a.a.a.a.a.a.a.a.a.a.J J J J J J a.a.  J J J J a.8.J J J J + a.a.a.a.[ a.a.a.a.[ a.a.a.a.+ + a.a.a.  z z z       z z z     + a.a.a.a.[       a.w.q.w.a.' + + a.a.a.a.  x x m m +.+.m m x x   % ! ! ! %     m m m m m m m m                     + +           % a.% a.a.@.I I @.a.a.% a.%   ",
"  W W m @.m @.Q @.I W @.Q W m m                 v v v v v v v   + a.a.a.a.a.a.a.a.a.a.a.a.a.a.+ @ @ @ @ a.  I l l d   - : *     @ @ @ @ a.a.>.@   z z z z           4 4 4   3 3 3 3 3 3 3 3 3 3 0 9 8 8 8 8   + a.a.a.] a.a.a.+ o a.~ ~ ~ ~   k k k k Q k k k k   o a.~ ~ ~ ~ ~ ~ ~ ~ ~ a.o       a.a.a.a.  x x m m +.+.m m x x   a.a.a.a.a.+ o p M m C u.a.        8 8 8   x x m m +.+.m m x x         8 8 8 8                 b b b b b b b b b b b b b       o a.a.~ ~ ~ ~   z z l l l         x x x a.a.a.a.a.a.a.a.x x x   J J J a.a.a.a.a.a.a.a.a.a.J J J J J J a.a.  J J a.a.a.a.a.a.J J + a.a.a.a.[ a.a.a.a.[ a.a.a.a.+ + a.a.  z z z           z z z   + a.a.a.a.-.  o >.w.q.w.q.w.q.@ + a.a.a.a.  x x m m +.+.m m x x       +                                             @ a.          % a.% a.a.Y U I Y a.a.% a.%   ",
"m Q 9.I a.m *.m I $.Q Q b b m m                   v v v v v     + u.a.a.a.a.a.a.a.a.a.a.a.a.u.+       @ q.    j k     ; : > ; =       @ q.@       z z z z                   3 3 3 3 3 3 3 3 3 3 0 8 8 8 8 8   + a.a.a./ a.a.a.+ o a.a.a.a.a.  k k k Q a.Q k k k   o a.a.a.a.a.a.a.a.a.a.a.o     + a.a.a.a.  x x b m a.a.m C x x + a.a.a.a.a.a.a.E n V 0.a.a.+     8 8 8 8   x x b m a.a.m C x x       8 8 8 8                   b b b b b b b b b b b b b       o a.a.a.a.a.  l z l l l           x x x a.a.a.a.a.a.a.a.x x x   J J J J J J J J J J J J J J J J J J J J J   J J 8.8.a.8.8.8.J J + a.a.a.a.-.a.a.a.a.-.a.a.a.a.+ + +   z z z z z z z z z z z z z + + + + + +     a.q.w.w.w.q.a.  + + + + +   x x b m a.a.m C x x       +                                             a.@           % a.% a.a.a.a.a.a.a.a.% a.%   ",
"m Q 9.9.9.m *.m m *.Q $.Q I m m                                 + + + + a.a.>.+ + + + + + + + +             Y k l U     * ; ; ;       @ @     z z z z z z z z               3 3 3 3 3 3 3 3 3 3 0 8 8 8 8 8   + ] / / / / / ] + o a.a.a.a.a.  k k k Q a.Q k k k   o a.~ ~ ~ ~ ~ ~ ~ ~ ~ a.o     + a.a.a.a.  x x m m a.a.V b x x + a.a.a.a.a.a.a.a.P y.a.a.a.+     8 8 8     x x m m a.a.V b x x       8 8 8                     b b b b b b b b b b b b b       o a.a.a.a.      z z l             x x x x x x x x x x x x x x   J J J J J J J J J J J J J J J J J J J J J   J J J J a.8.J J J J + + + + + + + + + + + + + + + + m m   z z z z z z z z z z z z z m m m m m m   $ q.w.q.q.q.w.q.o m m m m m   x x m m a.a.V b x x   % ! ! ! %     m m m m m m m m                     + +           % a./ % % % % % % % % ` a.%   ",
"m Q Q @.*.m *.m Q @.Q Q b b m m                                       + q.+ + +                         g g k z l k k s   K L         @     z z z z z z z z z z             3 3 3 3 3 3 3 3 3 3   8 8 8 8 8   + a.a.a./ a.a.a.+ + o o o o o     k k Q a.Q k k     o a.a.a.a.a.a.a.a.a.a.a.o     + a.a.a.a.    x m m a.a.b b x   + a.a.a.a.a.a.a.a.a.a.a.a.a.+   8 8 8         x m m a.a.b b x       8 8 8                       b b b b b b b b b b b b b       o a.a.a.    l     z     o         x x x x x x x x x x x x x x     J J J J J J J J J J J J J J     J J J J     J J J a.8.J J J   m m m m m m m q.q.q.q.q.q.:.    m m m   z z z           z z z   m m m m m m   @ ^ a.w.q.w.a.    m m m m m     x m m a.a.b b x     ! a.a.a.!     m m m m m m m m             + +     + +     @ @   % a.a.a.a.a.a.a.a.a.a.a.a.%   ",
"  I I m W m W Q W m I I b b m                                         + + +                             l l l z l l z g                     z z z z z z z z z z             3 3 3 3 3 3 3 3 3 3       8 8 8   + a.a.a.] a.a.a.+                 k k k Q k k l     o a.a.a.a.a.a.a.a.a.a.a.o     + + +   + +     m V b b m m     + + +   + + +   + + +   + + +   8               m V b b m m         8                           b b b b b b b b b b b b b       + o o o     l l       o +         x x x x x x x x x x x x x x                                                   J J J J J J     m m m m m m m q.q.q.q.q.q.[     m m m m   z z z       z z z     m m m m m m m     ~ w.a.u./ o   m m m m m m     m V b b m m       ! a.a.a.! + + m m m m m m m m             + + @ + + + @ @ @ @   % % % % % % % % % % % % % %   ",
"    m m m m m m m m m m m m m                                         +                                 l z z z z z z g                       z z z z z z z z                   4 4 4 4 4 4                   + + + + + + + + +                     k k k         + o o o o o o o o o o o +                       x x x x                                                         x x x x         8                             C b b b b b b b b b b b C                 l                                                                                                       J J J J       m m m m m m m :.[ [ [ [ [ [                 z z       z z                         +   + +                         x x x x         % ! ! ! %     m m m m m m m m             + +             @ @                                 "
};
