<?xml version="1.0" encoding="UTF-8"?>
<svg xmlns="http://www.w3.org/2000/svg" xmlns:xlink="http://www.w3.org/1999/xlink" width="72pt" height="72pt" viewBox="0 0 72 72" version="1.1">
<g id="surface1993">
<path style=" stroke:none;fill-rule:nonzero;fill:rgb(36.862746%,61.176473%,46.27451%);fill-opacity:1;" d="M 70.199219 70.199219 L 1.800781 70.199219 L 1.800781 53.101562 L 3.601562 53.101562 L 3.601562 68.398438 L 68.398438 68.398438 L 68.398438 53.101562 L 70.199219 53.101562 Z M 70.199219 70.199219 "/>
<path style=" stroke:none;fill-rule:nonzero;fill:rgb(72.941178%,87.843138%,74.117649%);fill-opacity:1;" d="M 31.859375 58.949219 L 29.429688 50.671875 L 29.25 50.578125 C 26.550781 49.679688 24.121094 48.238281 21.960938 46.351562 L 21.78125 46.171875 L 13.769531 47.96875 L 9.628906 40.5 L 15.390625 34.738281 L 15.390625 34.46875 C 15.121094 33.121094 15.03125 31.769531 15.03125 30.421875 C 15.03125 29.070312 15.121094 27.71875 15.390625 26.371094 L 15.390625 26.101562 L 9.628906 20.339844 L 13.769531 12.871094 L 21.78125 14.671875 L 21.960938 14.488281 C 24.121094 12.601562 26.550781 11.160156 29.25 10.261719 L 29.429688 10.171875 L 31.859375 1.890625 L 40.140625 1.890625 L 42.570312 10.171875 L 42.75 10.261719 C 45.449219 11.160156 47.878906 12.601562 50.039062 14.488281 L 50.21875 14.671875 L 58.230469 12.871094 L 62.371094 20.339844 L 56.699219 26.371094 L 56.699219 26.640625 C 56.96875 27.988281 57.058594 29.339844 57.058594 30.691406 C 57.058594 32.039062 56.96875 33.390625 56.699219 34.738281 L 56.699219 35.011719 L 62.460938 40.769531 L 58.320312 48.238281 L 50.308594 46.441406 L 50.128906 46.621094 C 47.96875 48.511719 45.539062 49.949219 42.839844 50.851562 L 42.660156 50.941406 L 40.230469 59.21875 L 31.859375 59.21875 Z M 36 21.148438 C 30.78125 21.148438 26.550781 25.378906 26.550781 30.601562 C 26.550781 35.820312 30.78125 40.050781 36 40.050781 C 41.21875 40.050781 45.449219 35.820312 45.449219 30.601562 C 45.449219 25.378906 41.21875 21.148438 36 21.148438 Z M 36 21.148438 "/>
<path style=" stroke:none;fill-rule:nonzero;fill:rgb(36.862746%,61.176473%,46.27451%);fill-opacity:1;" d="M 39.78125 2.699219 L 42.03125 10.351562 L 42.121094 10.800781 L 42.570312 10.980469 C 45.179688 11.878906 47.609375 13.230469 49.679688 15.121094 L 50.039062 15.390625 L 50.488281 15.300781 L 57.960938 13.589844 L 61.828125 20.519531 L 56.519531 25.828125 L 56.160156 26.191406 L 56.25 26.640625 C 56.519531 27.898438 56.609375 29.25 56.609375 30.601562 C 56.609375 31.949219 56.519531 33.210938 56.25 34.558594 L 56.160156 35.011719 L 61.828125 40.679688 L 57.960938 47.609375 L 50.578125 45.898438 L 50.128906 45.808594 L 49.769531 46.078125 C 47.699219 47.96875 45.269531 49.320312 42.660156 50.21875 L 42.210938 50.398438 L 42.121094 50.851562 L 39.78125 58.5 L 32.128906 58.5 L 29.878906 50.851562 L 29.789062 50.398438 L 29.339844 50.21875 C 26.730469 49.320312 24.300781 47.96875 22.230469 46.078125 L 21.871094 45.808594 L 21.421875 45.898438 L 13.949219 47.609375 L 10.078125 40.679688 L 15.390625 35.371094 L 15.75 35.011719 L 15.660156 34.558594 C 15.390625 33.210938 15.300781 31.859375 15.300781 30.601562 C 15.300781 29.339844 15.390625 27.988281 15.660156 26.640625 L 15.75 26.191406 L 15.390625 25.828125 L 10.078125 20.519531 L 13.949219 13.589844 L 21.421875 15.300781 L 21.871094 15.390625 L 22.230469 15.121094 C 24.300781 13.230469 26.730469 11.878906 29.339844 10.980469 L 29.789062 10.800781 L 29.878906 10.351562 L 32.21875 2.699219 L 39.78125 2.699219 M 36 40.5 C 41.488281 40.5 45.898438 36.089844 45.898438 30.601562 C 45.898438 25.109375 41.488281 20.699219 36 20.699219 C 30.511719 20.699219 26.101562 25.109375 26.101562 30.601562 C 26.101562 36.089844 30.511719 40.5 36 40.5 M 40.5 1.800781 L 31.5 1.800781 L 29.070312 10.171875 C 26.28125 11.070312 23.761719 12.601562 21.601562 14.488281 L 13.5 12.601562 L 9 20.699219 L 14.761719 26.460938 C 14.488281 27.808594 14.398438 29.160156 14.398438 30.601562 C 14.398438 32.039062 14.578125 33.390625 14.761719 34.738281 L 9 40.5 L 13.5 48.601562 L 21.691406 46.710938 C 23.851562 48.601562 26.371094 50.128906 29.160156 51.03125 L 31.5 59.398438 L 40.5 59.398438 L 42.929688 51.03125 C 45.71875 50.128906 48.238281 48.601562 50.398438 46.710938 L 58.5 48.601562 L 63 40.5 L 57.238281 34.738281 C 57.511719 33.390625 57.601562 32.039062 57.601562 30.601562 C 57.601562 29.160156 57.421875 27.808594 57.238281 26.460938 L 63 20.699219 L 58.5 12.601562 L 50.308594 14.488281 C 48.148438 12.601562 45.628906 11.070312 42.839844 10.171875 Z M 36 39.601562 C 31.050781 39.601562 27 35.550781 27 30.601562 C 27 25.648438 31.050781 21.601562 36 21.601562 C 40.949219 21.601562 45 25.648438 45 30.601562 C 45 35.550781 40.949219 39.601562 36 39.601562 Z M 36 39.601562 "/>
</g>
</svg>
