<?xml version="1.0" encoding="UTF-8"?>
<svg xmlns="http://www.w3.org/2000/svg" xmlns:xlink="http://www.w3.org/1999/xlink" width="22.5pt" height="22.5pt" viewBox="0 0 22.5 22.5" version="1.1">
<g id="surface2422">
<path style=" stroke:none;fill-rule:nonzero;fill:rgb(40.000001%,47.450981%,56.078434%);fill-opacity:1;" d="M 22 7.84375 L 20.625 7.84375 L 20.625 7.207031 C 19.601562 5.6875 18.140625 4.125 17.488281 4.125 C 16.792969 4.125 16.5 4.316406 16.5 5.5 L 15.125 5.5 C 15.125 3.675781 15.917969 2.75 17.488281 2.75 C 19.230469 2.75 21.296875 5.714844 21.886719 6.625 L 22 6.796875 Z M 22 7.84375 "/>
<path style=" stroke:none;fill-rule:nonzero;fill:rgb(88.235295%,92.156863%,94.901961%);fill-opacity:1;" d="M 21.3125 7.5625 L 0.6875 7.5625 L 0.6875 15.8125 C 0.6875 15.8125 0.886719 15.8125 1.136719 15.8125 L 8.652344 15.8125 C 8.992188 15.8125 9.304688 15.589844 9.453125 15.242188 L 10.351562 12.210938 C 10.484375 11.90625 10.742188 11.753906 11 11.753906 C 11.257812 11.753906 11.515625 11.90625 11.648438 12.210938 L 12.542969 15.242188 C 12.695312 15.589844 13.007812 15.8125 13.347656 15.8125 L 20.863281 15.8125 C 21.113281 15.8125 21.3125 15.8125 21.3125 15.8125 Z M 21.3125 7.5625 "/>
<path style=" stroke:none;fill-rule:nonzero;fill:rgb(47.058824%,54.509807%,61.176473%);fill-opacity:1;" d="M 22 16.5 L 13.347656 16.5 C 12.738281 16.5 12.175781 16.113281 11.914062 15.519531 L 10.992188 12.425781 L 10.109375 15.453125 C 9.824219 16.113281 9.261719 16.5 8.652344 16.5 L 0 16.5 L 0 6.875 L 22 6.875 Z M 11 11.066406 C 11.554688 11.066406 12.046875 11.398438 12.277344 11.9375 L 13.199219 15.03125 C 13.222656 15.074219 13.296875 15.125 13.347656 15.125 L 20.625 15.125 L 20.625 8.25 L 1.375 8.25 L 1.375 15.125 L 8.652344 15.125 C 8.714844 15.125 8.785156 15.058594 8.824219 14.96875 L 9.699219 12 C 9.953125 11.398438 10.445312 11.066406 11 11.066406 Z M 11 11.066406 "/>
<path style=" stroke:none;fill-rule:nonzero;fill:rgb(30.588236%,47.843137%,70.980394%);fill-opacity:1;" d="M 7.703125 9.625 C 8.148438 9.625 8.34375 10.09375 8.210938 10.554688 C 7.917969 11.570312 7.585938 13.089844 7.355469 13.445312 C 7.28125 13.628906 7.113281 13.75 6.925781 13.75 L 3.09375 13.75 C 2.90625 13.75 2.75 13.582031 2.75 13.375 L 2.75 10.023438 C 2.75 9.804688 2.914062 9.625 3.117188 9.625 Z M 7.703125 9.625 "/>
<path style=" stroke:none;fill-rule:nonzero;fill:rgb(78.039217%,26.274511%,26.274511%);fill-opacity:1;" d="M 15.222656 13.0625 C 15.0625 12.683594 14.867188 11.929688 14.730469 11.410156 C 14.636719 11.046875 14.542969 10.683594 14.453125 10.367188 C 14.445312 10.347656 14.441406 10.328125 14.441406 10.3125 L 18.5625 10.3125 L 18.5625 13.0625 Z M 15.222656 13.0625 "/>
<path style=" stroke:none;fill-rule:nonzero;fill:rgb(78.039217%,26.274511%,26.274511%);fill-opacity:1;" d="M 17.875 11 L 17.875 12.375 L 15.707031 12.375 C 15.605469 12.039062 15.488281 11.582031 15.398438 11.238281 C 15.375 11.15625 15.355469 11.078125 15.335938 11 L 17.875 11 M 18.882812 9.625 L 14.296875 9.625 C 13.851562 9.625 13.65625 10.09375 13.789062 10.554688 C 14.078125 11.566406 14.414062 13.089844 14.644531 13.445312 C 14.71875 13.628906 14.886719 13.75 15.074219 13.75 L 18.90625 13.75 C 19.09375 13.75 19.25 13.582031 19.25 13.375 L 19.25 10.023438 C 19.25 9.804688 19.085938 9.625 18.882812 9.625 Z M 18.882812 9.625 "/>
<path style=" stroke:none;fill-rule:nonzero;fill:rgb(40.000001%,47.450981%,56.078434%);fill-opacity:1;" d="M 1.375 7.84375 L 0 7.84375 L 0 6.796875 L 0.113281 6.625 C 0.703125 5.714844 2.769531 2.75 4.511719 2.75 C 6.082031 2.75 6.875 3.675781 6.875 5.5 L 5.5 5.5 C 5.5 4.316406 5.207031 4.125 4.511719 4.125 C 3.859375 4.125 2.398438 5.6875 1.375 7.207031 Z M 1.375 7.84375 "/>
</g>
</svg>
