<?xml version="1.0" encoding="UTF-8"?>
<svg xmlns="http://www.w3.org/2000/svg" xmlns:xlink="http://www.w3.org/1999/xlink" width="30pt" height="30pt" viewBox="0 0 30 30" version="1.1">
<g id="surface7708">
<path style=" stroke:none;fill-rule:nonzero;fill:rgb(60.000002%,78.823531%,61.960787%);fill-opacity:1;" d="M 14.0625 12.1875 C 13.027344 12.1875 12.1875 13.027344 12.1875 14.0625 C 12.1875 15.097656 13.027344 15.9375 14.0625 15.9375 C 15.097656 15.9375 15.9375 15.097656 15.9375 14.0625 C 15.9375 13.027344 15.097656 12.1875 14.0625 12.1875 Z M 14.0625 12.1875 "/>
<path style=" stroke:none;fill-rule:nonzero;fill:rgb(36.862746%,61.176473%,46.27451%);fill-opacity:1;" d="M 14.0625 13.125 C 14.578125 13.125 15 13.546875 15 14.0625 C 15 14.578125 14.578125 15 14.0625 15 C 13.546875 15 13.125 14.578125 13.125 14.0625 C 13.125 13.546875 13.546875 13.125 14.0625 13.125 M 14.0625 11.25 C 12.511719 11.25 11.25 12.511719 11.25 14.0625 C 11.25 15.613281 12.511719 16.875 14.0625 16.875 C 15.613281 16.875 16.875 15.613281 16.875 14.0625 C 16.875 12.511719 15.613281 11.25 14.0625 11.25 Z M 14.0625 11.25 "/>
<path style=" stroke:none;fill-rule:nonzero;fill:rgb(76.078433%,90.980393%,100%);fill-opacity:1;" d="M 14.0625 25.3125 C 7.859375 25.3125 2.8125 20.265625 2.8125 14.0625 C 2.8125 7.859375 7.859375 2.8125 14.0625 2.8125 C 20.265625 2.8125 25.3125 7.859375 25.3125 14.0625 C 25.3125 20.265625 20.265625 25.3125 14.0625 25.3125 Z M 14.0625 4.6875 C 8.894531 4.6875 4.6875 8.894531 4.6875 14.0625 C 4.6875 19.230469 8.894531 23.4375 14.0625 23.4375 C 19.230469 23.4375 23.4375 19.230469 23.4375 14.0625 C 23.4375 8.894531 19.230469 4.6875 14.0625 4.6875 Z M 14.0625 4.6875 "/>
<path style=" stroke:none;fill-rule:nonzero;fill:rgb(45.490196%,58.823532%,76.862746%);fill-opacity:1;" d="M 24.375 14.0625 C 24.375 19.75 19.75 24.375 14.0625 24.375 C 8.375 24.375 3.75 19.75 3.75 14.0625 C 3.75 19.75 8.375 24.375 14.0625 24.375 C 19.75 24.375 24.375 19.75 24.375 14.0625 M 14.0625 1.875 C 7.332031 1.875 1.875 7.332031 1.875 14.0625 C 1.875 20.792969 7.332031 26.25 14.0625 26.25 C 20.792969 26.25 26.25 20.792969 26.25 14.0625 C 26.25 7.332031 20.792969 1.875 14.0625 1.875 Z M 14.0625 22.5 C 9.402344 22.5 5.625 18.722656 5.625 14.0625 C 5.625 9.402344 9.402344 5.625 14.0625 5.625 C 18.722656 5.625 22.5 9.402344 22.5 14.0625 C 22.5 18.722656 18.722656 22.5 14.0625 22.5 Z M 14.0625 22.5 "/>
<path style=" stroke:none;fill-rule:nonzero;fill:rgb(30.588236%,47.843137%,70.980394%);fill-opacity:1;" d="M 15 0 L 13.125 0 L 13.125 5.625 L 15 5.625 Z M 15 0 "/>
<path style=" stroke:none;fill-rule:nonzero;fill:rgb(54.509807%,71.764708%,94.117647%);fill-opacity:1;" d="M 22.5 13.125 L 28.125 13.125 L 28.125 15 L 22.5 15 Z M 22.5 13.125 "/>
<path style=" stroke:none;fill-rule:nonzero;fill:rgb(30.588236%,47.843137%,70.980394%);fill-opacity:1;" d="M 28.125 13.125 L 22.5 13.125 L 22.5 15 L 28.125 15 Z M 28.125 13.125 "/>
<path style=" stroke:none;fill-rule:nonzero;fill:rgb(54.509807%,71.764708%,94.117647%);fill-opacity:1;" d="M 0 13.125 L 5.625 13.125 L 5.625 15 L 0 15 Z M 0 13.125 "/>
<path style=" stroke:none;fill-rule:nonzero;fill:rgb(30.588236%,47.843137%,70.980394%);fill-opacity:1;" d="M 5.625 13.125 L 0 13.125 L 0 15 L 5.625 15 Z M 5.625 13.125 "/>
<path style=" stroke:none;fill-rule:nonzero;fill:rgb(30.588236%,47.843137%,70.980394%);fill-opacity:1;" d="M 15 22.5 L 13.125 22.5 L 13.125 28.125 L 15 28.125 Z M 15 22.5 "/>
</g>
</svg>
