<?xml version="1.0" encoding="UTF-8" standalone="no"?>
<!DOCTYPE svg PUBLIC "-//W3C//DTD SVG 1.1//EN" "http://www.w3.org/Graphics/SVG/1.1/DTD/svg11.dtd">
<svg width="100%" height="100%" viewBox="0 0 12 12" version="1.1" xmlns="http://www.w3.org/2000/svg" xmlns:xlink="http://www.w3.org/1999/xlink" xml:space="preserve" xmlns:serif="http://www.serif.com/" style="fill-rule:evenodd;clip-rule:evenodd;stroke-linejoin:round;stroke-miterlimit:2;">
    <g transform="matrix(1,0,0,1,0,-2.625)">
        <g id="surface21146">
            <g>
                <path d="M4.949,10.574L0.977,9L1.273,8.25L4.801,9.676L7.727,6.676L10.949,7.5L10.801,8.25L8.023,7.574L4.949,10.574Z" style="fill:rgb(78,121,181);fill-rule:nonzero;"/>
                <path d="M10.875,7.125C10.461,7.125 10.125,7.461 10.125,7.875C10.125,8.289 10.461,8.625 10.875,8.625C11.289,8.625 11.625,8.289 11.625,7.875C11.625,7.461 11.289,7.125 10.875,7.125Z" style="fill:rgb(139,183,239);fill-rule:nonzero;"/>
                <path d="M10.875,7.5C11.102,7.5 11.25,7.648 11.25,7.875C11.25,8.102 11.102,8.25 10.875,8.25C10.648,8.25 10.5,8.102 10.5,7.875C10.5,7.648 10.648,7.5 10.875,7.5M10.875,6.75C10.273,6.75 9.75,7.273 9.75,7.875C9.75,8.477 10.273,9 10.875,9C11.477,9 12,8.477 12,7.875C12,7.273 11.477,6.75 10.875,6.75Z" style="fill:rgb(78,121,181);fill-rule:nonzero;"/>
                <path d="M7.875,6.375C7.461,6.375 7.125,6.711 7.125,7.125C7.125,7.539 7.461,7.875 7.875,7.875C8.289,7.875 8.625,7.539 8.625,7.125C8.625,6.711 8.289,6.375 7.875,6.375Z" style="fill:rgb(139,183,239);fill-rule:nonzero;"/>
                <path d="M7.875,6.75C8.102,6.75 8.25,6.898 8.25,7.125C8.25,7.352 8.102,7.5 7.875,7.5C7.648,7.5 7.5,7.352 7.5,7.125C7.5,6.898 7.648,6.75 7.875,6.75M7.875,6C7.273,6 6.75,6.523 6.75,7.125C6.75,7.727 7.273,8.25 7.875,8.25C8.477,8.25 9,7.727 9,7.125C9,6.523 8.477,6 7.875,6Z" style="fill:rgb(78,121,181);fill-rule:nonzero;"/>
                <path d="M4.875,9.375C4.461,9.375 4.125,9.711 4.125,10.125C4.125,10.539 4.461,10.875 4.875,10.875C5.289,10.875 5.625,10.539 5.625,10.125C5.625,9.711 5.289,9.375 4.875,9.375Z" style="fill:rgb(139,183,239);fill-rule:nonzero;"/>
                <path d="M4.875,9.75C5.102,9.75 5.25,9.898 5.25,10.125C5.25,10.352 5.102,10.5 4.875,10.5C4.648,10.5 4.5,10.352 4.5,10.125C4.5,9.898 4.648,9.75 4.875,9.75M4.875,9C4.273,9 3.75,9.523 3.75,10.125C3.75,10.727 4.273,11.25 4.875,11.25C5.477,11.25 6,10.727 6,10.125C6,9.523 5.477,9 4.875,9Z" style="fill:rgb(78,121,181);fill-rule:nonzero;"/>
                <path d="M1.125,7.875C0.711,7.875 0.375,8.211 0.375,8.625C0.375,9.039 0.711,9.375 1.125,9.375C1.539,9.375 1.875,9.039 1.875,8.625C1.875,8.211 1.539,7.875 1.125,7.875Z" style="fill:rgb(139,183,239);fill-rule:nonzero;"/>
                <path d="M1.125,8.25C1.352,8.25 1.5,8.398 1.5,8.625C1.5,8.852 1.352,9 1.125,9C0.898,9 0.75,8.852 0.75,8.625C0.75,8.398 0.898,8.25 1.125,8.25M1.125,7.5C0.523,7.5 0,8.023 0,8.625C0,9.227 0.523,9.75 1.125,9.75C1.727,9.75 2.25,9.227 2.25,8.625C2.25,8.023 1.727,7.5 1.125,7.5Z" style="fill:rgb(78,121,181);fill-rule:nonzero;"/>
            </g>
        </g>
    </g>
</svg>
