<?xml version="1.0" encoding="UTF-8"?>
<svg xmlns="http://www.w3.org/2000/svg" xmlns:xlink="http://www.w3.org/1999/xlink" width="22.5pt" height="22.5pt" viewBox="0 0 22.5 22.5" version="1.1">
<g id="surface2498">
<path style=" stroke:none;fill-rule:nonzero;fill:rgb(100%,100%,100%);fill-opacity:1;" d="M 5.785156 21.3125 L 0.6875 16.214844 L 0.6875 0.6875 L 16.214844 0.6875 L 21.3125 5.785156 L 21.3125 21.3125 Z M 5.785156 21.3125 "/>
<path style=" stroke:none;fill-rule:nonzero;fill:rgb(47.058824%,54.509807%,61.176473%);fill-opacity:1;" d="M 15.929688 1.375 L 20.625 6.070312 L 20.625 20.625 L 6.070312 20.625 L 1.375 15.929688 L 1.375 1.375 L 15.929688 1.375 M 16.5 0 L 0 0 L 0 16.5 L 5.5 22 L 22 22 L 22 5.5 Z M 16.5 0 "/>
<path style=" stroke:none;fill-rule:nonzero;fill:rgb(47.058824%,54.509807%,61.176473%);fill-opacity:1;" d="M 5.5 5.5 L 22 5.5 L 22 6.875 L 5.5 6.875 Z M 5.5 5.5 "/>
<path style=" stroke:none;fill-rule:nonzero;fill:rgb(72.941178%,87.843138%,74.117649%);fill-opacity:1;" d="M 5.785156 21.3125 L 0.6875 16.214844 L 0.6875 1.429688 L 6.1875 5.828125 L 6.1875 21.3125 Z M 5.785156 21.3125 "/>
<path style=" stroke:none;fill-rule:nonzero;fill:rgb(36.862746%,61.176473%,46.27451%);fill-opacity:1;" d="M 1.375 2.863281 L 5.5 6.160156 L 5.5 20.054688 L 1.375 15.929688 L 1.375 2.863281 M 0 0 L 0 16.5 L 5.5 22 L 6.875 22 L 6.875 5.5 Z M 0 0 "/>
</g>
</svg>
