<?xml version="1.0" encoding="UTF-8" standalone="no"?>
<svg
   width="24"
   height="24"
   viewBox="0 0 24 24"
   version="1.1"
   xml:space="preserve"
   style="clip-rule:evenodd;fill-rule:evenodd;stroke-linejoin:round;stroke-miterlimit:2"
   id="svg2"
   xmlns="http://www.w3.org/2000/svg"
   xmlns:svg="http://www.w3.org/2000/svg"><defs
   id="defs2" />
    
   <g
   id="g3"><g
     id="g2"><path
       d="M 8,14.25 4.75,11 H 7 C 7.25,5.39 9.39,1 12,1 14,1 15.77,3.64 16.55,7.45 20.36,8.23 23,10 23,12 c 0,1.83 -2.17,3.43 -5.4,4.3 l 0.29,-2.03 C 19.8,13.72 21,12.91 21,12 21,10.94 19.35,10 16.87,9.5 16.95,10.29 17,11.13 17,12 17,18.08 14.76,23 12,23 10.17,23 8.57,20.83 7.7,17.6 l 2.03,0.29 C 10.28,19.8 11.09,21 12,21 13.66,21 15,16.97 15,12 15,11 14.95,10.05 14.85,9.15 13.95,9.05 13,9 12,9 L 10.14,9.06 10.43,7.05 12,7 c 0.87,0 1.71,0.05 2.5,0.13 C 14,4.65 13.06,3 12,3 10.46,3 9.18,6.5 9,11 h 2.25 L 8,14.25 M 14.25,16 11,19.25 V 17 C 5.39,16.75 1,14.61 1,12 1,10.17 3.17,8.57 6.4,7.7 L 6.11,9.73 C 4.2,10.28 3,11.09 3,12 c 0,1.54 3.5,2.82 8,3 v -2.25 z"
       style="fill:#4e79b5;fill-rule:nonzero"
       id="path1" /><path
       id="path1-1"
       style="clip-rule:evenodd;fill:#8bb7ef;fill-opacity:1;fill-rule:nonzero;stroke-linejoin:round;stroke-miterlimit:2"
       d="m 12,1.7246094 c -0.89885,0 -1.905396,0.8194751 -2.7363281,2.4941406 -0.8309321,1.6746655 -1.417781,4.0928952 -1.5390625,6.814453 A 0.72448089,0.72448089 0 0 1 7,11.724609 H 6.4980469 L 8,13.226563 9.5019531,11.724609 H 9 A 0.72448089,0.72448089 0 0 1 8.2753906,10.970703 C 8.3678317,8.6596774 8.7365023,6.6029564 9.3105469,5.0605469 9.5975692,4.2893421 9.9330005,3.6424761 10.355469,3.1464844 10.777937,2.6504926 11.340603,2.2753906 12,2.2753906 c 0.906068,0 1.587823,0.6596029 2.082031,1.4902344 0.494208,0.8306315 0.867679,1.9269682 1.128907,3.2226562 A 0.72448089,0.72448089 0 0 1 14.427734,7.8515625 C 13.661413,7.7739603 12.847949,7.7250027 12.009766,7.7246094 H 12 l -0.939453,0.03125 -0.08008,0.5527344 0.996094,-0.033203 a 0.72448089,0.72448089 0 0 1 0.02344,0 c 1.024336,0 2.000649,0.05107 2.929688,0.1542969 a 0.72448089,0.72448089 0 0 1 0.640625,0.640625 C 15.673539,9.9993514 15.724609,10.975664 15.724609,12 c 0,2.550104 -0.336609,4.858105 -0.914062,6.591797 -0.288727,0.866846 -0.633678,1.592091 -1.072266,2.148437 -0.438588,0.556347 -1.030172,0.984375 -1.738281,0.984375 -0.773255,0 -1.400084,-0.499859 -1.859375,-1.142578 -0.3742457,-0.523708 -0.6428347,-1.2595 -0.9003906,-2.029297 l -0.4609375,-0.06641 c 0.3711899,1.036417 0.7960141,1.957596 1.2812501,2.580078 0.652855,0.837511 1.310837,1.208985 1.939453,1.208985 0.474777,0 0.951372,-0.203297 1.453125,-0.669922 0.501753,-0.466625 0.998122,-1.193211 1.421875,-2.125 C 15.722507,17.61689 16.275391,14.951038 16.275391,12 c 0,-0.841768 -0.04904,-1.658326 -0.126954,-2.4277344 a 0.72448089,0.72448089 0 0 1 0.863282,-0.7832031 c 1.295688,0.2612274 2.392025,0.6346981 3.222656,1.1289063 0.830631,0.4942082 1.490234,1.1759632 1.490234,2.0820312 0,0.773255 -0.499859,1.400084 -1.142578,1.859375 -0.523708,0.374246 -1.2595,0.642835 -2.029297,0.900391 l -0.06641,0.460937 c 1.036417,-0.37119 1.957596,-0.796014 2.580078,-1.28125 0.837511,-0.652855 1.208985,-1.310837 1.208985,-1.939453 0,-0.681355 -0.462099,-1.427616 -1.484375,-2.1386719 C 19.768739,9.1502724 18.237923,8.5331914 16.40625,8.1582031 A 0.72448089,0.72448089 0 0 1 15.841797,7.59375 C 15.466809,5.7620765 14.849728,4.231261 14.138672,3.2089844 13.427616,2.1867077 12.681355,1.7246094 12,1.7246094 Z M 5.5136719,8.7792969 C 4.477255,9.1504868 3.5560755,9.575311 2.9335938,10.060547 2.0960827,10.713402 1.7246094,11.371384 1.7246094,12 c 0,0.89885 0.8194751,1.905396 2.4941406,2.736328 1.6746655,0.830932 4.0928952,1.417781 6.814453,1.539063 A 0.72448089,0.72448089 0 0 1 11.724609,17 v 0.501953 L 13.226563,16 11.724609,14.498047 V 15 a 0.72448089,0.72448089 0 0 1 -0.753906,0.724609 C 8.6596774,15.632168 6.6029564,15.263498 5.0605469,14.689453 4.2893421,14.402431 3.6424761,14.067 3.1464844,13.644531 2.6504926,13.222063 2.2753906,12.659397 2.2753906,12 c 0,-0.773255 0.4998598,-1.400084 1.1425782,-1.859375 C 3.9416773,9.7663793 4.6774686,9.4977903 5.4472656,9.2402344 Z" /><path
       d=""
       style="fill:#8bb7ef;fill-rule:nonzero"
       id="path2" /></g></g>
</svg>
