<?xml version="1.0" encoding="UTF-8" standalone="no"?>
<!DOCTYPE svg PUBLIC "-//W3C//DTD SVG 1.1//EN" "http://www.w3.org/Graphics/SVG/1.1/DTD/svg11.dtd">
<svg width="100%" height="100%" viewBox="0 0 23 23" version="1.1" xmlns="http://www.w3.org/2000/svg" xmlns:xlink="http://www.w3.org/1999/xlink" xml:space="preserve" xmlns:serif="http://www.serif.com/" style="fill-rule:evenodd;clip-rule:evenodd;stroke-linejoin:round;stroke-miterlimit:2;">
    <g id="surface3298">
        <path d="M5.785,21.313L0.688,16.215L0.688,0.688L16.215,0.688L21.313,5.785L21.313,21.313L5.785,21.313Z" style="fill:rgb(186,224,189);fill-rule:nonzero;"/>
        <path d="M15.93,1.375L20.625,6.07L20.625,20.625L6.07,20.625L1.375,15.93L1.375,1.375L15.93,1.375M16.5,0L0,0L0,16.5L5.5,22L22,22L22,5.5L16.5,0Z" style="fill:rgb(94,156,118);fill-rule:nonzero;"/>
        <rect x="5.5" y="5.5" width="16.5" height="1.375" style="fill:rgb(94,156,118);fill-rule:nonzero;"/>
        <path d="M5.785,21.313L0.688,16.215L0.688,1.43L6.188,5.828L6.188,21.313L5.785,21.313Z" style="fill:rgb(186,224,189);fill-rule:nonzero;"/>
        <path d="M1.375,2.863L5.5,6.16L5.5,20.055L1.375,15.93L1.375,2.863M0,0L0,16.5L5.5,22L6.875,22L6.875,5.5L0,0Z" style="fill:rgb(94,156,118);fill-rule:nonzero;"/>
    </g>
</svg>
