<?xml version="1.0" encoding="UTF-8"?>
<svg xmlns="http://www.w3.org/2000/svg" xmlns:xlink="http://www.w3.org/1999/xlink" width="30pt" height="30pt" viewBox="0 0 30 30" version="1.1">
<g id="surface7494">
<path style=" stroke:none;fill-rule:nonzero;fill:rgb(86.274511%,83.529413%,94.901961%);fill-opacity:1;" d="M 2.8125 27.1875 L 2.8125 2.8125 L 22.113281 2.8125 L 27.1875 7.886719 L 27.1875 27.1875 Z M 2.8125 27.1875 "/>
<path style=" stroke:none;fill-rule:nonzero;fill:rgb(54.509807%,45.882353%,63.137257%);fill-opacity:1;" d="M 21.722656 3.75 L 26.25 8.277344 L 26.25 26.25 L 3.75 26.25 L 3.75 3.75 L 21.722656 3.75 M 22.5 1.875 L 1.875 1.875 L 1.875 28.125 L 28.125 28.125 L 28.125 7.5 Z M 22.5 1.875 "/>
<path style=" stroke:none;fill-rule:nonzero;fill:rgb(100%,100%,100%);fill-opacity:1;" d="M 7.5 15 L 22.5 15 L 22.5 26.25 L 7.5 26.25 Z M 7.5 15 "/>
<path style=" stroke:none;fill-rule:nonzero;fill:rgb(77.64706%,72.941178%,90.196079%);fill-opacity:1;" d="M 20.625 3.75 L 7.5 3.75 L 7.5 9.375 C 7.5 10.410156 8.339844 11.25 9.375 11.25 L 20.625 11.25 Z M 20.625 3.75 "/>
<path style=" stroke:none;fill-rule:nonzero;fill:rgb(88.235295%,92.156863%,94.901961%);fill-opacity:1;" d="M 11.25 10.3125 C 10.734375 10.3125 10.3125 9.890625 10.3125 9.375 L 10.3125 3.75 C 10.3125 3.234375 10.734375 2.8125 11.25 2.8125 L 20.625 2.8125 C 21.140625 2.8125 21.5625 3.234375 21.5625 3.75 L 21.5625 9.375 C 21.5625 9.890625 21.140625 10.3125 20.625 10.3125 Z M 11.25 10.3125 "/>
<path style=" stroke:none;fill-rule:nonzero;fill:rgb(40.000001%,47.450981%,56.078434%);fill-opacity:1;" d="M 20.625 3.75 L 20.625 9.375 L 11.25 9.375 L 11.25 3.75 L 20.625 3.75 M 20.625 1.875 L 11.25 1.875 C 10.214844 1.875 9.375 2.714844 9.375 3.75 L 9.375 9.375 C 9.375 10.410156 10.214844 11.25 11.25 11.25 L 20.625 11.25 C 21.660156 11.25 22.5 10.410156 22.5 9.375 L 22.5 3.75 C 22.5 2.714844 21.660156 1.875 20.625 1.875 Z M 20.625 1.875 "/>
<path style=" stroke:none;fill-rule:nonzero;fill:rgb(76.078433%,90.980393%,100%);fill-opacity:1;" d="M 9.375 18.75 L 20.625 18.75 L 20.625 20.625 L 9.375 20.625 Z M 9.375 22.5 L 20.625 22.5 L 20.625 24.375 L 9.375 24.375 Z M 9.375 22.5 "/>
<path style=" stroke:none;fill-rule:nonzero;fill:rgb(47.058824%,54.509807%,61.176473%);fill-opacity:1;" d="M 16.875 5.625 L 18.75 5.625 L 18.75 9.375 L 16.875 9.375 Z M 16.875 5.625 "/>
<path style=" stroke:none;fill-rule:nonzero;fill:rgb(96.078432%,80.784315%,52.156866%);fill-opacity:1;" d="M 15.84375 19.414062 L 17.039062 18.21875 L 19.441406 20.3125 L 18.097656 21.65625 L 14.648438 22.851562 Z M 15.84375 19.414062 "/>
<path style=" stroke:none;fill-rule:nonzero;fill:rgb(58.823532%,47.843137%,26.666668%);fill-opacity:1;" d="M 17.085938 19.5 L 18.070312 20.359375 L 17.589844 20.839844 L 16.171875 21.332031 L 16.660156 19.925781 L 17.085938 19.5 M 16.996094 16.9375 L 15.03125 18.90625 L 13.125 24.375 L 18.609375 22.46875 L 20.8125 20.265625 Z M 16.996094 16.9375 "/>
<path style=" stroke:none;fill-rule:nonzero;fill:rgb(21.176471%,25.098041%,30.19608%);fill-opacity:1;" d="M 14.035156 21.765625 L 13.125 24.375 L 15.742188 23.464844 Z M 14.035156 21.765625 "/>
<path style=" stroke:none;fill-rule:nonzero;fill:rgb(100%,93.333334%,63.921571%);fill-opacity:1;" d="M 18.894531 21.1875 C 18.734375 21.015625 18.480469 20.828125 18.101562 20.726562 C 17.894531 20.023438 17.339844 19.625 16.796875 19.449219 C 16.695312 19.109375 16.515625 18.84375 16.285156 18.644531 L 24.976562 9.945312 L 27.554688 12.523438 Z M 18.894531 21.1875 "/>
<path style=" stroke:none;fill-rule:nonzero;fill:rgb(72.941178%,60.784316%,28.235295%);fill-opacity:1;" d="M 24.976562 10.941406 L 26.558594 12.523438 L 18.832031 20.261719 C 18.769531 20.226562 18.703125 20.195312 18.632812 20.164062 C 18.359375 19.585938 17.886719 19.164062 17.34375 18.910156 C 17.3125 18.835938 17.273438 18.761719 17.230469 18.691406 L 24.976562 10.941406 M 24.972656 8.953125 L 15.03125 18.902344 C 15.03125 18.902344 15.035156 18.902344 15.042969 18.902344 C 15.171875 18.902344 16.171875 18.9375 16.171875 20.042969 C 16.171875 20.042969 17.484375 20.082031 17.484375 21.351562 C 18.789062 21.351562 18.609375 22.46875 18.609375 22.46875 L 28.546875 12.523438 Z M 24.972656 8.953125 "/>
<path style=" stroke:none;fill-rule:nonzero;fill:rgb(96.862745%,56.078434%,56.078434%);fill-opacity:1;" d="M 24.664062 10.585938 L 26.351562 8.902344 C 26.652344 8.601562 27.050781 8.4375 27.472656 8.4375 C 27.898438 8.4375 28.296875 8.601562 28.597656 8.902344 C 29.214844 9.519531 29.214844 10.527344 28.597656 11.148438 L 26.910156 12.832031 Z M 24.664062 10.585938 "/>
<path style=" stroke:none;fill-rule:nonzero;fill:rgb(78.039217%,26.274511%,26.274511%);fill-opacity:1;" d="M 27.472656 9.375 C 27.574219 9.375 27.769531 9.398438 27.9375 9.5625 C 28.1875 9.816406 28.1875 10.230469 27.9375 10.484375 L 26.910156 11.507812 L 25.992188 10.589844 L 27.015625 9.5625 C 27.179688 9.398438 27.375 9.375 27.472656 9.375 M 27.472656 7.5 C 26.828125 7.5 26.179688 7.746094 25.6875 8.238281 L 23.339844 10.589844 L 26.910156 14.160156 L 29.257812 11.8125 C 30.246094 10.824219 30.246094 9.226562 29.257812 8.238281 C 28.765625 7.742188 28.121094 7.5 27.472656 7.5 Z M 27.472656 7.5 "/>
</g>
</svg>
