<?xml version="1.0" encoding="UTF-8" standalone="no"?>
<!DOCTYPE svg PUBLIC "-//W3C//DTD SVG 1.1//EN" "http://www.w3.org/Graphics/SVG/1.1/DTD/svg11.dtd">
<svg width="100%" height="100%" viewBox="0 0 240 240" version="1.1" xmlns="http://www.w3.org/2000/svg" xmlns:xlink="http://www.w3.org/1999/xlink" xml:space="preserve" xmlns:serif="http://www.serif.com/" style="fill-rule:evenodd;clip-rule:evenodd;stroke-linejoin:round;stroke-miterlimit:2;">
    <g id="Layer-1" serif:id="Layer 1" transform="matrix(1,0,0,1,0,-812.362)">
        <g id="g6611">
            <g id="g6434">
                <path id="path4239" d="M120,839.863C96.327,839.863 72.656,848.895 54.594,866.956C18.47,903.08 18.47,961.645 54.594,997.769C90.717,1033.89 149.283,1033.89 185.406,997.769C221.53,961.645 221.53,903.08 185.406,866.956C167.345,848.895 143.673,839.863 120,839.863ZM120,857.363C161.421,857.363 195,890.941 195,932.363C195,973.784 161.421,1007.36 120,1007.36C78.579,1007.36 45,973.784 45,932.363C45,890.941 78.579,857.363 120,857.363Z" style="fill:url(#_Radial1);fill-rule:nonzero;"/>
                <g id="g6428">
                    <path id="path3234-6" d="M198.489,853.873C155.141,810.525 84.859,810.525 41.511,853.873C-1.837,897.222 -1.837,967.503 41.511,1010.85C84.859,1054.2 155.141,1054.2 198.489,1010.85C241.837,967.503 241.837,897.222 198.489,853.873ZM197.428,854.934C240.191,897.696 240.191,967.028 197.428,1009.79C154.666,1052.55 85.334,1052.55 42.572,1009.79C-0.191,967.028 -0.191,897.696 42.572,854.934C85.334,812.172 154.666,812.172 197.428,854.934Z" style="fill:rgb(50,50,50);fill-rule:nonzero;"/>
                    <path id="path3234" d="M197.782,854.58C154.824,811.623 85.176,811.623 42.218,854.58C-0.739,897.538 -0.739,967.186 42.218,1010.14C85.176,1053.1 154.824,1053.1 197.782,1010.14C240.739,967.186 240.739,897.538 197.782,854.58ZM195.307,857.055C236.898,898.646 236.898,966.078 195.307,1007.67C153.716,1049.26 86.284,1049.26 44.693,1007.67C3.102,966.078 3.102,898.646 44.693,857.055C86.284,815.464 153.716,815.464 195.307,857.055Z" style="fill:url(#_Linear2);fill-rule:nonzero;"/>
                    <path id="path3234-9-8" d="M191.418,860.944C151.975,821.501 88.025,821.501 48.582,860.944C9.139,900.387 9.139,964.337 48.582,1003.78C88.025,1043.22 151.975,1043.22 191.418,1003.78C230.861,964.337 230.861,900.387 191.418,860.944ZM185.054,867.308C220.982,903.237 220.982,961.488 185.054,997.416C149.126,1033.34 90.874,1033.34 54.946,997.416C19.018,961.488 19.018,903.237 54.946,867.308C90.874,831.38 149.126,831.38 185.054,867.308Z" style="fill:url(#_Linear3);fill-rule:nonzero;"/>
                    <path id="path3234-9" d="M120.007,825.395C92.623,825.395 65.212,835.846 44.319,856.739C5.922,895.136 2.837,955.442 35.007,997.395C35.079,997.49 35.153,997.582 35.225,997.676C35.498,998.03 35.76,998.388 36.038,998.739C36.324,999.101 36.591,999.475 36.882,999.833C37.48,1000.57 38.105,1001.3 38.725,1002.02C38.744,1002.04 38.769,1002.06 38.788,1002.08C39.361,1002.75 39.946,1003.39 40.538,1004.05C40.775,1004.31 41.017,1004.57 41.257,1004.83C41.639,1005.25 42.023,1005.67 42.413,1006.08C42.555,1006.23 42.707,1006.37 42.85,1006.52C43.344,1007.03 43.814,1007.55 44.319,1008.05C44.418,1008.15 44.533,1008.23 44.632,1008.33C44.988,1008.69 45.333,1009.05 45.694,1009.39C46.157,1009.84 46.631,1010.27 47.1,1010.71C47.159,1010.76 47.228,1010.81 47.288,1010.86C47.697,1011.24 48.094,1011.62 48.507,1011.99C49.125,1012.54 49.751,1013.1 50.382,1013.64C51.008,1014.18 51.65,1014.72 52.288,1015.24C52.351,1015.29 52.413,1015.34 52.475,1015.39C52.983,1015.81 53.491,1016.21 54.007,1016.61C54.662,1017.13 55.311,1017.65 55.975,1018.14C56.177,1018.3 56.366,1018.46 56.569,1018.61C56.617,1018.65 56.677,1018.67 56.725,1018.71C57.422,1019.22 58.141,1019.71 58.85,1020.21C59.606,1020.74 60.366,1021.26 61.132,1021.77C61.202,1021.82 61.28,1021.85 61.35,1021.89C63.049,1023.01 64.761,1024.07 66.507,1025.08C67.38,1025.59 68.248,1026.07 69.132,1026.55C70.032,1027.04 70.94,1027.5 71.85,1027.96C72.092,1028.08 72.327,1028.21 72.569,1028.33C73.235,1028.66 73.896,1028.99 74.569,1029.3C75.485,1029.73 76.394,1030.15 77.319,1030.55L77.35,1030.55C78.14,1030.89 78.929,1031.23 79.725,1031.55C79.873,1031.61 80.015,1031.68 80.163,1031.74C80.822,1032 81.5,1032.24 82.163,1032.49C82.814,1032.74 83.475,1032.97 84.132,1033.21C84.392,1033.3 84.652,1033.4 84.913,1033.49C85.627,1033.74 86.348,1033.97 87.069,1034.21C87.89,1034.47 88.709,1034.74 89.538,1034.99C89.602,1035.01 89.662,1035.03 89.725,1035.05C90.432,1035.26 91.138,1035.45 91.85,1035.64C92.734,1035.88 93.619,1036.12 94.507,1036.33C95.182,1036.5 95.857,1036.65 96.538,1036.8C96.746,1036.85 96.955,1036.91 97.163,1036.96C97.957,1037.13 98.768,1037.27 99.569,1037.42C100.326,1037.57 101.088,1037.73 101.85,1037.86C101.933,1037.88 102.018,1037.88 102.1,1037.89C102.758,1038.01 103.408,1038.11 104.069,1038.21C104.537,1038.28 105.007,1038.33 105.475,1038.39C106.887,1038.59 108.297,1038.76 109.725,1038.89C110.369,1038.95 111.016,1039 111.663,1039.05C111.871,1039.07 112.08,1039.1 112.288,1039.11C112.371,1039.12 112.455,1039.1 112.538,1039.11C113.131,1039.15 113.724,1039.21 114.319,1039.24C114.496,1039.25 114.673,1039.23 114.85,1039.24C115.484,1039.27 116.12,1039.25 116.757,1039.27C117.831,1039.3 118.932,1039.33 120.007,1039.33C121.082,1039.33 122.151,1039.3 123.225,1039.27C124.04,1039.24 124.854,1039.22 125.663,1039.17C126.258,1039.14 126.852,1039.09 127.444,1039.05C127.527,1039.04 127.611,1039.06 127.694,1039.05C127.903,1039.03 128.111,1039.03 128.319,1039.02C128.964,1038.97 129.612,1038.92 130.257,1038.86C131.663,1038.73 133.054,1038.58 134.444,1038.39C135.708,1038.22 136.976,1038.01 138.225,1037.8C138.968,1037.67 139.707,1037.54 140.444,1037.39C141.001,1037.29 141.545,1037.2 142.1,1037.08C142.553,1036.99 142.994,1036.87 143.444,1036.77C144.956,1036.43 146.477,1036.05 147.975,1035.64C148.803,1035.42 149.625,1035.2 150.444,1034.96C151.283,1034.71 152.114,1034.44 152.944,1034.17C153.731,1033.92 154.509,1033.66 155.288,1033.39C155.373,1033.36 155.454,1033.3 155.538,1033.27C156.007,1033.1 156.477,1032.94 156.944,1032.77C157.238,1032.66 157.527,1032.54 157.819,1032.42C158.483,1032.17 159.16,1031.94 159.819,1031.67C159.967,1031.62 160.109,1031.55 160.257,1031.49C160.395,1031.43 160.525,1031.36 160.663,1031.3C162.134,1030.69 163.601,1030.09 165.038,1029.42C165.164,1029.37 165.288,1029.3 165.413,1029.24C166.08,1028.92 166.753,1028.6 167.413,1028.27C167.663,1028.14 167.914,1028.02 168.163,1027.89C168.697,1027.62 169.228,1027.36 169.757,1027.08C170.124,1026.89 170.485,1026.68 170.85,1026.49C171.256,1026.27 171.667,1026.06 172.069,1025.83C172.551,1025.56 173.028,1025.3 173.507,1025.02C174.381,1024.51 175.242,1023.99 176.1,1023.46C177.781,1022.42 179.436,1021.34 181.069,1020.21C181.093,1020.19 181.109,1020.19 181.132,1020.18C181.841,1019.68 182.56,1019.19 183.257,1018.68C183.37,1018.59 183.487,1018.51 183.6,1018.43C184.207,1017.98 184.816,1017.51 185.413,1017.05C185.611,1016.9 185.809,1016.74 186.007,1016.58C186.522,1016.18 187.03,1015.78 187.538,1015.36C187.578,1015.33 187.623,1015.3 187.663,1015.27C188.322,1014.73 188.955,1014.17 189.6,1013.61C190.234,1013.07 190.855,1012.51 191.475,1011.96C191.536,1011.9 191.603,1011.85 191.663,1011.8C192.065,1011.44 192.453,1011.08 192.85,1010.71C193.121,1010.45 193.396,1010.21 193.663,1009.96C194.117,1009.52 194.59,1009.08 195.038,1008.64C195.247,1008.44 195.456,1008.23 195.663,1008.02C196.174,1007.51 196.665,1007 197.163,1006.49C197.302,1006.34 197.431,1006.2 197.569,1006.05C198.116,1005.48 198.663,1004.88 199.194,1004.3C199.278,1004.21 199.36,1004.11 199.444,1004.02C200.036,1003.36 200.621,1002.72 201.194,1002.05C201.213,1002.03 201.238,1002.04 201.257,1002.02C201.892,1001.28 202.52,1000.52 203.132,999.768C203.657,999.121 204.183,998.46 204.694,997.8C204.799,997.665 204.903,997.529 205.007,997.393C237.177,955.44 234.061,895.135 195.663,856.737C174.77,835.844 147.39,825.393 120.007,825.393L120.007,825.395ZM120.007,831.864C120.811,831.864 121.613,831.876 122.413,831.895C122.475,831.896 122.538,831.893 122.6,831.895C123.341,831.914 124.079,831.953 124.819,831.989C126.429,832.065 128.043,832.181 129.632,832.332C129.85,832.353 130.07,832.373 130.288,832.395C133.304,832.701 136.263,833.14 139.194,833.707C142.398,834.327 145.544,835.104 148.632,836.02C149.409,836.25 150.172,836.49 150.944,836.739C151.718,836.989 152.491,837.252 153.257,837.52C154.793,838.059 156.318,838.629 157.819,839.239C158.575,839.545 159.351,839.85 160.1,840.176C160.207,840.223 160.307,840.286 160.413,840.332C161.812,840.947 163.174,841.594 164.538,842.27C165.28,842.638 166.025,843.01 166.757,843.395C167.478,843.775 168.202,844.154 168.913,844.551C169.636,844.955 170.357,845.38 171.069,845.801C172.11,846.416 173.14,847.052 174.163,847.707C174.731,848.072 175.319,848.424 175.882,848.801C175.987,848.872 176.089,848.949 176.194,849.02C177.129,849.652 178.063,850.295 178.975,850.957C179.367,851.242 179.743,851.542 180.132,851.832C180.351,851.996 180.571,852.167 180.788,852.332C181.008,852.5 181.225,852.663 181.444,852.832C182.12,853.355 182.782,853.887 183.444,854.426C184.104,854.964 184.767,855.497 185.413,856.051C185.536,856.157 185.665,856.257 185.788,856.364C186.993,857.409 188.184,858.502 189.35,859.614C189.938,860.173 190.496,860.759 191.069,861.332C192.214,862.477 193.335,863.617 194.413,864.801C194.954,865.396 195.48,865.975 196.007,866.582C196.04,866.621 196.067,866.669 196.1,866.707C196.592,867.277 197.09,867.846 197.569,868.426C198.613,869.689 199.597,871.001 200.569,872.301C200.6,872.343 200.632,872.384 200.663,872.426C201.126,873.049 201.589,873.668 202.038,874.301C202.482,874.927 202.922,875.542 203.35,876.176C205.595,879.499 207.634,882.962 209.475,886.551C210.167,887.901 210.817,889.24 211.444,890.614C211.77,891.326 212.072,892.049 212.382,892.77C212.624,893.337 212.869,893.887 213.1,894.457C213.197,894.694 213.287,894.939 213.382,895.176C213.906,896.494 214.416,897.811 214.882,899.145C214.914,899.238 214.943,899.333 214.975,899.426C215.096,899.774 215.203,900.14 215.319,900.489C215.524,901.102 215.719,901.714 215.913,902.332C216.255,903.428 216.609,904.509 216.913,905.614C216.953,905.758 216.967,905.906 217.007,906.051C217.389,907.465 217.747,908.895 218.069,910.332C218.405,911.832 218.708,913.34 218.975,914.864C219.306,916.745 219.596,918.626 219.819,920.52C219.958,921.704 220.065,922.917 220.163,924.114C220.262,925.324 220.357,926.526 220.413,927.739C220.434,928.209 220.429,928.673 220.444,929.145C220.482,930.349 220.511,931.566 220.506,932.77C220.505,933.083 220.479,933.395 220.475,933.707C220.468,934.272 220.461,934.833 220.444,935.395C220.399,936.928 220.339,938.442 220.225,939.957C220.158,940.844 220.066,941.76 219.975,942.645C219.911,943.281 219.833,943.918 219.757,944.551C219.68,945.184 219.595,945.794 219.507,946.426C219.48,946.613 219.471,946.802 219.444,946.989C219.119,949.217 218.725,951.404 218.257,953.582C217.801,955.703 217.281,957.795 216.694,959.864C216.673,959.937 216.652,960.009 216.632,960.082C216.512,960.5 216.381,960.917 216.257,961.332C216.138,961.728 216.005,962.126 215.882,962.52C215.651,963.255 215.41,963.98 215.163,964.707C214.912,965.447 214.682,966.191 214.413,966.926C213.942,968.212 213.434,969.478 212.913,970.739C212.719,971.207 212.52,971.68 212.319,972.145C211.956,972.988 211.581,973.841 211.194,974.676C210.655,975.836 210.088,976.978 209.507,978.114C209.241,978.633 208.969,979.161 208.694,979.676C208.672,979.717 208.654,979.76 208.632,979.801C208.396,980.241 208.155,980.677 207.913,981.114C207.739,981.427 207.559,981.74 207.382,982.051C207.053,982.628 206.723,983.198 206.382,983.77C206.289,983.926 206.194,984.084 206.1,984.239C205.786,984.759 205.456,985.285 205.132,985.801C204.933,986.117 204.74,986.426 204.538,986.739C204.146,987.346 203.756,987.951 203.35,988.551C203.075,988.959 202.788,989.366 202.507,989.77C202.154,990.275 201.807,990.77 201.444,991.27C200.795,992.165 200.121,993.053 199.444,993.926C198.831,994.716 198.209,995.526 197.569,996.301C197.264,996.671 196.942,997.03 196.632,997.395C178.197,1019.1 150.711,1032.86 120.007,1032.86C89.302,1032.86 61.816,1019.1 43.382,997.395C43.378,997.395 43.355,997.405 43.35,997.395C43.163,997.175 42.973,996.96 42.788,996.739C42.455,996.339 42.146,995.925 41.819,995.52C41.526,995.158 41.231,994.791 40.944,994.426C40.816,994.264 40.696,994.09 40.569,993.926C40.198,993.448 39.837,992.972 39.475,992.489C39.279,992.226 39.075,991.972 38.882,991.707C38.669,991.418 38.465,991.124 38.257,990.832C38.157,990.694 38.043,990.566 37.944,990.426C37.508,989.812 37.083,989.173 36.663,988.551C35.298,986.532 34.021,984.487 32.819,982.395C32.694,982.177 32.568,981.958 32.444,981.739C32.17,981.253 31.897,980.759 31.632,980.27C31.245,979.557 30.875,978.834 30.507,978.114C30.416,977.936 30.315,977.761 30.225,977.582C29.948,977.031 29.68,976.482 29.413,975.926C29.342,975.778 29.265,975.637 29.194,975.489C29.066,975.219 28.945,974.947 28.819,974.676C28.616,974.238 28.423,973.805 28.225,973.364C27.95,972.747 27.675,972.11 27.413,971.489C27.373,971.395 27.327,971.301 27.288,971.207C27.035,970.604 26.778,970.002 26.538,969.395C26.509,969.322 26.473,969.25 26.444,969.176C26.379,969.01 26.321,968.843 26.257,968.676C26.027,968.084 25.819,967.493 25.6,966.895C25.321,966.128 25.048,965.354 24.788,964.582C24.308,963.161 23.858,961.739 23.444,960.301C23.411,960.187 23.383,960.072 23.35,959.957C23.311,959.821 23.264,959.688 23.225,959.551C23.06,958.96 22.911,958.364 22.757,957.77C22.627,957.274 22.504,956.769 22.382,956.27C22.336,956.082 22.27,955.896 22.225,955.707C22.058,955.003 21.909,954.292 21.757,953.582C21.687,953.259 21.604,952.938 21.538,952.614C21.476,952.313 21.409,952.01 21.35,951.707C21.279,951.343 21.23,950.979 21.163,950.614C21.117,950.364 21.082,950.114 21.038,949.864C20.939,949.302 20.846,948.739 20.757,948.176C20.702,947.831 20.651,947.491 20.6,947.145C20.565,946.905 20.54,946.666 20.507,946.426C20.314,945.051 20.143,943.663 20.007,942.27C19.936,941.55 19.843,940.803 19.788,940.082C19.785,940.041 19.791,939.999 19.788,939.957C19.696,938.733 19.648,937.506 19.601,936.27C19.584,935.831 19.549,935.397 19.538,934.957C19.523,934.345 19.511,933.729 19.507,933.114C19.505,932.866 19.507,932.611 19.507,932.364C19.507,931.503 19.516,930.631 19.538,929.77C19.549,929.35 19.554,928.939 19.569,928.52C19.579,928.259 19.588,928 19.6,927.739C19.623,927.236 19.664,926.739 19.694,926.239C19.727,925.706 19.747,925.177 19.788,924.645C19.801,924.468 19.836,924.29 19.85,924.114C19.906,923.436 19.968,922.759 20.038,922.082C20.052,921.947 20.055,921.811 20.069,921.676C20.11,921.292 20.149,920.904 20.194,920.52C20.238,920.145 20.302,919.769 20.35,919.395C20.451,918.616 20.544,917.828 20.663,917.051C20.776,916.313 20.909,915.596 21.038,914.864C21.305,913.34 21.609,911.832 21.944,910.332C22.266,908.895 22.624,907.465 23.007,906.051C23.045,905.908 23.061,905.757 23.1,905.614C23.283,904.951 23.498,904.302 23.694,903.645C23.809,903.257 23.918,902.876 24.038,902.489C24.146,902.141 24.27,901.803 24.381,901.457C24.521,901.025 24.642,900.576 24.788,900.145C24.882,899.866 24.972,899.579 25.069,899.301C25.087,899.248 25.113,899.198 25.131,899.145C25.373,898.456 25.626,897.765 25.881,897.082C26.075,896.566 26.273,896.034 26.475,895.52C26.521,895.404 26.585,895.292 26.631,895.176C26.727,894.937 26.816,894.696 26.913,894.457C27.142,893.894 27.392,893.328 27.631,892.77C27.941,892.049 28.243,891.326 28.569,890.614C28.847,890.004 29.121,889.407 29.413,888.801C29.459,888.705 29.522,888.616 29.569,888.52C29.879,887.881 30.182,887.247 30.506,886.614C30.517,886.593 30.527,886.572 30.538,886.551C30.603,886.423 30.69,886.304 30.756,886.176C31.076,885.559 31.393,884.942 31.725,884.332C32.089,883.664 32.439,882.994 32.819,882.332C32.83,882.312 32.839,882.29 32.85,882.27C33.243,881.588 33.659,880.913 34.069,880.239C34.481,879.56 34.891,878.906 35.319,878.239C35.327,878.227 35.342,878.219 35.35,878.207C35.773,877.547 36.193,876.888 36.631,876.239C36.644,876.219 36.65,876.196 36.663,876.176C37.088,875.546 37.535,874.921 37.975,874.301C38.424,873.668 38.887,873.049 39.35,872.426C39.381,872.385 39.413,872.343 39.444,872.301C39.908,871.679 40.371,871.037 40.85,870.426C40.882,870.385 40.912,870.342 40.944,870.301C42.422,868.421 43.963,866.633 45.569,864.864C45.584,864.847 45.585,864.818 45.6,864.801C46.126,864.223 46.686,863.649 47.225,863.082C47.24,863.066 47.241,863.036 47.256,863.02C47.806,862.444 48.381,861.896 48.944,861.332C49.517,860.759 50.075,860.174 50.662,859.614C50.689,859.588 50.729,859.577 50.756,859.551C51.323,859.011 51.867,858.482 52.444,857.957C52.482,857.922 52.53,857.899 52.569,857.864C54.41,856.195 56.294,854.613 58.256,853.083C58.791,852.665 59.34,852.238 59.881,851.833C59.995,851.748 60.111,851.667 60.225,851.583C61.405,850.708 62.6,849.844 63.819,849.02C63.9,848.965 63.987,848.919 64.069,848.864C65.242,848.075 66.432,847.316 67.631,846.583C67.747,846.511 67.858,846.435 67.975,846.364C68.484,846.055 68.992,845.757 69.506,845.458C69.695,845.348 69.879,845.223 70.069,845.114C70.367,844.943 70.675,844.782 70.975,844.614C71.47,844.336 71.974,844.07 72.475,843.801C73.075,843.479 73.651,843.173 74.256,842.864C74.359,842.811 74.465,842.76 74.569,842.708C75.188,842.393 75.819,842.071 76.444,841.77C76.537,841.725 76.631,841.69 76.725,841.645C77.362,841.341 77.989,841.029 78.631,840.739C78.712,840.702 78.8,840.681 78.881,840.645C79.545,840.347 80.212,840.053 80.881,839.77C80.941,839.745 81.008,839.733 81.069,839.708C81.768,839.414 82.458,839.11 83.162,838.833C83.193,838.82 83.225,838.813 83.256,838.801C83.982,838.516 84.712,838.225 85.443,837.958C86.109,837.714 86.803,837.5 87.475,837.27C87.55,837.244 87.618,837.202 87.693,837.176C88.44,836.923 89.189,836.694 89.943,836.458C90.006,836.438 90.068,836.415 90.131,836.395C90.72,836.212 91.318,836.037 91.912,835.864C92.007,835.836 92.098,835.798 92.193,835.77C92.955,835.551 93.706,835.347 94.475,835.145C95.228,834.948 95.996,834.763 96.756,834.583C97.504,834.405 98.251,834.212 99.006,834.051C99.525,833.941 100.047,833.841 100.568,833.739C101.056,833.643 101.549,833.546 102.037,833.458C102.172,833.433 102.308,833.419 102.443,833.395C103.13,833.274 103.818,833.159 104.506,833.051C104.652,833.029 104.797,833.011 104.943,832.989C105.528,832.901 106.108,832.817 106.693,832.739C107.109,832.684 107.526,832.633 107.943,832.583C108.445,832.522 108.941,832.479 109.443,832.426C109.537,832.416 109.631,832.405 109.725,832.395C110.173,832.349 110.62,832.31 111.068,832.27C111.689,832.216 112.32,832.157 112.943,832.114C113.575,832.07 114.217,832.022 114.85,831.989C114.996,831.982 115.141,831.965 115.287,831.958C115.823,831.933 116.345,831.943 116.881,831.927C117.122,831.92 117.358,831.901 117.6,831.895C118.4,831.877 119.201,831.864 120.006,831.864L120.007,831.864Z" style="fill:url(#_Linear4);fill-rule:nonzero;"/>
                </g>
            </g>
        </g>
    </g>
    <defs>
        <radialGradient id="_Radial1" cx="0" cy="0" r="1" gradientUnits="userSpaceOnUse" gradientTransform="matrix(65.4074,65.4074,-65.4074,65.4074,120,932.363)"><stop offset="0" style="stop-color:black;stop-opacity:0"/><stop offset="0.88" style="stop-color:black;stop-opacity:0"/><stop offset="0.94" style="stop-color:black;stop-opacity:0.19"/><stop offset="1" style="stop-color:black;stop-opacity:0.39"/></radialGradient>
        <linearGradient id="_Linear2" x1="0" y1="0" x2="1" y2="0" gradientUnits="userSpaceOnUse" gradientTransform="matrix(155.564,155.564,-155.564,155.564,42.2071,854.573)"><stop offset="0" style="stop-color:rgb(80,80,80);stop-opacity:1"/><stop offset="1" style="stop-color:rgb(40,40,40);stop-opacity:1"/></linearGradient>
        <linearGradient id="_Linear3" x1="0" y1="0" x2="1" y2="0" gradientUnits="userSpaceOnUse" gradientTransform="matrix(142.836,142.836,-142.836,142.836,48.5771,860.948)"><stop offset="0" style="stop-color:rgb(17,17,17);stop-opacity:1"/><stop offset="1" style="stop-color:rgb(100,100,100);stop-opacity:1"/></linearGradient>
        <linearGradient id="_Linear4" x1="0" y1="0" x2="1" y2="0" gradientUnits="userSpaceOnUse" gradientTransform="matrix(151.321,151.321,-151.321,151.321,44.352,856.691)"><stop offset="0" style="stop-color:rgb(15,15,15);stop-opacity:1"/><stop offset="1" style="stop-color:rgb(80,80,80);stop-opacity:1"/></linearGradient>
    </defs>
</svg>
