<?xml version="1.0" encoding="UTF-8"?>
<svg xmlns="http://www.w3.org/2000/svg" xmlns:xlink="http://www.w3.org/1999/xlink" width="12pt" height="12pt" viewBox="0 0 12 12" version="1.1">
<g id="surface5847">
<path style=" stroke:none;fill-rule:nonzero;fill:rgb(36.862746%,61.176473%,46.27451%);fill-opacity:1;" d="M 3.75 4.5 L 4.5 4.5 L 4.5 9.75 L 3.75 9.75 Z M 3.75 4.5 "/>
<path style=" stroke:none;fill-rule:nonzero;fill:rgb(36.862746%,61.176473%,46.27451%);fill-opacity:1;" d="M 2.25 6.75 L 3 6.75 L 3 9.75 L 2.25 9.75 Z M 2.25 6.75 "/>
<path style=" stroke:none;fill-rule:nonzero;fill:rgb(36.862746%,61.176473%,46.27451%);fill-opacity:1;" d="M 5.25 8.25 L 6 8.25 L 6 9.75 L 5.25 9.75 Z M 5.25 8.25 "/>
<path style=" stroke:none;fill-rule:nonzero;fill:rgb(36.862746%,61.176473%,46.27451%);fill-opacity:1;" d="M 9.75 3.75 L 10.5 3.75 L 10.5 9.75 L 9.75 9.75 Z M 9.75 3.75 "/>
<path style=" stroke:none;fill-rule:nonzero;fill:rgb(36.862746%,61.176473%,46.27451%);fill-opacity:1;" d="M 11.25 5.25 L 12 5.25 L 12 9.75 L 11.25 9.75 Z M 11.25 5.25 "/>
<path style=" stroke:none;fill-rule:nonzero;fill:rgb(36.862746%,61.176473%,46.27451%);fill-opacity:1;" d="M 8.25 6.75 L 9 6.75 L 9 9.75 L 8.25 9.75 Z M 8.25 6.75 "/>
<path style=" stroke:none;fill-rule:nonzero;fill:rgb(30.588236%,47.843137%,70.980394%);fill-opacity:1;" d="M 6.75 0 L 7.5 0 L 7.5 12 L 6.75 12 Z M 6.75 0 "/>
</g>
</svg>
