<?xml version="1.0" encoding="UTF-8"?>
<svg xmlns="http://www.w3.org/2000/svg" xmlns:xlink="http://www.w3.org/1999/xlink" width="12pt" height="12pt" viewBox="0 0 12 12" version="1.1">
<g id="surface5914">
<path style=" stroke:none;fill-rule:nonzero;fill:rgb(54.509807%,71.764708%,94.117647%);fill-opacity:1;" d="M 6 11.625 C 3.976562 11.625 1.875 10.949219 1.875 6 C 1.875 1.050781 3.976562 0.375 6 0.375 C 8.023438 0.375 10.125 1.050781 10.125 6 C 10.125 10.949219 8.023438 11.625 6 11.625 Z M 6 11.625 "/>
<path style=" stroke:none;fill-rule:nonzero;fill:rgb(30.588236%,47.843137%,70.980394%);fill-opacity:1;" d="M 6 0.75 C 7.800781 0.75 9.75 1.125 9.75 6 C 9.75 8.550781 9.449219 11.25 6 11.25 C 4.199219 11.25 2.25 10.875 2.25 6 C 2.25 3.449219 2.550781 0.75 6 0.75 M 6 0 C 3.300781 0 1.5 1.273438 1.5 6 C 1.5 10.726562 3.300781 12 6 12 C 8.699219 12 10.5 10.726562 10.5 6 C 10.5 1.273438 8.699219 0 6 0 Z M 6 0 "/>
<path style=" stroke:none;fill-rule:nonzero;fill:rgb(100%,100%,100%);fill-opacity:1;" d="M 6.148438 10.5 L 5.25 10.5 L 5.25 7.351562 L 4.425781 8.25 L 3.898438 7.726562 L 5.25 6.226562 L 5.25 5.773438 L 3.824219 4.425781 L 4.351562 3.898438 L 5.25 4.726562 L 5.25 1.5 L 6.148438 1.5 L 8.324219 4.125 L 6.523438 6 L 8.398438 7.875 Z M 6 6.523438 L 6 9.523438 L 7.351562 7.875 Z M 6 5.476562 L 7.351562 4.125 L 6 2.476562 Z M 6 5.476562 "/>
</g>
</svg>
