<?xml version="1.0" encoding="UTF-8" standalone="no"?>
<svg
   width="12pt"
   height="8.25pt"
   viewBox="0 0 12 8.25"
   version="1.1"
   id="svg6"
   xmlns="http://www.w3.org/2000/svg"
   xmlns:svg="http://www.w3.org/2000/svg">
  <defs
     id="defs6" />
  <g
     id="surface15187"
     transform="translate(0,-2.25)">
    <path
       style="fill:#f2faff;fill-opacity:1;fill-rule:nonzero;stroke:none"
       d="m 3.976562,10.125 -0.75,-1.5 H 1.875 v -3 h 1.273438 l 1.5,-1.5 H 10.125 V 8.773438 L 8.101562,10.125 Z"
       id="path1" />
    <path
       style="fill:#8398ab;fill-opacity:1;fill-rule:nonzero;stroke:none"
       d="M 9.75,4.5 V 8.625 L 8.023438,9.75 H 4.199219 L 3.675781,8.699219 3.449219,8.25 H 2.25 V 6 H 3.300781 L 3.523438,5.773438 4.800781,4.5 H 9.75 M 10.5,3.75 h -6 L 3,5.25 H 1.5 V 9 H 3 l 0.75,1.5 h 4.5 L 10.5,9 Z m 0,0"
       id="path2" />
    <path
       style="fill:#8398ab;fill-opacity:1;fill-rule:nonzero;stroke:none"
       d="M 6,2.25 H 7.5 V 4.5 H 6 Z M 6.75,9 7.875,7.125 6.75,6.675781 V 5.25 L 5.625,7.125 6.75,7.5 Z"
       id="path3" />
    <path
       style="fill:#dcd4f0;fill-opacity:1;fill-rule:nonzero;stroke:none"
       d="m 5.25,2.25 h 3 V 3 h -3 z m 0,0"
       id="path4" />
    <path
       style="fill:#8398ab;fill-opacity:1;fill-rule:nonzero;stroke:none"
       d="m 8.25,2.25 h -3 V 3 h 3 z M 9.75,6 h 1.5 v 1.5 h -1.5 z m 1.5,-1.5 H 12 V 9 H 11.25 Z M 0.75,6 h 1.5 v 1.5 h -1.5 z m 0,0"
       id="path5" />
    <path
       style="fill:#8398ab;fill-opacity:1;fill-rule:nonzero;stroke:none"
       d="m 0,5.25 h 0.75 v 3 H 0 Z m 0,0"
       id="path6" />
  </g>
</svg>
