<?xml version="1.0" encoding="UTF-8"?>
<svg xmlns="http://www.w3.org/2000/svg" xmlns:xlink="http://www.w3.org/1999/xlink" width="12pt" height="12pt" viewBox="0 0 12 12" version="1.1">
<g id="surface10749">
<path style=" stroke:none;fill-rule:nonzero;fill:rgb(88.235295%,92.156863%,94.901961%);fill-opacity:1;" d="M 1.125 1.125 L 10.875 1.125 L 10.875 10.875 L 1.125 10.875 Z M 1.125 1.125 "/>
<path style=" stroke:none;fill-rule:nonzero;fill:rgb(40.000001%,47.450981%,56.078434%);fill-opacity:1;" d="M 10.5 1.5 L 10.5 10.5 L 1.5 10.5 L 1.5 1.5 L 10.5 1.5 M 11.25 0.75 L 0.75 0.75 L 0.75 11.25 L 11.25 11.25 Z M 11.25 0.75 "/>
<path style=" stroke:none;fill-rule:nonzero;fill:rgb(40.000001%,47.450981%,56.078434%);fill-opacity:1;" d="M 9 7.5 L 3 7.5 L 3 3.75 L 9 3.75 Z M 9 7.5 "/>
<path style=" stroke:none;fill-rule:nonzero;fill:rgb(40.000001%,47.450981%,56.078434%);fill-opacity:1;" d="M 7.5 8.25 L 4.5 8.25 L 4.5 6.75 L 7.5 6.75 Z M 7.5 8.25 "/>
<path style=" stroke:none;fill-rule:nonzero;fill:rgb(100%,93.333334%,63.921571%);fill-opacity:1;" d="M 7.5 4.5 L 8.25 4.5 L 8.25 5.25 L 7.5 5.25 Z M 3.75 4.5 L 4.5 4.5 L 4.5 5.25 L 3.75 5.25 Z M 5.25 4.5 L 6.75 4.5 L 6.75 5.25 L 5.25 5.25 Z M 5.25 4.5 "/>
</g>
</svg>
