<?xml version="1.0" encoding="UTF-8"?>
<svg xmlns="http://www.w3.org/2000/svg" xmlns:xlink="http://www.w3.org/1999/xlink" width="12pt" height="12pt" viewBox="0 0 12 12" version="1.1">
<g id="surface353">
<path style=" stroke:none;fill-rule:nonzero;fill:rgb(69.01961%,75.686276%,83.137256%);fill-opacity:1;" d="M 4.875 8.625 L 7.125 8.625 L 7.125 10.875 L 4.875 10.875 Z M 4.875 8.625 "/>
<path style=" stroke:none;fill-rule:nonzero;fill:rgb(40.000001%,47.450981%,56.078434%);fill-opacity:1;" d="M 6.75 9 L 6.75 10.5 L 5.25 10.5 L 5.25 9 L 6.75 9 M 7.5 8.25 L 4.5 8.25 L 4.5 11.25 L 7.5 11.25 Z M 7.5 8.25 "/>
<path style=" stroke:none;fill-rule:nonzero;fill:rgb(85.09804%,94.901961%,100%);fill-opacity:1;" d="M 0.375 1.125 L 11.625 1.125 L 11.625 9.375 L 0.375 9.375 Z M 0.375 1.125 "/>
<path style=" stroke:none;fill-rule:nonzero;fill:rgb(40.000001%,47.450981%,56.078434%);fill-opacity:1;" d="M 11.25 1.5 L 11.25 9 L 0.75 9 L 0.75 1.5 L 11.25 1.5 M 12 0.75 L 0 0.75 L 0 9.75 L 12 9.75 Z M 12 0.75 "/>
<path style=" stroke:none;fill-rule:nonzero;fill:rgb(40.000001%,47.450981%,56.078434%);fill-opacity:1;" d="M 0 8.25 L 12 8.25 L 12 9.75 L 0 9.75 Z M 9 11.25 L 3 11.25 C 3 10.875 3.300781 10.5 3.75 10.5 L 8.25 10.5 C 8.699219 10.5 9 10.800781 9 11.25 Z M 9 11.25 "/>
<path style=" stroke:none;fill-rule:nonzero;fill:rgb(100%,93.333334%,63.921571%);fill-opacity:1;" d="M 9.75 8.25 L 10.5 8.25 L 10.5 9 L 9.75 9 Z M 9.75 8.25 "/>
<path style=" stroke:none;fill-rule:nonzero;fill:rgb(30.588236%,47.843137%,70.980394%);fill-opacity:1;" d="M 7.125 7.5 L 4.875 3.75 L 3.976562 5.25 L 0.75 5.25 L 0.75 4.5 L 3.523438 4.5 L 4.875 2.25 L 7.125 6 L 8.023438 4.5 L 11.25 4.5 L 11.25 5.25 L 8.476562 5.25 Z M 7.125 7.5 "/>
</g>
</svg>
