<?xml version="1.0" encoding="UTF-8" standalone="no"?>
<svg
   width="10.5pt"
   height="10.5pt"
   viewBox="0 0 10.5 10.5"
   version="1.1"
   id="svg5"
   xmlns="http://www.w3.org/2000/svg"
   xmlns:svg="http://www.w3.org/2000/svg">
  <defs
     id="defs5" />
  <g
     id="surface10663"
     transform="translate(-0.75,-0.75)">
    <path
       style="fill:#f5c275;fill-opacity:1;fill-rule:nonzero;stroke:none"
       d="m 0.75,3.75 h 10.5 V 4.5 H 0.75 Z m 0,-1.5 h 10.5 V 3 H 0.75 Z m 0,3 h 10.5 V 6 H 0.75 Z m 0,1.5 h 10.5 V 7.5 H 0.75 Z m 0,1.5 h 10.5 V 9 H 0.75 Z m 0,1.5 h 10.5 V 10.5 H 0.75 Z m 0,0"
       id="path1" />
    <path
       style="fill:#e1ebf2;fill-opacity:1;fill-rule:nonzero;stroke:none"
       d="m 3,10.875 c -0.207031,0 -0.375,-0.167969 -0.375,-0.375 v -9 C 2.625,1.292969 2.792969,1.125 3,1.125 h 6 c 0.207031,0 0.375,0.167969 0.375,0.375 v 9 c 0,0.207031 -0.167969,0.375 -0.375,0.375 z m 0,0"
       id="path2" />
    <path
       style="fill:#66798f;fill-opacity:1;fill-rule:nonzero;stroke:none"
       d="m 9,1.5 v 9 H 3 v -9 H 9 M 9,0.75 H 3 C 2.585938,0.75 2.25,1.085938 2.25,1.5 v 9 c 0,0.414062 0.335938,0.75 0.75,0.75 h 6 c 0.414062,0 0.75,-0.335938 0.75,-0.75 v -9 C 9.75,1.085938 9.414062,0.75 9,0.75 Z"
       id="path3" />
    <path
       style="fill:#4a6375;fill-opacity:1;fill-rule:nonzero;stroke:none"
       d="M 4.5,2.625 C 4.292969,2.625 4.125,2.792969 4.125,3 4.125,3.207031 4.292969,3.375 4.5,3.375 4.707031,3.375 4.875,3.207031 4.875,3 4.875,2.792969 4.707031,2.625 4.5,2.625 Z m 0,0"
       id="path4" />
    <path
       style="fill:#66798f;fill-opacity:1;fill-rule:nonzero;stroke:none"
       d="M 4.5,2.25 C 4.085938,2.25 3.75,2.585938 3.75,3 3.75,3.414062 4.085938,3.75 4.5,3.75 4.914062,3.75 5.25,3.414062 5.25,3 5.25,2.585938 4.914062,2.25 4.5,2.25 Z"
       id="path5" />
  </g>
</svg>
