<?xml version="1.0" encoding="UTF-8"?>
<svg width="1024pt" height="1024pt" version="1.0" viewBox="0 0 1024 1024" xmlns="http://www.w3.org/2000/svg">
<g transform="translate(0 1024) scale(.1 -.1)">
<path d="m2880 9229c-388-21-643-77-885-194-351-170-621-439-790-789-118-244-171-484-195-891-14-233-13-4253 0-4480 25-407 75-635 195-880 170-350 405-592 747-769 216-113 409-166 728-203 144-17 312-18 2440-18 2510 0 2407-2 2716 60 294 59 579 201 803 398 273 241 468 590 540 967 56 291 55 214 59 2540 4 2460 1 2562-69 2889-94 434-350 814-709 1053-311 207-602 289-1125 318-214 11-4238 11-4455-1zm1287-3006c44-126 201-573 349-995 147-423 271-768 274-768s161 424 350 943c189 518 352 966 363 995l20 52h198c110 0 199-2 199-4 0-3 526-1477 687-1924 14-40 27-71 29-69 3 3 349 967 646 1800l71 197 206-2 206-3 200-582 200-583h173 172v-150-150h-324-323l-153 378c-84 207-158 388-165 401-11 22-15 15-53-90-23-63-187-512-365-999l-324-885h-168-168l-112 295c-62 162-231 606-375 985-144 380-265 696-270 704-4 8-22-29-48-100-23-63-188-512-365-999l-324-885-174-3-175-2-206 552c-114 304-282 755-374 1001-91 246-168 446-170 444-4-3-456-1212-666-1780l-81-217-175 2-175 3-216 597-216 598h-307-308v150 150l467-2 467-3 145-407c79-225 148-408 152-408 3 0 21 42 39 93 58 167 660 1851 670 1875 9 22 12 22 213 22h204l80-227z" fill="#f9f9f9"/>
</g>
<path transform="scale(.75)" d="m342.11 779.76-28.871-80.048-82.567-0.0228v-37.453h123.55l16.851 47.242c20.284 56.866 22.679 62.755 24.695 60.716 0.84718-0.85662 22.306-59.78 47.687-130.94 26.46-74.186 47.367-130.31 49.006-131.55 2.0828-1.582 9.5103-2.0441 27.367-1.7024l24.509 0.46892 24.488 69.799c69.589 198.36 68.626 195.71 70.549 193.79 1.4181-1.4181 36.459-95.831 77.485-208.77l20.285-55.843 24.974 0.51497c13.735 0.28323 25.441 0.98448 26.012 1.5583 0.57121 0.57386 22.063 59.887 47.76 131.81 25.697 71.92 47.36 131.4 48.14 132.18 1.2937 1.2937 11.237-25.707 75.973-206.3l21.054-58.733 25.302 0.42442c13.916 0.23344 26.126 0.73264 27.133 1.1094 1.007 0.3767 13.647 35.231 28.09 77.455l26.259 76.77 46.816 0.012v37.453l-85.972-0.0452-20.291-50.137c-11.16-27.575-20.895-51.116-21.635-52.312-0.9204-1.4892-1.8961-1.6234-3.0939-0.42561-0.9622 0.96226-22.763 59.178-48.447 129.37s-47.227 128.96-47.873 130.6c-1.0337 2.619-3.7872 2.9792-22.774 2.9792h-21.598l-47.423-124.7c-51.702-135.95-52.973-139.17-54.944-139.17-1.7537 0-2.643 2.3534-54.213 143.47l-44.032 120.49-45.641-0.94254-2.9289-7.6608c-1.6109-4.2135-23.875-63.777-49.475-132.36-25.6-68.586-47.038-124.7-47.639-124.7-0.60118 0-18.602 46.923-40.001 104.27-21.4 57.35-43.641 116.91-49.425 132.36l-10.516 28.09-45.748 0.94266z" fill="none"/>
<path transform="scale(.75)" d="m370.93 857.16c-0.33689-0.93633-13.172-36.559-28.523-79.162l-27.91-77.46-83.82-0.91069v-37.436l122.91 0.89367 10.885 30.643c23.919 67.335 29.274 80.31 31.927 77.358 0.37078-0.41244 9.5379-25.265 20.371-55.227 10.834-29.962 29.254-80.907 40.934-113.21 11.68-32.303 24.422-66.969 28.314-77.034l7.0768-18.301h50.364l3.5527 9.7889c1.954 5.3839 19.974 56.52 40.045 113.64 43.999 125.21 49.13 139.17 51.411 139.92 2.0061 0.6547 33.702-82.284 32.307-84.54-0.49632-0.80306-0.16973-1.717 0.72584-2.0311 1.3684-0.47988 25.696-65.548 58.452-156.34 7.6088-21.09 7.7246-21.279 12.965-21.186 2.908 0.052 14.006 0.24354 24.661 0.42561l19.374 0.33102 7.1532 19.152c3.9343 10.534 23.129 63.585 42.656 117.89 47.998 133.49 46.674 130.1 49.081 125.61 4.0546-7.5761 12.03-29.979 11.169-31.372-0.49418-0.79957-0.17654-1.4538 0.70583-1.4538 0.88238 0 1.9968-1.3406 2.4765-2.9792 0.86672-2.9606 73.823-205.78 78.997-219.61l2.7063-7.2352h18.258c10.042 0 21.67 0.46774 25.841 1.0394l7.5833 1.0394 4.8517 13.005c2.6685 7.153 14.611 41.351 26.539 75.995l21.687 62.989 47.994 0.94469v37.418l-85.343-0.90966-18.35-45.114c-24.206-59.511-23.471-57.882-26.118-57.882-1.9961 0-6.9784 11.046-8.447 18.727-0.26852 1.4045-0.93883 2.9367-1.4896 3.4048-0.98279 0.83543-29.182 76.626-68.829 184.99l-20.033 54.756-17.206 1.1727c-9.4634 0.64498-19.003 0.90276-21.199 0.57283-3.6145-0.54307-8.3893-12.123-50.437-122.32-57.82-151.54-53.739-141.3-56.335-141.3-3.0313 0-4.6645 4.2977-77.934 205.08l-21.101 57.825-21.93-0.52363c-12.062-0.288-22.175-0.76258-22.475-1.0546-0.29952-0.29207-21.086-55.189-46.191-121.99-53.659-142.78-52.986-141.04-54.52-141.04-1.8286 0-5.3162 8.5589-4.2142 10.342 0.53532 0.86616 0.25136 1.5748-0.63101 1.5748-0.88238 0-2.0124 1.3406-2.5112 2.9792-1.6157 5.3076-92.803 247.52-93.398 248.09-1.6012 1.518-44.488 1.5546-45.034 0.0385z" fill="none"/>
<path transform="scale(.75)" d="m374.53 856.42c-2.6537-1.0772-9.5966-18.569-31.378-79.054l-27.971-77.671h-84.502v-37.938l10.464 1.0937c5.7553 0.60154 33.228 1.0937 61.051 1.0937h50.587l15.793 43.837c16.721 46.414 24.407 65.117 26.76 65.117 1.5846 0 7.3413-15.376 54.815-146.41 17.81-49.157 34.926-95.888 38.036-103.85l5.6547-14.47h49.088l29.365 83.418c49.193 139.75 58.822 166.56 62.315 173.55 3.1651 6.3332 3.4925 6.5324 5.7227 3.4823 2.7426-3.7506 19.864-47.082 27.849-70.482 3.0068-8.811 8.9074-24.899 13.112-35.751 4.205-10.852 18.004-48.076 30.664-82.72 12.66-34.644 24.113-65.117 25.45-67.718l2.4305-4.7292 46.604 0.9464 14.829 40.858c8.156 22.472 29.104 80.311 46.552 128.53 17.448 48.221 32.915 89.521 34.372 91.779l2.6491 4.1047 2.2718-4.1047c1.2495-2.2576 4.3176-10.233 6.818-17.724 2.5004-7.4906 5.1238-14.385 5.8297-15.322 0.70594-0.93632 13.366-35.41 28.134-76.608 14.768-41.198 33.11-92.143 40.762-113.21l13.911-38.304 21.994 0.48649c12.096 0.26756 23.526 0.81153 25.398 1.2088 3.3505 0.7108 10.133 18.966 48.847 131.47l7.1607 20.81 47.84 0.94054 0.9712 37.081-7.9584-1.0908c-4.3772-0.59996-23.473-1.0908-42.436-1.0908h-34.477l-2.8821-7.2352c-1.5851-3.9794-10.954-26.962-20.82-51.072-19.856-48.526-21.495-50.69-27.073-35.751-1.6605 4.4476-7.7136 20.344-13.451 35.325-5.7378 14.981-26.084 69.905-45.215 122.05-28.189 76.84-35.428 94.988-38.187 95.737-1.8726 0.50825-10.77 0.93457-19.771 0.94735l-16.366 0.0233-4.3622-9.7889c-6.5934-14.796-15.181-36.769-51.248-131.13-51.814-135.56-47.909-126.71-52.657-119.32-3.131 4.8698-48.379 126.44-95.209 255.81l-1.7852 4.9315-21.288-1.0789c-11.708-0.59341-21.459-1.2804-21.668-1.5267-0.20911-0.24625-21.614-56.755-47.567-125.57-54.16-143.62-51.236-136.19-53.624-136.19-1.0042 0-2.6756 2.1067-3.7142 4.6816-1.0386 2.5749-2.94 6.9799-4.2253 9.7889-1.8331 4.0062-73.271 193.65-89.554 237.73-3.2508 8.8014-4.0642 9.6959-9.6584 10.621-8.6947 1.4383-31.016 1.0874-35.053-0.55111z" fill-opacity="0" stroke-width="1.7024"/>
<path transform="scale(.75)" d="m374.5 856.41c-2.6854-1.0894-9.5059-18.274-31.377-79.054l-27.945-77.662h-84.505l-5.1e-4 -18.301-5e-4 -18.301 60.862 0.58454c33.474 0.3215 61.076 0.79128 61.338 1.044 0.26207 0.25268 6.5105 17.227 13.885 37.72 17.494 48.613 23.52 64.129 26.436 68.075 2.2399 3.0311 2.5994 2.7536 5.7367-4.4272 1.8409-4.2135 21.403-57.456 43.471-118.32 22.068-60.861 42.668-117.17 45.778-125.13l5.6546-14.47h49.05l43.633 123.42c23.998 67.884 45.348 127.26 47.445 131.94 3.6083 8.0567 3.9437 8.334 6.2704 5.1847 2.8094-3.8028 19.803-46.724 27.942-70.575 3.0068-8.811 8.7474-24.516 12.757-34.899 4.0095-10.384 17.814-47.608 30.678-82.72s24.464-65.947 25.78-68.522l2.3926-4.6816h22.838c12.561 0 23.278 0.71169 23.816 1.5815 0.53758 0.86984 19.641 53.155 42.453 116.19 57.607 159.18 54.371 151.19 58.306 144.09 1.203-2.1701 3.8458-8.9252 5.873-15.011 2.0272-6.0861 5.0366-14.13 6.6875-17.875 1.651-3.7453 20.248-54.69 41.327-113.21 21.079-58.52 39.168-108.57 40.199-111.21l1.8729-4.8118 21.698 1.0747c11.934 0.59109 23.231 1.3827 25.103 1.7592 3.4072 0.68501 5.7238 6.912 49.217 132.3l6.9233 19.959 47.707 0.93973 0.9712 37.081-7.9584-1.0908c-4.3772-0.59996-23.449-1.0908-42.382-1.0908h-34.424l-17.531-42.986c-20.451-50.147-24.708-59.159-27.947-59.159-1.3113 0-3.7275 3.6389-5.3693 8.0864-1.6418 4.4476-5.2071 13.798-7.9228 20.778-5.0776 13.052-43.747 117.45-70.338 189.9-8.2483 22.472-15.813 41.421-16.812 42.109-0.9981 0.68791-9.9455 1.2625-19.883 1.2768l-18.068 0.0261-4.3622-9.7889c-6.6479-14.918-15.115-36.6-54.191-138.78-39.264-102.67-44.816-116.09-47.365-114.52-3.3681 2.0816-13.663 29.13-73.887 194.13-12.645 34.644-23.513 64.33-24.152 65.968-1.2858 3.2985-11.995 3.9074-33.309 1.894l-11.232-1.061-3.5095-9.5669c-5.7851-15.77-88.282-233.6-91.921-242.72-4.0185-10.065-6.4971-11.39-9.1502-4.8921-1.0814 2.6484-2.9373 7.1136-4.1244 9.9226-1.187 2.809-21.465 56.435-45.063 119.17-23.597 62.734-44.105 117.24-45.573 121.12-2.2927 6.0676-3.5244 7.2033-8.7495 8.0677-8.6924 1.4381-30.998 1.079-35.049-0.56428z" fill="none" stroke-width="1.7024"/>
<path transform="scale(.75)" d="m374.5 856.41c-2.6854-1.0894-9.5059-18.274-31.377-79.054l-27.945-77.662h-84.505l-5.1e-4 -18.301-5e-4 -18.301 60.862 0.58454c33.474 0.3215 61.076 0.79128 61.338 1.044 0.26207 0.25268 6.5105 17.227 13.885 37.72 17.494 48.613 23.52 64.129 26.436 68.075 2.2399 3.0311 2.5994 2.7536 5.7367-4.4272 1.8409-4.2135 21.403-57.456 43.471-118.32 22.068-60.861 42.668-117.17 45.778-125.13l5.6546-14.47h49.05l43.633 123.42c23.998 67.884 45.348 127.26 47.445 131.94 3.6083 8.0567 3.9437 8.334 6.2704 5.1847 2.8094-3.8028 19.803-46.724 27.942-70.575 3.0068-8.811 8.7474-24.516 12.757-34.899 4.0095-10.384 17.814-47.608 30.678-82.72s24.464-65.947 25.78-68.522l2.3926-4.6816h22.838c12.561 0 23.278 0.71169 23.816 1.5815 0.53758 0.86984 19.641 53.155 42.453 116.19 57.607 159.18 54.371 151.19 58.306 144.09 1.203-2.1701 3.8458-8.9252 5.873-15.011 2.0272-6.0861 5.0366-14.13 6.6875-17.875 1.651-3.7453 20.248-54.69 41.327-113.21 21.079-58.52 39.168-108.57 40.199-111.21l1.8729-4.8118 21.698 1.0747c11.934 0.59109 23.231 1.3827 25.103 1.7592 3.4072 0.68501 5.7238 6.912 49.217 132.3l6.9233 19.959 47.707 0.93973 0.9712 37.081-7.9584-1.0908c-4.3772-0.59996-23.449-1.0908-42.382-1.0908h-34.424l-17.531-42.986c-20.451-50.147-24.708-59.159-27.947-59.159-1.3113 0-3.7275 3.6389-5.3693 8.0864-1.6418 4.4476-5.2071 13.798-7.9228 20.778-5.0776 13.052-43.747 117.45-70.338 189.9-8.2483 22.472-15.813 41.421-16.812 42.109-0.9981 0.68791-9.9455 1.2625-19.883 1.2768l-18.068 0.0261-4.3622-9.7889c-6.6479-14.918-15.115-36.6-54.191-138.78-39.264-102.67-44.816-116.09-47.365-114.52-3.3681 2.0816-13.663 29.13-73.887 194.13-12.645 34.644-23.513 64.33-24.152 65.968-1.2858 3.2985-11.995 3.9074-33.309 1.894l-11.232-1.061-3.5095-9.5669c-5.7851-15.77-88.282-233.6-91.921-242.72-4.0185-10.065-6.4971-11.39-9.1502-4.8921-1.0814 2.6484-2.9373 7.1136-4.1244 9.9226-1.187 2.809-21.465 56.435-45.063 119.17-23.597 62.734-44.105 117.24-45.573 121.12-2.2927 6.0676-3.5244 7.2033-8.7495 8.0677-8.6924 1.4381-30.998 1.079-35.049-0.56428z" fill="none" stroke-width="1.7024"/>
</svg>
