<?xml version="1.0" encoding="UTF-8" standalone="no"?>
<svg
   xmlns:dc="http://purl.org/dc/elements/1.1/"
   xmlns:cc="http://creativecommons.org/ns#"
   xmlns:rdf="http://www.w3.org/1999/02/22-rdf-syntax-ns#"
   xmlns:svg="http://www.w3.org/2000/svg"
   xmlns="http://www.w3.org/2000/svg"
   xmlns:sodipodi="http://sodipodi.sourceforge.net/DTD/sodipodi-0.dtd"
   xmlns:inkscape="http://www.inkscape.org/namespaces/inkscape"
   version="1.0"
   width="914.25946"
   height="251.09822"
   viewBox="0 0 9142.5946 2510.9822"
   preserveAspectRatio="xMidYMid meet"
   id="svg48"
   sodipodi:docname="logo_transparent.svg"
   inkscape:version="1.0.1 (c497b03c, 2020-09-10)">
  <metadata
     id="metadata54">
    <rdf:RDF>
      <cc:Work
         rdf:about="">
        <dc:format>image/svg+xml</dc:format>
        <dc:type
           rdf:resource="http://purl.org/dc/dcmitype/StillImage" />
        <dc:title></dc:title>
      </cc:Work>
    </rdf:RDF>
  </metadata>
  <defs
     id="defs52" />
  <sodipodi:namedview
     pagecolor="#ffffff"
     bordercolor="#666666"
     borderopacity="1"
     objecttolerance="10"
     gridtolerance="10"
     guidetolerance="10"
     inkscape:pageopacity="0"
     inkscape:pageshadow="2"
     inkscape:window-width="1074"
     inkscape:window-height="744"
     id="namedview50"
     showgrid="false"
     fit-margin-top="0"
     fit-margin-left="0"
     fit-margin-right="0"
     fit-margin-bottom="0"
     inkscape:zoom="0.67833333"
     inkscape:cx="503.41024"
     inkscape:cy="163"
     inkscape:window-x="0"
     inkscape:window-y="23"
     inkscape:window-maximized="0"
     inkscape:current-layer="svg48" />
  <g
     id="layer101"
     fill="#5da0a2"
     stroke="none"
     transform="translate(-965.89759,-4370)">
    <path
       d="m 1975,6855 c -51,-50 -21,-147 49,-161 97,-18 160,107 85,169 -33,27 -104,23 -134,-8 z"
       id="path10" />
    <path
       d="m 2555,6826 c -67,-67 -22,-166 75,-166 39,0 90,47 90,84 0,88 -106,141 -165,82 z"
       id="path12" />
    <path
       d="m 1455,6626 c -13,-13 -27,-36 -31,-50 -15,-62 46,-124 111,-112 77,15 109,113 52,162 -39,33 -99,33 -132,0 z"
       id="path14" />
    <path
       d="m 3045,6535 c -60,-59 -12,-165 73,-165 33,0 45,6 66,31 30,35 33,67 11,109 -19,36 -43,50 -90,50 -25,0 -43,-8 -60,-25 z"
       id="path16" />
    <path
       d="m 1096,6179 c -36,-43 -35,-91 3,-130 22,-21 39,-29 66,-29 27,0 44,8 66,29 38,39 39,87 3,130 -21,26 -33,31 -69,31 -36,0 -48,-5 -69,-31 z"
       id="path18" />
    <path
       d="m 1003,5645 c -34,-24 -47,-76 -29,-118 17,-41 41,-57 88,-57 67,0 110,60 88,124 -14,45 -44,66 -90,66 -20,0 -45,-7 -57,-15 z"
       id="path20" />
    <path
       d="m 1173,5106 c -37,-31 -46,-69 -28,-113 13,-31 59,-63 90,-63 30,0 72,29 85,59 25,61 -12,123 -81,136 -29,5 -41,2 -66,-19 z"
       id="path22" />
    <path
       d="m 3163,4998 c -33,-16 -57,-74 -46,-111 24,-86 152,-92 184,-9 31,82 -57,159 -138,120 z"
       id="path24" />
    <path
       d="m 1592,4720 c -30,-13 -57,-70 -48,-105 19,-77 111,-101 168,-45 26,27 30,36 25,67 -11,67 -84,109 -145,83 z"
       id="path26" />
    <path
       d="m 2689,4631 c -56,-57 -27,-145 53,-158 46,-7 84,15 102,59 41,96 -80,174 -155,99 z"
       id="path28" />
    <path
       d="m 2127,4540 c -69,-55 -25,-170 65,-170 39,0 85,35 93,70 19,88 -88,155 -158,100 z"
       id="path30" />
  </g>
  <g
     id="layer102"
     fill="#f4f7f7"
     stroke="none"
     transform="translate(-965.89759,-4370)">
    <path
       d="m 6085,6579 c -78,-11 -176,-60 -215,-107 -29,-35 -59,-107 -48,-117 2,-3 40,-9 84,-15 43,-6 90,-12 104,-14 21,-4 28,2 43,34 24,52 71,80 133,80 63,0 106,-26 136,-82 19,-37 23,-62 26,-173 l 4,-130 -30,40 c -62,85 -129,118 -241,118 -151,0 -241,-79 -286,-250 -21,-78 -21,-288 -1,-366 35,-129 110,-221 203,-248 109,-32 249,-1 301,67 13,16 32,40 42,54 l 19,25 1,-62 c 0,-96 -3,-93 116,-93 h 104 v 428 c -1,444 -7,544 -38,616 -24,52 -74,111 -123,142 -74,46 -219,70 -334,53 z m 173,-539 c 22,-14 43,-40 60,-78 25,-53 27,-66 27,-192 0,-128 -1,-138 -28,-187 -71,-137 -222,-130 -283,12 -40,93 -26,326 23,401 41,63 136,84 201,44 z"
       id="path33" />
    <path
       d="m 3765,6239 c -163,-17 -281,-95 -341,-223 -28,-61 -30,-86 -6,-86 9,-1 59,-7 110,-14 l 93,-13 16,39 c 19,47 79,101 132,116 49,15 149,15 207,1 63,-16 104,-65 104,-125 0,-89 -51,-126 -249,-179 -74,-19 -163,-49 -199,-66 -129,-62 -189,-158 -180,-288 6,-82 33,-136 92,-188 149,-132 501,-133 635,-3 53,52 120,188 94,191 -5,0 -55,6 -112,12 l -105,12 -26,-49 c -34,-67 -89,-96 -177,-96 -113,0 -173,44 -173,127 0,67 41,104 156,138 250,75 289,90 348,130 49,33 68,54 94,106 32,60 34,69 30,144 -5,96 -39,168 -103,221 -95,77 -262,113 -440,93 z"
       id="path35" />
    <path
       d="m 4620,6155 v -75 h 160 160 v -295 -295 h -115 -115 v -75 -75 h 230 230 v 370 370 h 145 145 v 75 75 h -420 -420 z"
       id="path37" />
    <path
       d="m 7010,5675 v -555 h 115 115 l 2,463 3,462 253,3 252,2 v 90 90 h -370 -370 z"
       id="path39" />
    <path
       d="m 8002,6211 c 2,-11 82,-261 178,-555 l 175,-536 140,3 139,2 178,545 c 98,300 178,548 178,553 0,4 -52,7 -115,7 h -114 l -21,-72 c -12,-40 -29,-100 -38,-133 l -18,-60 -190,-3 -190,-2 -38,135 -39,135 h -114 c -108,0 -114,-1 -111,-19 z m 628,-438 c 0,-3 -25,-94 -54,-202 -30,-108 -60,-218 -67,-244 -6,-26 -13,-46 -15,-44 -6,5 -134,473 -134,486 0,7 46,11 135,11 74,0 135,-3 135,-7 z"
       id="path41" />
    <path
       d="m 9260,5674 v -556 l 268,4 c 219,4 277,8 321,22 72,23 119,56 153,107 33,50 42,90 36,169 -7,104 -72,177 -193,216 -15,5 -5,10 37,20 162,38 242,142 224,292 -19,157 -124,251 -308,272 -45,6 -185,10 -310,10 h -228 z m 539,358 c 66,-35 92,-140 55,-218 -28,-59 -76,-76 -231,-82 l -133,-5 v 162 161 h 138 c 114,0 143,-3 171,-18 z m -39,-499 c 36,-33 51,-87 39,-140 -4,-22 -21,-50 -39,-65 -29,-27 -34,-28 -150,-28 h -120 v 130 130 h 120 c 116,0 121,-1 150,-27 z"
       id="path43" />
    <path
       d="m 4940,5095 v -85 h 115 115 v 85 85 h -115 -115 z"
       id="path45" />
  </g>
</svg>
