<?xml version="1.0" encoding="UTF-8"?>
<svg xmlns="http://www.w3.org/2000/svg" xmlns:xlink="http://www.w3.org/1999/xlink" width="60pt" height="60pt" viewBox="0 0 60 60" version="1.1">
<g id="surface583">
<path style=" stroke:none;fill-rule:nonzero;fill:rgb(100%,93.333334%,63.921571%);fill-opacity:1;" d="M 9.375 1.875 L 50.625 1.875 L 50.625 54.375 L 9.375 54.375 Z M 9.375 1.875 "/>
<path style=" stroke:none;fill-rule:nonzero;fill:rgb(72.941178%,60.784316%,28.235295%);fill-opacity:1;" d="M 48.75 3.75 L 48.75 52.5 L 11.25 52.5 L 11.25 3.75 L 48.75 3.75 M 52.5 0 L 7.5 0 L 7.5 56.25 L 52.5 56.25 Z M 52.5 0 "/>
<path style=" stroke:none;fill-rule:nonzero;fill:rgb(72.941178%,60.784316%,28.235295%);fill-opacity:1;" d="M 35.625 7.5 L 30 7.5 L 26.25 3.75 L 35.625 3.75 Z M 35.625 7.5 "/>
<path style=" stroke:none;fill-rule:nonzero;fill:rgb(72.941178%,60.784316%,28.235295%);fill-opacity:1;" d="M 35.625 3.75 C 34.589844 3.75 33.75 4.589844 33.75 5.625 C 33.75 6.660156 34.589844 7.5 35.625 7.5 C 36.660156 7.5 37.5 6.660156 37.5 5.625 C 37.5 4.589844 36.660156 3.75 35.625 3.75 Z M 24.375 11.25 L 30 11.25 L 33.75 7.5 L 24.375 7.5 Z M 24.375 11.25 "/>
<path style=" stroke:none;fill-rule:nonzero;fill:rgb(72.941178%,60.784316%,28.235295%);fill-opacity:1;" d="M 24.375 7.5 C 23.339844 7.5 22.5 8.339844 22.5 9.375 C 22.5 10.410156 23.339844 11.25 24.375 11.25 C 25.410156 11.25 26.25 10.410156 26.25 9.375 C 26.25 8.339844 25.410156 7.5 24.375 7.5 Z M 35.625 15 L 30 15 L 26.25 11.25 L 35.625 11.25 Z M 35.625 15 "/>
<path style=" stroke:none;fill-rule:nonzero;fill:rgb(72.941178%,60.784316%,28.235295%);fill-opacity:1;" d="M 35.625 11.25 C 34.589844 11.25 33.75 12.089844 33.75 13.125 C 33.75 14.160156 34.589844 15 35.625 15 C 36.660156 15 37.5 14.160156 37.5 13.125 C 37.5 12.089844 36.660156 11.25 35.625 11.25 Z M 24.375 18.75 L 30 18.75 L 33.75 15 L 24.375 15 Z M 24.375 18.75 "/>
<path style=" stroke:none;fill-rule:nonzero;fill:rgb(72.941178%,60.784316%,28.235295%);fill-opacity:1;" d="M 24.375 15 C 23.339844 15 22.5 15.839844 22.5 16.875 C 22.5 17.910156 23.339844 18.75 24.375 18.75 C 25.410156 18.75 26.25 17.910156 26.25 16.875 C 26.25 15.839844 25.410156 15 24.375 15 Z M 35.625 22.5 L 30 22.5 L 26.25 18.75 L 35.625 18.75 Z M 35.625 22.5 "/>
<path style=" stroke:none;fill-rule:nonzero;fill:rgb(72.941178%,60.784316%,28.235295%);fill-opacity:1;" d="M 35.625 18.75 C 34.589844 18.75 33.75 19.589844 33.75 20.625 C 33.75 21.660156 34.589844 22.5 35.625 22.5 C 36.660156 22.5 37.5 21.660156 37.5 20.625 C 37.5 19.589844 36.660156 18.75 35.625 18.75 Z M 24.375 26.25 L 30 26.25 L 33.75 22.5 L 24.375 22.5 Z M 24.375 26.25 "/>
<path style=" stroke:none;fill-rule:nonzero;fill:rgb(72.941178%,60.784316%,28.235295%);fill-opacity:1;" d="M 24.375 22.5 C 23.339844 22.5 22.5 23.339844 22.5 24.375 C 22.5 25.410156 23.339844 26.25 24.375 26.25 C 25.410156 26.25 26.25 25.410156 26.25 24.375 C 26.25 23.339844 25.410156 22.5 24.375 22.5 Z M 30.777344 26.25 L 29.222656 26.25 C 27.472656 26.25 25.957031 27.453125 25.570312 29.164062 C 25.035156 31.535156 24.375 34.640625 24.375 35.625 C 24.375 38.730469 26.894531 41.25 30 41.25 C 33.105469 41.25 35.625 38.730469 35.625 35.625 C 35.625 34.640625 34.964844 31.535156 34.429688 29.164062 C 34.042969 27.453125 32.527344 26.25 30.777344 26.25 Z M 30 37.5 C 28.773438 37.5 27.78125 36.507812 27.78125 35.28125 L 32.21875 35.28125 C 32.21875 36.507812 31.226562 37.5 30 37.5 Z M 30 37.5 "/>
<path style=" stroke:none;fill-rule:nonzero;fill:rgb(86.274511%,83.529413%,94.901961%);fill-opacity:1;" d="M 28.125 58.125 L 28.125 28.125 L 51.722656 28.125 L 58.125 34.527344 L 58.125 58.125 Z M 28.125 58.125 "/>
<path style=" stroke:none;fill-rule:nonzero;fill:rgb(54.509807%,45.882353%,63.137257%);fill-opacity:1;" d="M 50.949219 30 L 56.25 35.300781 L 56.25 56.25 L 30 56.25 L 30 30 L 50.949219 30 M 52.5 26.25 L 26.25 26.25 L 26.25 60 L 60 60 L 60 33.75 Z M 52.5 26.25 "/>
<path style=" stroke:none;fill-rule:nonzero;fill:rgb(100%,100%,100%);fill-opacity:1;" d="M 35.625 45.417969 L 50.625 45.417969 L 50.625 58.125 L 35.625 58.125 Z M 35.625 45.417969 "/>
<path style=" stroke:none;fill-rule:nonzero;fill:rgb(47.058824%,54.509807%,61.176473%);fill-opacity:1;" d="M 48.75 47.292969 L 48.75 56.25 L 37.5 56.25 L 37.5 47.292969 L 48.75 47.292969 M 52.5 43.542969 L 33.75 43.542969 L 33.75 60 L 52.5 60 Z M 52.5 43.542969 "/>
<path style=" stroke:none;fill-rule:nonzero;fill:rgb(78.431374%,81.960785%,85.882354%);fill-opacity:1;" d="M 37.5 35.625 C 36.46875 35.625 35.625 34.78125 35.625 33.75 L 35.625 28.125 L 50.625 28.125 L 50.625 33.75 C 50.625 34.78125 49.78125 35.625 48.75 35.625 Z M 37.5 35.625 "/>
<path style=" stroke:none;fill-rule:nonzero;fill:rgb(40.000001%,47.450981%,56.078434%);fill-opacity:1;" d="M 48.75 30 L 48.75 33.75 L 37.5 33.75 L 37.5 30 L 48.75 30 M 52.5 26.25 L 33.75 26.25 L 33.75 33.75 C 33.75 35.820312 35.429688 37.5 37.5 37.5 L 48.75 37.5 C 50.820312 37.5 52.5 35.820312 52.5 33.75 Z M 52.5 26.25 "/>
</g>
</svg>
