<?xml version="1.0" encoding="UTF-8"?>
<svg xmlns="http://www.w3.org/2000/svg" xmlns:xlink="http://www.w3.org/1999/xlink" width="30pt" height="30pt" viewBox="0 0 30 30" version="1.1">
<g id="surface128">
<path style=" stroke:none;fill-rule:nonzero;fill:rgb(40.000001%,47.450981%,56.078434%);fill-opacity:1;" d="M 7.898438 11.5 L 6.101562 10.5 L 9.398438 5 L 25 5 L 25 7 L 10.601562 7 Z M 7.898438 11.5 "/>
<path style=" stroke:none;fill-rule:nonzero;fill:rgb(40.000001%,47.450981%,56.078434%);fill-opacity:1;" d="M 17 6 L 19 6 L 19 11 L 17 11 Z M 17 6 "/>
<path style=" stroke:none;fill-rule:nonzero;fill:rgb(51.372552%,61.176473%,69.803923%);fill-opacity:1;" d="M 28.199219 24.5 L 24.199219 20.5 L 21.5 20.5 L 21.5 15.5 L 24.199219 15.5 L 28.199219 11.5 L 29.5 11.5 L 29.5 24.5 Z M 28.199219 24.5 "/>
<path style=" stroke:none;fill-rule:nonzero;fill:rgb(40.000001%,47.450981%,56.078434%);fill-opacity:1;" d="M 29 12 L 29 24 L 28.398438 24 L 24.398438 20 L 22 20 L 22 16 L 24.398438 16 L 28.398438 12 L 29 12 M 30 11 L 28 11 L 24 15 L 21 15 L 21 21 L 24 21 L 28 25 L 30 25 Z M 30 11 "/>
<path style=" stroke:none;fill-rule:nonzero;fill:rgb(69.01961%,75.686276%,83.137256%);fill-opacity:1;" d="M 2 25.5 C 1.199219 25.5 0.5 24.800781 0.5 24 L 0.5 12 C 0.5 11.199219 1.199219 10.5 2 10.5 L 20 10.5 C 20.800781 10.5 21.5 11.199219 21.5 12 L 21.5 24 C 21.5 24.800781 20.800781 25.5 20 25.5 Z M 2 25.5 "/>
<path style=" stroke:none;fill-rule:nonzero;fill:rgb(40.000001%,47.450981%,56.078434%);fill-opacity:1;" d="M 20 11 C 20.601562 11 21 11.398438 21 12 L 21 24 C 21 24.601562 20.601562 25 20 25 L 2 25 C 1.398438 25 1 24.601562 1 24 L 1 12 C 1 11.398438 1.398438 11 2 11 L 20 11 M 20 10 L 2 10 C 0.898438 10 0 10.898438 0 12 L 0 24 C 0 25.101562 0.898438 26 2 26 L 20 26 C 21.101562 26 22 25.101562 22 24 L 22 12 C 22 10.898438 21.101562 10 20 10 Z M 20 10 "/>
<path style=" stroke:none;fill-rule:nonzero;fill:rgb(77.254903%,83.137256%,87.058824%);fill-opacity:1;" d="M 3.5 13.5 L 14.5 13.5 L 14.5 22.5 L 3.5 22.5 Z M 3.5 13.5 "/>
<path style=" stroke:none;fill-rule:nonzero;fill:rgb(40.000001%,47.450981%,56.078434%);fill-opacity:1;" d="M 14 14 L 14 22 L 4 22 L 4 14 L 14 14 M 15 13 L 3 13 L 3 23 L 15 23 Z M 15 13 "/>
<path style=" stroke:none;fill-rule:nonzero;fill:rgb(76.078433%,90.980393%,100%);fill-opacity:1;" d="M 5 15 L 13 15 L 13 21 L 5 21 Z M 5 15 "/>
<path style=" stroke:none;fill-rule:nonzero;fill:rgb(76.078433%,90.980393%,100%);fill-opacity:1;" d="M 5.5 15.5 L 12.5 15.5 L 12.5 20.5 L 5.5 20.5 Z M 5.5 15.5 "/>
<path style=" stroke:none;fill-rule:nonzero;fill:rgb(45.490196%,58.823532%,76.862746%);fill-opacity:1;" d="M 12 16 L 12 20 L 6 20 L 6 16 L 12 16 M 13 15 L 5 15 L 5 21 L 13 21 Z M 13 15 "/>
<path style=" stroke:none;fill-rule:nonzero;fill:rgb(100%,100%,100%);fill-opacity:1;" d="M 10.5 17 C 10.222656 17 10 17.222656 10 17.5 C 10 17.777344 10.222656 18 10.5 18 C 10.777344 18 11 17.777344 11 17.5 C 11 17.222656 10.777344 17 10.5 17 Z M 10.5 17 "/>
<path style=" stroke:none;fill-rule:nonzero;fill:rgb(43.137255%,61.960787%,87.843138%);fill-opacity:1;" d="M 12 20 L 12 19.898438 L 9.898438 18 L 8.5 19.300781 L 9.101562 20 Z M 12 20 "/>
<path style=" stroke:none;fill-rule:nonzero;fill:rgb(46.666667%,66.274512%,92.941177%);fill-opacity:1;" d="M 9.898438 20 L 7 17 L 6 18.101562 L 6 20 Z M 9.898438 20 "/>
<path style=" stroke:none;fill-rule:nonzero;fill:rgb(21.176471%,25.098041%,30.19608%);fill-opacity:1;" d="M 27 8 L 23 8 L 23 4 L 27 4 C 28.101562 4 29 4.898438 29 6 C 29 7.101562 28.101562 8 27 8 Z M 27 8 "/>
</g>
</svg>
