<svg xmlns="http://www.w3.org/2000/svg"  viewBox="0 0 16 16" width="16px" height="16px"><path fill="#f5ce85" d="M2.165,10.055C3.811,9.777,6.53,8.93,8.112,6.354l6.04,3.371c-1.895,2.713-3.797,4.844-4.509,5.616 L2.165,10.055z"/><path fill="#967a44" d="M8.274,7.017l5.148,2.873c-1.547,2.163-3.055,3.905-3.851,4.787l-6.198-4.381 C4.952,9.86,6.92,8.944,8.274,7.017 M7.922,5.676C5.824,9.691,0.784,9.691,0.784,9.691L9.71,16c0,0,2.633-2.726,5.165-6.444 L7.922,5.676L7.922,5.676z"/><path fill="#8bb7f0" d="M7.761,6.775l0.577-0.823c0.167-0.294,0.392-0.486,0.662-0.584C9.13,5.321,9.268,5.297,9.407,5.297 c0.204,0,0.405,0.052,0.583,0.151l1.25,0.699l3.588-5.426c0.068-0.103,0.182-0.164,0.306-0.164c0.062,0,0.122,0.016,0.177,0.046 c0.166,0.093,0.233,0.301,0.153,0.474l-2.734,5.901l1.188,0.663c0.238,0.133,0.426,0.346,0.527,0.6 c0.169,0.423,0.146,0.797-0.031,1.114l-0.577,0.813L7.761,6.775z"/><path fill="#4e7ab5" d="M14.261,2.488l-1.788,3.86l-0.39,0.842l0.81,0.452l0.783,0.437 c0.139,0.077,0.247,0.201,0.306,0.348l0.035,0.088c0.073,0.182,0.066,0.384-0.019,0.56l-0.309,0.438l-5.2-2.902L8.747,6.24 l0.029-0.042l0.025-0.045C8.882,6.007,9.013,5.896,9.17,5.839c0.076-0.028,0.156-0.042,0.237-0.042 c0.118,0,0.235,0.03,0.339,0.088l0.847,0.473l0.81,0.452l0.512-0.774L14.261,2.488 M15.135,0.057 c-0.282,0-0.557,0.138-0.722,0.388L11.08,5.484l-0.847-0.473c-0.255-0.142-0.54-0.215-0.826-0.215 c-0.195,0-0.391,0.034-0.579,0.102C8.446,5.038,8.126,5.31,7.928,5.666L7.033,6.942l6.953,3.881l0.866-1.225 c0.249-0.446,0.284-0.981,0.093-1.456L14.91,8.055c-0.144-0.361-0.408-0.661-0.747-0.85L13.38,6.768l2.54-5.482 c0.19-0.411,0.032-0.899-0.363-1.119C15.423,0.092,15.278,0.057,15.135,0.057L15.135,0.057z"/><path fill="#967a44" d="M4.005 11.54L5 12.294c0 0 1.316-.784 3.127-2.934C6.218 10.93 4.005 11.54 4.005 11.54zM7.009 13.873l.953.609c0 0 .715-.344 1.824-1.734C8.373 13.877 7.009 13.873 7.009 13.873z"/><g><path fill="#b0c1d4" d="M2 1.5A1.5 1.5 0 1 0 2 4.5A1.5 1.5 0 1 0 2 1.5Z"/><path fill="#66798f" d="M2,2c0.551,0,1,0.449,1,1S2.551,4,2,4S1,3.551,1,3S1.449,2,2,2 M2,1C0.895,1,0,1.895,0,3 s0.895,2,2,2s2-0.895,2-2S3.105,1,2,1L2,1z"/></g><g><path fill="#66798f" d="M3 6A1 1 0 1 0 3 8A1 1 0 1 0 3 6Z"/></g></svg>