<?xml version="1.0" encoding="UTF-8"?>
<svg xmlns="http://www.w3.org/2000/svg" xmlns:xlink="http://www.w3.org/1999/xlink" width="12pt" height="12pt" viewBox="0 0 12 12" version="1.1">
<g id="surface2807">
<path style=" stroke:none;fill-rule:nonzero;fill:rgb(40.000001%,47.450981%,56.078434%);fill-opacity:1;" d="M 2.25 6 C 2.25 5.113281 2.570312 4.308594 3.085938 3.664062 L 2.539062 3.121094 C 1.152344 4.785156 1.152344 7.214844 2.542969 8.878906 L 3.085938 8.335938 C 2.570312 7.691406 2.25 6.886719 2.25 6 Z M 6 2.25 C 6.886719 2.25 7.691406 2.570312 8.335938 3.085938 L 8.878906 2.542969 C 7.214844 1.152344 4.785156 1.152344 3.121094 2.539062 L 3.664062 3.085938 C 4.308594 2.570312 5.113281 2.25 6 2.25 Z M 6 9.75 C 5.113281 9.75 4.308594 9.429688 3.664062 8.914062 L 3.121094 9.457031 C 4.785156 10.847656 7.214844 10.847656 8.878906 9.457031 L 8.335938 8.914062 C 7.691406 9.429688 6.886719 9.75 6 9.75 Z M 9.457031 3.121094 L 8.914062 3.664062 C 9.429688 4.308594 9.75 5.113281 9.75 6 C 9.75 6.886719 9.429688 7.691406 8.914062 8.335938 L 9.457031 8.878906 C 10.847656 7.214844 10.847656 4.785156 9.457031 3.121094 Z M 9.457031 3.121094 "/>
<path style=" stroke:none;fill-rule:nonzero;fill:rgb(96.862745%,56.078434%,56.078434%);fill-opacity:1;" d="M 6 5.625 C 5.792969 5.625 5.625 5.792969 5.625 6 C 5.625 6.207031 5.792969 6.375 6 6.375 C 6.207031 6.375 6.375 6.207031 6.375 6 C 6.375 5.792969 6.207031 5.625 6 5.625 Z M 6 5.625 "/>
<path style=" stroke:none;fill-rule:nonzero;fill:rgb(78.039217%,26.274511%,26.274511%);fill-opacity:1;" d="M 6 5.25 C 5.585938 5.25 5.25 5.585938 5.25 6 C 5.25 6.414062 5.585938 6.75 6 6.75 C 6.414062 6.75 6.75 6.414062 6.75 6 C 6.75 5.585938 6.414062 5.25 6 5.25 Z M 6 5.25 "/>
<path style=" stroke:none;fill-rule:nonzero;fill:rgb(96.862745%,56.078434%,56.078434%);fill-opacity:1;" d="M 0.375 6.375 L 0.375 5.625 L 3.40625 5.625 C 3.382812 5.75 3.375 5.875 3.375 6 C 3.375 6.125 3.382812 6.25 3.40625 6.375 Z M 0.375 6.375 "/>
<path style=" stroke:none;fill-rule:nonzero;fill:rgb(78.039217%,26.274511%,26.274511%);fill-opacity:1;" d="M 3.886719 5.25 L 0 5.25 L 0 6.75 L 3.886719 6.75 C 3.804688 6.515625 3.75 6.265625 3.75 6 C 3.75 5.734375 3.804688 5.484375 3.886719 5.25 Z M 3.886719 5.25 "/>
<path style=" stroke:none;fill-rule:nonzero;fill:rgb(96.862745%,56.078434%,56.078434%);fill-opacity:1;" d="M 6.375 3.40625 C 6.25 3.382812 6.125 3.375 6 3.375 C 5.875 3.375 5.75 3.382812 5.625 3.40625 L 5.625 0.375 L 6.375 0.375 Z M 6.375 3.40625 "/>
<path style=" stroke:none;fill-rule:nonzero;fill:rgb(78.039217%,26.274511%,26.274511%);fill-opacity:1;" d="M 6 0.75 L 6 3 L 6 0.75 M 6.75 0 L 5.25 0 L 5.25 3.886719 C 5.484375 3.804688 5.734375 3.75 6 3.75 C 6.265625 3.75 6.515625 3.804688 6.75 3.886719 Z M 6.75 0 "/>
<path style=" stroke:none;fill-rule:nonzero;fill:rgb(96.862745%,56.078434%,56.078434%);fill-opacity:1;" d="M 8.59375 6.375 C 8.617188 6.25 8.625 6.125 8.625 6 C 8.625 5.875 8.617188 5.75 8.59375 5.625 L 11.625 5.625 L 11.625 6.375 Z M 8.59375 6.375 "/>
<path style=" stroke:none;fill-rule:nonzero;fill:rgb(78.039217%,26.274511%,26.274511%);fill-opacity:1;" d="M 12 5.25 L 8.113281 5.25 C 8.195312 5.484375 8.25 5.734375 8.25 6 C 8.25 6.265625 8.195312 6.515625 8.113281 6.75 L 12 6.75 Z M 12 5.25 "/>
<path style=" stroke:none;fill-rule:nonzero;fill:rgb(96.862745%,56.078434%,56.078434%);fill-opacity:1;" d="M 5.625 11.625 L 5.625 8.59375 C 5.75 8.617188 5.875 8.625 6 8.625 C 6.125 8.625 6.25 8.617188 6.375 8.59375 L 6.375 11.625 Z M 5.625 11.625 "/>
<path style=" stroke:none;fill-rule:nonzero;fill:rgb(78.039217%,26.274511%,26.274511%);fill-opacity:1;" d="M 6 9 L 6 11.25 L 6 9 M 6.75 8.113281 C 6.515625 8.195312 6.265625 8.25 6 8.25 C 5.734375 8.25 5.484375 8.195312 5.25 8.113281 L 5.25 12 L 6.75 12 Z M 6.75 8.113281 "/>
</g>
</svg>
