<?xml version="1.0" encoding="UTF-8"?>
<svg xmlns="http://www.w3.org/2000/svg" xmlns:xlink="http://www.w3.org/1999/xlink" width="12pt" height="12pt" viewBox="0 0 12 12" version="1.1">
<g id="surface2947">
<path style=" stroke:none;fill-rule:nonzero;fill:rgb(40.000001%,47.450981%,56.078434%);fill-opacity:1;" d="M 4.578125 6.925781 L 6.488281 5.015625 L 7.019531 5.546875 L 5.109375 7.453125 Z M 4.578125 6.925781 "/>
<path style=" stroke:none;fill-rule:nonzero;fill:rgb(76.078433%,90.980393%,100%);fill-opacity:1;" d="M 6 11.25 C 6 8.324219 3.675781 6 0.75 6 L 0.75 11.25 Z M 6 11.25 "/>
<path style=" stroke:none;fill-rule:nonzero;fill:rgb(72.941178%,87.843138%,74.117649%);fill-opacity:1;" d="M 2.625 6.375 C 2.023438 6.148438 1.425781 6 0.75 6 L 0.75 8.550781 L 0.824219 8.550781 C 0.898438 8.550781 0.976562 8.476562 1.050781 8.398438 C 1.199219 8.25 1.425781 8.101562 1.574219 7.949219 C 1.726562 7.800781 1.949219 7.648438 2.023438 7.5 C 2.25 7.425781 2.324219 7.199219 2.398438 7.050781 C 2.476562 6.898438 2.699219 6.523438 2.625 6.375 Z M 4.273438 7.351562 C 4.125 7.273438 4.050781 7.273438 3.898438 7.351562 C 3.75 7.425781 3.601562 7.648438 3.523438 7.800781 C 3.375 7.949219 3.300781 8.175781 3.148438 8.324219 C 3.074219 8.398438 3 8.476562 3.074219 8.550781 C 3.074219 8.625 3.148438 8.625 3.226562 8.625 C 3.375 8.699219 3.375 8.699219 3.523438 8.773438 C 3.601562 8.773438 3.675781 8.851562 3.601562 8.925781 C 3.601562 8.925781 3.601562 9 3.523438 9 C 3.226562 9.300781 2.925781 9.523438 2.625 9.824219 C 2.550781 9.898438 2.476562 9.976562 2.476562 10.050781 C 2.476562 10.125 2.550781 10.125 2.550781 10.199219 C 2.550781 10.273438 2.476562 10.273438 2.398438 10.351562 C 2.25 10.425781 2.175781 10.5 2.101562 10.5 C 2.023438 10.648438 2.101562 10.800781 2.023438 10.949219 C 2.023438 11.101562 1.949219 11.25 1.875 11.324219 L 6 11.324219 C 6 9.675781 5.324219 8.324219 4.273438 7.351562 Z M 4.273438 7.351562 "/>
<path style=" stroke:none;fill-rule:nonzero;fill:rgb(40.000001%,47.450981%,56.078434%);fill-opacity:1;" d="M 4.257812 3.289062 L 4.789062 2.757812 L 9.296875 7.265625 L 8.765625 7.796875 Z M 4.257812 3.289062 "/>
<path style=" stroke:none;fill-rule:nonzero;fill:rgb(86.274511%,83.529413%,94.901961%);fill-opacity:1;" d="M 2.75 3.371094 L 4.816406 1.304688 L 6.144531 2.628906 L 4.074219 4.695312 Z M 2.75 3.371094 "/>
<path style=" stroke:none;fill-rule:nonzero;fill:rgb(54.509807%,45.882353%,63.137257%);fill-opacity:1;" d="M 4.875 1.800781 L 5.699219 2.625 L 4.125 4.199219 L 3.300781 3.375 L 4.875 1.800781 M 4.875 0.75 L 2.25 3.375 L 4.125 5.25 L 6.75 2.625 Z M 4.875 0.75 "/>
<path style=" stroke:none;fill-rule:nonzero;fill:rgb(86.274511%,83.529413%,94.901961%);fill-opacity:1;" d="M 7.25 7.871094 L 9.316406 5.804688 L 10.644531 7.128906 L 8.574219 9.195312 Z M 7.25 7.871094 "/>
<path style=" stroke:none;fill-rule:nonzero;fill:rgb(54.509807%,45.882353%,63.137257%);fill-opacity:1;" d="M 9.375 6.300781 L 10.199219 7.125 L 8.625 8.699219 L 7.800781 7.875 L 9.375 6.300781 M 9.375 5.25 L 6.75 7.875 L 8.625 9.75 L 11.25 7.125 Z M 9.375 5.25 "/>
<path style=" stroke:none;fill-rule:nonzero;fill:rgb(63.921571%,71.764708%,80.000001%);fill-opacity:1;" d="M 4.839844 5.78125 L 7.226562 3.394531 L 8.554688 4.71875 L 6.167969 7.105469 Z M 4.839844 5.78125 "/>
<path style=" stroke:none;fill-rule:nonzero;fill:rgb(40.000001%,47.450981%,56.078434%);fill-opacity:1;" d="M 7.273438 3.898438 L 8.101562 4.726562 L 6.226562 6.601562 L 5.398438 5.773438 L 7.273438 3.898438 M 7.273438 3 C 7.199219 3 7.125 3 7.050781 3.074219 L 4.574219 5.550781 C 4.5 5.625 4.5 5.925781 4.574219 6.074219 L 5.925781 7.425781 C 6 7.5 6.148438 7.5 6.226562 7.5 C 6.300781 7.5 6.449219 7.5 6.523438 7.425781 L 8.925781 5.023438 C 9.074219 4.875 9.074219 4.648438 8.925781 4.5 L 7.574219 3.148438 C 7.5 3 7.351562 3 7.273438 3 Z M 7.273438 3 "/>
<path style=" stroke:none;fill-rule:nonzero;fill:rgb(36.862746%,61.176473%,46.27451%);fill-opacity:1;" d="M 2.773438 11.101562 C 2.773438 11.023438 2.773438 10.949219 2.851562 10.949219 L 2.925781 10.875 C 3.226562 10.648438 3.300781 10.351562 3.300781 10.199219 C 3.375 10.125 3.449219 10.050781 3.523438 9.976562 C 3.675781 9.824219 3.75 9.75 3.898438 9.601562 C 4.050781 9.523438 4.125 9.375 4.199219 9.226562 C 4.273438 9 4.351562 8.773438 4.199219 8.550781 C 4.125 8.476562 4.125 8.324219 4.050781 8.25 C 4.800781 9.074219 5.175781 10.125 5.175781 11.25 L 5.925781 11.25 C 5.925781 9.675781 5.25 8.324219 4.199219 7.351562 C 4.125 7.351562 4.050781 7.351562 4.050781 7.351562 C 3.976562 7.351562 3.898438 7.351562 3.824219 7.425781 C 3.75 7.425781 3.601562 7.648438 3.523438 7.800781 C 3.375 7.949219 3.300781 8.175781 3.148438 8.324219 C 3.074219 8.398438 3 8.476562 3.074219 8.550781 C 3.074219 8.625 3.148438 8.625 3.226562 8.625 C 3.375 8.699219 3.375 8.699219 3.523438 8.773438 C 3.601562 8.773438 3.675781 8.851562 3.601562 8.925781 C 3.601562 8.925781 3.601562 9 3.523438 9 C 3.226562 9.300781 2.925781 9.523438 2.625 9.824219 C 2.550781 9.898438 2.476562 9.976562 2.476562 10.050781 C 2.476562 10.125 2.550781 10.125 2.550781 10.199219 C 2.550781 10.273438 2.476562 10.273438 2.398438 10.351562 C 2.25 10.425781 2.175781 10.5 2.101562 10.5 C 2.023438 10.648438 2.101562 10.800781 2.023438 10.949219 C 2.023438 11.101562 1.949219 11.25 1.875 11.324219 L 2.699219 11.324219 C 2.773438 11.175781 2.773438 11.101562 2.773438 11.101562 Z M 2.625 6.375 C 2.023438 6.148438 1.425781 6 0.75 6 L 0.75 6.75 C 1.050781 6.75 1.351562 6.75 1.648438 6.824219 C 1.648438 6.898438 1.574219 6.898438 1.574219 6.898438 L 1.574219 6.976562 L 1.5 7.050781 C 1.425781 7.125 1.273438 7.273438 1.199219 7.351562 C 1.050781 7.425781 0.976562 7.5 0.824219 7.574219 C 0.824219 7.574219 0.75 7.648438 0.75 7.648438 L 0.75 8.476562 L 0.824219 8.476562 C 0.898438 8.476562 0.976562 8.398438 1.050781 8.324219 C 1.199219 8.175781 1.425781 8.023438 1.574219 7.875 C 1.726562 7.726562 1.949219 7.574219 2.023438 7.425781 C 2.25 7.425781 2.324219 7.199219 2.398438 7.050781 C 2.476562 6.898438 2.699219 6.523438 2.625 6.375 Z M 2.625 6.375 "/>
<path style=" stroke:none;fill-rule:nonzero;fill:rgb(45.490196%,58.823532%,76.862746%);fill-opacity:1;" d="M 0.75 6 L 0.75 6.75 C 3.226562 6.75 5.25 8.773438 5.25 11.25 L 6 11.25 C 6 8.324219 3.675781 6 0.75 6 Z M 0.75 6 "/>
</g>
</svg>
