<?xml version="1.0" encoding="UTF-8"?>
<svg xmlns="http://www.w3.org/2000/svg" xmlns:xlink="http://www.w3.org/1999/xlink" width="12pt" height="12pt" viewBox="0 0 12 12" version="1.1">
<g id="surface135">
<path style=" stroke:none;fill-rule:nonzero;fill:rgb(70.980394%,21.960784%,21.960784%);fill-opacity:1;" d="M 10.242188 1.757812 C 9.15625 0.671875 7.65625 0 6 0 L 6 6 Z M 10.242188 1.757812 "/>
<path style=" stroke:none;fill-rule:nonzero;fill:rgb(72.156864%,43.137255%,24.313726%);fill-opacity:1;" d="M 12 6 C 12 4.464844 11.414062 2.929688 10.242188 1.757812 L 6 6 Z M 12 6 "/>
<path style=" stroke:none;fill-rule:nonzero;fill:rgb(72.156864%,56.078434%,15.686275%);fill-opacity:1;" d="M 10.242188 10.242188 C 11.328125 9.15625 12 7.65625 12 6 L 6 6 Z M 10.242188 10.242188 "/>
<path style=" stroke:none;fill-rule:nonzero;fill:rgb(31.764707%,58.823532%,42.352942%);fill-opacity:1;" d="M 6 12 C 7.535156 12 9.070312 11.414062 10.242188 10.242188 L 6 6 Z M 6 12 "/>
<path style=" stroke:none;fill-rule:nonzero;fill:rgb(33.725491%,50.980395%,72.941178%);fill-opacity:1;" d="M 1.757812 10.242188 C 2.84375 11.328125 4.34375 12 6 12 L 6 6 Z M 1.757812 10.242188 "/>
<path style=" stroke:none;fill-rule:nonzero;fill:rgb(28.627452%,39.607844%,65.882355%);fill-opacity:1;" d="M 0 6 C 0 7.535156 0.585938 9.070312 1.757812 10.242188 L 6 6 Z M 0 6 "/>
<path style=" stroke:none;fill-rule:nonzero;fill:rgb(49.411765%,36.470589%,61.960787%);fill-opacity:1;" d="M 1.757812 1.757812 C 0.671875 2.84375 0 4.34375 0 6 L 6 6 Z M 1.757812 1.757812 "/>
<path style=" stroke:none;fill-rule:nonzero;fill:rgb(56.862748%,27.450982%,51.372552%);fill-opacity:1;" d="M 6 0 C 4.464844 0 2.929688 0.585938 1.757812 1.757812 L 6 6 Z M 6 0 "/>
<path style=" stroke:none;fill-rule:nonzero;fill:rgb(92.156863%,37.64706%,37.64706%);fill-opacity:1;" d="M 9.710938 2.289062 C 8.761719 1.339844 7.449219 0.75 6 0.75 L 6 6 Z M 9.710938 2.289062 "/>
<path style=" stroke:none;fill-rule:nonzero;fill:rgb(94.117647%,54.11765%,28.235295%);fill-opacity:1;" d="M 11.25 6 C 11.25 4.65625 10.738281 3.3125 9.710938 2.289062 L 6 6 Z M 11.25 6 "/>
<path style=" stroke:none;fill-rule:nonzero;fill:rgb(100%,87.450981%,34.901962%);fill-opacity:1;" d="M 9.710938 9.710938 C 10.660156 8.761719 11.25 7.449219 11.25 6 L 6 6 Z M 9.710938 9.710938 "/>
<path style=" stroke:none;fill-rule:nonzero;fill:rgb(46.27451%,83.92157%,49.019608%);fill-opacity:1;" d="M 6 11.25 C 7.34375 11.25 8.6875 10.738281 9.710938 9.710938 L 6 6 Z M 6 11.25 "/>
<path style=" stroke:none;fill-rule:nonzero;fill:rgb(40.000001%,62.352943%,92.941177%);fill-opacity:1;" d="M 2.289062 9.710938 C 3.238281 10.660156 4.550781 11.25 6 11.25 L 6 6 Z M 2.289062 9.710938 "/>
<path style=" stroke:none;fill-rule:nonzero;fill:rgb(43.529412%,52.156866%,90.980393%);fill-opacity:1;" d="M 0.75 6 C 0.75 7.34375 1.261719 8.6875 2.289062 9.710938 L 6 6 Z M 0.75 6 "/>
<path style=" stroke:none;fill-rule:nonzero;fill:rgb(69.01961%,36.470589%,89.019608%);fill-opacity:1;" d="M 2.289062 2.289062 C 1.339844 3.238281 0.75 4.550781 0.75 6 L 6 6 Z M 2.289062 2.289062 "/>
<path style=" stroke:none;fill-rule:nonzero;fill:rgb(86.274511%,36.470589%,89.019608%);fill-opacity:1;" d="M 6 0.75 C 4.65625 0.75 3.3125 1.261719 2.289062 2.289062 L 6 6 Z M 6 0.75 "/>
</g>
</svg>
