<?xml version="1.0" encoding="UTF-8"?>
<svg xmlns="http://www.w3.org/2000/svg" xmlns:xlink="http://www.w3.org/1999/xlink" width="22.5pt" height="22.5pt" viewBox="0 0 22.5 22.5" version="1.1">
<g id="surface2460">
<path style=" stroke:none;fill-rule:nonzero;fill:rgb(100%,100%,100%);fill-opacity:1;" d="M 5.773438 21.3125 L 0.6875 14.851562 L 0.6875 0.6875 L 16.226562 0.6875 L 21.3125 5.773438 L 21.3125 21.3125 Z M 5.773438 21.3125 "/>
<path style=" stroke:none;fill-rule:nonzero;fill:rgb(47.058824%,54.509807%,61.176473%);fill-opacity:1;" d="M 15.949219 1.375 L 20.625 6.050781 L 20.625 20.625 L 6.1875 20.625 L 1.375 14.574219 L 1.375 1.375 L 15.949219 1.375 M 16.5 0 L 0 0 L 0 15.125 L 5.5 22 L 22 22 L 22 5.5 Z M 16.5 0 "/>
<path style=" stroke:none;fill-rule:nonzero;fill:rgb(47.058824%,54.509807%,61.176473%);fill-opacity:1;" d="M 0.960938 1.835938 L 1.933594 0.863281 L 6.699219 5.628906 L 5.726562 6.601562 Z M 0.960938 1.835938 "/>
<path style=" stroke:none;fill-rule:nonzero;fill:rgb(72.941178%,87.843138%,74.117649%);fill-opacity:1;" d="M 6.1875 6.1875 L 21.3125 6.1875 L 21.3125 21.3125 L 6.1875 21.3125 Z M 6.1875 6.1875 "/>
<path style=" stroke:none;fill-rule:nonzero;fill:rgb(36.862746%,61.176473%,46.27451%);fill-opacity:1;" d="M 20.625 6.875 L 20.625 20.625 L 6.875 20.625 L 6.875 6.875 L 20.625 6.875 M 22 5.5 L 5.5 5.5 L 5.5 22 L 22 22 Z M 22 5.5 "/>
</g>
</svg>
