<?xml version="1.0" encoding="UTF-8"?>
<svg xmlns="http://www.w3.org/2000/svg" xmlns:xlink="http://www.w3.org/1999/xlink" width="12pt" height="12pt" viewBox="0 0 12 12" version="1.1">
<g id="surface5068">
<path style=" stroke:none;fill-rule:nonzero;fill:rgb(30.588236%,47.843137%,70.980394%);fill-opacity:1;" d="M 9.75 0 L 9.75 2.953125 C 9.730469 2.972656 9.691406 3 9.613281 3 C 9.476562 3 9.410156 2.878906 9.34375 2.582031 C 9.070312 1.570312 8.675781 0.75 7.5 0.75 C 6.140625 0.75 4.546875 0.75 4.5 0.75 C 4.453125 0.75 4.328125 0.746094 4.328125 0.839844 C 5.414062 2.316406 6.367188 4.023438 7.5 5.5 C 6.183594 7.070312 3.75 10.5 3.75 10.5 C 3.75 10.5 6.128906 10.5 7.808594 10.5 C 8.652344 10.5 9.390625 9.898438 9.667969 9.246094 C 9.707031 9.152344 9.71875 9.113281 9.75 9 C 9.914062 8.40625 10.5 8.5 10.5 8.5 L 9.75 12 C 9.75 12 0.875 12 0.75 12 C 2.382812 10.015625 3.617188 7.984375 5.25 6 C 3.617188 3.96875 0.75 0 0.75 0 Z M 9.75 0 "/>
</g>
</svg>
