<?xml version="1.0" encoding="UTF-8"?>
<svg xmlns="http://www.w3.org/2000/svg" xmlns:xlink="http://www.w3.org/1999/xlink" width="12pt" height="12pt" viewBox="0 0 12 12" version="1.1">
<g id="surface2340">
<path style=" stroke:none;fill-rule:nonzero;fill:rgb(100%,93.333334%,63.921571%);fill-opacity:1;" d="M 4.511719 9.730469 L 1.125 10.746094 L 1.125 2.152344 L 4.488281 1.144531 L 7.488281 2.269531 L 10.875 1.253906 L 10.875 9.847656 L 7.511719 10.855469 Z M 4.511719 9.730469 "/>
<path style=" stroke:none;fill-rule:nonzero;fill:rgb(72.941178%,60.784316%,28.235295%);fill-opacity:1;" d="M 4.472656 1.542969 L 7.234375 2.578125 L 7.472656 2.667969 L 7.714844 2.59375 L 10.5 1.757812 L 10.5 9.566406 L 7.527344 10.457031 L 4.765625 9.421875 L 4.527344 9.332031 L 4.285156 9.40625 L 1.5 10.242188 L 1.5 2.433594 L 4.472656 1.542969 M 11.25 0.75 L 7.5 1.875 L 4.5 0.75 L 0.75 1.875 L 0.75 11.25 L 4.5 10.125 L 7.5 11.25 L 11.25 10.125 Z M 11.25 0.75 "/>
<path style=" stroke:none;fill-rule:nonzero;fill:rgb(100%,100%,100%);fill-opacity:1;" d="M 7.5 10.445312 L 4.5 9.3125 L 4.5 1.542969 L 7.5 2.675781 Z M 7.5 10.445312 "/>
<path style=" stroke:none;fill-rule:nonzero;fill:rgb(72.941178%,60.784316%,28.235295%);fill-opacity:1;" d="M 4.320312 6.273438 C 4.140625 6.238281 3.945312 6.261719 3.773438 6.179688 C 3.695312 6.140625 3.628906 6.085938 3.542969 6.050781 C 3.488281 6.027344 3.40625 6.003906 3.332031 5.976562 C 3.246094 5.808594 3.207031 5.636719 3.128906 5.46875 C 3.082031 5.367188 2.917969 5.097656 3.164062 5.089844 C 3.238281 5.089844 3.488281 5.164062 3.523438 5.214844 C 3.613281 5.351562 3.433594 5.664062 3.625 5.703125 C 3.9375 5.765625 4.289062 5.242188 4.285156 5 C 4.285156 4.957031 4.246094 4.941406 4.242188 4.898438 C 4.226562 4.734375 4.324219 4.628906 4.25 4.464844 C 4.199219 4.359375 4.148438 4.269531 4.152344 4.148438 C 4.167969 3.867188 4.238281 3.589844 4.234375 3.304688 C 4.234375 3.222656 4.207031 3.171875 4.167969 3.148438 C 3.96875 3.03125 3.386719 3.519531 3.367188 3.5 C 3 3.136719 2.347656 2.949219 1.910156 3.332031 C 1.789062 3.441406 1.550781 3.566406 1.59375 3.742188 C 1.636719 3.917969 1.707031 3.914062 1.859375 3.835938 C 2 3.757812 2.164062 3.703125 2.320312 3.804688 C 2.492188 3.910156 2.359375 4.078125 2.265625 4.195312 C 2.132812 4.359375 2.046875 4.496094 1.984375 4.6875 C 1.929688 4.847656 1.902344 5.03125 2.015625 5.179688 C 2.132812 5.332031 2.378906 5.335938 2.464844 5.46875 C 2.558594 5.613281 2.574219 5.808594 2.753906 5.890625 C 2.875 5.945312 2.996094 5.882812 3.136719 5.941406 C 3.183594 5.960938 3.222656 5.980469 3.261719 6.003906 C 3.324219 6.105469 3.367188 6.222656 3.363281 6.335938 C 3.359375 6.5 3.261719 6.523438 3.136719 6.601562 C 2.960938 6.707031 2.601562 6.914062 2.648438 7.167969 C 2.683594 7.371094 2.914062 7.246094 2.976562 7.402344 C 3.027344 7.523438 2.886719 7.691406 2.882812 7.804688 C 3.214844 7.878906 3.40625 8.152344 3.40625 8.488281 C 3.402344 8.96875 3.480469 9.328125 3.859375 9.609375 C 3.953125 9.59375 4 9.550781 4.011719 9.445312 C 4.058594 9.035156 3.976562 8.675781 4.289062 8.339844 C 4.425781 8.199219 4.398438 8.140625 4.386719 7.960938 C 4.382812 7.867188 4.402344 7.648438 4.476562 7.597656 C 4.570312 7.640625 4.757812 7.667969 4.84375 7.59375 C 4.898438 7.542969 4.960938 7.265625 4.972656 7.1875 C 5.011719 6.953125 4.925781 6.765625 4.789062 6.585938 C 4.675781 6.4375 4.503906 6.3125 4.320312 6.273438 Z M 5.167969 2.648438 C 4.722656 2.539062 4.398438 2.910156 4.53125 3.339844 C 4.75 4.046875 5.199219 2.9375 5.167969 2.648438 Z M 10.113281 4.210938 C 10.144531 4.066406 10.113281 3.898438 9.941406 3.898438 C 9.929688 3.722656 9.8125 3.304688 9.621094 3.210938 C 9.441406 3.121094 9.4375 3.25 9.289062 3.390625 C 9.128906 3.542969 8.933594 3.644531 8.796875 3.796875 C 8.671875 3.933594 8.414062 4.273438 8.238281 4.140625 C 8.144531 4.066406 8.167969 3.808594 8.097656 3.703125 C 8.003906 3.5625 7.945312 3.539062 7.769531 3.511719 C 7.789062 3.480469 7.792969 3.402344 7.816406 3.367188 C 7.761719 3.382812 7.667969 3.363281 7.617188 3.382812 C 7.605469 3.160156 7.945312 3.152344 8.023438 3.003906 C 7.875 2.992188 7.738281 2.984375 7.609375 3.070312 C 7.507812 3.136719 7.484375 3.292969 7.386719 3.339844 C 7.136719 3.460938 6.542969 3.050781 6.273438 2.992188 C 5.878906 2.90625 5.671875 3.070312 5.511719 3.433594 C 5.410156 3.414062 5.285156 3.382812 5.203125 3.464844 C 5.265625 3.546875 5.359375 3.585938 5.460938 3.597656 C 5.46875 3.636719 5.472656 3.679688 5.460938 3.71875 C 5.375 3.738281 5.15625 3.878906 5.101562 3.929688 C 4.988281 4.035156 4.972656 4.078125 4.949219 4.242188 C 4.9375 4.324219 4.929688 4.425781 4.933594 4.527344 C 4.945312 4.714844 5.003906 4.894531 5.183594 4.9375 C 5.296875 4.964844 5.429688 4.914062 5.5 4.789062 C 5.597656 4.613281 5.328125 4.148438 5.632812 4.171875 C 5.851562 4.1875 5.859375 4.527344 5.929688 4.675781 C 5.949219 4.683594 5.964844 4.683594 5.984375 4.675781 C 6.035156 4.53125 6.007812 4.371094 6.019531 4.222656 C 6.277344 4.152344 6.421875 4.535156 6.480469 4.722656 C 6.53125 4.882812 6.632812 4.933594 6.371094 4.996094 C 6.230469 5.03125 6.128906 4.996094 6.035156 4.882812 C 5.878906 4.992188 5.792969 5.109375 5.621094 5.195312 C 5.140625 5.445312 5.011719 6.175781 5.265625 6.667969 C 5.441406 7.007812 5.847656 6.699219 6.054688 6.59375 C 6.046875 6.785156 6.214844 6.976562 6.273438 7.15625 C 6.445312 7.667969 6.320312 8.160156 6.320312 8.6875 C 6.316406 8.792969 6.34375 9.199219 6.480469 9.226562 C 6.636719 9.253906 6.769531 8.773438 6.804688 8.660156 C 6.945312 8.199219 6.949219 7.726562 7.203125 7.296875 C 7.304688 7.132812 7.484375 6.992188 7.398438 6.785156 C 7.316406 6.574219 6.898438 6.535156 6.945312 6.261719 C 6.929688 6.335938 7.359375 6.734375 7.457031 6.742188 C 7.910156 6.789062 7.484375 6.1875 7.617188 6.035156 C 7.835938 5.792969 7.996094 6.394531 8.007812 6.511719 C 8.042969 6.824219 7.976562 7.132812 7.972656 7.445312 C 7.972656 7.574219 7.9375 8.113281 8.179688 8.035156 C 8.371094 7.976562 8.277344 7.558594 8.304688 7.414062 C 8.328125 7.277344 8.46875 6.765625 8.585938 6.703125 C 8.839844 6.570312 8.976562 7.140625 9.289062 7.128906 C 9.363281 6.867188 9.296875 6.738281 9.5 6.546875 C 9.648438 6.402344 9.875 6.3125 9.964844 6.101562 C 10.035156 5.9375 10.054688 5.605469 10.007812 5.433594 C 9.917969 5.109375 9.609375 5.238281 9.320312 5.164062 C 9.308594 5 9.480469 4.917969 9.488281 4.746094 C 9.492188 4.660156 9.355469 4.660156 9.371094 4.550781 C 9.378906 4.484375 9.480469 4.375 9.523438 4.316406 C 9.679688 4.117188 9.894531 3.996094 10.113281 4.210938 Z M 9.855469 7.679688 C 9.792969 7.734375 9.628906 7.992188 9.570312 8.007812 C 9.320312 8.082031 9.460938 7.785156 9.527344 7.6875 C 9.289062 7.769531 9.082031 7.964844 8.945312 8.203125 L 8.953125 8.167969 C 8.945312 8.1875 8.933594 8.21875 8.917969 8.25 C 8.816406 8.445312 8.757812 8.660156 8.773438 8.867188 L 8.78125 8.839844 C 8.765625 9.023438 8.789062 9.179688 8.902344 9.203125 C 9.222656 9.265625 9.355469 8.742188 9.671875 8.820312 C 9.699219 8.972656 9.816406 9.011719 9.90625 8.886719 C 9.960938 8.808594 9.898438 8.5625 9.886719 8.480469 C 9.839844 8.175781 9.78125 7.988281 9.855469 7.679688 Z M 9.855469 7.679688 "/>
</g>
</svg>
