<?xml version="1.0" encoding="UTF-8"?>
<svg xmlns="http://www.w3.org/2000/svg" xmlns:xlink="http://www.w3.org/1999/xlink" width="36pt" height="36pt" viewBox="0 0 36 36" version="1.1">
<g id="surface3001">
<path style=" stroke:none;fill-rule:nonzero;fill:rgb(16.470589%,18.431373%,58.823532%);fill-opacity:1;" d="M 18 3.75 C 10.128906 3.75 3.75 10.128906 3.75 18 C 3.75 25.871094 10.128906 32.25 18 32.25 C 25.871094 32.25 32.25 25.871094 32.25 18 C 32.25 10.128906 25.871094 3.75 18 3.75 Z M 18 3.75 "/>
<path style=" stroke:none;fill-rule:nonzero;fill:rgb(89.803922%,22.352941%,20.784314%);fill-opacity:1;" d="M 3.449219 22.5 L 2.25 22.5 C 2.25 22.5 5.308594 20.1875 11.945312 18.347656 C 11.945312 18.347656 22.597656 15.113281 29.515625 10.410156 C 31.921875 8.382812 33.804688 6.574219 34.5 5.25 C 34.5 5.25 33.605469 8.792969 29.457031 13.011719 C 28.644531 13.429688 28.324219 13.980469 27.75 14.25 C 27.84375 14.144531 27.679688 13.597656 27.75 13.5 C 27.75 13.5 22.355469 16.015625 11.234375 19.328125 C 11.234375 19.324219 6.554688 20.515625 3.449219 22.5 Z M 3.449219 22.5 "/>
<path style=" stroke:none;fill-rule:nonzero;fill:rgb(98.039216%,98.039216%,98.039216%);fill-opacity:1;" d="M 14.460938 18.914062 L 15.589844 18.933594 L 15.011719 17.558594 Z M 14.226562 19.773438 L 14.019531 20.496094 L 14.621094 20.824219 L 12.628906 20.820312 L 13.246094 20.476562 L 14.53125 16.273438 L 13.832031 15.921875 L 16.207031 15.921875 L 18.183594 20.472656 L 18.582031 20.824219 L 15.808594 20.824219 L 16.207031 20.472656 L 15.808594 19.773438 Z M 21.839844 17.53125 C 22.273438 17.632812 23.734375 18.386719 23.226562 19.878906 C 23.226562 19.878906 22.59375 21.734375 19.148438 20.625 L 18.765625 21 L 18.765625 19.503906 L 19.148438 19.878906 C 19.148438 19.878906 21.769531 20.867188 21.753906 19.640625 C 21.75 19.402344 21.304688 19.007812 20.101562 18.855469 C 20.101562 18.855469 18.75 18.816406 18.765625 17.257812 C 18.773438 16.625 19.234375 15.035156 22.605469 16.136719 L 22.953125 15.746094 L 22.945312 17.21875 L 22.605469 16.882812 C 22.605469 16.882812 20.609375 16.257812 20.410156 16.878906 C 20.199219 17.535156 21.238281 17.390625 21.839844 17.53125 Z M 21.839844 17.53125 "/>
<path style=" stroke:none;fill-rule:nonzero;fill:rgb(89.803922%,22.352941%,20.784314%);fill-opacity:1;" d="M 29.597656 12.863281 C 28.800781 13.78125 27.195312 14.996094 25.921875 15.945312 C 25.921875 15.945312 15.703125 22.546875 11.648438 25.519531 C 11.648438 25.519531 8.523438 27.5625 6.75 30.75 L 6.75 29.535156 C 6.75 29.535156 8.441406 27.164062 12.4375 24.332031 C 15.953125 21.84375 26.460938 15.558594 27.75 13.5 Z M 29.597656 12.863281 "/>
<path style=" stroke:none;fill-rule:nonzero;fill:rgb(98.039216%,98.039216%,98.039216%);fill-opacity:1;" d="M 6.5 15.941406 L 8.875 15.941406 L 10.855469 19.09375 L 10.855469 16.292969 L 10.457031 15.941406 L 12.042969 15.941406 L 11.644531 16.292969 L 11.644531 20.496094 L 12.042969 20.84375 L 9.667969 20.84375 L 7.6875 17.695312 L 7.6875 20.496094 L 8.082031 20.84375 L 6.5 20.84375 L 6.894531 20.496094 L 6.894531 16.292969 Z M 25.828125 18.957031 L 27.046875 18.949219 L 26.390625 17.511719 Z M 25.707031 19.773438 L 25.457031 20.476562 L 26.101562 20.824219 L 24.105469 20.820312 L 24.726562 20.476562 L 26.011719 16.273438 L 25.308594 15.921875 L 27.683594 15.921875 L 29.664062 20.472656 L 30.0625 20.824219 L 27.289062 20.824219 L 27.6875 20.472656 L 27.289062 19.773438 Z M 25.707031 19.773438 "/>
<path style=" stroke:none;fill-rule:nonzero;fill:rgb(98.039216%,98.039216%,98.039216%);fill-opacity:1;" d="M 25.195312 22.691406 C 24.640625 20.492188 23.375 17.972656 21.640625 15.59375 C 18.03125 10.660156 13.464844 7.890625 11.457031 9.421875 C 10.46875 10.175781 10.238281 11.820312 10.804688 14.058594 C 11.359375 16.257812 12.625 18.777344 14.359375 21.152344 C 15.117188 22.1875 15.574219 22.761719 16.382812 23.585938 L 16.890625 23.777344 C 16.09375 22.960938 15.300781 22.035156 14.550781 21.007812 C 12.835938 18.65625 11.585938 16.167969 11.035156 13.996094 C 10.496094 11.863281 10.695312 10.308594 11.601562 9.617188 C 11.945312 9.355469 12.371094 9.230469 12.859375 9.230469 C 15.074219 9.230469 18.558594 11.789062 21.449219 15.742188 C 23.167969 18.09375 24.417969 20.582031 24.964844 22.753906 C 25.507812 24.886719 25.304688 26.441406 24.402344 27.132812 C 23.1875 28.058594 20.949219 27.269531 18.566406 25.320312 L 18.402344 25.492188 C 20.167969 26.925781 21.871094 27.75 23.175781 27.75 C 23.707031 27.75 24.167969 27.613281 24.542969 27.328125 C 25.53125 26.574219 25.761719 24.929688 25.195312 22.691406 Z M 25.195312 22.691406 "/>
<path style=" stroke:none;fill-rule:nonzero;fill:rgb(98.039216%,98.039216%,98.039216%);fill-opacity:1;" d="M 16.074219 22.785156 C 15.941406 22.90625 16.078125 23.265625 16.378906 23.585938 C 16.679688 23.902344 17.03125 24.0625 17.164062 23.9375 C 17.292969 23.816406 17.15625 23.457031 16.855469 23.136719 C 16.554688 22.820312 16.203125 22.660156 16.074219 22.785156 Z M 16.074219 22.785156 "/>
<path style=" stroke:none;fill-rule:nonzero;fill:rgb(98.039216%,98.039216%,98.039216%);fill-opacity:1;" d="M 20.625 5.542969 L 20.796875 6.734375 C 20.804688 6.789062 20.832031 6.839844 20.871094 6.878906 C 20.910156 6.917969 20.960938 6.945312 21.015625 6.953125 L 22.207031 7.125 L 21.015625 7.296875 C 20.960938 7.304688 20.910156 7.332031 20.871094 7.371094 C 20.832031 7.410156 20.804688 7.460938 20.796875 7.515625 L 20.625 8.707031 L 20.453125 7.515625 C 20.445312 7.460938 20.417969 7.410156 20.378906 7.371094 C 20.339844 7.332031 20.289062 7.304688 20.234375 7.296875 L 19.042969 7.125 L 20.234375 6.953125 C 20.289062 6.945312 20.339844 6.917969 20.378906 6.878906 C 20.417969 6.839844 20.445312 6.789062 20.453125 6.734375 Z M 13.875 10.792969 L 14.046875 11.984375 C 14.054688 12.039062 14.082031 12.089844 14.121094 12.128906 C 14.160156 12.167969 14.210938 12.195312 14.265625 12.203125 L 15.457031 12.375 L 14.265625 12.546875 C 14.210938 12.554688 14.160156 12.582031 14.121094 12.621094 C 14.082031 12.660156 14.054688 12.710938 14.046875 12.765625 L 13.875 13.957031 L 13.703125 12.765625 C 13.695312 12.710938 13.667969 12.660156 13.628906 12.621094 C 13.589844 12.582031 13.539062 12.554688 13.484375 12.546875 L 12.292969 12.375 L 13.484375 12.203125 C 13.539062 12.195312 13.589844 12.167969 13.628906 12.128906 C 13.667969 12.089844 13.695312 12.039062 13.703125 11.984375 Z M 14.625 26.542969 L 14.796875 27.734375 C 14.804688 27.789062 14.832031 27.839844 14.871094 27.878906 C 14.910156 27.917969 14.960938 27.945312 15.015625 27.953125 L 16.207031 28.125 L 15.015625 28.296875 C 14.960938 28.304688 14.910156 28.332031 14.871094 28.371094 C 14.832031 28.410156 14.804688 28.460938 14.796875 28.515625 L 14.625 29.707031 L 14.453125 28.515625 C 14.445312 28.460938 14.417969 28.410156 14.378906 28.371094 C 14.339844 28.332031 14.289062 28.304688 14.234375 28.296875 L 13.042969 28.125 L 14.234375 27.953125 C 14.289062 27.945312 14.339844 27.917969 14.378906 27.878906 C 14.417969 27.839844 14.445312 27.789062 14.453125 27.734375 Z M 28.875 21.292969 L 29.046875 22.484375 C 29.054688 22.539062 29.082031 22.589844 29.121094 22.628906 C 29.160156 22.667969 29.210938 22.695312 29.265625 22.703125 L 30.457031 22.875 L 29.265625 23.046875 C 29.210938 23.054688 29.160156 23.082031 29.121094 23.121094 C 29.082031 23.160156 29.054688 23.210938 29.046875 23.265625 L 28.875 24.457031 L 28.703125 23.265625 C 28.695312 23.210938 28.667969 23.160156 28.628906 23.121094 C 28.589844 23.082031 28.539062 23.054688 28.484375 23.046875 L 27.292969 22.875 L 28.484375 22.703125 C 28.539062 22.695312 28.589844 22.667969 28.628906 22.628906 C 28.667969 22.589844 28.695312 22.539062 28.703125 22.484375 Z M 27.375 24.75 C 27.167969 24.75 27 24.917969 27 25.125 C 27 25.332031 27.167969 25.5 27.375 25.5 C 27.582031 25.5 27.75 25.332031 27.75 25.125 C 27.75 24.917969 27.582031 24.75 27.375 24.75 Z M 9.375 24 C 9.167969 24 9 24.167969 9 24.375 C 9 24.582031 9.167969 24.75 9.375 24.75 C 9.582031 24.75 9.75 24.582031 9.75 24.375 C 9.75 24.167969 9.582031 24 9.375 24 Z M 7.125 22.5 C 6.917969 22.5 6.75 22.667969 6.75 22.875 C 6.75 23.082031 6.917969 23.25 7.125 23.25 C 7.332031 23.25 7.5 23.082031 7.5 22.875 C 7.5 22.667969 7.332031 22.5 7.125 22.5 Z M 18.375 8.25 C 18.167969 8.25 18 8.417969 18 8.625 C 18 8.832031 18.167969 9 18.375 9 C 18.582031 9 18.75 8.832031 18.75 8.625 C 18.75 8.417969 18.582031 8.25 18.375 8.25 Z M 15.375 13.5 C 15.167969 13.5 15 13.667969 15 13.875 C 15 14.082031 15.167969 14.25 15.375 14.25 C 15.582031 14.25 15.75 14.082031 15.75 13.875 C 15.75 13.667969 15.582031 13.5 15.375 13.5 Z M 15.375 13.5 "/>
</g>
</svg>
