<?xml version="1.0" encoding="UTF-8" standalone="no"?>
<!DOCTYPE svg PUBLIC "-//W3C//DTD SVG 1.1//EN" "http://www.w3.org/Graphics/SVG/1.1/DTD/svg11.dtd">
<svg width="100%" height="100%" viewBox="0 0 12 12" version="1.1" xmlns="http://www.w3.org/2000/svg" xmlns:xlink="http://www.w3.org/1999/xlink" xml:space="preserve" xmlns:serif="http://www.serif.com/" style="fill-rule:evenodd;clip-rule:evenodd;stroke-linejoin:round;stroke-miterlimit:2;">
    <g id="surface20248">
        <path d="M9.375,9.75C9.375,10.801 8.551,11.625 7.5,11.625L4.949,11.625C4.5,11.625 4.125,11.477 3.824,11.102L0.676,7.949C0.523,7.801 0.375,7.574 0.375,7.273C0.375,6.977 0.449,6.824 0.676,6.602C1.051,6.227 1.648,6.227 2.023,6.602L3.449,8.023L3.449,1.875C3.449,1.426 3.75,1.125 4.199,1.125C4.273,1.125 4.426,1.125 4.5,1.199L4.875,1.352L4.949,0.977C5.023,0.676 5.324,0.449 5.699,0.449C5.852,0.449 6.074,0.523 6.227,0.676L6.449,0.898L6.676,0.676C6.75,0.449 6.977,0.375 7.125,0.375C7.574,0.375 7.875,0.676 7.875,1.125L7.875,2.102L8.398,1.949C8.477,1.949 8.551,1.875 8.625,1.875C9.074,1.875 9.375,2.176 9.375,2.625L9.375,9.75Z" style="fill:white;fill-rule:nonzero;"/>
        <path d="M0.75,7.352C0.75,7.199 0.824,7.051 0.898,6.898C1.051,6.824 1.199,6.75 1.352,6.75C1.5,6.75 1.574,6.824 1.727,6.898L2.477,7.648L3.75,8.926L3.75,1.875C3.75,1.648 3.898,1.5 4.125,1.5L4.273,1.5L5.023,1.801L5.25,1.051C5.324,0.898 5.477,0.75 5.625,0.75C5.773,0.75 5.852,0.824 5.852,0.824L6.375,1.273L6.898,0.824C6.898,0.824 6.977,0.75 7.125,0.75C7.352,0.75 7.5,0.898 7.5,1.125L7.5,2.625L8.477,2.25L8.625,2.25C8.852,2.25 9,2.398 9,2.625L9,9.75C9,10.574 8.324,11.25 7.5,11.25L4.949,11.25C4.648,11.25 4.273,11.102 4.051,10.875L0.977,7.801C0.824,7.574 0.75,7.5 0.75,7.352M0,7.352C0,7.648 0.148,8.023 0.375,8.25L3.449,11.324C3.824,11.773 4.352,12 4.949,12L7.5,12C8.773,12 9.75,11.023 9.75,9.75L9.75,2.625C9.75,2.023 9.227,1.5 8.625,1.5C8.477,1.5 8.398,1.5 8.25,1.574L8.25,1.125C8.25,0.523 7.727,0 7.125,0C6.824,0 6.602,0.148 6.375,0.301C6.148,0.148 5.926,0 5.625,0C5.102,0 4.648,0.375 4.574,0.824C4.426,0.75 4.273,0.75 4.125,0.75C3.523,0.75 3,1.273 3,1.875L3,7.125L2.25,6.375C1.727,5.852 0.898,5.852 0.449,6.375C0.148,6.676 0,6.977 0,7.352Z" style="fill:rgb(120,139,156);fill-rule:nonzero;"/>
        <path d="M4.5,1.051L5.25,1.051L5.25,6L4.5,6L4.5,1.051ZM6,0.75L6.75,0.75L6.75,6L6,6L6,0.75ZM7.5,1.273L8.25,1.273L8.25,6L7.5,6L7.5,1.273Z" style="fill:rgb(120,139,156);fill-rule:nonzero;"/>
    </g>
</svg>
