<?xml version="1.0" encoding="UTF-8"?>
<svg xmlns="http://www.w3.org/2000/svg" xmlns:xlink="http://www.w3.org/1999/xlink" width="60pt" height="60pt" viewBox="0 0 60 60" version="1.1">
<g id="surface663">
<path style=" stroke:none;fill-rule:nonzero;fill:rgb(85.882354%,69.01961%,39.607844%);fill-opacity:1;" d="M 1.875 50.625 L 1.875 5.625 L 17.972656 5.625 L 25.472656 13.125 L 58.125 13.125 L 58.125 50.625 Z M 1.875 50.625 "/>
<path style=" stroke:none;fill-rule:nonzero;fill:rgb(58.823532%,47.843137%,26.666668%);fill-opacity:1;" d="M 17.199219 7.5 L 23.597656 13.902344 L 24.699219 15 L 56.25 15 L 56.25 48.75 L 3.75 48.75 L 3.75 7.5 L 17.199219 7.5 M 18.75 3.75 L 0 3.75 L 0 52.5 L 60 52.5 L 60 11.25 L 26.25 11.25 Z M 18.75 3.75 "/>
<path style=" stroke:none;fill-rule:nonzero;fill:rgb(96.078432%,80.784315%,52.156866%);fill-opacity:1;" d="M 1.875 54.375 L 1.875 16.875 L 19.191406 16.875 L 26.691406 13.125 L 58.125 13.125 L 58.125 54.375 Z M 1.875 54.375 "/>
<path style=" stroke:none;fill-rule:nonzero;fill:rgb(58.823532%,47.843137%,26.666668%);fill-opacity:1;" d="M 56.25 15 L 56.25 52.5 L 3.75 52.5 L 3.75 18.75 L 19.636719 18.75 L 20.425781 18.351562 L 27.136719 15 L 56.25 15 M 60 11.25 L 26.25 11.25 L 18.75 15 L 0 15 L 0 56.25 L 60 56.25 Z M 60 11.25 "/>
<path style=" stroke:none;fill-rule:nonzero;fill:rgb(58.823532%,47.843137%,26.666668%);fill-opacity:1;" d="M 37.5 33.75 L 26.25 45 L 48.75 45 Z M 37.5 33.75 "/>
<path style=" stroke:none;fill-rule:nonzero;fill:rgb(72.941178%,60.784316%,28.235295%);fill-opacity:1;" d="M 41.25 22.5 C 39.179688 22.5 37.5 24.179688 37.5 26.25 C 37.5 28.320312 39.179688 30 41.25 30 C 43.320312 30 45 28.320312 45 26.25 C 45 24.179688 43.320312 22.5 41.25 22.5 Z M 37.5 45 L 11.25 45 L 24.375 30 Z M 37.5 45 "/>
</g>
</svg>
