<?xml version="1.0" encoding="UTF-8" standalone="no"?>
<!DOCTYPE svg PUBLIC "-//W3C//DTD SVG 1.1//EN" "http://www.w3.org/Graphics/SVG/1.1/DTD/svg11.dtd">
<svg width="100%" height="100%" viewBox="0 0 23 23" version="1.1" xmlns="http://www.w3.org/2000/svg" xmlns:xlink="http://www.w3.org/1999/xlink" xml:space="preserve" xmlns:serif="http://www.serif.com/" style="fill-rule:evenodd;clip-rule:evenodd;stroke-linejoin:round;stroke-miterlimit:2;">
    <g id="surface2143">
        <path d="M3.301,19.523L2.199,18.977L4.949,13.477L5.637,13.063L11.273,14.164L7.563,4.398L8.523,3.438L14.988,6.051L18.699,2.199L19.801,3.301L15.676,7.426L14.852,7.563L9.488,5.363L13.063,14.852L12.238,15.813L5.914,14.574L3.301,19.523Z" style="fill:rgb(78,121,181);fill-rule:nonzero;"/>
        <g>
            <path d="M19.25,1.375C18.426,1.375 17.875,1.926 17.875,2.75C17.875,3.574 18.426,4.125 19.25,4.125C20.074,4.125 20.625,3.574 20.625,2.75C20.625,1.926 20.074,1.375 19.25,1.375Z" style="fill:rgb(78,121,181);fill-rule:nonzero;"/>
            <path d="M15.125,5.5C14.301,5.5 13.75,6.051 13.75,6.875C13.75,7.699 14.301,8.25 15.125,8.25C15.949,8.25 16.5,7.699 16.5,6.875C16.5,6.051 15.949,5.5 15.125,5.5Z" style="fill:rgb(78,121,181);fill-rule:nonzero;"/>
            <path d="M8.25,2.75C7.426,2.75 6.875,3.301 6.875,4.125C6.875,4.949 7.426,5.5 8.25,5.5C9.074,5.5 9.625,4.949 9.625,4.125C9.625,3.301 9.074,2.75 8.25,2.75Z" style="fill:rgb(78,121,181);fill-rule:nonzero;"/>
            <path d="M12.375,13.75C11.551,13.75 11,14.301 11,15.125C11,15.949 11.551,16.5 12.375,16.5C13.199,16.5 13.75,15.949 13.75,15.125C13.75,14.301 13.199,13.75 12.375,13.75Z" style="fill:rgb(78,121,181);fill-rule:nonzero;"/>
            <path d="M2.75,17.875C1.926,17.875 1.375,18.426 1.375,19.25C1.375,20.074 1.926,20.625 2.75,20.625C3.574,20.625 4.125,20.074 4.125,19.25C4.125,18.426 3.574,17.875 2.75,17.875Z" style="fill:rgb(78,121,181);fill-rule:nonzero;"/>
            <path d="M5.5,12.375C4.676,12.375 4.125,12.926 4.125,13.75C4.125,14.574 4.676,15.125 5.5,15.125C6.324,15.125 6.875,14.574 6.875,13.75C6.875,12.926 6.324,12.375 5.5,12.375Z" style="fill:rgb(78,121,181);fill-rule:nonzero;"/>
        </g>
        <g>
            <path d="M19.25,2.063C18.871,2.063 18.563,2.371 18.563,2.75C18.563,3.129 18.871,3.438 19.25,3.438C19.629,3.438 19.938,3.129 19.938,2.75C19.938,2.371 19.629,2.063 19.25,2.063Z" style="fill:rgb(139,183,239);fill-rule:nonzero;"/>
            <path d="M15.125,6.188C14.746,6.188 14.438,6.496 14.438,6.875C14.438,7.254 14.746,7.563 15.125,7.563C15.504,7.563 15.813,7.254 15.813,6.875C15.813,6.496 15.504,6.188 15.125,6.188Z" style="fill:rgb(139,183,239);fill-rule:nonzero;"/>
            <path d="M8.25,3.438C7.871,3.438 7.563,3.746 7.563,4.125C7.563,4.504 7.871,4.813 8.25,4.813C8.629,4.813 8.938,4.504 8.938,4.125C8.938,3.746 8.629,3.438 8.25,3.438Z" style="fill:rgb(139,183,239);fill-rule:nonzero;"/>
            <path d="M12.375,14.438C11.996,14.438 11.688,14.746 11.688,15.125C11.688,15.504 11.996,15.813 12.375,15.813C12.754,15.813 13.063,15.504 13.063,15.125C13.063,14.746 12.754,14.438 12.375,14.438Z" style="fill:rgb(139,183,239);fill-rule:nonzero;"/>
            <path d="M2.75,18.563C2.371,18.563 2.063,18.871 2.063,19.25C2.063,19.629 2.371,19.938 2.75,19.938C3.129,19.938 3.438,19.629 3.438,19.25C3.438,18.871 3.129,18.563 2.75,18.563Z" style="fill:rgb(139,183,239);fill-rule:nonzero;"/>
            <path d="M5.5,13.063C5.121,13.063 4.813,13.371 4.813,13.75C4.813,14.129 5.121,14.438 5.5,14.438C5.879,14.438 6.188,14.129 6.188,13.75C6.188,13.371 5.879,13.063 5.5,13.063Z" style="fill:rgb(139,183,239);fill-rule:nonzero;"/>
        </g>
    </g>
</svg>
