<?xml version="1.0" encoding="UTF-8"?>
<svg xmlns="http://www.w3.org/2000/svg" xmlns:xlink="http://www.w3.org/1999/xlink" width="22.5pt" height="22.5pt" viewBox="0 0 22.5 22.5" version="1.1">
<g id="surface2143">
<path style=" stroke:none;fill-rule:nonzero;fill:rgb(21.176471%,25.098041%,30.19608%);fill-opacity:1;" d="M 3.300781 19.523438 L 2.199219 18.976562 L 4.949219 13.476562 L 5.636719 13.0625 L 11.273438 14.164062 L 7.5625 4.398438 L 8.523438 3.4375 L 14.988281 6.050781 L 18.699219 2.199219 L 19.800781 3.300781 L 15.675781 7.425781 L 14.851562 7.5625 L 9.488281 5.363281 L 13.0625 14.851562 L 12.238281 15.8125 L 5.914062 14.574219 Z M 3.300781 19.523438 "/>
<path style=" stroke:none;fill-rule:nonzero;fill:rgb(69.01961%,75.686276%,83.137256%);fill-opacity:1;" d="M 19.25 2.0625 C 18.871094 2.0625 18.5625 2.371094 18.5625 2.75 C 18.5625 3.128906 18.871094 3.4375 19.25 3.4375 C 19.628906 3.4375 19.9375 3.128906 19.9375 2.75 C 19.9375 2.371094 19.628906 2.0625 19.25 2.0625 Z M 19.25 2.0625 "/>
<path style=" stroke:none;fill-rule:nonzero;fill:rgb(40.000001%,47.450981%,56.078434%);fill-opacity:1;" d="M 19.25 1.375 C 18.425781 1.375 17.875 1.925781 17.875 2.75 C 17.875 3.574219 18.425781 4.125 19.25 4.125 C 20.074219 4.125 20.625 3.574219 20.625 2.75 C 20.625 1.925781 20.074219 1.375 19.25 1.375 Z M 19.25 1.375 "/>
<path style=" stroke:none;fill-rule:nonzero;fill:rgb(69.01961%,75.686276%,83.137256%);fill-opacity:1;" d="M 15.125 6.1875 C 14.746094 6.1875 14.4375 6.496094 14.4375 6.875 C 14.4375 7.253906 14.746094 7.5625 15.125 7.5625 C 15.503906 7.5625 15.8125 7.253906 15.8125 6.875 C 15.8125 6.496094 15.503906 6.1875 15.125 6.1875 Z M 15.125 6.1875 "/>
<path style=" stroke:none;fill-rule:nonzero;fill:rgb(40.000001%,47.450981%,56.078434%);fill-opacity:1;" d="M 15.125 5.5 C 14.300781 5.5 13.75 6.050781 13.75 6.875 C 13.75 7.699219 14.300781 8.25 15.125 8.25 C 15.949219 8.25 16.5 7.699219 16.5 6.875 C 16.5 6.050781 15.949219 5.5 15.125 5.5 Z M 15.125 5.5 "/>
<path style=" stroke:none;fill-rule:nonzero;fill:rgb(69.01961%,75.686276%,83.137256%);fill-opacity:1;" d="M 8.25 3.4375 C 7.871094 3.4375 7.5625 3.746094 7.5625 4.125 C 7.5625 4.503906 7.871094 4.8125 8.25 4.8125 C 8.628906 4.8125 8.9375 4.503906 8.9375 4.125 C 8.9375 3.746094 8.628906 3.4375 8.25 3.4375 Z M 8.25 3.4375 "/>
<path style=" stroke:none;fill-rule:nonzero;fill:rgb(40.000001%,47.450981%,56.078434%);fill-opacity:1;" d="M 8.25 2.75 C 7.425781 2.75 6.875 3.300781 6.875 4.125 C 6.875 4.949219 7.425781 5.5 8.25 5.5 C 9.074219 5.5 9.625 4.949219 9.625 4.125 C 9.625 3.300781 9.074219 2.75 8.25 2.75 Z M 8.25 2.75 "/>
<path style=" stroke:none;fill-rule:nonzero;fill:rgb(69.01961%,75.686276%,83.137256%);fill-opacity:1;" d="M 12.375 14.4375 C 11.996094 14.4375 11.6875 14.746094 11.6875 15.125 C 11.6875 15.503906 11.996094 15.8125 12.375 15.8125 C 12.753906 15.8125 13.0625 15.503906 13.0625 15.125 C 13.0625 14.746094 12.753906 14.4375 12.375 14.4375 Z M 12.375 14.4375 "/>
<path style=" stroke:none;fill-rule:nonzero;fill:rgb(40.000001%,47.450981%,56.078434%);fill-opacity:1;" d="M 12.375 13.75 C 11.550781 13.75 11 14.300781 11 15.125 C 11 15.949219 11.550781 16.5 12.375 16.5 C 13.199219 16.5 13.75 15.949219 13.75 15.125 C 13.75 14.300781 13.199219 13.75 12.375 13.75 Z M 12.375 13.75 "/>
<path style=" stroke:none;fill-rule:nonzero;fill:rgb(69.01961%,75.686276%,83.137256%);fill-opacity:1;" d="M 2.75 18.5625 C 2.371094 18.5625 2.0625 18.871094 2.0625 19.25 C 2.0625 19.628906 2.371094 19.9375 2.75 19.9375 C 3.128906 19.9375 3.4375 19.628906 3.4375 19.25 C 3.4375 18.871094 3.128906 18.5625 2.75 18.5625 Z M 2.75 18.5625 "/>
<path style=" stroke:none;fill-rule:nonzero;fill:rgb(40.000001%,47.450981%,56.078434%);fill-opacity:1;" d="M 2.75 17.875 C 1.925781 17.875 1.375 18.425781 1.375 19.25 C 1.375 20.074219 1.925781 20.625 2.75 20.625 C 3.574219 20.625 4.125 20.074219 4.125 19.25 C 4.125 18.425781 3.574219 17.875 2.75 17.875 Z M 2.75 17.875 "/>
<path style=" stroke:none;fill-rule:nonzero;fill:rgb(69.01961%,75.686276%,83.137256%);fill-opacity:1;" d="M 5.5 13.0625 C 5.121094 13.0625 4.8125 13.371094 4.8125 13.75 C 4.8125 14.128906 5.121094 14.4375 5.5 14.4375 C 5.878906 14.4375 6.1875 14.128906 6.1875 13.75 C 6.1875 13.371094 5.878906 13.0625 5.5 13.0625 Z M 5.5 13.0625 "/>
<path style=" stroke:none;fill-rule:nonzero;fill:rgb(40.000001%,47.450981%,56.078434%);fill-opacity:1;" d="M 5.5 12.375 C 4.675781 12.375 4.125 12.925781 4.125 13.75 C 4.125 14.574219 4.675781 15.125 5.5 15.125 C 6.324219 15.125 6.875 14.574219 6.875 13.75 C 6.875 12.925781 6.324219 12.375 5.5 12.375 Z M 5.5 12.375 "/>
</g>
</svg>
