<?xml version="1.0" encoding="UTF-8"?>
<svg xmlns="http://www.w3.org/2000/svg" xmlns:xlink="http://www.w3.org/1999/xlink" width="12pt" height="12pt" viewBox="0 0 12 12" version="1.1">
<g id="surface7475">
<path style=" stroke:none;fill-rule:nonzero;fill:rgb(54.509807%,71.764708%,94.117647%);fill-opacity:1;" d="M 7.125 10.125 L 7.125 8.625 L 7.875 8.625 C 9.117188 8.625 10.125 7.617188 10.125 6.375 C 10.125 5.132812 9.117188 4.125 7.875 4.125 L 3.375 4.125 L 3.375 5.90625 L 0.558594 3.375 L 3.375 0.84375 L 3.375 2.625 L 7.875 2.625 C 9.941406 2.625 11.625 4.308594 11.625 6.375 C 11.625 8.441406 9.941406 10.125 7.875 10.125 Z M 7.125 10.125 "/>
<path style=" stroke:none;fill-rule:nonzero;fill:rgb(30.588236%,47.843137%,70.980394%);fill-opacity:1;" d="M 3 1.683594 L 3 3 L 7.875 3 C 9.734375 3 11.25 4.515625 11.25 6.375 C 11.25 8.234375 9.734375 9.75 7.875 9.75 L 7.5 9.75 L 7.5 9 L 7.875 9 C 9.324219 9 10.5 7.824219 10.5 6.375 C 10.5 4.925781 9.324219 3.75 7.875 3.75 L 3 3.75 L 3 5.066406 L 1.121094 3.375 L 3 1.683594 M 3.75 0 L 0 3.375 L 3.75 6.75 L 3.75 4.5 L 7.875 4.5 C 8.910156 4.5 9.75 5.339844 9.75 6.375 C 9.75 7.410156 8.910156 8.25 7.875 8.25 L 6.75 8.25 L 6.75 10.5 L 7.875 10.5 C 10.152344 10.5 12 8.652344 12 6.375 C 12 4.097656 10.152344 2.25 7.875 2.25 L 3.75 2.25 Z M 3.75 0 "/>
<path style=" stroke:none;fill-rule:nonzero;fill:rgb(54.509807%,71.764708%,94.117647%);fill-opacity:1;" d="M 4.125 8.625 L 5.625 8.625 L 5.625 10.125 L 4.125 10.125 Z M 4.125 8.625 "/>
<path style=" stroke:none;fill-rule:nonzero;fill:rgb(30.588236%,47.843137%,70.980394%);fill-opacity:1;" d="M 5.25 9 L 5.25 9.75 L 4.5 9.75 L 4.5 9 L 5.25 9 M 6 8.25 L 3.75 8.25 L 3.75 10.5 L 6 10.5 Z M 6 8.25 "/>
<path style=" stroke:none;fill-rule:nonzero;fill:rgb(54.509807%,71.764708%,94.117647%);fill-opacity:1;" d="M 1.125 8.625 L 2.625 8.625 L 2.625 10.125 L 1.125 10.125 Z M 1.125 8.625 "/>
<path style=" stroke:none;fill-rule:nonzero;fill:rgb(30.588236%,47.843137%,70.980394%);fill-opacity:1;" d="M 2.25 9 L 2.25 9.75 L 1.5 9.75 L 1.5 9 L 2.25 9 M 3 8.25 L 0.75 8.25 L 0.75 10.5 L 3 10.5 Z M 3 8.25 "/>
</g>
</svg>
