<svg xmlns="http://www.w3.org/2000/svg"  viewBox="0 0 16 16" width="30px" height="30px"><path fill="#e1ebf2" d="M1,14.5c-0.276,0-0.5-0.225-0.5-0.5V1c0-0.275,0.224-0.5,0.5-0.5h13c0.276,0,0.5,0.225,0.5,0.5v13 c0,0.275-0.224,0.5-0.5,0.5H1z"/><path fill="#788b9c" d="M14,1v13H1V1H14 M14,0H1C0.448,0,0,0.448,0,1v13c0,0.552,0.448,1,1,1h13c0.552,0,1-0.448,1-1V1 C15,0.448,14.552,0,14,0L14,0z"/><path fill="#b6c9d6" d="M7 1H8V14H7z"/><path fill="#b6c9d6" d="M1 7H14V8H1z"/><path fill="#c74343" d="M14,4.546C13.355,3.106,12.467,2,11,2C8.538,2,7.624,5.228,7.019,7.364C6.327,9.807,5.576,12,4,12	c-1.482,0-2.184-1.895-3-4.577v3.03C1.645,11.894,2.533,13,4,13c2.462,0,3.376-3.228,3.981-5.364C8.673,5.193,9.424,3,11,3	c1.482,0,2.184,1.895,3,4.577V4.546z"/></svg>