<svg xmlns="http://www.w3.org/2000/svg" viewBox="0 0 16 16" width="30px" height="30px">
  <path fill="#e1ebf2" d="M1.5,1.5h13c0.276,0,0.5,0.224,0.5,0.5v12c0,0.276-0.224,0.5-0.5,0.5h-13C1.224,14.5,1,14.276,1,14V2 C1,1.724,1.224,1.5,1.5,1.5z"/>
  <path fill="#788b9c" d="M14.5,1H1.5C0.948,1,0.5,1.448,0.5,2v12c0,0.552,0.448,1,1,1h13c0.552,0,1-0.448,1-1V2 C15.5,1.448,15.052,1,14.5,1z M14.5,14h-13V2h13V14z"/>
  <rect x="2.5" y="2.75" width="11" height="7.5" rx="0.4" fill="#2e7d32"/>
  <g stroke="#5bb85f" stroke-width="0.3" opacity="0.55">
    <line x1="5.25" y1="2.75" x2="5.25" y2="10.25"/>
    <line x1="8" y1="2.75" x2="8" y2="10.25"/>
    <line x1="10.75" y1="2.75" x2="10.75" y2="10.25"/>
    <line x1="2.5" y1="4.625" x2="13.5" y2="4.625"/>
    <line x1="2.5" y1="6.5" x2="13.5" y2="6.5"/>
    <line x1="2.5" y1="8.375" x2="13.5" y2="8.375"/>
  </g>
  <path fill="none" stroke="#b6f5b8" stroke-width="0.7" stroke-linecap="round" stroke-linejoin="round" d="M3,6.5 C4,6.5 4.25,3.75 5.5,3.75 C6.75,3.75 7,9.25 8.25,9.25 C9.5,9.25 9.75,6.5 11,6.5 C12,6.5 12.25,6.5 13,6.5"/>
  <g fill="#788b9c">
    <circle cx="5.25" cy="12.5" r="1.3"/>
    <circle cx="10.75" cy="12.5" r="1.3"/>
  </g>
  <g fill="#b6c9d6">
    <circle cx="5.25" cy="12.5" r="0.5"/>
    <circle cx="10.75" cy="12.5" r="0.5"/>
  </g>
  <g stroke="#e1ebf2" stroke-width="0.4" stroke-linecap="round">
    <line x1="5.25" y1="12.5" x2="5.25" y2="11.45"/>
    <line x1="10.75" y1="12.5" x2="11.5" y2="11.95"/>
  </g>
</svg>
