<?xml version="1.0" encoding="UTF-8"?>
<svg xmlns="http://www.w3.org/2000/svg" xmlns:xlink="http://www.w3.org/1999/xlink" width="12pt" height="12pt" viewBox="0 0 12 12" version="1.1">
<g id="surface2642">
<path style=" stroke:none;fill-rule:nonzero;fill:rgb(100%,93.333334%,63.921571%);fill-opacity:1;" d="M 3.085938 5.171875 L 2.800781 5.097656 L 2.636719 5.15625 L 2.253906 5.359375 L 2.230469 4.78125 L 2.015625 4.578125 L 1.839844 4.535156 L 1.414062 4.519531 L 1.691406 4 L 1.605469 3.714844 L 1.472656 3.605469 L 1.105469 3.375 L 1.605469 3.0625 L 1.671875 2.777344 L 1.617188 2.613281 L 1.414062 2.230469 L 1.992188 2.207031 L 2.195312 1.996094 L 2.238281 1.816406 L 2.253906 1.390625 L 2.765625 1.664062 L 3.054688 1.585938 L 3.167969 1.453125 L 3.398438 1.082031 L 3.707031 1.574219 L 3.988281 1.652344 L 4.160156 1.59375 L 4.546875 1.390625 L 4.566406 1.96875 L 4.78125 2.171875 L 4.957031 2.214844 L 5.382812 2.230469 L 5.105469 2.75 L 5.191406 3.035156 L 5.324219 3.144531 L 5.691406 3.375 L 5.191406 3.6875 L 5.125 3.972656 L 5.179688 4.136719 L 5.382812 4.519531 L 4.804688 4.542969 L 4.601562 4.753906 L 4.558594 4.933594 L 4.546875 5.359375 L 4.027344 5.085938 L 3.742188 5.164062 L 3.628906 5.296875 L 3.398438 5.667969 Z M 3.085938 5.171875 "/>
<path style=" stroke:none;fill-rule:nonzero;fill:rgb(76.078433%,58.823532%,32.549021%);fill-opacity:1;" d="M 3.390625 1.800781 L 3.4375 1.894531 L 3.726562 1.96875 L 3.765625 1.980469 L 3.785156 1.988281 L 4.070312 2.066406 L 4.203125 1.996094 L 4.21875 2.152344 L 4.433594 2.363281 L 4.644531 2.578125 L 4.769531 2.582031 L 4.707031 2.703125 L 4.785156 2.988281 L 4.796875 3.015625 L 4.871094 3.304688 L 4.972656 3.367188 L 4.878906 3.417969 L 4.804688 3.707031 L 4.792969 3.742188 L 4.789062 3.761719 L 4.707031 4.046875 L 4.777344 4.179688 L 4.621094 4.195312 L 4.410156 4.410156 L 4.195312 4.621094 L 4.191406 4.746094 L 4.070312 4.683594 L 3.785156 4.761719 L 3.761719 4.769531 L 3.46875 4.847656 L 3.40625 4.945312 L 3.359375 4.855469 L 3.070312 4.78125 L 3.03125 4.769531 L 3.011719 4.761719 L 2.726562 4.683594 L 2.59375 4.753906 L 2.578125 4.597656 L 2.363281 4.386719 L 2.152344 4.171875 L 2.027344 4.167969 L 2.089844 4.046875 L 2.011719 3.761719 L 2 3.734375 L 1.925781 3.445312 L 1.828125 3.382812 L 1.917969 3.335938 L 1.992188 3.046875 L 2.003906 3.007812 L 2.011719 2.988281 L 2.089844 2.703125 L 2.019531 2.570312 L 2.175781 2.554688 L 2.386719 2.339844 L 2.601562 2.128906 L 2.605469 2.003906 L 2.726562 2.066406 L 3.011719 1.988281 L 3.039062 1.976562 L 3.328125 1.902344 L 3.390625 1.800781 M 3.398438 0.375 L 2.851562 1.253906 C 2.839844 1.253906 2.824219 1.261719 2.8125 1.265625 L 1.898438 0.777344 L 1.863281 1.804688 C 1.851562 1.816406 1.839844 1.828125 1.828125 1.839844 L 0.800781 1.875 L 1.285156 2.789062 C 1.285156 2.804688 1.277344 2.816406 1.277344 2.828125 L 0.398438 3.375 L 1.277344 3.921875 C 1.277344 3.933594 1.285156 3.945312 1.285156 3.960938 L 0.800781 4.875 L 1.828125 4.910156 C 1.839844 4.921875 1.851562 4.933594 1.863281 4.945312 L 1.898438 5.972656 L 2.8125 5.484375 C 2.824219 5.488281 2.839844 5.496094 2.851562 5.496094 L 3.398438 6.375 L 3.945312 5.496094 C 3.960938 5.496094 3.96875 5.488281 3.984375 5.484375 L 4.898438 5.972656 L 4.933594 4.945312 C 4.945312 4.933594 4.957031 4.921875 4.96875 4.910156 L 5.996094 4.875 L 5.511719 3.960938 C 5.515625 3.945312 5.519531 3.933594 5.523438 3.921875 L 6.398438 3.375 L 5.519531 2.828125 C 5.519531 2.816406 5.511719 2.804688 5.511719 2.789062 L 5.996094 1.875 L 4.96875 1.839844 C 4.957031 1.828125 4.945312 1.816406 4.933594 1.804688 L 4.898438 0.777344 L 3.984375 1.265625 C 3.96875 1.261719 3.960938 1.253906 3.945312 1.253906 Z M 3.398438 0.375 "/>
<path style=" stroke:none;fill-rule:nonzero;fill:rgb(88.235295%,92.156863%,94.901961%);fill-opacity:1;" d="M 1.875 9.375 C 1.046875 9.375 0.375 8.703125 0.375 7.875 C 0.375 7.148438 0.894531 6.53125 1.613281 6.402344 L 2 6.332031 L 1.914062 5.953125 C 1.886719 5.835938 1.875 5.726562 1.875 5.625 C 1.875 4.796875 2.546875 4.125 3.375 4.125 C 3.476562 4.125 3.578125 4.136719 3.675781 4.15625 L 4.128906 4.25 L 4.128906 3.789062 C 4.125 2.714844 4.964844 1.875 6 1.875 C 6.550781 1.875 7.074219 2.125 7.433594 2.558594 L 7.582031 2.738281 L 7.808594 2.683594 C 7.976562 2.644531 8.113281 2.625 8.25 2.625 C 9.285156 2.625 10.125 3.464844 10.125 4.5 C 10.125 4.542969 10.117188 4.582031 10.113281 4.621094 L 10.074219 4.976562 L 10.316406 5.089844 C 11.109375 5.457031 11.625 6.257812 11.625 7.125 C 11.625 8.367188 10.617188 9.375 9.375 9.375 Z M 1.875 9.375 "/>
<path style=" stroke:none;fill-rule:nonzero;fill:rgb(69.01961%,75.686276%,83.137256%);fill-opacity:1;" d="M 6 2.25 C 6.4375 2.25 6.855469 2.449219 7.144531 2.796875 L 7.445312 3.15625 L 7.898438 3.046875 C 8.035156 3.015625 8.144531 3 8.25 3 C 9.078125 3 9.75 3.671875 9.75 4.5 C 9.75 4.523438 9.746094 4.550781 9.742188 4.574219 L 9.730469 4.664062 L 9.667969 5.203125 L 10.160156 5.429688 C 10.820312 5.738281 11.25 6.402344 11.25 7.125 C 11.25 8.160156 10.410156 9 9.375 9 L 1.875 9 C 1.253906 9 0.75 8.496094 0.75 7.875 C 0.75 7.332031 1.140625 6.867188 1.679688 6.773438 L 2.449219 6.636719 L 2.277344 5.871094 C 2.257812 5.78125 2.25 5.699219 2.25 5.625 C 2.25 5.003906 2.753906 4.5 3.375 4.5 C 3.453125 4.5 3.527344 4.507812 3.601562 4.523438 L 4.519531 4.710938 L 4.503906 3.773438 C 4.503906 3.753906 4.503906 3.734375 4.5 3.714844 C 4.519531 2.902344 5.183594 2.25 6 2.25 M 6 1.5 C 4.757812 1.5 3.75 2.507812 3.75 3.75 C 3.75 3.761719 3.753906 3.777344 3.753906 3.789062 C 3.632812 3.761719 3.503906 3.75 3.375 3.75 C 2.339844 3.75 1.5 4.589844 1.5 5.625 C 1.5 5.765625 1.519531 5.902344 1.546875 6.03125 C 0.667969 6.1875 0 6.953125 0 7.875 C 0 8.910156 0.839844 9.75 1.875 9.75 L 9.375 9.75 C 10.824219 9.75 12 8.574219 12 7.125 C 12 6.070312 11.371094 5.164062 10.476562 4.75 C 10.484375 4.664062 10.5 4.585938 10.5 4.5 C 10.5 3.257812 9.492188 2.25 8.25 2.25 C 8.066406 2.25 7.890625 2.277344 7.722656 2.320312 C 7.308594 1.824219 6.695312 1.5 6 1.5 Z M 6 1.5 "/>
</g>
</svg>
