<?xml version="1.0" encoding="UTF-8"?>
<svg xmlns="http://www.w3.org/2000/svg" xmlns:xlink="http://www.w3.org/1999/xlink" width="22.5pt" height="22.5pt" viewBox="0 0 22.5 22.5" version="1.1">
<g id="surface2750">
<path style=" stroke:none;fill-rule:nonzero;fill:rgb(71.372551%,78.823531%,83.92157%);fill-opacity:1;" d="M 1.5625 21.3125 C 1.328125 21.3125 1.109375 21.222656 0.941406 21.054688 C 0.777344 20.890625 0.6875 20.671875 0.6875 20.4375 C 0.6875 20.203125 0.777344 19.984375 0.941406 19.820312 L 12.066406 9.214844 L 12.789062 9.9375 L 2.167969 21.066406 C 2.015625 21.222656 1.796875 21.3125 1.5625 21.3125 Z M 1.5625 21.3125 "/>
<path style=" stroke:none;fill-rule:nonzero;fill:rgb(47.058824%,54.509807%,61.176473%);fill-opacity:1;" d="M 7.136719 14.863281 L 1.695312 20.570312 C 1.65625 20.605469 1.613281 20.625 1.5625 20.625 C 1.527344 20.625 1.476562 20.617188 1.429688 20.570312 C 1.355469 20.496094 1.355469 20.378906 1.40625 20.328125 L 7.136719 14.863281 M 12.078125 8.253906 L 0.457031 19.332031 C -0.152344 19.945312 -0.152344 20.933594 0.457031 21.542969 C 0.761719 21.847656 1.160156 22 1.5625 22 C 1.960938 22 2.359375 21.847656 2.667969 21.542969 L 13.75 9.925781 Z M 12.078125 8.253906 "/>
<path style=" stroke:none;fill-rule:nonzero;fill:rgb(81.960785%,92.941177%,100%);fill-opacity:1;" d="M 13.75 0.6875 C 9.574219 0.6875 6.1875 4.074219 6.1875 8.25 C 6.1875 12.425781 9.574219 15.8125 13.75 15.8125 C 17.925781 15.8125 21.3125 12.425781 21.3125 8.25 C 21.3125 4.074219 17.925781 0.6875 13.75 0.6875 Z M 13.75 0.6875 "/>
<path style=" stroke:none;fill-rule:nonzero;fill:rgb(47.058824%,54.509807%,61.176473%);fill-opacity:1;" d="M 13.75 1.375 C 17.539062 1.375 20.625 4.460938 20.625 8.25 C 20.625 12.039062 17.539062 15.125 13.75 15.125 C 9.960938 15.125 6.875 12.039062 6.875 8.25 C 6.875 4.460938 9.960938 1.375 13.75 1.375 M 13.75 0 C 9.191406 0 5.5 3.691406 5.5 8.25 C 5.5 12.808594 9.191406 16.5 13.75 16.5 C 18.308594 16.5 22 12.808594 22 8.25 C 22 3.691406 18.308594 0 13.75 0 Z M 13.75 0 "/>
<path style=" stroke:none;fill-rule:nonzero;fill:rgb(21.176471%,25.098041%,30.19608%);fill-opacity:1;" d="M 12.375 4.125 L 15.125 4.125 L 15.125 12.375 L 12.375 12.375 Z M 12.375 4.125 "/>
<path style=" stroke:none;fill-rule:nonzero;fill:rgb(21.176471%,25.098041%,30.19608%);fill-opacity:1;" d="M 17.875 6.875 L 17.875 9.625 L 9.625 9.625 L 9.625 6.875 Z M 17.875 6.875 "/>
</g>
</svg>
