<?xml version="1.0" encoding="UTF-8" standalone="no"?>
<svg
   version="1.0"
   width="1024.000000pt"
   height="1024.000000pt"
   viewBox="0 0 1024.000000 1024.000000"
   preserveAspectRatio="xMidYMid meet"
   id="svg6"
   sodipodi:docname="icon.svg"
   inkscape:version="1.1 (c4e8f9e, 2021-05-24)"
   xmlns:inkscape="http://www.inkscape.org/namespaces/inkscape"
   xmlns:sodipodi="http://sodipodi.sourceforge.net/DTD/sodipodi-0.dtd"
   xmlns:xlink="http://www.w3.org/1999/xlink"
   xmlns="http://www.w3.org/2000/svg"
   xmlns:svg="http://www.w3.org/2000/svg">
  <defs
     id="defs10">
    <linearGradient
       inkscape:collect="always"
       id="linearGradient528">
      <stop
         style="stop-color:#0C0C0D;stop-opacity:1;"
         offset="0"
         id="stop524" />
      <stop
         style="stop-color:#2F2F32;stop-opacity:1"
         offset="1"
         id="stop526" />
    </linearGradient>
    <linearGradient
       inkscape:collect="always"
       xlink:href="#linearGradient528"
       id="linearGradient530"
       x1="5107.2319"
       y1="1149.1272"
       x2="5171.0723"
       y2="8758.9023"
       gradientUnits="userSpaceOnUse" />
  </defs>
  <sodipodi:namedview
     id="namedview8"
     pagecolor="#ffffff"
     bordercolor="#666666"
     borderopacity="1.0"
     inkscape:pageshadow="2"
     inkscape:pageopacity="0.0"
     inkscape:pagecheckerboard="0"
     inkscape:document-units="pt"
     showgrid="false"
     inkscape:zoom="0.58740234"
     inkscape:cx="681.81546"
     inkscape:cy="682.66667"
     inkscape:window-width="1792"
     inkscape:window-height="1120"
     inkscape:window-x="0"
     inkscape:window-y="0"
     inkscape:window-maximized="0"
     inkscape:current-layer="g4" />
  <g
     transform="translate(0.000000,1024.000000) scale(0.100000,-0.100000)"
     fill="#000000"
     stroke="none"
     id="g4">
    <path
       d="M2880 9229 c-388 -21 -643 -77 -885 -194 -351 -170 -621 -439 -790 -789 -118 -244 -171 -484 -195 -891 -14 -233 -13 -4253 0 -4480 25 -407 75 -635 195 -880 170 -350 405 -592 747 -769 216 -113 409 -166 728 -203 144 -17 312 -18 2440 -18 2510 0 2407 -2 2716 60 294 59 579 201 803 398 273 241 468 590 540 967 56 291 55 214 59 2540 4 2460 1 2562 -69 2889 -94 434 -350 814 -709 1053 -311 207 -602 289 -1125 318 -214 11 -4238 11 -4455 -1z m1287 -3006 c44 -126 201 -573 349 -995 147 -423 271 -768 274 -768 3 0 161 424 350 943 189 518 352 966 363 995 l20 52 198 0 c110 0 199 -2 199 -4 0 -3 526 -1477 687 -1924 14 -40 27 -71 29 -69 3 3 349 967 646 1800 l71 197 206 -2 206 -3 200 -582 200 -583 173 0 172 0 0 -150 0 -150 -324 0 -323 0 -153 378 c-84 207 -158 388 -165 401 -11 22 -15 15 -53 -90 -23 -63 -187 -512 -365 -999 l-324 -885 -168 0 -168 0 -112 295 c-62 162 -231 606 -375 985 -144 380 -265 696 -270 704 -4 8 -22 -29 -48 -100 -23 -63 -188 -512 -365 -999 l-324 -885 -174 -3 -175 -2 -206 552 c-114 304 -282 755 -374 1001 -91 246 -168 446 -170 444 -4 -3 -456 -1212 -666 -1780 l-81 -217 -175 2 -175 3 -216 597 -216 598 -307 0 -308 0 0 150 0 150 467 -2 467 -3 145 -407 c79 -225 148 -408 152 -408 3 0 21 42 39 93 58 167 660 1851 670 1875 9 22 12 22 213 22 l204 0 80 -227z"
       id="path2"
       style="fill-opacity:1;fill:url(#linearGradient530)" />
  </g>
  <path
     style="fill:#a0a0a0;stroke:none;stroke-width:1.70241"
     d="m 342.11427,779.76124 -28.87071,-80.04759 -41.28346,-0.0114 -41.28346,-0.0114 v -18.72651 -18.72652 h 61.77263 61.77263 l 16.85088,47.24189 c 20.28381,56.86619 22.67897,62.75496 24.69523,60.71626 0.84718,-0.85662 22.30647,-59.77993 47.6873,-130.94069 26.45991,-74.18618 47.36651,-130.30954 49.0056,-131.55453 2.08276,-1.58202 9.51034,-2.04406 27.36734,-1.70242 l 24.50875,0.46892 24.48754,69.79883 c 69.58934,198.35626 68.62578,195.70945 70.54865,193.78658 1.41812,-1.41813 36.45923,-95.83079 77.48541,-208.77204 l 20.28521,-55.84331 24.97351,0.51497 c 13.73542,0.28323 25.44086,0.98448 26.01205,1.55833 0.57121,0.57386 22.06321,59.88707 47.75999,131.80716 25.6968,71.92007 47.35996,131.40229 48.14034,132.18267 1.29368,1.29368 11.23702,-25.70683 75.97313,-206.30003 l 21.05369,-58.73316 25.30218,0.42442 c 13.9162,0.23344 26.126,0.73264 27.133,1.10935 1.007,0.3767 13.6474,35.23134 28.0898,77.45476 l 26.2589,76.76985 23.4081,0.006 23.4082,0.006 v 18.72652 18.72651 l -42.9859,-0.0226 -42.9858,-0.0226 -20.2906,-50.13716 c -11.1598,-27.57543 -20.8954,-51.11597 -21.6348,-52.31231 -0.9204,-1.48918 -1.8961,-1.6234 -3.0939,-0.42561 -0.9622,0.96226 -22.76342,59.1783 -48.44706,129.36898 -25.68364,70.19068 -47.22666,128.96008 -47.87338,130.59865 -1.03371,2.619 -3.78724,2.97921 -22.77404,2.97921 H 862.97308 L 815.54974,735.01567 c -51.7016,-135.95132 -52.97308,-139.17195 -54.9443,-139.17195 -1.75372,0 -2.64299,2.3534 -54.2134,143.47378 l -44.03178,120.49121 -22.82063,-0.47126 -22.82061,-0.47128 -2.92891,-7.66085 c -1.6109,-4.21347 -23.87471,-63.77656 -49.47512,-132.36243 -25.6004,-68.58587 -47.03806,-124.70158 -47.63923,-124.70158 -0.60118,0 -18.60177,46.9227 -40.00133,104.27266 -21.39955,57.34995 -43.64065,116.91305 -49.42464,132.36242 l -10.51635,28.08978 -22.87423,0.47133 -22.87423,0.47133 z"
     id="path86"
     transform="scale(0.75)" />
  <path
     style="fill:#ffffff;stroke:none;stroke-width:1.70241"
     d="m 370.93015,857.16376 c -0.33689,-0.93633 -13.17225,-36.55927 -28.52302,-79.1621 l -27.9105,-77.45968 -41.90999,-0.45535 -41.91,-0.45534 v -18.718 -18.71802 l 61.45731,0.44684 61.45731,0.44683 10.88522,30.6434 c 23.91898,67.33521 29.27377,80.3097 31.92707,77.35835 0.37078,-0.41244 9.53792,-25.26459 20.37143,-55.22702 10.83351,-29.96242 29.25397,-80.90706 40.93436,-113.2103 11.68039,-32.30325 24.42164,-66.96858 28.3139,-77.03408 l 7.07682,-18.30092 h 25.18197 25.18196 l 3.55274,9.78886 c 1.95399,5.38388 19.97428,56.52004 40.04507,113.63591 43.99932,125.20977 49.12962,139.17212 51.41061,139.91657 2.00607,0.6547 33.70153,-82.28389 32.30736,-84.53972 -0.49632,-0.80306 -0.16973,-1.71705 0.72584,-2.03111 1.36837,-0.47988 25.69563,-65.54809 58.45193,-156.34158 7.60881,-21.08999 7.72465,-21.27929 12.96467,-21.18556 2.90799,0.052 14.00555,0.24354 24.66123,0.42561 l 19.37396,0.33102 7.15324,19.15212 c 3.93429,10.53367 23.12943,63.58504 42.65589,117.89194 47.99821,133.49242 46.6744,130.10455 49.08108,125.60763 4.05461,-7.5761 12.03039,-29.97892 11.16914,-31.37248 -0.49418,-0.79957 -0.17654,-1.45377 0.70583,-1.45377 0.88238,0 1.99681,-1.34065 2.4765,-2.97922 0.86672,-2.96061 73.82303,-205.77873 78.99691,-219.61097 l 2.70632,-7.23525 h 18.25759 c 10.0417,0 21.6702,0.46774 25.841,1.03941 l 7.5833,1.03941 4.8517,13.00548 c 2.6685,7.15301 14.611,41.35061 26.5391,75.99467 l 21.6874,62.98919 23.9971,0.47235 23.9972,0.47234 v 18.70901 18.709 l -42.6714,-0.45483 -42.6715,-0.45483 -18.35,-45.11388 c -24.206,-59.51081 -23.471,-57.88197 -26.1184,-57.88197 -1.9961,0 -6.97844,11.04554 -8.44696,18.72652 -0.26852,1.40449 -0.93883,2.93666 -1.48957,3.40482 -0.98279,0.83543 -29.18215,76.6262 -68.82893,184.98993 l -20.03327,54.75552 -17.20621,1.17269 c -9.46341,0.64498 -19.0028,0.90276 -21.19862,0.57283 -3.61446,-0.54307 -8.38929,-12.12338 -50.43654,-122.32222 -57.8203,-151.53748 -53.73875,-141.30009 -56.33491,-141.30009 -3.0313,0 -4.66449,4.29773 -77.93403,205.08308 l -21.10104,57.82456 -21.93013,-0.52363 c -12.06158,-0.288 -22.17519,-0.76258 -22.47471,-1.05464 -0.29952,-0.29207 -21.08567,-55.1887 -46.19146,-121.99254 -53.65906,-142.78111 -52.98571,-141.03924 -54.5204,-141.03924 -1.82861,0 -5.3162,8.55892 -4.21418,10.34204 0.53532,0.86616 0.25136,1.57484 -0.63101,1.57484 -0.88238,0 -2.01244,1.34065 -2.51123,2.97922 -1.61567,5.30757 -92.80329,247.52409 -93.39806,248.08794 -1.60122,1.51802 -44.48848,1.55459 -45.03399,0.0385 z"
     id="path125"
     transform="scale(0.75)" />
  <path
     style="fill:#ffffff;stroke-width:1.70241"
     d="m 374.52741,856.41585 c -2.65373,-1.0772 -9.5966,-18.56901 -31.37826,-79.05417 l -27.97051,-77.67091 h -42.251 -42.251 V 680.72173 661.7527 l 10.46419,1.09373 c 5.75531,0.60154 33.22819,1.09372 61.05086,1.09372 h 50.58666 l 15.7927,43.83707 c 16.72089,46.41352 24.40725,65.11721 26.7602,65.11721 1.58465,0 7.34127,-15.37564 54.81466,-146.40731 17.80983,-49.15711 34.92614,-95.88828 38.03622,-103.84705 l 5.65471,-14.47049 h 24.54408 24.5441 l 29.36463,83.41812 c 49.19304,139.746 58.82234,166.56447 62.31533,173.55365 3.16513,6.3332 3.49246,6.53238 5.72272,3.48229 2.74255,-3.75064 19.86376,-47.08151 27.84948,-70.48228 3.00681,-8.81095 8.90738,-24.89872 13.11239,-35.75062 4.20499,-10.8519 18.00401,-48.07586 30.6645,-82.71992 12.66049,-34.64405 24.11278,-65.11734 25.44954,-67.71842 l 2.43048,-4.72922 23.30185,0.4732 23.30187,0.4732 14.82901,40.85785 c 8.15596,22.47182 29.1044,80.31122 46.55208,128.532 17.4477,48.22079 32.91518,89.52125 34.37218,91.77882 l 2.64912,4.10466 2.2718,-4.10466 c 1.24949,-2.25757 4.31759,-10.23335 6.81797,-17.72395 2.5004,-7.49061 5.12378,-14.38537 5.82972,-15.3217 0.70594,-0.93632 13.36617,-35.41014 28.13387,-76.60848 14.76768,-41.19833 33.11037,-92.14297 40.76155,-113.2103 l 13.91119,-38.30424 21.9937,0.48649 c 12.0965,0.26756 23.5258,0.81153 25.3984,1.2088 3.3505,0.7108 10.1329,18.96573 48.8469,131.47367 l 7.1607,20.80986 23.9198,0.47027 23.9197,0.47027 0.4856,18.54055 0.4856,18.54053 -7.9584,-1.09082 c -4.3772,-0.59996 -23.4731,-1.09084 -42.4355,-1.09084 h -34.4769 l -2.8821,-7.23524 c -1.5851,-3.97939 -10.9539,-26.96193 -20.8196,-51.07232 -19.8563,-48.52621 -21.4952,-50.69047 -27.07298,-35.75063 -1.66048,4.44755 -7.71361,20.34381 -13.45141,35.32503 -5.73781,14.98121 -26.08449,69.90453 -45.21485,122.05182 -28.18889,76.83981 -35.42793,94.98844 -38.18732,95.73735 -1.87265,0.50825 -10.76954,0.93457 -19.77084,0.94735 l -16.36601,0.0233 -4.36224,-9.78886 C 855.18518,833.43065 846.59747,811.45742 810.53056,717.0987 758.71682,581.54285 762.62123,590.39043 757.87343,597.77505 c -3.13097,4.86983 -48.37895,126.44237 -95.209,255.80815 l -1.78518,4.93149 -21.28808,-1.07894 c -11.70845,-0.59341 -21.4592,-1.2804 -21.6683,-1.52667 -0.20911,-0.24625 -21.61418,-56.75497 -47.56684,-125.57492 C 516.19636,586.71622 519.11989,594.14131 516.732,594.14131 c -1.00418,0 -2.67556,2.10674 -3.7142,4.68163 -1.03862,2.5749 -2.93999,6.97989 -4.22528,9.78886 -1.83309,4.00619 -73.27076,193.64738 -89.55413,237.73384 -3.25081,8.80137 -4.06424,9.69591 -9.65843,10.62132 -8.69467,1.43833 -31.01611,1.08738 -35.05255,-0.55111 z"
     id="path238"
     transform="scale(0.75)" />
  <path
     style="fill:#ffffff;stroke-width:1.70241"
     d="m 374.50383,856.40714 c -2.68545,-1.08943 -9.50586,-18.27366 -31.37655,-79.0542 l -27.94522,-77.66217 h -42.25271 -42.25271 l -5.1e-4,-18.30091 -5e-4,-18.30092 60.86168,0.58454 c 33.47393,0.3215 61.07611,0.79128 61.33817,1.04395 0.26207,0.25268 6.51052,17.22655 13.88545,37.71971 17.49435,48.61255 23.52003,64.12936 26.43567,68.0748 2.23991,3.03107 2.59938,2.75365 5.73671,-4.42715 1.84087,-4.21347 21.40265,-57.45636 43.47063,-118.31754 22.06796,-60.86118 42.66818,-117.16841 45.77825,-125.12718 l 5.65465,-14.47049 h 24.52493 24.52493 l 43.63294,123.42477 c 23.9981,67.88362 45.34842,127.25519 47.44514,131.93682 3.60828,8.05666 3.94374,8.33405 6.27036,5.18471 2.80938,-3.80279 19.80273,-46.72368 27.94204,-70.57452 3.00681,-8.81095 8.74743,-24.51568 12.75691,-34.89941 4.00948,-10.38374 17.81447,-47.6077 30.67773,-82.71992 C 724.47508,545.40981 736.07626,514.5749 737.39221,512 l 2.39265,-4.68163 h 22.83835 c 12.5611,0 23.2782,0.71169 23.81579,1.58152 0.53758,0.86984 19.64147,53.15513 42.45306,116.18953 57.60674,159.18243 54.37139,151.18695 58.30554,144.08979 1.20296,-2.1701 3.84578,-8.92518 5.87296,-15.0113 2.0272,-6.08611 5.03658,-14.13 6.68753,-17.87531 1.65096,-3.7453 20.24825,-54.68994 41.32733,-113.21031 21.07908,-58.52036 39.16841,-108.56597 40.19851,-111.21245 l 1.87292,-4.8118 21.69835,1.07471 c 11.9341,0.59109 23.2306,1.38274 25.1032,1.75923 3.4072,0.68501 5.7238,6.91198 49.2171,132.29817 l 6.9233,19.95906 23.8534,0.46987 23.8533,0.46986 0.4856,18.54055 0.4856,18.54053 -7.9584,-1.09082 c -4.3772,-0.59996 -23.4493,-1.09084 -42.3825,-1.09084 h -34.424 l -17.5306,-42.98587 c -20.451,-50.14685 -24.7083,-59.15877 -27.9468,-59.15877 -1.3113,0 -3.7275,3.63891 -5.36934,8.08645 -1.64185,4.44755 -5.20709,13.7977 -7.92276,20.77811 -5.07764,13.05177 -43.74707,117.44918 -70.33833,189.89521 -8.24827,22.47182 -15.81347,41.42069 -16.8116,42.1086 -0.9981,0.68791 -9.94553,1.26247 -19.88316,1.27681 l -18.06842,0.0261 -4.36224,-9.78886 C 855.13062,833.30817 846.6639,811.62575 807.58784,709.4494 768.32358,606.78091 762.77159,593.35767 760.22264,594.93301 c -3.36814,2.08162 -13.66263,29.12973 -73.88743,194.13432 -12.64467,34.64406 -23.51291,64.32984 -24.15164,65.96841 -1.28576,3.29849 -11.99522,3.90744 -33.30884,1.89399 l -11.23165,-1.06105 -3.50949,-9.56692 c -5.78506,-15.77019 -88.2816,-233.60414 -91.92141,-242.72048 -4.0185,-10.06487 -6.49709,-11.39003 -9.15018,-4.89206 -1.08136,2.64844 -2.93731,7.11361 -4.12436,9.92258 -1.18704,2.80898 -21.46531,56.43492 -45.06278,119.16875 -23.59749,62.73383 -44.10527,117.23925 -45.57287,121.12316 -2.29272,6.06761 -3.52435,7.20326 -8.7495,8.06771 -8.69244,1.43808 -30.99803,1.07895 -35.04866,-0.56428 z"
     id="path277"
     transform="scale(0.75)" />
  <path
     style="fill:#ffffff;stroke-width:1.70241"
     d="m 374.50383,856.40714 c -2.68545,-1.08943 -9.50586,-18.27366 -31.37655,-79.0542 l -27.94522,-77.66217 h -42.25271 -42.25271 l -5.1e-4,-18.30091 -5e-4,-18.30092 60.86168,0.58454 c 33.47393,0.3215 61.07611,0.79128 61.33817,1.04395 0.26207,0.25268 6.51052,17.22655 13.88545,37.71971 17.49435,48.61255 23.52003,64.12936 26.43567,68.0748 2.23991,3.03107 2.59938,2.75365 5.73671,-4.42715 1.84087,-4.21347 21.40265,-57.45636 43.47063,-118.31754 22.06796,-60.86118 42.66818,-117.16841 45.77825,-125.12718 l 5.65465,-14.47049 h 24.52493 24.52493 l 43.63294,123.42477 c 23.9981,67.88362 45.34842,127.25519 47.44514,131.93682 3.60828,8.05666 3.94374,8.33405 6.27036,5.18471 2.80938,-3.80279 19.80273,-46.72368 27.94204,-70.57452 3.00681,-8.81095 8.74743,-24.51568 12.75691,-34.89941 4.00948,-10.38374 17.81447,-47.6077 30.67773,-82.71992 C 724.47508,545.40981 736.07626,514.5749 737.39221,512 l 2.39265,-4.68163 h 22.83835 c 12.5611,0 23.2782,0.71169 23.81579,1.58152 0.53758,0.86984 19.64147,53.15513 42.45306,116.18953 57.60674,159.18243 54.37139,151.18695 58.30554,144.08979 1.20296,-2.1701 3.84578,-8.92518 5.87296,-15.0113 2.0272,-6.08611 5.03658,-14.13 6.68753,-17.87531 1.65096,-3.7453 20.24825,-54.68994 41.32733,-113.21031 21.07908,-58.52036 39.16841,-108.56597 40.19851,-111.21245 l 1.87292,-4.8118 21.69835,1.07471 c 11.9341,0.59109 23.2306,1.38274 25.1032,1.75923 3.4072,0.68501 5.7238,6.91198 49.2171,132.29817 l 6.9233,19.95906 23.8534,0.46987 23.8533,0.46986 0.4856,18.54055 0.4856,18.54053 -7.9584,-1.09082 c -4.3772,-0.59996 -23.4493,-1.09084 -42.3825,-1.09084 h -34.424 l -17.5306,-42.98587 c -20.451,-50.14685 -24.7083,-59.15877 -27.9468,-59.15877 -1.3113,0 -3.7275,3.63891 -5.36934,8.08645 -1.64185,4.44755 -5.20709,13.7977 -7.92276,20.77811 -5.07764,13.05177 -43.74707,117.44918 -70.33833,189.89521 -8.24827,22.47182 -15.81347,41.42069 -16.8116,42.1086 -0.9981,0.68791 -9.94553,1.26247 -19.88316,1.27681 l -18.06842,0.0261 -4.36224,-9.78886 C 855.13062,833.30817 846.6639,811.62575 807.58784,709.4494 768.32358,606.78091 762.77159,593.35767 760.22264,594.93301 c -3.36814,2.08162 -13.66263,29.12973 -73.88743,194.13432 -12.64467,34.64406 -23.51291,64.32984 -24.15164,65.96841 -1.28576,3.29849 -11.99522,3.90744 -33.30884,1.89399 l -11.23165,-1.06105 -3.50949,-9.56692 c -5.78506,-15.77019 -88.2816,-233.60414 -91.92141,-242.72048 -4.0185,-10.06487 -6.49709,-11.39003 -9.15018,-4.89206 -1.08136,2.64844 -2.93731,7.11361 -4.12436,9.92258 -1.18704,2.80898 -21.46531,56.43492 -45.06278,119.16875 -23.59749,62.73383 -44.10527,117.23925 -45.57287,121.12316 -2.29272,6.06761 -3.52435,7.20326 -8.7495,8.06771 -8.69244,1.43808 -30.99803,1.07895 -35.04866,-0.56428 z"
     id="path316"
     transform="scale(0.75)" />
</svg>
