<?xml version="1.0" encoding="UTF-8"?>
<svg version="1.1" viewBox="0 0 512 512" xmlns="http://www.w3.org/2000/svg" xmlns:xlink="http://www.w3.org/1999/xlink">
<defs>
<linearGradient id="d" x1="50%" x2="50%" y2="98.958%">
<stop stop-color="#2F2F31" offset="0"/>
<stop stop-color="#0D0B0D" offset="1"/>
</linearGradient>
<path id="a" d="m412 128.31c0-4.891 0-9.7825-0.028049-14.674-0.0245-4.1205-0.072-8.24-0.184-12.358-0.242-8.9765-0.77149-18.03-2.368-26.906-1.619-9.0045-4.263-17.385-8.4294-25.566-4.096-8.0415-9.4464-15.4-15.83-21.779-6.3825-6.3795-13.743-11.726-21.787-15.82-8.1899-4.1675-16.579-6.8105-25.594-8.429-8.8774-1.594-17.933-2.1225-26.91-2.365-4.1215-0.1115-8.2429-0.1585-12.365-0.184-4.894-0.03-9.7879-0.0275-14.682-0.0275l-56.824-0.2035h-42.5l-55.818 0.2035c-4.9035 0-9.8069-0.0025-14.71 0.0275-4.131 0.0255-8.2599 0.0725-12.389 0.184-8.9974 0.2425-18.074 0.7715-26.972 2.3675-9.0264 1.618-17.428 4.26-25.629 8.4245-8.0614 4.094-15.438 9.4415-21.834 15.822-6.395 6.379-11.755 13.736-15.859 21.776-4.178 8.1855-6.8269 16.571-8.4499 25.58-1.598 8.873-2.1275 17.923-2.371 26.896-0.111 4.119-0.159 8.2385-0.184 12.358-0.03 4.892-0.2815 10.968-0.2815 15.86v55.045 42.955l0.254 56.214c0 4.898-2e-3 9.796 0.0275 14.694 0.025 4.126 0.072999 8.251 0.1845 12.375 0.243 8.988 0.77349 18.054 2.373 26.943 1.6225 9.0165 4.271 17.409 8.4454 25.601 4.104 8.053 9.4654 15.421 15.861 21.809 6.3955 6.3885 13.77 11.742 21.83 15.842 8.2059 4.173 16.612 6.8195 25.644 8.44 8.8944 1.5965 17.968 2.126 26.962 2.3685 4.1295 0.1115 8.2589 0.159 12.39 0.184 4.9035 0.0295 9.8064 0.0295 14.71 0.0295h56.323 42.605 56.214c4.894 0 9.7879 0 14.682-0.0295 4.1225-0.025 8.2439-0.0725 12.365-0.184 8.9799-0.243 18.039-0.773 26.92-2.3705 9.0089-1.6205 17.394-4.266 25.58-8.4365 8.0459-4.099 15.408-9.454 21.791-15.843 6.383-6.3875 11.733-13.754 15.829-21.806 4.169-8.196 6.8129-16.592 8.4329-25.615 1.595-8.885 2.124-17.948 2.3665-26.932 0.1115-4.125 0.159-8.25 0.1835-12.375 0.028049-4.898 0.028049-9.796 0.028049-14.694v-56.214-43-56.186"/>
<filter id="e" x="-2.4%" y="-1.2%" width="104.9%" height="104.9%">
<feOffset dx="0" dy="5" in="SourceAlpha" result="shadowOffsetOuter1"/>
<feGaussianBlur in="shadowOffsetOuter1" result="shadowBlurOuter1" stdDeviation="2.5"/>
<feColorMatrix in="shadowBlurOuter1" values="0 0 0 0 0   0 0 0 0 0   0 0 0 0 0  0 0 0 0.3 0"/>
</filter>
<linearGradient id="c" x1="50%" x2="50%" y2="100%">
<stop stop-color="#EFEFEF" offset="0"/>
<stop stop-color="#fff" offset="1"/>
</linearGradient>
</defs>
<g fill="none" fill-rule="evenodd">
<g transform="translate(0 -590)">
<g transform="translate(0 590)">
<g transform="translate(50 50)">
<mask id="b" fill="white">
<use xlink:href="#a"/>
</mask>
<use fill="black" filter="url(#e)" xlink:href="#a"/>
<use fill="url(#d)" fill-rule="evenodd" xlink:href="#a"/>
<g fill="url(#c)" fill-rule="nonzero" mask="url(#b)">
<path d="m380.95 285.87c0.015239-0.009143 0.033525-0.015239 0.048764-0.024382l-0.73756-1.3349-0.53031-1.4294c-8.805 3.2733-16.699 3.0904-24.132-0.56079-23.763-11.67-37.661-56.32-51.108-99.498-13.005-41.761-25.281-81.211-45.97-86.825-8.4576-2.3011-17.491 1.0698-27.625 10.308-14.559 13.867-28.131 43.644-41.264 72.442-15.672 34.382-31.877 69.931-47.463 71.4-10.503 1.0484-21.319-13.014-32.733-27.838-19.082-24.778-42.833-55.616-78.206-33.358l0.69794 1.1124c-0.25601 0.17677-0.50898 0.32002-0.76499 0.50288l0.73147 1.0332c-0.26516 0.20115-0.52726 0.36878-0.79242 0.57603l0.7589 0.9631c-0.27125 0.22554-0.5425 0.4145-0.81376 0.64918l0.77413 0.893c-0.2743 0.24992-0.5486 0.45716-0.8229 0.71623l2.0908 2.2218c8.0309-7.5707 15.516-10.533 22.852-9.0702 19.308 3.8554 34.924 38.722 48.7 69.483 13.919 31.075 25.979 58.005 41.288 58.005 0.33526 0 0.67356-0.012191 1.0149-0.039621 21.782-1.6854 29.844-30.816 39.179-64.549 6.6228-23.937 14.129-51.059 27.707-70.428 12.078-16.485 22.858-24.099 32.968-23.251 18.095 1.5056 32.416 29.963 47.579 60.093 16.056 31.907 32.663 64.893 56.451 72.205 9.4725 2.9137 19.588 1.4416 30.051-4.3644 0.006095 0 0.012191-0.003048 0.018287-0.006096 0.018286-0.009143 0.036573-0.015239 0.051812-0.02743zm-275.19-44.12c13.374 23.73 24.867 44.214 38.935 43.041 19.609-1.6641 31.825-34.65 44.76-69.568 9.8352-26.552 20.006-54.01 33.97-70.26 10.506-12.228 19.78-17.482 28.317-16.05 18.305 3.06 31.572 36.415 45.619 71.726 7.7444 19.463 15.629 39.237 24.775 55.232-8.5581-14.032-16.229-31.118-23.773-47.938-14.998-33.471-29.173-65.085-48.972-67.493-10.381-1.274-21.252 5.5256-33.16 20.771-14.224 18.201-22.974 45.18-31.432 71.272-10.585 32.639-20.579 63.47-39.228 64.978-12.801 1.0911-24.894-23.133-37.655-48.719-5.361-10.753-10.795-21.63-16.537-31.313 5.0471 7.7932 9.8169 16.232 14.379 24.321zm-19.049-36.311c7.0525 8.3814 13.547 18.341 19.655 27.744 12.932 19.896 24.126 37.067 37.207 35.906 18.457-1.6488 32.48-35.543 47.326-71.425 11.396-27.537 23.175-56.012 37.308-70.818 9.8352-10.301 18.448-14.489 26.357-12.788 18.579 3.9895 31.258 39.938 44.68 77.996 6.7386 19.103 13.584 38.502 21.49 54.893-7.3665-14.321-14.008-30.996-20.542-47.432-14.37-36.131-27.945-70.26-47.941-73.604-9.6797-1.6123-19.875 3.9621-31.139 17.071-14.321 16.662-24.586 44.382-34.516 71.187-12.587 33.983-24.48 66.091-42.16 67.59-12.017 1.0149-23.693-19.631-36.022-41.498-6.6899-11.868-13.819-24.489-21.703-34.821zm20.307 18.933c12.459 16.181 23.197 30.167 35.433 29.015 17.342-1.6336 33.181-36.381 49.95-73.165 13.008-28.533 26.458-58.036 40.566-71.476 9.2774-8.4576 17.375-11.594 24.751-9.5974 19.073 5.1751 31.109 43.848 43.86 84.795 6.0986 19.591 12.295 39.469 19.506 56.567-6.8301-15.093-12.941-32.398-18.966-49.468-13.718-38.887-26.674-75.615-46.92-79.961-9.0245-1.9353-18.579 2.5327-29.201 13.666-14.529 15.218-26.418 43.961-37.917 71.757-14.483 35.001-28.164 68.066-44.781 69.547-11.258 1.0393-22.502-16.254-34.382-34.534-7.8236-12.033-16.254-24.973-25.818-34.55 8.6831 7.6347 16.495 17.762 23.919 27.406zm140.03-69.437c-11.228-0.93871-22.922 7.0739-35.699 24.513-13.898 19.823-21.475 47.219-28.168 71.391-9.0275 32.626-16.827 60.803-36.476 62.321-13.648 1.0576-26.101-26.738-39.286-56.177-4.0292-8.997-8.0979-18.073-12.307-26.607 3.4775 6.51 6.8301 13.215 10.073 19.725 13.474 27.015 25.15 50.444 39.554 50.441 0.35659 0 0.71623-0.015239 1.0789-0.045717 20.673-1.6732 30.502-31.98 41.879-67.078 8.3783-25.839 17.043-52.559 30.935-70.333 11.198-14.331 21.155-20.743 30.392-19.622 18.089 2.2005 31.922 33.05 46.561 65.713 8.36 18.649 16.879 37.591 26.677 52.553-9.0214-12.98-17.168-29.137-25.168-45.031-15.559-30.917-30.255-60.117-50.047-61.763z"/>
</g>
</g>
</g>
</g>
</g>
</svg>
