<?xml version="1.0" encoding="UTF-8"?>
<svg version="1.1" viewBox="0 0 512 512" xmlns="http://www.w3.org/2000/svg" xmlns:xlink="http://www.w3.org/1999/xlink">
<defs>
<linearGradient id="d" x1="50%" x2="50%" y2="98.958%">
<stop stop-color="#2F2F31" offset="0"/>
<stop stop-color="#0D0B0D" offset="1"/>
</linearGradient>
<path id="a" d="m412 128.31c0-4.891 0-9.7825-0.028049-14.674-0.0245-4.1205-0.072-8.24-0.184-12.358-0.242-8.9765-0.77149-18.03-2.368-26.906-1.619-9.0045-4.263-17.385-8.4294-25.566-4.096-8.0415-9.4464-15.4-15.83-21.779-6.3825-6.3795-13.743-11.726-21.787-15.82-8.1899-4.1675-16.579-6.8105-25.594-8.429-8.8774-1.594-17.933-2.1225-26.91-2.365-4.1215-0.1115-8.2429-0.1585-12.365-0.184-4.894-0.03-9.7879-0.0275-14.682-0.0275l-56.824-0.2035h-42.5l-55.818 0.2035c-4.9035 0-9.8069-0.0025-14.71 0.0275-4.131 0.0255-8.2599 0.0725-12.389 0.184-8.9974 0.2425-18.074 0.7715-26.972 2.3675-9.0264 1.618-17.428 4.26-25.629 8.4245-8.0614 4.094-15.438 9.4415-21.834 15.822-6.395 6.379-11.755 13.736-15.859 21.776-4.178 8.1855-6.8269 16.571-8.4499 25.58-1.598 8.873-2.1275 17.923-2.371 26.896-0.111 4.119-0.159 8.2385-0.184 12.358-0.03 4.892-0.2815 10.968-0.2815 15.86v55.045 42.955l0.254 56.214c0 4.898-2e-3 9.796 0.0275 14.694 0.025 4.126 0.072999 8.251 0.1845 12.375 0.243 8.988 0.77349 18.054 2.373 26.943 1.6225 9.0165 4.271 17.409 8.4454 25.601 4.104 8.053 9.4654 15.421 15.861 21.809 6.3955 6.3885 13.77 11.742 21.83 15.842 8.2059 4.173 16.612 6.8195 25.644 8.44 8.8944 1.5965 17.968 2.126 26.962 2.3685 4.1295 0.1115 8.2589 0.159 12.39 0.184 4.9035 0.0295 9.8064 0.0295 14.71 0.0295h56.323 42.605 56.214c4.894 0 9.7879 0 14.682-0.0295 4.1225-0.025 8.2439-0.0725 12.365-0.184 8.9799-0.243 18.039-0.773 26.92-2.3705 9.0089-1.6205 17.394-4.266 25.58-8.4365 8.0459-4.099 15.408-9.454 21.791-15.843 6.383-6.3875 11.733-13.754 15.829-21.806 4.169-8.196 6.8129-16.592 8.4329-25.615 1.595-8.885 2.124-17.948 2.3665-26.932 0.1115-4.125 0.159-8.25 0.1835-12.375 0.028049-4.898 0.028049-9.796 0.028049-14.694v-56.214-43-56.186"/>
<filter id="f" x="-2.4%" y="-1.2%" width="104.9%" height="104.9%">
<feOffset dx="0" dy="5" in="SourceAlpha" result="shadowOffsetOuter1"/>
<feGaussianBlur in="shadowOffsetOuter1" result="shadowBlurOuter1" stdDeviation="2.5"/>
<feColorMatrix in="shadowBlurOuter1" values="0 0 0 0 0   0 0 0 0 0   0 0 0 0 0  0 0 0 0.3 0"/>
</filter>
<path id="b" d="m93.446 269.39c-0.97923-0.39725-3.4663-6.6634-11.441-28.827l-10.19-28.319h-15.407-15.408v-6.6733-6.6733l22.193 0.21315c12.206 0.11723 22.271 0.28854 22.367 0.38067 0.095562 0.092139 2.374 6.2816 5.0632 13.754 6.3792 17.726 8.5764 23.384 9.6396 24.823 0.81677 1.1053 0.94785 1.0041 2.0919-1.6143 0.67126-1.5364 7.8043-20.951 15.851-43.144 8.0469-22.193 15.559-42.725 16.693-45.627l2.0619-5.2766h8.9429 8.9429l15.91 45.006c8.7508 24.753 16.536 46.403 17.301 48.11 1.3157 2.9378 1.4381 3.039 2.2864 1.8906 1.0244-1.3867 7.2209-17.038 10.189-25.735 1.0964-3.2129 3.1897-8.9395 4.6517-12.726 1.462-3.7864 6.4959-17.36 11.186-30.163s8.9208-24.047 9.4007-24.986l0.87247-1.7071h8.3279c4.5803 0 8.4883 0.25951 8.6843 0.57669 0.19602 0.31718 7.1621 19.383 15.48 42.368 21.006 58.045 19.826 55.129 21.261 52.541 0.43865-0.79131 1.4023-3.2545 2.1415-5.4738 0.73921-2.2193 1.8366-5.1524 2.4386-6.5181 0.60201-1.3657 7.3834-19.942 15.07-41.281 7.6864-21.339 14.283-39.588 14.658-40.553l0.68295-1.7546 7.9122 0.39189c4.3517 0.21554 8.4709 0.50421 9.1537 0.64149 1.2424 0.24978 2.0872 2.5204 17.947 48.242l2.5245 7.278 17.396 0.34267 0.35414 13.521-2.902-0.39776c-1.5961-0.21877-8.5506-0.39777-15.455-0.39777h-12.553l-6.3924-15.675c-7.4573-18.286-9.0097-21.572-10.191-21.572-0.47816 0-1.3592 1.3269-1.9579 2.9487-0.59869 1.6218-1.8987 5.0312-2.889 7.5766-1.8515 4.7592-15.952 42.827-25.648 69.244-3.0077 8.1942-5.7663 15.104-6.1302 15.355-0.36395 0.25084-3.6266 0.46035-7.2503 0.46558l-6.5885 0.009518-1.5907-3.5694c-2.4241-5.4397-5.5115-13.346-19.76-50.604-14.317-37.437-16.342-42.332-17.271-41.758-1.2282 0.75905-4.982 10.622-26.943 70.79-4.6108 12.633-8.5738 23.457-8.8068 24.055-0.46884 1.2028-4.374 1.4248-12.146 0.69063l-4.0956-0.3869-1.2797-3.4885c-2.1095-5.7505-32.191-85.182-33.519-88.507-1.4653-3.6701-2.3691-4.1533-3.3366-1.7839-0.39431 0.96574-1.0711 2.5939-1.5039 3.6182-0.43285 1.0243-7.8272 20.579-16.432 43.454-8.6047 22.876-16.083 42.751-16.618 44.167-0.83603 2.2125-1.2851 2.6266-3.1905 2.9418-3.1696 0.52439-11.303 0.39343-12.78-0.20576z"/>
<filter id="e" x="-2.8%" y="-7.1%" width="105.5%" height="114.2%">
<feGaussianBlur in="SourceAlpha" result="shadowBlurInner1" stdDeviation="7.8"/>
<feOffset dx="0" dy="2.56" in="shadowBlurInner1" result="shadowOffsetInner1"/>
<feComposite in="shadowOffsetInner1" in2="SourceAlpha" k2="-1" k3="1" operator="arithmetic" result="shadowInnerInner1"/>
<feColorMatrix in="shadowInnerInner1" values="0 0 0 0 0   0 0 0 0 0   0 0 0 0 0  0 0 0 0.5 0"/>
</filter>
</defs>
<g fill="none" fill-rule="evenodd">
<g transform="translate(0 -590)">
<g transform="translate(0 590)">
<g transform="translate(50 50)">
<mask id="c" fill="white">
<use xlink:href="#a"/>
</mask>
<use fill="black" filter="url(#f)" xlink:href="#a"/>
<use fill="url(#d)" fill-rule="evenodd" xlink:href="#a"/>
<g mask="url(#c)"></g>
<g fill-rule="nonzero" mask="url(#c)">
<use fill="#FFFFFF" xlink:href="#b"/>
<use fill="black" filter="url(#e)" xlink:href="#b"/>
</g>
</g>
</g>
</g>
</g>
</svg>
