<?xml version="1.0" encoding="UTF-8"?>
<svg version="1.1" viewBox="0 0 128 128" xmlns="http://www.w3.org/2000/svg" xmlns:xlink="http://www.w3.org/1999/xlink">
<defs>
<linearGradient id="d" x1="50%" x2="50%" y2="100%">
<stop stop-color="#2F2F31" offset="0"/>
<stop stop-color="#0D0B0D" offset="1"/>
</linearGradient>
<path id="a" d="m104 32.39c0-1.2346 0-2.4694-0.00708-3.7041-0.006185-1.0401-0.018175-2.08-0.046447-3.1196-0.061087-2.2659-0.19475-4.5512-0.59774-6.7919-0.40868-2.273-1.0761-4.3884-2.1278-6.4537-1.0339-2.0299-2.3845-3.8874-3.996-5.4977-1.6111-1.6104-3.4691-2.9601-5.4997-3.9934-2.0674-1.052-4.1851-1.7191-6.4606-2.1277-2.2409-0.40237-4.5269-0.53577-6.7928-0.59699-1.0404-0.028146-2.0807-0.04001-3.1214-0.046446-1.2354-0.0075728-2.4707-0.0069417-3.7061-0.0069417l-14.344-0.051369h-10.728l-14.09 0.051369c-1.2378 0-2.4755-6.3107e-4 -3.7133 0.0069417-1.0428 0.0064369-2.085 0.018301-3.1274 0.046446-2.2712 0.061213-4.5623 0.19475-6.8085 0.59762-2.2785 0.40843-4.3994 1.0753-6.4695 2.1266-2.0349 1.0334-3.8969 2.3833-5.5115 3.9939-1.6143 1.6102-2.9674 3.4673-4.0032 5.4968-1.0546 2.0662-1.7233 4.183-2.133 6.4572-0.40338 2.2398-0.53703 4.5244-0.5985 6.7893-0.028019 1.0397-0.040136 2.0796-0.046446 3.1196-0.0075728 1.2349-0.071058 2.7687-0.071058 4.0035v13.895 10.843l0.064116 14.19c0 1.2364-5.0485e-4 2.4728 0.0069417 3.7092 0.0063106 1.0415 0.018427 2.0828 0.046572 3.1239 0.061339 2.2688 0.19525 4.5574 0.59901 6.8011 0.40956 2.276 1.0781 4.3945 2.1319 6.4624 1.036 2.0328 2.3893 3.8927 4.0037 5.5053s3.4759 2.9641 5.5104 3.9989c2.0714 1.0534 4.1933 1.7214 6.4732 2.1305 2.2452 0.403 4.5356 0.53666 6.8059 0.59787 1.0424 0.028146 2.0848 0.040136 3.1275 0.046446 1.2378 0.007447 2.4754 0.007447 3.7132 0.007447h14.217 10.755 14.19c1.2354 0 2.4707 0 3.7061-0.007447 1.0406-0.00631 2.081-0.0183 3.1214-0.046446 2.2668-0.06134 4.5535-0.19513 6.7954-0.59838 2.2741-0.40906 4.3908-1.0769 6.457-2.1296 2.031-1.0347 3.8894-2.3864 5.5006-3.9993 1.6112-1.6124 2.9617-3.472 3.9956-5.5044 1.0524-2.0689 1.7198-4.1884 2.1287-6.4659 0.40262-2.2428 0.53615-4.5305 0.59736-6.7985 0.028145-1.0413 0.040135-2.0825 0.04632-3.1239 0.00708-1.2364 0.00708-2.4728 0.00708-3.7092v-14.19-10.854-14.183"/>
<filter id="f" x="-2.4%" y="-1.2%" width="104.8%" height="104.8%">
<feOffset dx="0" dy="1.25" in="SourceAlpha" result="shadowOffsetOuter1"/>
<feGaussianBlur in="shadowOffsetOuter1" result="shadowBlurOuter1" stdDeviation="0.625"/>
<feColorMatrix in="shadowBlurOuter1" values="0 0 0 0 0   0 0 0 0 0   0 0 0 0 0  0 0 0 0.3 0"/>
</filter>
<path id="b" d="m22.493 68.494c-0.03189-0.088633-1.2469-3.4607-2.7-7.4935l-2.642-7.3324-7.9344-0.086206v-3.5437l11.635 0.084595 1.0304 2.9007c2.2642 6.3739 2.7711 7.6022 3.0222 7.3227 0.035098-0.039042 0.90286-2.3916 1.9283-5.2278 1.0255-2.8362 2.7692-7.6587 3.8748-10.716 1.1056-3.0578 2.3118-6.3393 2.6802-7.2921l0.66989-1.7324h4.7675l0.3363 0.92662c0.18497 0.50964 1.8907 5.3502 3.7907 10.757 4.165 11.852 4.6507 13.174 4.8666 13.245 0.1899 0.061974 3.1902-7.789 3.0582-8.0026-0.046982-0.076018-0.016067-0.16253 0.068708-0.19226 0.12953-0.045426 2.4324-6.2048 5.5331-14.799 0.72025-1.9964 0.73121-2.0143 1.2273-2.0055 0.27527 0.0049223 1.3258 0.023054 2.3344 0.040288l1.8339 0.031334 0.67712 1.8129c0.37242 0.99715 2.1894 6.019 4.0378 11.159 4.5435 12.636 4.4182 12.315 4.646 11.89 0.38381-0.71716 1.1388-2.8378 1.0573-2.9697-0.046779-0.075687-0.016711-0.13762 0.066814-0.13762 0.083526 0 0.18902-0.1269 0.23443-0.28201 0.082044-0.28025 6.9881-19.479 7.4779-20.788l0.25618-0.68489h1.7283c0.95058 0 2.0513 0.044276 2.4461 0.09839l0.71784 0.09839 0.45926 1.2311c0.2526 0.6771 1.3831 3.9143 2.5122 7.1937l2.0529 5.9626 4.5431 0.089424v3.542l-8.0786-0.086109-1.737-4.2705c-2.2913-5.6333-2.2218-5.4791-2.4723-5.4791-0.18895 0-0.66058 1.0456-0.79959 1.7727-0.025418 0.13295-0.08887 0.27799-0.14101 0.3223-0.093031 0.079082-2.7624 7.2534-6.5154 17.511l-1.8963 5.1832-1.6287 0.11101c-0.89581 0.061054-1.7988 0.085456-2.0067 0.054224-0.34215-0.051407-0.79413-1.1476-4.7744-11.579-5.4733-14.345-5.0869-13.375-5.3327-13.375-0.28694 0-0.44154 0.40682-7.3772 19.413l-1.9974 5.4737-2.0759-0.049567c-1.1418-0.027262-2.0991-0.072186-2.1275-0.099829-0.028353-0.027647-1.996-5.2242-4.3724-11.548-5.0794-13.516-5.0157-13.351-5.1609-13.351-0.1731 0-0.50323 0.81019-0.39892 0.97898 0.050674 0.081991 0.023794 0.14907-0.059732 0.14907-0.083526 0-0.19049 0.1269-0.23771 0.28201-0.15294 0.50242-8.7848 23.43-8.8411 23.484-0.15157 0.14369-4.2112 0.14716-4.2629 0.0036444l4.582e-4 -0.0012912z"/>
<filter id="e" x="-1.2%" y="-3%" width="102.3%" height="106%">
<feGaussianBlur in="SourceAlpha" result="shadowBlurInner1" stdDeviation="0.5"/>
<feOffset dx="0" dy="1" in="shadowBlurInner1" result="shadowOffsetInner1"/>
<feComposite in="shadowOffsetInner1" in2="SourceAlpha" k2="-1" k3="1" operator="arithmetic" result="shadowInnerInner1"/>
<feColorMatrix in="shadowInnerInner1" values="0 0 0 0 0   0 0 0 0 0   0 0 0 0 0  0 0 0 0.5 0"/>
</filter>
</defs>
<g fill="none" fill-rule="evenodd">
<g transform="translate(-270)">
<g transform="translate(270)">
<g transform="translate(12 12)">
<mask id="c" fill="white">
<use xlink:href="#a"/>
</mask>
<use fill="black" filter="url(#f)" xlink:href="#a"/>
<use fill="url(#d)" fill-rule="evenodd" xlink:href="#a"/>
<g fill-rule="nonzero" mask="url(#c)">
<use fill="#FFFFFF" xlink:href="#b"/>
<use fill="black" filter="url(#e)" xlink:href="#b"/>
</g>
</g>
</g>
</g>
</g>
</svg>
