<svg width="161" height="34" viewBox="0 0 161 34" fill="none" xmlns="http://www.w3.org/2000/svg">
<rect width="160.286" height="34" rx="6" fill="#5423E7"/>
<path fill-rule="evenodd" clip-rule="evenodd" d="M39.377 16.9066H43.4292C43.1594 15.8771 42.4201 15.4597 41.5197 15.4597C40.5297 15.4597 39.7363 15.9993 39.377 16.9066ZM45.8065 18.6672H39.2331C39.5029 19.9932 40.619 20.4817 41.5914 20.4817C42.8161 20.4817 43.3396 19.7491 43.3396 19.7491H45.6084C44.9236 21.4926 43.2853 22.451 41.5196 22.451C39.0879 22.451 36.9629 20.655 36.9629 17.9359C36.9629 15.2326 39.0702 13.5586 41.4476 13.5586C43.7532 13.5586 46.0954 15.1104 45.8065 18.6672Z" fill="white"/>
<path fill-rule="evenodd" clip-rule="evenodd" d="M68.1367 18.0051C68.1367 16.6449 67.3081 15.5815 65.9396 15.5815C64.57 15.5815 63.6517 16.6449 63.6517 18.0051C63.6517 19.3653 64.57 20.4287 65.9396 20.4287C67.3081 20.4287 68.1367 19.3653 68.1367 18.0051ZM61.292 18.0223C61.292 15.2326 63.5256 13.5586 65.9396 13.5586C68.3712 13.5586 70.4963 15.2495 70.4963 17.9869C70.4963 20.7599 68.2979 22.4509 65.8664 22.4509C63.417 22.4509 61.292 20.7599 61.292 18.0223Z" fill="white"/>
<path fill-rule="evenodd" clip-rule="evenodd" d="M80.1382 17.6388V22.3639H77.7417V18.1612C77.7417 17.8646 77.9589 15.6679 76.2297 15.5815C75.3821 15.5289 73.8699 15.9817 73.8699 18.2663V22.3639H71.4927V13.6447H73.675L73.682 14.8551C73.682 14.8551 74.666 13.5581 76.5011 13.5581C78.8242 13.5581 80.1382 15.2321 80.1382 17.6388Z" fill="white"/>
<path fill-rule="evenodd" clip-rule="evenodd" d="M88.8975 15.4067C88.1407 15.4067 87.8166 15.773 87.8166 16.1394C87.8166 16.7315 88.6276 16.9061 89.1673 17.0112C90.7718 17.3419 92.3923 17.8134 92.3923 19.6604C92.3923 21.4567 90.8612 22.4506 89.006 22.4506C86.9351 22.4506 85.3322 21.2308 85.2236 19.3823H87.4382C87.4924 19.9047 87.8531 20.5848 88.9518 20.5848C89.8698 20.5848 90.0869 20.1149 90.0869 19.7486C90.0869 19.1026 89.4562 18.9108 88.8432 18.7716C87.7814 18.5445 85.4935 18.1271 85.4935 16.1394C85.4935 14.4299 87.1874 13.5581 88.9341 13.5581C90.9507 13.5581 92.2838 14.7437 92.3923 16.2089H90.1762C90.1045 15.9122 89.8171 15.4067 88.8975 15.4067Z" fill="white"/>
<path fill-rule="evenodd" clip-rule="evenodd" d="M99.6744 18.0052C99.6744 16.557 98.8633 15.7036 97.6931 15.7036C96.5945 15.7036 95.4945 16.4704 95.4945 18.0052C95.4945 19.5387 96.5945 20.3067 97.6931 20.3067C98.8633 20.3067 99.6744 19.452 99.6744 18.0052ZM101.926 13.6452V25.8514H99.6748V21.5095C99.0983 22.1371 98.2874 22.4508 97.3503 22.4508C95.0638 22.4508 93.1543 20.6379 93.1543 18.0054C93.1543 15.3716 95.0638 13.5586 97.3503 13.5586C99.1475 13.5586 99.8203 14.7263 99.8203 14.7263L99.817 13.6452H101.926Z" fill="white"/>
<path fill-rule="evenodd" clip-rule="evenodd" d="M114.796 16.9063H118.848C118.579 15.8768 117.839 15.4594 116.939 15.4594C115.949 15.4594 115.156 15.999 114.796 16.9063ZM121.226 18.6667H114.651C114.922 19.9927 116.038 20.4812 117.011 20.4812C118.235 20.4812 118.759 19.7486 118.759 19.7486H121.028C120.343 21.4921 118.705 22.4506 116.939 22.4506C114.507 22.4506 112.382 20.6545 112.382 17.9354C112.382 15.2321 114.49 13.5581 116.867 13.5581C119.173 13.5581 121.515 15.1099 121.226 18.6667Z" fill="white"/>
<path fill-rule="evenodd" clip-rule="evenodd" d="M124.365 16.9066H128.418C128.148 15.8771 127.408 15.4597 126.508 15.4597C125.518 15.4597 124.725 15.9993 124.365 16.9066ZM130.795 18.6672H124.222C124.492 19.9932 125.608 20.4817 126.58 20.4817C127.805 20.4817 128.328 19.7491 128.328 19.7491H130.597C129.912 21.4926 128.274 22.451 126.508 22.451C124.077 22.451 121.952 20.655 121.952 17.9359C121.952 15.2326 124.059 13.5586 126.436 13.5586C128.742 13.5586 131.084 15.1104 130.795 18.6672Z" fill="white"/>
<path fill-rule="evenodd" clip-rule="evenodd" d="M138.815 20.4114V22.3635H131.161V21.2122L135.502 15.5982H131.341V13.6445H138.636V14.7959L134.295 20.4114H138.815Z" fill="white"/>
<path fill-rule="evenodd" clip-rule="evenodd" d="M148.186 13.6445V21.3173V21.4919C148.186 23.846 146.943 25.9389 143.863 25.9389C140.981 25.9389 139.415 24.1072 139.415 22.73H141.666C141.666 22.73 142.007 23.8985 143.791 23.8985C145.304 23.8985 145.935 23.0608 145.935 21.8411V21.4747C145.538 21.9108 144.782 22.4503 143.432 22.4503C141.072 22.4503 139.595 20.7948 139.595 18.371L139.576 13.6445H141.918V17.8472C141.918 19.0327 142.351 20.4285 143.845 20.4285C144.619 20.4285 145.898 20.0622 145.898 17.7421V13.6445H148.186Z" fill="white"/>
<path fill-rule="evenodd" clip-rule="evenodd" d="M35.2479 19.7465C35.2479 20.2902 35.4621 20.5145 35.8595 20.5145C36.1396 20.5145 36.3215 20.482 36.5868 20.4024L36.7351 22.1942C36.2393 22.3532 35.7598 22.4498 35.1482 22.4498C33.7447 22.4498 32.8853 22.0025 32.8853 20.0659V10.1577H35.2479V19.7465Z" fill="white"/>
<path fill-rule="evenodd" clip-rule="evenodd" d="M60.2754 17.6386V22.3638H57.8789V18.1611C57.8789 16.9585 58.0052 15.4408 56.3478 15.5813C55.9167 15.6154 54.7272 15.807 54.7272 18.2662V22.3638H52.3499V18.1611C52.3499 16.9585 52.4759 15.4408 50.8188 15.5813C50.3861 15.6154 49.1982 15.807 49.1982 18.2662V22.3638H46.8208V13.6446H49.0033L49.0052 14.855C49.0052 14.855 49.8393 13.558 51.395 13.558C53.2697 13.558 54.0054 14.97 54.0054 14.97C54.0054 14.97 54.8126 13.541 56.8714 13.541C59.2122 13.541 60.2754 15.215 60.2754 17.6386Z" fill="white"/>
<path fill-rule="evenodd" clip-rule="evenodd" d="M102.936 18.3697V13.6445H105.332V17.8472C105.332 18.1439 105.115 20.3405 106.845 20.427C107.692 20.4795 109.204 20.0267 109.204 17.7421V13.6445H111.582V22.3637H109.402L109.392 21.1533C109.392 21.1533 108.408 22.4503 106.573 22.4503C104.25 22.4503 102.936 20.7763 102.936 18.3697Z" fill="white"/>
<path fill-rule="evenodd" clip-rule="evenodd" d="M16.4542 19.0475L21.2829 21.28C21.8813 21.5568 22.3038 22.0214 22.5319 22.5543C23.109 23.9039 22.3203 25.2841 21.0823 25.7804C19.844 26.2766 18.5243 25.9573 17.9243 24.5539L15.8229 19.6267C15.66 19.2448 16.0691 18.8695 16.4542 19.0475Z" fill="#FFC233"/>
<path fill-rule="evenodd" clip-rule="evenodd" d="M16.7442 17.6027L21.7286 15.7185C23.3852 15.0923 25.1948 16.2771 25.1704 17.9987C25.17 18.0212 25.1696 18.0437 25.169 18.0663C25.1332 19.7428 23.374 20.8696 21.7538 20.2765L16.7489 18.4446C16.3496 18.2986 16.3467 17.7529 16.7442 17.6027Z" fill="#FFC233"/>
<path fill-rule="evenodd" clip-rule="evenodd" d="M16.4646 16.9501L21.3645 14.8681C22.9928 14.1762 23.406 12.0995 22.1308 10.8996C22.1141 10.8838 22.0973 10.8681 22.0804 10.8525C20.8302 9.69205 18.7633 10.1006 18.0516 11.6292L15.8528 16.3517C15.6774 16.7283 16.0738 17.1161 16.4646 16.9501Z" fill="#FFC233"/>
<path fill-rule="evenodd" clip-rule="evenodd" d="M15.2037 16.1274L16.9851 11.2427C17.206 10.637 17.1651 10.0193 16.9368 9.48641C16.3585 8.13743 14.7926 7.70198 13.5548 8.19912C12.3171 8.69644 11.6177 9.8259 12.219 11.2288L14.3342 16.1506C14.4982 16.532 15.0617 16.5169 15.2037 16.1274Z" fill="#FFC233"/>
</svg>
