<?xml version="1.0" encoding="UTF-8"?>
<svg xmlns="http://www.w3.org/2000/svg" xmlns:xlink="http://www.w3.org/1999/xlink" width="12pt" height="12pt" viewBox="0 0 12 12" version="1.1">
<g id="surface53">
<path style=" stroke:none;fill-rule:nonzero;fill:rgb(96.862745%,65.882355%,65.882355%);fill-opacity:1;" d="M 0.75 10.875 C 0.542969 10.875 0.375 10.707031 0.375 10.5 C 0.375 10.433594 0.390625 10.371094 0.425781 10.3125 C 0.460938 10.25 5.648438 1.359375 5.671875 1.3125 C 5.742188 1.195312 5.867188 1.125 6 1.125 C 6.132812 1.125 6.257812 1.195312 6.324219 1.3125 C 6.351562 1.359375 11.539062 10.25 11.574219 10.3125 C 11.609375 10.371094 11.625 10.433594 11.625 10.5 C 11.625 10.707031 11.457031 10.875 11.25 10.875 Z M 0.75 10.875 "/>
<path style=" stroke:none;fill-rule:nonzero;fill:rgb(78.039217%,26.274511%,26.274511%);fill-opacity:1;" d="M 6 1.5 C 6.007812 1.515625 7.226562 3.601562 8.484375 5.761719 C 9.832031 8.070312 11.226562 10.460938 11.25 10.5 L 0.75 10.5 C 0.769531 10.464844 2.125 8.140625 3.453125 5.867188 C 4.734375 3.667969 5.992188 1.515625 6 1.5 M 6 0.75 C 5.722656 0.75 5.480469 0.902344 5.351562 1.125 C 5.332031 1.15625 0.121094 10.09375 0.101562 10.125 C 0.0351562 10.234375 0 10.363281 0 10.5 C 0 10.914062 0.335938 11.25 0.75 11.25 C 1.097656 11.25 10.902344 11.25 11.25 11.25 C 11.664062 11.25 12 10.914062 12 10.5 C 12 10.363281 11.964844 10.234375 11.898438 10.125 C 11.878906 10.09375 6.667969 1.15625 6.648438 1.125 C 6.519531 0.902344 6.277344 0.75 6 0.75 Z M 6 0.75 "/>
<path style=" stroke:none;fill-rule:nonzero;fill:rgb(21.176471%,25.098041%,30.19608%);fill-opacity:1;" d="M 6 8.34375 C 5.636719 8.34375 5.34375 8.636719 5.34375 9 C 5.34375 9.363281 5.636719 9.65625 6 9.65625 C 6.363281 9.65625 6.65625 9.363281 6.65625 9 C 6.65625 8.636719 6.363281 8.34375 6 8.34375 Z M 6.65625 5.15625 C 6.65625 4.792969 6.363281 4.5 6 4.5 C 5.636719 4.5 5.34375 4.792969 5.34375 5.15625 C 5.34375 5.472656 5.628906 7.191406 5.632812 7.199219 C 5.667969 7.371094 5.816406 7.5 6 7.5 C 6.183594 7.5 6.332031 7.371094 6.367188 7.199219 C 6.371094 7.191406 6.65625 5.472656 6.65625 5.15625 Z M 6.65625 5.15625 "/>
<path style=" stroke:none;fill-rule:nonzero;fill:rgb(78.039217%,26.274511%,26.274511%);fill-opacity:1;" d="M 0.796875 4.464844 L 2.433594 4.636719 C 2.523438 4.484375 2.609375 4.332031 2.699219 4.179688 C 2.75 4.09375 2.796875 4.011719 2.847656 3.925781 L 1.210938 3.753906 C 1.070312 3.992188 0.933594 4.230469 0.796875 4.464844 Z M 2.421875 1.679688 L 3.417969 2.949219 C 3.5625 2.699219 3.699219 2.46875 3.824219 2.25 L 2.828125 0.980469 C 2.707031 1.191406 2.570312 1.421875 2.421875 1.679688 Z M 11.203125 4.464844 L 9.566406 4.636719 C 9.476562 4.484375 9.390625 4.332031 9.300781 4.179688 C 9.25 4.09375 9.203125 4.011719 9.152344 3.925781 L 10.789062 3.753906 C 10.929688 3.992188 11.066406 4.230469 11.203125 4.464844 Z M 9.578125 1.679688 L 8.582031 2.949219 C 8.4375 2.699219 8.300781 2.46875 8.175781 2.25 L 9.171875 0.980469 C 9.292969 1.191406 9.429688 1.421875 9.578125 1.679688 Z M 9.578125 1.679688 "/>
</g>
</svg>
