<?xml version="1.0" encoding="UTF-8"?>
<svg xmlns="http://www.w3.org/2000/svg" xmlns:xlink="http://www.w3.org/1999/xlink" width="12pt" height="12pt" viewBox="0 0 12 12" version="1.1">
<g id="surface20">
<path style=" stroke:none;fill-rule:nonzero;fill:rgb(54.509807%,71.764708%,94.117647%);fill-opacity:1;" d="M 5.625 0.375 C 2.726562 0.375 0.375 2.726562 0.375 5.625 C 0.375 8.523438 2.726562 10.875 5.625 10.875 C 8.523438 10.875 10.875 8.523438 10.875 5.625 C 10.875 2.726562 8.523438 0.375 5.625 0.375 Z M 5.625 0.375 "/>
<path style=" stroke:none;fill-rule:nonzero;fill:rgb(30.588236%,47.843137%,70.980394%);fill-opacity:1;" d="M 5.625 0.75 C 8.3125 0.75 10.5 2.9375 10.5 5.625 C 10.5 8.3125 8.3125 10.5 5.625 10.5 C 2.9375 10.5 0.75 8.3125 0.75 5.625 C 0.75 2.9375 2.9375 0.75 5.625 0.75 M 5.625 0 C 2.519531 0 0 2.519531 0 5.625 C 0 8.730469 2.519531 11.25 5.625 11.25 C 8.730469 11.25 11.25 8.730469 11.25 5.625 C 11.25 2.519531 8.730469 0 5.625 0 Z M 5.625 0 "/>
<path style=" stroke:none;fill-rule:nonzero;fill:rgb(100%,100%,100%);fill-opacity:1;" d="M 5.625 2.871094 C 5.347656 2.871094 5.121094 3.097656 5.121094 3.375 C 5.121094 3.652344 5.347656 3.878906 5.625 3.878906 C 5.902344 3.878906 6.128906 3.652344 6.128906 3.375 C 6.128906 3.097656 5.902344 2.871094 5.625 2.871094 Z M 6 7.5 L 6 4.5 L 4.746094 4.5 L 4.746094 5.25 L 5.25 5.25 L 5.25 7.5 L 4.5 7.5 L 4.5 8.25 L 6.75 8.25 L 6.75 7.5 Z M 6 7.5 "/>
</g>
</svg>
