<?xml version="1.0" encoding="UTF-8"?>
<svg xmlns="http://www.w3.org/2000/svg" xmlns:xlink="http://www.w3.org/1999/xlink" width="12pt" height="12pt" viewBox="0 0 12 12" version="1.1">
<g id="surface32">
<path style=" stroke:none;fill-rule:nonzero;fill:rgb(100%,93.333334%,63.921571%);fill-opacity:1;" d="M 0.699219 10.875 C 0.53125 10.875 0.445312 10.761719 0.417969 10.714844 C 0.390625 10.667969 0.335938 10.539062 0.417969 10.394531 L 5.722656 1.207031 C 5.804688 1.0625 5.945312 1.046875 6 1.046875 C 6.054688 1.046875 6.195312 1.0625 6.277344 1.207031 L 11.582031 10.394531 C 11.664062 10.539062 11.609375 10.664062 11.582031 10.714844 C 11.554688 10.761719 11.46875 10.875 11.300781 10.875 Z M 0.699219 10.875 "/>
<path style=" stroke:none;fill-rule:nonzero;fill:rgb(72.941178%,60.784316%,28.235295%);fill-opacity:1;" d="M 6 1.476562 L 11.210938 10.5 L 0.789062 10.5 L 6 1.476562 M 6 0.671875 C 5.765625 0.671875 5.53125 0.789062 5.398438 1.019531 L 0.09375 10.203125 C -0.175781 10.667969 0.160156 11.25 0.699219 11.25 L 11.300781 11.25 C 11.839844 11.25 12.175781 10.667969 11.90625 10.207031 L 6.601562 1.023438 C 6.46875 0.789062 6.234375 0.671875 6 0.671875 Z M 6 0.671875 "/>
<path style=" stroke:none;fill-rule:nonzero;fill:rgb(21.176471%,25.098041%,30.19608%);fill-opacity:1;" d="M 6 8.25 C 5.585938 8.25 5.25 8.585938 5.25 9 C 5.25 9.414062 5.585938 9.75 6 9.75 C 6.414062 9.75 6.75 9.414062 6.75 9 C 6.75 8.585938 6.414062 8.25 6 8.25 Z M 5.25 3.75 L 6.75 3.75 L 6.75 7.5 L 5.25 7.5 Z M 5.25 3.75 "/>
</g>
</svg>
