<?xml version="1.0" encoding="UTF-8"?>
<svg xmlns="http://www.w3.org/2000/svg" xmlns:xlink="http://www.w3.org/1999/xlink" width="36pt" height="36pt" viewBox="0 0 36 36" version="1.1">
<g id="surface1449">
<path style=" stroke:none;fill-rule:nonzero;fill:rgb(9.019608%,9.019608%,9.411765%);fill-opacity:1;" d="M 29.613281 5.234375 C 29.316406 5.242188 29.035156 5.363281 28.828125 5.578125 L 18 16.410156 L 7.171875 5.578125 C 6.957031 5.363281 6.667969 5.238281 6.363281 5.238281 C 5.90625 5.238281 5.492188 5.515625 5.320312 5.941406 C 5.148438 6.363281 5.25 6.851562 5.578125 7.171875 L 16.410156 18 L 5.578125 28.828125 C 5.285156 29.113281 5.167969 29.53125 5.269531 29.925781 C 5.371094 30.320312 5.679688 30.628906 6.074219 30.730469 C 6.46875 30.832031 6.886719 30.714844 7.171875 30.421875 L 18 19.589844 L 28.828125 30.421875 C 29.113281 30.714844 29.53125 30.832031 29.925781 30.730469 C 30.320312 30.628906 30.628906 30.320312 30.730469 29.925781 C 30.832031 29.53125 30.714844 29.113281 30.421875 28.828125 L 19.589844 18 L 30.421875 7.171875 C 30.753906 6.847656 30.859375 6.355469 30.679688 5.925781 C 30.5 5.496094 30.078125 5.222656 29.613281 5.234375 Z M 29.613281 5.234375 "/>
</g>
</svg>
