<?xml version="1.0" encoding="UTF-8" standalone="no"?>
<!DOCTYPE svg PUBLIC "-//W3C//DTD SVG 1.1//EN" "http://www.w3.org/Graphics/SVG/1.1/DTD/svg11.dtd">
<svg width="100%" height="100%" viewBox="0 0 48 48" version="1.1" xmlns="http://www.w3.org/2000/svg" xmlns:xlink="http://www.w3.org/1999/xlink" xml:space="preserve" xmlns:serif="http://www.serif.com/" style="fill-rule:evenodd;clip-rule:evenodd;stroke-linejoin:round;stroke-miterlimit:2;">
    <g transform="matrix(-1,0,0,1,47.9922,0)">
        <path d="M39.471,6.986C39.417,6.988 39.364,6.993 39.311,7L25.5,7C25.493,7 25.486,7 25.479,7C24.656,7 23.979,7.677 23.979,8.5C23.979,9.323 24.656,10 25.479,10C25.486,10 25.493,10 25.5,10L35.879,10L10,35.879L10,25.5C10,25.493 10,25.486 10,25.478C10,24.656 9.323,23.978 8.5,23.978C8.492,23.978 8.484,23.978 8.477,23.979C7.654,23.991 6.988,24.678 7,25.5L7,39.277C6.987,39.357 6.98,39.438 6.98,39.519C6.98,40.342 7.658,41.019 8.481,41.019C8.561,41.019 8.641,41.013 8.721,41L22.5,41C22.507,41 22.514,41 22.521,41C23.344,41 24.021,40.323 24.021,39.5C24.021,38.677 23.344,38 22.521,38C22.514,38 22.507,38 22.5,38L12.121,38L38,12.121L38,22.5C38,22.507 38,22.514 38,22.521C38,23.344 38.677,24.021 39.5,24.021C40.323,24.021 41,23.344 41,22.521C41,22.514 41,22.507 41,22.5L41,8.674C41.008,8.612 41.012,8.549 41.012,8.486C41.012,7.663 40.335,6.986 39.512,6.986C39.498,6.986 39.484,6.986 39.471,6.986Z" style="fill-rule:nonzero;"/>
    </g>
</svg>
