<svg xmlns="http://www.w3.org/2000/svg"  viewBox="0 0 48 48" width="48px" height="48px"><path d="M 8.5 7 C 5.4802259 7 3 9.4802259 3 12.5 L 3 35.5 C 3 38.519774 5.4802259 41 8.5 41 L 39.5 41 C 42.519774 41 45 38.519774 45 35.5 L 45 12.5 C 45 9.4802259 42.519774 7 39.5 7 L 8.5 7 z M 8.5 10 L 39.5 10 C 40.898226 10 42 11.101774 42 12.5 L 42 35.5 C 42 36.898226 40.898226 38 39.5 38 L 28 38 L 28 29.5 C 28 26.480763 25.519237 24 22.5 24 L 6 24 L 6 12.5 C 6 11.101774 7.1017741 10 8.5 10 z M 37.470703 12.986328 A 1.50015 1.50015 0 0 0 37.310547 13 L 32.5 13 A 1.50015 1.50015 0 1 0 32.5 16 L 33.878906 16 L 28.439453 21.439453 A 1.50015 1.50015 0 1 0 30.560547 23.560547 L 36 18.121094 L 36 19.5 A 1.50015 1.50015 0 1 0 39 19.5 L 39 14.673828 A 1.50015 1.50015 0 0 0 37.470703 12.986328 z M 6 27 L 22.5 27 C 23.892763 27 25 28.107237 25 29.5 L 25 38 L 8.5 38 C 7.1017741 38 6 36.898226 6 35.5 L 6 27 z"/></svg>