<?xml version="1.0" encoding="UTF-8"?>
<svg xmlns="http://www.w3.org/2000/svg" xmlns:xlink="http://www.w3.org/1999/xlink" width="36pt" height="36pt" viewBox="0 0 36 36" version="1.1">
<g id="surface1487">
<path style=" stroke:none;fill-rule:nonzero;fill:rgb(9.019608%,9.019608%,9.411765%);fill-opacity:1;" d="M 8.625 4.5 C 6.359375 4.5 4.5 6.359375 4.5 8.625 L 4.5 27.375 C 4.5 29.640625 6.359375 31.5 8.625 31.5 L 27.375 31.5 C 29.640625 31.5 31.5 29.640625 31.5 27.375 L 31.5 8.625 C 31.5 6.359375 29.640625 4.5 27.375 4.5 Z M 8.625 6.75 L 27.375 6.75 C 28.421875 6.75 29.25 7.578125 29.25 8.625 L 29.25 27.375 C 29.25 28.421875 28.421875 29.25 27.375 29.25 L 8.625 29.25 C 7.578125 29.25 6.75 28.421875 6.75 27.375 L 6.75 8.625 C 6.75 7.578125 7.578125 6.75 8.625 6.75 Z M 8.625 6.75 "/>
</g>
</svg>
