<?xml version="1.0" encoding="UTF-8"?>
<svg xmlns="http://www.w3.org/2000/svg" xmlns:xlink="http://www.w3.org/1999/xlink" width="30pt" height="30pt" viewBox="0 0 30 30" version="1.1">
<g id="surface5367">
<path style=" stroke:none;fill-rule:nonzero;fill:rgb(30.588236%,47.843137%,70.980394%);fill-opacity:1;" d="M 26 20 L 26 21 C 26 22.65625 24.882812 24 23.5 24 C 22.25 24 21.636719 22.640625 21 21 C 20.859375 20.648438 20.351562 18.949219 20.03125 17.855469 L 23 4 L 19 4 L 17.566406 10.695312 C 16.039062 6.234375 14.316406 3 10 3 C 5.582031 3 2 7.925781 2 14 L 2 16 C 2 22.074219 6.027344 27 11 27 C 15.101562 27 17.761719 24.359375 19.226562 20.558594 L 21.171875 25.386719 C 21.527344 26.328125 22.433594 27 23.5 27 C 23.746094 27 24 26.933594 24 26.933594 C 25.695312 26.515625 27 24.023438 27 21 L 27 20 Z M 16.644531 15 L 16 18 C 15.171875 22.015625 13.238281 25 11 25 C 8.40625 25 6.277344 21.054688 6.023438 16 L 6 16 L 6 14 L 6.023438 14 C 6.277344 8.945312 8.40625 5 11 5 C 13.390625 5 16.132812 9.945312 16.828125 14.128906 Z M 16.644531 15 "/>
</g>
</svg>
