<?xml version="1.0" encoding="UTF-8"?>
<svg xmlns="http://www.w3.org/2000/svg" xmlns:xlink="http://www.w3.org/1999/xlink" width="12pt" height="12pt" viewBox="0 0 12 12" version="1.1">
<g id="surface76">
<path style=" stroke:none;fill-rule:nonzero;fill:rgb(86.274511%,83.529413%,94.901961%);fill-opacity:1;" d="M 6 11.550781 C 3.640625 11.550781 1.648438 10.726562 1.648438 9.75 L 1.648438 2.101562 L 10.351562 2.101562 L 10.351562 8.226562 C 10.09375 8.046875 9.777344 7.949219 9.449219 7.949219 C 8.621094 7.949219 7.949219 8.554688 7.949219 9.300781 C 7.949219 10.042969 8.621094 10.648438 9.449219 10.648438 C 9.570312 10.648438 9.691406 10.636719 9.804688 10.613281 C 9.050781 11.175781 7.605469 11.550781 6 11.550781 Z M 6 11.550781 "/>
<path style=" stroke:none;fill-rule:nonzero;fill:rgb(54.509807%,45.882353%,63.137257%);fill-opacity:1;" d="M 10.199219 2.25 L 10.199219 7.964844 C 9.96875 7.859375 9.714844 7.800781 9.449219 7.800781 C 8.539062 7.800781 7.800781 8.472656 7.800781 9.300781 C 7.800781 10.054688 8.414062 10.679688 9.210938 10.785156 C 8.476562 11.140625 7.367188 11.398438 6 11.398438 C 3.523438 11.398438 1.800781 10.53125 1.800781 9.75 L 1.800781 2.25 L 10.199219 2.25 M 10.5 1.949219 L 1.5 1.949219 C 1.5 2.335938 1.5 9.363281 1.5 9.75 C 1.5 10.828125 3.515625 11.699219 6 11.699219 C 8.171875 11.699219 9.984375 11.035156 10.40625 10.148438 C 10.164062 10.363281 9.824219 10.5 9.449219 10.5 C 8.703125 10.5 8.101562 9.960938 8.101562 9.300781 C 8.101562 8.636719 8.703125 8.101562 9.449219 8.101562 C 9.875 8.101562 10.253906 8.28125 10.5 8.554688 C 10.5 6.433594 10.5 2.246094 10.5 1.949219 Z M 10.5 1.949219 "/>
<path style=" stroke:none;fill-rule:nonzero;fill:rgb(86.274511%,83.529413%,94.901961%);fill-opacity:1;" d="M 6 3.449219 C 3.398438 3.449219 1.648438 2.675781 1.648438 1.949219 C 1.648438 1.226562 3.398438 0.449219 6 0.449219 C 8.601562 0.449219 10.351562 1.226562 10.351562 1.949219 C 10.351562 2.675781 8.601562 3.449219 6 3.449219 Z M 6 3.449219 "/>
<path style=" stroke:none;fill-rule:nonzero;fill:rgb(54.509807%,45.882353%,63.137257%);fill-opacity:1;" d="M 6 0.601562 C 8.601562 0.601562 10.199219 1.386719 10.199219 1.949219 C 10.199219 2.515625 8.601562 3.300781 6 3.300781 C 3.398438 3.300781 1.800781 2.515625 1.800781 1.949219 C 1.800781 1.386719 3.398438 0.601562 6 0.601562 M 6 0.300781 C 3.515625 0.300781 1.5 1.039062 1.5 1.949219 C 1.5 2.863281 3.515625 3.601562 6 3.601562 C 8.484375 3.601562 10.5 2.863281 10.5 1.949219 C 10.5 1.039062 8.484375 0.300781 6 0.300781 Z M 6 0.300781 "/>
<path style="fill:none;stroke-width:1;stroke-linecap:butt;stroke-linejoin:miter;stroke:rgb(54.509807%,45.882353%,63.137257%);stroke-opacity:1;stroke-miterlimit:10;" d="M 34.505208 15.182292 C 34.505208 18.125 28.007812 20.494792 20 20.494792 C 11.992188 20.494792 5.494792 18.125 5.494792 15.182292 M 5.494792 23.216146 C 5.494792 26.692708 11.992188 29.505208 20 29.505208 C 22.135417 29.505208 24.166667 29.296875 26.002604 28.945312 C 28.776042 27.122396 30.403646 26.25 32.005208 26.744792 C 33.580729 25.742188 34.505208 24.53125 34.505208 23.216146 " transform="matrix(0.3,0,0,0.3,0,0)"/>
<path style=" stroke:none;fill-rule:nonzero;fill:rgb(54.509807%,71.764708%,94.117647%);fill-opacity:1;" d="M 8.976562 11.851562 L 8.871094 11.203125 L 8.777344 11.175781 C 8.460938 11.089844 8.167969 10.921875 7.933594 10.691406 L 7.867188 10.625 L 7.253906 10.855469 L 6.929688 10.296875 L 7.4375 9.878906 L 7.414062 9.785156 C 7.371094 9.621094 7.351562 9.457031 7.351562 9.300781 C 7.351562 9.140625 7.371094 8.980469 7.414062 8.816406 L 7.4375 8.722656 L 6.929688 8.304688 L 7.253906 7.746094 L 7.867188 7.976562 L 7.933594 7.910156 C 8.167969 7.679688 8.460938 7.511719 8.777344 7.421875 L 8.871094 7.398438 L 8.976562 6.75 L 9.621094 6.75 L 9.730469 7.398438 L 9.824219 7.421875 C 10.140625 7.511719 10.429688 7.679688 10.664062 7.910156 L 10.734375 7.976562 L 11.347656 7.746094 L 11.671875 8.304688 L 11.164062 8.722656 L 11.1875 8.816406 C 11.230469 8.980469 11.25 9.140625 11.25 9.300781 C 11.25 9.457031 11.230469 9.621094 11.1875 9.785156 L 11.164062 9.878906 L 11.671875 10.296875 L 11.347656 10.855469 L 10.734375 10.625 L 10.664062 10.691406 C 10.429688 10.921875 10.140625 11.089844 9.824219 11.175781 L 9.730469 11.203125 L 9.621094 11.851562 Z M 9.300781 8.25 C 8.722656 8.25 8.25 8.722656 8.25 9.300781 C 8.25 9.878906 8.722656 10.351562 9.300781 10.351562 C 9.878906 10.351562 10.351562 9.878906 10.351562 9.300781 C 10.351562 8.722656 9.878906 8.25 9.300781 8.25 Z M 9.300781 8.25 "/>
<path style=" stroke:none;fill-rule:nonzero;fill:rgb(30.588236%,47.843137%,70.980394%);fill-opacity:1;" d="M 9.496094 6.902344 L 9.566406 7.328125 L 9.597656 7.515625 L 9.78125 7.566406 C 10.074219 7.648438 10.34375 7.804688 10.558594 8.015625 L 10.695312 8.148438 L 10.875 8.082031 L 11.28125 7.929688 L 11.476562 8.269531 L 11.140625 8.546875 L 10.992188 8.667969 L 11.042969 8.851562 C 11.082031 9.003906 11.101562 9.15625 11.101562 9.300781 C 11.101562 9.445312 11.082031 9.597656 11.042969 9.75 L 10.992188 9.933594 L 11.140625 10.054688 L 11.476562 10.332031 L 11.28125 10.671875 L 10.875 10.519531 L 10.695312 10.453125 L 10.558594 10.585938 C 10.34375 10.796875 10.074219 10.953125 9.78125 11.03125 L 9.597656 11.085938 L 9.566406 11.273438 L 9.496094 11.699219 L 9.105469 11.699219 L 9.03125 11.273438 L 9 11.085938 L 8.816406 11.03125 C 8.523438 10.953125 8.253906 10.796875 8.039062 10.585938 L 7.902344 10.453125 L 7.722656 10.519531 L 7.320312 10.671875 L 7.121094 10.332031 L 7.457031 10.054688 L 7.605469 9.933594 L 7.558594 9.75 C 7.519531 9.597656 7.5 9.445312 7.5 9.300781 C 7.5 9.15625 7.519531 9.003906 7.558594 8.851562 L 7.605469 8.667969 L 7.457031 8.546875 L 7.125 8.269531 L 7.320312 7.929688 L 7.726562 8.082031 L 7.902344 8.148438 L 8.039062 8.015625 C 8.257812 7.804688 8.523438 7.648438 8.816406 7.566406 L 9 7.515625 L 9.03125 7.328125 L 9.105469 6.902344 L 9.496094 6.902344 M 9.300781 10.5 C 9.960938 10.5 10.5 9.960938 10.5 9.300781 C 10.5 8.640625 9.960938 8.101562 9.300781 8.101562 C 8.636719 8.101562 8.101562 8.640625 8.101562 9.300781 C 8.101562 9.960938 8.636719 10.5 9.300781 10.5 M 9.75 6.601562 L 8.851562 6.601562 L 8.738281 7.277344 C 8.390625 7.375 8.078125 7.558594 7.832031 7.800781 L 7.1875 7.5625 L 6.738281 8.339844 L 7.269531 8.777344 C 7.226562 8.945312 7.199219 9.121094 7.199219 9.300781 C 7.199219 9.480469 7.226562 9.65625 7.269531 9.824219 L 6.738281 10.261719 L 7.1875 11.039062 L 7.828125 10.796875 C 8.078125 11.042969 8.390625 11.226562 8.738281 11.320312 L 8.851562 12 L 9.75 12 L 9.863281 11.320312 C 10.210938 11.226562 10.519531 11.042969 10.769531 10.796875 L 11.414062 11.039062 L 11.863281 10.261719 L 11.332031 9.824219 C 11.375 9.65625 11.398438 9.480469 11.398438 9.300781 C 11.398438 9.121094 11.375 8.945312 11.332031 8.777344 L 11.863281 8.339844 L 11.414062 7.5625 L 10.769531 7.800781 C 10.519531 7.558594 10.210938 7.375 9.863281 7.28125 Z M 9.300781 10.199219 C 8.804688 10.199219 8.398438 9.796875 8.398438 9.300781 C 8.398438 8.804688 8.804688 8.402344 9.300781 8.402344 C 9.796875 8.402344 10.199219 8.804688 10.199219 9.300781 C 10.199219 9.796875 9.796875 10.199219 9.300781 10.199219 Z M 9.300781 10.199219 "/>
</g>
</svg>
