<?xml version="1.0" encoding="UTF-8"?>
<svg xmlns="http://www.w3.org/2000/svg" xmlns:xlink="http://www.w3.org/1999/xlink" width="12pt" height="12pt" viewBox="0 0 12 12" version="1.1">
<g id="surface479">
<path style=" stroke:none;fill-rule:nonzero;fill:rgb(60.000002%,78.823531%,61.960787%);fill-opacity:1;" d="M 0.449219 8.25 L 0.449219 2.101562 C 0.449219 1.851562 0.652344 1.648438 0.898438 1.648438 L 11.101562 1.648438 C 11.347656 1.648438 11.550781 1.851562 11.550781 2.101562 L 11.550781 8.25 Z M 0.449219 8.25 "/>
<path style=" stroke:none;fill-rule:nonzero;fill:rgb(36.862746%,61.176473%,46.27451%);fill-opacity:1;" d="M 11.101562 1.800781 C 11.265625 1.800781 11.398438 1.933594 11.398438 2.101562 L 11.398438 8.101562 L 0.601562 8.101562 L 0.601562 2.101562 C 0.601562 1.933594 0.734375 1.800781 0.898438 1.800781 L 11.101562 1.800781 M 11.101562 1.5 L 0.898438 1.5 C 0.570312 1.5 0.300781 1.769531 0.300781 2.101562 L 0.300781 8.398438 L 11.699219 8.398438 L 11.699219 2.101562 C 11.699219 1.769531 11.429688 1.5 11.101562 1.5 Z M 11.101562 1.5 "/>
<path style=" stroke:none;fill-rule:nonzero;fill:rgb(29.411766%,39.215687%,46.666667%);fill-opacity:1;" d="M 6.449219 10.351562 L 6.449219 9.300781 C 6.449219 9.285156 6.453125 9.105469 6.324219 8.976562 C 6.269531 8.917969 6.167969 8.851562 6 8.851562 C 5.832031 8.851562 5.730469 8.917969 5.675781 8.976562 C 5.546875 9.105469 5.550781 9.285156 5.550781 9.304688 L 5.550781 10.351562 L 0.449219 10.351562 L 0.449219 8.25 L 11.550781 8.25 L 11.550781 10.351562 Z M 6.449219 10.351562 "/>
<path style=" stroke:none;fill-rule:nonzero;fill:rgb(21.176471%,25.098041%,30.19608%);fill-opacity:1;" d="M 11.398438 8.398438 L 11.398438 10.199219 L 6.601562 10.199219 L 6.601562 9.308594 C 6.601562 9.265625 6.597656 9.042969 6.433594 8.871094 C 6.355469 8.792969 6.21875 8.699219 6 8.699219 C 5.78125 8.699219 5.644531 8.792969 5.566406 8.871094 C 5.402344 9.042969 5.398438 9.265625 5.398438 9.300781 L 5.398438 10.199219 L 0.601562 10.199219 L 0.601562 8.398438 L 11.398438 8.398438 M 11.699219 8.101562 L 0.300781 8.101562 L 0.300781 10.5 L 5.699219 10.5 L 5.699219 9.300781 C 5.699219 9.300781 5.691406 9 6 9 C 6.308594 9 6.300781 9.300781 6.300781 9.300781 L 6.300781 10.5 L 11.699219 10.5 Z M 11.699219 8.101562 "/>
<path style=" stroke:none;fill-rule:nonzero;fill:rgb(96.078432%,80.784315%,52.156866%);fill-opacity:1;" d="M 7.5 10.5 L 7.5 9.152344 C 7.5 9.066406 7.433594 9 7.351562 9 C 7.265625 9 7.199219 9.066406 7.199219 9.152344 L 7.199219 10.5 Z M 8.101562 10.5 L 8.101562 9.152344 C 8.101562 9.066406 8.03125 9 7.949219 9 C 7.867188 9 7.800781 9.066406 7.800781 9.152344 L 7.800781 10.5 Z M 8.699219 10.5 L 8.699219 9.152344 C 8.699219 9.066406 8.632812 9 8.550781 9 C 8.46875 9 8.398438 9.066406 8.398438 9.152344 L 8.398438 10.5 Z M 9.300781 10.5 L 9.300781 9.152344 C 9.300781 9.066406 9.234375 9 9.148438 9 C 9.066406 9 9 9.066406 9 9.152344 L 9 10.5 Z M 9.898438 10.5 L 9.898438 9.152344 C 9.898438 9.066406 9.832031 9 9.75 9 C 9.667969 9 9.601562 9.066406 9.601562 9.152344 L 9.601562 10.5 Z M 10.5 10.5 L 10.5 9.152344 C 10.5 9.066406 10.433594 9 10.351562 9 C 10.265625 9 10.199219 9.066406 10.199219 9.152344 L 10.199219 10.5 Z M 11.101562 10.5 L 11.101562 9.152344 C 11.101562 9.066406 11.03125 9 10.949219 9 C 10.867188 9 10.800781 9.066406 10.800781 9.152344 L 10.800781 10.5 Z M 1.199219 10.5 L 1.199219 9.152344 C 1.199219 9.066406 1.132812 9 1.050781 9 C 0.96875 9 0.898438 9.066406 0.898438 9.152344 L 0.898438 10.5 Z M 1.800781 10.5 L 1.800781 9.152344 C 1.800781 9.066406 1.734375 9 1.648438 9 C 1.566406 9 1.5 9.066406 1.5 9.152344 L 1.5 10.5 Z M 2.398438 10.5 L 2.398438 9.152344 C 2.398438 9.066406 2.332031 9 2.25 9 C 2.167969 9 2.101562 9.066406 2.101562 9.152344 L 2.101562 10.5 Z M 3 10.5 L 3 9.152344 C 3 9.066406 2.933594 9 2.851562 9 C 2.765625 9 2.699219 9.066406 2.699219 9.152344 L 2.699219 10.5 Z M 3.601562 10.5 L 3.601562 9.152344 C 3.601562 9.066406 3.53125 9 3.449219 9 C 3.367188 9 3.300781 9.066406 3.300781 9.152344 L 3.300781 10.5 Z M 4.199219 10.5 L 4.199219 9.152344 C 4.199219 9.066406 4.132812 9 4.050781 9 C 3.96875 9 3.898438 9.066406 3.898438 9.152344 L 3.898438 10.5 Z M 4.800781 10.5 L 4.800781 9.152344 C 4.800781 9.066406 4.734375 9 4.648438 9 C 4.566406 9 4.5 9.066406 4.5 9.152344 L 4.5 10.5 Z M 4.800781 10.5 "/>
<path style=" stroke:none;fill-rule:nonzero;fill:rgb(29.411766%,39.215687%,46.666667%);fill-opacity:1;" d="M 9.148438 3.148438 L 10.351562 3.148438 L 10.351562 6.75 L 9.148438 6.75 Z M 9.148438 3.148438 "/>
<path style=" stroke:none;fill-rule:nonzero;fill:rgb(21.176471%,25.098041%,30.19608%);fill-opacity:1;" d="M 10.199219 3.300781 L 10.199219 6.601562 L 9.300781 6.601562 L 9.300781 3.300781 L 10.199219 3.300781 M 10.5 3 L 9 3 L 9 6.898438 L 10.5 6.898438 Z M 10.5 3 "/>
<path style=" stroke:none;fill-rule:nonzero;fill:rgb(29.411766%,39.215687%,46.666667%);fill-opacity:1;" d="M 6.75 3.148438 L 7.949219 3.148438 L 7.949219 6.75 L 6.75 6.75 Z M 6.75 3.148438 "/>
<path style=" stroke:none;fill-rule:nonzero;fill:rgb(21.176471%,25.098041%,30.19608%);fill-opacity:1;" d="M 7.800781 3.300781 L 7.800781 6.601562 L 6.898438 6.601562 L 6.898438 3.300781 L 7.800781 3.300781 M 8.101562 3 L 6.601562 3 L 6.601562 6.898438 L 8.101562 6.898438 Z M 8.101562 3 "/>
<path style=" stroke:none;fill-rule:nonzero;fill:rgb(29.411766%,39.215687%,46.666667%);fill-opacity:1;" d="M 4.050781 3.148438 L 5.25 3.148438 L 5.25 6.75 L 4.050781 6.75 Z M 4.050781 3.148438 "/>
<path style=" stroke:none;fill-rule:nonzero;fill:rgb(21.176471%,25.098041%,30.19608%);fill-opacity:1;" d="M 5.101562 3.300781 L 5.101562 6.601562 L 4.199219 6.601562 L 4.199219 3.300781 L 5.101562 3.300781 M 5.398438 3 L 3.898438 3 L 3.898438 6.898438 L 5.398438 6.898438 Z M 5.398438 3 "/>
<path style=" stroke:none;fill-rule:nonzero;fill:rgb(29.411766%,39.215687%,46.666667%);fill-opacity:1;" d="M 1.648438 3.148438 L 2.851562 3.148438 L 2.851562 6.75 L 1.648438 6.75 Z M 1.648438 3.148438 "/>
<path style=" stroke:none;fill-rule:nonzero;fill:rgb(21.176471%,25.098041%,30.19608%);fill-opacity:1;" d="M 2.699219 3.300781 L 2.699219 6.601562 L 1.800781 6.601562 L 1.800781 3.300781 L 2.699219 3.300781 M 3 3 L 1.5 3 L 1.5 6.898438 L 3 6.898438 Z M 3 3 "/>
</g>
</svg>
