<?xml version="1.0" encoding="UTF-8"?>
<svg xmlns="http://www.w3.org/2000/svg" xmlns:xlink="http://www.w3.org/1999/xlink" width="60pt" height="60pt" viewBox="0 0 60 60" version="1.1">
<g id="surface918">
<path style=" stroke:none;fill-rule:nonzero;fill:rgb(100%,100%,100%);fill-opacity:1;" d="M 3.75 3.75 L 56.25 3.75 L 56.25 56.25 L 3.75 56.25 Z M 3.75 3.75 "/>
<path style=" stroke:none;fill-rule:nonzero;fill:rgb(47.058824%,54.509807%,61.176473%);fill-opacity:1;" d="M 55.5 4.5 L 55.5 55.5 L 4.5 55.5 L 4.5 4.5 L 55.5 4.5 M 57 3 L 3 3 L 3 57 L 57 57 Z M 57 3 "/>
<path style=" stroke:none;fill-rule:nonzero;fill:rgb(77.254903%,83.137256%,87.058824%);fill-opacity:1;" d="M 15 4.5 L 15 55.5 L 13.5 55.5 L 13.5 4.5 Z M 15 4.5 "/>
<path style=" stroke:none;fill-rule:nonzero;fill:rgb(77.254903%,83.137256%,87.058824%);fill-opacity:1;" d="M 25.5 4.5 L 25.5 55.5 L 24 55.5 L 24 4.5 Z M 25.5 4.5 "/>
<path style=" stroke:none;fill-rule:nonzero;fill:rgb(77.254903%,83.137256%,87.058824%);fill-opacity:1;" d="M 36 4.5 L 36 55.5 L 34.5 55.5 L 34.5 4.5 Z M 36 4.5 "/>
<path style=" stroke:none;fill-rule:nonzero;fill:rgb(77.254903%,83.137256%,87.058824%);fill-opacity:1;" d="M 46.5 4.5 L 46.5 55.5 L 45 55.5 L 45 4.5 Z M 46.5 4.5 "/>
<path style=" stroke:none;fill-rule:nonzero;fill:rgb(77.254903%,83.137256%,87.058824%);fill-opacity:1;" d="M 55.5 15 L 4.5 15 L 4.5 13.5 L 55.5 13.5 Z M 55.5 15 "/>
<path style=" stroke:none;fill-rule:nonzero;fill:rgb(77.254903%,83.137256%,87.058824%);fill-opacity:1;" d="M 55.5 25.5 L 4.5 25.5 L 4.5 24 L 55.5 24 Z M 55.5 25.5 "/>
<path style=" stroke:none;fill-rule:nonzero;fill:rgb(77.254903%,83.137256%,87.058824%);fill-opacity:1;" d="M 55.5 36 L 4.5 36 L 4.5 34.5 L 55.5 34.5 Z M 55.5 36 "/>
<path style=" stroke:none;fill-rule:nonzero;fill:rgb(77.254903%,83.137256%,87.058824%);fill-opacity:1;" d="M 55.5 46.5 L 4.5 46.5 L 4.5 45 L 55.5 45 Z M 55.5 46.5 "/>
</g>
</svg>
