<?xml version="1.0" encoding="UTF-8"?>
<svg xmlns="http://www.w3.org/2000/svg" xmlns:xlink="http://www.w3.org/1999/xlink" width="18pt" height="18pt" viewBox="0 0 18 18" version="1.1">
<g id="surface10572">
<path style=" stroke:none;fill-rule:nonzero;fill:rgb(100%,100%,100%);fill-opacity:1;" d="M 1.125 15.976562 L 1.125 1.125 L 16.875 1.125 L 16.875 13.921875 L 12.773438 15.976562 Z M 1.125 15.976562 "/>
<path style=" stroke:none;fill-rule:nonzero;fill:rgb(47.058824%,54.509807%,61.176473%);fill-opacity:1;" d="M 16.648438 1.351562 L 16.648438 13.785156 L 12.71875 15.75 L 1.351562 15.75 L 1.351562 1.351562 L 16.648438 1.351562 M 17.101562 0.898438 L 0.898438 0.898438 L 0.898438 16.199219 L 12.824219 16.199219 L 17.101562 14.0625 Z M 17.101562 0.898438 "/>
<path style=" stroke:none;fill-rule:nonzero;fill:rgb(78.431374%,81.960785%,85.882354%);fill-opacity:1;" d="M 14.078125 15.75 L 9.449219 15.75 L 9.449219 16.199219 L 13.242188 16.199219 C 13.511719 16.054688 13.792969 15.902344 14.078125 15.75 Z M 17.101562 14.125 L 17.101562 12.503906 L 16.648438 12.246094 L 16.648438 14.367188 C 16.804688 14.285156 16.957031 14.203125 17.101562 14.125 Z M 17.101562 14.125 "/>
<path style=" stroke:none;fill-rule:nonzero;fill:rgb(47.058824%,54.509807%,61.176473%);fill-opacity:1;" d="M 0.898438 0.898438 L 17.101562 0.898438 L 17.101562 3.601562 L 0.898438 3.601562 Z M 0.898438 0.898438 "/>
<path style="fill:none;stroke-width:1;stroke-linecap:butt;stroke-linejoin:miter;stroke:rgb(54.509807%,71.764708%,94.117647%);stroke-opacity:1;stroke-miterlimit:10;" d="M 13.003472 15.503472 L 30.998264 15.503472 M 9.001736 15.503472 L 10 15.503472 M 13.003472 19.496528 L 30.998264 19.496528 M 9.001736 19.496528 L 10 19.496528 M 13.003472 23.498264 L 30.998264 23.498264 M 9.001736 23.498264 L 10 23.498264 M 13.003472 27.5 L 30.998264 27.5 M 9.001736 27.5 L 10 27.5 " transform="matrix(0.45,0,0,0.45,0,0)"/>
<path style=" stroke:none;fill-rule:nonzero;fill:rgb(76.078433%,90.980393%,100%);fill-opacity:1;" d="M 9.449219 10.800781 L 13.5 10.800781 L 12.65625 10.351562 L 9.449219 10.351562 Z M 9.449219 12.148438 L 13.5 12.148438 L 13.5 12.601562 L 9.449219 12.601562 Z M 9.449219 12.148438 "/>
<path style=" stroke:none;fill-rule:nonzero;fill:rgb(54.509807%,71.764708%,94.117647%);fill-opacity:1;" d="M 10.574219 10.273438 L 17.519531 13.949219 L 10.574219 17.625 Z M 10.574219 10.273438 "/>
<path style=" stroke:none;fill-rule:nonzero;fill:rgb(30.588236%,47.843137%,70.980394%);fill-opacity:1;" d="M 10.800781 10.648438 L 17.039062 13.949219 L 10.800781 17.253906 L 10.800781 10.648438 M 10.351562 9.898438 L 10.351562 18 L 18 13.949219 Z M 10.351562 9.898438 "/>
</g>
</svg>
