<?xml version="1.0" encoding="UTF-8"?>
<svg xmlns="http://www.w3.org/2000/svg" xmlns:xlink="http://www.w3.org/1999/xlink" width="22.5pt" height="22.5pt" viewBox="0 0 22.5 22.5" version="1.1">
<g id="surface4478">
<path style=" stroke:none;fill-rule:nonzero;fill:rgb(94.901961%,98.039216%,100%);fill-opacity:1;" d="M 8.433594 17.964844 L 8.433594 1.101562 L 16.714844 1.101562 L 20.898438 5.285156 L 20.898438 17.964844 Z M 8.433594 17.964844 "/>
<path style=" stroke:none;fill-rule:nonzero;fill:rgb(47.058824%,54.509807%,61.176473%);fill-opacity:1;" d="M 16.5625 1.464844 L 20.535156 5.4375 L 20.535156 17.601562 L 8.800781 17.601562 L 8.800781 1.464844 L 16.5625 1.464844 M 16.867188 0.734375 L 8.066406 0.734375 L 8.066406 18.332031 L 21.265625 18.332031 L 21.265625 5.132812 Z M 16.867188 0.734375 "/>
<path style=" stroke:none;fill-rule:nonzero;fill:rgb(100%,100%,100%);fill-opacity:1;" d="M 16.5 5.5 L 16.5 1.101562 L 16.714844 1.101562 L 20.898438 5.285156 L 20.898438 5.5 Z M 16.5 5.5 "/>
<path style=" stroke:none;fill-rule:nonzero;fill:rgb(47.058824%,54.509807%,61.176473%);fill-opacity:1;" d="M 16.867188 1.769531 L 20.230469 5.132812 L 16.867188 5.132812 L 16.867188 1.769531 M 16.867188 0.734375 L 16.132812 0.734375 L 16.132812 5.867188 L 21.265625 5.867188 L 21.265625 5.132812 Z M 16.867188 0.734375 "/>
<path style=" stroke:none;fill-rule:nonzero;fill:rgb(100%,100%,100%);fill-opacity:1;" d="M 1.101562 20.898438 L 1.101562 4.035156 L 9.382812 4.035156 L 13.566406 8.21875 L 13.566406 20.898438 Z M 1.101562 20.898438 "/>
<path style=" stroke:none;fill-rule:nonzero;fill:rgb(47.058824%,54.509807%,61.176473%);fill-opacity:1;" d="M 9.230469 4.398438 L 13.199219 8.371094 L 13.199219 20.535156 L 1.464844 20.535156 L 1.464844 4.398438 L 9.230469 4.398438 M 9.535156 3.667969 L 0.734375 3.667969 L 0.734375 21.265625 L 13.933594 21.265625 L 13.933594 8.066406 Z M 9.535156 3.667969 "/>
<path style=" stroke:none;fill-rule:nonzero;fill:rgb(100%,100%,100%);fill-opacity:1;" d="M 9.167969 8.433594 L 9.167969 4.035156 L 9.382812 4.035156 L 13.566406 8.21875 L 13.566406 8.433594 Z M 9.167969 8.433594 "/>
<path style=" stroke:none;fill-rule:nonzero;fill:rgb(47.058824%,54.509807%,61.176473%);fill-opacity:1;" d="M 9.535156 4.703125 L 12.894531 8.066406 L 9.535156 8.066406 L 9.535156 4.703125 M 9.535156 3.667969 L 8.800781 3.667969 L 8.800781 8.800781 L 13.933594 8.800781 L 13.933594 8.066406 Z M 9.535156 3.667969 "/>
</g>
</svg>
