<?xml version="1.0" encoding="UTF-8"?>
<svg xmlns="http://www.w3.org/2000/svg" xmlns:xlink="http://www.w3.org/1999/xlink" width="22.5pt" height="22.5pt" viewBox="0 0 22.5 22.5" version="1.1">
<g id="surface4272">
<path style=" stroke:none;fill-rule:nonzero;fill:rgb(86.274511%,83.529413%,94.901961%);fill-opacity:1;" d="M 17.558594 18.699219 C 16.496094 18.699219 15.457031 18.269531 14.703125 17.519531 L 5.175781 7.988281 L 7.253906 5.910156 L 20.046875 18.699219 Z M 17.558594 18.699219 "/>
<path style=" stroke:none;fill-rule:nonzero;fill:rgb(54.509807%,45.882353%,63.137257%);fill-opacity:1;" d="M 7.253906 6.425781 L 19.160156 18.332031 L 17.558594 18.332031 C 16.578125 18.332031 15.65625 17.953125 14.964844 17.257812 L 5.695312 7.988281 L 7.253906 6.425781 M 7.253906 5.390625 L 4.65625 7.988281 L 14.445312 17.777344 C 15.269531 18.601562 16.390625 19.066406 17.558594 19.066406 L 20.933594 19.066406 Z M 7.253906 5.390625 "/>
<path style=" stroke:none;fill-rule:nonzero;fill:rgb(54.509807%,45.882353%,63.137257%);fill-opacity:1;" d="M 8.570312 11.902344 L 11.167969 9.300781 L 13.40625 11.542969 L 10.808594 14.140625 Z M 8.570312 11.902344 "/>
<path style=" stroke:none;fill-rule:nonzero;fill:rgb(86.274511%,83.529413%,94.901961%);fill-opacity:1;" d="M 5.175781 14.011719 L 14.707031 4.480469 C 15.457031 3.730469 16.496094 3.300781 17.558594 3.300781 L 20.046875 3.300781 L 7.253906 16.089844 Z M 5.175781 14.011719 "/>
<path style=" stroke:none;fill-rule:nonzero;fill:rgb(54.509807%,45.882353%,63.137257%);fill-opacity:1;" d="M 19.160156 3.667969 L 7.253906 15.574219 L 5.695312 14.011719 L 14.964844 4.742188 C 15.65625 4.046875 16.578125 3.667969 17.558594 3.667969 L 19.160156 3.667969 M 20.933594 2.933594 L 17.558594 2.933594 C 16.390625 2.933594 15.273438 3.398438 14.445312 4.222656 L 4.65625 14.011719 L 7.253906 16.609375 Z M 20.933594 2.933594 "/>
<path style=" stroke:none;fill-rule:nonzero;fill:rgb(96.862745%,56.078434%,56.078434%);fill-opacity:1;" d="M 4.398438 20.167969 C 2.582031 20.167969 1.101562 18.6875 1.101562 16.867188 C 1.101562 15.046875 2.582031 13.566406 4.398438 13.566406 C 4.65625 13.566406 4.921875 13.605469 5.238281 13.6875 L 5.445312 13.742188 L 6.601562 12.585938 L 8.722656 14.625 L 7.523438 15.824219 L 7.578125 16.027344 C 7.660156 16.34375 7.699219 16.613281 7.699219 16.867188 C 7.699219 18.6875 6.21875 20.167969 4.398438 20.167969 Z M 4.398438 15.035156 C 3.390625 15.035156 2.566406 15.855469 2.566406 16.867188 C 2.566406 17.878906 3.390625 18.699219 4.398438 18.699219 C 5.410156 18.699219 6.234375 17.878906 6.234375 16.867188 C 6.234375 15.855469 5.410156 15.035156 4.398438 15.035156 Z M 5.445312 8.257812 L 5.238281 8.3125 C 4.921875 8.394531 4.65625 8.433594 4.398438 8.433594 C 2.582031 8.433594 1.101562 6.953125 1.101562 5.132812 C 1.101562 3.3125 2.582031 1.832031 4.398438 1.832031 C 6.21875 1.832031 7.699219 3.3125 7.699219 5.132812 C 7.699219 5.386719 7.660156 5.65625 7.578125 5.972656 L 7.523438 6.175781 L 8.722656 7.375 L 6.601562 9.414062 Z M 4.398438 3.300781 C 3.390625 3.300781 2.566406 4.121094 2.566406 5.132812 C 2.566406 6.144531 3.390625 6.964844 4.398438 6.964844 C 5.410156 6.964844 6.234375 6.144531 6.234375 5.132812 C 6.234375 4.121094 5.410156 3.300781 4.398438 3.300781 Z M 4.398438 3.300781 "/>
<path style=" stroke:none;fill-rule:nonzero;fill:rgb(78.039217%,26.274511%,26.274511%);fill-opacity:1;" d="M 4.398438 2.199219 C 6.019531 2.199219 7.332031 3.515625 7.332031 5.132812 C 7.332031 5.355469 7.296875 5.59375 7.222656 5.878906 L 7.117188 6.285156 L 7.414062 6.585938 L 8.199219 7.371094 L 6.605469 8.902344 L 5.851562 8.148438 L 5.554688 7.847656 L 5.144531 7.957031 C 4.859375 8.03125 4.625 8.066406 4.398438 8.066406 C 2.78125 8.066406 1.464844 6.75 1.464844 5.132812 C 1.464844 3.515625 2.78125 2.199219 4.398438 2.199219 M 4.398438 7.332031 C 5.613281 7.332031 6.601562 6.347656 6.601562 5.132812 C 6.601562 3.921875 5.613281 2.933594 4.398438 2.933594 C 3.1875 2.933594 2.199219 3.921875 2.199219 5.132812 C 2.199219 6.347656 3.1875 7.332031 4.398438 7.332031 M 6.605469 13.097656 L 8.195312 14.628906 L 7.414062 15.414062 L 7.113281 15.714844 L 7.222656 16.121094 C 7.296875 16.40625 7.332031 16.644531 7.332031 16.867188 C 7.332031 18.484375 6.019531 19.800781 4.398438 19.800781 C 2.78125 19.800781 1.464844 18.484375 1.464844 16.867188 C 1.464844 15.25 2.78125 13.933594 4.398438 13.933594 C 4.625 13.933594 4.859375 13.96875 5.144531 14.042969 L 5.554688 14.152344 L 5.851562 13.851562 L 6.605469 13.097656 M 4.398438 19.066406 C 5.613281 19.066406 6.601562 18.078125 6.601562 16.867188 C 6.601562 15.652344 5.613281 14.667969 4.398438 14.667969 C 3.1875 14.667969 2.199219 15.652344 2.199219 16.867188 C 2.199219 18.078125 3.1875 19.066406 4.398438 19.066406 M 4.398438 1.464844 C 2.375 1.464844 0.734375 3.109375 0.734375 5.132812 C 0.734375 7.15625 2.375 8.800781 4.398438 8.800781 C 4.726562 8.800781 5.035156 8.746094 5.332031 8.664062 L 6.597656 9.929688 L 9.246094 7.378906 L 7.933594 6.066406 C 8.011719 5.765625 8.066406 5.457031 8.066406 5.132812 C 8.066406 3.109375 6.425781 1.464844 4.398438 1.464844 Z M 4.398438 6.601562 C 3.589844 6.601562 2.933594 5.945312 2.933594 5.132812 C 2.933594 4.324219 3.589844 3.667969 4.398438 3.667969 C 5.210938 3.667969 5.867188 4.324219 5.867188 5.132812 C 5.867188 5.945312 5.210938 6.601562 4.398438 6.601562 Z M 6.597656 12.070312 L 5.332031 13.335938 C 5.035156 13.253906 4.726562 13.199219 4.398438 13.199219 C 2.375 13.199219 0.734375 14.84375 0.734375 16.867188 C 0.734375 18.890625 2.375 20.535156 4.398438 20.535156 C 6.425781 20.535156 8.066406 18.890625 8.066406 16.867188 C 8.066406 16.542969 8.011719 16.234375 7.933594 15.933594 L 9.242188 14.621094 Z M 4.398438 18.332031 C 3.589844 18.332031 2.933594 17.675781 2.933594 16.867188 C 2.933594 16.054688 3.589844 15.398438 4.398438 15.398438 C 5.210938 15.398438 5.867188 16.054688 5.867188 16.867188 C 5.867188 17.675781 5.210938 18.332031 4.398438 18.332031 Z M 4.398438 18.332031 "/>
<path style=" stroke:none;fill-rule:nonzero;fill:rgb(54.509807%,45.882353%,63.137257%);fill-opacity:1;" d="M 10.15625 10.421875 C 9.777344 10.421875 9.46875 10.730469 9.46875 11.109375 C 9.46875 11.488281 9.777344 11.796875 10.15625 11.796875 C 10.535156 11.796875 10.84375 11.488281 10.84375 11.109375 C 10.84375 10.730469 10.535156 10.421875 10.15625 10.421875 Z M 10.15625 10.421875 "/>
</g>
</svg>
