<?xml version="1.0" encoding="UTF-8"?>
<svg xmlns="http://www.w3.org/2000/svg" xmlns:xlink="http://www.w3.org/1999/xlink" width="30pt" height="30pt" viewBox="0 0 30 30" version="1.1">
<g id="surface21263">
<path style=" stroke:none;fill-rule:nonzero;fill:rgb(54.509807%,71.764708%,94.117647%);fill-opacity:1;" d="M 15 28.875 C 7.347656 28.875 1.125 22.652344 1.125 15 C 1.125 7.347656 7.347656 1.125 15 1.125 C 22.652344 1.125 28.875 7.347656 28.875 15 C 28.875 22.652344 22.652344 28.875 15 28.875 Z M 15 28.875 "/>
<path style=" stroke:none;fill-rule:nonzero;fill:rgb(30.588236%,47.843137%,70.980394%);fill-opacity:1;" d="M 15 1.5 C 22.445312 1.5 28.5 7.554688 28.5 15 C 28.5 22.445312 22.445312 28.5 15 28.5 C 7.554688 28.5 1.5 22.445312 1.5 15 C 1.5 7.554688 7.554688 1.5 15 1.5 M 15 0.75 C 7.128906 0.75 0.75 7.128906 0.75 15 C 0.75 22.871094 7.128906 29.25 15 29.25 C 22.871094 29.25 29.25 22.871094 29.25 15 C 29.25 7.128906 22.871094 0.75 15 0.75 Z M 15 0.75 "/>
<path style=" stroke:none;fill-rule:nonzero;fill:rgb(100%,100%,100%);fill-opacity:1;" d="M 15 21 C 14.171875 21 13.5 21.671875 13.5 22.5 C 13.5 23.328125 14.171875 24 15 24 C 15.828125 24 16.5 23.328125 16.5 22.5 C 16.5 21.671875 15.828125 21 15 21 Z M 15 21 "/>
<path style="fill:none;stroke-width:3;stroke-linecap:butt;stroke-linejoin:miter;stroke:rgb(100%,100%,100%);stroke-opacity:1;stroke-miterlimit:10;" d="M 15.5 17 L 15.5 15 C 15.5 12.515625 17.515625 10.5 20 10.5 C 22.484375 10.5 24.5 12.489583 24.5 15 C 24.5 19.692708 20 19.791667 20 24 L 20 25.5 " transform="matrix(0.75,0,0,0.75,0,0)"/>
</g>
</svg>
