<?xml version="1.0" encoding="UTF-8"?>
<svg xmlns="http://www.w3.org/2000/svg" xmlns:xlink="http://www.w3.org/1999/xlink" width="18pt" height="18pt" viewBox="0 0 18 18" version="1.1">
<g id="surface5131">
<path style=" stroke:none;fill-rule:nonzero;fill:rgb(100%,100%,100%);fill-opacity:1;" d="M 3.375 16.875 L 3.375 1.125 L 11.605469 1.125 L 15.523438 5.042969 L 15.523438 15.867188 C 15.523438 16.421875 15.074219 16.875 14.515625 16.875 Z M 3.375 16.875 "/>
<path style=" stroke:none;fill-rule:nonzero;fill:rgb(47.058824%,54.509807%,61.176473%);fill-opacity:1;" d="M 11.515625 1.351562 L 15.300781 5.136719 L 15.300781 15.863281 C 15.300781 16.296875 14.949219 16.648438 14.515625 16.648438 L 3.601562 16.648438 L 3.601562 1.351562 L 11.515625 1.351562 M 11.699219 0.898438 L 3.148438 0.898438 L 3.148438 17.101562 L 14.515625 17.101562 C 15.199219 17.101562 15.75 16.546875 15.75 15.867188 L 15.75 4.949219 Z M 11.699219 0.898438 "/>
<path style=" stroke:none;fill-rule:nonzero;fill:rgb(100%,100%,100%);fill-opacity:1;" d="M 11.476562 5.175781 L 11.476562 1.125 L 11.605469 1.125 L 15.523438 5.042969 L 15.523438 5.175781 Z M 11.476562 5.175781 "/>
<path style=" stroke:none;fill-rule:nonzero;fill:rgb(47.058824%,54.509807%,61.176473%);fill-opacity:1;" d="M 11.699219 1.535156 L 15.113281 4.949219 L 11.699219 4.949219 L 11.699219 1.535156 M 11.699219 0.898438 L 11.25 0.898438 L 11.25 5.398438 L 15.75 5.398438 L 15.75 4.949219 Z M 11.699219 0.898438 "/>
<path style=" stroke:none;fill-rule:nonzero;fill:rgb(77.254903%,83.137256%,87.058824%);fill-opacity:1;" d="M 5.851562 7.199219 L 13.050781 7.199219 L 13.050781 7.648438 L 5.851562 7.648438 Z M 5.851562 8.550781 L 11.25 8.550781 L 11.25 9 L 5.851562 9 Z M 5.851562 9.898438 L 13.050781 9.898438 L 13.050781 10.351562 L 5.851562 10.351562 Z M 5.851562 11.25 L 11.25 11.25 L 11.25 11.699219 L 5.851562 11.699219 Z M 5.851562 12.601562 L 13.050781 12.601562 L 13.050781 13.050781 L 5.851562 13.050781 Z M 5.851562 12.601562 "/>
<path style=" stroke:none;fill-rule:nonzero;fill:rgb(83.92157%,89.019608%,92.941177%);fill-opacity:1;" d="M 15.300781 9.898438 L 15.300781 16.648438 L 12.148438 16.648438 L 12.601562 17.101562 L 14.402344 17.101562 C 15.148438 17.101562 15.75 16.496094 15.75 15.75 L 15.75 9.898438 Z M 15.300781 9.898438 "/>
<path style=" stroke:none;fill-rule:nonzero;fill:rgb(54.509807%,71.764708%,94.117647%);fill-opacity:1;" d="M 11.300781 14.175781 L 13.273438 14.175781 L 13.273438 11.023438 L 15.523438 11.023438 L 15.523438 14.175781 L 17.5 14.175781 L 14.398438 17.660156 Z M 11.300781 14.175781 "/>
<path style=" stroke:none;fill-rule:nonzero;fill:rgb(30.588236%,47.843137%,70.980394%);fill-opacity:1;" d="M 15.300781 11.25 L 15.300781 14.398438 L 16.996094 14.398438 L 14.398438 17.324219 L 11.800781 14.398438 L 13.5 14.398438 L 13.5 11.25 L 15.300781 11.25 M 15.75 10.800781 L 13.050781 10.800781 L 13.050781 13.949219 L 10.800781 13.949219 L 14.398438 18 L 18 13.949219 L 15.75 13.949219 Z M 15.75 10.800781 "/>
</g>
</svg>
