<?xml version="1.0" encoding="UTF-8"?>
<svg xmlns="http://www.w3.org/2000/svg" xmlns:xlink="http://www.w3.org/1999/xlink" width="22.5pt" height="22.5pt" viewBox="0 0 22.5 22.5" version="1.1">
<g id="surface3075">
<path style=" stroke:none;fill-rule:nonzero;fill:rgb(100%,100%,100%);fill-opacity:1;" d="M 4.035156 20.167969 L 4.035156 1.832031 L 13.78125 1.832031 L 17.964844 6.019531 L 17.964844 20.167969 Z M 4.035156 20.167969 "/>
<path style=" stroke:none;fill-rule:nonzero;fill:rgb(47.058824%,54.509807%,61.176473%);fill-opacity:1;" d="M 13.628906 2.199219 L 17.601562 6.171875 L 17.601562 19.800781 L 4.398438 19.800781 L 4.398438 2.199219 L 13.628906 2.199219 M 13.933594 1.464844 L 3.667969 1.464844 L 3.667969 20.535156 L 18.332031 20.535156 L 18.332031 5.867188 Z M 13.933594 1.464844 "/>
<path style=" stroke:none;fill-rule:nonzero;fill:rgb(100%,100%,100%);fill-opacity:1;" d="M 13.566406 6.234375 L 13.566406 1.832031 L 13.78125 1.832031 L 17.964844 6.019531 L 17.964844 6.234375 Z M 13.566406 6.234375 "/>
<path style=" stroke:none;fill-rule:nonzero;fill:rgb(47.058824%,54.509807%,61.176473%);fill-opacity:1;" d="M 13.933594 2.503906 L 17.296875 5.867188 L 13.933594 5.867188 L 13.933594 2.503906 M 13.933594 1.464844 L 13.199219 1.464844 L 13.199219 6.601562 L 18.332031 6.601562 L 18.332031 5.867188 Z M 13.933594 1.464844 "/>
<path style=" stroke:none;fill-rule:nonzero;fill:rgb(83.92157%,89.019608%,92.941177%);fill-opacity:1;" d="M 18.136719 10.679688 L 17.601562 10.160156 L 17.601562 19.800781 L 11.644531 19.800781 L 12.476562 20.238281 L 12.527344 20.535156 L 18.332031 20.535156 L 18.332031 10.867188 Z M 18.136719 10.679688 "/>
<path style=" stroke:none;fill-rule:nonzero;fill:rgb(100%,93.333334%,63.921571%);fill-opacity:1;" d="M 15.976562 20.382812 L 14.402344 20.605469 L 14.125 19.039062 L 12.71875 18.296875 L 13.417969 16.867188 L 12.71875 15.4375 L 14.125 14.691406 L 14.402344 13.125 L 15.976562 13.347656 L 17.117188 12.242188 L 18.261719 13.347656 L 19.835938 13.125 L 20.109375 14.691406 L 21.515625 15.4375 L 20.816406 16.867188 L 21.515625 18.296875 L 20.109375 19.039062 L 19.835938 20.605469 L 18.261719 20.382812 L 17.117188 21.488281 Z M 15.976562 20.382812 "/>
<path style=" stroke:none;fill-rule:nonzero;fill:rgb(72.941178%,60.784316%,28.235295%);fill-opacity:1;" d="M 17.117188 12.753906 L 17.875 13.488281 L 18.132812 13.738281 L 18.488281 13.6875 L 19.535156 13.539062 L 19.71875 14.578125 L 19.777344 14.933594 L 20.09375 15.101562 L 21.027344 15.59375 L 20.5625 16.542969 L 20.40625 16.867188 L 20.566406 17.1875 L 21.03125 18.136719 L 20.097656 18.632812 L 19.78125 18.800781 L 19.71875 19.152344 L 19.535156 20.195312 L 18.488281 20.046875 L 18.132812 19.996094 L 17.878906 20.246094 L 17.117188 20.980469 L 16.359375 20.246094 L 16.101562 19.996094 L 15.746094 20.046875 L 14.699219 20.195312 L 14.519531 19.152344 L 14.457031 18.800781 L 14.140625 18.632812 L 13.207031 18.136719 L 13.671875 17.1875 L 13.828125 16.867188 L 13.667969 16.542969 L 13.207031 15.59375 L 14.136719 15.101562 L 14.457031 14.933594 L 14.515625 14.578125 L 14.699219 13.539062 L 15.746094 13.6875 L 16.101562 13.738281 L 16.359375 13.488281 L 17.117188 12.753906 M 17.117188 11.734375 L 15.847656 12.960938 L 14.101562 12.714844 L 13.792969 14.453125 L 12.234375 15.28125 L 13.011719 16.867188 L 12.234375 18.453125 L 13.792969 19.28125 L 14.101562 21.019531 L 15.847656 20.773438 L 17.117188 22 L 18.386719 20.773438 L 20.136719 21.019531 L 20.441406 19.28125 L 22 18.453125 L 21.222656 16.867188 L 22 15.28125 L 20.441406 14.453125 L 20.136719 12.714844 L 18.386719 12.960938 Z M 17.117188 11.734375 "/>
</g>
</svg>
