<?xml version="1.0" encoding="UTF-8"?>
<svg xmlns="http://www.w3.org/2000/svg" xmlns:xlink="http://www.w3.org/1999/xlink" width="22.5pt" height="22.5pt" viewBox="0 0 22.5 22.5" version="1.1">
<g id="surface3497">
<path style=" stroke:none;fill-rule:nonzero;fill:rgb(85.882354%,69.01961%,39.607844%);fill-opacity:1;" d="M 1.101562 19.433594 L 1.101562 2.566406 L 7.179688 2.566406 L 9.382812 4.765625 L 19.433594 4.765625 L 19.433594 19.433594 Z M 1.101562 19.433594 "/>
<path style=" stroke:none;fill-rule:nonzero;fill:rgb(58.823532%,47.843137%,26.666668%);fill-opacity:1;" d="M 7.03125 2.933594 L 9.230469 5.132812 L 19.066406 5.132812 L 19.066406 19.066406 L 1.464844 19.066406 L 1.464844 2.933594 L 7.03125 2.933594 M 7.332031 2.199219 L 0.734375 2.199219 L 0.734375 19.800781 L 19.800781 19.800781 L 19.800781 4.398438 L 9.535156 4.398438 Z M 7.332031 2.199219 "/>
<path style=" stroke:none;fill-rule:nonzero;fill:rgb(96.078432%,80.784315%,52.156866%);fill-opacity:1;" d="M 1.179688 19.433594 L 3.234375 9.167969 L 8.910156 9.167969 L 11.109375 7.699219 L 20.855469 7.699219 L 19.472656 19.433594 Z M 1.179688 19.433594 "/>
<path style=" stroke:none;fill-rule:nonzero;fill:rgb(58.823532%,47.843137%,26.666668%);fill-opacity:1;" d="M 20.441406 8.066406 L 19.148438 19.066406 L 1.628906 19.066406 L 3.535156 9.535156 L 9.023438 9.535156 L 9.207031 9.410156 L 11.222656 8.066406 L 20.441406 8.066406 M 21.265625 7.332031 L 11 7.332031 L 8.800781 8.800781 L 2.933594 8.800781 L 0.734375 19.800781 L 19.800781 19.800781 Z M 21.265625 7.332031 "/>
</g>
</svg>
