<?xml version="1.0" encoding="UTF-8"?>
<svg xmlns="http://www.w3.org/2000/svg" xmlns:xlink="http://www.w3.org/1999/xlink" width="22.5pt" height="22.5pt" viewBox="0 0 22.5 22.5" version="1.1">
<g id="surface4603">
<path style=" stroke:none;fill-rule:nonzero;fill:rgb(40.000001%,47.450981%,56.078434%);fill-opacity:1;" d="M 11 0.734375 C 11.402344 0.734375 11.734375 1.0625 11.734375 1.464844 C 11.734375 1.871094 11.402344 2.199219 11 2.199219 C 10.597656 2.199219 10.265625 1.871094 10.265625 1.464844 C 10.265625 1.0625 10.597656 0.734375 11 0.734375 M 11 0 C 10.191406 0 9.535156 0.65625 9.535156 1.464844 C 9.535156 2.277344 10.191406 2.933594 11 2.933594 C 11.808594 2.933594 12.464844 2.277344 12.464844 1.464844 C 12.464844 0.65625 11.808594 0 11 0 Z M 11 0 "/>
<path style=" stroke:none;fill-rule:nonzero;fill:rgb(96.078432%,76.078433%,46.27451%);fill-opacity:1;" d="M 3.667969 20.898438 C 3.464844 20.898438 3.300781 20.734375 3.300781 20.535156 L 3.300781 2.199219 C 3.300781 2 3.464844 1.832031 3.667969 1.832031 L 9.203125 1.832031 C 9.375 2.667969 10.113281 3.300781 11 3.300781 C 11.886719 3.300781 12.625 2.667969 12.796875 1.832031 L 18.332031 1.832031 C 18.535156 1.832031 18.699219 2 18.699219 2.199219 L 18.699219 20.535156 C 18.699219 20.734375 18.535156 20.898438 18.332031 20.898438 Z M 3.667969 20.898438 "/>
<path style=" stroke:none;fill-rule:nonzero;fill:rgb(76.078433%,58.823532%,32.549021%);fill-opacity:1;" d="M 18.332031 2.199219 L 18.332031 20.535156 L 3.667969 20.535156 L 3.667969 2.199219 L 8.925781 2.199219 C 9.226562 3.054688 10.042969 3.667969 11 3.667969 C 11.957031 3.667969 12.773438 3.054688 13.074219 2.199219 L 18.332031 2.199219 M 18.332031 1.464844 L 12.464844 1.464844 C 12.464844 2.277344 11.808594 2.933594 11 2.933594 C 10.191406 2.933594 9.535156 2.277344 9.535156 1.464844 L 3.667969 1.464844 C 3.261719 1.464844 2.933594 1.796875 2.933594 2.199219 L 2.933594 20.535156 C 2.933594 20.9375 3.261719 21.265625 3.667969 21.265625 L 18.332031 21.265625 C 18.738281 21.265625 19.066406 20.9375 19.066406 20.535156 L 19.066406 2.199219 C 19.066406 1.796875 18.738281 1.464844 18.332031 1.464844 Z M 18.332031 1.464844 "/>
<path style=" stroke:none;fill-rule:nonzero;fill:rgb(100%,100%,100%);fill-opacity:1;" d="M 5.132812 3.667969 L 16.867188 3.667969 L 16.867188 19.066406 L 5.132812 19.066406 Z M 5.132812 3.667969 "/>
<path style=" stroke:none;fill-rule:nonzero;fill:rgb(40.000001%,47.450981%,56.078434%);fill-opacity:1;" d="M 12.097656 1.464844 C 12.097656 2.277344 11.808594 2.484375 11 2.484375 C 10.191406 2.484375 9.941406 2.277344 9.941406 1.464844 L 7.332031 1.464844 L 7.332031 3.667969 C 7.332031 4.070312 7.660156 4.398438 8.066406 4.398438 L 13.933594 4.398438 C 14.339844 4.398438 14.667969 4.070312 14.667969 3.667969 L 14.667969 1.464844 Z M 12.097656 1.464844 "/>
</g>
</svg>
