<?xml version="1.0" encoding="UTF-8"?>
<svg xmlns="http://www.w3.org/2000/svg" xmlns:xlink="http://www.w3.org/1999/xlink" width="22.5pt" height="22.5pt" viewBox="0 0 22.5 22.5" version="1.1">
<g id="surface3926">
<path style=" stroke:none;fill-rule:nonzero;fill:rgb(54.509807%,71.764708%,94.117647%);fill-opacity:1;" d="M 7.332031 17.964844 C 3.894531 17.964844 1.101562 15.171875 1.101562 11.734375 C 1.101562 8.296875 3.894531 5.5 7.332031 5.5 L 16.5 5.5 L 16.5 2.351562 L 20.75 6.601562 L 16.5 10.847656 L 16.5 7.699219 L 7.332031 7.699219 C 5.109375 7.699219 3.300781 9.511719 3.300781 11.734375 C 3.300781 13.957031 5.109375 15.765625 7.332031 15.765625 L 10.632812 15.765625 L 10.632812 17.964844 Z M 7.332031 17.964844 "/>
<path style=" stroke:none;fill-rule:nonzero;fill:rgb(30.588236%,47.843137%,70.980394%);fill-opacity:1;" d="M 16.867188 3.238281 L 20.230469 6.601562 L 16.867188 9.964844 L 16.867188 7.332031 L 7.332031 7.332031 C 4.90625 7.332031 2.933594 9.308594 2.933594 11.734375 C 2.933594 14.160156 4.90625 16.132812 7.332031 16.132812 L 10.265625 16.132812 L 10.265625 17.601562 L 7.332031 17.601562 C 4.097656 17.601562 1.464844 14.96875 1.464844 11.734375 C 1.464844 8.5 4.097656 5.867188 7.332031 5.867188 L 16.867188 5.867188 L 16.867188 3.238281 M 16.132812 1.464844 L 16.132812 5.132812 L 7.332031 5.132812 C 3.6875 5.132812 0.734375 8.089844 0.734375 11.734375 C 0.734375 15.378906 3.6875 18.332031 7.332031 18.332031 L 11 18.332031 L 11 15.398438 L 7.332031 15.398438 C 5.308594 15.398438 3.667969 13.757812 3.667969 11.734375 C 3.667969 9.707031 5.308594 8.066406 7.332031 8.066406 L 16.132812 8.066406 L 16.132812 11.734375 L 21.265625 6.601562 Z M 16.132812 1.464844 "/>
</g>
</svg>
