<?xml version="1.0" encoding="UTF-8"?>
<svg xmlns="http://www.w3.org/2000/svg" xmlns:xlink="http://www.w3.org/1999/xlink" width="18pt" height="18pt" viewBox="0 0 18 18" version="1.1">
<g id="surface3739">
<path style=" stroke:none;fill-rule:nonzero;fill:rgb(54.509807%,71.764708%,94.117647%);fill-opacity:1;" d="M 10.617188 1.292969 L 10.617188 3.292969 C 13.109375 3.996094 14.933594 6.285156 14.933594 9 C 14.933594 12.277344 12.277344 14.933594 9 14.933594 C 5.722656 14.933594 3.066406 12.277344 3.066406 9 C 3.066406 6.796875 4.269531 4.875 6.050781 3.851562 L 7.425781 5.222656 L 7.425781 1.125 L 3.324219 1.125 L 4.644531 2.445312 C 2.527344 3.855469 1.125 6.261719 1.125 9 C 1.125 13.347656 4.652344 16.875 9 16.875 C 13.347656 16.875 16.875 13.347656 16.875 9 C 16.875 5.207031 14.191406 2.039062 10.617188 1.292969 Z M 10.617188 1.292969 "/>
<path style=" stroke:none;fill-rule:nonzero;fill:rgb(30.588236%,47.843137%,70.980394%);fill-opacity:1;" d="M 9 17.09375 C 4.535156 17.09375 0.90625 13.464844 0.90625 9 C 0.90625 6.378906 2.171875 3.9375 4.304688 2.414062 L 2.796875 0.90625 L 7.644531 0.90625 L 7.644531 5.753906 L 6.019531 4.128906 C 4.328125 5.164062 3.285156 7.015625 3.285156 9 C 3.285156 12.152344 5.847656 14.714844 9 14.714844 C 12.152344 14.714844 14.714844 12.152344 14.714844 9 C 14.714844 6.457031 13.003906 4.195312 10.558594 3.503906 L 10.398438 3.457031 L 10.398438 1.023438 L 10.664062 1.078125 C 14.390625 1.855469 17.09375 5.1875 17.09375 9 C 17.09375 13.464844 13.464844 17.09375 9 17.09375 Z M 3.855469 1.34375 L 4.988281 2.480469 L 4.765625 2.628906 C 2.625 4.054688 1.34375 6.4375 1.34375 9 C 1.34375 13.222656 4.777344 16.65625 9 16.65625 C 13.222656 16.65625 16.65625 13.222656 16.65625 9 C 16.65625 5.484375 14.222656 2.402344 10.835938 1.566406 L 10.835938 3.128906 C 13.386719 3.925781 15.152344 6.316406 15.152344 9 C 15.152344 12.390625 12.390625 15.152344 9 15.152344 C 5.605469 15.152344 2.847656 12.390625 2.847656 9 C 2.847656 6.800781 4.035156 4.757812 5.945312 3.660156 L 6.089844 3.578125 L 7.207031 4.695312 L 7.207031 1.34375 Z M 3.855469 1.34375 "/>
</g>
</svg>
