<?xml version="1.0" encoding="UTF-8"?>
<svg xmlns="http://www.w3.org/2000/svg" xmlns:xlink="http://www.w3.org/1999/xlink" width="22.5pt" height="22.5pt" viewBox="0 0 22.5 22.5" version="1.1">
<g id="surface3823">
<path style=" stroke:none;fill-rule:nonzero;fill:rgb(86.274511%,83.529413%,94.901961%);fill-opacity:1;" d="M 1.832031 20.167969 L 1.832031 1.832031 L 15.980469 1.832031 L 20.167969 6.019531 L 20.167969 20.167969 Z M 1.832031 20.167969 "/>
<path style=" stroke:none;fill-rule:nonzero;fill:rgb(54.509807%,45.882353%,63.137257%);fill-opacity:1;" d="M 15.828125 2.199219 L 19.800781 6.171875 L 19.800781 19.800781 L 2.199219 19.800781 L 2.199219 2.199219 L 15.828125 2.199219 M 16.132812 1.464844 L 1.464844 1.464844 L 1.464844 20.535156 L 20.535156 20.535156 L 20.535156 5.867188 Z M 16.132812 1.464844 "/>
<path style=" stroke:none;fill-rule:nonzero;fill:rgb(100%,100%,100%);fill-opacity:1;" d="M 4.035156 11.367188 L 17.964844 11.367188 L 17.964844 20.167969 L 4.035156 20.167969 Z M 4.035156 11.367188 "/>
<path style=" stroke:none;fill-rule:nonzero;fill:rgb(47.058824%,54.509807%,61.176473%);fill-opacity:1;" d="M 17.601562 11.734375 L 17.601562 19.800781 L 4.398438 19.800781 L 4.398438 11.734375 L 17.601562 11.734375 M 18.332031 11 L 3.667969 11 L 3.667969 20.535156 L 18.332031 20.535156 Z M 18.332031 11 "/>
<path style=" stroke:none;fill-rule:nonzero;fill:rgb(77.64706%,72.941178%,90.196079%);fill-opacity:1;" d="M 13.933594 2.199219 L 5.132812 2.199219 L 5.132812 7.332031 C 5.132812 7.738281 5.460938 8.066406 5.867188 8.066406 L 13.933594 8.066406 C 14.339844 8.066406 14.667969 7.738281 14.667969 7.332031 L 14.667969 2.933594 C 14.667969 2.527344 14.339844 2.199219 13.933594 2.199219 Z M 13.933594 2.199219 "/>
<path style=" stroke:none;fill-rule:nonzero;fill:rgb(88.235295%,92.156863%,94.901961%);fill-opacity:1;" d="M 7.332031 7.699219 C 7.132812 7.699219 6.964844 7.535156 6.964844 7.332031 L 6.964844 2.199219 C 6.964844 1.996094 7.132812 1.832031 7.332031 1.832031 L 15.398438 1.832031 C 15.601562 1.832031 15.765625 1.996094 15.765625 2.199219 L 15.765625 7.332031 C 15.765625 7.535156 15.601562 7.699219 15.398438 7.699219 Z M 7.332031 7.699219 "/>
<path style=" stroke:none;fill-rule:nonzero;fill:rgb(40.000001%,47.450981%,56.078434%);fill-opacity:1;" d="M 15.398438 2.199219 L 15.398438 7.332031 L 7.332031 7.332031 L 7.332031 2.199219 L 15.398438 2.199219 M 15.398438 1.464844 L 7.332031 1.464844 C 6.929688 1.464844 6.601562 1.796875 6.601562 2.199219 L 6.601562 7.332031 C 6.601562 7.738281 6.929688 8.066406 7.332031 8.066406 L 15.398438 8.066406 C 15.804688 8.066406 16.132812 7.738281 16.132812 7.332031 L 16.132812 2.199219 C 16.132812 1.796875 15.804688 1.464844 15.398438 1.464844 Z M 15.398438 1.464844 "/>
<path style=" stroke:none;fill-rule:nonzero;fill:rgb(76.078433%,90.980393%,100%);fill-opacity:1;" d="M 5.867188 15.398438 L 16.132812 15.398438 L 16.132812 16.132812 L 5.867188 16.132812 Z M 5.867188 13.199219 L 16.132812 13.199219 L 16.132812 13.933594 L 5.867188 13.933594 Z M 5.867188 17.601562 L 16.132812 17.601562 L 16.132812 18.332031 L 5.867188 18.332031 Z M 5.867188 17.601562 "/>
<path style=" stroke:none;fill-rule:nonzero;fill:rgb(47.058824%,54.509807%,61.176473%);fill-opacity:1;" d="M 12.464844 2.933594 L 13.933594 2.933594 L 13.933594 6.601562 L 12.464844 6.601562 Z M 12.464844 2.933594 "/>
</g>
</svg>
