<?xml version="1.0" encoding="UTF-8"?>
<svg xmlns="http://www.w3.org/2000/svg" xmlns:xlink="http://www.w3.org/1999/xlink" width="13.5pt" height="13.5pt" viewBox="0 0 13.5 13.5" version="1.1">
<g id="surface3474">
<path style=" stroke:none;fill-rule:nonzero;fill:rgb(86.274511%,83.529413%,94.901961%);fill-opacity:1;" d="M 0.8125 12.1875 L 0.8125 0.8125 L 9.671875 0.8125 L 12.1875 3.328125 L 12.1875 9.878906 C 12.1875 11.144531 11.164062 12.1875 9.878906 12.1875 Z M 0.8125 12.1875 "/>
<path style=" stroke:none;fill-rule:nonzero;fill:rgb(54.509807%,45.882353%,63.137257%);fill-opacity:1;" d="M 9.878906 12.351562 L 0.648438 12.351562 L 0.648438 0.648438 L 9.738281 0.648438 L 12.351562 3.261719 L 12.351562 9.878906 C 12.351562 11.242188 11.242188 12.351562 9.878906 12.351562 Z M 0.976562 12.023438 L 9.878906 12.023438 C 11.0625 12.023438 12.023438 11.0625 12.023438 9.878906 L 12.023438 3.394531 L 9.605469 0.976562 L 0.976562 0.976562 Z M 0.976562 12.023438 "/>
<path style=" stroke:none;fill-rule:nonzero;fill:rgb(100%,100%,100%);fill-opacity:1;" d="M 2.113281 6.335938 L 10.886719 6.335938 L 10.886719 12.1875 L 2.113281 12.1875 Z M 2.113281 6.335938 "/>
<path style=" stroke:none;fill-rule:nonzero;fill:rgb(47.058824%,54.509807%,61.176473%);fill-opacity:1;" d="M 11.050781 12.351562 L 1.949219 12.351562 L 1.949219 6.175781 L 11.050781 6.175781 Z M 2.273438 12.023438 L 10.726562 12.023438 L 10.726562 6.5 L 2.273438 6.5 Z M 2.273438 12.023438 "/>
<path style=" stroke:none;fill-rule:nonzero;fill:rgb(77.64706%,72.941178%,90.196079%);fill-opacity:1;" d="M 8.773438 0.976562 L 2.925781 0.976562 L 2.925781 4.226562 C 2.925781 4.402344 3.070312 4.550781 3.25 4.550781 L 8.773438 4.550781 Z M 8.773438 0.976562 "/>
<path style=" stroke:none;fill-rule:nonzero;fill:rgb(88.235295%,92.156863%,94.901961%);fill-opacity:1;" d="M 4.300781 4.386719 C 4.171875 4.386719 4.0625 4.277344 4.0625 4.15625 L 4.0625 1.046875 C 4.0625 0.921875 4.171875 0.8125 4.300781 0.8125 L 9.351562 0.8125 C 9.476562 0.8125 9.585938 0.921875 9.585938 1.046875 L 9.585938 4.152344 C 9.585938 4.277344 9.476562 4.386719 9.351562 4.386719 Z M 4.300781 4.386719 "/>
<path style=" stroke:none;fill-rule:nonzero;fill:rgb(47.058824%,54.509807%,61.176473%);fill-opacity:1;" d="M 9.351562 4.550781 L 4.300781 4.550781 C 4.082031 4.550781 3.898438 4.367188 3.898438 4.15625 L 3.898438 1.046875 C 3.898438 0.832031 4.082031 0.648438 4.300781 0.648438 L 9.351562 0.648438 C 9.566406 0.648438 9.75 0.832031 9.75 1.046875 L 9.75 4.152344 C 9.75 4.367188 9.566406 4.550781 9.351562 4.550781 Z M 4.300781 0.976562 C 4.261719 0.976562 4.226562 1.011719 4.226562 1.046875 L 4.226562 4.152344 C 4.226562 4.1875 4.261719 4.226562 4.300781 4.226562 L 9.351562 4.226562 C 9.386719 4.226562 9.425781 4.1875 9.425781 4.15625 L 9.425781 1.046875 C 9.425781 1.011719 9.386719 0.976562 9.351562 0.976562 Z M 4.300781 0.976562 "/>
<path style=" stroke:none;fill-rule:nonzero;fill:rgb(76.078433%,90.980393%,100%);fill-opacity:1;" d="M 3.25 7.800781 L 9.75 7.800781 L 9.75 8.125 L 3.25 8.125 Z M 3.25 9.101562 L 9.75 9.101562 L 9.75 9.425781 L 3.25 9.425781 Z M 3.25 10.398438 L 9.75 10.398438 L 9.75 10.726562 L 3.25 10.726562 Z M 3.25 10.398438 "/>
<path style=" stroke:none;fill-rule:nonzero;fill:rgb(47.058824%,54.509807%,61.176473%);fill-opacity:1;" d="M 7.476562 1.625 L 8.449219 1.625 L 8.449219 3.574219 L 7.476562 3.574219 Z M 7.476562 1.625 "/>
<path style=" stroke:none;fill-rule:nonzero;fill:rgb(72.941178%,87.843138%,74.117649%);fill-opacity:1;" d="M 10.074219 12.835938 C 8.558594 12.835938 7.3125 11.589844 7.3125 10.074219 C 7.3125 8.558594 8.558594 7.3125 10.074219 7.3125 C 11.589844 7.3125 12.835938 8.558594 12.835938 10.074219 C 12.835938 11.589844 11.589844 12.835938 10.074219 12.835938 Z M 10.074219 12.835938 "/>
<path style=" stroke:none;fill-rule:nonzero;fill:rgb(36.862746%,61.176473%,46.27451%);fill-opacity:1;" d="M 10.074219 13 C 8.460938 13 7.148438 11.6875 7.148438 10.074219 C 7.148438 8.460938 8.460938 7.148438 10.074219 7.148438 C 11.6875 7.148438 13 8.460938 13 10.074219 C 13 11.6875 11.6875 13 10.074219 13 Z M 10.074219 7.476562 C 8.640625 7.476562 7.476562 8.640625 7.476562 10.074219 C 7.476562 11.507812 8.640625 12.675781 10.074219 12.675781 C 11.507812 12.675781 12.675781 11.507812 12.675781 10.074219 C 12.675781 8.640625 11.507812 7.476562 10.074219 7.476562 Z M 10.074219 7.476562 "/>
<path style=" stroke:none;fill-rule:nonzero;fill:rgb(100%,100%,100%);fill-opacity:1;" d="M 9.734375 11.359375 L 8.449219 10.074219 L 8.90625 9.621094 L 9.734375 10.449219 L 11.210938 8.96875 L 11.667969 9.425781 Z M 9.734375 11.359375 "/>
</g>
</svg>
