<?xml version="1.0" encoding="UTF-8"?>
<svg xmlns="http://www.w3.org/2000/svg" xmlns:xlink="http://www.w3.org/1999/xlink" width="12pt" height="12pt" viewBox="0 0 12 12" version="1.1">
<g id="surface2853">
<path style=" stroke:none;fill-rule:nonzero;fill:rgb(100%,100%,100%);fill-opacity:1;" d="M 1.949219 11.25 L 1.949219 0.75 L 7.4375 0.75 L 10.050781 3.363281 L 10.050781 11.25 Z M 1.949219 11.25 "/>
<path style=" stroke:none;fill-rule:nonzero;fill:rgb(47.058824%,54.509807%,61.176473%);fill-opacity:1;" d="M 7.375 0.898438 L 9.898438 3.425781 L 9.898438 11.101562 L 2.101562 11.101562 L 2.101562 0.898438 L 7.375 0.898438 M 7.5 0.601562 L 1.800781 0.601562 L 1.800781 11.398438 L 10.199219 11.398438 L 10.199219 3.300781 Z M 7.5 0.601562 "/>
<path style=" stroke:none;fill-rule:nonzero;fill:rgb(100%,100%,100%);fill-opacity:1;" d="M 7.351562 3.449219 L 7.351562 0.75 L 7.4375 0.75 L 10.050781 3.363281 L 10.050781 3.449219 Z M 7.351562 3.449219 "/>
<path style=" stroke:none;fill-rule:nonzero;fill:rgb(47.058824%,54.509807%,61.176473%);fill-opacity:1;" d="M 7.5 1.023438 L 9.777344 3.300781 L 7.5 3.300781 L 7.5 1.023438 M 7.5 0.601562 L 7.199219 0.601562 L 7.199219 3.601562 L 10.199219 3.601562 L 10.199219 3.300781 Z M 7.5 0.601562 "/>
<path style="fill:none;stroke-width:1;stroke-linecap:butt;stroke-linejoin:miter;stroke:rgb(69.803923%,44.705883%,85.882354%);stroke-opacity:1;stroke-miterlimit:10;" d="M 25.494792 19.505208 L 27.5 23.502604 L 25.494792 27.5 M 14.505208 19.505208 L 12.5 23.502604 L 14.505208 27.5 M 22.5 16.497396 L 17.5 30.494792 " transform="matrix(0.3,0,0,0.3,0,0)"/>
</g>
</svg>
