<?xml version="1.0" encoding="UTF-8"?>
<svg xmlns="http://www.w3.org/2000/svg" xmlns:xlink="http://www.w3.org/1999/xlink" width="22.5pt" height="22.5pt" viewBox="0 0 22.5 22.5" version="1.1">
<g id="surface3861">
<path style=" stroke:none;fill-rule:nonzero;fill:rgb(54.509807%,71.764708%,94.117647%);fill-opacity:1;" d="M 11.367188 17.964844 L 11.367188 15.765625 L 14.667969 15.765625 C 16.890625 15.765625 18.699219 13.957031 18.699219 11.734375 C 18.699219 9.507812 16.890625 7.699219 14.667969 7.699219 L 5.5 7.699219 L 5.5 10.847656 L 1.25 6.601562 L 5.5 2.351562 L 5.5 5.5 L 14.667969 5.5 C 18.105469 5.5 20.898438 8.296875 20.898438 11.734375 C 20.898438 15.171875 18.105469 17.964844 14.667969 17.964844 Z M 11.367188 17.964844 "/>
<path style=" stroke:none;fill-rule:nonzero;fill:rgb(30.588236%,47.843137%,70.980394%);fill-opacity:1;" d="M 5.132812 3.238281 L 5.132812 5.867188 L 14.667969 5.867188 C 17.902344 5.867188 20.535156 8.5 20.535156 11.734375 C 20.535156 14.96875 17.902344 17.601562 14.667969 17.601562 L 11.734375 17.601562 L 11.734375 16.132812 L 14.667969 16.132812 C 17.09375 16.132812 19.066406 14.160156 19.066406 11.734375 C 19.066406 9.308594 17.09375 7.332031 14.667969 7.332031 L 5.132812 7.332031 L 5.132812 9.964844 L 1.769531 6.601562 L 5.132812 3.238281 M 5.867188 1.464844 L 0.734375 6.601562 L 5.867188 11.734375 L 5.867188 8.066406 L 14.667969 8.066406 C 16.691406 8.066406 18.332031 9.707031 18.332031 11.734375 C 18.332031 13.757812 16.691406 15.398438 14.667969 15.398438 L 11 15.398438 L 11 18.332031 L 14.667969 18.332031 C 18.3125 18.332031 21.265625 15.378906 21.265625 11.734375 C 21.265625 8.089844 18.3125 5.132812 14.667969 5.132812 L 5.867188 5.132812 Z M 5.867188 1.464844 "/>
</g>
</svg>
