<?xml version="1.0" encoding="UTF-8"?>
<svg xmlns="http://www.w3.org/2000/svg" xmlns:xlink="http://www.w3.org/1999/xlink" width="30pt" height="30pt" viewBox="0 0 30 30" version="1.1">
<g id="surface4832">
<path style=" stroke:none;fill-rule:nonzero;fill:rgb(76.078433%,90.980393%,100%);fill-opacity:1;" d="M 14.0625 25.3125 C 7.859375 25.3125 2.8125 20.265625 2.8125 14.0625 C 2.8125 9.589844 5.441406 5.625 9.40625 3.832031 L 8.128906 6.792969 C 5.90625 8.640625 4.6875 11.214844 4.6875 14.0625 C 4.6875 19.230469 8.894531 23.4375 14.0625 23.4375 C 19.230469 23.4375 23.4375 19.230469 23.4375 14.0625 C 23.4375 11.28125 22.222656 8.664062 20.097656 6.84375 L 18.835938 3.886719 C 22.730469 5.707031 25.3125 9.644531 25.3125 14.0625 C 25.3125 20.265625 20.265625 25.3125 14.0625 25.3125 Z M 14.0625 25.3125 "/>
<path style=" stroke:none;fill-rule:nonzero;fill:rgb(45.490196%,58.823532%,76.862746%);fill-opacity:1;" d="M 24.375 14.0625 C 24.375 19.75 19.75 24.375 14.0625 24.375 C 8.375 24.375 3.75 19.75 3.75 14.0625 C 3.75 19.75 8.375 24.375 14.0625 24.375 C 19.75 24.375 24.375 19.75 24.375 14.0625 M 11.109375 2.25 C 5.808594 3.574219 1.875 8.351562 1.875 14.0625 C 1.875 20.792969 7.332031 26.25 14.0625 26.25 C 20.792969 26.25 26.25 20.792969 26.25 14.0625 C 26.25 8.390625 22.371094 3.640625 17.128906 2.28125 L 19.324219 7.417969 C 21.226562 8.964844 22.5 11.316406 22.5 14.0625 C 22.5 18.722656 18.722656 22.5 14.0625 22.5 C 9.402344 22.5 5.625 18.722656 5.625 14.0625 C 5.625 11.210938 6.953125 8.921875 8.898438 7.375 Z M 11.109375 2.25 "/>
<path style=" stroke:none;fill-rule:nonzero;fill:rgb(54.509807%,71.764708%,94.117647%);fill-opacity:1;" d="M 0 13.125 L 5.625 13.125 L 5.625 15 L 0 15 Z M 0 13.125 "/>
<path style=" stroke:none;fill-rule:nonzero;fill:rgb(30.588236%,47.843137%,70.980394%);fill-opacity:1;" d="M 5.625 13.125 L 0 13.125 L 0 15 L 5.625 15 Z M 15 22.5 L 13.125 22.5 L 13.125 28.125 L 15 28.125 Z M 15 22.5 "/>
<path style=" stroke:none;fill-rule:nonzero;fill:rgb(54.509807%,71.764708%,94.117647%);fill-opacity:1;" d="M 22.5 13.125 L 28.125 13.125 L 28.125 15 L 22.5 15 Z M 22.5 13.125 "/>
<path style=" stroke:none;fill-rule:nonzero;fill:rgb(30.588236%,47.843137%,70.980394%);fill-opacity:1;" d="M 28.125 13.125 L 22.5 13.125 L 22.5 15 L 28.125 15 Z M 28.125 13.125 "/>
<path style=" stroke:none;fill-rule:nonzero;fill:rgb(96.862745%,56.078434%,56.078434%);fill-opacity:1;" d="M 14.0625 10.261719 L 10.132812 11.570312 L 14.117188 2.382812 L 18.011719 11.578125 Z M 14.0625 10.261719 "/>
<path style=" stroke:none;fill-rule:nonzero;fill:rgb(78.039217%,26.274511%,26.274511%);fill-opacity:1;" d="M 14.109375 4.761719 L 16.339844 10.03125 L 14.65625 9.46875 L 14.0625 9.273438 L 13.46875 9.46875 L 11.828125 10.019531 L 14.109375 4.761719 M 14.128906 0 L 8.4375 13.125 L 14.0625 11.25 L 19.6875 13.125 Z M 14.128906 0 "/>
</g>
</svg>
