<?xml version="1.0" encoding="UTF-8"?>
<svg xmlns="http://www.w3.org/2000/svg" xmlns:xlink="http://www.w3.org/1999/xlink" width="13.5pt" height="13.5pt" viewBox="0 0 13.5 13.5" version="1.1">
<g id="surface3745">
<path style=" stroke:none;fill-rule:nonzero;fill:rgb(76.078433%,90.980393%,100%);fill-opacity:1;" d="M 0.8125 11.78125 C 0.589844 11.78125 0.40625 11.597656 0.40625 11.375 L 0.40625 0.8125 C 0.40625 0.589844 0.589844 0.40625 0.8125 0.40625 L 11.375 0.40625 C 11.597656 0.40625 11.78125 0.589844 11.78125 0.8125 L 11.78125 11.375 C 11.78125 11.597656 11.597656 11.78125 11.375 11.78125 Z M 0.8125 11.78125 "/>
<path style=" stroke:none;fill-rule:nonzero;fill:rgb(45.490196%,58.823532%,76.862746%);fill-opacity:1;" d="M 11.375 0.8125 L 11.375 11.375 L 0.8125 11.375 L 0.8125 0.8125 L 11.375 0.8125 M 11.375 0 L 0.8125 0 C 0.363281 0 0 0.363281 0 0.8125 L 0 11.375 C 0 11.824219 0.363281 12.1875 0.8125 12.1875 L 11.375 12.1875 C 11.824219 12.1875 12.1875 11.824219 12.1875 11.375 L 12.1875 0.8125 C 12.1875 0.363281 11.824219 0 11.375 0 Z M 11.375 0 "/>
<path style=" stroke:none;fill-rule:nonzero;fill:rgb(72.941178%,87.843138%,74.117649%);fill-opacity:1;" d="M 2.03125 2.03125 L 3.65625 2.03125 L 3.65625 3.65625 L 2.03125 3.65625 Z M 2.03125 2.03125 "/>
<path style=" stroke:none;fill-rule:nonzero;fill:rgb(36.862746%,61.176473%,46.27451%);fill-opacity:1;" d="M 3.25 2.4375 L 3.25 3.25 L 2.4375 3.25 L 2.4375 2.4375 L 3.25 2.4375 M 3.65625 1.625 L 2.03125 1.625 C 1.808594 1.625 1.625 1.808594 1.625 2.03125 L 1.625 3.65625 C 1.625 3.878906 1.808594 4.0625 2.03125 4.0625 L 3.65625 4.0625 C 3.878906 4.0625 4.0625 3.878906 4.0625 3.65625 L 4.0625 2.03125 C 4.0625 1.808594 3.878906 1.625 3.65625 1.625 Z M 3.65625 1.625 "/>
<path style=" stroke:none;fill-rule:nonzero;fill:rgb(72.941178%,87.843138%,74.117649%);fill-opacity:1;" d="M 5.28125 2.03125 L 6.90625 2.03125 L 6.90625 3.65625 L 5.28125 3.65625 Z M 5.28125 2.03125 "/>
<path style=" stroke:none;fill-rule:nonzero;fill:rgb(36.862746%,61.176473%,46.27451%);fill-opacity:1;" d="M 6.5 2.4375 L 6.5 3.25 L 5.6875 3.25 L 5.6875 2.4375 L 6.5 2.4375 M 6.90625 1.625 L 5.28125 1.625 C 5.058594 1.625 4.875 1.808594 4.875 2.03125 L 4.875 3.65625 C 4.875 3.878906 5.058594 4.0625 5.28125 4.0625 L 6.90625 4.0625 C 7.128906 4.0625 7.3125 3.878906 7.3125 3.65625 L 7.3125 2.03125 C 7.3125 1.808594 7.128906 1.625 6.90625 1.625 Z M 6.90625 1.625 "/>
<path style=" stroke:none;fill-rule:nonzero;fill:rgb(72.941178%,87.843138%,74.117649%);fill-opacity:1;" d="M 8.53125 2.03125 L 10.15625 2.03125 L 10.15625 3.65625 L 8.53125 3.65625 Z M 8.53125 2.03125 "/>
<path style=" stroke:none;fill-rule:nonzero;fill:rgb(36.862746%,61.176473%,46.27451%);fill-opacity:1;" d="M 9.75 2.4375 L 9.75 3.25 L 8.9375 3.25 L 8.9375 2.4375 L 9.75 2.4375 M 10.15625 1.625 L 8.53125 1.625 C 8.308594 1.625 8.125 1.808594 8.125 2.03125 L 8.125 3.65625 C 8.125 3.878906 8.308594 4.0625 8.53125 4.0625 L 10.15625 4.0625 C 10.378906 4.0625 10.5625 3.878906 10.5625 3.65625 L 10.5625 2.03125 C 10.5625 1.808594 10.378906 1.625 10.15625 1.625 Z M 10.15625 1.625 "/>
<path style=" stroke:none;fill-rule:nonzero;fill:rgb(72.941178%,87.843138%,74.117649%);fill-opacity:1;" d="M 2.03125 5.28125 L 3.65625 5.28125 L 3.65625 6.90625 L 2.03125 6.90625 Z M 2.03125 5.28125 "/>
<path style=" stroke:none;fill-rule:nonzero;fill:rgb(36.862746%,61.176473%,46.27451%);fill-opacity:1;" d="M 3.25 5.6875 L 3.25 6.5 L 2.4375 6.5 L 2.4375 5.6875 L 3.25 5.6875 M 3.65625 4.875 L 2.03125 4.875 C 1.808594 4.875 1.625 5.058594 1.625 5.28125 L 1.625 6.90625 C 1.625 7.128906 1.808594 7.3125 2.03125 7.3125 L 3.65625 7.3125 C 3.878906 7.3125 4.0625 7.128906 4.0625 6.90625 L 4.0625 5.28125 C 4.0625 5.058594 3.878906 4.875 3.65625 4.875 Z M 3.65625 4.875 "/>
<path style=" stroke:none;fill-rule:nonzero;fill:rgb(72.941178%,87.843138%,74.117649%);fill-opacity:1;" d="M 5.28125 5.28125 L 6.90625 5.28125 L 6.90625 6.90625 L 5.28125 6.90625 Z M 5.28125 5.28125 "/>
<path style=" stroke:none;fill-rule:nonzero;fill:rgb(36.862746%,61.176473%,46.27451%);fill-opacity:1;" d="M 6.5 5.6875 L 6.5 6.5 L 5.6875 6.5 L 5.6875 5.6875 L 6.5 5.6875 M 6.90625 4.875 L 5.28125 4.875 C 5.058594 4.875 4.875 5.058594 4.875 5.28125 L 4.875 6.90625 C 4.875 7.128906 5.058594 7.3125 5.28125 7.3125 L 6.90625 7.3125 C 7.128906 7.3125 7.3125 7.128906 7.3125 6.90625 L 7.3125 5.28125 C 7.3125 5.058594 7.128906 4.875 6.90625 4.875 Z M 6.90625 4.875 "/>
<path style=" stroke:none;fill-rule:nonzero;fill:rgb(72.941178%,87.843138%,74.117649%);fill-opacity:1;" d="M 8.53125 5.28125 L 10.15625 5.28125 L 10.15625 6.90625 L 8.53125 6.90625 Z M 8.53125 5.28125 "/>
<path style=" stroke:none;fill-rule:nonzero;fill:rgb(36.862746%,61.176473%,46.27451%);fill-opacity:1;" d="M 9.75 5.6875 L 9.75 6.5 L 8.9375 6.5 L 8.9375 5.6875 L 9.75 5.6875 M 10.15625 4.875 L 8.53125 4.875 C 8.308594 4.875 8.125 5.058594 8.125 5.28125 L 8.125 6.90625 C 8.125 7.128906 8.308594 7.3125 8.53125 7.3125 L 10.15625 7.3125 C 10.378906 7.3125 10.5625 7.128906 10.5625 6.90625 L 10.5625 5.28125 C 10.5625 5.058594 10.378906 4.875 10.15625 4.875 Z M 10.15625 4.875 "/>
<path style=" stroke:none;fill-rule:nonzero;fill:rgb(72.941178%,87.843138%,74.117649%);fill-opacity:1;" d="M 2.03125 8.53125 L 3.65625 8.53125 L 3.65625 10.15625 L 2.03125 10.15625 Z M 2.03125 8.53125 "/>
<path style=" stroke:none;fill-rule:nonzero;fill:rgb(36.862746%,61.176473%,46.27451%);fill-opacity:1;" d="M 3.25 8.9375 L 3.25 9.75 L 2.4375 9.75 L 2.4375 8.9375 L 3.25 8.9375 M 3.65625 8.125 L 2.03125 8.125 C 1.808594 8.125 1.625 8.308594 1.625 8.53125 L 1.625 10.15625 C 1.625 10.378906 1.808594 10.5625 2.03125 10.5625 L 3.65625 10.5625 C 3.878906 10.5625 4.0625 10.378906 4.0625 10.15625 L 4.0625 8.53125 C 4.0625 8.308594 3.878906 8.125 3.65625 8.125 Z M 3.65625 8.125 "/>
<path style=" stroke:none;fill-rule:nonzero;fill:rgb(72.941178%,87.843138%,74.117649%);fill-opacity:1;" d="M 5.28125 8.53125 L 6.90625 8.53125 L 6.90625 10.15625 L 5.28125 10.15625 Z M 5.28125 8.53125 "/>
<path style=" stroke:none;fill-rule:nonzero;fill:rgb(36.862746%,61.176473%,46.27451%);fill-opacity:1;" d="M 6.5 8.9375 L 6.5 9.75 L 5.6875 9.75 L 5.6875 8.9375 L 6.5 8.9375 M 6.90625 8.125 L 5.28125 8.125 C 5.058594 8.125 4.875 8.308594 4.875 8.53125 L 4.875 10.15625 C 4.875 10.378906 5.058594 10.5625 5.28125 10.5625 L 6.90625 10.5625 C 7.128906 10.5625 7.3125 10.378906 7.3125 10.15625 L 7.3125 8.53125 C 7.3125 8.308594 7.128906 8.125 6.90625 8.125 Z M 6.90625 8.125 "/>
<path style=" stroke:none;fill-rule:nonzero;fill:rgb(72.941178%,87.843138%,74.117649%);fill-opacity:1;" d="M 8.53125 8.53125 L 10.15625 8.53125 L 10.15625 10.15625 L 8.53125 10.15625 Z M 8.53125 8.53125 "/>
<path style=" stroke:none;fill-rule:nonzero;fill:rgb(36.862746%,61.176473%,46.27451%);fill-opacity:1;" d="M 9.75 8.9375 L 9.75 9.75 L 8.9375 9.75 L 8.9375 8.9375 L 9.75 8.9375 M 10.15625 8.125 L 8.53125 8.125 C 8.308594 8.125 8.125 8.308594 8.125 8.53125 L 8.125 10.15625 C 8.125 10.378906 8.308594 10.5625 8.53125 10.5625 L 10.15625 10.5625 C 10.378906 10.5625 10.5625 10.378906 10.5625 10.15625 L 10.5625 8.53125 C 10.5625 8.308594 10.378906 8.125 10.15625 8.125 Z M 10.15625 8.125 "/>
</g>
</svg>
