<?xml version="1.0" encoding="UTF-8"?>
<svg xmlns="http://www.w3.org/2000/svg" xmlns:xlink="http://www.w3.org/1999/xlink" width="60pt" height="60pt" viewBox="0 0 60 60" version="1.1">
<g id="surface115">
<path style=" stroke:none;fill-rule:nonzero;fill:rgb(94.901961%,98.039216%,100%);fill-opacity:1;" d="M 30 1.875 C 14.46875 1.875 1.875 14.46875 1.875 30 C 1.875 45.53125 14.46875 58.125 30 58.125 C 45.53125 58.125 58.125 45.53125 58.125 30 C 58.125 14.46875 45.53125 1.875 30 1.875 Z M 30 1.875 "/>
<path style=" stroke:none;fill-rule:nonzero;fill:rgb(47.058824%,54.509807%,61.176473%);fill-opacity:1;" d="M 30 3.75 C 44.625 3.75 56.25 15.375 56.25 30 C 56.25 44.625 44.625 56.25 30 56.25 C 15.375 56.25 3.75 44.625 3.75 30 C 3.75 15.375 15.375 3.75 30 3.75 M 30 0 C 13.5 0 0 13.5 0 30 C 0 46.5 13.5 60 30 60 C 46.5 60 60 46.5 60 30 C 60 13.5 46.5 0 30 0 Z M 30 0 "/>
<path style=" stroke:none;fill-rule:nonzero;fill:rgb(30.588236%,47.843137%,70.980394%);fill-opacity:1;" d="M 15.957031 18.53125 L 18.605469 15.878906 L 31.335938 28.609375 L 28.683594 31.257812 Z M 15.957031 18.53125 "/>
<path style=" stroke:none;fill-rule:nonzero;fill:rgb(54.509807%,71.764708%,94.117647%);fill-opacity:1;" d="M 30 27.75 C 28.757812 27.75 27.75 28.757812 27.75 30 C 27.75 31.242188 28.757812 32.25 30 32.25 C 31.242188 32.25 32.25 31.242188 32.25 30 C 32.25 28.757812 31.242188 27.75 30 27.75 Z M 30 27.75 "/>
<path style=" stroke:none;fill-rule:nonzero;fill:rgb(30.588236%,47.843137%,70.980394%);fill-opacity:1;" d="M 30 29.625 C 30.375 29.625 30.375 30 30.375 30 C 30.375 30.375 30 30.375 30 30.375 C 30 30.375 29.625 30.375 29.625 30 C 29.625 29.625 29.625 29.625 30 29.625 M 30 25.875 C 27.75 25.875 25.875 27.75 25.875 30 C 25.875 32.25 27.75 34.125 30 34.125 C 32.25 34.125 34.125 32.25 34.125 30 C 34.125 27.75 32.25 25.875 30 25.875 Z M 30 25.875 "/>
<path style=" stroke:none;fill-rule:nonzero;fill:rgb(47.058824%,54.509807%,61.176473%);fill-opacity:1;" d="M 17.914062 3.480469 L 21.417969 2.148438 L 23.414062 7.410156 L 19.90625 8.738281 Z M 17.914062 3.480469 "/>
<path style=" stroke:none;fill-rule:nonzero;fill:rgb(47.058824%,54.509807%,61.176473%);fill-opacity:1;" d="M 51.261719 19.902344 L 56.523438 17.914062 L 57.847656 21.421875 L 52.585938 23.410156 Z M 51.261719 19.902344 "/>
<path style=" stroke:none;fill-rule:nonzero;fill:rgb(47.058824%,54.509807%,61.176473%);fill-opacity:1;" d="M 2.148438 38.582031 L 7.410156 36.589844 L 8.738281 40.09375 L 3.480469 42.085938 Z M 2.148438 38.582031 "/>
<path style=" stroke:none;fill-rule:nonzero;fill:rgb(47.058824%,54.509807%,61.176473%);fill-opacity:1;" d="M 37.945312 7.910156 L 40.257812 2.78125 L 43.675781 4.320312 L 41.363281 9.449219 Z M 37.945312 7.910156 "/>
<path style=" stroke:none;fill-rule:nonzero;fill:rgb(47.058824%,54.509807%,61.176473%);fill-opacity:1;" d="M 50.554688 41.371094 L 52.097656 37.953125 L 57.222656 40.261719 L 55.683594 43.683594 Z M 50.554688 41.371094 "/>
<path style=" stroke:none;fill-rule:nonzero;fill:rgb(47.058824%,54.509807%,61.176473%);fill-opacity:1;" d="M 2.78125 19.746094 L 4.320312 16.324219 L 9.449219 18.636719 L 7.910156 22.054688 Z M 2.78125 19.746094 "/>
</g>
</svg>
