<?xml version="1.0" encoding="UTF-8"?>
<svg xmlns="http://www.w3.org/2000/svg" xmlns:xlink="http://www.w3.org/1999/xlink" width="13.5pt" height="13.5pt" viewBox="0 0 13.5 13.5" version="1.1">
<g id="surface2812">
<path style=" stroke:none;fill-rule:nonzero;fill:rgb(40.000001%,47.450981%,56.078434%);fill-opacity:1;" d="M 11.375 1.625 L 11.375 11.375 L 1.625 11.375 L 1.625 1.625 L 11.375 1.625 M 12.1875 0.8125 L 0.8125 0.8125 L 0.8125 12.1875 L 12.1875 12.1875 Z M 12.1875 0.8125 "/>
<path style=" stroke:none;fill-rule:nonzero;fill:rgb(30.588236%,47.843137%,70.980394%);fill-opacity:1;" d="M 10.5625 0 L 13 0 L 13 2.4375 L 10.5625 2.4375 Z M 0 0 L 2.4375 0 L 2.4375 2.4375 L 0 2.4375 Z M 10.5625 10.5625 L 13 10.5625 L 13 13 L 10.5625 13 Z M 0 10.5625 L 2.4375 10.5625 L 2.4375 13 L 0 13 Z M 0 10.5625 "/>
<path style=" stroke:none;fill-rule:nonzero;fill:rgb(86.274511%,83.529413%,94.901961%);fill-opacity:1;" d="M 6.09375 6.09375 L 9.34375 6.09375 L 9.34375 9.34375 L 6.09375 9.34375 Z M 6.09375 6.09375 "/>
<path style=" stroke:none;fill-rule:nonzero;fill:rgb(54.509807%,45.882353%,63.137257%);fill-opacity:1;" d="M 8.9375 6.5 L 8.9375 8.9375 L 6.5 8.9375 L 6.5 6.5 L 8.9375 6.5 M 9.75 5.6875 L 5.6875 5.6875 L 5.6875 9.75 L 9.75 9.75 Z M 9.75 5.6875 "/>
<path style=" stroke:none;fill-rule:nonzero;fill:rgb(94.901961%,98.039216%,100%);fill-opacity:1;" d="M 3.65625 3.65625 L 6.90625 3.65625 L 6.90625 6.90625 L 3.65625 6.90625 Z M 3.65625 3.65625 "/>
<path style=" stroke:none;fill-rule:nonzero;fill:rgb(47.058824%,54.509807%,61.176473%);fill-opacity:1;" d="M 6.5 4.0625 L 6.5 6.5 L 4.0625 6.5 L 4.0625 4.0625 L 6.5 4.0625 M 7.3125 3.25 L 3.25 3.25 L 3.25 7.3125 L 7.3125 7.3125 Z M 7.3125 3.25 "/>
</g>
</svg>
