<?xml version="1.0" encoding="UTF-8"?>
<svg xmlns="http://www.w3.org/2000/svg" viewBox="0.5 7.5 14 8.5" width="13.5pt" height="13.5pt">
<g id="surface-meter-small">
  <path fill="#8bb7f0" d="M2,15.5c-0.275,0-0.5-0.224-0.5-0.5V9c0-0.276,0.225-0.5,0.5-0.5h11c0.275,0,0.5,0.224,0.5,0.5v6 c0,0.276-0.225,0.5-0.5,0.5H2z"/>
  <path fill="#4e7ab5" d="M13,9v6H2V9H13 M13,8H2C1.448,8,1,8.448,1,9v6c0,0.552,0.448,1,1,1h11c0.552,0,1-0.448,1-1V9 C14,8.448,13.552,8,13,8L13,8z"/>
  <path fill="#fff" d="M5.263,13.5l-1.549-1.582C4.771,11,6.098,10.5,7.5,10.5s2.729,0.5,3.786,1.418L9.737,13.5H5.263z"/>
  <path fill="#4e7ab5" d="M7.5,11c1.101,0,2.152,0.338,3.039,0.966L9.527,13H5.473l-1.012-1.034 C5.348,11.338,6.399,11,7.5,11 M7.5,10c-1.757,0-3.348,0.728-4.5,1.904L5.052,14h4.895L12,11.904C10.848,10.728,9.257,10,7.5,10 L7.5,10z"/>
  <path fill="#66798f" d="M7.5 11c-.169 0-.334.023-.5.038V12h1v-.962C7.834 11.023 7.669 11 7.5 11zM5.227 12.32l.924-.383L5.871 11.26c-.318.103-.62.246-.913.409L5.227 12.32zM10.042 11.669c-.293-.163-.595-.306-.913-.409l-.281.678.924.383L10.042 11.669z"/>
  <path fill="#36404d" d="M9 11.766L8 13 9 13z"/>
</g>
</svg>
