<?xml version="1.0" encoding="UTF-8"?>
<svg xmlns="http://www.w3.org/2000/svg" xmlns:xlink="http://www.w3.org/1999/xlink" width="12pt" height="12pt" viewBox="0 0 12 12" version="1.1">
<g id="surface127">
<path style=" stroke:none;fill-rule:nonzero;fill:rgb(71.372551%,78.823531%,83.92157%);fill-opacity:1;" d="M 1.5 10.875 C 1.273438 10.875 1.125 10.726562 1.125 10.5 L 1.125 1.5 C 1.125 1.273438 1.273438 1.125 1.5 1.125 L 10.5 1.125 C 10.726562 1.125 10.875 1.273438 10.875 1.5 L 10.875 10.5 C 10.875 10.726562 10.726562 10.875 10.5 10.875 Z M 1.5 10.875 "/>
<path style=" stroke:none;fill-rule:nonzero;fill:rgb(47.058824%,54.509807%,61.176473%);fill-opacity:1;" d="M 10.5 1.5 L 10.5 10.5 L 1.5 10.5 L 1.5 1.5 L 10.5 1.5 M 10.5 0.75 L 1.5 0.75 C 1.050781 0.75 0.75 1.050781 0.75 1.5 L 0.75 10.5 C 0.75 10.949219 1.050781 11.25 1.5 11.25 L 10.5 11.25 C 10.949219 11.25 11.25 10.949219 11.25 10.5 L 11.25 1.5 C 11.25 1.050781 10.949219 0.75 10.5 0.75 Z M 10.5 0.75 "/>
<path style=" stroke:none;fill-rule:nonzero;fill:rgb(100%,100%,100%);fill-opacity:1;" d="M 6.375 9 C 6.148438 9 6 8.851562 6 8.699219 L 5.476562 4.800781 L 4.5 7.273438 C 4.351562 7.574219 3.898438 7.574219 3.824219 7.273438 L 3.300781 6.074219 L 2.925781 6.601562 C 2.851562 6.675781 2.773438 6.75 2.625 6.75 L 1.5 6.75 L 1.5 6 L 2.398438 6 L 3.074219 5.023438 C 3.148438 4.875 3.300781 4.875 3.449219 4.875 C 3.601562 4.875 3.675781 4.949219 3.75 5.101562 L 4.125 6.074219 L 5.25 3.226562 C 5.324219 3.074219 5.476562 3 5.699219 3 C 5.851562 3 6 3.148438 6 3.300781 L 6.523438 7.125 L 7.5 4.726562 C 7.574219 4.574219 7.726562 4.5 7.875 4.5 C 8.023438 4.5 8.175781 4.574219 8.25 4.726562 L 8.773438 6.375 L 9.074219 6.074219 C 9.148438 6.074219 9.300781 6 9.375 6 L 10.5 6 L 10.5 6.75 L 9.523438 6.75 L 8.851562 7.425781 C 8.773438 7.5 8.699219 7.5 8.550781 7.5 C 8.398438 7.5 8.324219 7.351562 8.25 7.273438 L 7.875 6 L 6.75 8.773438 C 6.675781 8.925781 6.523438 9 6.375 9 Z M 6.375 9 "/>
</g>
</svg>
