<svg xmlns="http://www.w3.org/2000/svg"  viewBox="0 0 16 16" width="30px" height="30px"><path fill="#788b9c" d="M12.5 2.3H14.4V4.699999999999999H12.5z" transform="rotate(-45.001 13.475 3.524)"/><path fill="#e1ebf2" d="M8 2.5A6.5 6.5 0 1 0 8 15.5A6.5 6.5 0 1 0 8 2.5Z"/><path fill="#788b9c" d="M8,3c3.3,0,6,2.7,6,6s-2.7,6-6,6s-6-2.7-6-6S4.7,3,8,3 M8,2C4.1,2,1,5.1,1,9s3.1,7,7,7s7-3.1,7-7 S11.9,2,8,2L8,2z"/><path fill="#fff" d="M8 4A5 5 0 1 0 8 14A5 5 0 1 0 8 4Z"/><path fill="#66798f" d="M8,9.5c-0.1,0-0.3,0-0.4-0.1l-3-3c-0.2-0.2-0.2-0.5,0-0.7s0.5-0.2,0.7,0l3,3c0.2,0.2,0.2,0.5,0,0.7 C8.3,9.5,8.1,9.5,8,9.5z"/><path fill="#66798f" d="M8 8A1 1 0 1 0 8 10A1 1 0 1 0 8 8Z"/><g><path fill="#788b9c" d="M6 0H10V3H6z"/></g></svg>