<?xml version="1.0" encoding="UTF-8"?>
<svg xmlns="http://www.w3.org/2000/svg" xmlns:xlink="http://www.w3.org/1999/xlink" width="13.5pt" height="13.5pt" viewBox="0 0 13.5 13.5" version="1.1">
<g id="surface1596">
<path style=" stroke:none;fill-rule:nonzero;fill:rgb(25.882354%,30.588236%,36.078432%);fill-opacity:1;" d="M 0.40625 1.21875 L 12.59375 1.21875 L 12.59375 11.78125 L 0.40625 11.78125 Z M 0.40625 1.21875 "/>
<path style=" stroke:none;fill-rule:nonzero;fill:rgb(68.627453%,77.254903%,84.705883%);fill-opacity:1;" d="M 12.1875 1.625 L 12.1875 11.375 L 0.8125 11.375 L 0.8125 1.625 L 12.1875 1.625 M 13 0.8125 L 0 0.8125 L 0 12.1875 L 13 12.1875 Z M 13 0.8125 "/>
<path style=" stroke:none;fill-rule:nonzero;fill:rgb(68.627453%,77.254903%,84.705883%);fill-opacity:1;" d="M 0 0.8125 L 13 0.8125 L 13 2.4375 L 0 2.4375 Z M 0 0.8125 "/>
<path style=" stroke:none;fill-rule:nonzero;fill:rgb(72.941178%,87.843138%,74.117649%);fill-opacity:1;" d="M 6.5 8.9375 L 9.75 8.9375 L 9.75 9.75 L 6.5 9.75 Z M 3.332031 9.34375 L 2.84375 8.773438 L 4.46875 7.3125 L 2.84375 5.851562 L 3.332031 5.28125 L 5.6875 7.3125 Z M 3.332031 9.34375 "/>
</g>
</svg>
