<?xml version="1.0" encoding="UTF-8"?>
<svg xmlns="http://www.w3.org/2000/svg" xmlns:xlink="http://www.w3.org/1999/xlink" width="60pt" height="60pt" viewBox="0 0 60 60" version="1.1">
<g id="surface14">
<path style=" stroke:none;fill-rule:nonzero;fill:rgb(75.686276%,89.019608%,96.862745%);fill-opacity:1;" d="M 54.039062 39.0625 C 55.457031 35.710938 56.25 32.015625 56.25 28.125 C 56.25 12.46875 43.78125 0 28.125 0 C 12.46875 0 0 12.46875 0 28.125 C 0 43.78125 12.757812 56.25 28.125 56.25 C 32.46875 56.25 36.585938 55.226562 40.277344 53.445312 C 41.5625 46.644531 46.148438 40.589844 54.039062 39.0625 Z M 54.039062 39.0625 "/>
<path style=" stroke:none;fill-rule:nonzero;fill:rgb(44.705883%,56.470591%,73.333335%);fill-opacity:1;" d="M 3.75 26.25 L 52.5 26.25 L 52.5 30 L 3.75 30 Z M 7.5 41.25 L 27.65625 41.25 L 27.65625 45 L 7.5 45 Z M 7.5 11.25 L 48.75 11.25 L 48.75 15 L 7.5 15 Z M 7.5 11.25 "/>
<path style=" stroke:none;fill-rule:nonzero;fill:rgb(44.705883%,56.470591%,73.333335%);fill-opacity:1;" d="M 26.25 3.75 L 30 3.75 L 30 52.5 L 26.25 52.5 Z M 26.25 3.75 "/>
<path style=" stroke:none;fill-rule:nonzero;fill:rgb(21.176471%,25.098041%,29.803923%);fill-opacity:1;" d="M 37.5 37.5 L 37.5 56.25 L 56.25 37.5 Z M 37.5 37.5 "/>
<path style=" stroke:none;fill-rule:nonzero;fill:rgb(21.176471%,25.098041%,29.803923%);fill-opacity:1;" d="M 47.199219 41.25 L 46.875 41.574219 L 44.222656 44.222656 L 41.574219 46.875 L 41.25 47.199219 L 41.25 41.25 L 47.199219 41.25 M 56.25 37.5 L 37.5 37.5 L 37.5 56.25 L 44.222656 49.527344 L 54.535156 59.839844 L 59.839844 54.535156 L 49.527344 44.222656 Z M 56.25 37.5 "/>
<path style=" stroke:none;fill-rule:nonzero;fill:rgb(44.705883%,56.470591%,73.333335%);fill-opacity:1;" d="M 30 52.191406 C 29.375 52.375 28.742188 52.5 28.121094 52.5 C 28.117188 52.5 28.113281 52.5 28.109375 52.5 C 21.777344 52.492188 14.992188 42.699219 14.992188 28.125 C 14.992188 13.550781 21.777344 3.757812 28.109375 3.75 C 28.113281 3.75 28.117188 3.75 28.121094 3.75 C 34.457031 3.753906 41.242188 13.546875 41.242188 28.125 C 41.242188 28.761719 41.210938 29.382812 41.1875 30 L 44.925781 30 C 44.953125 29.378906 44.988281 28.757812 44.988281 28.125 C 44.988281 19.15625 42.460938 11.1875 38.539062 6.039062 C 46.851562 9.878906 52.5 18.210938 52.5 28.125 C 52.5 28.761719 52.410156 29.375 52.363281 30 L 56.15625 30 C 56.199219 29.378906 56.25 28.757812 56.25 28.125 C 56.25 12.46875 43.78125 0 28.125 0 C 28.125 0 28.121094 0 28.121094 0 C 28.121094 0 28.121094 0 28.117188 0 C 28.113281 0 28.109375 0 28.105469 0 C 12.457031 0.0117188 0 12.476562 0 28.125 C 0 43.773438 12.746094 56.238281 28.105469 56.25 C 28.109375 56.25 28.113281 56.25 28.117188 56.25 C 28.117188 56.25 28.117188 56.25 28.121094 56.25 C 28.121094 56.25 28.125 56.25 28.125 56.25 C 28.757812 56.25 29.378906 56.199219 30 56.15625 Z M 3.75 28.125 C 3.75 18.222656 9.386719 9.890625 17.683594 6.046875 C 13.765625 11.199219 11.242188 19.164062 11.242188 28.125 C 11.242188 37.003906 13.71875 44.910156 17.574219 50.0625 C 9.410156 46.121094 3.75 37.78125 3.75 28.125 Z M 3.75 28.125 "/>
</g>
</svg>
