<?xml version="1.0" encoding="UTF-8" standalone="no"?>
<!DOCTYPE svg PUBLIC "-//W3C//DTD SVG 1.1//EN" "http://www.w3.org/Graphics/SVG/1.1/DTD/svg11.dtd">
<svg width="100%" height="100%" viewBox="0 0 24 24" version="1.1" xmlns="http://www.w3.org/2000/svg" xmlns:xlink="http://www.w3.org/1999/xlink" xml:space="preserve" xmlns:serif="http://www.serif.com/" style="fill-rule:evenodd;clip-rule:evenodd;stroke-linejoin:round;stroke-miterlimit:2;">
    <g id="surface4270" transform="matrix(0.838108,0,0,0.838108,0.291531,0.291531)">
        <path d="M3.602,21.301C2.773,21.301 2.102,20.629 2.102,19.801L2.102,3.602C2.102,2.773 2.773,2.102 3.602,2.102L19.801,2.102C20.629,2.102 21.301,2.773 21.301,3.602L21.301,19.801C21.301,20.629 20.629,21.301 19.801,21.301L3.602,21.301Z" style="fill:rgb(194,232,254);fill-rule:nonzero;"/>
        <path d="M19.801,2.398C20.461,2.398 21,2.938 21,3.602L21,19.801C21,20.461 20.461,21 19.801,21L3.602,21C2.938,21 2.398,20.461 2.398,19.801L2.398,3.602C2.398,2.938 2.938,2.398 3.602,2.398L19.801,2.398M19.801,1.801L3.602,1.801C2.605,1.801 1.801,2.605 1.801,3.602L1.801,19.801C1.801,20.793 2.605,21.602 3.602,21.602L19.801,21.602C20.793,21.602 21.602,20.793 21.602,19.801L21.602,3.602C21.602,2.605 20.793,1.801 19.801,1.801Z" style="fill:rgb(115,150,196);fill-rule:nonzero;"/>
        <path d="M5.398,8.102C4.902,8.102 4.5,7.695 4.5,7.199L4.5,5.398C4.5,4.902 4.902,4.5 5.398,4.5L7.199,4.5C7.695,4.5 8.102,4.902 8.102,5.398L8.102,7.199C8.102,7.695 7.695,8.102 7.199,8.102L5.398,8.102Z" style="fill:rgb(186,224,189);fill-rule:nonzero;"/>
        <path d="M7.199,4.801C7.531,4.801 7.801,5.07 7.801,5.398L7.801,7.199C7.801,7.531 7.531,7.801 7.199,7.801L5.398,7.801C5.07,7.801 4.801,7.531 4.801,7.199L4.801,5.398C4.801,5.07 5.07,4.801 5.398,4.801L7.199,4.801M7.199,4.199L5.398,4.199C4.738,4.199 4.199,4.738 4.199,5.398L4.199,7.199C4.199,7.863 4.738,8.398 5.398,8.398L7.199,8.398C7.863,8.398 8.398,7.863 8.398,7.199L8.398,5.398C8.398,4.738 7.863,4.199 7.199,4.199Z" style="fill:rgb(94,156,118);fill-rule:nonzero;"/>
        <path d="M10.801,8.102C10.305,8.102 9.898,7.695 9.898,7.199L9.898,5.398C9.898,4.902 10.305,4.5 10.801,4.5L12.602,4.5C13.098,4.5 13.5,4.902 13.5,5.398L13.5,7.199C13.5,7.695 13.098,8.102 12.602,8.102L10.801,8.102Z" style="fill:rgb(186,224,189);fill-rule:nonzero;"/>
        <path d="M12.602,4.801C12.93,4.801 13.199,5.07 13.199,5.398L13.199,7.199C13.199,7.531 12.93,7.801 12.602,7.801L10.801,7.801C10.469,7.801 10.199,7.531 10.199,7.199L10.199,5.398C10.199,5.07 10.469,4.801 10.801,4.801L12.602,4.801M12.602,4.199L10.801,4.199C10.137,4.199 9.602,4.738 9.602,5.398L9.602,7.199C9.602,7.863 10.137,8.398 10.801,8.398L12.602,8.398C13.262,8.398 13.801,7.863 13.801,7.199L13.801,5.398C13.801,4.738 13.262,4.199 12.602,4.199Z" style="fill:rgb(94,156,118);fill-rule:nonzero;"/>
        <path d="M16.199,8.102C15.703,8.102 15.301,7.695 15.301,7.199L15.301,5.398C15.301,4.902 15.703,4.5 16.199,4.5L18,4.5C18.496,4.5 18.898,4.902 18.898,5.398L18.898,7.199C18.898,7.695 18.496,8.102 18,8.102L16.199,8.102Z" style="fill:rgb(186,224,189);fill-rule:nonzero;"/>
        <path d="M18,4.801C18.332,4.801 18.602,5.07 18.602,5.398L18.602,7.199C18.602,7.531 18.332,7.801 18,7.801L16.199,7.801C15.871,7.801 15.602,7.531 15.602,7.199L15.602,5.398C15.602,5.07 15.871,4.801 16.199,4.801L18,4.801M18,4.199L16.199,4.199C15.535,4.199 15,4.738 15,5.398L15,7.199C15,7.863 15.535,8.398 16.199,8.398L18,8.398C18.664,8.398 19.199,7.863 19.199,7.199L19.199,5.398C19.199,4.738 18.664,4.199 18,4.199Z" style="fill:rgb(94,156,118);fill-rule:nonzero;"/>
        <path d="M5.398,13.5C4.902,13.5 4.5,13.098 4.5,12.602L4.5,10.801C4.5,10.305 4.902,9.898 5.398,9.898L7.199,9.898C7.695,9.898 8.102,10.305 8.102,10.801L8.102,12.602C8.102,13.098 7.695,13.5 7.199,13.5L5.398,13.5Z" style="fill:rgb(186,224,189);fill-rule:nonzero;"/>
        <path d="M7.199,10.199C7.531,10.199 7.801,10.469 7.801,10.801L7.801,12.602C7.801,12.93 7.531,13.199 7.199,13.199L5.398,13.199C5.07,13.199 4.801,12.93 4.801,12.602L4.801,10.801C4.801,10.469 5.07,10.199 5.398,10.199L7.199,10.199M7.199,9.602L5.398,9.602C4.738,9.602 4.199,10.137 4.199,10.801L4.199,12.602C4.199,13.262 4.738,13.801 5.398,13.801L7.199,13.801C7.863,13.801 8.398,13.262 8.398,12.602L8.398,10.801C8.398,10.137 7.863,9.602 7.199,9.602Z" style="fill:rgb(94,156,118);fill-rule:nonzero;"/>
        <path d="M10.801,13.5C10.305,13.5 9.898,13.098 9.898,12.602L9.898,10.801C9.898,10.305 10.305,9.898 10.801,9.898L12.602,9.898C13.098,9.898 13.5,10.305 13.5,10.801L13.5,12.602C13.5,13.098 13.098,13.5 12.602,13.5L10.801,13.5Z" style="fill:rgb(186,224,189);fill-rule:nonzero;"/>
        <path d="M12.602,10.199C12.93,10.199 13.199,10.469 13.199,10.801L13.199,12.602C13.199,12.93 12.93,13.199 12.602,13.199L10.801,13.199C10.469,13.199 10.199,12.93 10.199,12.602L10.199,10.801C10.199,10.469 10.469,10.199 10.801,10.199L12.602,10.199M12.602,9.602L10.801,9.602C10.137,9.602 9.602,10.137 9.602,10.801L9.602,12.602C9.602,13.262 10.137,13.801 10.801,13.801L12.602,13.801C13.262,13.801 13.801,13.262 13.801,12.602L13.801,10.801C13.801,10.137 13.262,9.602 12.602,9.602Z" style="fill:rgb(94,156,118);fill-rule:nonzero;"/>
        <path d="M16.199,13.5C15.703,13.5 15.301,13.098 15.301,12.602L15.301,10.801C15.301,10.305 15.703,9.898 16.199,9.898L18,9.898C18.496,9.898 18.898,10.305 18.898,10.801L18.898,12.602C18.898,13.098 18.496,13.5 18,13.5L16.199,13.5Z" style="fill:rgb(186,224,189);fill-rule:nonzero;"/>
        <path d="M18,10.199C18.332,10.199 18.602,10.469 18.602,10.801L18.602,12.602C18.602,12.93 18.332,13.199 18,13.199L16.199,13.199C15.871,13.199 15.602,12.93 15.602,12.602L15.602,10.801C15.602,10.469 15.871,10.199 16.199,10.199L18,10.199M18,9.602L16.199,9.602C15.535,9.602 15,10.137 15,10.801L15,12.602C15,13.262 15.535,13.801 16.199,13.801L18,13.801C18.664,13.801 19.199,13.262 19.199,12.602L19.199,10.801C19.199,10.137 18.664,9.602 18,9.602Z" style="fill:rgb(94,156,118);fill-rule:nonzero;"/>
        <path d="M5.398,18.898C4.902,18.898 4.5,18.496 4.5,18L4.5,16.199C4.5,15.703 4.902,15.301 5.398,15.301L7.199,15.301C7.695,15.301 8.102,15.703 8.102,16.199L8.102,18C8.102,18.496 7.695,18.898 7.199,18.898L5.398,18.898Z" style="fill:rgb(186,224,189);fill-rule:nonzero;"/>
        <path d="M7.199,15.602C7.531,15.602 7.801,15.871 7.801,16.199L7.801,18C7.801,18.332 7.531,18.602 7.199,18.602L5.398,18.602C5.07,18.602 4.801,18.332 4.801,18L4.801,16.199C4.801,15.871 5.07,15.602 5.398,15.602L7.199,15.602M7.199,15L5.398,15C4.738,15 4.199,15.535 4.199,16.199L4.199,18C4.199,18.664 4.738,19.199 5.398,19.199L7.199,19.199C7.863,19.199 8.398,18.664 8.398,18L8.398,16.199C8.398,15.535 7.863,15 7.199,15Z" style="fill:rgb(94,156,118);fill-rule:nonzero;"/>
        <path d="M10.801,18.898C10.305,18.898 9.898,18.496 9.898,18L9.898,16.199C9.898,15.703 10.305,15.301 10.801,15.301L12.602,15.301C13.098,15.301 13.5,15.703 13.5,16.199L13.5,18C13.5,18.496 13.098,18.898 12.602,18.898L10.801,18.898Z" style="fill:rgb(186,224,189);fill-rule:nonzero;"/>
        <path d="M12.602,15.602C12.93,15.602 13.199,15.871 13.199,16.199L13.199,18C13.199,18.332 12.93,18.602 12.602,18.602L10.801,18.602C10.469,18.602 10.199,18.332 10.199,18L10.199,16.199C10.199,15.871 10.469,15.602 10.801,15.602L12.602,15.602M12.602,15L10.801,15C10.137,15 9.602,15.535 9.602,16.199L9.602,18C9.602,18.664 10.137,19.199 10.801,19.199L12.602,19.199C13.262,19.199 13.801,18.664 13.801,18L13.801,16.199C13.801,15.535 13.262,15 12.602,15Z" style="fill:rgb(94,156,118);fill-rule:nonzero;"/>
        <path d="M16.199,18.898C15.703,18.898 15.301,18.496 15.301,18L15.301,16.199C15.301,15.703 15.703,15.301 16.199,15.301L18,15.301C18.496,15.301 18.898,15.703 18.898,16.199L18.898,18C18.898,18.496 18.496,18.898 18,18.898L16.199,18.898Z" style="fill:rgb(186,224,189);fill-rule:nonzero;"/>
        <path d="M18,15.602C18.332,15.602 18.602,15.871 18.602,16.199L18.602,18C18.602,18.332 18.332,18.602 18,18.602L16.199,18.602C15.871,18.602 15.602,18.332 15.602,18L15.602,16.199C15.602,15.871 15.871,15.602 16.199,15.602L18,15.602M18,15L16.199,15C15.535,15 15,15.535 15,16.199L15,18C15,18.664 15.535,19.199 16.199,19.199L18,19.199C18.664,19.199 19.199,18.664 19.199,18L19.199,16.199C19.199,15.535 18.664,15 18,15Z" style="fill:rgb(94,156,118);fill-rule:nonzero;"/>
    </g>
    <g id="surface1634" transform="matrix(0.738175,0,0,0.738175,15.0035,15.0035)">
        <path d="M6.094,0.406C2.953,0.406 0.406,2.953 0.406,6.094C0.406,9.234 2.953,11.781 6.094,11.781C9.234,11.781 11.781,9.234 11.781,6.094C11.781,2.953 9.234,0.406 6.094,0.406Z" style="fill:rgb(186,224,189);fill-rule:nonzero;"/>
        <path d="M6.094,0.813C9.004,0.813 11.375,3.184 11.375,6.094C11.375,9.004 9.004,11.375 6.094,11.375C3.184,11.375 0.813,9.004 0.813,6.094C0.813,3.184 3.184,0.813 6.094,0.813M6.094,0C2.727,0 0,2.727 0,6.094C0,9.461 2.727,12.188 6.094,12.188C9.461,12.188 12.188,9.461 12.188,6.094C12.188,2.727 9.461,0 6.094,0Z" style="fill:rgb(94,156,118);fill-rule:nonzero;"/>
        <g transform="matrix(1,0,0,1.94409,0,-5.75304)">
            <rect x="2.844" y="5.688" width="6.5" height="0.813" style="fill:white;"/>
        </g>
        <g transform="matrix(1.94409,0,0,1,-5.75304,0)">
            <rect x="5.688" y="2.844" width="0.813" height="6.5" style="fill:white;"/>
        </g>
    </g>
</svg>
