<?xml version="1.0" encoding="UTF-8" standalone="no"?>
<!DOCTYPE svg PUBLIC "-//W3C//DTD SVG 1.1//EN" "http://www.w3.org/Graphics/SVG/1.1/DTD/svg11.dtd">
<svg width="100%" height="100%" viewBox="0 0 24 24" version="1.1" xmlns="http://www.w3.org/2000/svg" xmlns:xlink="http://www.w3.org/1999/xlink" xml:space="preserve" xmlns:serif="http://www.serif.com/" style="fill-rule:evenodd;clip-rule:evenodd;stroke-linejoin:round;stroke-miterlimit:2;">
    <g id="surface34775" transform="matrix(0.748539,0.000622611,-0.000622611,0.748539,0.204303,0.242781)">
        <path d="M22.551,19.199L18.898,15.855L18.898,18.301L5.699,18.301L5.699,20.102L18.898,20.102L18.898,22.547L22.551,19.199Z" style="fill:rgb(225,235,242);fill-rule:nonzero;"/>
        <path d="M18.602,23.227L18.602,20.398L5.398,20.398L5.398,18L18.602,18L18.602,15.172L22.996,19.199L18.602,23.227ZM6,19.801L19.199,19.801L19.199,21.863L22.105,19.199L19.199,16.535L19.199,18.602L6,18.602L6,19.801Z" style="fill:rgb(120,139,156);fill-rule:nonzero;"/>
        <path d="M8.145,5.102L4.801,1.449L1.453,5.102L3.898,5.102L3.898,19.066L5.699,19.066L5.699,5.102L8.145,5.102Z" style="fill:rgb(139,183,239);fill-rule:nonzero;"/>
        <path d="M6,19.367L3.602,19.367L3.602,5.398L0.773,5.398L4.801,1.004L8.828,5.398L6,5.398L6,19.367ZM4.199,18.766L5.398,18.766L5.398,4.801L7.465,4.801L4.801,1.895L2.137,4.801L4.199,4.801L4.199,18.766Z" style="fill:rgb(78,121,181);fill-rule:nonzero;"/>
        <path d="M6.898,19.199C6.898,20.359 5.961,21.301 4.801,21.301C3.641,21.301 2.699,20.359 2.699,19.199C2.699,18.039 3.641,17.102 4.801,17.102C5.961,17.102 6.898,18.039 6.898,19.199Z" style="fill:rgb(246,143,143);fill-rule:nonzero;"/>
        <path d="M4.801,21.602C3.477,21.602 2.398,20.523 2.398,19.199C2.398,17.875 3.477,16.801 4.801,16.801C6.125,16.801 7.199,17.875 7.199,19.199C7.199,20.523 6.125,21.602 4.801,21.602ZM4.801,17.398C3.809,17.398 3,18.207 3,19.199C3,20.191 3.809,21 4.801,21C5.793,21 6.602,20.191 6.602,19.199C6.602,18.207 5.793,17.398 4.801,17.398Z" style="fill:rgb(199,67,67);fill-rule:nonzero;"/>
    </g>
    <g id="surface1634" transform="matrix(0.738175,0,0,0.738175,15.0035,15.0035)">
        <path d="M6.094,0.406C2.953,0.406 0.406,2.953 0.406,6.094C0.406,9.234 2.953,11.781 6.094,11.781C9.234,11.781 11.781,9.234 11.781,6.094C11.781,2.953 9.234,0.406 6.094,0.406Z" style="fill:rgb(186,224,189);fill-rule:nonzero;"/>
        <path d="M6.094,0.813C9.004,0.813 11.375,3.184 11.375,6.094C11.375,9.004 9.004,11.375 6.094,11.375C3.184,11.375 0.813,9.004 0.813,6.094C0.813,3.184 3.184,0.813 6.094,0.813M6.094,0C2.727,0 0,2.727 0,6.094C0,9.461 2.727,12.188 6.094,12.188C9.461,12.188 12.188,9.461 12.188,6.094C12.188,2.727 9.461,0 6.094,0Z" style="fill:rgb(94,156,118);fill-rule:nonzero;"/>
        <g transform="matrix(1,0,0,1.94409,0,-5.75304)">
            <rect x="2.844" y="5.688" width="6.5" height="0.813" style="fill:white;"/>
        </g>
        <g transform="matrix(1.94409,0,0,1,-5.75304,0)">
            <rect x="5.688" y="2.844" width="0.813" height="6.5" style="fill:white;fill-rule:nonzero;"/>
        </g>
    </g>
</svg>
