<?xml version="1.0" encoding="UTF-8" standalone="no"?>
<!DOCTYPE svg PUBLIC "-//W3C//DTD SVG 1.1//EN" "http://www.w3.org/Graphics/SVG/1.1/DTD/svg11.dtd">
<svg width="100%" height="100%" viewBox="0 0 24 24" version="1.1" xmlns="http://www.w3.org/2000/svg" xmlns:xlink="http://www.w3.org/1999/xlink" xml:space="preserve" xmlns:serif="http://www.serif.com/" style="fill-rule:evenodd;clip-rule:evenodd;stroke-miterlimit:10;">
    <g id="surface32635" transform="matrix(0.92832,0,0,0.92832,0.0431201,0.0431201)">
        <g transform="matrix(0.6,0,0,0.6,0,0)">
            <path d="M18.997,21.003L3.001,36.999" style="fill:none;fill-rule:nonzero;stroke:rgb(150,121,68);stroke-width:1px;"/>
        </g>
        <path d="M7.262,6.602C7.586,6.602 8.18,6.703 9.137,7.191C10.488,7.887 12.039,9.07 13.496,10.527C14.953,11.984 16.137,13.531 16.828,14.883C17.531,16.258 17.508,17.02 17.273,17.254C17.238,17.289 17.125,17.398 16.781,17.398C16.453,17.398 15.863,17.297 14.906,16.809C13.555,16.113 12.004,14.93 10.547,13.473C9.09,12.016 7.906,10.469 7.215,9.117C6.512,7.742 6.535,6.98 6.77,6.746C6.805,6.711 6.918,6.602 7.262,6.602M7.262,5.398C6.609,5.398 6.188,5.633 5.922,5.898C5.406,6.414 5.031,7.48 6.145,9.66C6.895,11.121 8.156,12.777 9.699,14.32C11.242,15.863 12.898,17.129 14.359,17.875C15.398,18.406 16.188,18.602 16.781,18.602C17.434,18.602 17.855,18.367 18.121,18.102C18.637,17.586 19.012,16.52 17.898,14.34C17.148,12.879 15.887,11.223 14.344,9.68C12.801,8.137 11.145,6.871 9.684,6.125C8.641,5.594 7.855,5.398 7.262,5.398Z" style="fill:rgb(194,150,83);fill-rule:nonzero;"/>
        <path d="M15,6C15.988,6 16.793,6.262 17.266,6.734C18.699,8.168 18.082,12.238 15.172,15.152C13.414,16.906 11.063,18 9.039,18C8.055,18 7.242,17.73 6.758,17.242C6.074,16.563 5.836,15.262 6.117,13.773C6.449,12.039 7.445,10.234 8.852,8.828C10.594,7.082 12.949,6 15,6M15,4.801C12.813,4.801 10.125,5.855 8,7.98C4.629,11.352 3.902,16.086 5.906,18.094C6.648,18.832 7.762,19.199 9.039,19.199C11.223,19.199 13.895,18.125 16.02,16C19.391,12.629 20.07,7.84 18.113,5.887C17.391,5.164 16.281,4.801 15,4.801Z" style="fill:rgb(150,121,68);fill-rule:nonzero;"/>
        <path d="M12.941,11.078C11.367,9.5 9.676,8.637 9.168,9.145C8.656,9.656 9.523,11.344 11.098,12.922C12.676,14.496 14.367,15.363 14.875,14.855C15.383,14.344 14.52,12.652 12.941,11.078ZM12.859,12.836C12.711,12.988 12.215,12.734 11.75,12.27C11.289,11.809 11.035,11.313 11.184,11.16C11.332,11.012 11.828,11.266 12.293,11.73C12.754,12.191 13.008,12.688 12.859,12.836ZM1.801,21C1.137,21 0.602,21.539 0.602,22.199C0.602,22.863 1.137,23.398 1.801,23.398C2.461,23.398 3,22.863 3,22.199C3,21.539 2.461,21 1.801,21Z" style="fill:rgb(150,121,68);fill-rule:nonzero;"/>
        <g transform="matrix(0.6,0,0,0.6,0,0)">
            <path d="M36.999,3.001L20.501,19.499" style="fill:none;fill-rule:nonzero;stroke:rgb(150,121,68);stroke-width:1px;"/>
        </g>
        <path d="M22.199,0.602C21.539,0.602 21,1.137 21,1.801C21,2.461 21.539,3 22.199,3C22.863,3 23.398,2.461 23.398,1.801C23.398,1.137 22.863,0.602 22.199,0.602Z" style="fill:rgb(150,121,68);fill-rule:nonzero;"/>
        <path d="M12.023,23.102C5.902,23.102 0.922,18.121 0.922,12C0.922,5.879 5.902,0.898 12.023,0.898C18.141,0.898 23.121,5.879 23.121,12C23.121,18.121 18.141,23.102 12.023,23.102ZM12.023,2.102C6.563,2.102 2.121,6.543 2.121,12C2.121,17.457 6.563,21.898 12.023,21.898C17.48,21.898 21.922,17.457 21.922,12C21.922,6.543 17.48,2.102 12.023,2.102Z" style="fill:rgb(254,238,163);fill-rule:nonzero;"/>
        <path d="M12.023,1.199C17.977,1.199 22.82,6.047 22.82,12C22.82,17.953 17.977,22.801 12.023,22.801C6.066,22.801 1.223,17.953 1.223,12C1.223,6.047 6.066,1.199 12.023,1.199M12.023,22.199C17.645,22.199 22.223,17.625 22.223,12C22.223,6.375 17.645,1.801 12.023,1.801C6.398,1.801 1.82,6.375 1.82,12C1.82,17.625 6.398,22.199 12.023,22.199M12.023,0.602C5.734,0.602 0.621,5.715 0.621,12C0.621,18.285 5.734,23.398 12.023,23.398C18.309,23.398 23.422,18.285 23.422,12C23.422,5.715 18.309,0.602 12.023,0.602ZM12.023,21.602C6.727,21.602 2.422,17.293 2.422,12C2.422,6.707 6.727,2.398 12.023,2.398C17.316,2.398 21.621,6.707 21.621,12C21.621,17.293 17.316,21.602 12.023,21.602Z" style="fill:rgb(245,194,118);fill-rule:nonzero;"/>
        <path d="M15.602,17.121C15.395,17.039 15.164,16.938 14.906,16.809C13.555,16.113 12.004,14.93 10.547,13.473C9.09,12.016 7.906,10.469 7.215,9.117C7.078,8.852 6.98,8.617 6.895,8.398L5.621,8.398C5.734,8.773 5.902,9.191 6.145,9.66C6.895,11.121 8.156,12.777 9.699,14.32C11.242,15.863 12.898,17.129 14.359,17.875C14.824,18.113 15.23,18.273 15.602,18.391L15.602,17.121Z" style="fill:rgb(194,150,83);fill-rule:nonzero;"/>
    </g>
    <g id="surface1634" transform="matrix(0.738175,0,0,0.738175,15.0035,15.0035)">
        <path d="M6.094,0.406C2.953,0.406 0.406,2.953 0.406,6.094C0.406,9.234 2.953,11.781 6.094,11.781C9.234,11.781 11.781,9.234 11.781,6.094C11.781,2.953 9.234,0.406 6.094,0.406Z" style="fill:rgb(186,224,189);fill-rule:nonzero;"/>
        <path d="M6.094,0.813C9.004,0.813 11.375,3.184 11.375,6.094C11.375,9.004 9.004,11.375 6.094,11.375C3.184,11.375 0.813,9.004 0.813,6.094C0.813,3.184 3.184,0.813 6.094,0.813M6.094,0C2.727,0 0,2.727 0,6.094C0,9.461 2.727,12.188 6.094,12.188C9.461,12.188 12.188,9.461 12.188,6.094C12.188,2.727 9.461,0 6.094,0Z" style="fill:rgb(94,156,118);fill-rule:nonzero;"/>
        <g transform="matrix(1,0,0,1.94409,0,-5.75304)">
            <rect x="2.844" y="5.688" width="6.5" height="0.813" style="fill:white;"/>
        </g>
        <g transform="matrix(1.94409,0,0,1,-5.75304,0)">
            <rect x="5.688" y="2.844" width="0.813" height="6.5" style="fill:white;fill-rule:nonzero;"/>
        </g>
    </g>
</svg>
