<?xml version="1.0" encoding="UTF-8" standalone="no"?>
<!DOCTYPE svg PUBLIC "-//W3C//DTD SVG 1.1//EN" "http://www.w3.org/Graphics/SVG/1.1/DTD/svg11.dtd">
<svg width="100%" height="100%" viewBox="0 0 60 60" version="1.1" xmlns="http://www.w3.org/2000/svg" xmlns:xlink="http://www.w3.org/1999/xlink" xml:space="preserve" xmlns:serif="http://www.serif.com/" style="fill-rule:evenodd;clip-rule:evenodd;stroke-linejoin:round;stroke-miterlimit:2;">
    <g id="surface86">
        <path d="M11.25,5.664L48.75,5.664C51.855,5.664 54.375,8.18 54.375,11.289L54.375,48.75C54.375,51.855 51.855,54.375 48.75,54.375L11.25,54.375C8.145,54.375 5.625,51.855 5.625,48.75L5.625,11.289C5.625,8.18 8.145,5.664 11.25,5.664Z" style="fill:rgb(176,193,212);fill-rule:nonzero;"/>
        <path d="M48.75,7.5C50.82,7.5 52.5,9.18 52.5,11.25L52.5,48.75C52.5,50.82 50.82,52.5 48.75,52.5L11.25,52.5C9.18,52.5 7.5,50.82 7.5,48.75L7.5,11.25C7.5,9.18 9.18,7.5 11.25,7.5L48.75,7.5M48.75,3.75L11.25,3.75C7.109,3.75 3.75,7.109 3.75,11.25L3.75,48.75C3.75,52.891 7.109,56.25 11.25,56.25L48.75,56.25C52.891,56.25 56.25,52.891 56.25,48.75L56.25,11.25C56.25,7.109 52.891,3.75 48.75,3.75Z" style="fill:rgb(102,121,143);fill-rule:nonzero;"/>
        <path d="M11.25,7.539L48.75,7.539C50.82,7.539 52.5,9.215 52.5,11.289L52.5,45C52.5,47.07 50.82,48.75 48.75,48.75L11.25,48.75C9.18,48.75 7.5,47.07 7.5,45L7.5,11.289C7.5,9.215 9.18,7.539 11.25,7.539Z" style="fill:rgb(216,226,237);fill-rule:nonzero;"/>
        <g transform="matrix(2.46154,0,0,2.62564,14,14)">
            <path d="M12.188,8.938L12.188,9.141C12.188,9.852 11.898,10.563 11.18,10.563C9.992,10.563 9.781,8.109 9.734,7.543L11.375,0.813L8.938,0.813L8.238,3.734C7.477,1.715 6.563,0 4.469,0C1.906,0 0,2.602 0,5.688L0,6.5C0,9.586 1.715,12.188 4.469,12.188C6.871,12.188 8.465,11.035 9.102,9.355C9.102,9.355 9.254,12.188 11.18,12.188C12.504,12.188 13,10.828 13,9.141L13,8.938L12.188,8.938ZM4.469,11.375C2.887,11.375 1.754,9.066 1.625,6.5L1.625,5.688C1.754,3.121 2.938,0.813 4.469,0.813C6.031,0.813 7.313,3.578 7.789,5.688C7.789,5.688 6.805,11.375 4.469,11.375Z" style="fill:rgb(54,64,77);fill-rule:nonzero;"/>
        </g>
    </g>
</svg>
