<?xml version="1.0" encoding="UTF-8"?>
<svg xmlns="http://www.w3.org/2000/svg" xmlns:xlink="http://www.w3.org/1999/xlink" width="24pt" height="24pt" viewBox="0 0 24 24" version="1.1">
<g id="surface34775">
<path style=" stroke:none;fill-rule:nonzero;fill:rgb(88.235295%,92.156863%,94.901961%);fill-opacity:1;" d="M 22.550781 19.199219 L 18.898438 15.855469 L 18.898438 18.300781 L 5.699219 18.300781 L 5.699219 20.101562 L 18.898438 20.101562 L 18.898438 22.546875 Z M 22.550781 19.199219 "/>
<path style=" stroke:none;fill-rule:nonzero;fill:rgb(47.058824%,54.509807%,61.176473%);fill-opacity:1;" d="M 18.601562 23.226562 L 18.601562 20.398438 L 5.398438 20.398438 L 5.398438 18 L 18.601562 18 L 18.601562 15.171875 L 22.996094 19.199219 Z M 6 19.800781 L 19.199219 19.800781 L 19.199219 21.863281 L 22.105469 19.199219 L 19.199219 16.535156 L 19.199219 18.601562 L 6 18.601562 Z M 6 19.800781 "/>
<path style=" stroke:none;fill-rule:nonzero;fill:rgb(54.509807%,71.764708%,94.117647%);fill-opacity:1;" d="M 8.144531 5.101562 L 4.800781 1.449219 L 1.453125 5.101562 L 3.898438 5.101562 L 3.898438 19.066406 L 5.699219 19.066406 L 5.699219 5.101562 Z M 8.144531 5.101562 "/>
<path style=" stroke:none;fill-rule:nonzero;fill:rgb(30.588236%,47.843137%,70.980394%);fill-opacity:1;" d="M 6 19.367188 L 3.601562 19.367188 L 3.601562 5.398438 L 0.773438 5.398438 L 4.800781 1.003906 L 8.828125 5.398438 L 6 5.398438 Z M 4.199219 18.765625 L 5.398438 18.765625 L 5.398438 4.800781 L 7.464844 4.800781 L 4.800781 1.894531 L 2.136719 4.800781 L 4.199219 4.800781 Z M 4.199219 18.765625 "/>
<path style=" stroke:none;fill-rule:nonzero;fill:rgb(96.862745%,56.078434%,56.078434%);fill-opacity:1;" d="M 6.898438 19.199219 C 6.898438 20.359375 5.960938 21.300781 4.800781 21.300781 C 3.640625 21.300781 2.699219 20.359375 2.699219 19.199219 C 2.699219 18.039062 3.640625 17.101562 4.800781 17.101562 C 5.960938 17.101562 6.898438 18.039062 6.898438 19.199219 Z M 6.898438 19.199219 "/>
<path style=" stroke:none;fill-rule:nonzero;fill:rgb(78.039217%,26.274511%,26.274511%);fill-opacity:1;" d="M 4.800781 21.601562 C 3.476562 21.601562 2.398438 20.523438 2.398438 19.199219 C 2.398438 17.875 3.476562 16.800781 4.800781 16.800781 C 6.125 16.800781 7.199219 17.875 7.199219 19.199219 C 7.199219 20.523438 6.125 21.601562 4.800781 21.601562 Z M 4.800781 17.398438 C 3.808594 17.398438 3 18.207031 3 19.199219 C 3 20.191406 3.808594 21 4.800781 21 C 5.792969 21 6.601562 20.191406 6.601562 19.199219 C 6.601562 18.207031 5.792969 17.398438 4.800781 17.398438 Z M 4.800781 17.398438 "/>
</g>
</svg>
