<?xml version="1.0" encoding="UTF-8"?>
<svg xmlns="http://www.w3.org/2000/svg" xmlns:xlink="http://www.w3.org/1999/xlink" width="24pt" height="24pt" viewBox="0 0 24 24" version="1.1">
<g id="surface32635">
<path style="fill:none;stroke-width:1;stroke-linecap:butt;stroke-linejoin:miter;stroke:rgb(58.823532%,47.843137%,26.666668%);stroke-opacity:1;stroke-miterlimit:10;" d="M 18.997396 21.002604 L 3.001302 36.998698 " transform="matrix(0.6,0,0,0.6,0,0)"/>
<path style=" stroke:none;fill-rule:nonzero;fill:rgb(76.078433%,58.823532%,32.549021%);fill-opacity:1;" d="M 7.261719 6.601562 C 7.585938 6.601562 8.179688 6.703125 9.136719 7.191406 C 10.488281 7.886719 12.039062 9.070312 13.496094 10.527344 C 14.953125 11.984375 16.136719 13.53125 16.828125 14.882812 C 17.53125 16.257812 17.507812 17.019531 17.273438 17.253906 C 17.238281 17.289062 17.125 17.398438 16.78125 17.398438 C 16.453125 17.398438 15.863281 17.296875 14.90625 16.808594 C 13.554688 16.113281 12.003906 14.929688 10.546875 13.472656 C 9.089844 12.015625 7.90625 10.46875 7.214844 9.117188 C 6.511719 7.742188 6.535156 6.980469 6.769531 6.746094 C 6.804688 6.710938 6.917969 6.601562 7.261719 6.601562 M 7.261719 5.398438 C 6.609375 5.398438 6.1875 5.632812 5.921875 5.898438 C 5.40625 6.414062 5.03125 7.480469 6.144531 9.660156 C 6.894531 11.121094 8.15625 12.777344 9.699219 14.320312 C 11.242188 15.863281 12.898438 17.128906 14.359375 17.875 C 15.398438 18.40625 16.1875 18.601562 16.78125 18.601562 C 17.433594 18.601562 17.855469 18.367188 18.121094 18.101562 C 18.636719 17.585938 19.011719 16.519531 17.898438 14.339844 C 17.148438 12.878906 15.886719 11.222656 14.34375 9.679688 C 12.800781 8.136719 11.144531 6.871094 9.683594 6.125 C 8.640625 5.59375 7.855469 5.398438 7.261719 5.398438 Z M 7.261719 5.398438 "/>
<path style=" stroke:none;fill-rule:nonzero;fill:rgb(58.823532%,47.843137%,26.666668%);fill-opacity:1;" d="M 15 6 C 15.988281 6 16.792969 6.261719 17.265625 6.734375 C 18.699219 8.167969 18.082031 12.238281 15.171875 15.152344 C 13.414062 16.90625 11.0625 18 9.039062 18 C 8.054688 18 7.242188 17.730469 6.757812 17.242188 C 6.074219 16.5625 5.835938 15.261719 6.117188 13.773438 C 6.449219 12.039062 7.445312 10.234375 8.851562 8.828125 C 10.59375 7.082031 12.949219 6 15 6 M 15 4.800781 C 12.8125 4.800781 10.125 5.855469 8 7.980469 C 4.628906 11.351562 3.902344 16.085938 5.90625 18.09375 C 6.648438 18.832031 7.761719 19.199219 9.039062 19.199219 C 11.222656 19.199219 13.894531 18.125 16.019531 16 C 19.390625 12.628906 20.070312 7.839844 18.113281 5.886719 C 17.390625 5.164062 16.28125 4.800781 15 4.800781 Z M 15 4.800781 "/>
<path style=" stroke:none;fill-rule:nonzero;fill:rgb(58.823532%,47.843137%,26.666668%);fill-opacity:1;" d="M 12.941406 11.078125 C 11.367188 9.5 9.675781 8.636719 9.167969 9.144531 C 8.65625 9.65625 9.523438 11.34375 11.097656 12.921875 C 12.675781 14.496094 14.367188 15.363281 14.875 14.855469 C 15.382812 14.34375 14.519531 12.652344 12.941406 11.078125 Z M 12.859375 12.835938 C 12.710938 12.988281 12.214844 12.734375 11.75 12.269531 C 11.289062 11.808594 11.035156 11.3125 11.183594 11.160156 C 11.332031 11.011719 11.828125 11.265625 12.292969 11.730469 C 12.753906 12.191406 13.007812 12.6875 12.859375 12.835938 Z M 1.800781 21 C 1.136719 21 0.601562 21.539062 0.601562 22.199219 C 0.601562 22.863281 1.136719 23.398438 1.800781 23.398438 C 2.460938 23.398438 3 22.863281 3 22.199219 C 3 21.539062 2.460938 21 1.800781 21 Z M 1.800781 21 "/>
<path style="fill:none;stroke-width:1;stroke-linecap:butt;stroke-linejoin:miter;stroke:rgb(58.823532%,47.843137%,26.666668%);stroke-opacity:1;stroke-miterlimit:10;" d="M 36.998698 3.001302 L 20.501302 19.498698 " transform="matrix(0.6,0,0,0.6,0,0)"/>
<path style=" stroke:none;fill-rule:nonzero;fill:rgb(58.823532%,47.843137%,26.666668%);fill-opacity:1;" d="M 22.199219 0.601562 C 21.539062 0.601562 21 1.136719 21 1.800781 C 21 2.460938 21.539062 3 22.199219 3 C 22.863281 3 23.398438 2.460938 23.398438 1.800781 C 23.398438 1.136719 22.863281 0.601562 22.199219 0.601562 Z M 22.199219 0.601562 "/>
<path style=" stroke:none;fill-rule:nonzero;fill:rgb(100%,93.333334%,63.921571%);fill-opacity:1;" d="M 12.023438 23.101562 C 5.902344 23.101562 0.921875 18.121094 0.921875 12 C 0.921875 5.878906 5.902344 0.898438 12.023438 0.898438 C 18.140625 0.898438 23.121094 5.878906 23.121094 12 C 23.121094 18.121094 18.140625 23.101562 12.023438 23.101562 Z M 12.023438 2.101562 C 6.5625 2.101562 2.121094 6.542969 2.121094 12 C 2.121094 17.457031 6.5625 21.898438 12.023438 21.898438 C 17.480469 21.898438 21.921875 17.457031 21.921875 12 C 21.921875 6.542969 17.480469 2.101562 12.023438 2.101562 Z M 12.023438 2.101562 "/>
<path style=" stroke:none;fill-rule:nonzero;fill:rgb(96.078432%,76.078433%,46.27451%);fill-opacity:1;" d="M 12.023438 1.199219 C 17.976562 1.199219 22.820312 6.046875 22.820312 12 C 22.820312 17.953125 17.976562 22.800781 12.023438 22.800781 C 6.066406 22.800781 1.222656 17.953125 1.222656 12 C 1.222656 6.046875 6.066406 1.199219 12.023438 1.199219 M 12.023438 22.199219 C 17.644531 22.199219 22.222656 17.625 22.222656 12 C 22.222656 6.375 17.644531 1.800781 12.023438 1.800781 C 6.398438 1.800781 1.820312 6.375 1.820312 12 C 1.820312 17.625 6.398438 22.199219 12.023438 22.199219 M 12.023438 0.601562 C 5.734375 0.601562 0.621094 5.714844 0.621094 12 C 0.621094 18.285156 5.734375 23.398438 12.023438 23.398438 C 18.308594 23.398438 23.421875 18.285156 23.421875 12 C 23.421875 5.714844 18.308594 0.601562 12.023438 0.601562 Z M 12.023438 21.601562 C 6.726562 21.601562 2.421875 17.292969 2.421875 12 C 2.421875 6.707031 6.726562 2.398438 12.023438 2.398438 C 17.316406 2.398438 21.621094 6.707031 21.621094 12 C 21.621094 17.292969 17.316406 21.601562 12.023438 21.601562 Z M 12.023438 21.601562 "/>
<path style=" stroke:none;fill-rule:nonzero;fill:rgb(76.078433%,58.823532%,32.549021%);fill-opacity:1;" d="M 15.601562 17.121094 C 15.394531 17.039062 15.164062 16.9375 14.90625 16.808594 C 13.554688 16.113281 12.003906 14.929688 10.546875 13.472656 C 9.089844 12.015625 7.90625 10.46875 7.214844 9.117188 C 7.078125 8.851562 6.980469 8.617188 6.894531 8.398438 L 5.621094 8.398438 C 5.734375 8.773438 5.902344 9.191406 6.144531 9.660156 C 6.894531 11.121094 8.15625 12.777344 9.699219 14.320312 C 11.242188 15.863281 12.898438 17.128906 14.359375 17.875 C 14.824219 18.113281 15.230469 18.273438 15.601562 18.390625 Z M 15.601562 17.121094 "/>
</g>
</svg>
