<?xml version="1.0" encoding="UTF-8"?>
<svg xmlns="http://www.w3.org/2000/svg" xmlns:xlink="http://www.w3.org/1999/xlink" width="13.5pt" height="13.5pt" viewBox="0 0 13.5 13.5" version="1.1">
<g id="surface8068">
<path style=" stroke:none;fill-rule:nonzero;fill:rgb(72.941178%,87.843138%,74.117649%);fill-opacity:1;" d="M 8.007812 11.378906 L 7.804688 11.273438 L 6.714844 10.980469 L 6.589844 10.96875 C 6.378906 10.96875 6.1875 11.050781 6.050781 11.203125 C 6.03125 11.226562 5.683594 11.667969 5.589844 11.78125 L 3.417969 11.78125 L 2.84375 11.207031 L 2.84375 10.644531 C 2.84375 10.410156 2.742188 10.1875 2.566406 10.035156 L 2.03125 9.566406 L 2.03125 8.125 C 2.03125 7.867188 1.894531 7.621094 1.671875 7.488281 L 0.382812 6.921875 L 1.179688 5.289062 L 2.03125 5.28125 C 2.480469 5.28125 2.84375 4.917969 2.84375 4.46875 C 2.84375 4.019531 2.480469 3.65625 2.03125 3.65625 L 9.09375 3.65625 L 9.574219 4.140625 C 9.816406 4.355469 10.097656 4.464844 10.394531 4.46875 L 11.78125 4.46875 L 11.78125 4.875 C 11.78125 4.917969 11.78125 4.933594 11.757812 4.992188 C 11.757812 4.992188 11.644531 5.242188 11.621094 5.296875 C 11.589844 5.347656 11.539062 5.402344 11.472656 5.4375 C 11.460938 5.445312 11.402344 5.46875 11.332031 5.5 C 11.136719 5.585938 10.835938 5.722656 10.621094 5.839844 C 10.363281 5.980469 10.191406 6.242188 10.160156 6.535156 C 10.152344 6.632812 10.15625 6.730469 10.179688 6.824219 L 10.429688 7.671875 C 10.484375 7.851562 10.585938 8.015625 10.730469 8.136719 C 10.820312 8.214844 10.964844 8.289062 11.308594 8.453125 C 11.453125 8.527344 11.617188 8.605469 11.78125 8.6875 C 11.75 8.726562 10.851562 9.804688 10.347656 10.402344 C 10.230469 10.539062 10.164062 10.710938 10.15625 10.890625 C 10.148438 11.128906 10.242188 11.363281 10.421875 11.523438 L 10.984375 11.992188 C 10.539062 12.1875 9.640625 12.578125 9.640625 12.578125 Z M 8.007812 11.378906 "/>
<path style=" stroke:none;fill-rule:nonzero;fill:rgb(36.862746%,61.176473%,46.27451%);fill-opacity:1;" d="M 8.9375 4.0625 L 9.28125 4.421875 L 9.304688 4.445312 L 9.328125 4.464844 C 9.621094 4.726562 9.996094 4.871094 10.390625 4.875 C 10.414062 4.875 10.582031 4.875 10.792969 4.875 L 11.363281 4.875 C 11.335938 4.9375 11.296875 5.027344 11.269531 5.082031 C 11.246094 5.09375 11.210938 5.109375 11.167969 5.128906 C 10.964844 5.21875 10.664062 5.355469 10.425781 5.480469 C 10.050781 5.6875 9.796875 6.066406 9.757812 6.496094 C 9.742188 6.636719 9.75 6.777344 9.785156 6.917969 L 9.789062 6.941406 L 9.796875 6.964844 L 10.039062 7.785156 C 10.117188 8.042969 10.261719 8.269531 10.464844 8.445312 C 10.597656 8.558594 10.753906 8.636719 11.132812 8.820312 C 11.132812 8.820312 11.136719 8.820312 11.140625 8.824219 C 10.824219 9.203125 10.351562 9.769531 10.039062 10.140625 C 9.863281 10.351562 9.761719 10.601562 9.75 10.871094 C 9.734375 11.234375 9.878906 11.582031 10.144531 11.824219 L 10.160156 11.839844 L 10.175781 11.851562 L 10.214844 11.882812 C 10.019531 11.96875 9.832031 12.050781 9.691406 12.113281 L 8.25 11.050781 L 8.1875 11.003906 L 8.121094 10.972656 L 8.035156 10.933594 L 7.976562 10.90625 L 7.90625 10.871094 L 6.867188 10.597656 C 6.777344 10.574219 6.683594 10.5625 6.589844 10.5625 C 6.261719 10.5625 5.964844 10.695312 5.75 10.933594 C 5.714844 10.96875 5.535156 11.199219 5.398438 11.371094 L 3.585938 11.375 L 3.25 11.039062 L 3.25 10.644531 C 3.25 10.292969 3.097656 9.960938 2.835938 9.726562 L 2.4375 9.382812 L 2.4375 8.125 C 2.4375 7.722656 2.222656 7.34375 1.878906 7.136719 L 1.832031 7.109375 L 1.785156 7.089844 L 0.941406 6.722656 L 1.4375 5.6875 L 2.03125 5.6875 C 2.703125 5.6875 3.25 5.140625 3.25 4.46875 C 3.25 4.328125 3.226562 4.1875 3.179688 4.0625 L 8.9375 4.0625 M 9.09375 3.25 L 2.03125 3.25 C 1.808594 3.25 1.625 3.433594 1.625 3.65625 C 1.625 3.878906 1.808594 4.0625 2.03125 4.0625 C 2.253906 4.0625 2.4375 4.246094 2.4375 4.46875 C 2.4375 4.691406 2.253906 4.875 2.03125 4.875 L 1.199219 4.875 C 1.035156 4.875 0.886719 4.964844 0.8125 5.113281 L 0.0585938 6.683594 C 0.0195312 6.753906 0 6.832031 0 6.910156 C 0 7.0625 0.0820312 7.210938 0.222656 7.292969 L 1.460938 7.832031 C 1.5625 7.894531 1.625 8.003906 1.625 8.125 L 1.625 9.566406 C 1.625 9.683594 1.675781 9.792969 1.765625 9.871094 L 2.300781 10.339844 C 2.386719 10.417969 2.4375 10.527344 2.4375 10.644531 L 2.4375 11.207031 C 2.4375 11.316406 2.480469 11.417969 2.554688 11.496094 L 3.128906 12.070312 C 3.207031 12.144531 3.308594 12.1875 3.417969 12.1875 L 5.585938 12.183594 C 5.601562 12.1875 5.621094 12.1875 5.636719 12.1875 L 5.640625 12.1875 C 5.738281 12.1875 5.832031 12.140625 5.890625 12.058594 C 5.902344 12.042969 6.332031 11.5 6.355469 11.476562 C 6.414062 11.410156 6.496094 11.375 6.589844 11.375 C 6.613281 11.375 6.636719 11.378906 6.664062 11.382812 L 7.625 11.636719 C 7.667969 11.65625 7.726562 11.6875 7.769531 11.703125 L 9.453125 12.941406 C 9.503906 12.980469 9.566406 13 9.628906 13 C 9.683594 13 9.738281 12.984375 9.785156 12.957031 C 9.792969 12.953125 10.621094 12.597656 11.148438 12.34375 C 11.292969 12.273438 11.375 12.128906 11.375 11.980469 C 11.375 11.875 11.332031 11.761719 11.242188 11.679688 L 10.695312 11.226562 C 10.601562 11.140625 10.558594 11.023438 10.5625 10.90625 C 10.566406 10.820312 10.601562 10.734375 10.660156 10.664062 C 11.171875 10.054688 12.101562 8.941406 12.101562 8.9375 C 12.160156 8.863281 12.1875 8.773438 12.1875 8.6875 C 12.1875 8.542969 12.109375 8.402344 11.96875 8.328125 C 11.527344 8.101562 11.085938 7.90625 10.996094 7.828125 C 10.910156 7.757812 10.851562 7.660156 10.820312 7.554688 L 10.574219 6.734375 C 10.5625 6.683594 10.558594 6.628906 10.566406 6.574219 C 10.582031 6.417969 10.671875 6.273438 10.816406 6.195312 C 11.125 6.027344 11.621094 5.824219 11.675781 5.789062 C 11.800781 5.714844 11.90625 5.613281 11.980469 5.484375 C 12 5.453125 12.136719 5.136719 12.136719 5.136719 C 12.171875 5.042969 12.1875 4.976562 12.1875 4.875 C 12.1875 4.875 12.1875 4.492188 12.1875 4.46875 C 12.1875 4.246094 12.003906 4.0625 11.78125 4.0625 C 11.722656 4.0625 11.183594 4.0625 10.792969 4.0625 C 10.585938 4.0625 10.421875 4.0625 10.398438 4.0625 C 10.203125 4.058594 10.015625 3.988281 9.867188 3.859375 L 9.394531 3.367188 C 9.3125 3.292969 9.203125 3.25 9.09375 3.25 Z M 9.09375 3.25 "/>
<path style=" stroke:none;fill-rule:nonzero;fill:rgb(78.039217%,26.274511%,26.274511%);fill-opacity:1;" d="M 6.5 0 C 5.152344 0 4.0625 1.03125 4.0625 2.300781 C 4.0625 4.109375 6.5 6.5 6.5 6.5 C 6.5 6.5 8.9375 4.101562 8.9375 2.300781 C 8.9375 1.03125 7.847656 0 6.5 0 Z M 6.675781 3.230469 C 6.238281 3.328125 5.804688 3.050781 5.707031 2.613281 C 5.609375 2.175781 5.886719 1.742188 6.324219 1.644531 C 6.761719 1.546875 7.195312 1.824219 7.292969 2.261719 C 7.390625 2.699219 7.113281 3.132812 6.675781 3.230469 Z M 6.675781 3.230469 "/>
<path style=" stroke:none;fill-rule:nonzero;fill:rgb(36.862746%,61.176473%,46.27451%);fill-opacity:1;" d="M 4.0625 6.5 C 3.613281 6.5 3.25 6.863281 3.25 7.3125 C 3.25 7.761719 3.613281 8.125 4.0625 8.125 C 4.511719 8.125 4.875 7.761719 4.875 7.3125 C 4.875 6.863281 4.511719 6.5 4.0625 6.5 Z M 4.0625 6.5 "/>
</g>
</svg>
