<?xml version="1.0" encoding="UTF-8"?>
<svg xmlns="http://www.w3.org/2000/svg" xmlns:xlink="http://www.w3.org/1999/xlink" width="30pt" height="30pt" viewBox="0 0 30 30" version="1.1">
<g id="surface5452">
<path style=" stroke:none;fill-rule:nonzero;fill:rgb(88.235295%,92.156863%,94.901961%);fill-opacity:1;" d="M 3 27.5 C 2.199219 27.5 1.5 26.800781 1.5 26 L 1.5 3 C 1.5 2.199219 2.199219 1.5 3 1.5 L 26 1.5 C 26.800781 1.5 27.5 2.199219 27.5 3 L 27.5 26 C 27.5 26.800781 26.800781 27.5 26 27.5 Z M 3 27.5 "/>
<path style=" stroke:none;fill-rule:nonzero;fill:rgb(47.058824%,54.509807%,61.176473%);fill-opacity:1;" d="M 26 2 C 26.601562 2 27 2.398438 27 3 L 27 26 C 27 26.601562 26.601562 27 26 27 L 3 27 C 2.398438 27 2 26.601562 2 26 L 2 3 C 2 2.398438 2.398438 2 3 2 L 26 2 M 26 1 L 3 1 C 1.898438 1 1 1.898438 1 3 L 1 26 C 1 27.101562 1.898438 28 3 28 L 26 28 C 27.101562 28 28 27.101562 28 26 L 28 3 C 28 1.898438 27.101562 1 26 1 Z M 26 1 "/>
<path style=" stroke:none;fill-rule:nonzero;fill:rgb(71.372551%,78.823531%,83.92157%);fill-opacity:1;" d="M 14 2 L 15 2 L 15 27 L 14 27 Z M 14 2 "/>
<path style=" stroke:none;fill-rule:nonzero;fill:rgb(71.372551%,78.823531%,83.92157%);fill-opacity:1;" d="M 2 14 L 27 14 L 27 15 L 2 15 Z M 2 14 "/>
<path style=" stroke:none;fill-rule:nonzero;fill:rgb(78.039217%,26.274511%,26.274511%);fill-opacity:1;" d="M 27 26 C 23 26 21.398438 19.898438 19.800781 14.101562 C 18.398438 9.101562 17 4 14.5 4 C 12 4 10.601562 9.101562 9.300781 14 C 7.699219 19.898438 6 26 2 26 L 2 25 C 5.300781 25 6.800781 19.300781 8.300781 13.699219 C 9.800781 8.199219 11.199219 3 14.5 3 C 17.800781 3 19.199219 8.199219 20.699219 13.800781 C 22.199219 19.300781 23.800781 25 27 25 Z M 27 26 "/>
</g>
</svg>
