<?xml version="1.0" encoding="UTF-8"?>
<svg xmlns="http://www.w3.org/2000/svg" xmlns:xlink="http://www.w3.org/1999/xlink" width="13.5pt" height="13.5pt" viewBox="0 0 13.5 13.5" version="1.1">
<g id="surface5449">
<path style=" stroke:none;fill-rule:nonzero;fill:rgb(88.235295%,92.156863%,94.901961%);fill-opacity:1;" d="M 5.28125 7.71875 C 4.386719 7.71875 3.65625 6.988281 3.65625 6.09375 L 3.65625 2.03125 C 3.65625 1.136719 4.386719 0.40625 5.28125 0.40625 C 6.175781 0.40625 6.90625 1.136719 6.90625 2.03125 L 6.90625 6.09375 C 6.90625 6.988281 6.175781 7.71875 5.28125 7.71875 Z M 5.28125 7.71875 "/>
<path style=" stroke:none;fill-rule:nonzero;fill:rgb(47.058824%,54.509807%,61.176473%);fill-opacity:1;" d="M 5.28125 0.8125 C 5.953125 0.8125 6.5 1.359375 6.5 2.03125 L 6.5 6.09375 C 6.5 6.765625 5.953125 7.3125 5.28125 7.3125 C 4.609375 7.3125 4.0625 6.765625 4.0625 6.09375 L 4.0625 2.03125 C 4.0625 1.359375 4.609375 0.8125 5.28125 0.8125 M 5.28125 0 C 4.164062 0 3.25 0.914062 3.25 2.03125 L 3.25 6.09375 C 3.25 7.210938 4.164062 8.125 5.28125 8.125 C 6.398438 8.125 7.3125 7.210938 7.3125 6.09375 L 7.3125 2.03125 C 7.3125 0.914062 6.398438 0 5.28125 0 Z M 5.28125 0 "/>
<path style=" stroke:none;fill-rule:nonzero;fill:rgb(96.862745%,56.078434%,56.078434%);fill-opacity:1;" d="M 5.28125 12.59375 C 3.9375 12.59375 2.84375 11.5 2.84375 10.15625 C 2.84375 9.519531 3.089844 8.914062 3.539062 8.453125 L 3.65625 8.335938 L 3.65625 4.46875 L 6.90625 4.46875 L 6.90625 8.335938 L 7.023438 8.453125 C 7.472656 8.914062 7.71875 9.519531 7.71875 10.15625 C 7.71875 11.5 6.625 12.59375 5.28125 12.59375 Z M 5.28125 12.59375 "/>
<path style=" stroke:none;fill-rule:nonzero;fill:rgb(78.039217%,26.274511%,26.274511%);fill-opacity:1;" d="M 6.5 4.875 L 6.5 8.503906 L 6.730469 8.738281 C 7.105469 9.121094 7.3125 9.625 7.3125 10.15625 C 7.3125 11.277344 6.402344 12.1875 5.28125 12.1875 C 4.160156 12.1875 3.25 11.277344 3.25 10.15625 C 3.25 9.625 3.457031 9.121094 3.832031 8.738281 L 4.0625 8.5 L 4.0625 4.875 L 6.5 4.875 M 7.3125 4.0625 L 3.25 4.0625 L 3.25 8.171875 C 2.75 8.683594 2.4375 9.382812 2.4375 10.15625 C 2.4375 11.726562 3.710938 13 5.28125 13 C 6.851562 13 8.125 11.726562 8.125 10.15625 C 8.125 9.382812 7.8125 8.683594 7.3125 8.171875 Z M 8.9375 2.4375 L 11.375 2.4375 L 11.375 3.25 L 8.9375 3.25 Z M 8.9375 0.8125 L 11.375 0.8125 L 11.375 1.625 L 8.9375 1.625 Z M 8.9375 4.0625 L 11.375 4.0625 L 11.375 4.875 L 8.9375 4.875 Z M 8.9375 4.0625 "/>
<path style=" stroke:none;fill-rule:nonzero;fill:rgb(30.588236%,47.843137%,70.980394%);fill-opacity:1;" d="M 8.9375 5.6875 L 11.375 5.6875 L 11.375 6.5 L 8.9375 6.5 Z M 8.9375 7.3125 L 11.375 7.3125 L 11.375 8.125 L 8.9375 8.125 Z M 8.9375 8.9375 L 11.375 8.9375 L 11.375 9.75 L 8.9375 9.75 Z M 8.9375 8.9375 "/>
</g>
</svg>
