<?xml version="1.0" encoding="UTF-8" standalone="no"?>
<!DOCTYPE svg PUBLIC "-//W3C//DTD SVG 1.1//EN" "http://www.w3.org/Graphics/SVG/1.1/DTD/svg11.dtd">
<svg width="100%" height="100%" viewBox="0 0 24 24" version="1.1" xmlns="http://www.w3.org/2000/svg" xmlns:xlink="http://www.w3.org/1999/xlink" xml:space="preserve" xmlns:serif="http://www.serif.com/" style="fill-rule:evenodd;clip-rule:evenodd;stroke-linejoin:round;stroke-miterlimit:2;">
    <g id="surface29443" transform="matrix(0.833825,0,0,0.833825,0.0999644,0.0999644)">
        <path d="M18.613,23.102C18.555,23.102 18.496,23.082 18.449,23.051L15.258,20.813L15.078,20.719L13.145,20.133C13.063,20.109 12.992,20.102 12.926,20.102C12.563,20.102 12.262,20.285 12.105,20.605L11.313,22.344C11.266,22.438 11.164,22.5 11.047,22.5L7.914,21.914L7.777,21.902L6.848,21.898C6.77,21.898 6.691,21.867 6.637,21.813L5.188,20.363C5.133,20.309 5.102,20.23 5.102,20.152L5.102,18.922C5.102,18.621 4.949,18.34 4.699,18.172L3.434,17.328C3.352,17.273 3.301,17.18 3.301,17.078L3.301,14.746C3.301,14.426 3.125,14.125 2.848,13.969L1.137,12.984C0.984,12.82 0.898,12.605 0.898,12.375C0.898,12.234 0.934,12.098 0.996,11.973L2.324,9.82C2.488,9.488 2.797,9.301 3.141,9.301L4.199,9.301C4.695,9.301 5.102,8.895 5.102,8.398L5.102,8.047C5.102,7.813 5.004,7.578 4.836,7.41L4.566,7.195C4.527,7.156 4.496,7.074 4.5,6.988C4.5,6.949 4.512,6.914 4.527,6.879C4.68,6.559 5.07,6.301 5.398,6.301L17.488,6.301C17.73,6.301 17.969,6.402 18.137,6.578L19.359,7.824C19.523,7.996 19.758,8.098 19.996,8.102L20,8.102C20.074,8.102 20.141,8.094 20.207,8.078L22.484,7.508C22.508,7.504 22.531,7.5 22.559,7.5C22.672,7.5 22.777,7.566 22.828,7.672L23.043,8.195C23.082,8.293 23.098,8.395 23.102,8.5C23.102,8.609 23.082,8.715 23.047,8.816L22.66,9.957C22.637,10.031 22.59,10.094 22.523,10.129L21.137,10.914C20.789,11.125 20.629,11.523 20.727,11.906L21.102,13.578C21.156,13.813 21.266,14.035 21.422,14.219L22.434,15.41C22.477,15.465 22.5,15.531 22.5,15.602C22.5,15.668 22.477,15.734 22.434,15.789L19.656,19.238C19.414,19.625 19.465,20.082 19.766,20.379L20.605,21.277C20.676,21.344 20.707,21.43 20.699,21.516C20.695,21.605 20.652,21.68 20.578,21.734C20.578,21.734 18.836,23.012 18.738,23.074C18.715,23.086 18.664,23.098 18.617,23.098L18.613,23.102Z" style="fill:rgb(174,199,175);fill-rule:nonzero;"/>
        <path d="M17.488,6.602C17.652,6.602 17.809,6.668 17.926,6.789L19.141,8.031C19.363,8.262 19.676,8.395 20.008,8.398C20.098,8.398 20.184,8.391 20.285,8.367L22.547,7.773L22.75,8.266L22.762,8.301C22.785,8.363 22.797,8.434 22.801,8.504C22.801,8.574 22.789,8.648 22.758,8.73L22.375,9.867L20.969,10.664C20.52,10.941 20.305,11.473 20.434,11.965L20.809,13.645C20.875,13.926 21.008,14.191 21.191,14.414L22.199,15.598L19.422,19.051L19.402,19.078L19.383,19.109C19.082,19.586 19.152,20.195 19.539,20.578L20.406,21.492C19.773,21.953 18.832,22.637 18.613,22.797L15.43,20.566L15.391,20.539L15.348,20.52L15.242,20.465L15.207,20.449L15.164,20.43L15.117,20.414L13.203,19.836C13.109,19.813 13.016,19.801 12.922,19.801C12.449,19.801 12.043,20.051 11.828,20.488L11.063,22.203L7.973,21.621L7.945,21.617L7.914,21.613L7.859,21.609L7.805,21.602L6.848,21.602L5.398,20.152L5.398,18.922C5.398,18.52 5.199,18.145 4.867,17.922L3.602,17.078L3.602,14.746C3.602,14.32 3.367,13.922 2.996,13.707L1.332,12.75C1.246,12.645 1.199,12.512 1.199,12.375C1.199,12.289 1.219,12.207 1.254,12.129L2.578,9.977L2.594,9.957L2.605,9.93C2.707,9.727 2.914,9.602 3.141,9.602L4.199,9.602C4.863,9.602 5.398,9.063 5.398,8.398L5.398,8.047C5.398,7.727 5.273,7.426 5.047,7.199L5.023,7.176L4.996,7.152L4.801,7C4.906,6.793 5.191,6.602 5.398,6.602L17.488,6.602M17.488,6L5.398,6C4.953,6 4.453,6.332 4.254,6.75C4.223,6.824 4.203,6.898 4.199,6.977C4.191,7.141 4.258,7.309 4.379,7.43L4.625,7.625C4.738,7.738 4.801,7.891 4.801,8.047L4.801,8.398C4.801,8.73 4.531,9 4.199,9L3.141,9C2.688,9 2.273,9.258 2.066,9.664L0.727,11.84C0.641,12.008 0.602,12.191 0.602,12.375C0.602,12.688 0.723,12.992 0.953,13.223L2.699,14.227C2.887,14.336 3,14.531 3,14.746L3,17.078C3,17.281 3.102,17.469 3.266,17.578L4.531,18.422C4.699,18.535 4.801,18.719 4.801,18.922L4.801,20.152C4.801,20.313 4.863,20.465 4.977,20.574L6.426,22.023C6.535,22.137 6.688,22.199 6.848,22.199L7.75,22.199C7.785,22.203 7.824,22.207 7.859,22.211L10.949,22.793C10.98,22.797 11.016,22.801 11.047,22.801L11.051,22.801C11.273,22.801 11.484,22.676 11.586,22.469L12.375,20.734C12.48,20.523 12.676,20.398 12.922,20.398C12.969,20.398 13.012,20.406 13.059,20.418L14.945,20.988C14.992,21.012 15.039,21.035 15.086,21.059L18.281,23.301C18.383,23.367 18.5,23.398 18.613,23.398L18.617,23.398C18.715,23.398 18.816,23.375 18.906,23.324C18.93,23.313 20.762,21.977 20.762,21.977C21.051,21.758 21.082,21.328 20.824,21.07L19.977,20.168C19.777,19.969 19.742,19.66 19.891,19.426L22.668,15.977C22.758,15.863 22.801,15.734 22.801,15.602C22.801,15.465 22.754,15.328 22.664,15.219L21.652,14.023C21.527,13.879 21.438,13.703 21.398,13.512L21.02,11.832C20.953,11.578 21.063,11.313 21.285,11.176L22.672,10.391C22.805,10.316 22.902,10.195 22.949,10.051L23.328,8.922C23.379,8.785 23.402,8.641 23.402,8.496C23.398,8.359 23.375,8.223 23.324,8.09C23.316,8.07 23.309,8.047 23.297,8.023L23.102,7.543C23,7.332 22.785,7.199 22.559,7.199C22.508,7.199 22.461,7.207 22.414,7.219L20.141,7.785C20.098,7.797 20.051,7.801 20.008,7.801L20.004,7.801C19.844,7.797 19.688,7.734 19.574,7.617L18.355,6.367C18.129,6.133 17.816,6 17.488,6Z" style="fill:rgb(94,156,118);fill-rule:nonzero;"/>
        <path d="M9.602,14.398C9.602,15.063 9.063,15.602 8.398,15.602C7.738,15.602 7.199,15.063 7.199,14.398C7.199,13.738 7.738,13.199 8.398,13.199C9.063,13.199 9.602,13.738 9.602,14.398Z" style="fill:rgb(94,156,118);fill-rule:nonzero;"/>
        <path d="M12.598,12.152C11.27,10.652 8.699,7.414 8.699,4.801C8.699,2.648 10.449,0.898 12.602,0.898C14.75,0.898 16.5,2.648 16.5,4.801C16.5,7.402 13.93,10.648 12.598,12.152ZM12.602,3.301C11.773,3.301 11.102,3.973 11.102,4.801C11.102,5.629 11.773,6.301 12.602,6.301C13.426,6.301 14.102,5.629 14.102,4.801C14.102,3.973 13.426,3.301 12.602,3.301Z" style="fill:rgb(246,143,143);fill-rule:nonzero;"/>
        <path d="M12.602,1.199C14.586,1.199 16.199,2.816 16.199,4.801C16.199,7.168 13.949,10.133 12.598,11.695C11.25,10.137 9,7.18 9,4.801C9,2.816 10.613,1.199 12.602,1.199M12.602,6.602C13.594,6.602 14.398,5.793 14.398,4.801C14.398,3.809 13.594,3 12.602,3C11.609,3 10.801,3.809 10.801,4.801C10.801,5.793 11.609,6.602 12.602,6.602M12.602,0.602C10.281,0.602 8.398,2.48 8.398,4.801C8.398,7.945 11.895,11.824 12.598,12.602C13.305,11.82 16.801,7.93 16.801,4.801C16.801,2.48 14.918,0.602 12.602,0.602ZM12.602,6C11.938,6 11.398,5.461 11.398,4.801C11.398,4.137 11.938,3.602 12.602,3.602C13.262,3.602 13.801,4.137 13.801,4.801C13.801,5.461 13.262,6 12.602,6Z" style="fill:rgb(199,67,67);fill-rule:nonzero;"/>
    </g>
    <g id="surface1634" transform="matrix(0.738175,0,0,0.738175,15.0035,15.0035)">
        <path d="M6.094,0.406C2.953,0.406 0.406,2.953 0.406,6.094C0.406,9.234 2.953,11.781 6.094,11.781C9.234,11.781 11.781,9.234 11.781,6.094C11.781,2.953 9.234,0.406 6.094,0.406Z" style="fill:rgb(186,224,189);fill-rule:nonzero;"/>
        <path d="M6.094,0.813C9.004,0.813 11.375,3.184 11.375,6.094C11.375,9.004 9.004,11.375 6.094,11.375C3.184,11.375 0.813,9.004 0.813,6.094C0.813,3.184 3.184,0.813 6.094,0.813M6.094,0C2.727,0 0,2.727 0,6.094C0,9.461 2.727,12.188 6.094,12.188C9.461,12.188 12.188,9.461 12.188,6.094C12.188,2.727 9.461,0 6.094,0Z" style="fill:rgb(94,156,118);fill-rule:nonzero;"/>
        <g transform="matrix(1,0,0,1.94409,0,-5.75304)">
            <rect x="2.844" y="5.688" width="6.5" height="0.813" style="fill:white;"/>
        </g>
        <g transform="matrix(1.94409,0,0,1,-5.75304,0)">
            <rect x="5.688" y="2.844" width="0.813" height="6.5" style="fill:white;fill-rule:nonzero;"/>
        </g>
    </g>
</svg>
