<?xml version="1.0" encoding="UTF-8"?>
<svg xmlns="http://www.w3.org/2000/svg" xmlns:xlink="http://www.w3.org/1999/xlink" width="24pt" height="24pt" viewBox="0 0 24 24" version="1.1">
<g id="surface15038">
<path style=" stroke:none;fill-rule:nonzero;fill:rgb(100%,100%,100%);fill-opacity:1;" d="M 1.5 21.300781 L 1.5 1.5 L 22.5 1.5 L 22.5 21 C 22.5 21.164062 22.367188 21.300781 22.199219 21.300781 Z M 1.5 21.300781 "/>
<path style=" stroke:none;fill-rule:nonzero;fill:rgb(47.058824%,54.509807%,61.176473%);fill-opacity:1;" d="M 22.199219 1.800781 L 22.199219 21 L 1.800781 21 L 1.800781 1.800781 L 22.199219 1.800781 M 22.800781 1.199219 L 1.199219 1.199219 L 1.199219 21.601562 L 22.199219 21.601562 C 22.53125 21.601562 22.800781 21.332031 22.800781 21 Z M 22.800781 1.199219 "/>
<path style=" stroke:none;fill-rule:nonzero;fill:rgb(47.058824%,54.509807%,61.176473%);fill-opacity:1;" d="M 1.199219 1.199219 L 22.800781 1.199219 L 22.800781 4.800781 L 1.199219 4.800781 Z M 1.199219 1.199219 "/>
<path style="fill:none;stroke-width:1;stroke-linecap:butt;stroke-linejoin:miter;stroke:rgb(54.509807%,71.764708%,94.117647%);stroke-opacity:1;stroke-miterlimit:10;" d="M 13.001302 15.501302 L 31.002604 15.501302 M 8.997396 15.501302 L 10 15.501302 M 13.001302 19.498698 L 31.002604 19.498698 M 8.997396 19.498698 L 10 19.498698 M 13.001302 23.502604 L 31.002604 23.502604 M 8.997396 23.502604 L 10 23.502604 M 13.001302 27.5 L 31.002604 27.5 M 8.997396 27.5 L 10 27.5 " transform="matrix(0.6,0,0,0.6,0,0)"/>
<path style=" stroke:none;fill-rule:nonzero;fill:rgb(76.078433%,90.980393%,100%);fill-opacity:1;" d="M 13.507812 14.398438 L 18.601562 14.398438 L 18.601562 13.800781 L 14.078125 13.800781 C 13.878906 13.988281 13.683594 14.1875 13.507812 14.398438 Z M 12.253906 16.800781 L 18.601562 16.800781 L 18.601562 16.199219 L 12.457031 16.199219 C 12.378906 16.394531 12.3125 16.59375 12.253906 16.800781 Z M 12.253906 16.800781 "/>
<path style=" stroke:none;fill-rule:nonzero;fill:rgb(78.431374%,81.960785%,85.882354%);fill-opacity:1;" d="M 12.726562 21.601562 L 22.800781 21.601562 L 22.800781 13.976562 C 22.558594 13.734375 22.40625 13.433594 22.199219 13.328125 L 22.199219 21 L 12.457031 21 C 12.535156 21.207031 12.625 21.40625 12.726562 21.601562 Z M 12.726562 21.601562 "/>
<path style=" stroke:none;fill-rule:nonzero;fill:rgb(72.941178%,87.843138%,74.117649%);fill-opacity:1;" d="M 18.601562 13.5 C 15.785156 13.5 13.5 15.785156 13.5 18.601562 C 13.5 21.417969 15.785156 23.699219 18.601562 23.699219 C 21.417969 23.699219 23.699219 21.417969 23.699219 18.601562 C 23.699219 15.785156 21.417969 13.5 18.601562 13.5 Z M 18.601562 13.5 "/>
<path style=" stroke:none;fill-rule:nonzero;fill:rgb(36.862746%,61.176473%,46.27451%);fill-opacity:1;" d="M 18.601562 13.800781 C 21.246094 13.800781 23.398438 15.953125 23.398438 18.601562 C 23.398438 21.246094 21.246094 23.398438 18.601562 23.398438 C 15.953125 23.398438 13.800781 21.246094 13.800781 18.601562 C 13.800781 15.953125 15.953125 13.800781 18.601562 13.800781 M 18.601562 13.199219 C 15.617188 13.199219 13.199219 15.617188 13.199219 18.601562 C 13.199219 21.582031 15.617188 24 18.601562 24 C 21.582031 24 24 21.582031 24 18.601562 C 24 15.617188 21.582031 13.199219 18.601562 13.199219 Z M 18.601562 13.199219 "/>
<path style="fill:none;stroke-width:2;stroke-linecap:butt;stroke-linejoin:miter;stroke:rgb(100%,100%,100%);stroke-opacity:1;stroke-miterlimit:10;" d="M 31.002604 36.002604 L 31.002604 26.002604 M 26.002604 31.002604 L 36.002604 31.002604 " transform="matrix(0.6,0,0,0.6,0,0)"/>
</g>
</svg>
