<?xml version="1.0" encoding="UTF-8"?>
<svg xmlns="http://www.w3.org/2000/svg" xmlns:xlink="http://www.w3.org/1999/xlink" width="60pt" height="60pt" viewBox="0 0 60 60" version="1.1">
<g id="surface74">
<path style=" stroke:none;fill-rule:nonzero;fill:rgb(36.862746%,61.176473%,46.27451%);fill-opacity:1;" d="M 13.875 60 L 3.75 60 C 2.625 60 1.875 59.25 1.875 58.125 C 1.875 57 2.625 56.25 3.75 56.25 L 12.375 56.25 L 56.625 4.5 C 57.375 3.75 58.5 3.75 59.25 4.125 C 60 4.875 60 6 59.625 6.75 Z M 13.875 60 "/>
<path style=" stroke:none;fill-rule:nonzero;fill:rgb(21.176471%,25.098041%,30.19608%);fill-opacity:1;" d="M 1.875 30 C 0.839844 30 0 30.839844 0 31.875 C 0 32.910156 0.839844 33.75 1.875 33.75 C 2.910156 33.75 3.75 32.910156 3.75 31.875 C 3.75 30.839844 2.910156 30 1.875 30 Z M 9.375 30 C 8.339844 30 7.5 30.839844 7.5 31.875 C 7.5 32.910156 8.339844 33.75 9.375 33.75 C 10.410156 33.75 11.25 32.910156 11.25 31.875 C 11.25 30.839844 10.410156 30 9.375 30 Z M 16.875 30 C 15.839844 30 15 30.839844 15 31.875 C 15 32.910156 15.839844 33.75 16.875 33.75 C 17.910156 33.75 18.75 32.910156 18.75 31.875 C 18.75 30.839844 17.910156 30 16.875 30 Z M 24.375 30 C 23.339844 30 22.5 30.839844 22.5 31.875 C 22.5 32.910156 23.339844 33.75 24.375 33.75 C 25.410156 33.75 26.25 32.910156 26.25 31.875 C 26.25 30.839844 25.410156 30 24.375 30 Z M 31.875 30 C 30.839844 30 30 30.839844 30 31.875 C 30 32.910156 30.839844 33.75 31.875 33.75 C 32.910156 33.75 33.75 32.910156 33.75 31.875 C 33.75 30.839844 32.910156 30 31.875 30 Z M 39.375 30 C 38.339844 30 37.5 30.839844 37.5 31.875 C 37.5 32.910156 38.339844 33.75 39.375 33.75 C 40.410156 33.75 41.25 32.910156 41.25 31.875 C 41.25 30.839844 40.410156 30 39.375 30 Z M 46.875 30 C 45.839844 30 45 30.839844 45 31.875 C 45 32.910156 45.839844 33.75 46.875 33.75 C 47.910156 33.75 48.75 32.910156 48.75 31.875 C 48.75 30.839844 47.910156 30 46.875 30 Z M 54.375 30 C 53.339844 30 52.5 30.839844 52.5 31.875 C 52.5 32.910156 53.339844 33.75 54.375 33.75 C 55.410156 33.75 56.25 32.910156 56.25 31.875 C 56.25 30.839844 55.410156 30 54.375 30 Z M 54.375 30 "/>
</g>
</svg>
