<?xml version="1.0" encoding="UTF-8"?>
<svg xmlns="http://www.w3.org/2000/svg" viewBox="3 -0.3 9 14.1" width="13.5pt" height="13.5pt">
<g id="surface-toolbar-add-bar">
  <path fill="#e1ebf2" d="M6,13.5c-0.827,0-1.5-0.673-1.5-1.5V0.5h6V12c0,0.827-0.673,1.5-1.5,1.5H6z"/>
  <path fill="#788b9c" d="M10,1v11c0,0.551-0.449,1-1,1H6c-0.551,0-1-0.449-1-1V1H10 M11,0H4v12c0,1.1,0.9,2,2,2h3 c1.1,0,2-0.9,2-2V0L11,0z"/>
  <path fill="#8bb7f0" d="M5,13.5c-0.275,0-0.5-0.225-0.5-0.5V6.5h6V13c0,0.275-0.225,0.5-0.5,0.5H5z"/>
  <path fill="#4e7ab5" d="M10,7v6H5V7H10 M11,6H4v7c0,0.552,0.448,1,1,1h5c0.55,0,1-0.45,1-1V6L11,6z"/>
  <path fill="#e1ebf2" d="M11.5,1h-8C3.225,1,3,0.775,3,0.5v0C3,0.225,3.225,0,3.5,0h8C11.775,0,12,0.225,12,0.5v0 C12,0.775,11.775,1,11.5,1z"/>
  <path fill="#788b9c" d="M11.5,0h-8C3.225,0,3,0.225,3,0.5S3.225,1,3.5,1h8C11.775,1,12,0.775,12,0.5S11.775,0,11.5,0L11.5,0z"/>
  <path fill="#4e7ab5" d="M6 6H7V13H6z"/>
  <path fill="#788b9c" d="M6 2H7V6H6z"/>
  <path fill="#788b9c" d="M6 2H8V3H6zM6 4H8V5H6z"/>
  <path fill="#4e7ab5" d="M6 8H8V9H6zM6 10H8V11H6z"/>
</g>
</svg>
