<?xml version="1.0" encoding="UTF-8"?>
<svg xmlns="http://www.w3.org/2000/svg" xmlns:xlink="http://www.w3.org/1999/xlink" width="12pt" height="12pt" viewBox="0 0 12 12" version="1.1">
<g id="surface10462">
<path style=" stroke:none;fill-rule:nonzero;fill:rgb(69.01961%,75.686276%,83.137256%);fill-opacity:1;" d="M 3.75 9 L 2.25 9 L 2.25 3 L 0 3 L 3 0 L 6 3 L 3.75 3 Z M 3.75 9 "/>
<path style=" stroke:none;fill-rule:nonzero;fill:rgb(30.588236%,47.843137%,70.980394%);fill-opacity:1;" d="M 3 9.75 L 3 8.25 L 9 8.25 L 9 6 L 12 9 L 9 12 L 9 9.75 Z M 3 9.75 "/>
<path style=" stroke:none;fill-rule:nonzero;fill:rgb(96.862745%,56.078434%,56.078434%);fill-opacity:1;" d="M 4.125 9 C 4.125 9.621094 3.621094 10.125 3 10.125 C 2.378906 10.125 1.875 9.621094 1.875 9 C 1.875 8.378906 2.378906 7.875 3 7.875 C 3.621094 7.875 4.125 8.378906 4.125 9 Z M 4.125 9 "/>
<path style=" stroke:none;fill-rule:nonzero;fill:rgb(78.039217%,26.274511%,26.274511%);fill-opacity:1;" d="M 3 10.5 C 2.171875 10.5 1.5 9.828125 1.5 9 C 1.5 8.171875 2.171875 7.5 3 7.5 C 3.828125 7.5 4.5 8.171875 4.5 9 C 4.5 9.828125 3.828125 10.5 3 10.5 Z M 3 8.25 C 2.585938 8.25 2.25 8.585938 2.25 9 C 2.25 9.414062 2.585938 9.75 3 9.75 C 3.414062 9.75 3.75 9.414062 3.75 9 C 3.75 8.585938 3.414062 8.25 3 8.25 Z M 3 8.25 "/>
</g>
</svg>
