<?xml version="1.0" encoding="UTF-8" standalone="no"?>
<!DOCTYPE svg PUBLIC "-//W3C//DTD SVG 1.1//EN" "http://www.w3.org/Graphics/SVG/1.1/DTD/svg11.dtd">
<svg width="100%" height="100%" viewBox="0 0 12 12" version="1.1" xmlns="http://www.w3.org/2000/svg" xmlns:xlink="http://www.w3.org/1999/xlink" xml:space="preserve" xmlns:serif="http://www.serif.com/" style="fill-rule:evenodd;clip-rule:evenodd;stroke-linejoin:round;stroke-miterlimit:2;">
    <g id="surface226">
        <rect x="2.551" y="0.449" width="0.598" height="11.102" style="fill:rgb(254,238,163);fill-rule:nonzero;"/>
        <path d="M3,0.602L3,11.398L2.699,11.398L2.699,0.602L3,0.602M3.301,0.301L2.398,0.301L2.398,11.699L3.301,11.699L3.301,0.301Z" style="fill:rgb(245,194,118);fill-rule:nonzero;"/>
        <rect x="3.75" y="0.449" width="0.602" height="11.102" style="fill:rgb(254,238,163);fill-rule:nonzero;"/>
        <path d="M4.199,0.602L4.199,11.398L3.898,11.398L3.898,0.602L4.199,0.602M4.5,0.301L3.602,0.301L3.602,11.699L4.5,11.699L4.5,0.301Z" style="fill:rgb(245,194,118);fill-rule:nonzero;"/>
        <rect x="4.949" y="0.449" width="0.602" height="11.102" style="fill:rgb(254,238,163);fill-rule:nonzero;"/>
        <path d="M5.398,0.602L5.398,11.398L5.102,11.398L5.102,0.602L5.398,0.602M5.699,0.301L4.801,0.301L4.801,11.699L5.699,11.699L5.699,0.301Z" style="fill:rgb(245,194,118);fill-rule:nonzero;"/>
        <rect x="6.148" y="0.449" width="0.602" height="11.102" style="fill:rgb(254,238,163);fill-rule:nonzero;"/>
        <path d="M6.602,0.602L6.602,11.398L6.301,11.398L6.301,0.602L6.602,0.602M6.898,0.301L6,0.301L6,11.699L6.898,11.699L6.898,0.301Z" style="fill:rgb(245,194,118);fill-rule:nonzero;"/>
        <rect x="7.352" y="0.449" width="0.598" height="11.102" style="fill:rgb(254,238,163);fill-rule:nonzero;"/>
        <path d="M7.801,0.602L7.801,11.398L7.5,11.398L7.5,0.602L7.801,0.602M8.102,0.301L7.199,0.301L7.199,11.699L8.102,11.699L8.102,0.301Z" style="fill:rgb(245,194,118);fill-rule:nonzero;"/>
        <rect x="8.551" y="0.449" width="0.598" height="11.102" style="fill:rgb(254,238,163);fill-rule:nonzero;"/>
        <path d="M9,0.602L9,11.398L8.699,11.398L8.699,0.602L9,0.602M9.301,0.301L8.398,0.301L8.398,11.699L9.301,11.699L9.301,0.301Z" style="fill:rgb(245,194,118);fill-rule:nonzero;"/>
        <rect x="0.449" y="2.852" width="11.102" height="0.598" style="fill:rgb(254,238,163);fill-rule:nonzero;"/>
        <path d="M11.398,3L11.398,3.301L0.602,3.301L0.602,3L11.398,3M11.699,2.699L0.301,2.699L0.301,3.602L11.699,3.602L11.699,2.699Z" style="fill:rgb(245,194,118);fill-rule:nonzero;"/>
        <rect x="0.449" y="4.051" width="11.102" height="0.598" style="fill:rgb(254,238,163);fill-rule:nonzero;"/>
        <path d="M11.398,4.199L11.398,4.5L0.602,4.5L0.602,4.199L11.398,4.199M11.699,3.898L0.301,3.898L0.301,4.801L11.699,4.801L11.699,3.898Z" style="fill:rgb(245,194,118);fill-rule:nonzero;"/>
        <rect x="0.449" y="5.25" width="11.102" height="0.602" style="fill:rgb(254,238,163);fill-rule:nonzero;"/>
        <path d="M11.398,5.398L11.398,5.699L0.602,5.699L0.602,5.398L11.398,5.398M11.699,5.102L0.301,5.102L0.301,6L11.699,6L11.699,5.102Z" style="fill:rgb(245,194,118);fill-rule:nonzero;"/>
        <rect x="0.449" y="6.449" width="11.102" height="0.602" style="fill:rgb(254,238,163);fill-rule:nonzero;"/>
        <path d="M11.398,6.602L11.398,6.898L0.602,6.898L0.602,6.602L11.398,6.602M11.699,6.301L0.301,6.301L0.301,7.199L11.699,7.199L11.699,6.301Z" style="fill:rgb(245,194,118);fill-rule:nonzero;"/>
        <rect x="0.449" y="7.648" width="11.102" height="0.602" style="fill:rgb(254,238,163);fill-rule:nonzero;"/>
        <path d="M11.398,7.801L11.398,8.102L0.602,8.102L0.602,7.801L11.398,7.801M11.699,7.5L0.301,7.5L0.301,8.398L11.699,8.398L11.699,7.5Z" style="fill:rgb(245,194,118);fill-rule:nonzero;"/>
        <rect x="0.449" y="8.852" width="11.102" height="0.598" style="fill:rgb(254,238,163);fill-rule:nonzero;"/>
        <path d="M11.398,9L11.398,9.301L0.602,9.301L0.602,9L11.398,9M11.699,8.699L0.301,8.699L0.301,9.602L11.699,9.602L11.699,8.699Z" style="fill:rgb(245,194,118);fill-rule:nonzero;"/>
        <path d="M2.102,10.352C1.852,10.352 1.648,10.148 1.648,9.898L1.648,2.102C1.648,1.852 1.852,1.648 2.102,1.648L9.898,1.648C10.148,1.648 10.352,1.852 10.352,2.102L10.352,9.898C10.352,10.148 10.148,10.352 9.898,10.352L2.102,10.352Z" style="fill:rgb(75,100,119);fill-rule:nonzero;"/>
        <path d="M9.898,1.801C10.066,1.801 10.199,1.934 10.199,2.102L10.199,9.898C10.199,10.066 10.066,10.199 9.898,10.199L2.102,10.199C1.934,10.199 1.801,10.066 1.801,9.898L1.801,2.102C1.801,1.934 1.934,1.801 2.102,1.801L9.898,1.801M9.898,1.5L2.102,1.5C1.77,1.5 1.5,1.77 1.5,2.102L1.5,9.898C1.5,10.23 1.77,10.5 2.102,10.5L9.898,10.5C10.23,10.5 10.5,10.23 10.5,9.898L10.5,2.102C10.5,1.77 10.23,1.5 9.898,1.5Z" style="fill:rgb(54,64,77);fill-rule:nonzero;"/>
        <path d="M3.148,2.699C2.902,2.699 2.699,2.902 2.699,3.148C2.699,3.398 2.902,3.602 3.148,3.602C3.398,3.602 3.602,3.398 3.602,3.148C3.602,2.902 3.398,2.699 3.148,2.699Z" style="fill:rgb(189,204,212);fill-rule:nonzero;"/>
        <path d="M8.852,2.699C8.602,2.699 8.398,2.902 8.398,3.148C8.398,3.398 8.602,3.602 8.852,3.602C9.098,3.602 9.301,3.398 9.301,3.148C9.301,2.902 9.098,2.699 8.852,2.699Z" style="fill:rgb(189,204,212);fill-rule:nonzero;"/>
        <path d="M8.852,8.398C8.602,8.398 8.398,8.602 8.398,8.852C8.398,9.098 8.602,9.301 8.852,9.301C9.098,9.301 9.301,9.098 9.301,8.852C9.301,8.602 9.098,8.398 8.852,8.398Z" style="fill:rgb(189,204,212);fill-rule:nonzero;"/>
        <path d="M3.148,8.398C2.902,8.398 2.699,8.602 2.699,8.852C2.699,9.098 2.902,9.301 3.148,9.301C3.398,9.301 3.602,9.098 3.602,8.852C3.602,8.602 3.398,8.398 3.148,8.398Z" style="fill:rgb(189,204,212);fill-rule:nonzero;"/>
        <g transform="matrix(0.244721,0,0,0.244721,9.65227,9.60493)">
            <g transform="matrix(1,0,0,1,-11.25,-11.25)">
                <g id="surface281">
                    <path d="M10.313,0.688C4.996,0.688 0.688,4.996 0.688,10.313C0.688,15.629 4.996,19.938 10.313,19.938C15.629,19.938 19.938,15.629 19.938,10.313C19.938,4.996 15.629,0.688 10.313,0.688Z" style="fill:rgb(186,224,189);fill-rule:nonzero;"/>
                    <path d="M10.313,1.375C15.242,1.375 19.25,5.383 19.25,10.313C19.25,15.242 15.242,19.25 10.313,19.25C5.383,19.25 1.375,15.242 1.375,10.313C1.375,5.383 5.383,1.375 10.313,1.375M10.313,0C4.617,0 0,4.617 0,10.313C0,16.008 4.617,20.625 10.313,20.625C16.008,20.625 20.625,16.008 20.625,10.313C20.625,4.617 16.008,0 10.313,0Z" style="fill:rgb(94,156,118);fill-rule:nonzero;"/>
                    <rect x="4.813" y="9.625" width="11" height="1.375" style="fill:rgb(254,254,254);fill-rule:nonzero;"/>
                    <rect x="9.625" y="4.813" width="1.375" height="11" style="fill:rgb(254,254,254);fill-rule:nonzero;"/>
                </g>
            </g>
        </g>
    </g>
</svg>
