<?xml version="1.0" encoding="UTF-8"?>
<svg xmlns="http://www.w3.org/2000/svg" xmlns:xlink="http://www.w3.org/1999/xlink" width="24pt" height="24pt" viewBox="0 0 24 24" version="1.1">
<g id="surface7186">
<path style=" stroke:none;fill-rule:nonzero;fill:rgb(40.000001%,47.450981%,56.078434%);fill-opacity:1;" d="M 21 3 L 21 21 L 3 21 L 3 3 L 21 3 M 21.601562 2.398438 L 2.398438 2.398438 L 2.398438 21.601562 L 21.601562 21.601562 Z M 21.601562 2.398438 "/>
<path style=" stroke:none;fill-rule:nonzero;fill:rgb(54.509807%,71.764708%,94.117647%);fill-opacity:1;" d="M 19.5 0.898438 L 23.101562 0.898438 L 23.101562 4.5 L 19.5 4.5 Z M 19.5 0.898438 "/>
<path style=" stroke:none;fill-rule:nonzero;fill:rgb(30.588236%,47.843137%,70.980394%);fill-opacity:1;" d="M 22.800781 1.199219 L 22.800781 4.199219 L 19.800781 4.199219 L 19.800781 1.199219 L 22.800781 1.199219 M 23.398438 0.601562 L 19.199219 0.601562 L 19.199219 4.800781 L 23.398438 4.800781 Z M 23.398438 0.601562 "/>
<path style=" stroke:none;fill-rule:nonzero;fill:rgb(54.509807%,71.764708%,94.117647%);fill-opacity:1;" d="M 0.898438 0.898438 L 4.5 0.898438 L 4.5 4.5 L 0.898438 4.5 Z M 0.898438 0.898438 "/>
<path style=" stroke:none;fill-rule:nonzero;fill:rgb(30.588236%,47.843137%,70.980394%);fill-opacity:1;" d="M 4.199219 1.199219 L 4.199219 4.199219 L 1.199219 4.199219 L 1.199219 1.199219 L 4.199219 1.199219 M 4.800781 0.601562 L 0.601562 0.601562 L 0.601562 4.800781 L 4.800781 4.800781 Z M 4.800781 0.601562 "/>
<path style=" stroke:none;fill-rule:nonzero;fill:rgb(54.509807%,71.764708%,94.117647%);fill-opacity:1;" d="M 19.5 19.5 L 23.101562 19.5 L 23.101562 23.101562 L 19.5 23.101562 Z M 19.5 19.5 "/>
<path style=" stroke:none;fill-rule:nonzero;fill:rgb(30.588236%,47.843137%,70.980394%);fill-opacity:1;" d="M 22.800781 19.800781 L 22.800781 22.800781 L 19.800781 22.800781 L 19.800781 19.800781 L 22.800781 19.800781 M 23.398438 19.199219 L 19.199219 19.199219 L 19.199219 23.398438 L 23.398438 23.398438 Z M 23.398438 19.199219 "/>
<path style=" stroke:none;fill-rule:nonzero;fill:rgb(54.509807%,71.764708%,94.117647%);fill-opacity:1;" d="M 0.898438 19.5 L 4.5 19.5 L 4.5 23.101562 L 0.898438 23.101562 Z M 0.898438 19.5 "/>
<path style=" stroke:none;fill-rule:nonzero;fill:rgb(30.588236%,47.843137%,70.980394%);fill-opacity:1;" d="M 4.199219 19.800781 L 4.199219 22.800781 L 1.199219 22.800781 L 1.199219 19.800781 L 4.199219 19.800781 M 4.800781 19.199219 L 0.601562 19.199219 L 0.601562 23.398438 L 4.800781 23.398438 Z M 4.800781 19.199219 "/>
<path style=" stroke:none;fill-rule:nonzero;fill:rgb(86.274511%,83.529413%,94.901961%);fill-opacity:1;" d="M 11.101562 11.101562 L 17.699219 11.101562 L 17.699219 17.699219 L 11.101562 17.699219 Z M 11.101562 11.101562 "/>
<path style=" stroke:none;fill-rule:nonzero;fill:rgb(54.509807%,45.882353%,63.137257%);fill-opacity:1;" d="M 17.398438 11.398438 L 17.398438 17.398438 L 11.398438 17.398438 L 11.398438 11.398438 L 17.398438 11.398438 M 18 10.800781 L 10.800781 10.800781 L 10.800781 18 L 18 18 Z M 18 10.800781 "/>
<path style=" stroke:none;fill-rule:nonzero;fill:rgb(94.901961%,98.039216%,100%);fill-opacity:1;" d="M 6.300781 6.300781 L 12.898438 6.300781 L 12.898438 12.898438 L 6.300781 12.898438 Z M 6.300781 6.300781 "/>
<path style=" stroke:none;fill-rule:nonzero;fill:rgb(47.058824%,54.509807%,61.176473%);fill-opacity:1;" d="M 12.601562 6.601562 L 12.601562 12.601562 L 6.601562 12.601562 L 6.601562 6.601562 L 12.601562 6.601562 M 13.199219 6 L 6 6 L 6 13.199219 L 13.199219 13.199219 Z M 13.199219 6 "/>
</g>
</svg>
