<?xml version="1.0" encoding="UTF-8" standalone="no"?>
<!DOCTYPE svg PUBLIC "-//W3C//DTD SVG 1.1//EN" "http://www.w3.org/Graphics/SVG/1.1/DTD/svg11.dtd">
<svg width="100%" height="100%" viewBox="0 0 24 24" version="1.1" xmlns="http://www.w3.org/2000/svg" xmlns:xlink="http://www.w3.org/1999/xlink" xml:space="preserve" xmlns:serif="http://www.serif.com/" style="fill-rule:evenodd;clip-rule:evenodd;stroke-linejoin:round;stroke-miterlimit:2;">
    <g id="surface29986" transform="matrix(0.880777,0,0,0.880777,0.142975,0.142975)">
        <path d="M1.5,16.684L1.5,11.273L7.91,3.344L16.246,5.727L22.5,1.746L22.5,16.684L1.5,16.684Z" style="fill:rgb(139,183,239);fill-rule:nonzero;"/>
        <path d="M22.199,2.293L22.199,16.387L1.801,16.387L1.801,11.383L8.016,3.688L16.035,5.977L16.293,6.051L16.523,5.906L22.199,2.293M22.801,1.199L16.199,5.398L7.801,3L1.199,11.168L1.199,16.984L22.801,16.984L22.801,1.199Z" style="fill:rgb(78,121,181);fill-rule:nonzero;"/>
        <path d="M1.5,22.5L1.5,15.48L7.852,11.129L16.223,13.52L22.5,10.797L22.5,22.5L1.5,22.5Z" style="fill:rgb(186,224,189);fill-rule:nonzero;"/>
        <path d="M22.199,11.254L22.199,22.199L1.801,22.199L1.801,15.641L7.906,11.453L16.035,13.777L16.242,13.836L16.438,13.75L22.199,11.254M22.801,10.34L16.199,13.199L7.801,10.801L1.199,15.324L1.199,22.801L22.801,22.801L22.801,10.34Z" style="fill:rgb(94,156,118);fill-rule:nonzero;"/>
    </g>
    <g id="surface1634" transform="matrix(0.738175,0,0,0.738175,15.0035,15.0035)">
        <path d="M6.094,0.406C2.953,0.406 0.406,2.953 0.406,6.094C0.406,9.234 2.953,11.781 6.094,11.781C9.234,11.781 11.781,9.234 11.781,6.094C11.781,2.953 9.234,0.406 6.094,0.406Z" style="fill:rgb(186,224,189);fill-rule:nonzero;"/>
        <path d="M6.094,0.813C9.004,0.813 11.375,3.184 11.375,6.094C11.375,9.004 9.004,11.375 6.094,11.375C3.184,11.375 0.813,9.004 0.813,6.094C0.813,3.184 3.184,0.813 6.094,0.813M6.094,0C2.727,0 0,2.727 0,6.094C0,9.461 2.727,12.188 6.094,12.188C9.461,12.188 12.188,9.461 12.188,6.094C12.188,2.727 9.461,0 6.094,0Z" style="fill:rgb(94,156,118);fill-rule:nonzero;"/>
        <g transform="matrix(1,0,0,1.94409,0,-5.75304)">
            <rect x="2.844" y="5.688" width="6.5" height="0.813" style="fill:white;"/>
        </g>
        <g transform="matrix(1.94409,0,0,1,-5.75304,0)">
            <rect x="5.688" y="2.844" width="0.813" height="6.5" style="fill:white;fill-rule:nonzero;"/>
        </g>
    </g>
</svg>
