<?xml version="1.0" encoding="UTF-8"?>
<svg xmlns="http://www.w3.org/2000/svg" xmlns:xlink="http://www.w3.org/1999/xlink" width="13.5pt" height="13.5pt" viewBox="0 0 13.5 13.5" version="1.1">
<g id="surface5774">
<path style=" stroke:none;fill-rule:nonzero;fill:rgb(100%,100%,100%);fill-opacity:1;" d="M 1.625 10.96875 C 0.8125 9.914062 0.40625 8.613281 0.40625 7.3125 C 0.40625 3.980469 3.167969 1.21875 6.5 1.21875 C 9.832031 1.21875 12.59375 3.980469 12.59375 7.3125 C 12.59375 8.613281 12.1875 9.914062 11.375 10.96875 Z M 1.625 10.96875 "/>
<path style=" stroke:none;fill-rule:nonzero;fill:rgb(30.588236%,47.843137%,70.980394%);fill-opacity:1;" d="M 6.5 1.625 C 9.667969 1.625 12.1875 4.144531 12.1875 7.3125 C 12.1875 8.449219 11.863281 9.585938 11.132812 10.5625 L 1.867188 10.5625 C 1.136719 9.585938 0.8125 8.449219 0.8125 7.3125 C 0.8125 4.144531 3.332031 1.625 6.5 1.625 M 6.5 0.8125 C 2.925781 0.8125 0 3.738281 0 7.3125 C 0 8.855469 0.570312 10.238281 1.460938 11.375 L 11.617188 11.375 C 12.511719 10.238281 13.082031 8.855469 13.082031 7.3125 C 13 3.738281 10.074219 0.8125 6.5 0.8125 Z M 6.5 0.8125 "/>
<path style=" stroke:none;fill-rule:nonzero;fill:rgb(47.058824%,54.509807%,61.176473%);fill-opacity:1;" d="M 4.875 8.9375 L 8.125 8.9375 L 8.125 9.75 L 4.875 9.75 Z M 4.875 8.9375 "/>
<path style=" stroke:none;fill-rule:nonzero;fill:rgb(78.039217%,26.274511%,26.274511%);fill-opacity:1;" d="M 6.160156 7.160156 L 7.472656 4.1875 L 8.214844 4.515625 L 6.902344 7.488281 Z M 6.160156 7.160156 "/>
<path style=" stroke:none;fill-rule:nonzero;fill:rgb(96.862745%,56.078434%,56.078434%);fill-opacity:1;" d="M 6.5 6.90625 C 6.277344 6.90625 6.09375 7.089844 6.09375 7.3125 C 6.09375 7.535156 6.277344 7.71875 6.5 7.71875 C 6.722656 7.71875 6.90625 7.535156 6.90625 7.3125 C 6.90625 7.089844 6.722656 6.90625 6.5 6.90625 Z M 6.5 6.90625 "/>
<path style=" stroke:none;fill-rule:nonzero;fill:rgb(78.039217%,26.274511%,26.274511%);fill-opacity:1;" d="M 6.5 6.5 C 6.011719 6.5 5.6875 6.824219 5.6875 7.3125 C 5.6875 7.800781 6.011719 8.125 6.5 8.125 C 6.988281 8.125 7.3125 7.800781 7.3125 7.3125 C 7.3125 6.824219 6.988281 6.5 6.5 6.5 Z M 6.5 6.5 "/>
<path style=" stroke:none;fill-rule:nonzero;fill:rgb(21.176471%,25.098041%,30.19608%);fill-opacity:1;" d="M 10.96875 3.167969 C 10.886719 3.085938 10.886719 3.085938 10.804688 3.007812 C 10.726562 2.925781 10.726562 2.925781 10.644531 2.84375 L 9.667969 3.820312 L 9.992188 4.144531 Z M 10.96875 3.167969 "/>
<path style=" stroke:none;fill-rule:nonzero;fill:rgb(21.176471%,25.098041%,30.19608%);fill-opacity:1;" d="M 9.992188 4.46875 L 9.425781 3.898438 L 10.644531 2.679688 L 10.886719 2.84375 C 10.886719 2.84375 10.96875 2.925781 10.96875 2.925781 C 10.96875 2.925781 11.050781 3.007812 11.050781 3.007812 L 11.210938 3.25 Z M 9.992188 3.820312 L 10.726562 3.167969 Z M 3.332031 3.820312 L 2.355469 2.84375 C 2.355469 2.925781 2.273438 3.007812 2.195312 3.007812 C 2.195312 3.085938 2.113281 3.167969 2.03125 3.167969 L 3.007812 4.144531 Z M 3.332031 3.820312 "/>
<path style=" stroke:none;fill-rule:nonzero;fill:rgb(21.176471%,25.098041%,30.19608%);fill-opacity:1;" d="M 3.007812 4.46875 L 1.789062 3.167969 L 1.949219 3.007812 C 1.949219 3.007812 2.03125 2.925781 2.03125 2.925781 C 2.03125 2.925781 2.113281 2.84375 2.113281 2.84375 L 2.355469 2.679688 L 3.574219 3.898438 Z M 2.355469 3.167969 L 3.007812 3.820312 Z M 0.648438 5.929688 L 1.949219 6.257812 L 2.03125 5.851562 L 0.730469 5.523438 C 0.648438 5.6875 0.648438 5.851562 0.648438 5.929688 Z M 0.648438 5.929688 "/>
<path style=" stroke:none;fill-rule:nonzero;fill:rgb(21.176471%,25.098041%,30.19608%);fill-opacity:1;" d="M 2.03125 6.582031 L 0.40625 6.09375 L 0.488281 5.929688 C 0.488281 5.769531 0.570312 5.605469 0.570312 5.523438 L 0.648438 5.363281 L 2.355469 5.851562 Z M 0.894531 5.851562 L 1.789062 6.09375 L 1.789062 6.011719 L 0.894531 5.851562 C 0.894531 5.769531 0.894531 5.769531 0.894531 5.851562 Z M 12.429688 8.695312 L 11.132812 8.367188 L 11.050781 8.773438 L 12.351562 9.101562 C 12.351562 8.9375 12.351562 8.773438 12.429688 8.695312 Z M 12.429688 8.695312 "/>
<path style=" stroke:none;fill-rule:nonzero;fill:rgb(21.176471%,25.098041%,30.19608%);fill-opacity:1;" d="M 12.429688 9.34375 L 10.726562 8.855469 L 10.96875 8.042969 L 12.675781 8.53125 L 12.59375 8.695312 C 12.59375 8.855469 12.511719 9.019531 12.511719 9.179688 Z M 11.210938 8.613281 L 12.105469 8.855469 Z M 11.210938 8.613281 "/>
<path style=" stroke:none;fill-rule:nonzero;fill:rgb(21.176471%,25.098041%,30.19608%);fill-opacity:1;" d="M 4.710938 1.542969 L 5.039062 2.84375 L 5.445312 2.761719 L 5.117188 1.382812 C 5.039062 1.460938 4.875 1.460938 4.710938 1.542969 Z M 4.710938 1.542969 "/>
<path style=" stroke:none;fill-rule:nonzero;fill:rgb(21.176471%,25.098041%,30.19608%);fill-opacity:1;" d="M 4.957031 3.085938 L 4.46875 1.382812 L 4.632812 1.300781 C 4.792969 1.21875 4.957031 1.21875 5.117188 1.21875 L 5.28125 1.136719 L 5.769531 2.84375 Z M 4.957031 1.707031 L 5.199219 2.601562 L 5.28125 2.601562 Z M 4.957031 1.707031 "/>
<path style=" stroke:none;fill-rule:nonzero;fill:rgb(21.176471%,25.098041%,30.19608%);fill-opacity:1;" d="M 7.476562 2.679688 L 7.882812 2.761719 L 8.207031 1.460938 C 8.125 1.460938 7.960938 1.460938 7.882812 1.382812 Z M 7.476562 2.679688 "/>
<path style=" stroke:none;fill-rule:nonzero;fill:rgb(21.176471%,25.098041%,30.19608%);fill-opacity:1;" d="M 8.042969 3.085938 L 7.230469 2.84375 L 7.71875 1.136719 L 7.882812 1.21875 C 8.042969 1.21875 8.207031 1.300781 8.367188 1.300781 L 8.53125 1.382812 Z M 7.71875 2.601562 L 7.960938 1.707031 Z M 7.71875 2.601562 "/>
<path style=" stroke:none;fill-rule:nonzero;fill:rgb(21.176471%,25.098041%,30.19608%);fill-opacity:1;" d="M 12.429688 5.929688 C 12.429688 5.769531 12.351562 5.605469 12.351562 5.523438 L 11.050781 5.851562 L 11.132812 6.257812 Z M 12.429688 5.929688 "/>
<path style=" stroke:none;fill-rule:nonzero;fill:rgb(21.176471%,25.098041%,30.19608%);fill-opacity:1;" d="M 10.96875 6.582031 L 10.726562 5.769531 L 12.429688 5.28125 L 12.511719 5.445312 C 12.59375 5.605469 12.59375 5.769531 12.59375 5.929688 L 12.675781 6.09375 Z M 11.210938 6.011719 L 12.1875 5.851562 Z M 11.210938 6.011719 "/>
<path style=" stroke:none;fill-rule:nonzero;fill:rgb(21.176471%,25.098041%,30.19608%);fill-opacity:1;" d="M 0.570312 5.929688 L 1.867188 6.257812 L 1.949219 5.851562 L 0.730469 5.523438 C 0.648438 5.6875 0.648438 5.851562 0.570312 5.929688 Z M 0.570312 5.929688 "/>
<path style=" stroke:none;fill-rule:nonzero;fill:rgb(21.176471%,25.098041%,30.19608%);fill-opacity:1;" d="M 2.03125 6.582031 L 0.40625 6.09375 L 0.488281 5.929688 C 0.488281 5.769531 0.570312 5.605469 0.570312 5.445312 L 0.648438 5.28125 L 2.355469 5.769531 Z M 0.8125 5.851562 L 1.707031 6.09375 L 1.707031 6.011719 L 0.8125 5.851562 C 0.894531 5.769531 0.894531 5.769531 0.8125 5.851562 Z M 0.8125 5.851562 "/>
<path style=" stroke:none;fill-rule:nonzero;fill:rgb(21.176471%,25.098041%,30.19608%);fill-opacity:1;" d="M 0.570312 8.695312 C 0.570312 8.855469 0.648438 9.019531 0.648438 9.101562 L 1.949219 8.773438 L 1.867188 8.367188 Z M 0.570312 8.695312 "/>
<path style=" stroke:none;fill-rule:nonzero;fill:rgb(21.176471%,25.098041%,30.19608%);fill-opacity:1;" d="M 0.570312 9.34375 L 0.488281 9.179688 C 0.40625 9.019531 0.40625 8.855469 0.40625 8.695312 L 0.324219 8.53125 L 2.03125 8.042969 L 2.273438 8.855469 Z M 0.8125 8.773438 C 0.894531 8.855469 0.894531 8.855469 0.8125 8.773438 L 1.707031 8.613281 Z M 0.8125 8.773438 "/>
<path style=" stroke:none;fill-rule:nonzero;fill:rgb(30.588236%,47.843137%,70.980394%);fill-opacity:1;" d="M 6.5 1.625 C 9.667969 1.625 12.1875 4.144531 12.1875 7.3125 C 12.1875 8.449219 11.863281 9.585938 11.132812 10.5625 L 1.867188 10.5625 C 1.136719 9.585938 0.8125 8.449219 0.8125 7.3125 C 0.8125 4.144531 3.332031 1.625 6.5 1.625 M 6.5 0.8125 C 2.925781 0.8125 0 3.738281 0 7.3125 C 0 8.855469 0.570312 10.238281 1.460938 11.375 L 11.617188 11.375 C 12.511719 10.238281 13.082031 8.855469 13.082031 7.3125 C 13 3.738281 10.074219 0.8125 6.5 0.8125 Z M 6.5 0.8125 "/>
</g>
</svg>
