<?xml version="1.0" encoding="UTF-8"?>
<svg xmlns="http://www.w3.org/2000/svg" xmlns:xlink="http://www.w3.org/1999/xlink" width="24pt" height="24pt" viewBox="0 0 24 24" version="1.1">
<g id="surface29443">
<path style=" stroke:none;fill-rule:nonzero;fill:rgb(72.941178%,87.843138%,74.117649%);fill-opacity:1;" d="M 18.613281 23.101562 C 18.554688 23.101562 18.496094 23.082031 18.449219 23.050781 L 15.257812 20.8125 L 15.078125 20.71875 L 13.144531 20.132812 C 13.0625 20.109375 12.992188 20.101562 12.925781 20.101562 C 12.5625 20.101562 12.261719 20.285156 12.105469 20.605469 L 11.3125 22.34375 C 11.265625 22.4375 11.164062 22.5 11.046875 22.5 L 7.914062 21.914062 L 7.777344 21.902344 L 6.847656 21.898438 C 6.769531 21.898438 6.691406 21.867188 6.636719 21.8125 L 5.1875 20.363281 C 5.132812 20.308594 5.101562 20.230469 5.101562 20.152344 L 5.101562 18.921875 C 5.101562 18.621094 4.949219 18.339844 4.699219 18.171875 L 3.433594 17.328125 C 3.351562 17.273438 3.300781 17.179688 3.300781 17.078125 L 3.300781 14.746094 C 3.300781 14.425781 3.125 14.125 2.847656 13.96875 L 1.136719 12.984375 C 0.984375 12.820312 0.898438 12.605469 0.898438 12.375 C 0.898438 12.234375 0.933594 12.097656 0.996094 11.972656 L 2.324219 9.820312 C 2.488281 9.488281 2.796875 9.300781 3.140625 9.300781 L 4.199219 9.300781 C 4.695312 9.300781 5.101562 8.894531 5.101562 8.398438 L 5.101562 8.046875 C 5.101562 7.8125 5.003906 7.578125 4.835938 7.410156 L 4.566406 7.195312 C 4.527344 7.15625 4.496094 7.074219 4.5 6.988281 C 4.5 6.949219 4.511719 6.914062 4.527344 6.878906 C 4.679688 6.558594 5.070312 6.300781 5.398438 6.300781 L 17.488281 6.300781 C 17.730469 6.300781 17.96875 6.402344 18.136719 6.578125 L 19.359375 7.824219 C 19.523438 7.996094 19.757812 8.097656 19.996094 8.101562 L 20 8.101562 C 20.074219 8.101562 20.140625 8.09375 20.207031 8.078125 L 22.484375 7.507812 C 22.507812 7.503906 22.53125 7.5 22.558594 7.5 C 22.671875 7.5 22.777344 7.566406 22.828125 7.671875 L 23.042969 8.195312 C 23.082031 8.292969 23.097656 8.394531 23.101562 8.5 C 23.101562 8.609375 23.082031 8.714844 23.046875 8.816406 L 22.660156 9.957031 C 22.636719 10.03125 22.589844 10.09375 22.523438 10.128906 L 21.136719 10.914062 C 20.789062 11.125 20.628906 11.523438 20.726562 11.90625 L 21.101562 13.578125 C 21.15625 13.8125 21.265625 14.035156 21.421875 14.21875 L 22.433594 15.410156 C 22.476562 15.464844 22.5 15.53125 22.5 15.601562 C 22.5 15.667969 22.476562 15.734375 22.433594 15.789062 L 19.65625 19.238281 C 19.414062 19.625 19.464844 20.082031 19.765625 20.378906 L 20.605469 21.277344 C 20.675781 21.34375 20.707031 21.429688 20.699219 21.515625 C 20.695312 21.605469 20.652344 21.679688 20.578125 21.734375 C 20.578125 21.734375 18.835938 23.011719 18.738281 23.074219 C 18.714844 23.085938 18.664062 23.097656 18.617188 23.097656 Z M 18.613281 23.101562 "/>
<path style=" stroke:none;fill-rule:nonzero;fill:rgb(36.862746%,61.176473%,46.27451%);fill-opacity:1;" d="M 17.488281 6.601562 C 17.652344 6.601562 17.808594 6.667969 17.925781 6.789062 L 19.140625 8.03125 C 19.363281 8.261719 19.675781 8.394531 20.007812 8.398438 C 20.097656 8.398438 20.183594 8.390625 20.285156 8.367188 L 22.546875 7.773438 L 22.75 8.265625 L 22.761719 8.300781 C 22.785156 8.363281 22.796875 8.433594 22.800781 8.503906 C 22.800781 8.574219 22.789062 8.648438 22.757812 8.730469 L 22.375 9.867188 L 20.96875 10.664062 C 20.519531 10.941406 20.304688 11.472656 20.433594 11.964844 L 20.808594 13.644531 C 20.875 13.925781 21.007812 14.191406 21.191406 14.414062 L 22.199219 15.597656 L 19.421875 19.050781 L 19.402344 19.078125 L 19.382812 19.109375 C 19.082031 19.585938 19.152344 20.195312 19.539062 20.578125 L 20.40625 21.492188 C 19.773438 21.953125 18.832031 22.636719 18.613281 22.796875 L 15.429688 20.566406 L 15.390625 20.539062 L 15.347656 20.519531 L 15.242188 20.464844 L 15.207031 20.449219 L 15.164062 20.429688 L 15.117188 20.414062 L 13.203125 19.835938 C 13.109375 19.8125 13.015625 19.800781 12.921875 19.800781 C 12.449219 19.800781 12.042969 20.050781 11.828125 20.488281 L 11.0625 22.203125 L 7.972656 21.621094 L 7.945312 21.617188 L 7.914062 21.613281 L 7.859375 21.609375 L 7.804688 21.601562 L 6.847656 21.601562 L 5.398438 20.152344 L 5.398438 18.921875 C 5.398438 18.519531 5.199219 18.144531 4.867188 17.921875 L 3.601562 17.078125 L 3.601562 14.746094 C 3.601562 14.320312 3.367188 13.921875 2.996094 13.707031 L 1.332031 12.75 C 1.246094 12.644531 1.199219 12.511719 1.199219 12.375 C 1.199219 12.289062 1.21875 12.207031 1.253906 12.128906 L 2.578125 9.976562 L 2.59375 9.957031 L 2.605469 9.929688 C 2.707031 9.726562 2.914062 9.601562 3.140625 9.601562 L 4.199219 9.601562 C 4.863281 9.601562 5.398438 9.0625 5.398438 8.398438 L 5.398438 8.046875 C 5.398438 7.726562 5.273438 7.425781 5.046875 7.199219 L 5.023438 7.175781 L 4.996094 7.152344 L 4.800781 7 C 4.90625 6.792969 5.191406 6.601562 5.398438 6.601562 L 17.488281 6.601562 M 17.488281 6 L 5.398438 6 C 4.953125 6 4.453125 6.332031 4.253906 6.75 C 4.222656 6.824219 4.203125 6.898438 4.199219 6.976562 C 4.191406 7.140625 4.257812 7.308594 4.378906 7.429688 L 4.625 7.625 C 4.738281 7.738281 4.800781 7.890625 4.800781 8.046875 L 4.800781 8.398438 C 4.800781 8.730469 4.53125 9 4.199219 9 L 3.140625 9 C 2.6875 9 2.273438 9.257812 2.066406 9.664062 L 0.726562 11.839844 C 0.640625 12.007812 0.601562 12.191406 0.601562 12.375 C 0.601562 12.6875 0.722656 12.992188 0.953125 13.222656 L 2.699219 14.226562 C 2.886719 14.335938 3 14.53125 3 14.746094 L 3 17.078125 C 3 17.28125 3.101562 17.46875 3.265625 17.578125 L 4.53125 18.421875 C 4.699219 18.535156 4.800781 18.71875 4.800781 18.921875 L 4.800781 20.152344 C 4.800781 20.3125 4.863281 20.464844 4.976562 20.574219 L 6.425781 22.023438 C 6.535156 22.136719 6.6875 22.199219 6.847656 22.199219 L 7.75 22.199219 C 7.785156 22.203125 7.824219 22.207031 7.859375 22.210938 L 10.949219 22.792969 C 10.980469 22.796875 11.015625 22.800781 11.046875 22.800781 C 11.046875 22.800781 11.046875 22.800781 11.050781 22.800781 C 11.273438 22.800781 11.484375 22.675781 11.585938 22.46875 L 12.375 20.734375 C 12.480469 20.523438 12.675781 20.398438 12.921875 20.398438 C 12.96875 20.398438 13.011719 20.40625 13.058594 20.417969 L 14.945312 20.988281 C 14.992188 21.011719 15.039062 21.035156 15.085938 21.058594 L 18.28125 23.300781 C 18.382812 23.367188 18.5 23.398438 18.613281 23.398438 C 18.617188 23.398438 18.617188 23.398438 18.617188 23.398438 C 18.714844 23.398438 18.816406 23.375 18.90625 23.324219 C 18.929688 23.3125 20.761719 21.976562 20.761719 21.976562 C 21.050781 21.757812 21.082031 21.328125 20.824219 21.070312 L 19.976562 20.167969 C 19.777344 19.96875 19.742188 19.660156 19.890625 19.425781 L 22.667969 15.976562 C 22.757812 15.863281 22.800781 15.734375 22.800781 15.601562 C 22.800781 15.464844 22.753906 15.328125 22.664062 15.21875 L 21.652344 14.023438 C 21.527344 13.878906 21.4375 13.703125 21.398438 13.511719 L 21.019531 11.832031 C 20.953125 11.578125 21.0625 11.3125 21.285156 11.175781 L 22.671875 10.390625 C 22.804688 10.316406 22.902344 10.195312 22.949219 10.050781 L 23.328125 8.921875 C 23.378906 8.785156 23.402344 8.640625 23.402344 8.496094 C 23.398438 8.359375 23.375 8.222656 23.324219 8.089844 C 23.316406 8.070312 23.308594 8.046875 23.296875 8.023438 L 23.101562 7.542969 C 23 7.332031 22.785156 7.199219 22.558594 7.199219 C 22.507812 7.199219 22.460938 7.207031 22.414062 7.21875 L 20.140625 7.785156 C 20.097656 7.796875 20.050781 7.800781 20.007812 7.800781 C 20.007812 7.800781 20.003906 7.800781 20.003906 7.800781 C 19.84375 7.796875 19.6875 7.734375 19.574219 7.617188 L 18.355469 6.367188 C 18.128906 6.132812 17.816406 6 17.488281 6 Z M 17.488281 6 "/>
<path style=" stroke:none;fill-rule:nonzero;fill:rgb(36.862746%,61.176473%,46.27451%);fill-opacity:1;" d="M 9.601562 14.398438 C 9.601562 15.0625 9.0625 15.601562 8.398438 15.601562 C 7.738281 15.601562 7.199219 15.0625 7.199219 14.398438 C 7.199219 13.738281 7.738281 13.199219 8.398438 13.199219 C 9.0625 13.199219 9.601562 13.738281 9.601562 14.398438 Z M 9.601562 14.398438 "/>
<path style=" stroke:none;fill-rule:nonzero;fill:rgb(96.862745%,56.078434%,56.078434%);fill-opacity:1;" d="M 12.597656 12.152344 C 11.269531 10.652344 8.699219 7.414062 8.699219 4.800781 C 8.699219 2.648438 10.449219 0.898438 12.601562 0.898438 C 14.75 0.898438 16.5 2.648438 16.5 4.800781 C 16.5 7.402344 13.929688 10.648438 12.597656 12.152344 Z M 12.601562 3.300781 C 11.773438 3.300781 11.101562 3.972656 11.101562 4.800781 C 11.101562 5.628906 11.773438 6.300781 12.601562 6.300781 C 13.425781 6.300781 14.101562 5.628906 14.101562 4.800781 C 14.101562 3.972656 13.425781 3.300781 12.601562 3.300781 Z M 12.601562 3.300781 "/>
<path style=" stroke:none;fill-rule:nonzero;fill:rgb(78.039217%,26.274511%,26.274511%);fill-opacity:1;" d="M 12.601562 1.199219 C 14.585938 1.199219 16.199219 2.816406 16.199219 4.800781 C 16.199219 7.167969 13.949219 10.132812 12.597656 11.695312 C 11.25 10.136719 9 7.179688 9 4.800781 C 9 2.816406 10.613281 1.199219 12.601562 1.199219 M 12.601562 6.601562 C 13.59375 6.601562 14.398438 5.792969 14.398438 4.800781 C 14.398438 3.808594 13.59375 3 12.601562 3 C 11.609375 3 10.800781 3.808594 10.800781 4.800781 C 10.800781 5.792969 11.609375 6.601562 12.601562 6.601562 M 12.601562 0.601562 C 10.28125 0.601562 8.398438 2.480469 8.398438 4.800781 C 8.398438 7.945312 11.894531 11.824219 12.597656 12.601562 C 13.304688 11.820312 16.800781 7.929688 16.800781 4.800781 C 16.800781 2.480469 14.917969 0.601562 12.601562 0.601562 Z M 12.601562 6 C 11.9375 6 11.398438 5.460938 11.398438 4.800781 C 11.398438 4.136719 11.9375 3.601562 12.601562 3.601562 C 13.261719 3.601562 13.800781 4.136719 13.800781 4.800781 C 13.800781 5.460938 13.261719 6 12.601562 6 Z M 12.601562 6 "/>
</g>
</svg>
