<?xml version="1.0" encoding="UTF-8"?>
<svg xmlns="http://www.w3.org/2000/svg" xmlns:xlink="http://www.w3.org/1999/xlink" width="60pt" height="60pt" viewBox="0 0 60 60" version="1.1">
<g id="surface85">
<path style=" stroke:none;fill-rule:nonzero;fill:rgb(76.078433%,90.980393%,100%);fill-opacity:1;" d="M 2.25 9.75 L 57.75 9.75 L 57.75 47.25 L 2.25 47.25 Z M 2.25 9.75 "/>
<path style=" stroke:none;fill-rule:nonzero;fill:rgb(45.490196%,58.823532%,76.862746%);fill-opacity:1;" d="M 57 10.5 L 57 46.5 L 3 46.5 L 3 10.5 L 57 10.5 M 58.5 9 L 1.5 9 L 1.5 48 L 58.5 48 Z M 58.5 9 "/>
<path style=" stroke:none;fill-rule:nonzero;fill:rgb(69.01961%,75.686276%,83.137256%);fill-opacity:1;" d="M 20.277344 51.75 C 20.664062 46.722656 24.875 42.75 30 42.75 C 35.125 42.75 39.335938 46.722656 39.722656 51.75 Z M 20.277344 51.75 "/>
<path style=" stroke:none;fill-rule:nonzero;fill:rgb(40.000001%,47.450981%,56.078434%);fill-opacity:1;" d="M 30 43.5 C 34.453125 43.5 38.160156 46.75 38.875 51 L 21.125 51 C 21.839844 46.75 25.546875 43.5 30 43.5 M 30 42 C 24.199219 42 19.5 46.699219 19.5 52.5 L 40.5 52.5 C 40.5 46.699219 35.800781 42 30 42 Z M 30 42 "/>
<path style=" stroke:none;fill-rule:nonzero;fill:rgb(54.509807%,71.764708%,94.117647%);fill-opacity:1;" d="M 18 17.25 C 12.613281 17.25 8.25 21.613281 8.25 27 C 8.25 32.386719 12.613281 36.75 18 36.75 C 23.386719 36.75 27.75 32.386719 27.75 27 C 27.75 21.613281 23.386719 17.25 18 17.25 Z M 18 17.25 "/>
<path style=" stroke:none;fill-rule:nonzero;fill:rgb(30.588236%,47.843137%,70.980394%);fill-opacity:1;" d="M 18 18 C 22.960938 18 27 22.039062 27 27 C 27 31.960938 22.960938 36 18 36 C 13.039062 36 9 31.960938 9 27 C 9 22.039062 13.039062 18 18 18 M 18 16.5 C 12.199219 16.5 7.5 21.199219 7.5 27 C 7.5 32.800781 12.199219 37.5 18 37.5 C 23.800781 37.5 28.5 32.800781 28.5 27 C 28.5 21.199219 23.800781 16.5 18 16.5 Z M 18 16.5 "/>
<path style=" stroke:none;fill-rule:nonzero;fill:rgb(96.862745%,56.078434%,56.078434%);fill-opacity:1;" d="M 18.75 26.25 L 18.75 17.277344 C 23.53125 17.644531 27.355469 21.46875 27.722656 26.25 Z M 18.75 26.25 "/>
<path style=" stroke:none;fill-rule:nonzero;fill:rgb(78.039217%,26.274511%,26.274511%);fill-opacity:1;" d="M 19.5 18.125 C 23.261719 18.757812 26.242188 21.738281 26.875 25.5 L 19.5 25.5 L 19.5 18.125 M 18 16.5 L 18 27 L 28.5 27 C 28.5 21.199219 23.800781 16.5 18 16.5 Z M 18 16.5 "/>
<path style=" stroke:none;fill-rule:nonzero;fill:rgb(30.588236%,47.843137%,70.980394%);fill-opacity:1;" d="M 52.5 25.5 L 34.5 25.5 L 34.5 24 L 52.5 24 Z M 52.5 25.5 "/>
<path style=" stroke:none;fill-rule:nonzero;fill:rgb(55.29412%,75.686276%,87.843138%);fill-opacity:1;" d="M 52.5 25.5 L 46.5 25.5 L 46.5 24 L 52.5 24 Z M 52.5 25.5 "/>
<path style=" stroke:none;fill-rule:nonzero;fill:rgb(30.588236%,47.843137%,70.980394%);fill-opacity:1;" d="M 52.5 19.5 L 34.5 19.5 L 34.5 18 L 52.5 18 Z M 52.5 19.5 "/>
<path style=" stroke:none;fill-rule:nonzero;fill:rgb(55.29412%,75.686276%,87.843138%);fill-opacity:1;" d="M 52.5 19.5 L 48 19.5 L 48 18 L 52.5 18 Z M 52.5 19.5 "/>
<path style=" stroke:none;fill-rule:nonzero;fill:rgb(30.588236%,47.843137%,70.980394%);fill-opacity:1;" d="M 52.5 31.5 L 34.5 31.5 L 34.5 30 L 52.5 30 Z M 52.5 31.5 "/>
<path style=" stroke:none;fill-rule:nonzero;fill:rgb(30.588236%,47.843137%,70.980394%);fill-opacity:1;" d="M 52.5 37.5 L 34.5 37.5 L 34.5 36 L 52.5 36 Z M 52.5 37.5 "/>
<path style=" stroke:none;fill-rule:nonzero;fill:rgb(55.29412%,75.686276%,87.843138%);fill-opacity:1;" d="M 52.5 31.5 L 48 31.5 L 48 30 L 52.5 30 Z M 52.5 31.5 "/>
<path style=" stroke:none;fill-rule:nonzero;fill:rgb(55.29412%,75.686276%,87.843138%);fill-opacity:1;" d="M 52.5 37.5 L 42 37.5 L 42 36 L 52.5 36 Z M 52.5 37.5 "/>
</g>
</svg>
