<?xml version="1.0" encoding="UTF-8"?>
<svg xmlns="http://www.w3.org/2000/svg" xmlns:xlink="http://www.w3.org/1999/xlink" width="24pt" height="24pt" viewBox="0 0 24 24" version="1.1">
<g id="surface29986">
<path style=" stroke:none;fill-rule:nonzero;fill:rgb(54.509807%,71.764708%,94.117647%);fill-opacity:1;" d="M 1.5 16.683594 L 1.5 11.273438 L 7.910156 3.34375 L 16.246094 5.726562 L 22.5 1.746094 L 22.5 16.683594 Z M 1.5 16.683594 "/>
<path style=" stroke:none;fill-rule:nonzero;fill:rgb(30.588236%,47.843137%,70.980394%);fill-opacity:1;" d="M 22.199219 2.292969 L 22.199219 16.386719 L 1.800781 16.386719 L 1.800781 11.382812 L 8.015625 3.6875 L 16.035156 5.976562 L 16.292969 6.050781 L 16.523438 5.90625 L 22.199219 2.292969 M 22.800781 1.199219 L 16.199219 5.398438 L 7.800781 3 L 1.199219 11.167969 L 1.199219 16.984375 L 22.800781 16.984375 Z M 22.800781 1.199219 "/>
<path style=" stroke:none;fill-rule:nonzero;fill:rgb(72.941178%,87.843138%,74.117649%);fill-opacity:1;" d="M 1.5 22.5 L 1.5 15.480469 L 7.851562 11.128906 L 16.222656 13.519531 L 22.5 10.796875 L 22.5 22.5 Z M 1.5 22.5 "/>
<path style=" stroke:none;fill-rule:nonzero;fill:rgb(36.862746%,61.176473%,46.27451%);fill-opacity:1;" d="M 22.199219 11.253906 L 22.199219 22.199219 L 1.800781 22.199219 L 1.800781 15.640625 L 7.90625 11.453125 L 16.035156 13.777344 L 16.242188 13.835938 L 16.4375 13.75 L 22.199219 11.253906 M 22.800781 10.339844 L 16.199219 13.199219 L 7.800781 10.800781 L 1.199219 15.324219 L 1.199219 22.800781 L 22.800781 22.800781 Z M 22.800781 10.339844 "/>
</g>
</svg>
