<?xml version="1.0" encoding="UTF-8"?>
<svg xmlns="http://www.w3.org/2000/svg" xmlns:xlink="http://www.w3.org/1999/xlink" width="24pt" height="24pt" viewBox="0 0 24 24" version="1.1">
<g id="surface20740">
<path style=" stroke:none;fill-rule:nonzero;fill:rgb(94.901961%,98.039216%,100%);fill-opacity:1;" d="M 18.300781 22.5 L 5.699219 22.5 C 4.707031 22.5 3.898438 21.695312 3.898438 20.699219 L 3.898438 3.898438 C 3.898438 2.90625 4.707031 2.101562 5.699219 2.101562 L 18.300781 2.101562 C 19.292969 2.101562 20.101562 2.90625 20.101562 3.898438 L 20.101562 20.699219 C 20.101562 21.695312 19.292969 22.5 18.300781 22.5 Z M 18.300781 22.5 "/>
<path style=" stroke:none;fill-rule:nonzero;fill:rgb(63.921571%,71.764708%,80.000001%);fill-opacity:1;" d="M 18.300781 22.800781 L 5.699219 22.800781 C 4.542969 22.800781 3.601562 21.859375 3.601562 20.699219 L 3.601562 3.898438 C 3.601562 2.742188 4.542969 1.800781 5.699219 1.800781 L 18.300781 1.800781 C 19.457031 1.800781 20.398438 2.742188 20.398438 3.898438 L 20.398438 20.699219 C 20.398438 21.859375 19.457031 22.800781 18.300781 22.800781 Z M 5.699219 2.398438 C 4.871094 2.398438 4.199219 3.074219 4.199219 3.898438 L 4.199219 20.699219 C 4.199219 21.527344 4.871094 22.199219 5.699219 22.199219 L 18.300781 22.199219 C 19.128906 22.199219 19.800781 21.527344 19.800781 20.699219 L 19.800781 3.898438 C 19.800781 3.074219 19.128906 2.398438 18.300781 2.398438 Z M 5.699219 2.398438 "/>
<path style=" stroke:none;fill-rule:nonzero;fill:rgb(63.921571%,71.764708%,80.000001%);fill-opacity:1;" d="M 17.699219 1.800781 L 17.699219 3.601562 L 17.398438 3.601562 C 17.039062 3.601562 16.800781 3.359375 16.800781 3 L 16.800781 1.800781 Z M 17.699219 1.800781 "/>
<path style=" stroke:none;fill-rule:nonzero;fill:rgb(47.058824%,54.509807%,61.176473%);fill-opacity:1;" d="M 17.398438 3.300781 L 17.398438 0.898438 C 17.398438 0.71875 17.519531 0.601562 17.699219 0.601562 C 17.878906 0.601562 18 0.71875 18 0.898438 L 18 3.300781 C 18 3.480469 17.878906 3.601562 17.699219 3.601562 C 17.519531 3.601562 17.398438 3.480469 17.398438 3.300781 Z M 17.398438 3.300781 "/>
<path style=" stroke:none;fill-rule:nonzero;fill:rgb(63.921571%,71.764708%,80.000001%);fill-opacity:1;" d="M 14.101562 1.800781 L 14.101562 3.601562 L 13.800781 3.601562 C 13.441406 3.601562 13.199219 3.359375 13.199219 3 L 13.199219 1.800781 Z M 14.101562 1.800781 "/>
<path style=" stroke:none;fill-rule:nonzero;fill:rgb(47.058824%,54.509807%,61.176473%);fill-opacity:1;" d="M 13.800781 3.300781 L 13.800781 0.898438 C 13.800781 0.71875 13.921875 0.601562 14.101562 0.601562 C 14.28125 0.601562 14.398438 0.71875 14.398438 0.898438 L 14.398438 3.300781 C 14.398438 3.480469 14.28125 3.601562 14.101562 3.601562 C 13.921875 3.601562 13.800781 3.480469 13.800781 3.300781 Z M 13.800781 3.300781 "/>
<path style=" stroke:none;fill-rule:nonzero;fill:rgb(63.921571%,71.764708%,80.000001%);fill-opacity:1;" d="M 10.5 1.800781 L 10.5 3.601562 L 10.199219 3.601562 C 9.839844 3.601562 9.601562 3.359375 9.601562 3 L 9.601562 1.800781 Z M 10.5 1.800781 "/>
<path style=" stroke:none;fill-rule:nonzero;fill:rgb(47.058824%,54.509807%,61.176473%);fill-opacity:1;" d="M 10.199219 3.300781 L 10.199219 0.898438 C 10.199219 0.71875 10.320312 0.601562 10.5 0.601562 C 10.679688 0.601562 10.800781 0.71875 10.800781 0.898438 L 10.800781 3.300781 C 10.800781 3.480469 10.679688 3.601562 10.5 3.601562 C 10.320312 3.601562 10.199219 3.480469 10.199219 3.300781 Z M 10.199219 3.300781 "/>
<path style=" stroke:none;fill-rule:nonzero;fill:rgb(63.921571%,71.764708%,80.000001%);fill-opacity:1;" d="M 6.898438 1.800781 L 6.898438 3.601562 L 6.601562 3.601562 C 6.238281 3.601562 6 3.359375 6 3 L 6 1.800781 Z M 6.898438 1.800781 "/>
<path style=" stroke:none;fill-rule:nonzero;fill:rgb(47.058824%,54.509807%,61.176473%);fill-opacity:1;" d="M 6.601562 3.300781 L 6.601562 0.898438 C 6.601562 0.71875 6.71875 0.601562 6.898438 0.601562 C 7.078125 0.601562 7.199219 0.71875 7.199219 0.898438 L 7.199219 3.300781 C 7.199219 3.480469 7.078125 3.601562 6.898438 3.601562 C 6.71875 3.601562 6.601562 3.480469 6.601562 3.300781 Z M 6.601562 3.300781 "/>
<path style=" stroke:none;fill-rule:nonzero;fill:rgb(83.92157%,89.019608%,92.941177%);fill-opacity:1;" d="M 20.398438 9.625 L 20.398438 3.898438 C 20.398438 3.164062 20.019531 2.519531 19.445312 2.144531 L 19.003906 2.585938 C 19.476562 2.839844 19.800781 3.328125 19.800781 3.898438 L 19.800781 10.222656 Z M 20.398438 9.625 "/>
<path style=" stroke:none;fill-rule:nonzero;fill:rgb(96.078432%,80.784315%,52.156866%);fill-opacity:1;" d="M 13.902344 14 L 10.6875 15.113281 L 11.804688 11.90625 L 12.386719 11.324219 L 14.480469 13.421875 Z M 13.902344 14 "/>
<path style=" stroke:none;fill-rule:nonzero;fill:rgb(58.823532%,47.843137%,26.666668%);fill-opacity:1;" d="M 11.175781 14.628906 L 12.066406 12.070312 L 12.386719 11.75 L 14.058594 13.421875 L 13.738281 13.738281 L 11.175781 14.628906 M 10.199219 15.601562 L 14.066406 14.261719 L 14.90625 13.421875 L 12.386719 10.902344 L 11.546875 11.742188 Z M 10.199219 15.601562 "/>
<path style=" stroke:none;fill-rule:nonzero;fill:rgb(21.176471%,25.098041%,30.19608%);fill-opacity:1;" d="M 12.222656 14.898438 L 10.902344 13.582031 L 10.199219 15.601562 Z M 12.222656 14.898438 "/>
<path style=" stroke:none;fill-rule:nonzero;fill:rgb(96.862745%,56.078434%,56.078434%);fill-opacity:1;" d="M 23.105469 4.183594 C 23.105469 4.578125 22.953125 4.949219 22.671875 5.230469 L 22.042969 5.859375 L 19.949219 3.761719 L 20.578125 3.132812 C 20.855469 2.855469 21.226562 2.699219 21.625 2.699219 C 22.019531 2.699219 22.390625 2.855469 22.671875 3.132812 C 22.953125 3.414062 23.105469 3.785156 23.105469 4.183594 Z M 23.105469 4.183594 "/>
<path style=" stroke:none;fill-rule:nonzero;fill:rgb(78.039217%,26.274511%,26.274511%);fill-opacity:1;" d="M 20.371094 3.761719 L 20.789062 3.347656 C 21.25 2.886719 22 2.886719 22.460938 3.347656 C 22.683594 3.570312 22.804688 3.867188 22.804688 4.183594 C 22.804688 4.496094 22.683594 4.792969 22.460938 5.019531 L 22.042969 5.433594 L 20.371094 3.761719 M 19.523438 3.761719 L 22.042969 6.28125 L 22.882812 5.441406 C 23.234375 5.09375 23.40625 4.636719 23.40625 4.183594 C 23.40625 3.726562 23.234375 3.269531 22.882812 2.921875 C 22.1875 2.226562 21.0625 2.226562 20.363281 2.921875 Z M 19.523438 3.761719 "/>
<path style=" stroke:none;fill-rule:nonzero;fill:rgb(100%,93.333334%,63.921571%);fill-opacity:1;" d="M 14.246094 13.652344 C 14.125 13.429688 13.902344 13.253906 13.550781 13.191406 C 13.441406 12.625 12.996094 12.371094 12.628906 12.28125 C 12.578125 12.019531 12.453125 11.847656 12.34375 11.746094 C 12.277344 11.679688 12.203125 11.628906 12.128906 11.585938 L 19.105469 4.605469 L 21.199219 6.699219 Z M 14.246094 13.652344 "/>
<path style=" stroke:none;fill-rule:nonzero;fill:rgb(72.941178%,60.784316%,28.235295%);fill-opacity:1;" d="M 12.582031 11.558594 L 19.105469 5.03125 L 20.777344 6.703125 L 14.269531 13.210938 C 14.140625 13.09375 13.984375 13.003906 13.792969 12.941406 C 13.632812 12.464844 13.253906 12.183594 12.875 12.046875 C 12.800781 11.828125 12.6875 11.667969 12.582031 11.558594 M 11.546875 11.746094 C 11.546875 11.746094 12.351562 11.714844 12.351562 12.546875 C 12.351562 12.546875 13.277344 12.574219 13.277344 13.46875 C 13.992188 13.46875 14.070312 13.949219 14.070312 14.160156 C 14.070312 14.222656 14.066406 14.261719 14.066406 14.261719 L 21.625 6.703125 L 19.105469 4.179688 Z M 11.546875 11.746094 "/>
<path style=" stroke:none;fill-rule:nonzero;fill:rgb(85.09804%,90.588236%,96.078432%);fill-opacity:1;" d="M 21.203125 6.695312 L 19.109375 4.601562 L 20.363281 3.347656 L 22.460938 5.441406 Z M 21.203125 6.695312 "/>
<path style=" stroke:none;fill-rule:nonzero;fill:rgb(47.058824%,54.509807%,61.176473%);fill-opacity:1;" d="M 19.53125 4.601562 L 20.363281 3.769531 L 22.035156 5.441406 L 21.203125 6.273438 L 19.53125 4.601562 M 18.683594 4.601562 L 21.203125 7.121094 L 22.882812 5.441406 L 20.363281 2.921875 Z M 18.683594 4.601562 "/>
</g>
</svg>
