<?xml version="1.0" encoding="UTF-8"?>
<svg xmlns="http://www.w3.org/2000/svg" xmlns:xlink="http://www.w3.org/1999/xlink" width="22.5pt" height="22.5pt" viewBox="0 0 22.5 22.5" version="1.1">
<g id="surface3298">
<path style=" stroke:none;fill-rule:nonzero;fill:rgb(54.509807%,71.764708%,94.117647%);fill-opacity:1;" d="M 11 21.175781 C 5.390625 21.175781 0.824219 16.609375 0.824219 11 C 0.824219 5.390625 5.390625 0.824219 11 0.824219 C 16.609375 0.824219 21.175781 5.390625 21.175781 11 C 21.175781 16.609375 16.609375 21.175781 11 21.175781 Z M 11 21.175781 "/>
<path style=" stroke:none;fill-rule:nonzero;fill:rgb(30.588236%,47.843137%,70.980394%);fill-opacity:1;" d="M 11 1.101562 C 16.457031 1.101562 20.898438 5.542969 20.898438 11 C 20.898438 16.457031 16.457031 20.898438 11 20.898438 C 5.542969 20.898438 1.101562 16.457031 1.101562 11 C 1.101562 5.542969 5.542969 1.101562 11 1.101562 M 11 0.550781 C 5.230469 0.550781 0.550781 5.230469 0.550781 11 C 0.550781 16.769531 5.230469 21.449219 11 21.449219 C 16.769531 21.449219 21.449219 16.769531 21.449219 11 C 21.449219 5.230469 16.769531 0.550781 11 0.550781 Z M 11 0.550781 "/>
<path style=" stroke:none;fill-rule:nonzero;fill:rgb(100%,100%,100%);fill-opacity:1;" d="M 11 15.398438 C 10.390625 15.398438 9.898438 15.890625 9.898438 16.5 C 9.898438 17.109375 10.390625 17.601562 11 17.601562 C 11.609375 17.601562 12.101562 17.109375 12.101562 16.5 C 12.101562 15.890625 11.609375 15.398438 11 15.398438 Z M 11 15.398438 "/>
<path style="fill:none;stroke-width:3;stroke-linecap:butt;stroke-linejoin:miter;stroke:rgb(100%,100%,100%);stroke-opacity:1;stroke-miterlimit:10;" d="M 15.497159 17.002841 L 15.497159 15 C 15.497159 12.514205 17.514205 10.497159 20 10.497159 C 22.485795 10.497159 24.502841 12.492898 24.502841 15 C 24.502841 19.694602 20 19.794034 20 23.99858 L 20 25.497159 " transform="matrix(0.55,0,0,0.55,0,0)"/>
</g>
</svg>
