<?xml version="1.0" encoding="UTF-8"?>
<svg xmlns="http://www.w3.org/2000/svg" xmlns:xlink="http://www.w3.org/1999/xlink" width="30pt" height="30pt" viewBox="0 0 30 30" version="1.1">
<g id="surface151">
<path style=" stroke:none;fill-rule:nonzero;fill:rgb(100%,100%,100%);fill-opacity:1;" d="M 1.125 3.375 L 28.875 3.375 L 28.875 26.625 L 1.125 26.625 Z M 1.125 3.375 "/>
<path style=" stroke:none;fill-rule:nonzero;fill:rgb(47.058824%,54.509807%,61.176473%);fill-opacity:1;" d="M 28.5 3.75 L 28.5 26.25 L 1.5 26.25 L 1.5 3.75 L 28.5 3.75 M 29.25 3 L 0.75 3 L 0.75 27 L 29.25 27 Z M 29.25 3 "/>
<path style=" stroke:none;fill-rule:nonzero;fill:rgb(70.980394%,87.058824%,100%);fill-opacity:1;" d="M 4.5 6.75 L 25.5 6.75 L 25.5 20.15625 L 4.5 20.15625 Z M 4.5 6.75 "/>
<path style=" stroke:none;fill-rule:nonzero;fill:rgb(85.09804%,96.470588%,100%);fill-opacity:1;" d="M 4.5 14.25 L 25.5 14.25 L 25.5 20.25 L 4.5 20.25 Z M 4.5 14.25 "/>
<path style=" stroke:none;fill-rule:nonzero;fill:rgb(47.843137%,67.843139%,94.117647%);fill-opacity:1;" d="M 4.5 20.25 L 25.5 20.25 L 25.5 23.25 L 4.5 23.25 Z M 4.5 20.25 "/>
<path style=" stroke:none;fill-rule:nonzero;fill:rgb(85.09804%,96.470588%,100%);fill-opacity:1;" d="M 11.0625 11.25 C 9.613281 11.25 8.4375 12.304688 8.4375 13.605469 C 8.4375 14.910156 9.613281 15.964844 11.0625 15.964844 C 12.511719 15.964844 13.6875 14.910156 13.6875 13.605469 C 13.6875 12.304688 12.511719 11.25 11.0625 11.25 Z M 11.0625 11.25 "/>
<path style=" stroke:none;fill-rule:nonzero;fill:rgb(85.09804%,96.470588%,100%);fill-opacity:1;" d="M 8.4375 11.839844 C 7.351562 11.839844 6.46875 12.632812 6.46875 13.605469 C 6.46875 14.582031 7.351562 15.375 8.4375 15.375 C 9.523438 15.375 10.40625 14.582031 10.40625 13.605469 C 10.40625 12.632812 9.523438 11.839844 8.4375 11.839844 Z M 15 12.429688 C 13.550781 12.429688 12.375 13.484375 12.375 14.785156 C 12.375 16.085938 13.550781 17.144531 15 17.144531 C 16.449219 17.144531 17.625 16.085938 17.625 14.785156 C 17.625 13.484375 16.449219 12.429688 15 12.429688 Z M 15 12.429688 "/>
<path style=" stroke:none;fill-rule:nonzero;fill:rgb(85.09804%,96.470588%,100%);fill-opacity:1;" d="M 18.9375 11.25 C 17.488281 11.25 16.3125 12.304688 16.3125 13.605469 C 16.3125 14.910156 17.488281 15.964844 18.9375 15.964844 C 20.386719 15.964844 21.5625 14.910156 21.5625 13.605469 C 21.5625 12.304688 20.386719 11.25 18.9375 11.25 Z M 24.1875 12.429688 C 23.460938 12.429688 22.875 12.957031 22.875 13.605469 C 22.875 14.257812 23.460938 14.785156 24.1875 14.785156 C 24.914062 14.785156 25.5 14.257812 25.5 13.605469 C 25.5 12.957031 24.914062 12.429688 24.1875 12.429688 Z M 5.8125 12.429688 C 5.085938 12.429688 4.5 12.957031 4.5 13.605469 C 4.5 14.257812 5.085938 14.785156 5.8125 14.785156 C 6.539062 14.785156 7.125 14.257812 7.125 13.605469 C 7.125 12.957031 6.539062 12.429688 5.8125 12.429688 Z M 5.8125 12.429688 "/>
<path style=" stroke:none;fill-rule:nonzero;fill:rgb(85.09804%,96.470588%,100%);fill-opacity:1;" d="M 21.5625 11.839844 C 20.476562 11.839844 19.59375 12.632812 19.59375 13.605469 C 19.59375 14.582031 20.476562 15.375 21.5625 15.375 C 22.648438 15.375 23.53125 14.582031 23.53125 13.605469 C 23.53125 12.632812 22.648438 11.839844 21.5625 11.839844 Z M 21.5625 11.839844 "/>
<path style=" stroke:none;fill-rule:nonzero;fill:rgb(29.019609%,42.745098%,61.176473%);fill-opacity:1;" d="M 4.5 20.25 L 25.5 20.25 L 25.5 19.039062 L 18.9375 15 Z M 4.5 20.25 "/>
<path style=" stroke:none;fill-rule:nonzero;fill:rgb(36.470589%,51.764709%,72.156864%);fill-opacity:1;" d="M 20.25 20.25 L 4.5 20.25 L 4.5 17.25 L 11.0625 14.25 Z M 20.25 20.25 "/>
</g>
</svg>
