<?xml version="1.0" encoding="UTF-8"?>
<svg xmlns="http://www.w3.org/2000/svg" xmlns:xlink="http://www.w3.org/1999/xlink" width="30pt" height="30pt" viewBox="0 0 30 30" version="1.1">
<g id="surface5351">
<path style=" stroke:none;fill-rule:nonzero;fill:rgb(100%,100%,100%);fill-opacity:1;" d="M 5.5 27.5 L 5.5 2.5 L 18.792969 2.5 L 24.5 8.207031 L 24.5 27.5 Z M 5.5 27.5 "/>
<path style=" stroke:none;fill-rule:nonzero;fill:rgb(47.058824%,54.509807%,61.176473%);fill-opacity:1;" d="M 18.585938 3 L 24 8.414062 L 24 27 L 6 27 L 6 3 L 18.585938 3 M 19 2 L 5 2 L 5 28 L 25 28 L 25 8 Z M 19 2 "/>
<path style=" stroke:none;fill-rule:nonzero;fill:rgb(100%,100%,100%);fill-opacity:1;" d="M 18.5 8.5 L 18.5 2.5 L 18.792969 2.5 L 24.5 8.207031 L 24.5 8.5 Z M 18.5 8.5 "/>
<path style=" stroke:none;fill-rule:nonzero;fill:rgb(47.058824%,54.509807%,61.176473%);fill-opacity:1;" d="M 19 3.414062 L 23.585938 8 L 19 8 L 19 3.414062 M 19 2 L 18 2 L 18 9 L 25 9 L 25 8 Z M 19 2 "/>
<path style=" stroke:none;fill-rule:nonzero;fill:rgb(83.92157%,89.019608%,92.941177%);fill-opacity:1;" d="M 24.734375 14.5625 L 24 13.851562 L 24 27 L 15.878906 27 L 17.011719 27.601562 L 17.082031 28 L 25 28 L 25 14.820312 Z M 24.734375 14.5625 "/>
<path style=" stroke:none;fill-rule:nonzero;fill:rgb(100%,93.333334%,63.921571%);fill-opacity:1;" d="M 21.785156 27.796875 L 19.636719 28.101562 L 19.261719 25.964844 L 17.347656 24.949219 L 18.300781 23 L 17.347656 21.050781 L 19.261719 20.035156 L 19.636719 17.898438 L 21.785156 18.203125 L 23.34375 16.695312 L 24.902344 18.203125 L 27.046875 17.898438 L 27.421875 20.035156 L 29.339844 21.050781 L 28.386719 23 L 29.339844 24.949219 L 27.421875 25.964844 L 27.046875 28.101562 L 24.902344 27.796875 L 23.34375 29.304688 Z M 21.785156 27.796875 "/>
<path style=" stroke:none;fill-rule:nonzero;fill:rgb(72.941178%,60.784316%,28.235295%);fill-opacity:1;" d="M 23.34375 17.390625 L 24.378906 18.394531 L 24.726562 18.734375 L 25.210938 18.664062 L 26.636719 18.460938 L 26.886719 19.882812 L 26.972656 20.363281 L 27.402344 20.589844 L 28.675781 21.265625 L 28.042969 22.558594 L 27.828125 23 L 28.042969 23.4375 L 28.675781 24.734375 L 27.402344 25.410156 L 26.972656 25.636719 L 26.886719 26.117188 L 26.640625 27.539062 L 25.214844 27.335938 L 24.730469 27.265625 L 24.378906 27.605469 L 23.34375 28.609375 L 22.308594 27.605469 L 21.957031 27.265625 L 21.472656 27.335938 L 20.046875 27.535156 L 19.796875 26.117188 L 19.714844 25.636719 L 19.28125 25.40625 L 18.011719 24.734375 L 18.644531 23.4375 L 18.855469 23 L 18.640625 22.5625 L 18.007812 21.265625 L 19.28125 20.589844 L 19.710938 20.363281 L 19.796875 19.882812 L 20.046875 18.464844 L 21.472656 18.664062 L 21.953125 18.734375 L 22.304688 18.394531 L 23.34375 17.390625 M 23.34375 16 L 21.609375 17.675781 L 19.226562 17.335938 L 18.8125 19.707031 L 16.683594 20.835938 L 17.742188 23 L 16.683594 25.164062 L 18.8125 26.292969 L 19.226562 28.664062 L 21.609375 28.324219 L 23.34375 30 L 25.074219 28.324219 L 27.457031 28.664062 L 27.871094 26.292969 L 30 25.164062 L 28.941406 23 L 30 20.835938 L 27.871094 19.707031 L 27.457031 17.335938 L 25.074219 17.675781 Z M 23.34375 16 "/>
</g>
</svg>
