<?xml version="1.0" encoding="UTF-8"?>
<svg xmlns="http://www.w3.org/2000/svg" xmlns:xlink="http://www.w3.org/1999/xlink" width="24pt" height="24pt" viewBox="0 0 24 24" version="1.1">
<g id="surface24295">
<path style=" stroke:none;fill-rule:nonzero;fill:rgb(100%,100%,100%);fill-opacity:1;" d="M 3.898438 22.5 L 3.898438 1.5 L 14.875 1.5 L 20.101562 6.722656 L 20.101562 18.003906 C 20.101562 20.484375 18.082031 22.5 15.605469 22.5 Z M 3.898438 22.5 "/>
<path style=" stroke:none;fill-rule:nonzero;fill:rgb(47.058824%,54.509807%,61.176473%);fill-opacity:1;" d="M 14.75 1.800781 L 19.800781 6.847656 L 19.800781 18.003906 C 19.800781 20.316406 17.917969 22.199219 15.605469 22.199219 L 4.199219 22.199219 L 4.199219 1.800781 L 14.75 1.800781 M 15 1.199219 L 3.601562 1.199219 L 3.601562 22.800781 L 15.605469 22.800781 C 18.253906 22.800781 20.398438 20.652344 20.398438 18.003906 L 20.398438 6.601562 Z M 15 1.199219 "/>
<path style=" stroke:none;fill-rule:nonzero;fill:rgb(100%,100%,100%);fill-opacity:1;" d="M 14.699219 6.898438 L 14.699219 1.5 L 14.875 1.5 L 20.101562 6.722656 L 20.101562 6.898438 Z M 14.699219 6.898438 "/>
<path style=" stroke:none;fill-rule:nonzero;fill:rgb(47.058824%,54.509807%,61.176473%);fill-opacity:1;" d="M 15 2.046875 L 19.550781 6.601562 L 15 6.601562 L 15 2.046875 M 15 1.199219 L 14.398438 1.199219 L 14.398438 7.199219 L 20.398438 7.199219 L 20.398438 6.601562 Z M 15 1.199219 "/>
<path style=" stroke:none;fill-rule:nonzero;fill:rgb(83.92157%,89.019608%,92.941177%);fill-opacity:1;" d="M 19.800781 12.632812 L 19.800781 15.601562 L 20.398438 15.601562 L 20.398438 13.214844 Z M 14.132812 22.199219 L 14.238281 22.800781 L 16.199219 22.800781 L 16.199219 22.199219 Z M 14.132812 22.199219 "/>
<path style=" stroke:none;fill-rule:nonzero;fill:rgb(100%,93.333334%,63.921571%);fill-opacity:1;" d="M 17.425781 22.390625 L 15.730469 22.628906 L 15.433594 20.941406 L 13.921875 20.140625 L 14.671875 18.601562 L 13.921875 17.058594 L 15.433594 16.257812 L 15.730469 14.570312 L 17.425781 14.808594 L 18.660156 13.617188 L 19.890625 14.808594 L 21.585938 14.570312 L 21.882812 16.257812 L 23.398438 17.058594 L 22.644531 18.601562 L 23.398438 20.140625 L 21.882812 20.941406 L 21.585938 22.628906 L 19.890625 22.390625 L 18.660156 23.582031 Z M 17.425781 22.390625 "/>
<path style=" stroke:none;fill-rule:nonzero;fill:rgb(72.941178%,60.784316%,28.235295%);fill-opacity:1;" d="M 18.660156 14.035156 L 19.578125 14.921875 L 19.789062 15.125 L 20.078125 15.085938 L 21.34375 14.90625 L 21.5625 16.164062 L 21.613281 16.453125 L 21.871094 16.589844 L 23 17.1875 L 22.4375 18.335938 L 22.3125 18.601562 L 22.441406 18.863281 L 23 20.011719 L 21.871094 20.609375 L 21.613281 20.746094 L 21.5625 21.035156 L 21.34375 22.292969 L 20.078125 22.113281 L 19.789062 22.074219 L 19.578125 22.277344 L 18.660156 23.164062 L 17.742188 22.277344 L 17.53125 22.074219 L 17.242188 22.113281 L 15.976562 22.292969 L 15.753906 21.035156 L 15.703125 20.746094 L 15.445312 20.609375 L 14.316406 20.011719 L 14.878906 18.863281 L 15.007812 18.601562 L 14.878906 18.335938 L 14.316406 17.1875 L 15.445312 16.589844 L 15.703125 16.453125 L 15.753906 16.164062 L 15.976562 14.90625 L 17.238281 15.085938 L 17.53125 15.128906 L 17.738281 14.921875 L 18.660156 14.035156 M 18.660156 13.199219 L 17.324219 14.492188 L 15.484375 14.230469 L 15.164062 16.058594 L 13.523438 16.929688 L 14.339844 18.601562 L 13.523438 20.269531 L 15.164062 21.140625 L 15.484375 22.96875 L 17.324219 22.707031 L 18.660156 24 L 19.992188 22.707031 L 21.832031 22.96875 L 22.152344 21.140625 L 23.792969 20.269531 L 22.980469 18.601562 L 23.792969 16.929688 L 22.152344 16.0625 L 21.832031 14.230469 L 19.992188 14.492188 Z M 18.660156 13.199219 "/>
</g>
</svg>
