<?xml version="1.0" encoding="UTF-8"?>
<svg xmlns="http://www.w3.org/2000/svg" xmlns:xlink="http://www.w3.org/1999/xlink" width="24pt" height="24pt" viewBox="0 0 24 24" version="1.1">
<g id="surface35956">
<path style=" stroke:none;fill-rule:nonzero;fill:rgb(85.882354%,69.01961%,39.607844%);fill-opacity:1;" d="M 0.898438 21.300781 L 0.898438 2.699219 L 7.074219 2.699219 L 8.875 4.5 L 21.300781 4.5 L 21.300781 21.300781 Z M 0.898438 21.300781 "/>
<path style=" stroke:none;fill-rule:nonzero;fill:rgb(58.823532%,47.843137%,26.666668%);fill-opacity:1;" d="M 6.953125 3 L 8.574219 4.625 L 8.75 4.800781 L 21 4.800781 L 21 21 L 1.199219 21 L 1.199219 3 L 6.953125 3 M 7.199219 2.398438 L 0.601562 2.398438 L 0.601562 21.601562 L 21.601562 21.601562 L 21.601562 4.199219 L 9 4.199219 Z M 7.199219 2.398438 "/>
<path style=" stroke:none;fill-rule:nonzero;fill:rgb(96.078432%,80.784315%,52.156866%);fill-opacity:1;" d="M 0.960938 21.300781 L 3.25 8.699219 L 9.691406 8.699219 L 11.492188 7.5 L 23.644531 7.5 L 21.347656 21.300781 Z M 0.960938 21.300781 "/>
<path style=" stroke:none;fill-rule:nonzero;fill:rgb(58.823532%,47.843137%,26.666668%);fill-opacity:1;" d="M 23.292969 7.800781 L 21.09375 21 L 1.320312 21 L 3.5 9 L 9.78125 9 L 9.933594 8.898438 L 11.582031 7.800781 L 23.292969 7.800781 M 24 7.199219 L 11.398438 7.199219 L 9.601562 8.398438 L 3 8.398438 L 0.601562 21.601562 L 21.601562 21.601562 Z M 24 7.199219 "/>
</g>
</svg>
