<?xml version="1.0" encoding="UTF-8"?>
<svg xmlns="http://www.w3.org/2000/svg" xmlns:xlink="http://www.w3.org/1999/xlink" width="13.5pt" height="13.5pt" viewBox="0 0 13.5 13.5" version="1.1">
<g id="surface3107">
<path style=" stroke:none;fill-rule:nonzero;fill:rgb(85.882354%,69.01961%,39.607844%);fill-opacity:1;" d="M 0.488281 11.539062 L 0.488281 1.460938 L 3.832031 1.460938 L 4.808594 2.4375 L 11.539062 2.4375 L 11.539062 11.539062 Z M 0.488281 11.539062 "/>
<path style=" stroke:none;fill-rule:nonzero;fill:rgb(58.823532%,47.843137%,26.666668%);fill-opacity:1;" d="M 3.765625 1.625 L 4.742188 2.601562 L 11.375 2.601562 L 11.375 11.375 L 0.648438 11.375 L 0.648438 1.625 L 3.765625 1.625 M 3.898438 1.300781 L 0.324219 1.300781 L 0.324219 11.699219 L 11.699219 11.699219 L 11.699219 2.273438 L 4.875 2.273438 Z M 3.898438 1.300781 "/>
<path style=" stroke:none;fill-rule:nonzero;fill:rgb(96.078432%,80.784315%,52.156866%);fill-opacity:1;" d="M 0.519531 11.539062 L 1.761719 4.710938 L 5.25 4.710938 L 6.222656 4.0625 L 12.808594 4.0625 L 11.5625 11.539062 Z M 0.519531 11.539062 "/>
<path style=" stroke:none;fill-rule:nonzero;fill:rgb(58.823532%,47.843137%,26.666668%);fill-opacity:1;" d="M 12.617188 4.226562 L 11.425781 11.375 L 0.714844 11.375 L 1.894531 4.875 L 5.296875 4.875 L 5.378906 4.820312 L 6.273438 4.226562 L 12.617188 4.226562 M 13 3.898438 L 6.175781 3.898438 L 5.199219 4.550781 L 1.625 4.550781 L 0.324219 11.699219 L 11.699219 11.699219 Z M 13 3.898438 "/>
</g>
</svg>
