<?xml version="1.0" encoding="UTF-8"?>
<svg xmlns="http://www.w3.org/2000/svg" xmlns:xlink="http://www.w3.org/1999/xlink" width="12pt" height="12pt" viewBox="0 0 12 12" version="1.1">
<g id="surface2405">
<path style=" stroke:none;fill-rule:nonzero;fill:rgb(85.882354%,69.01961%,39.607844%);fill-opacity:1;" d="M 0.375 10.875 L 0.375 1.125 L 3.59375 1.125 L 5.09375 2.625 L 10.875 2.625 L 10.875 10.875 Z M 0.375 10.875 "/>
<path style=" stroke:none;fill-rule:nonzero;fill:rgb(58.823532%,47.843137%,26.666668%);fill-opacity:1;" d="M 3.441406 1.5 L 4.71875 2.78125 L 4.941406 3 L 10.5 3 L 10.5 10.5 L 0.75 10.5 L 0.75 1.5 L 3.441406 1.5 M 3.75 0.75 L 0 0.75 L 0 11.25 L 11.25 11.25 L 11.25 2.25 L 5.25 2.25 Z M 3.75 0.75 "/>
<path style=" stroke:none;fill-rule:nonzero;fill:rgb(96.078432%,80.784315%,52.156866%);fill-opacity:1;" d="M 0.425781 10.875 L 1.082031 5.625 L 4.589844 5.625 L 6.089844 4.875 L 11.582031 4.875 L 10.914062 10.875 Z M 0.425781 10.875 "/>
<path style=" stroke:none;fill-rule:nonzero;fill:rgb(58.823532%,47.843137%,26.666668%);fill-opacity:1;" d="M 11.164062 5.25 L 10.578125 10.5 L 0.851562 10.5 L 1.414062 6 L 4.675781 6 L 4.835938 5.921875 L 6.175781 5.25 L 11.164062 5.25 M 12 4.5 L 6 4.5 L 4.5 5.25 L 0.75 5.25 L 0 11.25 L 11.25 11.25 Z M 12 4.5 "/>
</g>
</svg>
