<svg xmlns="http://www.w3.org/2000/svg"  viewBox="0 0 40 40" width="40px" height="40px"><path fill="#f78f8f" d="M20,38.5C9.799,38.5,1.5,30.201,1.5,20S9.799,1.5,20,1.5S38.5,9.799,38.5,20S30.201,38.5,20,38.5z M20,4.5C11.453,4.5,4.5,11.453,4.5,20S11.453,35.5,20,35.5S35.5,28.547,35.5,20S28.547,4.5,20,4.5z"/><path fill="#c74343" d="M20,2c9.925,0,18,8.075,18,18s-8.075,18-18,18S2,29.925,2,20S10.075,2,20,2 M20,36 c8.822,0,16-7.178,16-16S28.822,4,20,4S4,11.178,4,20S11.178,36,20,36 M20,1C9.507,1,1,9.507,1,20s8.507,19,19,19s19-8.507,19-19 S30.493,1,20,1L20,1z M20,35c-8.284,0-15-6.716-15-15c0-8.284,6.716-15,15-15s15,6.716,15,15C35,28.284,28.284,35,20,35L20,35z"/><path fill="#fff" d="M1.687,15c0.487-1.786,1.225-3.464,2.179-5h4.976C11.588,6.938,15.563,5,20,5c8.284,0,15,6.716,15,15	c0,8.284-6.716,15-15,15S5,28.284,5,20c0-1.756,0.317-3.434,0.872-5H1.687z"/><path fill="none" stroke="#66798f" stroke-linecap="round" stroke-miterlimit="10" stroke-width="2" d="M26.995 9.665L20 20 25.846 25.846"/><path fill="#66798f" d="M20 18.5A1.5 1.5 0 1 0 20 21.5A1.5 1.5 0 1 0 20 18.5Z"/><path fill="#c5d4de" d="M20 6A1 1 0 1 0 20 8 1 1 0 1 0 20 6zM20 32A1 1 0 1 0 20 34 1 1 0 1 0 20 32zM33 19A1 1 0 1 0 33 21 1 1 0 1 0 33 19zM7 19A1 1 0 1 0 7 21 1 1 0 1 0 7 19z"/><path fill="#f78f8f" d="M4.214 12.357L4.214 4.564 12.007 12.357z"/><path fill="#c74343" d="M4.714,5.771l6.086,6.086H4.714V5.771 M3.714,3.357v9.5h9.5L3.714,3.357L3.714,3.357z"/><path fill="none" stroke="#f78f8f" stroke-miterlimit="10" stroke-width="2" d="M9.504,6.626C8.541,7.383,7.661,8.242,6.882,9.186"/></svg>