<?xml version="1.0" encoding="UTF-8"?>
<svg xmlns="http://www.w3.org/2000/svg" xmlns:xlink="http://www.w3.org/1999/xlink" width="22.5pt" height="22.5pt" viewBox="0 0 22.5 22.5" version="1.1">
<g id="surface2704">
<path style=" stroke:none;fill-rule:nonzero;fill:rgb(86.274511%,83.529413%,94.901961%);fill-opacity:1;" d="M 1.375 20.625 L 1.375 1.375 L 16.21875 1.375 L 20.625 5.785156 L 20.625 20.625 Z M 1.375 20.625 "/>
<path style=" stroke:none;fill-rule:nonzero;fill:rgb(54.509807%,45.882353%,63.137257%);fill-opacity:1;" d="M 16.101562 1.648438 L 20.351562 5.898438 L 20.351562 20.351562 L 1.648438 20.351562 L 1.648438 1.648438 L 16.101562 1.648438 M 16.332031 1.101562 L 1.101562 1.101562 L 1.101562 20.898438 L 20.898438 20.898438 L 20.898438 5.667969 Z M 16.332031 1.101562 "/>
<path style=" stroke:none;fill-rule:nonzero;fill:rgb(100%,100%,100%);fill-opacity:1;" d="M 3.574219 10.726562 L 18.425781 10.726562 L 18.425781 20.625 L 3.574219 20.625 Z M 3.574219 10.726562 "/>
<path style=" stroke:none;fill-rule:nonzero;fill:rgb(47.058824%,54.509807%,61.176473%);fill-opacity:1;" d="M 18.148438 11 L 18.148438 20.351562 L 3.851562 20.351562 L 3.851562 11 L 18.148438 11 M 18.699219 10.449219 L 3.300781 10.449219 L 3.300781 20.898438 L 18.699219 20.898438 Z M 18.699219 10.449219 "/>
<path style=" stroke:none;fill-rule:nonzero;fill:rgb(54.509807%,45.882353%,63.137257%);fill-opacity:1;" d="M 14.851562 1.101562 L 4.949219 1.101562 L 4.949219 6.601562 C 4.949219 7.207031 5.441406 7.699219 6.050781 7.699219 L 14.851562 7.699219 Z M 14.851562 1.101562 "/>
<path style=" stroke:none;fill-rule:nonzero;fill:rgb(78.431374%,81.960785%,85.882354%);fill-opacity:1;" d="M 7.699219 7.425781 C 7.246094 7.425781 6.875 7.054688 6.875 6.601562 L 6.875 2.199219 C 6.875 1.746094 7.246094 1.375 7.699219 1.375 L 15.398438 1.375 C 15.855469 1.375 16.226562 1.746094 16.226562 2.199219 L 16.226562 6.601562 C 16.226562 7.054688 15.855469 7.425781 15.398438 7.425781 Z M 7.699219 7.425781 "/>
<path style=" stroke:none;fill-rule:nonzero;fill:rgb(40.000001%,47.450981%,56.078434%);fill-opacity:1;" d="M 15.398438 1.648438 C 15.703125 1.648438 15.949219 1.898438 15.949219 2.199219 L 15.949219 6.601562 C 15.949219 6.902344 15.703125 7.148438 15.398438 7.148438 L 7.699219 7.148438 C 7.398438 7.148438 7.148438 6.902344 7.148438 6.601562 L 7.148438 2.199219 C 7.148438 1.898438 7.398438 1.648438 7.699219 1.648438 L 15.398438 1.648438 M 15.398438 1.101562 L 7.699219 1.101562 C 7.09375 1.101562 6.601562 1.59375 6.601562 2.199219 L 6.601562 6.601562 C 6.601562 7.207031 7.09375 7.699219 7.699219 7.699219 L 15.398438 7.699219 C 16.007812 7.699219 16.5 7.207031 16.5 6.601562 L 16.5 2.199219 C 16.5 1.59375 16.007812 1.101562 15.398438 1.101562 Z M 15.398438 1.101562 "/>
<path style=" stroke:none;fill-rule:nonzero;fill:rgb(76.078433%,90.980393%,100%);fill-opacity:1;" d="M 5.5 13.199219 L 16.5 13.199219 L 16.5 13.75 L 5.5 13.75 Z M 5.5 15.398438 L 16.5 15.398438 L 16.5 15.949219 L 5.5 15.949219 Z M 5.5 17.601562 L 16.5 17.601562 L 16.5 18.148438 L 5.5 18.148438 Z M 5.5 17.601562 "/>
<path style=" stroke:none;fill-rule:nonzero;fill:rgb(40.000001%,47.450981%,56.078434%);fill-opacity:1;" d="M 12.648438 2.75 L 14.300781 2.75 L 14.300781 6.050781 L 12.648438 6.050781 Z M 12.648438 2.75 "/>
<path style=" stroke:none;fill-rule:nonzero;fill:rgb(96.078432%,80.784315%,52.156866%);fill-opacity:1;" d="M 11.761719 13.957031 L 12.738281 12.976562 L 14.652344 14.640625 L 13.554688 15.742188 L 10.421875 17.078125 Z M 11.761719 13.957031 "/>
<path style=" stroke:none;fill-rule:nonzero;fill:rgb(58.823532%,47.843137%,26.666668%);fill-opacity:1;" d="M 12.753906 13.351562 L 14.25 14.65625 L 13.398438 15.507812 L 10.945312 16.554688 L 11.992188 14.113281 L 12.753906 13.351562 M 12.726562 12.601562 L 11.527344 13.800781 L 9.898438 17.601562 L 13.710938 15.972656 L 15.054688 14.628906 Z M 12.726562 12.601562 "/>
<path style=" stroke:none;fill-rule:nonzero;fill:rgb(21.176471%,25.098041%,30.19608%);fill-opacity:1;" d="M 10.824219 15.445312 L 9.902344 17.601562 L 12.0625 16.679688 Z M 10.824219 15.445312 "/>
<path style=" stroke:none;fill-rule:nonzero;fill:rgb(96.862745%,56.078434%,56.078434%);fill-opacity:1;" d="M 19.046875 6.664062 L 19.566406 6.144531 C 19.804688 5.90625 20.121094 5.773438 20.460938 5.773438 C 20.796875 5.773438 21.113281 5.90625 21.355469 6.144531 C 21.847656 6.636719 21.847656 7.441406 21.355469 7.933594 L 20.835938 8.453125 Z M 19.046875 6.664062 "/>
<path style=" stroke:none;fill-rule:nonzero;fill:rgb(78.039217%,26.274511%,26.274511%);fill-opacity:1;" d="M 20.460938 6.050781 C 20.722656 6.050781 20.972656 6.152344 21.160156 6.339844 C 21.546875 6.726562 21.546875 7.355469 21.160156 7.738281 L 20.835938 8.0625 L 19.4375 6.664062 L 19.761719 6.339844 C 19.945312 6.152344 20.195312 6.050781 20.460938 6.050781 M 20.460938 5.5 C 20.066406 5.5 19.671875 5.648438 19.371094 5.949219 L 18.65625 6.664062 L 20.835938 8.84375 L 21.550781 8.128906 C 22.152344 7.527344 22.152344 6.550781 21.550781 5.949219 C 21.25 5.648438 20.855469 5.5 20.460938 5.5 Z M 20.460938 5.5 "/>
<path style=" stroke:none;fill-rule:nonzero;fill:rgb(100%,93.333334%,63.921571%);fill-opacity:1;" d="M 13.871094 15.425781 C 13.847656 15.390625 13.824219 15.355469 13.792969 15.320312 C 13.667969 15.171875 13.492188 15.078125 13.273438 15.039062 C 13.175781 14.578125 12.8125 14.335938 12.476562 14.253906 C 12.417969 13.972656 12.257812 13.777344 12.054688 13.660156 L 18.136719 7.574219 L 19.925781 9.363281 Z M 13.871094 15.425781 "/>
<path style=" stroke:none;fill-rule:nonzero;fill:rgb(72.941178%,60.784316%,28.235295%);fill-opacity:1;" d="M 18.136719 7.964844 L 19.535156 9.363281 L 13.882812 15.023438 C 13.789062 14.941406 13.660156 14.863281 13.496094 14.8125 C 13.351562 14.402344 13.03125 14.15625 12.703125 14.035156 C 12.648438 13.878906 12.570312 13.746094 12.46875 13.636719 L 18.136719 7.964844 M 18.136719 7.1875 L 11.527344 13.800781 C 11.527344 13.800781 11.53125 13.800781 11.535156 13.800781 C 11.617188 13.800781 12.226562 13.820312 12.226562 14.492188 C 12.226562 14.492188 13.023438 14.519531 13.023438 15.292969 C 13.820312 15.292969 13.710938 15.972656 13.710938 15.972656 L 20.3125 9.367188 Z M 18.136719 7.1875 "/>
<path style=" stroke:none;fill-rule:nonzero;fill:rgb(85.09804%,90.588236%,96.078432%);fill-opacity:1;" d="M 17.851562 7.859375 L 19.195312 6.515625 L 20.984375 8.308594 L 19.640625 9.652344 Z M 17.851562 7.859375 "/>
<path style=" stroke:none;fill-rule:nonzero;fill:rgb(47.058824%,54.509807%,61.176473%);fill-opacity:1;" d="M 19.195312 6.90625 L 20.59375 8.304688 L 19.640625 9.261719 L 18.238281 7.859375 L 19.195312 6.90625 M 19.195312 6.128906 L 17.460938 7.859375 L 19.640625 10.039062 L 21.371094 8.304688 Z M 19.195312 6.128906 "/>
</g>
</svg>
