<?xml version="1.0" encoding="UTF-8"?>
<svg xmlns="http://www.w3.org/2000/svg" xmlns:xlink="http://www.w3.org/1999/xlink" width="24pt" height="24pt" viewBox="0 0 24 24" version="1.1">
<g id="surface12250">
<path style=" stroke:none;fill-rule:nonzero;fill:rgb(86.274511%,83.529413%,94.901961%);fill-opacity:1;" d="M 1.5 22.5 L 1.5 1.5 L 17.691406 1.5 L 22.5 6.308594 L 22.5 22.5 Z M 1.5 22.5 "/>
<path style=" stroke:none;fill-rule:nonzero;fill:rgb(54.509807%,45.882353%,63.137257%);fill-opacity:1;" d="M 17.566406 1.800781 L 22.199219 6.433594 L 22.199219 22.199219 L 1.800781 22.199219 L 1.800781 1.800781 L 17.566406 1.800781 M 17.816406 1.199219 L 1.199219 1.199219 L 1.199219 22.800781 L 22.800781 22.800781 L 22.800781 6.183594 Z M 17.816406 1.199219 "/>
<path style=" stroke:none;fill-rule:nonzero;fill:rgb(100%,100%,100%);fill-opacity:1;" d="M 3.898438 11.699219 L 20.101562 11.699219 L 20.101562 22.5 L 3.898438 22.5 Z M 3.898438 11.699219 "/>
<path style=" stroke:none;fill-rule:nonzero;fill:rgb(47.058824%,54.509807%,61.176473%);fill-opacity:1;" d="M 19.800781 12 L 19.800781 22.199219 L 4.199219 22.199219 L 4.199219 12 L 19.800781 12 M 20.398438 11.398438 L 3.601562 11.398438 L 3.601562 22.800781 L 20.398438 22.800781 Z M 20.398438 11.398438 "/>
<path style=" stroke:none;fill-rule:nonzero;fill:rgb(54.509807%,45.882353%,63.137257%);fill-opacity:1;" d="M 16.199219 1.199219 L 5.398438 1.199219 L 5.398438 7.199219 C 5.398438 7.863281 5.9375 8.398438 6.601562 8.398438 L 16.199219 8.398438 Z M 16.199219 1.199219 "/>
<path style=" stroke:none;fill-rule:nonzero;fill:rgb(78.431374%,81.960785%,85.882354%);fill-opacity:1;" d="M 8.398438 8.101562 C 7.902344 8.101562 7.5 7.695312 7.5 7.199219 L 7.5 2.398438 C 7.5 1.902344 7.902344 1.5 8.398438 1.5 L 16.800781 1.5 C 17.296875 1.5 17.699219 1.902344 17.699219 2.398438 L 17.699219 7.199219 C 17.699219 7.695312 17.296875 8.101562 16.800781 8.101562 Z M 8.398438 8.101562 "/>
<path style=" stroke:none;fill-rule:nonzero;fill:rgb(40.000001%,47.450981%,56.078434%);fill-opacity:1;" d="M 16.800781 1.800781 C 17.128906 1.800781 17.398438 2.070312 17.398438 2.398438 L 17.398438 7.199219 C 17.398438 7.53125 17.128906 7.800781 16.800781 7.800781 L 8.398438 7.800781 C 8.070312 7.800781 7.800781 7.53125 7.800781 7.199219 L 7.800781 2.398438 C 7.800781 2.070312 8.070312 1.800781 8.398438 1.800781 L 16.800781 1.800781 M 16.800781 1.199219 L 8.398438 1.199219 C 7.738281 1.199219 7.199219 1.738281 7.199219 2.398438 L 7.199219 7.199219 C 7.199219 7.863281 7.738281 8.398438 8.398438 8.398438 L 16.800781 8.398438 C 17.464844 8.398438 18 7.863281 18 7.199219 L 18 2.398438 C 18 1.738281 17.464844 1.199219 16.800781 1.199219 Z M 16.800781 1.199219 "/>
<path style=" stroke:none;fill-rule:nonzero;fill:rgb(76.078433%,90.980393%,100%);fill-opacity:1;" d="M 6 14.398438 L 18 14.398438 L 18 15 L 6 15 Z M 6 16.800781 L 18 16.800781 L 18 17.398438 L 6 17.398438 Z M 6 19.199219 L 18 19.199219 L 18 19.800781 L 6 19.800781 Z M 6 19.199219 "/>
<path style=" stroke:none;fill-rule:nonzero;fill:rgb(40.000001%,47.450981%,56.078434%);fill-opacity:1;" d="M 13.800781 3 L 15.601562 3 L 15.601562 6.601562 L 13.800781 6.601562 Z M 13.800781 3 "/>
<path style=" stroke:none;fill-rule:nonzero;fill:rgb(96.078432%,80.784315%,52.156866%);fill-opacity:1;" d="M 12.828125 15.222656 L 13.898438 14.15625 L 15.984375 15.972656 L 14.785156 17.171875 L 11.371094 18.628906 Z M 12.828125 15.222656 "/>
<path style=" stroke:none;fill-rule:nonzero;fill:rgb(58.823532%,47.843137%,26.666668%);fill-opacity:1;" d="M 13.914062 14.566406 L 15.546875 15.988281 L 14.617188 16.917969 L 11.941406 18.058594 L 13.082031 15.394531 L 13.914062 14.566406 M 13.882812 13.746094 L 12.578125 15.054688 L 10.800781 19.199219 L 14.957031 17.425781 L 16.425781 15.957031 Z M 13.882812 13.746094 "/>
<path style=" stroke:none;fill-rule:nonzero;fill:rgb(21.176471%,25.098041%,30.19608%);fill-opacity:1;" d="M 11.808594 16.851562 L 10.800781 19.203125 L 13.15625 18.195312 Z M 11.808594 16.851562 "/>
<path style=" stroke:none;fill-rule:nonzero;fill:rgb(96.862745%,56.078434%,56.078434%);fill-opacity:1;" d="M 20.777344 7.269531 L 21.34375 6.703125 C 21.605469 6.445312 21.949219 6.300781 22.320312 6.300781 C 22.6875 6.300781 23.035156 6.445312 23.296875 6.703125 C 23.832031 7.242188 23.832031 8.117188 23.296875 8.65625 L 22.730469 9.222656 Z M 20.777344 7.269531 "/>
<path style=" stroke:none;fill-rule:nonzero;fill:rgb(78.039217%,26.274511%,26.274511%);fill-opacity:1;" d="M 22.320312 6.601562 C 22.609375 6.601562 22.878906 6.710938 23.082031 6.917969 C 23.503906 7.335938 23.503906 8.023438 23.082031 8.445312 L 22.730469 8.796875 L 21.203125 7.269531 L 21.554688 6.917969 C 21.761719 6.710938 22.03125 6.601562 22.320312 6.601562 M 22.320312 6 C 21.890625 6 21.460938 6.164062 21.132812 6.492188 L 20.355469 7.269531 L 22.730469 9.644531 L 23.507812 8.867188 C 24.164062 8.210938 24.164062 7.148438 23.507812 6.492188 C 23.179688 6.164062 22.75 6 22.320312 6 Z M 22.320312 6 "/>
<path style=" stroke:none;fill-rule:nonzero;fill:rgb(100%,93.333334%,63.921571%);fill-opacity:1;" d="M 15.128906 16.828125 C 15.105469 16.789062 15.078125 16.75 15.046875 16.710938 C 14.910156 16.550781 14.71875 16.449219 14.480469 16.40625 C 14.371094 15.902344 13.976562 15.640625 13.609375 15.546875 C 13.546875 15.242188 13.371094 15.03125 13.152344 14.902344 L 19.785156 8.265625 L 21.734375 10.214844 Z M 15.128906 16.828125 "/>
<path style=" stroke:none;fill-rule:nonzero;fill:rgb(72.941178%,60.784316%,28.235295%);fill-opacity:1;" d="M 19.785156 8.6875 L 21.3125 10.214844 L 15.144531 16.386719 C 15.039062 16.300781 14.902344 16.214844 14.722656 16.15625 C 14.566406 15.710938 14.214844 15.445312 13.859375 15.3125 C 13.800781 15.140625 13.710938 14.996094 13.601562 14.875 L 19.785156 8.6875 M 19.785156 7.839844 L 12.578125 15.054688 C 12.578125 15.054688 12.578125 15.054688 12.585938 15.054688 C 12.671875 15.054688 13.335938 15.078125 13.335938 15.8125 C 13.335938 15.8125 14.207031 15.839844 14.207031 16.683594 C 15.078125 16.683594 14.957031 17.425781 14.957031 17.425781 L 22.160156 10.21875 Z M 19.785156 7.839844 "/>
<path style=" stroke:none;fill-rule:nonzero;fill:rgb(85.09804%,90.588236%,96.078432%);fill-opacity:1;" d="M 19.472656 8.574219 L 20.941406 7.109375 L 22.890625 9.0625 L 21.425781 10.527344 Z M 19.472656 8.574219 "/>
<path style=" stroke:none;fill-rule:nonzero;fill:rgb(47.058824%,54.509807%,61.176473%);fill-opacity:1;" d="M 20.941406 7.53125 L 22.46875 9.0625 L 21.425781 10.101562 L 19.898438 8.574219 L 20.941406 7.53125 M 20.941406 6.683594 L 19.050781 8.574219 L 21.425781 10.949219 L 23.316406 9.058594 Z M 20.941406 6.683594 "/>
</g>
</svg>
