<?xml version="1.0" encoding="UTF-8"?>
<svg xmlns="http://www.w3.org/2000/svg" xmlns:xlink="http://www.w3.org/1999/xlink" width="12pt" height="12pt" viewBox="0 0 12 12" version="1.1">
<g id="surface2646">
<path style=" stroke:none;fill-rule:nonzero;fill:rgb(86.274511%,83.529413%,94.901961%);fill-opacity:1;" d="M 1.125 10.875 L 1.125 1.125 L 8.84375 1.125 L 10.875 3.15625 L 10.875 10.875 Z M 1.125 10.875 "/>
<path style=" stroke:none;fill-rule:nonzero;fill:rgb(54.509807%,45.882353%,63.137257%);fill-opacity:1;" d="M 8.691406 1.5 L 10.5 3.308594 L 10.5 10.5 L 1.5 10.5 L 1.5 1.5 L 8.691406 1.5 M 9 0.75 L 0.75 0.75 L 0.75 11.25 L 11.25 11.25 L 11.25 3 Z M 9 0.75 "/>
<path style=" stroke:none;fill-rule:nonzero;fill:rgb(100%,100%,100%);fill-opacity:1;" d="M 3 6 L 9 6 L 9 10.5 L 3 10.5 Z M 3 6 "/>
<path style=" stroke:none;fill-rule:nonzero;fill:rgb(77.64706%,72.941178%,90.196079%);fill-opacity:1;" d="M 8.25 1.5 L 3 1.5 L 3 3.75 C 3 4.164062 3.335938 4.5 3.75 4.5 L 8.25 4.5 Z M 8.25 1.5 "/>
<path style=" stroke:none;fill-rule:nonzero;fill:rgb(88.235295%,92.156863%,94.901961%);fill-opacity:1;" d="M 4.5 4.125 C 4.292969 4.125 4.125 3.957031 4.125 3.75 L 4.125 1.5 C 4.125 1.292969 4.292969 1.125 4.5 1.125 L 8.25 1.125 C 8.457031 1.125 8.625 1.292969 8.625 1.5 L 8.625 3.75 C 8.625 3.957031 8.457031 4.125 8.25 4.125 Z M 4.5 4.125 "/>
<path style=" stroke:none;fill-rule:nonzero;fill:rgb(40.000001%,47.450981%,56.078434%);fill-opacity:1;" d="M 8.25 1.5 L 8.25 3.75 L 4.5 3.75 L 4.5 1.5 L 8.25 1.5 M 8.25 0.75 L 4.5 0.75 C 4.085938 0.75 3.75 1.085938 3.75 1.5 L 3.75 3.75 C 3.75 4.164062 4.085938 4.5 4.5 4.5 L 8.25 4.5 C 8.664062 4.5 9 4.164062 9 3.75 L 9 1.5 C 9 1.085938 8.664062 0.75 8.25 0.75 Z M 8.25 0.75 "/>
<path style=" stroke:none;fill-rule:nonzero;fill:rgb(76.078433%,90.980393%,100%);fill-opacity:1;" d="M 3.75 7.5 L 8.25 7.5 L 8.25 8.25 L 3.75 8.25 Z M 3.75 9 L 8.25 9 L 8.25 9.75 L 3.75 9.75 Z M 3.75 9 "/>
<path style=" stroke:none;fill-rule:nonzero;fill:rgb(47.058824%,54.509807%,61.176473%);fill-opacity:1;" d="M 6.75 2.25 L 7.5 2.25 L 7.5 3.75 L 6.75 3.75 Z M 6.75 2.25 "/>
</g>
</svg>
