<?xml version="1.0" encoding="UTF-8"?>
<svg xmlns="http://www.w3.org/2000/svg" xmlns:xlink="http://www.w3.org/1999/xlink" width="24pt" height="24pt" viewBox="0 0 24 24" version="1.1">
<g id="surface12285">
<path style=" stroke:none;fill-rule:nonzero;fill:rgb(86.274511%,83.529413%,94.901961%);fill-opacity:1;" d="M 1.5 22.5 L 1.5 1.5 L 17.691406 1.5 L 22.5 6.308594 L 22.5 22.5 Z M 1.5 22.5 "/>
<path style=" stroke:none;fill-rule:nonzero;fill:rgb(54.509807%,45.882353%,63.137257%);fill-opacity:1;" d="M 17.566406 1.800781 L 22.199219 6.433594 L 22.199219 22.199219 L 1.800781 22.199219 L 1.800781 1.800781 L 17.566406 1.800781 M 17.816406 1.199219 L 1.199219 1.199219 L 1.199219 22.800781 L 22.800781 22.800781 L 22.800781 6.183594 Z M 17.816406 1.199219 "/>
<path style=" stroke:none;fill-rule:nonzero;fill:rgb(100%,100%,100%);fill-opacity:1;" d="M 3.898438 11.699219 L 20.101562 11.699219 L 20.101562 22.5 L 3.898438 22.5 Z M 3.898438 11.699219 "/>
<path style=" stroke:none;fill-rule:nonzero;fill:rgb(47.058824%,54.509807%,61.176473%);fill-opacity:1;" d="M 19.800781 12 L 19.800781 22.199219 L 4.199219 22.199219 L 4.199219 12 L 19.800781 12 M 20.398438 11.398438 L 3.601562 11.398438 L 3.601562 22.800781 L 20.398438 22.800781 Z M 20.398438 11.398438 "/>
<path style=" stroke:none;fill-rule:nonzero;fill:rgb(54.509807%,45.882353%,63.137257%);fill-opacity:1;" d="M 16.199219 1.199219 L 5.398438 1.199219 L 5.398438 7.199219 C 5.398438 7.863281 5.9375 8.398438 6.601562 8.398438 L 16.199219 8.398438 Z M 16.199219 1.199219 "/>
<path style=" stroke:none;fill-rule:nonzero;fill:rgb(78.431374%,81.960785%,85.882354%);fill-opacity:1;" d="M 8.398438 8.101562 C 7.902344 8.101562 7.5 7.695312 7.5 7.199219 L 7.5 2.398438 C 7.5 1.902344 7.902344 1.5 8.398438 1.5 L 16.800781 1.5 C 17.296875 1.5 17.699219 1.902344 17.699219 2.398438 L 17.699219 7.199219 C 17.699219 7.695312 17.296875 8.101562 16.800781 8.101562 Z M 8.398438 8.101562 "/>
<path style=" stroke:none;fill-rule:nonzero;fill:rgb(40.000001%,47.450981%,56.078434%);fill-opacity:1;" d="M 16.800781 1.800781 C 17.128906 1.800781 17.398438 2.070312 17.398438 2.398438 L 17.398438 7.199219 C 17.398438 7.53125 17.128906 7.800781 16.800781 7.800781 L 8.398438 7.800781 C 8.070312 7.800781 7.800781 7.53125 7.800781 7.199219 L 7.800781 2.398438 C 7.800781 2.070312 8.070312 1.800781 8.398438 1.800781 L 16.800781 1.800781 M 16.800781 1.199219 L 8.398438 1.199219 C 7.738281 1.199219 7.199219 1.738281 7.199219 2.398438 L 7.199219 7.199219 C 7.199219 7.863281 7.738281 8.398438 8.398438 8.398438 L 16.800781 8.398438 C 17.464844 8.398438 18 7.863281 18 7.199219 L 18 2.398438 C 18 1.738281 17.464844 1.199219 16.800781 1.199219 Z M 16.800781 1.199219 "/>
<path style=" stroke:none;fill-rule:nonzero;fill:rgb(76.078433%,90.980393%,100%);fill-opacity:1;" d="M 6 14.398438 L 18 14.398438 L 18 15 L 6 15 Z M 6 16.800781 L 18 16.800781 L 18 17.398438 L 6 17.398438 Z M 6 19.199219 L 18 19.199219 L 18 19.800781 L 6 19.800781 Z M 6 19.199219 "/>
<path style=" stroke:none;fill-rule:nonzero;fill:rgb(40.000001%,47.450981%,56.078434%);fill-opacity:1;" d="M 13.800781 3 L 15.601562 3 L 15.601562 6.601562 L 13.800781 6.601562 Z M 13.800781 3 "/>
</g>
</svg>
