<?xml version="1.0" encoding="UTF-8"?>
<svg xmlns="http://www.w3.org/2000/svg" xmlns:xlink="http://www.w3.org/1999/xlink" width="12pt" height="12pt" viewBox="0 0 12 12" version="1.1">
<g id="surface2684">
<path style=" stroke:none;fill-rule:nonzero;fill:rgb(86.274511%,83.529413%,94.901961%);fill-opacity:1;" d="M 1.125 10.875 L 1.125 1.125 L 8.84375 1.125 L 10.875 3.15625 L 10.875 10.875 Z M 1.125 10.875 "/>
<path style=" stroke:none;fill-rule:nonzero;fill:rgb(54.509807%,45.882353%,63.137257%);fill-opacity:1;" d="M 8.691406 1.5 L 10.5 3.308594 L 10.5 10.5 L 1.5 10.5 L 1.5 1.5 L 8.691406 1.5 M 9 0.75 L 0.75 0.75 L 0.75 11.25 L 11.25 11.25 L 11.25 3 Z M 9 0.75 "/>
<path style=" stroke:none;fill-rule:nonzero;fill:rgb(100%,100%,100%);fill-opacity:1;" d="M 3 6 L 9 6 L 9 10.5 L 3 10.5 Z M 3 6 "/>
<path style=" stroke:none;fill-rule:nonzero;fill:rgb(77.64706%,72.941178%,90.196079%);fill-opacity:1;" d="M 8.25 1.5 L 3 1.5 L 3 3.75 C 3 4.164062 3.335938 4.5 3.75 4.5 L 8.25 4.5 Z M 8.25 1.5 "/>
<path style=" stroke:none;fill-rule:nonzero;fill:rgb(88.235295%,92.156863%,94.901961%);fill-opacity:1;" d="M 4.5 4.125 C 4.292969 4.125 4.125 3.957031 4.125 3.75 L 4.125 1.5 C 4.125 1.292969 4.292969 1.125 4.5 1.125 L 8.25 1.125 C 8.457031 1.125 8.625 1.292969 8.625 1.5 L 8.625 3.75 C 8.625 3.957031 8.457031 4.125 8.25 4.125 Z M 4.5 4.125 "/>
<path style=" stroke:none;fill-rule:nonzero;fill:rgb(40.000001%,47.450981%,56.078434%);fill-opacity:1;" d="M 8.25 1.5 L 8.25 3.75 L 4.5 3.75 L 4.5 1.5 L 8.25 1.5 M 8.25 0.75 L 4.5 0.75 C 4.085938 0.75 3.75 1.085938 3.75 1.5 L 3.75 3.75 C 3.75 4.164062 4.085938 4.5 4.5 4.5 L 8.25 4.5 C 8.664062 4.5 9 4.164062 9 3.75 L 9 1.5 C 9 1.085938 8.664062 0.75 8.25 0.75 Z M 8.25 0.75 "/>
<path style=" stroke:none;fill-rule:nonzero;fill:rgb(76.078433%,90.980393%,100%);fill-opacity:1;" d="M 3.75 7.5 L 8.25 7.5 L 8.25 8.25 L 3.75 8.25 Z M 3.75 9 L 8.25 9 L 8.25 9.75 L 3.75 9.75 Z M 3.75 9 "/>
<path style=" stroke:none;fill-rule:nonzero;fill:rgb(47.058824%,54.509807%,61.176473%);fill-opacity:1;" d="M 6.75 2.25 L 7.5 2.25 L 7.5 3.75 L 6.75 3.75 Z M 6.75 2.25 "/>
<path style=" stroke:none;fill-rule:nonzero;fill:rgb(96.078432%,80.784315%,52.156866%);fill-opacity:1;" d="M 6.339844 7.765625 L 6.816406 7.289062 L 7.777344 8.125 L 7.238281 8.660156 L 5.859375 9.140625 Z M 6.339844 7.765625 "/>
<path style=" stroke:none;fill-rule:nonzero;fill:rgb(58.823532%,47.843137%,26.666668%);fill-opacity:1;" d="M 6.835938 7.800781 L 7.226562 8.144531 L 7.035156 8.335938 L 6.46875 8.53125 L 6.664062 7.972656 L 6.835938 7.800781 M 6.796875 6.777344 L 6.011719 7.5625 L 5.25 9.75 L 7.445312 8.988281 L 8.324219 8.105469 Z M 6.796875 6.777344 "/>
<path style=" stroke:none;fill-rule:nonzero;fill:rgb(21.176471%,25.098041%,30.19608%);fill-opacity:1;" d="M 5.613281 8.707031 L 5.25 9.75 L 6.296875 9.386719 Z M 5.613281 8.707031 "/>
<path style=" stroke:none;fill-rule:nonzero;fill:rgb(100%,93.333334%,63.921571%);fill-opacity:1;" d="M 7.558594 8.476562 C 7.492188 8.40625 7.394531 8.332031 7.242188 8.289062 C 7.15625 8.011719 6.9375 7.847656 6.71875 7.777344 C 6.679688 7.644531 6.605469 7.535156 6.515625 7.457031 L 9.988281 3.980469 L 11.019531 5.011719 Z M 7.558594 8.476562 "/>
<path style=" stroke:none;fill-rule:nonzero;fill:rgb(72.941178%,60.784316%,28.235295%);fill-opacity:1;" d="M 9.988281 4.375 L 10.625 5.011719 L 7.53125 8.105469 C 7.507812 8.089844 7.480469 8.078125 7.453125 8.066406 C 7.34375 7.835938 7.152344 7.664062 6.9375 7.5625 C 6.925781 7.535156 6.910156 7.503906 6.890625 7.476562 L 9.988281 4.375 M 9.988281 3.582031 L 6.011719 7.5625 C 6.011719 7.5625 6.015625 7.5625 6.015625 7.5625 C 6.070312 7.5625 6.46875 7.574219 6.46875 8.015625 C 6.46875 8.015625 6.992188 8.035156 6.992188 8.539062 C 7.515625 8.539062 7.445312 8.988281 7.445312 8.988281 L 11.417969 5.007812 Z M 9.988281 3.582031 "/>
<path style=" stroke:none;fill-rule:nonzero;fill:rgb(96.862745%,56.078434%,56.078434%);fill-opacity:1;" d="M 9.867188 4.234375 L 10.539062 3.558594 C 10.660156 3.441406 10.820312 3.375 10.988281 3.375 C 11.160156 3.375 11.320312 3.441406 11.4375 3.558594 C 11.6875 3.808594 11.6875 4.210938 11.4375 4.457031 L 10.765625 5.132812 Z M 9.867188 4.234375 "/>
<path style=" stroke:none;fill-rule:nonzero;fill:rgb(78.039217%,26.274511%,26.274511%);fill-opacity:1;" d="M 10.988281 3.75 C 11.03125 3.75 11.109375 3.757812 11.175781 3.824219 C 11.277344 3.925781 11.277344 4.09375 11.175781 4.195312 L 10.765625 4.601562 L 10.398438 4.234375 L 10.804688 3.824219 C 10.871094 3.757812 10.949219 3.75 10.988281 3.75 M 10.988281 3 C 10.730469 3 10.472656 3.097656 10.273438 3.296875 L 9.335938 4.234375 L 10.765625 5.664062 L 11.703125 4.722656 C 12.097656 4.328125 12.097656 3.691406 11.703125 3.296875 C 11.507812 3.097656 11.25 3 10.988281 3 Z M 10.988281 3 "/>
</g>
</svg>
