<?xml version="1.0" encoding="UTF-8"?>
<svg xmlns="http://www.w3.org/2000/svg" xmlns:xlink="http://www.w3.org/1999/xlink" width="24pt" height="24pt" viewBox="0 0 24 24" version="1.1">
<g id="surface8152">
<path style=" stroke:none;fill-rule:nonzero;fill:rgb(100%,100%,100%);fill-opacity:1;" d="M 1.5 21.898438 L 1.5 2.101562 L 22.5 2.101562 L 22.5 21.601562 C 22.5 21.765625 22.367188 21.898438 22.199219 21.898438 Z M 1.5 21.898438 "/>
<path style=" stroke:none;fill-rule:nonzero;fill:rgb(47.058824%,54.509807%,61.176473%);fill-opacity:1;" d="M 22.199219 2.398438 L 22.199219 21.601562 L 1.800781 21.601562 L 1.800781 2.398438 L 22.199219 2.398438 M 22.800781 1.800781 L 1.199219 1.800781 L 1.199219 22.199219 L 22.199219 22.199219 C 22.53125 22.199219 22.800781 21.929688 22.800781 21.601562 Z M 22.800781 1.800781 "/>
<path style=" stroke:none;fill-rule:nonzero;fill:rgb(78.431374%,81.960785%,85.882354%);fill-opacity:1;" d="M 22.800781 12 L 22.199219 12 L 22.199219 21.601562 L 12 21.601562 L 12 22.199219 L 22.800781 22.199219 Z M 22.800781 12 "/>
<path style=" stroke:none;fill-rule:nonzero;fill:rgb(47.058824%,54.509807%,61.176473%);fill-opacity:1;" d="M 1.199219 1.800781 L 22.800781 1.800781 L 22.800781 5.398438 L 1.199219 5.398438 Z M 1.199219 1.800781 "/>
<path style="fill:none;stroke-width:1;stroke-linecap:butt;stroke-linejoin:miter;stroke:rgb(54.509807%,71.764708%,94.117647%);stroke-opacity:1;stroke-miterlimit:10;" d="M 13.001302 16.497396 L 31.002604 16.497396 M 8.997396 16.497396 L 10 16.497396 M 13.001302 20.501302 L 31.002604 20.501302 M 8.997396 20.501302 L 10 20.501302 M 13.001302 24.498698 L 31.002604 24.498698 M 8.997396 24.498698 L 10 24.498698 M 13.001302 28.502604 L 31.002604 28.502604 M 8.997396 28.502604 L 10 28.502604 " transform="matrix(0.6,0,0,0.6,0,0)"/>
<path style=" stroke:none;fill-rule:nonzero;fill:rgb(76.078433%,90.980393%,100%);fill-opacity:1;" d="M 14.398438 16.800781 L 18.601562 16.800781 L 18.601562 17.398438 L 14.398438 17.398438 Z M 14.398438 14.398438 L 18.601562 14.398438 L 18.601562 15 L 14.398438 15 Z M 14.398438 14.398438 "/>
<path style=" stroke:none;fill-rule:nonzero;fill:rgb(71.372551%,86.666667%,81.960785%);fill-opacity:1;" d="M 15.898438 23.699219 L 15.898438 14.101562 L 23.699219 14.101562 L 23.699219 22.371094 C 23.699219 23.105469 23.101562 23.699219 22.363281 23.699219 Z M 15.898438 23.699219 "/>
<path style=" stroke:none;fill-rule:nonzero;fill:rgb(37.254903%,60.000002%,58.039218%);fill-opacity:1;" d="M 23.398438 14.398438 L 23.398438 22.371094 C 23.398438 22.9375 22.933594 23.398438 22.363281 23.398438 L 16.199219 23.398438 L 16.199219 14.398438 L 23.398438 14.398438 M 24 13.800781 L 15.601562 13.800781 L 15.601562 24 L 22.363281 24 C 23.265625 24 24 23.269531 24 22.371094 Z M 24 13.800781 "/>
<path style=" stroke:none;fill-rule:nonzero;fill:rgb(60.000002%,76.862746%,72.156864%);fill-opacity:1;" d="M 14.851562 23.699219 C 14.117188 23.699219 13.523438 23.105469 13.523438 22.371094 L 13.523438 21.300781 L 21.300781 21.300781 L 21.300781 22.46875 C 21.300781 23.25 21.78125 23.570312 22.199219 23.667969 L 22.199219 23.699219 Z M 14.851562 23.699219 "/>
<path style=" stroke:none;fill-rule:nonzero;fill:rgb(37.254903%,60.000002%,58.039218%);fill-opacity:1;" d="M 21 21.601562 L 21 22.46875 C 21 22.855469 21.105469 23.164062 21.269531 23.398438 L 14.851562 23.398438 C 14.28125 23.398438 13.820312 22.9375 13.820312 22.371094 L 13.820312 21.601562 L 21 21.601562 M 21.601562 21 L 13.222656 21 L 13.222656 22.371094 C 13.222656 23.269531 13.949219 24 14.851562 24 L 22.5 24 L 22.5 23.398438 C 22.5 23.398438 22.496094 23.398438 22.488281 23.398438 C 22.386719 23.398438 21.601562 23.371094 21.601562 22.46875 Z M 21.601562 21 "/>
</g>
</svg>
