<?xml version="1.0" encoding="UTF-8"?>
<svg xmlns="http://www.w3.org/2000/svg" xmlns:xlink="http://www.w3.org/1999/xlink" width="13.5pt" height="13.5pt" viewBox="0 0 13.5 13.5" version="1.1">
<g id="surface7699">
<path style=" stroke:none;fill-rule:nonzero;fill:rgb(40.000001%,47.450981%,56.078434%);fill-opacity:1;" d="M 2.4375 6.5 C 2.4375 5.539062 2.785156 4.667969 3.34375 3.96875 L 2.753906 3.378906 C 1.25 5.183594 1.25 7.816406 2.753906 9.621094 L 3.34375 9.03125 C 2.785156 8.332031 2.4375 7.460938 2.4375 6.5 Z M 6.5 2.4375 C 7.460938 2.4375 8.332031 2.785156 9.03125 3.34375 L 9.621094 2.753906 C 7.816406 1.25 5.183594 1.25 3.378906 2.753906 L 3.96875 3.34375 C 4.667969 2.785156 5.539062 2.4375 6.5 2.4375 Z M 6.5 10.5625 C 5.539062 10.5625 4.667969 10.214844 3.96875 9.65625 L 3.378906 10.246094 C 5.183594 11.75 7.816406 11.75 9.621094 10.246094 L 9.03125 9.65625 C 8.332031 10.214844 7.460938 10.5625 6.5 10.5625 Z M 10.246094 3.378906 L 9.65625 3.96875 C 10.214844 4.667969 10.5625 5.539062 10.5625 6.5 C 10.5625 7.460938 10.214844 8.332031 9.65625 9.03125 L 10.246094 9.621094 C 11.75 7.816406 11.75 5.183594 10.246094 3.378906 Z M 10.246094 3.378906 "/>
<path style=" stroke:none;fill-rule:nonzero;fill:rgb(96.862745%,56.078434%,56.078434%);fill-opacity:1;" d="M 6.5 6.09375 C 6.277344 6.09375 6.09375 6.277344 6.09375 6.5 C 6.09375 6.722656 6.277344 6.90625 6.5 6.90625 C 6.722656 6.90625 6.90625 6.722656 6.90625 6.5 C 6.90625 6.277344 6.722656 6.09375 6.5 6.09375 Z M 6.5 6.09375 "/>
<path style=" stroke:none;fill-rule:nonzero;fill:rgb(78.039217%,26.274511%,26.274511%);fill-opacity:1;" d="M 6.5 5.6875 C 6.050781 5.6875 5.6875 6.050781 5.6875 6.5 C 5.6875 6.949219 6.050781 7.3125 6.5 7.3125 C 6.949219 7.3125 7.3125 6.949219 7.3125 6.5 C 7.3125 6.050781 6.949219 5.6875 6.5 5.6875 Z M 6.5 5.6875 "/>
<path style=" stroke:none;fill-rule:nonzero;fill:rgb(96.862745%,56.078434%,56.078434%);fill-opacity:1;" d="M 0.40625 6.90625 L 0.40625 6.09375 L 3.6875 6.09375 C 3.667969 6.230469 3.65625 6.363281 3.65625 6.5 C 3.65625 6.636719 3.667969 6.769531 3.6875 6.90625 Z M 0.40625 6.90625 "/>
<path style=" stroke:none;fill-rule:nonzero;fill:rgb(78.039217%,26.274511%,26.274511%);fill-opacity:1;" d="M 4.210938 5.6875 L 0 5.6875 L 0 7.3125 L 4.210938 7.3125 C 4.121094 7.058594 4.0625 6.785156 4.0625 6.5 C 4.0625 6.214844 4.121094 5.941406 4.210938 5.6875 Z M 4.210938 5.6875 "/>
<path style=" stroke:none;fill-rule:nonzero;fill:rgb(96.862745%,56.078434%,56.078434%);fill-opacity:1;" d="M 6.90625 3.6875 C 6.769531 3.667969 6.636719 3.65625 6.5 3.65625 C 6.363281 3.65625 6.230469 3.667969 6.09375 3.6875 L 6.09375 0.40625 L 6.90625 0.40625 Z M 6.90625 3.6875 "/>
<path style=" stroke:none;fill-rule:nonzero;fill:rgb(78.039217%,26.274511%,26.274511%);fill-opacity:1;" d="M 6.5 0.8125 L 6.5 3.25 L 6.5 0.8125 M 7.3125 0 L 5.6875 0 L 5.6875 4.210938 C 5.941406 4.121094 6.214844 4.0625 6.5 4.0625 C 6.785156 4.0625 7.058594 4.121094 7.3125 4.210938 Z M 7.3125 0 "/>
<path style=" stroke:none;fill-rule:nonzero;fill:rgb(96.862745%,56.078434%,56.078434%);fill-opacity:1;" d="M 9.3125 6.90625 C 9.332031 6.769531 9.34375 6.636719 9.34375 6.5 C 9.34375 6.363281 9.332031 6.230469 9.3125 6.09375 L 12.59375 6.09375 L 12.59375 6.90625 Z M 9.3125 6.90625 "/>
<path style=" stroke:none;fill-rule:nonzero;fill:rgb(78.039217%,26.274511%,26.274511%);fill-opacity:1;" d="M 13 5.6875 L 8.789062 5.6875 C 8.878906 5.941406 8.9375 6.214844 8.9375 6.5 C 8.9375 6.785156 8.878906 7.058594 8.789062 7.3125 L 13 7.3125 Z M 13 5.6875 "/>
<path style=" stroke:none;fill-rule:nonzero;fill:rgb(96.862745%,56.078434%,56.078434%);fill-opacity:1;" d="M 6.09375 12.59375 L 6.09375 9.3125 C 6.230469 9.332031 6.363281 9.34375 6.5 9.34375 C 6.636719 9.34375 6.769531 9.332031 6.90625 9.3125 L 6.90625 12.59375 Z M 6.09375 12.59375 "/>
<path style=" stroke:none;fill-rule:nonzero;fill:rgb(78.039217%,26.274511%,26.274511%);fill-opacity:1;" d="M 6.5 9.75 L 6.5 12.1875 L 6.5 9.75 M 7.3125 8.789062 C 7.058594 8.878906 6.785156 8.9375 6.5 8.9375 C 6.214844 8.9375 5.941406 8.878906 5.6875 8.789062 L 5.6875 13 L 7.3125 13 Z M 7.3125 8.789062 "/>
</g>
</svg>
