<?xml version="1.0" encoding="UTF-8"?>
<svg xmlns="http://www.w3.org/2000/svg" xmlns:xlink="http://www.w3.org/1999/xlink" width="13.5pt" height="13.5pt" viewBox="0 0 13.5 13.5" version="1.1">
<g id="surface6002">
<path style=" stroke:none;fill-rule:nonzero;fill:rgb(30.588236%,47.843137%,70.980394%);fill-opacity:1;" d="M 6.09375 11.78125 C 2.957031 11.78125 0.40625 9.230469 0.40625 6.09375 C 0.40625 2.957031 2.957031 0.40625 6.09375 0.40625 C 9.230469 0.40625 11.78125 2.957031 11.78125 6.09375 C 11.78125 9.230469 9.230469 11.78125 6.09375 11.78125 Z M 6.09375 11.78125 "/>
<path style=" stroke:none;fill-rule:nonzero;fill:rgb(30.588236%,47.843137%,70.980394%);fill-opacity:1;" d="M 6.09375 0.8125 C 9.003906 0.8125 11.375 3.183594 11.375 6.09375 C 11.375 9.003906 9.003906 11.375 6.09375 11.375 C 3.183594 11.375 0.8125 9.003906 0.8125 6.09375 C 0.8125 3.183594 3.183594 0.8125 6.09375 0.8125 M 6.09375 0 C 2.726562 0 0 2.726562 0 6.09375 C 0 9.460938 2.726562 12.1875 6.09375 12.1875 C 9.460938 12.1875 12.1875 9.460938 12.1875 6.09375 C 12.1875 2.726562 9.460938 0 6.09375 0 Z M 6.09375 0 "/>
<path style=" stroke:none;fill-rule:nonzero;fill:rgb(54.509807%,71.764708%,94.117647%);fill-opacity:1;" d="M 6.09375 10.96875 C 3.40625 10.96875 1.21875 8.78125 1.21875 6.09375 C 1.21875 3.40625 3.40625 1.21875 6.09375 1.21875 C 8.78125 1.21875 10.96875 3.40625 10.96875 6.09375 C 10.96875 8.78125 8.78125 10.96875 6.09375 10.96875 Z M 6.09375 10.96875 "/>
<path style=" stroke:none;fill-rule:nonzero;fill:rgb(76.078433%,90.980393%,100%);fill-opacity:1;" d="M 6.09375 1.625 C 8.558594 1.625 10.5625 3.628906 10.5625 6.09375 C 10.5625 8.558594 8.558594 10.5625 6.09375 10.5625 C 3.628906 10.5625 1.625 8.558594 1.625 6.09375 C 1.625 3.628906 3.628906 1.625 6.09375 1.625 M 6.09375 0.8125 C 3.175781 0.8125 0.8125 3.175781 0.8125 6.09375 C 0.8125 9.011719 3.175781 11.375 6.09375 11.375 C 9.011719 11.375 11.375 9.011719 11.375 6.09375 C 11.375 3.175781 9.011719 0.8125 6.09375 0.8125 Z M 6.09375 0.8125 "/>
<path style=" stroke:none;fill-rule:nonzero;fill:rgb(96.862745%,32.156864%,32.156864%);fill-opacity:1;" d="M 5.53125 5.53125 L 8.160156 4.027344 L 6.65625 6.65625 L 4.027344 8.160156 Z M 5.53125 5.53125 "/>
<path style=" stroke:none;fill-rule:nonzero;fill:rgb(67.058825%,20.392157%,20.392157%);fill-opacity:1;" d="M 7.070312 5.117188 L 6.359375 6.359375 L 5.117188 7.070312 L 5.828125 5.828125 L 7.070312 5.117188 M 9.253906 2.933594 L 5.230469 5.230469 L 2.933594 9.253906 L 6.957031 6.957031 Z M 9.253906 2.933594 "/>
<path style=" stroke:none;fill-rule:nonzero;fill:rgb(51.372552%,61.176473%,69.803923%);fill-opacity:1;" d="M 5.320312 5.894531 L 6.292969 6.867188 L 4.027344 8.160156 Z M 5.320312 5.894531 "/>
<path style=" stroke:none;fill-rule:nonzero;fill:rgb(40.000001%,47.450981%,56.078434%);fill-opacity:1;" d="M 5.410156 6.558594 L 5.628906 6.777344 L 5.117188 7.070312 L 5.410156 6.558594 M 5.230469 5.230469 L 2.933594 9.253906 L 6.957031 6.957031 Z M 5.230469 5.230469 "/>
<path style=" stroke:none;fill-rule:nonzero;fill:rgb(54.509807%,71.764708%,94.117647%);fill-opacity:1;" d="M 6.09375 5.6875 C 5.871094 5.6875 5.6875 5.871094 5.6875 6.09375 C 5.6875 6.316406 5.871094 6.5 6.09375 6.5 C 6.316406 6.5 6.5 6.316406 6.5 6.09375 C 6.5 5.871094 6.316406 5.6875 6.09375 5.6875 Z M 6.09375 5.6875 "/>
<path style=" stroke:none;fill-rule:nonzero;fill:rgb(100%,100%,100%);fill-opacity:1;" d="M 6.09375 5.6875 C 5.988281 5.6875 5.886719 5.726562 5.804688 5.804688 C 5.648438 5.964844 5.648438 6.222656 5.804688 6.378906 C 5.886719 6.460938 5.988281 6.5 6.09375 6.5 C 6.199219 6.5 6.300781 6.460938 6.382812 6.382812 C 6.539062 6.222656 6.539062 5.964844 6.382812 5.808594 C 6.300781 5.726562 6.199219 5.6875 6.09375 5.6875 Z M 6.09375 5.6875 "/>
<path style=" stroke:none;fill-rule:nonzero;fill:rgb(76.078433%,90.980393%,100%);fill-opacity:1;" d="M 5.6875 0.8125 L 6.5 0.8125 L 6.5 2.4375 L 5.6875 2.4375 Z M 5.6875 9.75 L 6.5 9.75 L 6.5 11.375 L 5.6875 11.375 Z M 0.8125 5.6875 L 2.4375 5.6875 L 2.4375 6.5 L 0.8125 6.5 Z M 9.75 5.6875 L 11.375 5.6875 L 11.375 6.5 L 9.75 6.5 Z M 9.75 5.6875 "/>
</g>
</svg>
