<?xml version="1.0" encoding="UTF-8"?>
<svg xmlns="http://www.w3.org/2000/svg" xmlns:xlink="http://www.w3.org/1999/xlink" width="13.5pt" height="13.5pt" viewBox="0 0 13.5 13.5" version="1.1">
<g id="surface3083">
<path style=" stroke:none;fill-rule:nonzero;fill:rgb(69.01961%,50.588238%,34.901962%);fill-opacity:1;" d="M 6.5 7.867188 L 3.074219 9.921875 L 5.128906 6.5 L 3.078125 3.070312 L 6.5 5.128906 L 9.925781 3.078125 L 7.871094 6.5 L 9.925781 9.921875 Z M 6.5 7.867188 "/>
<path style=" stroke:none;fill-rule:nonzero;fill:rgb(43.921569%,30.588236%,20.392157%);fill-opacity:1;" d="M 3.550781 3.546875 L 6.332031 5.21875 L 6.5 5.320312 L 6.667969 5.21875 L 9.453125 3.550781 L 7.78125 6.332031 L 7.679688 6.5 L 7.78125 6.667969 L 9.453125 9.449219 L 6.667969 7.78125 L 6.5 7.679688 L 6.332031 7.777344 L 3.546875 9.449219 L 5.21875 6.667969 L 5.320312 6.5 L 5.21875 6.332031 L 3.550781 3.546875 M 2.605469 2.597656 L 4.941406 6.5 L 2.601562 10.394531 L 6.5 8.058594 L 10.398438 10.394531 L 8.058594 6.5 L 10.398438 2.601562 L 6.5 4.941406 Z M 2.605469 2.597656 "/>
<path style=" stroke:none;fill-rule:nonzero;fill:rgb(96.078432%,80.784315%,52.156866%);fill-opacity:1;" d="M 5.21875 6.332031 L 5.320312 6.5 L 6.5 6.5 L 3.5625 3.5625 Z M 6.332031 7.777344 L 6.5 7.679688 L 6.5 6.5 L 3.554688 9.445312 Z M 6.667969 5.21875 L 6.5 5.320312 L 6.5 6.5 L 9.445312 3.554688 Z M 9.453125 9.449219 L 7.78125 6.667969 L 7.679688 6.5 L 6.5 6.5 L 9.445312 9.445312 Z M 9.453125 9.449219 "/>
<path style=" stroke:none;fill-rule:nonzero;fill:rgb(69.01961%,50.588238%,34.901962%);fill-opacity:1;" d="M 5.332031 7.667969 L 0.671875 6.5 L 5.332031 5.332031 L 6.507812 0.671875 L 7.664062 5.332031 L 12.328125 6.5 L 7.667969 7.667969 L 6.5 12.328125 Z M 5.332031 7.667969 "/>
<path style=" stroke:none;fill-rule:nonzero;fill:rgb(43.921569%,30.588236%,20.392157%);fill-opacity:1;" d="M 6.507812 1.339844 L 7.484375 5.277344 L 7.53125 5.46875 L 7.722656 5.515625 L 11.660156 6.5 L 7.722656 7.484375 L 7.53125 7.53125 L 7.484375 7.722656 L 6.5 11.660156 L 5.515625 7.722656 L 5.46875 7.53125 L 5.277344 7.484375 L 1.339844 6.5 L 5.277344 5.515625 L 5.46875 5.46875 L 5.515625 5.28125 L 6.507812 1.339844 M 6.511719 0 L 5.199219 5.199219 L 0 6.5 L 5.199219 7.800781 L 6.5 13 L 7.800781 7.800781 L 13 6.5 L 7.800781 5.199219 Z M 6.511719 0 "/>
<path style=" stroke:none;fill-rule:nonzero;fill:rgb(96.078432%,80.784315%,52.156866%);fill-opacity:1;" d="M 5.277344 7.484375 L 5.46875 7.53125 L 6.5 6.5 L 1.339844 6.5 Z M 7.484375 7.722656 L 7.53125 7.53125 L 6.5 6.5 L 6.5 11.660156 Z M 7.53125 5.46875 L 6.5 6.5 L 11.660156 6.5 L 7.722656 5.515625 Z M 5.515625 5.28125 L 5.46875 5.46875 L 6.5 6.5 L 6.5 1.375 Z M 5.515625 5.28125 "/>
</g>
</svg>
