<?xml version="1.0" encoding="UTF-8"?>
<svg xmlns="http://www.w3.org/2000/svg" xmlns:xlink="http://www.w3.org/1999/xlink" width="13.5pt" height="13.5pt" viewBox="0 0 13.5 13.5" version="1.1">
<g id="surface32671">
<path style="fill:none;stroke-width:1;stroke-linecap:butt;stroke-linejoin:miter;stroke:rgb(58.823532%,47.843137%,26.666668%);stroke-opacity:1;stroke-miterlimit:10;" d="M 19.002404 20.997596 L 3.004808 36.995192 " transform="matrix(0.325,0,0,0.325,0,0)"/>
<path style=" stroke:none;fill-rule:nonzero;fill:rgb(76.078433%,58.823532%,32.549021%);fill-opacity:1;" d="M 3.933594 3.574219 C 4.109375 3.574219 4.429688 3.632812 4.949219 3.894531 C 5.683594 4.269531 6.519531 4.914062 7.308594 5.703125 C 8.097656 6.492188 8.742188 7.328125 9.117188 8.0625 C 9.496094 8.804688 9.484375 9.21875 9.355469 9.34375 C 9.335938 9.363281 9.277344 9.425781 9.089844 9.425781 C 8.914062 9.425781 8.59375 9.371094 8.074219 9.105469 C 7.339844 8.730469 6.503906 8.085938 5.714844 7.296875 C 4.921875 6.507812 4.28125 5.671875 3.90625 4.9375 C 3.527344 4.195312 3.539062 3.78125 3.667969 3.65625 C 3.6875 3.636719 3.746094 3.574219 3.933594 3.574219 M 3.933594 2.925781 C 3.578125 2.925781 3.351562 3.050781 3.207031 3.195312 C 2.929688 3.472656 2.726562 4.050781 3.328125 5.234375 C 3.734375 6.023438 4.417969 6.921875 5.253906 7.757812 C 6.089844 8.59375 6.988281 9.277344 7.777344 9.683594 C 8.339844 9.96875 8.765625 10.074219 9.089844 10.074219 C 9.441406 10.074219 9.671875 9.949219 9.816406 9.804688 C 10.09375 9.527344 10.296875 8.949219 9.695312 7.765625 C 9.289062 6.976562 8.605469 6.078125 7.769531 5.242188 C 6.933594 4.40625 6.035156 3.722656 5.246094 3.316406 C 4.679688 3.027344 4.253906 2.925781 3.933594 2.925781 Z M 3.933594 2.925781 "/>
<path style=" stroke:none;fill-rule:nonzero;fill:rgb(58.823532%,47.843137%,26.666668%);fill-opacity:1;" d="M 8.125 3.25 C 8.660156 3.25 9.097656 3.390625 9.351562 3.648438 C 10.128906 4.421875 9.792969 6.628906 8.21875 8.207031 C 7.265625 9.160156 5.992188 9.75 4.894531 9.75 C 4.363281 9.75 3.921875 9.605469 3.660156 9.339844 C 3.289062 8.96875 3.160156 8.265625 3.3125 7.460938 C 3.492188 6.519531 4.03125 5.542969 4.792969 4.78125 C 5.738281 3.835938 7.015625 3.25 8.125 3.25 M 8.125 2.601562 C 6.941406 2.601562 5.484375 3.171875 4.332031 4.320312 C 2.507812 6.148438 2.113281 8.714844 3.199219 9.800781 C 3.601562 10.199219 4.203125 10.398438 4.894531 10.398438 C 6.078125 10.398438 7.527344 9.816406 8.679688 8.667969 C 10.503906 6.839844 10.871094 4.246094 9.8125 3.1875 C 9.421875 2.796875 8.820312 2.601562 8.125 2.601562 Z M 8.125 2.601562 "/>
<path style=" stroke:none;fill-rule:nonzero;fill:rgb(58.823532%,47.843137%,26.666668%);fill-opacity:1;" d="M 7.011719 6 C 6.15625 5.148438 5.242188 4.679688 4.964844 4.953125 C 4.691406 5.230469 5.160156 6.144531 6.011719 7 C 6.867188 7.851562 7.78125 8.320312 8.058594 8.046875 C 8.332031 7.769531 7.863281 6.855469 7.011719 6 Z M 6.964844 6.953125 C 6.882812 7.035156 6.617188 6.898438 6.363281 6.648438 C 6.113281 6.394531 5.976562 6.128906 6.058594 6.046875 C 6.136719 5.964844 6.40625 6.101562 6.660156 6.351562 C 6.910156 6.605469 7.046875 6.875 6.964844 6.953125 Z M 0.976562 11.375 C 0.617188 11.375 0.324219 11.664062 0.324219 12.023438 C 0.324219 12.382812 0.617188 12.675781 0.976562 12.675781 C 1.335938 12.675781 1.625 12.382812 1.625 12.023438 C 1.625 11.664062 1.335938 11.375 0.976562 11.375 Z M 0.976562 11.375 "/>
<path style="fill:none;stroke-width:1;stroke-linecap:butt;stroke-linejoin:miter;stroke:rgb(58.823532%,47.843137%,26.666668%);stroke-opacity:1;stroke-miterlimit:10;" d="M 36.995192 3.004808 L 20.504808 19.495192 " transform="matrix(0.325,0,0,0.325,0,0)"/>
<path style=" stroke:none;fill-rule:nonzero;fill:rgb(58.823532%,47.843137%,26.666668%);fill-opacity:1;" d="M 12.023438 0.324219 C 11.664062 0.324219 11.375 0.617188 11.375 0.976562 C 11.375 1.335938 11.664062 1.625 12.023438 1.625 C 12.382812 1.625 12.675781 1.335938 12.675781 0.976562 C 12.675781 0.617188 12.382812 0.324219 12.023438 0.324219 Z M 12.023438 0.324219 "/>
<path style=" stroke:none;fill-rule:nonzero;fill:rgb(100%,93.333334%,63.921571%);fill-opacity:1;" d="M 6.511719 12.511719 C 3.195312 12.511719 0.5 9.816406 0.5 6.5 C 0.5 3.183594 3.195312 0.488281 6.511719 0.488281 C 9.828125 0.488281 12.523438 3.183594 12.523438 6.5 C 12.523438 9.816406 9.828125 12.511719 6.511719 12.511719 Z M 6.511719 1.136719 C 3.554688 1.136719 1.148438 3.542969 1.148438 6.5 C 1.148438 9.457031 3.554688 11.863281 6.511719 11.863281 C 9.46875 11.863281 11.875 9.457031 11.875 6.5 C 11.875 3.542969 9.46875 1.136719 6.511719 1.136719 Z M 6.511719 1.136719 "/>
<path style=" stroke:none;fill-rule:nonzero;fill:rgb(96.078432%,76.078433%,46.27451%);fill-opacity:1;" d="M 6.511719 0.648438 C 9.738281 0.648438 12.363281 3.273438 12.363281 6.5 C 12.363281 9.726562 9.738281 12.351562 6.511719 12.351562 C 3.285156 12.351562 0.660156 9.726562 0.660156 6.5 C 0.660156 3.273438 3.285156 0.648438 6.511719 0.648438 M 6.511719 12.023438 C 9.558594 12.023438 12.035156 9.546875 12.035156 6.5 C 12.035156 3.453125 9.558594 0.976562 6.511719 0.976562 C 3.464844 0.976562 0.988281 3.453125 0.988281 6.5 C 0.988281 9.546875 3.464844 12.023438 6.511719 12.023438 M 6.511719 0.324219 C 3.105469 0.324219 0.335938 3.09375 0.335938 6.5 C 0.335938 9.90625 3.105469 12.675781 6.511719 12.675781 C 9.917969 12.675781 12.6875 9.90625 12.6875 6.5 C 12.6875 3.09375 9.917969 0.324219 6.511719 0.324219 Z M 6.511719 11.699219 C 3.644531 11.699219 1.3125 9.367188 1.3125 6.5 C 1.3125 3.632812 3.644531 1.300781 6.511719 1.300781 C 9.378906 1.300781 11.710938 3.632812 11.710938 6.5 C 11.710938 9.367188 9.378906 11.699219 6.511719 11.699219 Z M 6.511719 11.699219 "/>
<path style=" stroke:none;fill-rule:nonzero;fill:rgb(76.078433%,58.823532%,32.549021%);fill-opacity:1;" d="M 8.449219 9.273438 C 8.339844 9.230469 8.214844 9.175781 8.074219 9.105469 C 7.339844 8.730469 6.503906 8.085938 5.714844 7.296875 C 4.925781 6.507812 4.28125 5.671875 3.90625 4.9375 C 3.835938 4.796875 3.78125 4.667969 3.734375 4.550781 L 3.042969 4.550781 C 3.105469 4.753906 3.199219 4.976562 3.328125 5.234375 C 3.734375 6.023438 4.417969 6.921875 5.253906 7.757812 C 6.089844 8.59375 6.988281 9.277344 7.777344 9.683594 C 8.03125 9.8125 8.25 9.898438 8.449219 9.960938 Z M 8.449219 9.273438 "/>
</g>
</svg>
