<?xml version="1.0" encoding="UTF-8"?>
<svg xmlns="http://www.w3.org/2000/svg" xmlns:xlink="http://www.w3.org/1999/xlink" width="13.5pt" height="13.5pt" viewBox="0 0 13.5 13.5" version="1.1">
<g id="surface7555">
<path style=" stroke:none;fill-rule:nonzero;fill:rgb(21.176471%,25.098041%,30.19608%);fill-opacity:1;" d="M 2.4375 1.050781 L 3.25 1.050781 L 3.25 1.863281 L 2.4375 1.863281 Z M 2.4375 1.050781 "/>
<path style=" stroke:none;fill-rule:nonzero;fill:rgb(21.176471%,25.098041%,30.19608%);fill-opacity:1;" d="M 3.25 11.375 L 2.4375 11.375 L 2.4375 9.75 L 3.25 9.75 Z M 3.25 8.9375 L 2.4375 8.9375 L 2.4375 7.3125 L 3.25 7.3125 Z M 3.25 6.5 L 2.4375 6.5 L 2.4375 4.875 L 3.25 4.875 Z M 3.25 4.0625 L 2.4375 4.0625 L 2.4375 2.523438 L 3.25 2.523438 Z M 3.25 4.0625 "/>
<path style=" stroke:none;fill-rule:nonzero;fill:rgb(21.176471%,25.098041%,30.19608%);fill-opacity:1;" d="M 4.363281 12.09375 L 3.894531 11.433594 L 5.136719 10.546875 L 5.605469 11.210938 Z M 6.230469 10.769531 L 5.761719 10.105469 L 7.003906 9.222656 L 7.472656 9.886719 Z M 8.097656 9.445312 L 7.625 8.78125 L 8.871094 7.898438 L 9.339844 8.5625 Z M 9.964844 8.121094 L 9.492188 7.457031 L 10.738281 6.574219 L 11.207031 7.234375 Z M 9.964844 8.121094 "/>
<path style=" stroke:none;fill-rule:nonzero;fill:rgb(21.176471%,25.098041%,30.19608%);fill-opacity:1;" d="M 12.023438 5.660156 L 12.492188 6.324219 L 11.832031 6.792969 L 11.359375 6.128906 Z M 12.023438 5.660156 "/>
<path style=" stroke:none;fill-rule:nonzero;fill:rgb(30.588236%,47.843137%,70.980394%);fill-opacity:1;" d="M 4.46875 1.625 C 4.46875 2.523438 3.742188 3.25 2.84375 3.25 C 1.945312 3.25 1.21875 2.523438 1.21875 1.625 C 1.21875 0.726562 1.945312 0 2.84375 0 C 3.742188 0 4.46875 0.726562 4.46875 1.625 Z M 4.46875 1.625 "/>
<path style=" stroke:none;fill-rule:nonzero;fill:rgb(47.058824%,54.509807%,61.176473%);fill-opacity:1;" d="M 13 6.5 C 13 7.398438 12.273438 8.125 11.375 8.125 C 10.476562 8.125 9.75 7.398438 9.75 6.5 C 9.75 5.601562 10.476562 4.875 11.375 4.875 C 12.273438 4.875 13 5.601562 13 6.5 Z M 13 6.5 "/>
<path style=" stroke:none;fill-rule:nonzero;fill:rgb(21.176471%,25.098041%,30.19608%);fill-opacity:1;" d="M 7.007812 7.570312 C 6 6.488281 4.628906 5.816406 3.152344 5.6875 L 3.222656 4.875 C 4.902344 5.027344 6.457031 5.789062 7.605469 7.019531 Z M 7.007812 7.570312 "/>
<path style=" stroke:none;fill-rule:nonzero;fill:rgb(21.176471%,25.098041%,30.19608%);fill-opacity:1;" d="M 8.125 8.125 L 5.449219 8.125 L 8.125 5.449219 Z M 8.125 8.125 "/>
<path style=" stroke:none;fill-rule:nonzero;fill:rgb(21.176471%,25.098041%,30.19608%);fill-opacity:1;" d="M 3.085938 13 L 3.742188 12.535156 L 3.269531 11.875 L 2.4375 11.863281 L 2.4375 13 Z M 3.085938 13 "/>
</g>
</svg>
