<?xml version="1.0" encoding="UTF-8"?>
<svg xmlns="http://www.w3.org/2000/svg" xmlns:xlink="http://www.w3.org/1999/xlink" width="13.5pt" height="13.5pt" viewBox="0 0 13.5 13.5" version="1.1">
<g id="surface9087">
<path style=" stroke:none;fill-rule:nonzero;fill:rgb(63.137257%,41.568628%,29.019609%);fill-opacity:1;" d="M 4.617188 12.109375 L 3.953125 11.640625 C 4.46875 10.910156 4.78125 10.140625 4.914062 9.289062 L 5.71875 9.414062 C 5.566406 10.378906 5.199219 11.285156 4.617188 12.109375 Z M 4.617188 12.109375 "/>
<path style=" stroke:none;fill-rule:nonzero;fill:rgb(63.137257%,41.568628%,29.019609%);fill-opacity:1;" d="M 2.105469 10.890625 L 1.683594 10.191406 C 2.316406 9.824219 3.007812 9.335938 3.359375 8.492188 L 4.121094 8.800781 C 3.675781 9.867188 2.851562 10.457031 2.105469 10.890625 Z M 2.105469 10.890625 "/>
<path style=" stroke:none;fill-rule:nonzero;fill:rgb(63.137257%,41.568628%,29.019609%);fill-opacity:1;" d="M 0.621094 8.9375 L 0.40625 8.152344 C 1.046875 7.980469 1.832031 7.605469 2.140625 7.167969 L 2.804688 7.636719 C 2.230469 8.445312 0.988281 8.835938 0.621094 8.9375 Z M 0.621094 8.9375 "/>
<path style=" stroke:none;fill-rule:nonzero;fill:rgb(63.137257%,41.568628%,29.019609%);fill-opacity:1;" d="M 6.5 9.257812 L 7.3125 9.257812 L 7.3125 12.1875 L 6.5 12.1875 Z M 6.5 9.257812 "/>
<path style=" stroke:none;fill-rule:nonzero;fill:rgb(63.137257%,41.568628%,29.019609%);fill-opacity:1;" d="M 9.019531 12.109375 C 8.367188 11.199219 7.953125 10.199219 7.785156 9.132812 L 8.601562 9.011719 C 8.753906 9.964844 9.109375 10.824219 9.695312 11.640625 Z M 9.019531 12.109375 "/>
<path style=" stroke:none;fill-rule:nonzero;fill:rgb(63.137257%,41.568628%,29.019609%);fill-opacity:1;" d="M 11.382812 10.890625 C 10.601562 10.429688 9.742188 9.808594 9.28125 8.6875 L 10.03125 8.375 C 10.402344 9.277344 11.132812 9.800781 11.796875 10.191406 Z M 11.382812 10.890625 "/>
<path style=" stroke:none;fill-rule:nonzero;fill:rgb(63.137257%,41.568628%,29.019609%);fill-opacity:1;" d="M 12.59375 8.9375 C 12.226562 8.835938 10.984375 8.445312 10.410156 7.636719 L 11.074219 7.167969 C 11.382812 7.605469 12.167969 7.980469 12.808594 8.152344 Z M 12.59375 8.9375 "/>
<path style=" stroke:none;fill-rule:nonzero;fill:rgb(96.078432%,80.784315%,52.156866%);fill-opacity:1;" d="M 6.5 9.34375 C 3.40625 9.34375 0.816406 6.089844 0.507812 5.6875 C 0.816406 5.285156 3.40625 2.03125 6.5 2.03125 C 9.59375 2.03125 12.183594 5.285156 12.492188 5.6875 C 12.183594 6.089844 9.59375 9.34375 6.5 9.34375 Z M 6.5 9.34375 "/>
<path style=" stroke:none;fill-rule:nonzero;fill:rgb(72.941178%,60.784316%,28.235295%);fill-opacity:1;" d="M 6.5 9.75 C 3.203125 9.75 0.488281 6.328125 0.191406 5.9375 L 0 5.6875 L 0.191406 5.4375 C 0.488281 5.046875 3.203125 1.625 6.5 1.625 C 9.796875 1.625 12.511719 5.046875 12.808594 5.4375 L 13 5.6875 L 12.808594 5.9375 C 12.511719 6.328125 9.796875 9.75 6.5 9.75 Z M 1.019531 5.6875 C 1.71875 6.523438 3.945312 8.9375 6.5 8.9375 C 9.054688 8.9375 11.28125 6.523438 11.980469 5.6875 C 11.28125 4.851562 9.054688 2.4375 6.5 2.4375 C 3.945312 2.4375 1.71875 4.851562 1.019531 5.6875 Z M 1.019531 5.6875 "/>
</g>
</svg>
