<?xml version="1.0" encoding="UTF-8"?>
<svg xmlns="http://www.w3.org/2000/svg" xmlns:xlink="http://www.w3.org/1999/xlink" width="13.5pt" height="13.5pt" viewBox="0 0 13.5 13.5" version="1.1">
<g id="surface2907">
<path style=" stroke:none;fill-rule:nonzero;fill:rgb(54.509807%,71.764708%,94.117647%);fill-opacity:1;" d="M 1.21875 8.71875 L 1.21875 5.828125 L 4.191406 2.113281 L 8.160156 3.703125 L 11.78125 1.53125 L 11.78125 8.71875 Z M 1.21875 8.71875 "/>
<path style=" stroke:none;fill-rule:nonzero;fill:rgb(30.588236%,47.843137%,70.980394%);fill-opacity:1;" d="M 11.375 2.246094 L 11.375 8.3125 L 1.625 8.3125 L 1.625 5.972656 L 4.320312 2.601562 L 7.824219 4.003906 L 8.199219 4.152344 L 8.542969 3.945312 L 11.375 2.246094 M 12.1875 0.8125 L 8.125 3.25 L 4.0625 1.625 L 0.8125 5.6875 L 0.8125 9.125 L 12.1875 9.125 Z M 12.1875 0.8125 "/>
<path style=" stroke:none;fill-rule:nonzero;fill:rgb(72.941178%,87.843138%,74.117649%);fill-opacity:1;" d="M 1.21875 11.78125 L 1.21875 8.355469 L 4.910156 6.140625 L 8.957031 7.757812 L 11.78125 6.34375 L 11.78125 11.78125 Z M 1.21875 11.78125 "/>
<path style=" stroke:none;fill-rule:nonzero;fill:rgb(36.862746%,61.176473%,46.27451%);fill-opacity:1;" d="M 4.949219 6.59375 L 8.636719 8.066406 L 8.972656 8.203125 L 9.300781 8.039062 L 11.375 7.003906 L 11.375 11.375 L 1.625 11.375 L 1.625 8.585938 L 4.949219 6.59375 M 12.1875 5.6875 L 8.9375 7.3125 L 4.875 5.6875 L 0.8125 8.125 L 0.8125 12.1875 L 12.1875 12.1875 Z M 12.1875 5.6875 "/>
</g>
</svg>
