<?xml version="1.0" encoding="UTF-8"?>
<svg xmlns="http://www.w3.org/2000/svg" xmlns:xlink="http://www.w3.org/1999/xlink" width="13.5pt" height="13.5pt" viewBox="0 0 13.5 13.5" version="1.1">
<g id="surface4159">
<path style=" stroke:none;fill-rule:nonzero;fill:rgb(88.235295%,92.156863%,94.901961%);fill-opacity:1;" d="M 0.8125 11.78125 C 0.589844 11.78125 0.40625 11.597656 0.40625 11.375 L 0.40625 0.8125 C 0.40625 0.589844 0.589844 0.40625 0.8125 0.40625 L 11.375 0.40625 C 11.597656 0.40625 11.78125 0.589844 11.78125 0.8125 L 11.78125 11.375 C 11.78125 11.597656 11.597656 11.78125 11.375 11.78125 Z M 0.8125 11.78125 "/>
<path style=" stroke:none;fill-rule:nonzero;fill:rgb(47.058824%,54.509807%,61.176473%);fill-opacity:1;" d="M 11.375 0.8125 L 11.375 11.375 L 0.8125 11.375 L 0.8125 0.8125 L 11.375 0.8125 M 11.375 0 L 0.8125 0 C 0.363281 0 0 0.363281 0 0.8125 L 0 11.375 C 0 11.824219 0.363281 12.1875 0.8125 12.1875 L 11.375 12.1875 C 11.824219 12.1875 12.1875 11.824219 12.1875 11.375 L 12.1875 0.8125 C 12.1875 0.363281 11.824219 0 11.375 0 Z M 11.375 0 "/>
<path style=" stroke:none;fill-rule:nonzero;fill:rgb(71.372551%,78.823531%,83.92157%);fill-opacity:1;" d="M 5.6875 0.8125 L 6.5 0.8125 L 6.5 11.375 L 5.6875 11.375 Z M 5.6875 0.8125 "/>
<path style=" stroke:none;fill-rule:nonzero;fill:rgb(71.372551%,78.823531%,83.92157%);fill-opacity:1;" d="M 0.8125 5.6875 L 11.375 5.6875 L 11.375 6.5 L 0.8125 6.5 Z M 0.8125 5.6875 "/>
<path style=" stroke:none;fill-rule:nonzero;fill:rgb(78.039217%,26.274511%,26.274511%);fill-opacity:1;" d="M 11.375 9.675781 C 10.367188 9.339844 9.828125 7.742188 9.328125 5.984375 C 8.835938 4.246094 8.09375 1.625 6.09375 1.625 C 4.09375 1.625 3.351562 4.246094 2.859375 5.984375 C 2.359375 7.742188 1.820312 9.339844 0.8125 9.675781 L 0.8125 10.519531 C 2.511719 10.191406 3.183594 7.816406 3.640625 6.203125 C 4.203125 4.21875 4.8125 2.4375 6.09375 2.4375 C 7.375 2.4375 7.984375 4.21875 8.546875 6.203125 C 9.003906 7.816406 9.675781 10.191406 11.375 10.519531 Z M 11.375 9.675781 "/>
</g>
</svg>
