<?xml version="1.0" encoding="UTF-8"?>
<svg xmlns="http://www.w3.org/2000/svg" xmlns:xlink="http://www.w3.org/1999/xlink" width="13.5pt" height="13.5pt" viewBox="0 0 13.5 13.5" version="1.1">
<g id="surface9056">
<path style=" stroke:none;fill-rule:nonzero;fill:rgb(100%,100%,100%);fill-opacity:1;" d="M 6.5 10.15625 C 3.644531 10.15625 1.1875 7.34375 0.511719 6.5 C 1.1875 5.65625 3.652344 2.84375 6.5 2.84375 C 9.355469 2.84375 11.8125 5.65625 12.488281 6.5 C 11.8125 7.34375 9.347656 10.15625 6.5 10.15625 Z M 6.5 10.15625 "/>
<path style=" stroke:none;fill-rule:nonzero;fill:rgb(72.941178%,60.784316%,28.235295%);fill-opacity:1;" d="M 6.5 3.25 C 8.9375 3.25 11.113281 5.5 11.960938 6.5 C 11.117188 7.503906 8.949219 9.75 6.5 9.75 C 4.0625 9.75 1.886719 7.5 1.039062 6.5 C 1.882812 5.496094 4.050781 3.25 6.5 3.25 M 6.5 2.4375 C 2.910156 2.4375 0 6.5 0 6.5 C 0 6.5 2.910156 10.5625 6.5 10.5625 C 10.089844 10.5625 13 6.5 13 6.5 C 13 6.5 10.089844 2.4375 6.5 2.4375 Z M 6.5 2.4375 "/>
<path style=" stroke:none;fill-rule:nonzero;fill:rgb(54.509807%,71.764708%,94.117647%);fill-opacity:1;" d="M 6.5 4.46875 C 5.378906 4.46875 4.46875 5.378906 4.46875 6.5 C 4.46875 7.621094 5.378906 8.53125 6.5 8.53125 C 7.621094 8.53125 8.53125 7.621094 8.53125 6.5 C 8.53125 5.378906 7.621094 4.46875 6.5 4.46875 Z M 6.5 4.46875 "/>
<path style=" stroke:none;fill-rule:nonzero;fill:rgb(30.588236%,47.843137%,70.980394%);fill-opacity:1;" d="M 6.5 4.875 C 7.394531 4.875 8.125 5.605469 8.125 6.5 C 8.125 7.394531 7.394531 8.125 6.5 8.125 C 5.605469 8.125 4.875 7.394531 4.875 6.5 C 4.875 5.605469 5.605469 4.875 6.5 4.875 M 6.5 4.0625 C 5.152344 4.0625 4.0625 5.152344 4.0625 6.5 C 4.0625 7.847656 5.152344 8.9375 6.5 8.9375 C 7.847656 8.9375 8.9375 7.847656 8.9375 6.5 C 8.9375 5.152344 7.847656 4.0625 6.5 4.0625 Z M 6.5 4.0625 "/>
<path style=" stroke:none;fill-rule:nonzero;fill:rgb(21.176471%,25.098041%,30.19608%);fill-opacity:1;" d="M 6.5 5.6875 C 6.050781 5.6875 5.6875 6.050781 5.6875 6.5 C 5.6875 6.949219 6.050781 7.3125 6.5 7.3125 C 6.949219 7.3125 7.3125 6.949219 7.3125 6.5 C 7.3125 6.050781 6.949219 5.6875 6.5 5.6875 Z M 6.5 5.6875 "/>
<path style=" stroke:none;fill-rule:nonzero;fill:rgb(100%,100%,100%);fill-opacity:1;" d="M 7.71875 4.875 C 7.496094 4.875 7.3125 5.058594 7.3125 5.28125 C 7.3125 5.503906 7.496094 5.6875 7.71875 5.6875 C 7.941406 5.6875 8.125 5.503906 8.125 5.28125 C 8.125 5.058594 7.941406 4.875 7.71875 4.875 Z M 7.71875 4.875 "/>
</g>
</svg>
