<?xml version="1.0" encoding="UTF-8"?>
<svg xmlns="http://www.w3.org/2000/svg" xmlns:xlink="http://www.w3.org/1999/xlink" width="13.5pt" height="13.5pt" viewBox="0 0 13.5 13.5" version="1.1">
<g id="surface2399">
<path style=" stroke:none;fill-rule:nonzero;fill:rgb(100%,100%,100%);fill-opacity:1;" d="M 0.40625 11.78125 L 0.40625 1.21875 L 12.59375 1.21875 L 12.59375 9.992188 L 10.398438 11.78125 Z M 0.40625 11.78125 "/>
<path style=" stroke:none;fill-rule:nonzero;fill:rgb(47.058824%,54.509807%,61.176473%);fill-opacity:1;" d="M 12.1875 1.625 L 12.1875 9.75 L 10.238281 11.375 L 0.8125 11.375 L 0.8125 1.625 L 12.1875 1.625 M 13 0.8125 L 0 0.8125 L 0 12.1875 L 10.5625 12.1875 L 13 10.15625 Z M 13 0.8125 "/>
<path style=" stroke:none;fill-rule:nonzero;fill:rgb(47.058824%,54.509807%,61.176473%);fill-opacity:1;" d="M 0 0.8125 L 13 0.8125 L 13 2.4375 L 0 2.4375 Z M 0 0.8125 "/>
<path style=" stroke:none;fill-rule:nonzero;fill:rgb(54.509807%,71.764708%,94.117647%);fill-opacity:1;" d="M 4.0625 4.0625 L 10.5625 4.0625 L 10.5625 4.875 L 4.0625 4.875 Z M 2.4375 4.0625 L 3.25 4.0625 L 3.25 4.875 L 2.4375 4.875 Z M 4.0625 5.6875 L 10.5625 5.6875 L 10.5625 6.5 L 4.0625 6.5 Z M 2.4375 5.6875 L 3.25 5.6875 L 3.25 6.5 L 2.4375 6.5 Z M 4.0625 7.3125 L 9.34375 7.3125 L 9.34375 8.125 L 4.0625 8.125 Z M 2.4375 7.3125 L 3.25 7.3125 L 3.25 8.125 L 2.4375 8.125 Z M 4.0625 8.9375 L 10.5625 8.9375 L 10.5625 9.75 L 4.0625 9.75 Z M 2.4375 8.9375 L 3.25 8.9375 L 3.25 9.75 L 2.4375 9.75 Z M 2.4375 8.9375 "/>
<path style=" stroke:none;fill-rule:nonzero;fill:rgb(76.078433%,90.980393%,100%);fill-opacity:1;" d="M 6.5 8.9375 L 10.5625 8.9375 L 10.5625 9.75 L 6.5 9.75 Z M 6.5 8.9375 "/>
<path style=" stroke:none;fill-rule:nonzero;fill:rgb(100%,100%,100%);fill-opacity:1;" d="M 9.34375 12.59375 C 7.960938 12.59375 6.664062 10.96875 6.175781 10.15625 C 6.582031 9.507812 7.882812 7.71875 9.34375 7.71875 C 10.726562 7.71875 12.023438 9.34375 12.511719 10.15625 C 12.105469 10.804688 10.804688 12.59375 9.34375 12.59375 Z M 9.34375 12.59375 "/>
<path style=" stroke:none;fill-rule:nonzero;fill:rgb(72.941178%,60.784316%,28.235295%);fill-opacity:1;" d="M 9.34375 8.125 C 10.398438 8.125 11.457031 9.34375 12.023438 10.15625 C 11.457031 10.96875 10.398438 12.1875 9.34375 12.1875 C 8.289062 12.1875 7.230469 10.96875 6.664062 10.15625 C 7.230469 9.34375 8.289062 8.125 9.34375 8.125 M 9.34375 7.3125 C 7.3125 7.3125 5.6875 10.15625 5.6875 10.15625 C 5.6875 10.15625 7.3125 13 9.34375 13 C 11.375 13 13 10.15625 13 10.15625 C 13 10.15625 11.375 7.3125 9.34375 7.3125 Z M 9.34375 7.3125 "/>
<path style=" stroke:none;fill-rule:nonzero;fill:rgb(78.431374%,81.960785%,85.882354%);fill-opacity:1;" d="M 12.1875 6.742188 L 12.1875 9.019531 C 12.675781 9.585938 13 10.15625 13 10.15625 L 13 7.476562 C 12.757812 7.230469 12.511719 6.988281 12.1875 6.742188 Z M 6.582031 11.375 L 4.550781 11.375 C 4.710938 11.617188 4.875 11.863281 5.117188 12.1875 L 7.394531 12.1875 C 7.070312 11.945312 6.824219 11.617188 6.582031 11.375 Z M 6.582031 11.375 "/>
<path style=" stroke:none;fill-rule:nonzero;fill:rgb(76.078433%,90.980393%,100%);fill-opacity:1;" d="M 6.582031 8.9375 L 4.550781 8.9375 C 4.386719 9.101562 4.304688 9.261719 4.304688 9.34375 L 4.0625 9.75 L 5.929688 9.75 C 6.09375 9.507812 6.335938 9.261719 6.582031 8.9375 Z M 7.394531 8.125 C 7.960938 7.636719 8.613281 7.3125 9.34375 7.3125 L 5.851562 7.3125 C 5.605469 7.554688 5.28125 7.882812 5.117188 8.125 Z M 7.394531 8.125 "/>
<path style=" stroke:none;fill-rule:nonzero;fill:rgb(30.588236%,47.843137%,70.980394%);fill-opacity:1;" d="M 9.34375 8.9375 C 8.671875 8.9375 8.125 9.484375 8.125 10.15625 C 8.125 10.828125 8.671875 11.375 9.34375 11.375 C 10.015625 11.375 10.5625 10.828125 10.5625 10.15625 C 10.5625 9.484375 10.015625 8.9375 9.34375 8.9375 Z M 9.34375 8.9375 "/>
<path style=" stroke:none;fill-rule:nonzero;fill:rgb(100%,100%,100%);fill-opacity:1;" d="M 10.398438 8.9375 C 10.039062 8.9375 9.75 9.226562 9.75 9.585938 C 9.75 9.945312 10.039062 10.238281 10.398438 10.238281 C 10.757812 10.238281 11.050781 9.945312 11.050781 9.585938 C 11.050781 9.226562 10.757812 8.9375 10.398438 8.9375 Z M 10.398438 8.9375 "/>
</g>
</svg>
