<?xml version="1.0" encoding="UTF-8"?>
<svg xmlns="http://www.w3.org/2000/svg" xmlns:xlink="http://www.w3.org/1999/xlink" width="30pt" height="30pt" viewBox="0 0 30 30" version="1.1">
<g id="surface2072">
<path style=" stroke:none;fill-rule:nonzero;fill:rgb(76.078433%,90.980393%,100%);fill-opacity:1;" d="M 9.199219 10 L 0 10 L 0 13 L 8.601562 13 Z M 7.925781 17 L 8.324219 15 L 0 15 L 0 17 Z M 7.5 20 L 7.699219 19 L 0 19 L 0 20 Z M 7.5 20 "/>
<path style=" stroke:none;fill-rule:nonzero;fill:rgb(100%,100%,100%);fill-opacity:1;" d="M 5.609375 24.5 L 9.410156 5.5 L 29.390625 5.5 L 25.589844 24.5 Z M 5.609375 24.5 "/>
<path style=" stroke:none;fill-rule:nonzero;fill:rgb(47.058824%,54.509807%,61.176473%);fill-opacity:1;" d="M 28.78125 6 L 25.179688 24 L 6.21875 24 L 9.820312 6 L 28.78125 6 M 30 5 L 9 5 L 5 25 L 26 25 Z M 30 5 "/>
<path style=" stroke:none;fill-rule:nonzero;fill:rgb(54.509807%,71.764708%,94.117647%);fill-opacity:1;" d="M 9.867188 18.5 L 11.269531 11.5 L 25.132812 11.5 L 23.730469 18.5 Z M 9.867188 18.5 "/>
<path style=" stroke:none;fill-rule:nonzero;fill:rgb(30.588236%,47.843137%,70.980394%);fill-opacity:1;" d="M 24.519531 12 L 23.320312 18 L 10.480469 18 L 11.679688 12 L 24.519531 12 M 25.742188 11 L 10.859375 11 L 9.257812 19 L 24.140625 19 Z M 25.742188 11 "/>
<path style=" stroke:none;fill-rule:nonzero;fill:rgb(47.058824%,54.509807%,61.176473%);fill-opacity:1;" d="M 30 5 L 9 5 L 8.5 9 L 29 9 Z M 30 5 "/>
<path style=" stroke:none;fill-rule:nonzero;fill:rgb(100%,100%,100%);fill-opacity:1;" d="M 11.898438 16 L 22.699219 16 L 23.300781 13 L 12.5 13 Z M 11.898438 16 "/>
<path style=" stroke:none;fill-rule:nonzero;fill:rgb(21.568628%,27.843139%,30.980393%);fill-opacity:1;" d="M 14.269531 16 L 14.871094 13 L 13.851562 13 L 13.25 16 Z M 14.269531 16 "/>
</g>
</svg>
