<?xml version="1.0" encoding="UTF-8"?>
<svg xmlns="http://www.w3.org/2000/svg" xmlns:xlink="http://www.w3.org/1999/xlink" width="30pt" height="30pt" viewBox="0 0 30 30" version="1.1">
<g id="surface2141">
<path style=" stroke:none;fill-rule:nonzero;fill:rgb(100%,100%,100%);fill-opacity:1;" d="M 1.5 6.5 L 28.5 6.5 L 28.5 26.5 L 1.5 26.5 Z M 1.5 6.5 "/>
<path style=" stroke:none;fill-rule:nonzero;fill:rgb(47.058824%,54.509807%,61.176473%);fill-opacity:1;" d="M 28 7 L 28 26 L 2 26 L 2 7 L 28 7 M 29 6 L 1 6 L 1 27 L 29 27 Z M 29 6 "/>
<path style=" stroke:none;fill-rule:nonzero;fill:rgb(78.431374%,81.960785%,85.882354%);fill-opacity:1;" d="M 1.5 6.5 L 1.5 5 C 1.5 4.199219 2.199219 3.5 3 3.5 L 27 3.5 C 27.800781 3.5 28.5 4.199219 28.5 5 L 28.5 6.5 Z M 1.5 6.5 "/>
<path style=" stroke:none;fill-rule:nonzero;fill:rgb(40.000001%,47.450981%,56.078434%);fill-opacity:1;" d="M 27 4 C 27.601562 4 28 4.398438 28 5 L 28 6 L 2 6 L 2 5 C 2 4.398438 2.398438 4 3 4 L 27 4 M 27 3 L 3 3 C 1.898438 3 1 3.898438 1 5 L 1 7 L 29 7 L 29 5 C 29 3.898438 28.101562 3 27 3 Z M 27 3 "/>
<path style=" stroke:none;fill-rule:nonzero;fill:rgb(62.352943%,69.411767%,76.078433%);fill-opacity:1;" d="M 22 10 L 23 10 L 23 23 L 22 23 Z M 22 10 "/>
<path style=" stroke:none;fill-rule:nonzero;fill:rgb(76.078433%,90.980393%,100%);fill-opacity:1;" d="M 21 18.5 C 20.699219 18.5 20.5 18.300781 20.5 18 L 20.5 17 C 20.5 16.699219 20.699219 16.5 21 16.5 L 24 16.5 C 24.300781 16.5 24.5 16.699219 24.5 17 L 24.5 18 C 24.5 18.300781 24.300781 18.5 24 18.5 Z M 21 18.5 "/>
<path style=" stroke:none;fill-rule:nonzero;fill:rgb(45.490196%,58.823532%,76.862746%);fill-opacity:1;" d="M 24 17 L 24 18 L 21 18 L 21 17 L 24 17 M 24 16 L 21 16 C 20.398438 16 20 16.398438 20 17 L 20 18 C 20 18.601562 20.398438 19 21 19 L 24 19 C 24.601562 19 25 18.601562 25 18 L 25 17 C 25 16.398438 24.601562 16 24 16 Z M 24 16 "/>
<path style=" stroke:none;fill-rule:nonzero;fill:rgb(62.352943%,69.411767%,76.078433%);fill-opacity:1;" d="M 15 10 L 16 10 L 16 23 L 15 23 Z M 15 10 "/>
<path style=" stroke:none;fill-rule:nonzero;fill:rgb(76.078433%,90.980393%,100%);fill-opacity:1;" d="M 14 14.5 C 13.699219 14.5 13.5 14.300781 13.5 14 L 13.5 13 C 13.5 12.699219 13.699219 12.5 14 12.5 L 17 12.5 C 17.300781 12.5 17.5 12.699219 17.5 13 L 17.5 14 C 17.5 14.300781 17.300781 14.5 17 14.5 Z M 14 14.5 "/>
<path style=" stroke:none;fill-rule:nonzero;fill:rgb(45.490196%,58.823532%,76.862746%);fill-opacity:1;" d="M 17 13 L 17 14 L 14 14 L 14 13 L 17 13 M 17 12 L 14 12 C 13.398438 12 13 12.398438 13 13 L 13 14 C 13 14.601562 13.398438 15 14 15 L 17 15 C 17.601562 15 18 14.601562 18 14 L 18 13 C 18 12.398438 17.601562 12 17 12 Z M 17 12 "/>
<path style=" stroke:none;fill-rule:nonzero;fill:rgb(62.352943%,69.411767%,76.078433%);fill-opacity:1;" d="M 7 10 L 8 10 L 8 23 L 7 23 Z M 7 10 "/>
<path style=" stroke:none;fill-rule:nonzero;fill:rgb(76.078433%,90.980393%,100%);fill-opacity:1;" d="M 6 19.5 C 5.699219 19.5 5.5 19.300781 5.5 19 L 5.5 18 C 5.5 17.699219 5.699219 17.5 6 17.5 L 9 17.5 C 9.300781 17.5 9.5 17.699219 9.5 18 L 9.5 19 C 9.5 19.300781 9.300781 19.5 9 19.5 Z M 6 19.5 "/>
<path style=" stroke:none;fill-rule:nonzero;fill:rgb(45.490196%,58.823532%,76.862746%);fill-opacity:1;" d="M 9 18 L 9 19 L 6 19 L 6 18 L 9 18 M 9 17 L 6 17 C 5.398438 17 5 17.398438 5 18 L 5 19 C 5 19.601562 5.398438 20 6 20 L 9 20 C 9.601562 20 10 19.601562 10 19 L 10 18 C 10 17.398438 9.601562 17 9 17 Z M 9 17 "/>
<path style=" stroke:none;fill-rule:nonzero;fill:rgb(30.588236%,47.843137%,70.980394%);fill-opacity:1;" d="M 22 19 L 23 19 L 23 23 L 22 23 Z M 15 15 L 16 15 L 16 23 L 15 23 Z M 7 20 L 8 20 L 8 23 L 7 23 Z M 7 20 "/>
</g>
</svg>
