<?xml version="1.0" encoding="UTF-8"?>
<svg xmlns="http://www.w3.org/2000/svg" xmlns:xlink="http://www.w3.org/1999/xlink" width="30pt" height="30pt" viewBox="0 0 30 30" version="1.1">
<g id="surface2416">
<path style=" stroke:none;fill-rule:nonzero;fill:rgb(69.01961%,75.686276%,83.137256%);fill-opacity:1;" d="M 12.5 20.5 L 17.5 20.5 L 17.5 25.5 L 12.5 25.5 Z M 12.5 20.5 "/>
<path style=" stroke:none;fill-rule:nonzero;fill:rgb(40.000001%,47.450981%,56.078434%);fill-opacity:1;" d="M 17 21 L 17 25 L 13 25 L 13 21 L 17 21 M 18 20 L 12 20 L 12 26 L 18 26 Z M 18 20 "/>
<path style=" stroke:none;fill-rule:nonzero;fill:rgb(85.09804%,94.901961%,100%);fill-opacity:1;" d="M 1.5 3.5 L 28.5 3.5 L 28.5 22.5 L 1.5 22.5 Z M 1.5 3.5 "/>
<path style=" stroke:none;fill-rule:nonzero;fill:rgb(40.000001%,47.450981%,56.078434%);fill-opacity:1;" d="M 28 4 L 28 22 L 2 22 L 2 4 L 28 4 M 29 3 L 1 3 L 1 23 L 29 23 Z M 29 3 "/>
<path style=" stroke:none;fill-rule:nonzero;fill:rgb(40.000001%,47.450981%,56.078434%);fill-opacity:1;" d="M 1 20 L 29 20 L 29 23 L 1 23 Z M 23 27 L 6.75 27 C 6.75 25.894531 7.644531 25 8.75 25 L 21 25 C 22.105469 25 23 25.894531 23 27 Z M 23 27 "/>
<path style=" stroke:none;fill-rule:nonzero;fill:rgb(100%,93.333334%,63.921571%);fill-opacity:1;" d="M 25 21 L 27 21 L 27 22 L 25 22 Z M 25 21 "/>
<path style=" stroke:none;fill-rule:nonzero;fill:rgb(100%,76.862746%,61.176473%);fill-opacity:1;" d="M 5 17.5 C 4.863281 17.5 4.722656 17.4375 4.625 17.328125 C 4.539062 17.238281 4.492188 17.128906 4.5 17.03125 L 4.5 7 C 4.492188 6.851562 4.53125 6.742188 4.613281 6.65625 C 4.707031 6.558594 4.847656 6.5 5 6.5 L 11 6.5 C 11.277344 6.5 11.5 6.722656 11.5 7 L 11.5 17 C 11.5 17.277344 11.277344 17.5 11 17.5 Z M 5 17.5 "/>
<path style=" stroke:none;fill-rule:nonzero;fill:rgb(63.137257%,41.568628%,29.019609%);fill-opacity:1;" d="M 11 7 L 11 17 L 5 16.984375 L 5 7 L 11 7 M 11 6 L 5 6 C 4.449219 6 3.96875 6.414062 4 7 L 4 17 C 3.96875 17.519531 4.449219 18 5 18 L 11 18 C 11.550781 18 12 17.550781 12 17 L 12 7 C 12 6.449219 11.550781 6 11 6 Z M 11 6 "/>
<path style=" stroke:none;fill-rule:nonzero;fill:rgb(94.901961%,98.039216%,100%);fill-opacity:1;" d="M 4.5 8.5 L 11.5 8.5 L 11.5 15.5 L 4.5 15.5 Z M 4.5 8.5 "/>
<path style=" stroke:none;fill-rule:nonzero;fill:rgb(63.137257%,41.568628%,29.019609%);fill-opacity:1;" d="M 11 9 L 11 15 L 5 15 L 5 9 L 11 9 M 12 8 L 4 8 L 4 16 L 12 16 Z M 12 8 "/>
<path style=" stroke:none;fill-rule:nonzero;fill:rgb(100%,76.862746%,61.176473%);fill-opacity:1;" d="M 15 17.5 C 14.863281 17.5 14.722656 17.4375 14.625 17.328125 C 14.539062 17.238281 14.492188 17.128906 14.5 17.03125 L 14.5 7 C 14.492188 6.851562 14.53125 6.742188 14.613281 6.65625 C 14.707031 6.558594 14.847656 6.5 15 6.5 L 25 6.5 C 25.277344 6.5 25.5 6.722656 25.5 7 L 25.5 17 C 25.5 17.277344 25.277344 17.5 25 17.5 Z M 15 17.5 "/>
<path style=" stroke:none;fill-rule:nonzero;fill:rgb(63.137257%,41.568628%,29.019609%);fill-opacity:1;" d="M 25 7 L 25 17 L 15 16.984375 L 15 7 L 25 7 M 25 6 L 15 6 C 14.449219 6 13.96875 6.414062 14 7 L 14 17 C 13.96875 17.519531 14.449219 18 15 18 L 25 18 C 25.550781 18 26 17.550781 26 17 L 26 7 C 26 6.449219 25.550781 6 25 6 Z M 25 6 "/>
<path style=" stroke:none;fill-rule:nonzero;fill:rgb(94.901961%,98.039216%,100%);fill-opacity:1;" d="M 14.5 8.5 L 25.5 8.5 L 25.5 15.5 L 14.5 15.5 Z M 14.5 8.5 "/>
<path style=" stroke:none;fill-rule:nonzero;fill:rgb(63.137257%,41.568628%,29.019609%);fill-opacity:1;" d="M 25 9 L 25 15 L 15 15 L 15 9 L 25 9 M 26 8 L 14 8 L 14 16 L 26 16 Z M 26 8 "/>
</g>
</svg>
