<?xml version="1.0" encoding="UTF-8"?>
<svg xmlns="http://www.w3.org/2000/svg" xmlns:xlink="http://www.w3.org/1999/xlink" width="30pt" height="30pt" viewBox="0 0 30 30" version="1.1">
<g id="surface3667">
<path style=" stroke:none;fill-rule:nonzero;fill:rgb(96.078432%,80.784315%,52.156866%);fill-opacity:1;" d="M 3.800781 18.300781 C 6.398438 17.898438 12 16.601562 15.101562 11.5 L 26.5 17.800781 C 23.101562 23.5 19.199219 27.300781 18.101562 28.300781 Z M 3.800781 18.300781 "/>
<path style=" stroke:none;fill-rule:nonzero;fill:rgb(58.823532%,47.843137%,26.666668%);fill-opacity:1;" d="M 15.300781 12.199219 L 25.800781 18 C 22.800781 22.898438 19.398438 26.398438 18 27.699219 L 5 18.601562 C 7.898438 18 12.398438 16.398438 15.300781 12.199219 M 14.898438 10.800781 C 11 17.601562 2.398438 17.898438 2.398438 17.898438 L 18.101562 29 C 18.101562 29 23.101562 24.699219 27.199219 17.699219 Z M 14.898438 10.800781 "/>
<path style=" stroke:none;fill-rule:nonzero;fill:rgb(54.509807%,71.764708%,94.117647%);fill-opacity:1;" d="M 15.101562 11.5 L 15.398438 11 C 15.699219 10.5 16.199219 10.101562 16.699219 9.898438 C 17 9.800781 17.300781 9.800781 17.5 9.800781 C 17.898438 9.800781 18.300781 9.898438 18.699219 10.101562 L 20.601562 11.199219 L 26.699219 2 C 26.898438 1.699219 27.199219 1.5 27.601562 1.5 C 27.800781 1.5 27.898438 1.5 28.101562 1.601562 C 28.601562 1.898438 28.800781 2.398438 28.5 2.898438 L 23.898438 13 L 25.699219 14 C 26.199219 14.300781 26.601562 14.699219 26.800781 15.199219 L 26.898438 15.398438 C 27.199219 16.101562 27.101562 16.898438 26.800781 17.5 L 26.601562 17.898438 Z M 15.101562 11.5 "/>
<path style=" stroke:none;fill-rule:nonzero;fill:rgb(30.588236%,47.843137%,70.980394%);fill-opacity:1;" d="M 27.601562 2 C 27.699219 2 27.800781 2 27.898438 2.101562 C 28.101562 2.199219 28.199219 2.5 28.101562 2.800781 L 23.601562 12.398438 L 23.199219 13.199219 L 24 13.699219 L 25.398438 14.5 C 25.800781 14.699219 26.101562 15.101562 26.300781 15.5 L 26.398438 15.699219 C 26.601562 16.199219 26.601562 16.800781 26.300781 17.300781 L 15.800781 11.5 C 16 11.101562 16.398438 10.800781 16.898438 10.601562 C 17.101562 10.5 17.300781 10.5 17.601562 10.5 C 17.898438 10.5 18.300781 10.601562 18.601562 10.800781 L 20.101562 11.601562 L 20.898438 12.101562 L 21.398438 11.300781 L 27.300781 2.398438 C 27.300781 2.101562 27.398438 2 27.601562 2 M 27.601562 1 C 27.101562 1 26.601562 1.199219 26.300781 1.699219 L 20.398438 10.601562 L 19 9.699219 C 18.601562 9.398438 18 9.300781 17.5 9.300781 C 17.199219 9.300781 16.800781 9.398438 16.5 9.5 C 15.800781 9.699219 15.300781 10.199219 14.898438 10.800781 L 14.398438 11.699219 L 26.601562 18.5 L 27 17.699219 C 27.398438 16.898438 27.5 16 27.199219 15.101562 L 27.199219 15 C 26.898438 14.398438 26.5 13.800781 25.898438 13.5 L 24.5 12.699219 L 29 3.101562 C 29.300781 2.398438 29.101562 1.5 28.398438 1.101562 C 28.101562 1 27.898438 1 27.601562 1 Z M 27.601562 1 "/>
<path style=" stroke:none;fill-rule:nonzero;fill:rgb(58.823532%,47.843137%,26.666668%);fill-opacity:1;" d="M 8 21.199219 L 9.800781 22.5 C 9.800781 22.5 12.101562 21.101562 15.300781 17.300781 C 11.898438 20.101562 8 21.199219 8 21.199219 Z M 13.300781 25.300781 L 15 26.398438 C 15 26.398438 16.300781 25.800781 18.199219 23.398438 C 15.699219 25.300781 13.300781 25.300781 13.300781 25.300781 Z M 13.300781 25.300781 "/>
<path style=" stroke:none;fill-rule:nonzero;fill:rgb(69.01961%,75.686276%,83.137256%);fill-opacity:1;" d="M 3.5 5.5 C 2.394531 5.5 1.5 6.394531 1.5 7.5 C 1.5 8.605469 2.394531 9.5 3.5 9.5 C 4.605469 9.5 5.5 8.605469 5.5 7.5 C 5.5 6.394531 4.605469 5.5 3.5 5.5 Z M 3.5 5.5 "/>
<path style=" stroke:none;fill-rule:nonzero;fill:rgb(40.000001%,47.450981%,56.078434%);fill-opacity:1;" d="M 3.5 6 C 4.300781 6 5 6.699219 5 7.5 C 5 8.300781 4.300781 9 3.5 9 C 2.699219 9 2 8.300781 2 7.5 C 2 6.699219 2.699219 6 3.5 6 M 3.5 5 C 2.101562 5 1 6.101562 1 7.5 C 1 8.898438 2.101562 10 3.5 10 C 4.898438 10 6 8.898438 6 7.5 C 6 6.101562 4.898438 5 3.5 5 Z M 3.5 5 "/>
<path style=" stroke:none;fill-rule:nonzero;fill:rgb(69.01961%,75.686276%,83.137256%);fill-opacity:1;" d="M 7.5 11.5 C 6.949219 11.5 6.5 11.949219 6.5 12.5 C 6.5 13.050781 6.949219 13.5 7.5 13.5 C 8.050781 13.5 8.5 13.050781 8.5 12.5 C 8.5 11.949219 8.050781 11.5 7.5 11.5 Z M 7.5 11.5 "/>
<path style=" stroke:none;fill-rule:nonzero;fill:rgb(40.000001%,47.450981%,56.078434%);fill-opacity:1;" d="M 7.5 12 C 7.800781 12 8 12.199219 8 12.5 C 8 12.800781 7.800781 13 7.5 13 C 7.199219 13 7 12.800781 7 12.5 C 7 12.199219 7.199219 12 7.5 12 M 7.5 11 C 6.699219 11 6 11.699219 6 12.5 C 6 13.300781 6.699219 14 7.5 14 C 8.300781 14 9 13.300781 9 12.5 C 9 11.699219 8.300781 11 7.5 11 Z M 7.5 11 "/>
<path style=" stroke:none;fill-rule:nonzero;fill:rgb(78.039217%,26.274511%,26.274511%);fill-opacity:1;" d="M 25 20.800781 C 24.898438 20.800781 24.898438 20.800781 25 20.800781 C 23.800781 20.699219 22.398438 19.898438 21.800781 19.101562 C 20.398438 19.101562 19 18.300781 18.398438 17.398438 C 17 17.199219 15.898438 16.5 15.300781 15.601562 C 13.5 15.398438 12.800781 13.800781 12.800781 13.800781 C 12.699219 13.5 12.800781 13.300781 13.101562 13.199219 C 13.398438 13.101562 13.601562 13.199219 13.699219 13.5 C 13.699219 13.601562 14.199219 14.699219 15.601562 14.699219 C 15.800781 14.699219 16 14.800781 16 15 C 16.300781 15.800781 17.300781 16.300781 18.699219 16.5 C 18.898438 16.5 19 16.601562 19.101562 16.800781 C 19.398438 17.398438 20.601562 18.300781 21.898438 18.199219 C 22.101562 18.199219 22.300781 18.300781 22.398438 18.5 C 22.699219 19 23.898438 19.898438 24.898438 20 C 25.199219 20 25.398438 20.300781 25.398438 20.5 C 25.398438 20.601562 25.199219 20.800781 25 20.800781 Z M 25 20.800781 "/>
</g>
</svg>
