<?xml version="1.0" encoding="UTF-8"?>
<svg xmlns="http://www.w3.org/2000/svg" xmlns:xlink="http://www.w3.org/1999/xlink" width="30pt" height="30pt" viewBox="0 0 30 30" version="1.1">
<g id="surface1700">
<path style=" stroke:none;fill-rule:nonzero;fill:rgb(100%,100%,100%);fill-opacity:1;" d="M 3.5 27.5 L 3.5 2.5 L 16.792969 2.5 L 22.5 8.207031 L 22.5 27.5 Z M 3.5 27.5 "/>
<path style=" stroke:none;fill-rule:nonzero;fill:rgb(47.058824%,54.509807%,61.176473%);fill-opacity:1;" d="M 16.585938 3 L 22 8.414062 L 22 27 L 4 27 L 4 3 L 16.585938 3 M 17 2 L 3 2 L 3 28 L 23 28 L 23 8 Z M 17 2 "/>
<path style=" stroke:none;fill-rule:nonzero;fill:rgb(100%,100%,100%);fill-opacity:1;" d="M 16.5 8.5 L 16.5 2.5 L 16.792969 2.5 L 22.5 8.207031 L 22.5 8.5 Z M 16.5 8.5 "/>
<path style=" stroke:none;fill-rule:nonzero;fill:rgb(47.058824%,54.509807%,61.176473%);fill-opacity:1;" d="M 17 3.414062 L 21.585938 8 L 17 8 L 17 3.414062 M 17 2 L 16 2 L 16 9 L 23 9 L 23 8 Z M 17 2 "/>
<path style=" stroke:none;fill-rule:nonzero;fill:rgb(83.92157%,89.019608%,92.941177%);fill-opacity:1;" d="M 22 15 L 22 27 L 20 27 L 21 28 L 23 28 L 23 16 Z M 22 15 "/>
<path style=" stroke:none;fill-rule:nonzero;fill:rgb(72.941178%,87.843138%,74.117649%);fill-opacity:1;" d="M 6 25 L 9 25 L 9 24 L 6 24 Z M 11 25 L 15 25 L 15 24 L 11 24 Z M 6 23 L 9 23 L 9 22 L 6 22 Z M 11 23 L 15 23 L 15 22 L 11 22 Z M 6 21 L 9 21 L 9 20 L 6 20 Z M 11 21 L 15 21 L 15 20 L 11 20 Z M 17 21 L 20 21 L 20 20 L 17 20 Z M 6 19 L 9 19 L 9 18 L 6 18 Z M 11 19 L 15 19 L 15 18 L 11 18 Z M 17 19 L 20 19 L 20 18 L 17 18 Z M 6 17 L 9 17 L 9 16 L 6 16 Z M 11 17 L 15 17 L 15 16 L 11 16 Z M 17 17 L 20 17 L 20 16 L 17 16 Z M 6 15 L 9 15 L 9 14 L 6 14 Z M 11 15 L 15 15 L 15 14 L 11 14 Z M 17 15 L 20 15 L 20 14 L 17 14 Z M 6 13 L 9 13 L 9 12 L 6 12 Z M 11 13 L 15 13 L 15 12 L 11 12 Z M 17 12 L 17 13 L 20 13 L 20 12 Z M 6 10 L 9 10 L 9 9 L 6 9 Z M 11 10 L 15 10 L 15 9 L 11 9 Z M 6 8 L 9 8 L 9 7 L 6 7 Z M 11 8 L 15 8 L 15 7 L 11 7 Z M 11 8 "/>
<path style=" stroke:none;fill-rule:nonzero;fill:rgb(36.862746%,61.176473%,46.27451%);fill-opacity:1;" d="M 3 11 L 23 11 L 23 21 L 3 21 Z M 3 11 "/>
<path style=" stroke:none;fill-rule:nonzero;fill:rgb(72.941178%,87.843138%,74.117649%);fill-opacity:1;" d="M 23 21 L 21 21 L 21 17 C 21 16.449219 21.449219 16 22 16 L 23 16 Z M 23 21 "/>
<path style=" stroke:none;fill-rule:nonzero;fill:rgb(100%,100%,100%);fill-opacity:1;" d="M 9.257812 14.144531 L 9.257812 14.53125 L 7.972656 14.53125 L 7.972656 14.203125 C 7.972656 13.609375 7.421875 13.484375 7.179688 13.484375 C 6.859375 13.484375 6.386719 13.5625 6.386719 14.289062 L 6.386719 17.808594 C 6.386719 18.007812 6.390625 18.515625 7.164062 18.515625 C 7.894531 18.515625 7.972656 17.953125 7.972656 17.816406 L 7.972656 17.480469 L 9.257812 17.480469 L 9.257812 17.90625 C 9.257812 18.472656 8.6875 19.5 7.21875 19.5 C 6.972656 19.5 5.101562 19.472656 5.101562 17.875 L 5.101562 14.085938 C 5.101562 13.382812 5.699219 12.5 7.191406 12.5 C 9.007812 12.5 9.257812 13.761719 9.257812 14.144531 Z M 13.484375 12.5 C 11.34375 12.5 11.277344 14.128906 11.277344 14.386719 C 11.277344 15.722656 12.121094 15.980469 12.675781 16.15625 L 13.597656 16.445312 C 14.171875 16.648438 14.339844 16.683594 14.339844 17.488281 C 14.339844 18.320312 14.097656 18.515625 13.40625 18.515625 C 12.671875 18.515625 12.5 18.105469 12.5 17.808594 L 12.5 17.5 L 11.214844 17.5 L 11.214844 17.867188 C 11.214844 19.0625 12.574219 19.5 13.40625 19.5 C 15.132812 19.5 15.625 18.554688 15.625 17.480469 C 15.625 16.097656 15.023438 15.84375 14.277344 15.59375 L 13.296875 15.296875 C 12.550781 15.070312 12.597656 14.8125 12.582031 14.71875 C 12.570312 14.628906 12.5625 14.511719 12.5625 14.378906 C 12.5625 13.480469 13.257812 13.488281 13.433594 13.488281 C 14.234375 13.488281 14.339844 14.09375 14.339844 14.320312 L 14.339844 14.539062 L 15.625 14.539062 L 15.625 14.058594 C 15.625 13.535156 15.058594 12.5 13.484375 12.5 Z M 20.144531 12.558594 L 19.109375 17.363281 L 19.085938 17.363281 L 18.066406 12.558594 L 16.703125 12.558594 L 18.53125 19.441406 L 19.664062 19.441406 L 21.507812 12.558594 Z M 20.144531 12.558594 "/>
<path style=" stroke:none;fill-rule:nonzero;fill:rgb(61.176473%,67.450982%,74.117649%);fill-opacity:1;" d="M 19.085938 23.5 L 22.5 23.5 L 22.5 17.5 L 25.5 17.5 L 25.5 23.5 L 28.914062 23.5 L 24 29.230469 Z M 19.085938 23.5 "/>
<path style=" stroke:none;fill-rule:nonzero;fill:rgb(21.176471%,25.098041%,30.19608%);fill-opacity:1;" d="M 25 18 L 25 24 L 27.824219 24 L 24 28.464844 L 20.175781 24 L 23 24 L 23 18 L 25 18 M 26 17 L 22 17 L 22 23 L 18 23 L 24 30 L 30 23 L 26 23 Z M 26 17 "/>
</g>
</svg>
