<?xml version="1.0" encoding="UTF-8"?>
<svg xmlns="http://www.w3.org/2000/svg" xmlns:xlink="http://www.w3.org/1999/xlink" width="30pt" height="30pt" viewBox="0 0 30 30" version="1.1">
<g id="surface63">
<path style=" stroke:none;fill-rule:nonzero;fill:rgb(86.274511%,83.529413%,94.901961%);fill-opacity:1;" d="M 15 28.5 C 9.300781 28.5 4.5 26.398438 4.5 24 L 4.5 5.5 L 25.5 5.5 L 25.5 24 C 25.5 26.398438 20.699219 28.5 15 28.5 Z M 15 28.5 "/>
<path style=" stroke:none;fill-rule:nonzero;fill:rgb(54.509807%,45.882353%,63.137257%);fill-opacity:1;" d="M 25 6 L 25 24 C 25 25.898438 20.699219 28 15 28 C 9.300781 28 5 25.898438 5 24 L 5 6 L 25 6 M 26 5 L 4 5 C 4 5 4 23.101562 4 24 C 4 26.800781 8.898438 29 15 29 C 21.101562 29 26 26.800781 26 24 C 26 23.101562 26 5 26 5 Z M 26 5 "/>
<path style=" stroke:none;fill-rule:nonzero;fill:rgb(86.274511%,83.529413%,94.901961%);fill-opacity:1;" d="M 15 8.5 C 8.800781 8.5 4.5 6.699219 4.5 5 C 4.5 3.300781 8.800781 1.5 15 1.5 C 21.199219 1.5 25.5 3.300781 25.5 5 C 25.5 6.699219 21.199219 8.5 15 8.5 Z M 15 8.5 "/>
<path style=" stroke:none;fill-rule:nonzero;fill:rgb(54.509807%,45.882353%,63.137257%);fill-opacity:1;" d="M 15 2 C 21 2 25 3.800781 25 5 C 25 6.199219 21 8 15 8 C 9 8 5 6.199219 5 5 C 5 3.800781 9 2 15 2 M 15 1 C 8.898438 1 4 2.800781 4 5 C 4 7.199219 8.898438 9 15 9 C 21.101562 9 26 7.199219 26 5 C 26 2.800781 21.101562 1 15 1 Z M 15 23 C 9.699219 23 4 21.5 4 18.699219 L 5 18.699219 C 5 20.300781 9.101562 22 15 22 C 20.898438 22 25 20.300781 25 18.699219 L 26 18.699219 C 26 21.5 20.300781 23 15 23 Z M 15 16 C 9.699219 16 4 14.5 4 11.699219 L 5 11.699219 C 5 13.300781 9.101562 15 15 15 C 20.898438 15 25 13.300781 25 11.699219 L 26 11.699219 C 26 14.5 20.300781 16 15 16 Z M 15 16 "/>
<path style=" stroke:none;fill-rule:nonzero;fill:rgb(61.176473%,67.450982%,74.117649%);fill-opacity:1;" d="M 19.101562 23.5 L 22.5 23.5 L 22.5 17.5 L 25.5 17.5 L 25.5 23.5 L 28.898438 23.5 L 24 29.199219 Z M 19.101562 23.5 "/>
<path style=" stroke:none;fill-rule:nonzero;fill:rgb(21.176471%,25.098041%,30.19608%);fill-opacity:1;" d="M 25 18 L 25 24 L 27.800781 24 L 24 28.5 L 20.199219 24 L 23 24 L 23 18 L 25 18 M 26 17 L 22 17 L 22 23 L 18 23 L 24 30 L 30 23 L 26 23 Z M 26 17 "/>
<path style=" stroke:none;fill-rule:nonzero;fill:rgb(86.274511%,83.529413%,94.901961%);fill-opacity:1;" d="M 18 23 L 22 23 L 22 17 L 26 17 C 26 16.699219 26 16.300781 26 16 L 21 16 L 21 20 L 15.800781 22 L 21.101562 28.199219 C 21.5 28.101562 21.800781 28 22.101562 27.800781 Z M 18 23 "/>
</g>
</svg>
