<?xml version="1.0" encoding="UTF-8"?>
<svg xmlns="http://www.w3.org/2000/svg" xmlns:xlink="http://www.w3.org/1999/xlink" width="30pt" height="30pt" viewBox="0 0 30 30" version="1.1">
<g id="surface1824">
<path style=" stroke:none;fill-rule:nonzero;fill:rgb(100%,93.333334%,63.921571%);fill-opacity:1;" d="M 11.734375 12.8125 L 16.605469 7.941406 L 18.144531 9.476562 L 13.269531 14.351562 Z M 11.734375 12.8125 "/>
<path style=" stroke:none;fill-rule:nonzero;fill:rgb(72.941178%,60.784316%,28.235295%);fill-opacity:1;" d="M 16.605469 8.644531 L 17.4375 9.476562 L 13.269531 13.640625 L 12.441406 12.8125 L 16.605469 8.644531 M 16.605469 7.230469 L 15.898438 7.9375 L 11.734375 12.105469 L 11.027344 12.8125 L 13.269531 15.054688 L 13.976562 14.347656 L 18.144531 10.183594 L 18.851562 9.476562 L 18.144531 8.769531 L 17.3125 7.941406 Z M 16.605469 7.230469 "/>
<path style=" stroke:none;fill-rule:nonzero;fill:rgb(100%,93.333334%,63.921571%);fill-opacity:1;" d="M 15.734375 16.8125 L 20.605469 11.941406 L 22.144531 13.476562 L 17.269531 18.351562 Z M 15.734375 16.8125 "/>
<path style=" stroke:none;fill-rule:nonzero;fill:rgb(72.941178%,60.784316%,28.235295%);fill-opacity:1;" d="M 20.605469 12.644531 L 21.4375 13.476562 L 17.269531 17.640625 L 16.441406 16.8125 L 20.605469 12.644531 M 20.605469 11.230469 L 19.898438 11.9375 L 15.734375 16.105469 L 15.027344 16.8125 L 17.269531 19.054688 L 17.976562 18.347656 L 22.144531 14.183594 L 22.851562 13.476562 Z M 20.605469 11.230469 "/>
<path style=" stroke:none;fill-rule:nonzero;fill:rgb(69.01961%,75.686276%,83.137256%);fill-opacity:1;" d="M 15.617188 5.949219 L 19.074219 2.488281 C 19.714844 1.851562 20.5625 1.5 21.464844 1.5 C 22.367188 1.5 23.214844 1.851562 23.855469 2.488281 L 25 3.632812 L 26.925781 1.707031 L 28.292969 3.074219 L 26.367188 5 L 27.511719 6.144531 C 28.148438 6.785156 28.5 7.632812 28.5 8.535156 C 28.5 9.4375 28.148438 10.285156 27.511719 10.925781 L 24.050781 14.382812 Z M 15.617188 5.949219 "/>
<path style=" stroke:none;fill-rule:nonzero;fill:rgb(40.000001%,47.450981%,56.078434%);fill-opacity:1;" d="M 21.464844 2 C 22.234375 2 22.957031 2.300781 23.5 2.84375 L 24.996094 4.339844 L 25.703125 3.632812 L 26.925781 2.414062 L 27.585938 3.074219 L 26.363281 4.292969 L 25.65625 5 L 27.15625 6.5 C 28.277344 7.621094 28.277344 9.449219 27.15625 10.570312 L 24.050781 13.675781 L 16.324219 5.949219 L 19.429688 2.84375 C 19.972656 2.300781 20.695312 2 21.464844 2 M 21.464844 1 C 20.472656 1 19.480469 1.378906 18.722656 2.136719 L 14.910156 5.949219 L 24.050781 15.089844 L 27.863281 11.277344 C 29.378906 9.761719 29.378906 7.308594 27.863281 5.792969 L 27.074219 5 L 29 3.074219 L 26.925781 1 L 25 2.925781 L 24.207031 2.136719 C 23.449219 1.378906 22.457031 1 21.464844 1 Z M 21.464844 1 "/>
<path style=" stroke:none;fill-rule:nonzero;fill:rgb(69.01961%,75.686276%,83.137256%);fill-opacity:1;" d="M 12.867188 7.140625 L 13.945312 6.058594 C 14.234375 5.773438 14.617188 5.613281 15.027344 5.613281 C 15.433594 5.613281 15.820312 5.773438 16.105469 6.058594 L 23.941406 13.894531 C 24.535156 14.488281 24.535156 15.457031 23.941406 16.054688 L 22.859375 17.132812 Z M 12.867188 7.140625 "/>
<path style=" stroke:none;fill-rule:nonzero;fill:rgb(40.000001%,47.450981%,56.078434%);fill-opacity:1;" d="M 15.027344 6.113281 C 15.300781 6.113281 15.558594 6.21875 15.753906 6.414062 L 23.585938 14.246094 C 23.988281 14.648438 23.988281 15.300781 23.585938 15.699219 L 22.859375 16.425781 L 13.574219 7.140625 L 14.300781 6.414062 C 14.496094 6.21875 14.753906 6.113281 15.027344 6.113281 M 15.027344 5.113281 C 14.507812 5.113281 13.988281 5.3125 13.59375 5.707031 L 12.160156 7.140625 L 22.859375 17.839844 L 24.292969 16.40625 C 25.085938 15.613281 25.085938 14.332031 24.292969 13.539062 L 16.460938 5.707031 C 16.066406 5.3125 15.546875 5.113281 15.027344 5.113281 Z M 15.027344 5.113281 "/>
<path style=" stroke:none;fill-rule:nonzero;fill:rgb(69.01961%,75.686276%,83.137256%);fill-opacity:1;" d="M 8.535156 28.5 C 7.632812 28.5 6.785156 28.148438 6.144531 27.511719 L 5 26.367188 L 3.074219 28.292969 L 1.707031 26.925781 L 3.632812 25 L 2.488281 23.855469 C 1.851562 23.214844 1.5 22.367188 1.5 21.464844 C 1.5 20.5625 1.851562 19.714844 2.488281 19.074219 L 5.949219 15.617188 L 14.382812 24.050781 L 10.925781 27.511719 C 10.285156 28.148438 9.4375 28.5 8.535156 28.5 Z M 8.535156 28.5 "/>
<path style=" stroke:none;fill-rule:nonzero;fill:rgb(40.000001%,47.450981%,56.078434%);fill-opacity:1;" d="M 5.949219 16.324219 L 13.675781 24.050781 L 10.570312 27.15625 C 10.027344 27.699219 9.304688 28 8.535156 28 C 7.765625 28 7.042969 27.699219 6.5 27.15625 L 5.003906 25.660156 L 4.296875 26.367188 L 3.074219 27.585938 L 2.414062 26.925781 L 3.636719 25.707031 L 4.34375 25 L 2.84375 23.5 C 1.722656 22.378906 1.722656 20.550781 2.84375 19.429688 L 5.949219 16.324219 M 5.949219 14.910156 L 2.136719 18.722656 C 0.621094 20.238281 0.621094 22.691406 2.136719 24.207031 L 2.925781 24.996094 L 1 26.925781 L 3.074219 29 L 5 27.074219 L 5.792969 27.863281 C 6.550781 28.621094 7.542969 29 8.535156 29 C 9.527344 29 10.519531 28.621094 11.277344 27.863281 L 15.089844 24.050781 Z M 5.949219 14.910156 "/>
<path style=" stroke:none;fill-rule:nonzero;fill:rgb(69.01961%,75.686276%,83.137256%);fill-opacity:1;" d="M 14.972656 24.386719 C 14.566406 24.386719 14.179688 24.226562 13.894531 23.941406 L 6.058594 16.105469 C 5.464844 15.511719 5.464844 14.542969 6.058594 13.945312 L 7.140625 12.867188 L 17.132812 22.859375 L 16.054688 23.941406 C 15.765625 24.226562 15.382812 24.386719 14.972656 24.386719 Z M 14.972656 24.386719 "/>
<path style=" stroke:none;fill-rule:nonzero;fill:rgb(40.000001%,47.450981%,56.078434%);fill-opacity:1;" d="M 7.140625 13.574219 L 16.425781 22.859375 L 15.699219 23.585938 C 15.503906 23.777344 15.246094 23.886719 14.972656 23.886719 C 14.699219 23.886719 14.441406 23.777344 14.246094 23.585938 L 6.414062 15.753906 C 6.011719 15.351562 6.011719 14.699219 6.414062 14.300781 L 7.140625 13.574219 M 7.140625 12.160156 L 5.707031 13.59375 C 4.914062 14.386719 4.914062 15.667969 5.707031 16.460938 L 13.539062 24.292969 C 13.9375 24.6875 14.453125 24.886719 14.972656 24.886719 C 15.492188 24.886719 16.011719 24.6875 16.40625 24.292969 L 17.839844 22.859375 Z M 7.140625 12.160156 "/>
</g>
</svg>
