<?xml version="1.0" encoding="UTF-8"?>
<svg xmlns="http://www.w3.org/2000/svg" xmlns:xlink="http://www.w3.org/1999/xlink" width="30pt" height="30pt" viewBox="0 0 30 30" version="1.1">
<g id="surface280">
<path style=" stroke:none;fill-rule:nonzero;fill:rgb(100%,76.862746%,61.176473%);fill-opacity:1;" d="M 2.5 27.5 L 2.5 7.199219 L 5.300781 3.5 L 24.800781 3.5 L 27.5 7.199219 L 27.5 27.5 Z M 2.5 27.5 "/>
<path style=" stroke:none;fill-rule:nonzero;fill:rgb(63.137257%,41.568628%,29.019609%);fill-opacity:1;" d="M 24.5 4 L 27 7.300781 L 27 27 L 3 27 L 3 7.300781 L 5.5 4 L 24.5 4 M 25 3 L 5 3 L 2 7 L 2 28 L 28 28 L 28 7 Z M 25 3 "/>
<path style=" stroke:none;fill-rule:nonzero;fill:rgb(83.92157%,59.215689%,42.745098%);fill-opacity:1;" d="M 2.5 7.5 L 2.5 7.199219 L 5.300781 3.5 L 24.800781 3.5 L 27.5 7.199219 L 27.5 7.5 Z M 2.5 7.5 "/>
<path style=" stroke:none;fill-rule:nonzero;fill:rgb(63.137257%,41.568628%,29.019609%);fill-opacity:1;" d="M 24.5 4 L 26.800781 7 L 3.300781 7 L 5.601562 4 L 24.5 4 M 25 3 L 5 3 L 2 7 L 2 8 L 28 8 L 28 7 Z M 25 3 "/>
<path style=" stroke:none;fill-rule:nonzero;fill:rgb(88.235295%,92.156863%,94.901961%);fill-opacity:1;" d="M 4.300781 7.5 L 11 1.601562 L 19.398438 7.5 Z M 4.300781 7.5 "/>
<path style=" stroke:none;fill-rule:nonzero;fill:rgb(47.058824%,54.509807%,61.176473%);fill-opacity:1;" d="M 11.101562 2.300781 L 17.800781 7 L 5.699219 7 L 11.101562 2.300781 M 11 1 L 3 8 L 21 8 Z M 11 1 "/>
<path style=" stroke:none;fill-rule:nonzero;fill:rgb(100%,100%,100%);fill-opacity:1;" d="M 8 7.5 L 18.898438 1.601562 L 25.699219 7.5 Z M 8 7.5 "/>
<path style=" stroke:none;fill-rule:nonzero;fill:rgb(47.058824%,54.509807%,61.176473%);fill-opacity:1;" d="M 18.898438 2.199219 L 24.300781 7 L 10 7 L 18.898438 2.199219 M 19 1 L 6 8 L 27 8 Z M 19 1 "/>
<path style=" stroke:none;fill-rule:nonzero;fill:rgb(63.137257%,41.568628%,29.019609%);fill-opacity:1;" d="M 19 12 L 11 12 C 10.398438 12 10 11.601562 10 11 C 10 10.398438 10.398438 10 11 10 L 19 10 C 19.601562 10 20 10.398438 20 11 C 20 11.601562 19.601562 12 19 12 Z M 2 7 L 28 7 L 28 8 L 2 8 Z M 2 7 "/>
</g>
</svg>
