<?xml version="1.0" encoding="UTF-8"?>
<svg xmlns="http://www.w3.org/2000/svg" xmlns:xlink="http://www.w3.org/1999/xlink" width="30pt" height="30pt" viewBox="0 0 30 30" version="1.1">
<g id="surface4445">
<path style=" stroke:none;fill-rule:nonzero;fill:rgb(100%,100%,100%);fill-opacity:1;" d="M 5.5 1.5 L 28.5 1.5 L 28.5 23.5 L 5.5 23.5 Z M 5.5 1.5 "/>
<path style=" stroke:none;fill-rule:nonzero;fill:rgb(47.058824%,54.509807%,61.176473%);fill-opacity:1;" d="M 28 2 L 28 23 L 6 23 L 6 2 L 28 2 M 29 1 L 5 1 L 5 24 L 29 24 Z M 29 1 "/>
<path style=" stroke:none;fill-rule:nonzero;fill:rgb(47.058824%,54.509807%,61.176473%);fill-opacity:1;" d="M 5 1 L 29 1 L 29 5 L 5 5 Z M 5 1 "/>
<path style=" stroke:none;fill-rule:nonzero;fill:rgb(78.431374%,81.960785%,85.882354%);fill-opacity:1;" d="M 11 24 L 6 24 L 6 23 L 12 23 Z M 5 19 L 5 24 L 6 24 L 6 18 Z M 5 19 "/>
<path style=" stroke:none;fill-rule:nonzero;fill:rgb(54.509807%,71.764708%,94.117647%);fill-opacity:1;" d="M 1.707031 26.59375 L 14.503906 13.796875 L 12.207031 11.5 L 18.5 11.5 L 18.5 17.792969 L 16.203125 15.496094 L 3.40625 28.292969 Z M 1.707031 26.59375 "/>
<path style=" stroke:none;fill-rule:nonzero;fill:rgb(30.588236%,47.843137%,70.980394%);fill-opacity:1;" d="M 18 12 L 18 16.585938 L 16.203125 14.789062 L 3.40625 27.585938 L 2.414062 26.59375 L 15.210938 13.796875 L 13.414062 12 L 18 12 M 19 11 L 11 11 L 13.796875 13.796875 L 1 26.59375 L 3.40625 29 L 16.203125 16.203125 L 19 19 Z M 19 11 "/>
</g>
</svg>
