<?xml version="1.0" encoding="UTF-8"?>
<svg xmlns="http://www.w3.org/2000/svg" xmlns:xlink="http://www.w3.org/1999/xlink" width="12pt" height="12pt" viewBox="0 0 12 12" version="1.1">
<g id="surface162">
<path style=" stroke:none;fill-rule:nonzero;fill:rgb(90.980393%,83.137256%,48.235294%);fill-opacity:1;" d="M 0.375 10.125 L 0.375 1.125 L 3.601562 1.125 L 5.101562 2.625 L 11.625 2.625 L 11.625 10.125 Z M 0.375 10.125 "/>
<path style=" stroke:none;fill-rule:nonzero;fill:rgb(72.941178%,60.784316%,28.235295%);fill-opacity:1;" d="M 3.449219 1.5 L 4.726562 2.773438 L 4.949219 3 L 11.25 3 L 11.25 9.75 L 0.75 9.75 L 0.75 1.5 L 3.449219 1.5 M 3.75 0.75 L 0 0.75 L 0 10.5 L 12 10.5 L 12 2.25 L 5.25 2.25 Z M 3.75 0.75 "/>
<path style=" stroke:none;fill-rule:nonzero;fill:rgb(100%,93.333334%,63.921571%);fill-opacity:1;" d="M 0.375 10.875 L 0.375 3.375 L 3.824219 3.375 L 5.324219 2.625 L 11.625 2.625 L 11.625 10.875 Z M 0.375 10.875 "/>
<path style=" stroke:none;fill-rule:nonzero;fill:rgb(72.941178%,60.784316%,28.235295%);fill-opacity:1;" d="M 11.25 3 L 11.25 10.5 L 0.75 10.5 L 0.75 3.75 L 3.898438 3.75 L 4.050781 3.675781 L 5.398438 3 L 11.25 3 M 12 2.25 L 5.25 2.25 L 3.75 3 L 0 3 L 0 11.25 L 12 11.25 Z M 12 2.25 "/>
<path style=" stroke:none;fill-rule:nonzero;fill:rgb(100%,93.333334%,63.921571%);fill-opacity:1;" d="M 6.75 2.25 L 12 2.25 L 12 7.5 L 6.75 7.5 Z M 3 9.75 L 9 9.75 L 9 11.25 L 3 11.25 Z M 3 9.75 "/>
<path style=" stroke:none;fill-rule:nonzero;fill:rgb(78.039217%,26.274511%,26.274511%);fill-opacity:1;" d="M 10.5 2.25 C 10.5 3.074219 11.175781 3.75 12 3.75 L 12 2.25 Z M 10.5 2.25 "/>
<path style=" stroke:none;fill-rule:nonzero;fill:rgb(78.039217%,26.274511%,26.274511%);fill-opacity:1;" d="M 12 5.25 C 10.351562 5.25 9 3.898438 9 2.25 L 9.75 2.25 C 9.75 3.523438 10.726562 4.5 12 4.5 Z M 12 5.25 "/>
<path style=" stroke:none;fill-rule:nonzero;fill:rgb(78.039217%,26.274511%,26.274511%);fill-opacity:1;" d="M 12 6.75 C 9.523438 6.75 7.5 4.726562 7.5 2.25 L 8.25 2.25 C 8.25 4.351562 9.898438 6 12 6 Z M 12 6.75 "/>
<path style=" stroke:none;fill-rule:nonzero;fill:rgb(78.039217%,26.274511%,26.274511%);fill-opacity:1;" d="M 5.25 8.25 L 5.25 12 L 6.75 12 L 6.75 8.25 L 8.25 8.25 L 6 6 L 3.75 8.25 Z M 5.25 8.25 "/>
</g>
</svg>
