<?xml version="1.0" encoding="UTF-8"?>
<svg xmlns="http://www.w3.org/2000/svg" xmlns:xlink="http://www.w3.org/1999/xlink" width="30pt" height="30pt" viewBox="0 0 30 30" version="1.1">
<g id="surface3283">
<path style=" stroke:none;fill-rule:nonzero;fill:rgb(54.509807%,71.764708%,94.117647%);fill-opacity:1;" d="M 2.5 27.5 L 2.5 20.207031 L 5 22.707031 L 10 17.707031 L 12.292969 20 L 7.292969 25 L 9.792969 27.5 Z M 2.5 27.5 "/>
<path style=" stroke:none;fill-rule:nonzero;fill:rgb(30.588236%,47.843137%,70.980394%);fill-opacity:1;" d="M 10 18.414062 L 11.585938 20 L 6.585938 25 L 8.585938 27 L 3 27 L 3 21.414062 L 5 23.414062 L 10 18.414062 M 10 17 L 5 22 L 2 19 L 2 28 L 11 28 L 8 25 L 13 20 Z M 10 17 "/>
<path style=" stroke:none;fill-rule:nonzero;fill:rgb(54.509807%,71.764708%,94.117647%);fill-opacity:1;" d="M 5 7.292969 L 2.5 9.792969 L 2.5 2.5 L 9.792969 2.5 L 7.292969 5 L 12.292969 10 L 10 12.292969 Z M 5 7.292969 "/>
<path style=" stroke:none;fill-rule:nonzero;fill:rgb(30.588236%,47.843137%,70.980394%);fill-opacity:1;" d="M 8.585938 3 L 6.585938 5 L 11.585938 10 L 10 11.585938 L 5 6.585938 L 3 8.585938 L 3 3 L 8.585938 3 M 11 2 L 2 2 L 2 11 L 5 8 L 10 13 L 13 10 L 8 5 Z M 11 2 "/>
<path style=" stroke:none;fill-rule:nonzero;fill:rgb(54.509807%,71.764708%,94.117647%);fill-opacity:1;" d="M 20.207031 27.5 L 22.707031 25 L 17.707031 20 L 20 17.707031 L 25 22.707031 L 27.5 20.207031 L 27.5 27.5 Z M 20.207031 27.5 "/>
<path style=" stroke:none;fill-rule:nonzero;fill:rgb(30.588236%,47.843137%,70.980394%);fill-opacity:1;" d="M 20 18.414062 L 25 23.414062 L 27 21.414062 L 27 27 L 21.414062 27 L 23.414062 25 L 18.414062 20 L 20 18.414062 M 20 17 L 17 20 L 22 25 L 19 28 L 28 28 L 28 19 L 25 22 Z M 20 17 "/>
<path style=" stroke:none;fill-rule:nonzero;fill:rgb(54.509807%,71.764708%,94.117647%);fill-opacity:1;" d="M 17.707031 10 L 22.707031 5 L 20.207031 2.5 L 27.5 2.5 L 27.5 9.792969 L 25 7.292969 L 20 12.292969 Z M 17.707031 10 "/>
<path style=" stroke:none;fill-rule:nonzero;fill:rgb(30.588236%,47.843137%,70.980394%);fill-opacity:1;" d="M 27 3 L 27 8.585938 L 25 6.585938 L 20 11.585938 L 18.414062 10 L 23.414062 5 L 21.414062 3 L 27 3 M 28 2 L 19 2 L 22 5 L 17 10 L 20 13 L 25 8 L 28 11 Z M 28 2 "/>
</g>
</svg>
