<?xml version="1.0" encoding="UTF-8"?>
<svg xmlns="http://www.w3.org/2000/svg" xmlns:xlink="http://www.w3.org/1999/xlink" width="30pt" height="30pt" viewBox="0 0 30 30" version="1.1">
<g id="surface1551">
<path style=" stroke:none;fill-rule:nonzero;fill:rgb(86.274511%,83.529413%,94.901961%);fill-opacity:1;" d="M 13.5 13.5 L 21.5 13.5 L 21.5 21.5 L 13.5 21.5 Z M 13.5 13.5 "/>
<path style=" stroke:none;fill-rule:nonzero;fill:rgb(54.509807%,45.882353%,63.137257%);fill-opacity:1;" d="M 21 14 L 21 21 L 14 21 L 14 14 L 21 14 M 22 13 L 13 13 L 13 22 L 22 22 Z M 22 13 "/>
<path style=" stroke:none;fill-rule:nonzero;fill:rgb(40.000001%,47.450981%,56.078434%);fill-opacity:1;" d="M 26 4 L 26 26 L 4 26 L 4 4 L 26 4 M 27 3 L 3 3 L 3 27 L 27 27 Z M 27 3 "/>
<path style=" stroke:none;fill-rule:nonzero;fill:rgb(54.509807%,71.764708%,94.117647%);fill-opacity:1;" d="M 24.5 1.5 L 28.5 1.5 L 28.5 5.5 L 24.5 5.5 Z M 24.5 1.5 "/>
<path style=" stroke:none;fill-rule:nonzero;fill:rgb(30.588236%,47.843137%,70.980394%);fill-opacity:1;" d="M 28 2 L 28 5 L 25 5 L 25 2 L 28 2 M 29 1 L 24 1 L 24 6 L 29 6 Z M 29 1 "/>
<path style=" stroke:none;fill-rule:nonzero;fill:rgb(94.901961%,98.039216%,100%);fill-opacity:1;" d="M 8.5 8.5 L 16.5 8.5 L 16.5 16.5 L 8.5 16.5 Z M 8.5 8.5 "/>
<path style=" stroke:none;fill-rule:nonzero;fill:rgb(47.058824%,54.509807%,61.176473%);fill-opacity:1;" d="M 16 9 L 16 16 L 9 16 L 9 9 L 16 9 M 17 8 L 8 8 L 8 17 L 17 17 Z M 17 8 "/>
<path style=" stroke:none;fill-rule:nonzero;fill:rgb(54.509807%,71.764708%,94.117647%);fill-opacity:1;" d="M 1.5 1.5 L 5.5 1.5 L 5.5 5.5 L 1.5 5.5 Z M 1.5 1.5 "/>
<path style=" stroke:none;fill-rule:nonzero;fill:rgb(30.588236%,47.843137%,70.980394%);fill-opacity:1;" d="M 5 2 L 5 5 L 2 5 L 2 2 L 5 2 M 6 1 L 1 1 L 1 6 L 6 6 Z M 6 1 "/>
<path style=" stroke:none;fill-rule:nonzero;fill:rgb(54.509807%,71.764708%,94.117647%);fill-opacity:1;" d="M 24.5 24.5 L 28.5 24.5 L 28.5 28.5 L 24.5 28.5 Z M 24.5 24.5 "/>
<path style=" stroke:none;fill-rule:nonzero;fill:rgb(30.588236%,47.843137%,70.980394%);fill-opacity:1;" d="M 28 25 L 28 28 L 25 28 L 25 25 L 28 25 M 29 24 L 24 24 L 24 29 L 29 29 Z M 29 24 "/>
<path style=" stroke:none;fill-rule:nonzero;fill:rgb(54.509807%,71.764708%,94.117647%);fill-opacity:1;" d="M 1.5 24.5 L 5.5 24.5 L 5.5 28.5 L 1.5 28.5 Z M 1.5 24.5 "/>
<path style=" stroke:none;fill-rule:nonzero;fill:rgb(30.588236%,47.843137%,70.980394%);fill-opacity:1;" d="M 5 25 L 5 28 L 2 28 L 2 25 L 5 25 M 6 24 L 1 24 L 1 29 L 6 29 Z M 6 24 "/>
</g>
</svg>
