<?xml version="1.0" encoding="UTF-8"?>
<svg xmlns="http://www.w3.org/2000/svg" xmlns:xlink="http://www.w3.org/1999/xlink" width="30pt" height="30pt" viewBox="0 0 30 30" version="1.1">
<g id="surface1785">
<path style=" stroke:none;fill-rule:nonzero;fill:rgb(54.509807%,71.764708%,94.117647%);fill-opacity:1;" d="M 15 28.5 C 7.601562 28.5 1.5 22.398438 1.5 15 C 1.5 7.601562 7.601562 1.5 15 1.5 C 22.398438 1.5 28.5 7.601562 28.5 15 C 28.5 22.398438 22.398438 28.5 15 28.5 Z M 15 28.5 "/>
<path style=" stroke:none;fill-rule:nonzero;fill:rgb(30.588236%,47.843137%,70.980394%);fill-opacity:1;" d="M 15 2 C 22.199219 2 28 7.800781 28 15 C 28 22.199219 22.199219 28 15 28 C 7.800781 28 2 22.199219 2 15 C 2 7.800781 7.800781 2 15 2 M 15 1 C 7.300781 1 1 7.300781 1 15 C 1 22.699219 7.300781 29 15 29 C 22.699219 29 29 22.699219 29 15 C 29 7.300781 22.699219 1 15 1 Z M 15 1 "/>
<path style=" stroke:none;fill-rule:nonzero;fill:rgb(100%,100%,100%);fill-opacity:1;" d="M 15 20.699219 C 14.28125 20.699219 13.699219 21.28125 13.699219 22 C 13.699219 22.71875 14.28125 23.300781 15 23.300781 C 15.71875 23.300781 16.300781 22.71875 16.300781 22 C 16.300781 21.28125 15.71875 20.699219 15 20.699219 Z M 16 18 L 14 18 L 14 17 C 14 15.199219 15 14.300781 15.699219 13.5 C 16.398438 12.800781 17 12.199219 17 11 C 17 9.898438 16.101562 9 15 9 C 13.898438 9 13 9.898438 13 11 L 13 12 L 11 12 L 11 11 C 11 8.800781 12.800781 7 15 7 C 17.199219 7 19 8.800781 19 11 C 19 13 18 14.101562 17.101562 14.898438 C 16.398438 15.601562 16 16.101562 16 17 Z M 16 18 "/>
</g>
</svg>
