<?xml version="1.0" encoding="UTF-8"?>
<svg xmlns="http://www.w3.org/2000/svg" xmlns:xlink="http://www.w3.org/1999/xlink" width="30pt" height="30pt" viewBox="0 0 30 30" version="1.1">
<g id="surface3337">
<path style=" stroke:none;fill-rule:nonzero;fill:rgb(54.509807%,71.764708%,94.117647%);fill-opacity:1;" d="M 18.5 11.5 L 18.5 4.207031 L 21.105469 6.8125 L 26.214844 1.707031 L 28.292969 3.785156 L 23.1875 8.894531 L 25.792969 11.5 Z M 18.5 11.5 "/>
<path style=" stroke:none;fill-rule:nonzero;fill:rgb(30.588236%,47.843137%,70.980394%);fill-opacity:1;" d="M 26.214844 2.414062 L 27.585938 3.785156 L 22.476562 8.894531 L 23.1875 9.601562 L 24.585938 11 L 19 11 L 19 5.414062 L 21.105469 7.519531 L 21.8125 6.8125 L 26.214844 2.414062 M 26.214844 1 L 21.105469 6.105469 L 18 3 L 18 12 L 27 12 L 23.894531 8.894531 L 29 3.785156 Z M 26.214844 1 "/>
<path style=" stroke:none;fill-rule:nonzero;fill:rgb(54.509807%,71.764708%,94.117647%);fill-opacity:1;" d="M 4.207031 11.5 L 6.8125 8.894531 L 1.707031 3.785156 L 3.785156 1.707031 L 8.894531 6.8125 L 11.5 4.207031 L 11.5 11.5 Z M 4.207031 11.5 "/>
<path style=" stroke:none;fill-rule:nonzero;fill:rgb(30.588236%,47.843137%,70.980394%);fill-opacity:1;" d="M 3.785156 2.414062 L 8.1875 6.8125 L 8.894531 7.519531 L 11 5.414062 L 11 11 L 5.414062 11 L 7.519531 8.894531 L 6.8125 8.1875 L 2.414062 3.785156 L 3.785156 2.414062 M 3.785156 1 L 1 3.785156 L 6.105469 8.894531 L 3 12 L 12 12 L 12 3 L 8.894531 6.105469 Z M 3.785156 1 "/>
<path style=" stroke:none;fill-rule:nonzero;fill:rgb(54.509807%,71.764708%,94.117647%);fill-opacity:1;" d="M 1.707031 26.214844 L 6.8125 21.105469 L 4.207031 18.5 L 11.5 18.5 L 11.5 25.792969 L 8.894531 23.1875 L 3.785156 28.292969 Z M 1.707031 26.214844 "/>
<path style=" stroke:none;fill-rule:nonzero;fill:rgb(30.588236%,47.843137%,70.980394%);fill-opacity:1;" d="M 11 19 L 11 24.585938 L 8.894531 22.480469 L 8.1875 23.1875 L 3.785156 27.585938 L 2.414062 26.214844 L 6.8125 21.8125 L 7.519531 21.105469 L 5.414062 19 L 11 19 M 12 18 L 3 18 L 6.105469 21.105469 L 1 26.214844 L 3.785156 29 L 8.894531 23.894531 L 12 27 Z M 12 18 "/>
<path style=" stroke:none;fill-rule:nonzero;fill:rgb(54.509807%,71.764708%,94.117647%);fill-opacity:1;" d="M 21.105469 23.1875 L 18.5 25.792969 L 18.5 18.5 L 25.792969 18.5 L 23.1875 21.105469 L 28.292969 26.214844 L 26.214844 28.292969 Z M 21.105469 23.1875 "/>
<path style=" stroke:none;fill-rule:nonzero;fill:rgb(30.588236%,47.843137%,70.980394%);fill-opacity:1;" d="M 24.585938 19 L 22.480469 21.105469 L 23.1875 21.8125 L 27.585938 26.214844 L 26.214844 27.585938 L 21.8125 23.1875 L 21.105469 22.480469 L 19 24.585938 L 19 19 L 24.585938 19 M 27 18 L 18 18 L 18 27 L 21.105469 23.894531 L 26.214844 29 L 29 26.214844 L 23.894531 21.105469 Z M 27 18 "/>
</g>
</svg>
