<?xml version="1.0" encoding="UTF-8"?>
<svg xmlns="http://www.w3.org/2000/svg" xmlns:xlink="http://www.w3.org/1999/xlink" width="30pt" height="30pt" viewBox="0 0 30 30" version="1.1">
<g id="surface86">
<path style=" stroke:none;fill-rule:nonzero;fill:rgb(71.372551%,78.823531%,83.92157%);fill-opacity:1;" d="M 5 27.5 C 3.601562 27.5 2.5 26.398438 2.5 25 L 2.5 5 C 2.5 3.601562 3.601562 2.5 5 2.5 L 25 2.5 C 26.398438 2.5 27.5 3.601562 27.5 5 L 27.5 25 C 27.5 26.398438 26.398438 27.5 25 27.5 Z M 5 27.5 "/>
<path style=" stroke:none;fill-rule:nonzero;fill:rgb(47.058824%,54.509807%,61.176473%);fill-opacity:1;" d="M 25 3 C 26.101562 3 27 3.898438 27 5 L 27 25 C 27 26.101562 26.101562 27 25 27 L 5 27 C 3.898438 27 3 26.101562 3 25 L 3 5 C 3 3.898438 3.898438 3 5 3 L 25 3 M 25 2 L 5 2 C 3.300781 2 2 3.300781 2 5 L 2 25 C 2 26.699219 3.300781 28 5 28 L 25 28 C 26.699219 28 28 26.699219 28 25 L 28 5 C 28 3.300781 26.699219 2 25 2 Z M 25 2 "/>
<path style=" stroke:none;fill-rule:nonzero;fill:rgb(100%,100%,100%);fill-opacity:1;" d="M 15.5 24 C 15.199219 24 15 23.800781 15 23.601562 L 13.300781 10.300781 L 11 19.601562 C 10.898438 19.800781 10.699219 20 10.5 20 C 10.300781 20 10.101562 19.800781 10 19.601562 L 9.199219 13.898438 L 7.898438 15.800781 C 7.800781 15.898438 7.699219 16 7.5 16 L 3 16 L 3 15 L 7.199219 15 L 9.101562 12.199219 C 9.199219 12 9.398438 12 9.601562 12 C 9.800781 12 10 12.199219 10 12.398438 L 10.601562 16.898438 L 13 7.398438 C 13.101562 7.101562 13.300781 7 13.5 7 C 13.800781 7 14 7.199219 14 7.398438 L 15.699219 20.699219 L 18.101562 11.300781 C 18.199219 11.101562 18.398438 10.898438 18.601562 10.898438 C 18.800781 10.898438 19 11 19.101562 11.300781 L 20.800781 17.199219 L 21.898438 15.199219 C 22 15 22.199219 14.898438 22.300781 14.898438 L 27 14.898438 L 27 15.898438 L 22.5 15.898438 L 20.898438 18.601562 C 20.800781 18.800781 20.601562 18.898438 20.398438 18.800781 C 20.199219 18.800781 20 18.601562 20 18.398438 L 18.5 13.199219 L 16 23.601562 C 15.898438 23.800781 15.699219 24 15.5 24 Z M 15.5 24 "/>
</g>
</svg>
