<svg xmlns="http://www.w3.org/2000/svg"  viewBox="0 0 40 40" width="40px" height="40px"><path fill="#f5ce85" d="M20,38.5C9.799,38.5,1.5,30.201,1.5,20S9.799,1.5,20,1.5S38.5,9.799,38.5,20S30.201,38.5,20,38.5z"/><path fill="#967a44" d="M20,2c9.925,0,18,8.075,18,18s-8.075,18-18,18S2,29.925,2,20S10.075,2,20,2 M20,1 C9.507,1,1,9.507,1,20s8.507,19,19,19s19-8.507,19-19S30.493,1,20,1L20,1z"/><path fill="#fff" d="M34.5 20L24.5 20 29.5 15zM5.5 20L15.5 20 10.5 25z"/><path fill="#fff" d="M20 11.75c2.275 0 4.331.931 5.824 2.426l1.945-1.945C25.779 10.24 23.038 9 20 9 13.925 9 9 13.925 9 20c0 .467.039.924.095 1.375h2.779C11.799 20.927 11.75 20.469 11.75 20 11.75 15.451 15.451 11.75 20 11.75zM30.905 18.625h-2.779c.076.448.124.906.124 1.375 0 4.549-3.701 8.25-8.25 8.25-2.275 0-4.331-.931-5.824-2.426l-1.945 1.945C14.221 29.76 16.962 31 20 31c6.075 0 11-4.925 11-11C31 19.533 30.961 19.076 30.905 18.625z"/></svg>