<?xml version="1.0" encoding="UTF-8" standalone="no"?>
<svg
   width="12.001661pt"
   height="12.007813pt"
   viewBox="0 0 12.001661 12.007813"
   version="1.1"
   id="svg4"
   xmlns="http://www.w3.org/2000/svg"
   xmlns:svg="http://www.w3.org/2000/svg">
  <defs
     id="defs4" />
  <g
     id="surface8402"
     transform="translate(5.1043502e-4,0.0078125)">
    <path
       style="fill:#f2faff;fill-opacity:1;fill-rule:nonzero;stroke:none"
       d="M 2.074219,11.625 C 1.617188,11.625 1.1875,11.445312 0.867188,11.121094 0.207031,10.453125 0.214844,9.375 0.878906,8.714844 L 5.328125,4.316406 7.71875,6.734375 3.273438,11.132812 C 2.953125,11.449219 2.527344,11.625 2.074219,11.625 Z m 0,0"
       id="path1" />
    <path
       style="fill:#8398ab;fill-opacity:1;fill-rule:nonzero;stroke:none"
       d="M 5.324219,4.847656 7.191406,6.730469 3.007812,10.867188 C 2.757812,11.113281 2.429688,11.25 2.074219,11.25 1.71875,11.25 1.382812,11.109375 1.132812,10.855469 0.621094,10.335938 0.625,9.496094 1.144531,8.980469 L 5.324219,4.847656 m 0.00391,-1.0625 -4.714844,4.664063 c -0.8125,0.804687 -0.820312,2.121093 -0.011719,2.933593 C 1.007812,11.792969 1.542969,12 2.074219,12 2.605469,12 3.132812,11.800781 3.535156,11.398438 L 8.25,6.738281 Z m 0,0"
       id="path2" />
    <path
       style="fill:#f2faff;fill-opacity:1;fill-rule:nonzero;stroke:none"
       d="m 8.832031,7.125 c -0.972656,0 -1.976562,-0.449219 -2.75,-1.234375 C 5.398438,5.203125 4.976562,4.34375 4.890625,3.472656 4.808594,2.632812 5.050781,1.882812 5.578125,1.359375 6.179688,0.765625 7.230469,0.367188 8.195312,0.367188 c 0.261719,0 0.511719,0.027343 0.738282,0.082031 l -1.78125,1.761719 0.671875,1.949218 1.941406,0.6875 1.777344,-1.757812 C 11.816406,4.246094 11.339844,5.710938 10.609375,6.4375 10.152344,6.886719 9.539062,7.125 8.832031,7.125 Z"
       id="path3" />
    <path
       style="fill:#8398ab;fill-opacity:1;fill-rule:nonzero;stroke:none"
       d="M 8.105469,0.742188 7.058594,1.777344 6.722656,2.109375 6.875,2.554688 7.410156,4.109375 7.527344,4.453125 7.867188,4.574219 9.417969,5.125 9.863281,5.28125 10.195312,4.949219 11.246094,3.914062 C 11.210938,4.769531 10.839844,5.679688 10.34375,6.171875 9.863281,6.648438 9.253906,6.75 8.832031,6.75 7.960938,6.75 7.054688,6.339844 6.347656,5.628906 5.726562,5 5.339844,4.222656 5.261719,3.4375 5.191406,2.710938 5.398438,2.066406 5.84375,1.625 6.351562,1.121094 7.269531,0.765625 8.105469,0.742188 M 8.195312,-0.0078125 C 7.105469,-0.0078125 5.96875,0.445312 5.316406,1.09375 4.058594,2.339844 4.28125,4.605469 5.8125,6.15625 6.691406,7.039062 7.804688,7.5 8.832031,7.5 c 0.773438,0 1.5,-0.261719 2.039063,-0.796875 0.957031,-0.945313 1.507812,-2.929687 0.828125,-4.292969 L 9.667969,4.414062 8.121094,3.867188 7.585938,2.3125 9.613281,0.304688 C 9.1875,0.0859375 8.695312,-0.0078125 8.195312,-0.0078125 Z m 0,0"
       id="path4" />
  </g>
</svg>
