<svg xmlns="http://www.w3.org/2000/svg"  viewBox="0 0 40 40" width="40px" height="40px"><path fill="#b0c1d4" d="M8.069 10.761L4.733 9.649 1.63 4.477 4.477 1.63 9.649 4.733 10.761 8.069 22.293 19.601 19.601 22.293z"/><path fill="#66798f" d="M4.555,2.259l4.679,2.807l1.016,3.049l0.075,0.224l0.167,0.167L21.586,19.6L19.6,21.586 L8.506,10.491l-0.167-0.167L8.115,10.25L5.067,9.234L2.259,4.555L4.555,2.259 M4.4,1L1,4.4l3.399,5.666l3.399,1.133L19.6,23 l3.4-3.4L11.199,7.799l-1.133-3.4L4.4,1L4.4,1z"/><path fill="#f78f8f" d="M34.534,38.5c-1.067,0-2.068-0.417-2.818-1.175L18.707,24.21l5.638-5.58l13.007,13.114 c0.746,0.752,1.153,1.75,1.148,2.81c-0.006,1.059-0.423,2.053-1.176,2.798C36.577,38.092,35.586,38.5,34.534,38.5L34.534,38.5z"/><path fill="#c74343" d="M24.341,19.336l12.656,12.759c0.651,0.658,1.008,1.53,1.003,2.456 c-0.005,0.926-0.369,1.794-1.027,2.446C36.319,37.644,35.453,38,34.534,38c-0.932,0-1.807-0.365-2.464-1.028L19.415,24.214 L24.341,19.336 M24.347,17.922L18,24.207l13.36,13.469C32.234,38.558,33.384,39,34.534,39c1.136,0,2.272-0.43,3.142-1.293 c1.753-1.736,1.767-4.563,0.031-6.316L24.347,17.922L24.347,17.922z"/><path fill="#dcd5f2" d="M6.435,38.5c-1.327,0-2.572-0.52-3.506-1.463C2.001,36.101,1.493,34.858,1.5,33.54 s0.526-2.555,1.463-3.481l17.386-17.257l6.944,7.014L9.906,37.072C8.977,37.993,7.744,38.5,6.435,38.5 C6.435,38.5,6.435,38.5,6.435,38.5z M6.501,31.5c-1.099,0-1.996,0.893-2.001,1.99c-0.005,1.103,0.888,2.005,1.99,2.01 c1.107,0,2.005-0.893,2.01-1.99c0.005-1.103-0.888-2.005-1.99-2.01H6.501z"/><path fill="#8b75a1" d="M20.346,13.509l6.241,6.303L9.555,36.716C8.72,37.544,7.611,38,6.435,38 c-1.193,0-2.312-0.467-3.152-1.314c-1.721-1.738-1.707-4.551,0.032-6.273L20.346,13.509 M6.498,36H6.5 c1.372,0,2.493-1.116,2.5-2.488C9.007,32.134,7.891,31.007,6.5,31c-1.372,0-2.493,1.116-2.5,2.488 c-0.003,0.668,0.254,1.297,0.724,1.771S5.82,35.997,6.489,36L6.498,36 M20.352,12.094L2.611,29.703 c-2.133,2.112-2.15,5.553-0.038,7.686C3.636,38.462,5.035,39,6.435,39c1.382,0,2.764-0.524,3.824-1.573L28,19.819L20.352,12.094 L20.352,12.094z M6.5,35c-0.003,0-0.005,0-0.008,0C5.664,34.996,4.996,34.321,5,33.493C5.004,32.667,5.675,32,6.5,32 c0.003,0,0.005,0,0.008,0C7.336,32.004,8.004,32.679,8,33.507C7.996,34.333,7.325,35,6.5,35L6.5,35z"/><g><path fill="#dcd5f2" d="M30.552,20.526c-2.727-0.001-5.529-1.253-7.691-3.436c-3.892-3.931-4.489-9.671-1.334-12.796 C23.215,2.623,26.158,1.5,28.85,1.5c1.069,0,2.047,0.168,2.916,0.5l-6.382,6.324l1.606,4.669l4.655,1.653l6.38-6.324 c1.271,3.423-0.146,8.01-2.384,10.227C34.336,19.843,32.576,20.526,30.552,20.526C30.552,20.526,30.552,20.526,30.552,20.526z"/><path fill="#8b75a1" d="M28.851,2L28.851,2c0.703,0,1.363,0.077,1.974,0.228l-5.569,5.519L24.81,8.19l0.204,0.594 l1.425,4.144l0.157,0.456l0.454,0.161l4.131,1.468l0.592,0.21l0.446-0.442l5.565-5.515c0.723,3.081-0.542,6.995-2.496,8.929 c-1.21,1.198-2.849,1.832-4.738,1.832c-2.594,0-5.268-1.198-7.337-3.288c-1.818-1.836-2.945-4.126-3.174-6.448 c-0.221-2.245,0.431-4.248,1.837-5.64C23.48,3.065,26.282,2,28.851,2 M28.851,1c-2.899,0-5.93,1.211-7.676,2.94 c-3.358,3.325-2.762,9.37,1.329,13.502c2.335,2.358,5.304,3.584,8.047,3.584c2.064,0,4-0.694,5.441-2.121 c2.551-2.526,4.012-7.818,2.201-11.452l-6.678,6.618l-4.131-1.468l-1.425-4.144l6.678-6.618C31.496,1.258,30.187,1,28.851,1 L28.851,1z"/></g><path fill="none" stroke="#c74343" stroke-miterlimit="10" d="M35.048 35.048L26.485 26.485"/></svg>