<?xml version="1.0" encoding="UTF-8"?>
<svg xmlns="http://www.w3.org/2000/svg" xmlns:xlink="http://www.w3.org/1999/xlink" width="12pt" height="12pt" viewBox="0 0 12 12" version="1.1">
<g id="surface13419">
<path style=" stroke:none;fill-rule:nonzero;fill:rgb(96.862745%,56.078434%,56.078434%);fill-opacity:1;" d="M 8.621094 7.125 L 2.628906 7.125 C 2.628906 7.125 2.628906 5.117188 2.628906 4.125 C 2.628906 2.761719 3.503906 0.921875 5.625 0.671875 C 7.597656 0.921875 8.621094 2.882812 8.621094 4.125 C 8.621094 5.117188 8.621094 7.125 8.621094 7.125 Z M 8.621094 7.125 "/>
<path style="fill-rule:nonzero;fill:rgb(96.078432%,80.784315%,52.156866%);fill-opacity:1;stroke-width:1;stroke-linecap:butt;stroke-linejoin:miter;stroke:rgb(58.823532%,47.843137%,26.666668%);stroke-opacity:1;stroke-miterlimit:10;" d="M 7.442708 14.494792 C 3.697917 14.494792 3.5 11.5 3.5 11.5 L 11.5 11.5 C 11.5 11.505208 11.010417 14.494792 7.442708 14.494792 Z M 7.442708 14.494792 " transform="matrix(0.75,0,0,0.75,0,0)"/>
<path style="fill-rule:nonzero;fill:rgb(96.862745%,56.078434%,56.078434%);fill-opacity:1;stroke-width:1;stroke-linecap:butt;stroke-linejoin:miter;stroke:rgb(78.039217%,26.274511%,26.274511%);stroke-opacity:1;stroke-miterlimit:10;" d="M 11.494792 9.5 L 3.505208 9.5 C 3.505208 9.5 3.505208 6.822917 3.505208 5.5 C 3.505208 3.682292 4.671875 1.229167 7.5 0.895833 C 10.130208 1.229167 11.494792 3.84375 11.494792 5.5 C 11.494792 6.822917 11.494792 9.5 11.494792 9.5 Z M 11.494792 9.5 " transform="matrix(0.75,0,0,0.75,0,0)"/>
<path style=" stroke:none;fill-rule:nonzero;fill:rgb(78.039217%,26.274511%,26.274511%);fill-opacity:1;" d="M 0.796875 4.003906 L 1.460938 4.019531 L 1.460938 4.675781 L 0.796875 4.675781 Z M 0.796875 4.003906 "/>
<path style=" stroke:none;fill-rule:nonzero;fill:rgb(78.039217%,26.274511%,26.274511%);fill-opacity:1;" d="M 0.796875 5.339844 L 1.460938 5.339844 L 1.460938 6.003906 L 0.796875 6.003906 Z M 0.796875 5.339844 "/>
<path style=" stroke:none;fill-rule:nonzero;fill:rgb(78.039217%,26.274511%,26.274511%);fill-opacity:1;" d="M 1.011719 2.609375 L 1.652344 2.792969 C 1.59375 2.992188 1.550781 3.195312 1.515625 3.402344 L 0.859375 3.300781 C 0.898438 3.066406 0.945312 2.835938 1.011719 2.609375 Z M 1.011719 2.609375 "/>
<path style=" stroke:none;fill-rule:nonzero;fill:rgb(78.039217%,26.274511%,26.274511%);fill-opacity:1;" d="M 1.570312 1.316406 L 2.140625 1.65625 C 2.039062 1.835938 1.941406 2.015625 1.859375 2.210938 L 1.25 1.945312 C 1.339844 1.730469 1.453125 1.519531 1.570312 1.316406 Z M 1.570312 1.316406 "/>
<path style=" stroke:none;fill-rule:nonzero;fill:rgb(78.039217%,26.274511%,26.274511%);fill-opacity:1;" d="M 2.453125 0.210938 L 2.910156 0.691406 C 2.765625 0.835938 2.621094 0.984375 2.496094 1.148438 L 1.976562 0.734375 C 2.121094 0.546875 2.285156 0.375 2.453125 0.210938 Z M 2.453125 0.210938 "/>
<path style=" stroke:none;fill-rule:nonzero;fill:rgb(78.039217%,26.274511%,26.274511%);fill-opacity:1;" d="M 10.453125 4.003906 L 9.792969 4.019531 L 9.792969 4.675781 L 10.457031 4.675781 Z M 10.453125 4.003906 "/>
<path style=" stroke:none;fill-rule:nonzero;fill:rgb(78.039217%,26.274511%,26.274511%);fill-opacity:1;" d="M 9.792969 5.339844 L 10.457031 5.339844 L 10.457031 6.003906 L 9.792969 6.003906 Z M 9.792969 5.339844 "/>
<path style=" stroke:none;fill-rule:nonzero;fill:rgb(78.039217%,26.274511%,26.274511%);fill-opacity:1;" d="M 10.242188 2.609375 L 9.601562 2.792969 C 9.660156 2.992188 9.703125 3.195312 9.738281 3.402344 L 10.394531 3.296875 C 10.355469 3.066406 10.308594 2.835938 10.242188 2.609375 Z M 10.242188 2.609375 "/>
<path style=" stroke:none;fill-rule:nonzero;fill:rgb(78.039217%,26.274511%,26.274511%);fill-opacity:1;" d="M 9.683594 1.316406 L 9.113281 1.65625 C 9.214844 1.835938 9.3125 2.019531 9.394531 2.210938 L 10.003906 1.945312 C 9.910156 1.730469 9.800781 1.519531 9.683594 1.316406 Z M 9.683594 1.316406 "/>
<path style=" stroke:none;fill-rule:nonzero;fill:rgb(78.039217%,26.274511%,26.274511%);fill-opacity:1;" d="M 8.800781 0.210938 L 8.34375 0.691406 C 8.488281 0.835938 8.632812 0.984375 8.757812 1.148438 L 9.277344 0.734375 C 9.132812 0.546875 8.96875 0.375 8.800781 0.210938 Z M 8.800781 0.210938 "/>
<path style="fill-rule:nonzero;fill:rgb(96.078432%,80.784315%,52.156866%);fill-opacity:1;stroke-width:1;stroke-linecap:butt;stroke-linejoin:miter;stroke:rgb(58.823532%,47.843137%,26.666668%);stroke-opacity:1;stroke-miterlimit:10;" d="M 2.5 9.5 L 12.5 9.5 L 12.5 11.5 L 2.5 11.5 Z M 2.5 9.5 " transform="matrix(0.75,0,0,0.75,0,0)"/>
<path style=" stroke:none;fill-rule:nonzero;fill:rgb(58.823532%,47.843137%,26.666668%);fill-opacity:1;" d="M 4.5 10.5 L 6.75 10.5 L 6.75 12 L 4.5 12 Z M 4.5 10.5 "/>
</g>
</svg>
