<?xml version="1.0" encoding="UTF-8"?>
<svg xmlns="http://www.w3.org/2000/svg" xmlns:xlink="http://www.w3.org/1999/xlink" width="12pt" height="12pt" viewBox="0 0 12 12" version="1.1">
<g id="surface3088">
<path style=" stroke:none;fill-rule:nonzero;fill:rgb(76.078433%,90.980393%,100%);fill-opacity:1;" d="M 0.375 1.875 L 11.625 1.875 L 11.625 9.375 L 0.375 9.375 Z M 0.375 1.875 "/>
<path style=" stroke:none;fill-rule:nonzero;fill:rgb(45.490196%,58.823532%,76.862746%);fill-opacity:1;" d="M 11.25 2.25 L 11.25 9 L 0.75 9 L 0.75 2.25 L 11.25 2.25 M 12 1.5 L 0 1.5 L 0 9.75 L 12 9.75 Z M 12 1.5 "/>
<path style=" stroke:none;fill-rule:nonzero;fill:rgb(45.490196%,58.823532%,76.862746%);fill-opacity:1;" d="M 8.25 3.75 L 9 3.75 L 9 7.5 L 8.25 7.5 Z M 6.375 4.5 C 6.75 4.5 6.75 4.800781 6.75 4.875 C 6.75 5.023438 6.75 5.25 6.375 5.25 L 6 5.25 L 6 4.5 L 6.375 4.5 M 6.375 3.75 L 5.25 3.75 L 5.25 7.5 L 6 7.5 L 6 6 L 6.375 6 C 6.523438 6 7.5 5.925781 7.5 4.875 C 7.5 3.75 6.375 3.75 6.375 3.75 Z M 4.5 7.5 L 3.75 7.5 L 3.75 6.449219 L 3.375 4.949219 L 3 6.449219 L 3 7.5 L 2.25 7.5 L 2.25 6.375 L 2.925781 3.75 L 3.824219 3.75 L 4.5 6.449219 Z M 4.5 7.5 "/>
<path style=" stroke:none;fill-rule:nonzero;fill:rgb(45.490196%,58.823532%,76.862746%);fill-opacity:1;" d="M 2.625 6 L 4.125 6 L 4.125 6.75 L 2.625 6.75 Z M 2.625 6 "/>
</g>
</svg>
