<?xml version="1.0" encoding="UTF-8"?>
<svg xmlns="http://www.w3.org/2000/svg" xmlns:xlink="http://www.w3.org/1999/xlink" width="12pt" height="12pt" viewBox="0 0 12 12" version="1.1">
<g id="surface4244">
<path style=" stroke:none;fill-rule:nonzero;fill:rgb(100%,93.333334%,63.921571%);fill-opacity:1;" d="M 5.820312 6.375 L 2.828125 6.375 L 5.492188 0.375 L 9.164062 0.375 L 6.890625 4.875 L 8.96875 4.875 L 3.570312 11.625 Z M 5.820312 6.375 "/>
<path style=" stroke:none;fill-rule:nonzero;fill:rgb(76.078433%,58.823532%,32.549021%);fill-opacity:1;" d="M 8.554688 0.75 L 6.832031 4.160156 L 6.28125 5.25 L 8.1875 5.25 L 5 9.234375 L 5.9375 7.046875 L 6.386719 6 L 3.402344 6 L 5.738281 0.75 L 8.554688 0.75 M 9.773438 0 L 5.25 0 L 2.25 6.75 L 5.25 6.75 L 3 12 L 3.75 12 L 9.75 4.5 L 7.5 4.5 Z M 9.773438 0 "/>
<path style=" stroke:none;fill-rule:nonzero;fill:rgb(100%,100%,100%);fill-opacity:1;" d="M 6.425781 1.042969 L 6.554688 0.75 L 5.738281 0.75 L 3.402344 6 L 4.226562 6 Z M 6.386719 6 L 5.9375 7.046875 L 5 9.234375 L 6.757812 7.039062 L 7.078125 6.296875 L 7.203125 6 Z M 6.386719 6 "/>
</g>
</svg>
