<?xml version="1.0" encoding="UTF-8"?>
<svg xmlns="http://www.w3.org/2000/svg" xmlns:xlink="http://www.w3.org/1999/xlink" width="12pt" height="12pt" viewBox="0 0 12 12" version="1.1">
<g id="surface1571">
<path style=" stroke:none;fill-rule:nonzero;fill:rgb(100%,100%,100%);fill-opacity:1;" d="M 1.875 10.875 L 1.875 0.375 L 7.425781 0.375 L 10.125 3.148438 L 10.125 10.875 Z M 1.875 10.875 "/>
<path style=" stroke:none;fill-rule:nonzero;fill:rgb(47.058824%,54.509807%,61.176473%);fill-opacity:1;" d="M 7.273438 0.75 L 9.75 3.300781 L 9.75 10.5 L 2.25 10.5 L 2.25 0.75 L 7.273438 0.75 M 7.574219 0 L 1.5 0 L 1.5 11.25 L 10.5 11.25 L 10.5 3 Z M 7.574219 0 "/>
<path style=" stroke:none;fill-rule:nonzero;fill:rgb(100%,100%,100%);fill-opacity:1;" d="M 7.125 3.375 L 7.125 0.375 L 7.351562 0.375 L 10.125 3.148438 L 10.125 3.375 Z M 7.125 3.375 "/>
<path style=" stroke:none;fill-rule:nonzero;fill:rgb(47.058824%,54.509807%,61.176473%);fill-opacity:1;" d="M 7.5 1.050781 L 9.449219 3 L 7.5 3 L 7.5 1.050781 M 7.5 0 L 6.75 0 L 6.75 3.75 L 10.5 3.75 L 10.5 3 Z M 5.25 8.25 L 4.5 8.25 L 4.5 6 L 4.125 6 L 4.125 5.25 L 5.25 5.25 Z M 7.125 8.25 C 6.523438 8.25 6 7.726562 6 7.125 L 6 6.375 C 6 5.773438 6.523438 5.25 7.125 5.25 C 7.726562 5.25 8.25 5.773438 8.25 6.375 L 8.25 7.125 C 8.25 7.726562 7.726562 8.25 7.125 8.25 Z M 7.125 6 C 6.898438 6 6.75 6.148438 6.75 6.375 L 6.75 7.125 C 6.75 7.351562 6.898438 7.5 7.125 7.5 C 7.351562 7.5 7.5 7.351562 7.5 7.125 L 7.5 6.375 C 7.5 6.148438 7.351562 6 7.125 6 Z M 7.125 6 "/>
</g>
</svg>
