<?xml version="1.0" encoding="UTF-8"?>
<svg xmlns="http://www.w3.org/2000/svg" xmlns:xlink="http://www.w3.org/1999/xlink" width="12pt" height="12pt" viewBox="0 0 12 12" version="1.1">
<g id="surface3175">
<path style=" stroke:none;fill-rule:nonzero;fill:rgb(88.235295%,92.156863%,94.901961%);fill-opacity:1;" d="M 4.875 11.625 L 4.875 3.375 L 9.648438 3.375 L 11.625 5.402344 L 11.625 11.625 Z M 4.875 11.625 "/>
<path style=" stroke:none;fill-rule:nonzero;fill:rgb(47.058824%,54.509807%,61.176473%);fill-opacity:1;" d="M 9.492188 3.75 L 11.25 5.554688 L 11.25 11.25 L 5.25 11.25 L 5.25 3.75 L 9.492188 3.75 M 9.808594 3 L 4.5 3 L 4.5 12 L 12 12 L 12 5.25 Z M 9.808594 3 "/>
<path style=" stroke:none;fill-rule:nonzero;fill:rgb(100%,100%,100%);fill-opacity:1;" d="M 9.375 5.625 L 9.375 3.375 L 9.625 3.375 L 11.625 5.402344 L 11.625 5.625 Z M 9.375 5.625 "/>
<path style=" stroke:none;fill-rule:nonzero;fill:rgb(47.058824%,54.509807%,61.176473%);fill-opacity:1;" d="M 9.75 4.039062 L 10.945312 5.25 L 9.75 5.25 L 9.75 4.039062 M 9.78125 3 L 9 3 L 9 6 L 12 6 L 12 5.25 Z M 9.78125 3 "/>
<path style=" stroke:none;fill-rule:nonzero;fill:rgb(30.588236%,47.843137%,70.980394%);fill-opacity:1;" d="M 10.5 9 L 7.5 9 L 7.5 8.25 L 10.5 8.25 Z M 10.5 9 "/>
<path style=" stroke:none;fill-rule:nonzero;fill:rgb(30.588236%,47.843137%,70.980394%);fill-opacity:1;" d="M 6 8.625 L 8.25 6.9375 L 8.25 10.3125 Z M 6 8.625 "/>
<path style=" stroke:none;fill-rule:nonzero;fill:rgb(100%,100%,100%);fill-opacity:1;" d="M 0.375 8.625 L 0.375 0.375 L 5.148438 0.375 L 7.125 2.402344 L 7.125 8.625 Z M 0.375 8.625 "/>
<path style=" stroke:none;fill-rule:nonzero;fill:rgb(47.058824%,54.509807%,61.176473%);fill-opacity:1;" d="M 4.992188 0.75 L 6.75 2.554688 L 6.75 8.25 L 0.75 8.25 L 0.75 0.75 L 4.992188 0.75 M 5.308594 0 L 0 0 L 0 9 L 7.5 9 L 7.5 2.25 Z M 5.308594 0 "/>
<path style=" stroke:none;fill-rule:nonzero;fill:rgb(100%,100%,100%);fill-opacity:1;" d="M 4.875 2.625 L 4.875 0.375 L 5.125 0.375 L 7.125 2.402344 L 7.125 2.625 Z M 4.875 2.625 "/>
<path style=" stroke:none;fill-rule:nonzero;fill:rgb(47.058824%,54.509807%,61.176473%);fill-opacity:1;" d="M 5.25 1.039062 L 6.445312 2.25 L 5.25 2.25 L 5.25 1.039062 M 5.28125 0 L 4.5 0 L 4.5 3 L 7.5 3 L 7.5 2.25 Z M 5.28125 0 "/>
<path style=" stroke:none;fill-rule:nonzero;fill:rgb(30.588236%,47.843137%,70.980394%);fill-opacity:1;" d="M 1.5 5.25 L 4.5 5.25 L 4.5 6 L 1.5 6 Z M 1.5 5.25 "/>
<path style=" stroke:none;fill-rule:nonzero;fill:rgb(30.588236%,47.843137%,70.980394%);fill-opacity:1;" d="M 6 5.625 L 3.75 3.9375 L 3.75 7.3125 Z M 6 5.625 "/>
</g>
</svg>
