<?xml version="1.0" encoding="UTF-8"?>
<svg xmlns="http://www.w3.org/2000/svg" xmlns:xlink="http://www.w3.org/1999/xlink" width="12pt" height="12pt" viewBox="0 0 12 12" version="1.1">
<g id="surface3700">
<path style=" stroke:none;fill-rule:nonzero;fill:rgb(100%,100%,100%);fill-opacity:1;" d="M 0.375 0.375 L 10.875 0.375 L 10.875 10.875 L 0.375 10.875 Z M 0.375 0.375 "/>
<path style=" stroke:none;fill-rule:nonzero;fill:rgb(47.058824%,54.509807%,61.176473%);fill-opacity:1;" d="M 10.5 0.75 L 10.5 10.5 L 0.75 10.5 L 0.75 0.75 L 10.5 0.75 M 11.25 0 L 0 0 L 0 11.25 L 11.25 11.25 Z M 11.25 0 "/>
<path style=" stroke:none;fill-rule:nonzero;fill:rgb(47.058824%,54.509807%,61.176473%);fill-opacity:1;" d="M 0 0 L 11.25 0 L 11.25 2.25 L 0 2.25 Z M 3.75 3.015625 L 3.75 5.984375 L 3.28125 5.984375 L 3.28125 3.589844 C 3.195312 3.652344 3.105469 3.703125 3.007812 3.746094 C 2.910156 3.789062 2.796875 3.824219 2.671875 3.859375 L 2.671875 3.457031 C 2.75 3.433594 2.824219 3.40625 2.898438 3.375 C 2.96875 3.347656 3.042969 3.316406 3.113281 3.28125 C 3.183594 3.246094 3.253906 3.207031 3.328125 3.164062 C 3.398438 3.121094 3.472656 3.070312 3.550781 3.015625 Z M 5.460938 6.015625 C 5.160156 6.015625 4.921875 5.890625 4.753906 5.644531 C 4.585938 5.398438 4.5 5.042969 4.5 4.574219 C 4.5 4.0625 4.589844 3.675781 4.765625 3.410156 C 4.941406 3.148438 5.199219 3.015625 5.53125 3.015625 C 6.167969 3.015625 6.488281 3.511719 6.488281 4.503906 C 6.488281 4.996094 6.398438 5.371094 6.21875 5.628906 C 6.039062 5.886719 5.785156 6.015625 5.460938 6.015625 Z M 5.507812 3.390625 C 5.15625 3.390625 4.980469 3.777344 4.980469 4.554688 C 4.980469 5.28125 5.152344 5.644531 5.5 5.644531 C 5.839844 5.644531 6.007812 5.273438 6.007812 4.535156 C 6.007812 3.773438 5.839844 3.390625 5.507812 3.390625 Z M 8.25 3.015625 L 8.25 5.984375 L 7.78125 5.984375 L 7.78125 3.589844 C 7.695312 3.652344 7.605469 3.703125 7.507812 3.746094 C 7.410156 3.789062 7.296875 3.824219 7.171875 3.859375 L 7.171875 3.457031 C 7.25 3.433594 7.324219 3.40625 7.398438 3.375 C 7.46875 3.347656 7.542969 3.316406 7.613281 3.28125 C 7.683594 3.246094 7.753906 3.207031 7.828125 3.164062 C 7.898438 3.121094 7.972656 3.070312 8.050781 3.015625 Z M 3.480469 9.75 C 3.179688 9.75 2.945312 9.628906 2.777344 9.382812 C 2.605469 9.136719 2.523438 8.78125 2.523438 8.316406 C 2.523438 7.808594 2.609375 7.421875 2.785156 7.160156 C 2.960938 6.898438 3.214844 6.765625 3.546875 6.765625 C 4.183594 6.765625 4.5 7.257812 4.5 8.246094 C 4.5 8.734375 4.410156 9.109375 4.230469 9.363281 C 4.050781 9.621094 3.800781 9.75 3.480469 9.75 Z M 3.527344 7.136719 C 3.175781 7.136719 3 7.523438 3 8.296875 C 3 9.019531 3.171875 9.378906 3.515625 9.378906 C 3.851562 9.378906 4.023438 9.011719 4.023438 8.277344 C 4.023438 7.519531 3.855469 7.136719 3.527344 7.136719 Z M 6 6.765625 L 6 9.71875 L 5.53125 9.71875 L 5.53125 7.339844 C 5.449219 7.398438 5.355469 7.449219 5.257812 7.492188 C 5.164062 7.535156 5.050781 7.570312 4.925781 7.601562 L 4.925781 7.207031 C 5.003906 7.179688 5.078125 7.152344 5.152344 7.125 C 5.226562 7.097656 5.296875 7.066406 5.367188 7.03125 C 5.4375 6.996094 5.507812 6.957031 5.578125 6.914062 C 5.652344 6.871094 5.726562 6.820312 5.804688 6.765625 Z M 7.707031 9.75 C 7.40625 9.75 7.171875 9.628906 7.003906 9.382812 C 6.835938 9.136719 6.75 8.78125 6.75 8.316406 C 6.75 7.808594 6.835938 7.421875 7.015625 7.160156 C 7.191406 6.898438 7.445312 6.765625 7.773438 6.765625 C 8.410156 6.765625 8.726562 7.261719 8.726562 8.246094 C 8.726562 8.734375 8.636719 9.109375 8.460938 9.363281 C 8.277344 9.621094 8.027344 9.75 7.707031 9.75 Z M 7.753906 7.136719 C 7.402344 7.136719 7.226562 7.523438 7.226562 8.296875 C 7.226562 9.019531 7.398438 9.378906 7.742188 9.378906 C 8.082031 9.378906 8.25 9.011719 8.25 8.277344 C 8.25 7.519531 8.085938 7.136719 7.753906 7.136719 Z M 7.753906 7.136719 "/>
</g>
</svg>
