<?xml version="1.0" encoding="UTF-8"?>
<svg xmlns="http://www.w3.org/2000/svg" xmlns:xlink="http://www.w3.org/1999/xlink" width="12pt" height="12pt" viewBox="0 0 12 12" version="1.1">
<g id="surface3044">
<path style=" stroke:none;fill-rule:nonzero;fill:rgb(54.509807%,71.764708%,94.117647%);fill-opacity:1;" d="M 7.484375 3.375 L 2.625 0.640625 L 2.625 6.109375 Z M 7.484375 3.375 "/>
<path style=" stroke:none;fill-rule:nonzero;fill:rgb(30.588236%,47.843137%,70.980394%);fill-opacity:1;" d="M 3 1.28125 L 3 5.46875 L 6.71875 3.375 L 3 1.28125 M 2.25 0 L 8.25 3.375 L 2.25 6.75 Z M 2.25 0 "/>
<path style=" stroke:none;fill-rule:nonzero;fill:rgb(54.509807%,71.764708%,94.117647%);fill-opacity:1;" d="M 8.625 0.375 L 7.875 0.375 L 7.875 6.375 L 8.625 6.375 Z M 8.625 0.375 "/>
<path style=" stroke:none;fill-rule:nonzero;fill:rgb(30.588236%,47.843137%,70.980394%);fill-opacity:1;" d="M 8.25 0.75 L 8.25 6 L 8.25 0.75 M 7.5 0 L 9 0 L 9 6.75 L 7.5 6.75 Z M 7.5 0 "/>
<path style=" stroke:none;fill-rule:nonzero;fill:rgb(40.000001%,47.450981%,56.078434%);fill-opacity:1;" d="M 3.75 9.75 L 5.625 12 L 7.5 9.75 Z M 0 0 L 0.75 0 L 0.75 8.25 L 0 8.25 Z M 10.5 0 L 11.25 0 L 11.25 8.25 L 10.5 8.25 Z M 5.25 7.5 L 6 7.5 L 6 9.75 L 5.25 9.75 Z M 5.25 7.5 "/>
<path style=" stroke:none;fill-rule:nonzero;fill:rgb(40.000001%,47.450981%,56.078434%);fill-opacity:1;" d="M 0 8.25 L 0 7.5 L 11.25 7.5 L 11.25 8.25 Z M 0 8.25 "/>
</g>
</svg>
