<?xml version="1.0" encoding="UTF-8"?>
<svg xmlns="http://www.w3.org/2000/svg" xmlns:xlink="http://www.w3.org/1999/xlink" width="12pt" height="12pt" viewBox="0 0 12 12" version="1.1">
<g id="surface3761">
<path style=" stroke:none;fill-rule:nonzero;fill:rgb(69.01961%,75.686276%,83.137256%);fill-opacity:1;" d="M 2.25 10.875 C 1.953125 10.878906 1.667969 10.757812 1.457031 10.546875 C 1.25 10.335938 1.132812 10.046875 1.140625 9.75 L 1.140625 6 C 1.128906 5.703125 1.242188 5.410156 1.453125 5.199219 C 1.664062 4.984375 1.949219 4.867188 2.25 4.875 L 5.625 4.875 L 5.625 2.25 C 5.625 1.953125 5.738281 1.667969 5.949219 1.453125 C 6.15625 1.238281 6.449219 1.121094 6.75 1.125 L 9.75 1.125 C 10.367188 1.132812 10.859375 1.632812 10.859375 2.25 L 10.859375 9.75 C 10.867188 10.046875 10.75 10.335938 10.542969 10.546875 C 10.332031 10.757812 10.046875 10.878906 9.75 10.875 Z M 2.25 10.875 "/>
<path style=" stroke:none;fill-rule:nonzero;fill:rgb(40.000001%,47.450981%,56.078434%);fill-opacity:1;" d="M 9.75 1.5 C 10.164062 1.5 10.5 1.835938 10.5 2.25 L 10.5 9.75 C 10.503906 9.941406 10.425781 10.125 10.289062 10.261719 C 10.152344 10.410156 9.957031 10.496094 9.75 10.5 L 2.25 10.5 C 1.835938 10.5 1.5 10.164062 1.5 9.75 L 1.5 6 C 1.5 5.808594 1.574219 5.621094 1.710938 5.484375 C 1.851562 5.335938 2.046875 5.25 2.25 5.25 L 6 5.25 L 6 2.25 C 6 2.050781 6.078125 1.859375 6.21875 1.71875 C 6.359375 1.578125 6.550781 1.5 6.75 1.5 L 9.75 1.5 M 9.75 0.75 L 6.75 0.75 C 5.921875 0.75 5.25 1.421875 5.25 2.25 L 5.25 4.5 L 2.25 4.5 C 1.421875 4.5 0.75 5.171875 0.75 6 L 0.75 9.75 C 0.75 10.578125 1.421875 11.25 2.25 11.25 L 9.75 11.25 C 10.578125 11.25 11.25 10.578125 11.25 9.75 L 11.25 2.25 C 11.25 1.421875 10.578125 0.75 9.75 0.75 Z M 9.75 0.75 "/>
<path style=" stroke:none;fill-rule:nonzero;fill:rgb(84.705883%,88.627452%,92.941177%);fill-opacity:1;" d="M 6 5.25 L 2.25 5.25 C 1.835938 5.25 1.5 5.585938 1.5 6 L 1.5 9 C 1.5 9.414062 1.835938 9.75 2.25 9.75 L 9.75 9.75 C 10.164062 9.75 10.5 9.414062 10.5 9 L 10.5 2.25 C 10.5 1.835938 10.164062 1.5 9.75 1.5 L 6.75 1.5 C 6.335938 1.5 6 1.835938 6 2.25 Z M 6 5.25 "/>
<path style=" stroke:none;fill-rule:nonzero;fill:rgb(21.176471%,25.098041%,30.19608%);fill-opacity:1;" d="M 8.25 3.75 L 8.25 7.5 L 5.25 7.5 L 5.25 8.25 L 9 8.25 L 9 3.75 Z M 5.25 6.75 L 5.25 9 L 3 7.875 Z M 5.25 6.75 "/>
</g>
</svg>
