<?xml version="1.0" encoding="UTF-8"?>
<svg xmlns="http://www.w3.org/2000/svg" xmlns:xlink="http://www.w3.org/1999/xlink" width="12pt" height="12pt" viewBox="0 0 12 12" version="1.1">
<g id="surface21894">
<path style=" stroke:none;fill-rule:nonzero;fill:rgb(72.941178%,87.843138%,74.117649%);fill-opacity:1;" d="M 4.875 6.375 L 7.125 6.375 L 7.125 10.875 L 4.875 10.875 Z M 4.875 6.375 "/>
<path style=" stroke:none;fill-rule:nonzero;fill:rgb(36.862746%,61.176473%,46.27451%);fill-opacity:1;" d="M 6.75 6.75 L 6.75 10.5 L 5.25 10.5 L 5.25 6.75 L 6.75 6.75 M 7.5 6 L 4.5 6 L 4.5 11.25 L 7.5 11.25 Z M 7.5 6 "/>
<path style=" stroke:none;fill-rule:nonzero;fill:rgb(72.941178%,87.843138%,74.117649%);fill-opacity:1;" d="M 8.625 1.125 L 10.875 1.125 L 10.875 10.875 L 8.625 10.875 Z M 8.625 1.125 "/>
<path style=" stroke:none;fill-rule:nonzero;fill:rgb(36.862746%,61.176473%,46.27451%);fill-opacity:1;" d="M 10.5 1.5 L 10.5 10.5 L 9 10.5 L 9 1.5 L 10.5 1.5 M 11.25 0.75 L 8.25 0.75 L 8.25 11.25 L 11.25 11.25 Z M 11.25 0.75 "/>
<path style=" stroke:none;fill-rule:nonzero;fill:rgb(72.941178%,87.843138%,74.117649%);fill-opacity:1;" d="M 1.125 3.375 L 3.375 3.375 L 3.375 10.875 L 1.125 10.875 Z M 1.125 3.375 "/>
<path style=" stroke:none;fill-rule:nonzero;fill:rgb(36.862746%,61.176473%,46.27451%);fill-opacity:1;" d="M 3 3.75 L 3 10.5 L 1.5 10.5 L 1.5 3.75 L 3 3.75 M 3.75 3 L 0.75 3 L 0.75 11.25 L 3.75 11.25 Z M 3.75 3 "/>
</g>
</svg>
