<?xml version="1.0" encoding="UTF-8"?>
<svg xmlns="http://www.w3.org/2000/svg" xmlns:xlink="http://www.w3.org/1999/xlink" width="36pt" height="36pt" viewBox="0 0 36 36" version="1.1">
<g id="surface19871">
<path style=" stroke:none;fill-rule:nonzero;fill:rgb(0%,47.058824%,83.137256%);fill-opacity:1;" d="M 13.5 10.5 L 13.5 18 L 11.25 18 L 11.25 10.5 C 11.25 10.085938 11.585938 9.75 12 9.75 L 12.75 9.75 C 13.164062 9.75 13.5 10.085938 13.5 10.5 Z M 13.5 10.5 "/>
<path style=" stroke:none;fill-rule:nonzero;fill:rgb(0%,47.058824%,83.137256%);fill-opacity:1;" d="M 9.75 3 L 9.75 18 L 7.5 18 L 7.5 3 C 7.5 2.585938 7.835938 2.25 8.25 2.25 L 9 2.25 C 9.414062 2.25 9.75 2.585938 9.75 3 Z M 9.75 3 "/>
<path style=" stroke:none;fill-rule:nonzero;fill:rgb(0%,47.058824%,83.137256%);fill-opacity:1;" d="M 6 8.25 L 6 18 L 3.75 18 L 3.75 8.25 C 3.75 7.835938 4.085938 7.5 4.5 7.5 L 5.25 7.5 C 5.664062 7.5 6 7.835938 6 8.25 Z M 6 8.25 "/>
<path style=" stroke:none;fill-rule:nonzero;fill:rgb(0%,47.058824%,83.137256%);fill-opacity:1;" d="M 2.25 13.5 L 2.25 18 L 0 18 L 0 13.5 C 0 13.085938 0.335938 12.75 0.75 12.75 L 1.5 12.75 C 1.914062 12.75 2.25 13.085938 2.25 13.5 Z M 2.25 13.5 "/>
<path style=" stroke:none;fill-rule:nonzero;fill:rgb(0%,47.058824%,83.137256%);fill-opacity:1;" d="M 22.5 25.5 L 22.5 18 L 24.75 18 L 24.75 25.5 C 24.75 25.914062 24.414062 26.25 24 26.25 L 23.25 26.25 C 22.835938 26.25 22.5 25.914062 22.5 25.5 Z M 22.5 25.5 "/>
<path style=" stroke:none;fill-rule:nonzero;fill:rgb(0%,47.058824%,83.137256%);fill-opacity:1;" d="M 26.25 33 L 26.25 18 L 28.5 18 L 28.5 33 C 28.5 33.414062 28.164062 33.75 27.75 33.75 L 27 33.75 C 26.585938 33.75 26.25 33.414062 26.25 33 Z M 26.25 33 "/>
<path style=" stroke:none;fill-rule:nonzero;fill:rgb(0%,47.058824%,83.137256%);fill-opacity:1;" d="M 30 27.75 L 30 18 L 32.25 18 L 32.25 27.75 C 32.25 28.164062 31.914062 28.5 31.5 28.5 L 30.75 28.5 C 30.335938 28.5 30 28.164062 30 27.75 Z M 30 27.75 "/>
<path style=" stroke:none;fill-rule:nonzero;fill:rgb(0%,47.058824%,83.137256%);fill-opacity:1;" d="M 33.75 22.5 L 33.75 18 L 36 18 L 36 22.5 C 36 22.914062 35.664062 23.25 35.25 23.25 L 34.5 23.25 C 34.085938 23.25 33.75 22.914062 33.75 22.5 Z M 33.75 22.5 "/>
<path style=" stroke:none;fill-rule:nonzero;fill:rgb(0%,47.058824%,83.137256%);fill-opacity:1;" d="M 18.75 20.25 L 18.75 18 L 21 18 L 21 20.25 C 21 20.664062 20.664062 21 20.25 21 L 19.5 21 C 19.085938 21 18.75 20.664062 18.75 20.25 Z M 18.75 20.25 "/>
<path style=" stroke:none;fill-rule:nonzero;fill:rgb(0%,47.058824%,83.137256%);fill-opacity:1;" d="M 17.25 15.75 L 17.25 18 L 15 18 L 15 15.75 C 15 15.335938 15.335938 15 15.75 15 L 16.5 15 C 16.914062 15 17.25 15.335938 17.25 15.75 Z M 17.25 15.75 "/>
</g>
</svg>
