<?xml version="1.0" encoding="UTF-8"?>
<svg xmlns="http://www.w3.org/2000/svg" xmlns:xlink="http://www.w3.org/1999/xlink" width="12pt" height="12pt" viewBox="0 0 12 12" version="1.1">
<g id="surface2798">
<path style=" stroke:none;fill-rule:nonzero;fill:rgb(100%,100%,100%);fill-opacity:1;" d="M 0.375 2.625 L 11.625 2.625 L 11.625 10.125 L 0.375 10.125 Z M 0.375 2.625 "/>
<path style=" stroke:none;fill-rule:nonzero;fill:rgb(47.058824%,54.509807%,61.176473%);fill-opacity:1;" d="M 12 10.5 L 0 10.5 L 0 2.25 L 12 2.25 Z M 0.75 9.75 L 11.25 9.75 L 11.25 3 L 0.75 3 Z M 0.75 9.75 "/>
<path style=" stroke:none;fill-rule:nonzero;fill:rgb(47.058824%,54.509807%,61.176473%);fill-opacity:1;" d="M 3.75 2.625 L 4.5 2.625 L 4.5 10.125 L 3.75 10.125 Z M 3.75 2.625 "/>
<path style=" stroke:none;fill-rule:nonzero;fill:rgb(47.058824%,54.509807%,61.176473%);fill-opacity:1;" d="M 7.5 2.625 L 8.25 2.625 L 8.25 10.125 L 7.5 10.125 Z M 7.5 2.625 "/>
<path style=" stroke:none;fill-rule:nonzero;fill:rgb(78.039217%,26.274511%,26.274511%);fill-opacity:1;" d="M 12 6.75 L 0 6.75 L 0 2.25 L 12 2.25 Z M 0.75 6 L 11.25 6 L 11.25 3 L 0.75 3 Z M 0.75 6 "/>
</g>
</svg>
