<?xml version="1.0" encoding="UTF-8"?>
<svg xmlns="http://www.w3.org/2000/svg" xmlns:xlink="http://www.w3.org/1999/xlink" width="12pt" height="12pt" viewBox="0 0 12 12" version="1.1">
<g id="surface1492">
<path style=" stroke:none;fill-rule:nonzero;fill:rgb(69.01961%,75.686276%,83.137256%);fill-opacity:1;" d="M 1.5 10.875 C 1.292969 10.875 1.125 10.707031 1.125 10.5 L 1.125 1.5 C 1.125 1.292969 1.292969 1.125 1.5 1.125 L 10.5 1.125 C 10.707031 1.125 10.875 1.292969 10.875 1.5 L 10.875 10.5 C 10.875 10.707031 10.707031 10.875 10.5 10.875 Z M 1.5 10.875 "/>
<path style=" stroke:none;fill-rule:nonzero;fill:rgb(40.000001%,47.450981%,56.078434%);fill-opacity:1;" d="M 10.5 1.5 L 10.5 10.5 L 1.5 10.5 L 1.5 1.5 L 10.5 1.5 M 10.5 0.75 L 1.5 0.75 C 1.085938 0.75 0.75 1.085938 0.75 1.5 L 0.75 10.5 C 0.75 10.914062 1.085938 11.25 1.5 11.25 L 10.5 11.25 C 10.914062 11.25 11.25 10.914062 11.25 10.5 L 11.25 1.5 C 11.25 1.085938 10.914062 0.75 10.5 0.75 Z M 10.5 0.75 "/>
<path style=" stroke:none;fill-rule:nonzero;fill:rgb(96.862745%,56.078434%,56.078434%);fill-opacity:1;" d="M 1.5 10.875 C 1.292969 10.875 1.125 10.707031 1.125 10.5 L 1.125 1.5 C 1.125 1.292969 1.292969 1.125 1.5 1.125 L 5.625 1.125 L 5.625 10.875 Z M 1.5 10.875 "/>
<path style=" stroke:none;fill-rule:nonzero;fill:rgb(40.000001%,47.450981%,56.078434%);fill-opacity:1;" d="M 5.25 1.5 L 5.25 10.5 L 1.5 10.5 L 1.5 1.5 L 5.25 1.5 M 6 0.75 L 1.5 0.75 C 1.085938 0.75 0.75 1.085938 0.75 1.5 L 0.75 10.5 C 0.75 10.914062 1.085938 11.25 1.5 11.25 L 6 11.25 Z M 6 0.75 "/>
<path style=" stroke:none;fill-rule:nonzero;fill:rgb(86.274511%,83.529413%,94.901961%);fill-opacity:1;" d="M 1.125 4.875 L 1.125 1.5 C 1.125 1.292969 1.292969 1.125 1.5 1.125 L 5.625 1.125 L 5.625 4.875 Z M 1.125 4.875 "/>
<path style=" stroke:none;fill-rule:nonzero;fill:rgb(40.000001%,47.450981%,56.078434%);fill-opacity:1;" d="M 5.25 1.5 L 5.25 4.5 L 1.5 4.5 L 1.5 1.5 L 5.25 1.5 M 6 0.75 L 1.5 0.75 C 1.085938 0.75 0.75 1.085938 0.75 1.5 L 0.75 5.25 L 6 5.25 Z M 6 0.75 "/>
<path style=" stroke:none;fill-rule:nonzero;fill:rgb(72.941178%,87.843138%,74.117649%);fill-opacity:1;" d="M 5.625 10.875 L 5.625 1.125 L 10.5 1.125 C 10.707031 1.125 10.875 1.292969 10.875 1.5 L 10.875 10.5 C 10.875 10.707031 10.707031 10.875 10.5 10.875 Z M 5.625 10.875 "/>
<path style=" stroke:none;fill-rule:nonzero;fill:rgb(40.000001%,47.450981%,56.078434%);fill-opacity:1;" d="M 10.5 1.5 L 10.5 10.5 L 6 10.5 L 6 1.5 L 10.5 1.5 M 10.5 0.75 L 5.25 0.75 L 5.25 11.25 L 10.5 11.25 C 10.914062 11.25 11.25 10.914062 11.25 10.5 L 11.25 1.5 C 11.25 1.085938 10.914062 0.75 10.5 0.75 Z M 10.5 0.75 "/>
<path style=" stroke:none;fill-rule:nonzero;fill:rgb(100%,93.333334%,63.921571%);fill-opacity:1;" d="M 5.625 10.875 L 5.625 7.125 L 10.875 7.125 L 10.875 10.5 C 10.875 10.707031 10.707031 10.875 10.5 10.875 Z M 5.625 10.875 "/>
<path style=" stroke:none;fill-rule:nonzero;fill:rgb(40.000001%,47.450981%,56.078434%);fill-opacity:1;" d="M 10.5 7.5 L 10.5 10.5 L 6 10.5 L 6 7.5 L 10.5 7.5 M 11.25 6.75 L 5.25 6.75 L 5.25 11.25 L 10.5 11.25 C 10.914062 11.25 11.25 10.914062 11.25 10.5 Z M 11.25 6.75 "/>
</g>
</svg>
