<?xml version="1.0" encoding="UTF-8" standalone="no"?>
<!DOCTYPE svg PUBLIC "-//W3C//DTD SVG 1.1//EN" "http://www.w3.org/Graphics/SVG/1.1/DTD/svg11.dtd">
<svg width="100%" height="100%" viewBox="0 0 12 12" version="1.1" xmlns="http://www.w3.org/2000/svg" xmlns:xlink="http://www.w3.org/1999/xlink" xml:space="preserve" xmlns:serif="http://www.serif.com/" style="fill-rule:evenodd;clip-rule:evenodd;stroke-linejoin:round;stroke-miterlimit:2;">
    <g id="surface3088">
        <g transform="matrix(1,0,0,1,0,0.375)">
            <rect x="0.375" y="1.875" width="11.25" height="7.5" style="fill:rgb(194,232,254);fill-rule:nonzero;"/>
            <path d="M11.25,2.25L11.25,9L0.75,9L0.75,2.25L11.25,2.25M12,1.5L0,1.5L0,9.75L12,9.75L12,1.5Z" style="fill:rgb(115,150,196);fill-rule:nonzero;"/>
        </g>
        <g transform="matrix(1,0,0,1,-1.35893,0.195969)">
            <g transform="matrix(5,0,0,5,2.84053,7.84841)">
                <path d="M0.084,-0L0.084,-0.076L0.25,-0.076L0.25,-0.682L0.084,-0.682L0.084,-0.758L0.516,-0.758L0.516,-0.682L0.349,-0.682L0.349,-0.076L0.516,-0.076L0.516,-0L0.084,-0Z" style="fill:rgb(115,150,196);fill-rule:nonzero;"/>
            </g>
            <g transform="matrix(5,0,0,5,5.84102,7.84841)">
                <path d="M0.076,-0L0.076,-0.758L0.255,-0.758C0.338,-0.758 0.399,-0.743 0.44,-0.715C0.48,-0.686 0.51,-0.642 0.53,-0.584C0.55,-0.526 0.561,-0.457 0.561,-0.377C0.561,-0.301 0.55,-0.235 0.529,-0.178C0.507,-0.121 0.477,-0.077 0.438,-0.046C0.399,-0.015 0.338,-0 0.255,-0L0.076,-0ZM0.174,-0.083L0.24,-0.083C0.307,-0.083 0.355,-0.095 0.383,-0.119C0.412,-0.143 0.432,-0.176 0.444,-0.218C0.456,-0.26 0.462,-0.318 0.462,-0.393C0.462,-0.465 0.455,-0.521 0.441,-0.56C0.427,-0.599 0.406,-0.629 0.379,-0.65C0.353,-0.671 0.309,-0.682 0.248,-0.682L0.174,-0.682L0.174,-0.083Z" style="fill:rgb(115,150,196);fill-rule:nonzero;"/>
            </g>
            <g transform="matrix(5,0,0,5,8.84151,7.84841)">
                <path d="M0.126,-0L0.023,-0L0.245,-0.396L0.045,-0.758L0.157,-0.758L0.302,-0.497L0.45,-0.758L0.553,-0.758L0.353,-0.403L0.577,-0L0.463,-0L0.296,-0.302L0.126,-0Z" style="fill:rgb(115,150,196);fill-rule:nonzero;"/>
            </g>
        </g>
    </g>
</svg>
