<?xml version="1.0" encoding="UTF-8"?>
<svg xmlns="http://www.w3.org/2000/svg" xmlns:xlink="http://www.w3.org/1999/xlink" width="12pt" height="12pt" viewBox="0 0 12 12" version="1.1">
<g id="surface9003">
<path style=" stroke:none;fill-rule:nonzero;fill:rgb(30.588236%,47.843137%,70.980394%);fill-opacity:1;" d="M 1.566406 0 L 1.566406 3.09375 L 0.960938 3.09375 L 0.960938 0.84375 C 0.960938 0.84375 0.574219 0.976562 0.261719 0.976562 L 0.261719 0.464844 C 0.644531 0.371094 1.050781 0.160156 1.199219 0 Z M 0.0585938 11.847656 L 0.0585938 11.265625 C 0.261719 11.414062 0.496094 11.488281 0.769531 11.488281 C 0.9375 11.488281 1.070312 11.453125 1.167969 11.378906 C 1.261719 11.304688 1.308594 11.203125 1.308594 11.070312 C 1.308594 10.9375 1.25 10.832031 1.132812 10.757812 C 1.015625 10.6875 0.855469 10.648438 0.648438 10.648438 L 0.367188 10.648438 L 0.367188 10.136719 L 0.628906 10.136719 C 1.023438 10.136719 1.21875 10.007812 1.21875 9.746094 C 1.21875 9.5 1.066406 9.375 0.765625 9.375 C 0.5625 9.375 0.367188 9.441406 0.171875 9.570312 L 0.171875 9.027344 C 0.386719 8.917969 0.632812 8.867188 0.917969 8.867188 C 1.226562 8.867188 1.46875 8.9375 1.640625 9.074219 C 1.8125 9.214844 1.898438 9.398438 1.898438 9.617188 C 1.898438 10.015625 1.699219 10.261719 1.296875 10.363281 L 1.296875 10.375 C 1.511719 10.398438 1.679688 10.476562 1.804688 10.605469 C 1.929688 10.734375 1.992188 10.894531 1.992188 11.082031 C 1.992188 11.363281 1.886719 11.585938 1.679688 11.753906 C 1.472656 11.917969 1.1875 12 0.820312 12 C 0.507812 12 0.253906 11.949219 0.0585938 11.847656 Z M 0.726562 6.96875 L 2.003906 6.96875 L 2.003906 7.519531 L 0 7.519531 L 0 7.292969 C 0 6.195312 1.332031 6.054688 1.332031 5.375 C 1.332031 5.019531 1.039062 4.984375 0.890625 4.984375 C 0.628906 4.984375 0.382812 5.089844 0.144531 5.292969 L 0.144531 4.710938 C 0.40625 4.539062 0.703125 4.457031 1.03125 4.457031 C 1.96875 4.457031 2.011719 5.179688 2.011719 5.3125 C 2.007812 6.292969 0.726562 6.554688 0.726562 6.96875 Z M 0.726562 6.96875 "/>
<path style=" stroke:none;fill-rule:nonzero;fill:rgb(21.176471%,25.098041%,30.19608%);fill-opacity:1;" d="M 3.75 1.5 L 12 1.5 L 12 2.25 L 3.75 2.25 Z M 3.75 10.5 L 12 10.5 L 12 11.25 L 3.75 11.25 Z M 3.75 6 L 12 6 L 12 6.75 L 3.75 6.75 Z M 3.75 6 "/>
</g>
</svg>
