<?xml version="1.0" encoding="UTF-8"?>
<svg xmlns="http://www.w3.org/2000/svg" xmlns:xlink="http://www.w3.org/1999/xlink" width="12pt" height="12pt" viewBox="0 0 12 12" version="1.1">
<g id="surface1430">
<path style=" stroke:none;fill-rule:nonzero;fill:rgb(94.901961%,98.039216%,100%);fill-opacity:1;" d="M 2.625 10.125 L 2.625 9 C 2.625 7.933594 3.125 6.949219 3.996094 6.300781 L 4.398438 6 L 3.996094 5.699219 C 3.125 5.050781 2.625 4.066406 2.625 3 L 2.625 1.875 L 9.375 1.875 L 9.375 3 C 9.375 4.066406 8.875 5.050781 8.003906 5.699219 L 7.601562 6 L 8.003906 6.300781 C 8.875 6.949219 9.375 7.933594 9.375 9 L 9.375 10.125 Z M 2.625 10.125 "/>
<path style=" stroke:none;fill-rule:nonzero;fill:rgb(47.058824%,54.509807%,61.176473%);fill-opacity:1;" d="M 9 2.25 L 9 3 C 9 3.945312 8.554688 4.820312 7.78125 5.398438 L 6.972656 6 L 7.78125 6.601562 C 8.554688 7.179688 9 8.054688 9 9 L 9 9.75 L 3 9.75 L 3 9 C 3 8.054688 3.445312 7.179688 4.21875 6.601562 L 5.027344 6 L 4.21875 5.398438 C 3.445312 4.820312 3 3.945312 3 3 L 3 2.25 L 9 2.25 M 9.75 1.5 L 2.25 1.5 L 2.25 3 C 2.25 4.230469 2.851562 5.316406 3.769531 6 C 2.851562 6.683594 2.25 7.769531 2.25 9 L 2.25 10.5 L 9.75 10.5 L 9.75 9 C 9.75 7.769531 9.148438 6.683594 8.230469 6 C 9.148438 5.316406 9.75 4.230469 9.75 3 Z M 9.75 1.5 "/>
<path style=" stroke:none;fill-rule:nonzero;fill:rgb(54.509807%,71.764708%,94.117647%);fill-opacity:1;" d="M 2.625 1.875 L 2.625 1.125 L 1.875 1.125 L 1.875 0.375 L 10.125 0.375 L 10.125 1.125 L 9.375 1.125 L 9.375 1.875 Z M 2.625 1.875 "/>
<path style=" stroke:none;fill-rule:nonzero;fill:rgb(30.588236%,47.843137%,70.980394%);fill-opacity:1;" d="M 9 0.75 L 9 1.5 L 3 1.5 L 3 0.75 L 9 0.75 M 10.5 0 L 1.5 0 L 1.5 1.5 L 2.25 1.5 L 2.25 2.25 L 9.75 2.25 L 9.75 1.5 L 10.5 1.5 Z M 10.5 0 "/>
<path style=" stroke:none;fill-rule:nonzero;fill:rgb(54.509807%,71.764708%,94.117647%);fill-opacity:1;" d="M 1.875 11.625 L 1.875 10.875 L 2.625 10.875 L 2.625 10.125 L 9.375 10.125 L 9.375 10.875 L 10.125 10.875 L 10.125 11.625 Z M 1.875 11.625 "/>
<path style=" stroke:none;fill-rule:nonzero;fill:rgb(30.588236%,47.843137%,70.980394%);fill-opacity:1;" d="M 9 10.5 L 9 11.25 L 9.75 11.25 L 3 11.25 L 3 10.5 L 9 10.5 M 9.75 9.75 L 2.25 9.75 L 2.25 10.5 L 1.5 10.5 L 1.5 12 L 10.5 12 L 10.5 10.5 L 9.75 10.5 Z M 9.75 9.75 "/>
<path style=" stroke:none;fill-rule:nonzero;fill:rgb(85.09804%,54.509807%,34.117648%);fill-opacity:1;" d="M 3.75 3 C 3.75 4.242188 4.757812 5.25 6 5.25 C 7.242188 5.25 8.25 4.242188 8.25 3 Z M 3.75 3 "/>
</g>
</svg>
