<?xml version="1.0" encoding="UTF-8"?>
<svg xmlns="http://www.w3.org/2000/svg" xmlns:xlink="http://www.w3.org/1999/xlink" width="12pt" height="12pt" viewBox="0 0 12 12" version="1.1">
<g id="surface10391">
<path style=" stroke:none;fill-rule:nonzero;fill:rgb(76.078433%,90.980393%,100%);fill-opacity:1;" d="M 0 1.5 L 12 1.5 L 12 10.5 L 0 10.5 Z M 0 1.5 "/>
<path style=" stroke:none;fill-rule:nonzero;fill:rgb(54.509807%,71.764708%,94.117647%);fill-opacity:1;" d="M 0 5.25 L 12 5.25 L 12 6 L 0 6 Z M 0 5.25 "/>
<path style=" stroke:none;fill-rule:nonzero;fill:rgb(45.490196%,58.823532%,76.862746%);fill-opacity:1;" d="M 0 1.5 L 0.75 1.5 L 0.75 2.25 L 0 2.25 Z M 1.5 1.5 L 2.25 1.5 L 2.25 2.25 L 1.5 2.25 Z M 3 1.5 L 3.75 1.5 L 3.75 2.25 L 3 2.25 Z M 4.5 1.5 L 5.25 1.5 L 5.25 2.25 L 4.5 2.25 Z M 6 1.5 L 6.75 1.5 L 6.75 2.25 L 6 2.25 Z M 7.5 1.5 L 8.25 1.5 L 8.25 2.25 L 7.5 2.25 Z M 9 1.5 L 9.75 1.5 L 9.75 2.25 L 9 2.25 Z M 10.5 1.5 L 11.25 1.5 L 11.25 2.25 L 10.5 2.25 Z M 0 9.75 L 0.75 9.75 L 0.75 10.5 L 0 10.5 Z M 1.5 9.75 L 2.25 9.75 L 2.25 10.5 L 1.5 10.5 Z M 3 9.75 L 3.75 9.75 L 3.75 10.5 L 3 10.5 Z M 4.5 9.75 L 5.25 9.75 L 5.25 10.5 L 4.5 10.5 Z M 6 9.75 L 6.75 9.75 L 6.75 10.5 L 6 10.5 Z M 7.5 9.75 L 8.25 9.75 L 8.25 10.5 L 7.5 10.5 Z M 9 9.75 L 9.75 9.75 L 9.75 10.5 L 9 10.5 Z M 10.5 9.75 L 11.25 9.75 L 11.25 10.5 L 10.5 10.5 Z M 10.5 9.75 "/>
<path style=" stroke:none;fill-rule:nonzero;fill:rgb(30.588236%,47.843137%,70.980394%);fill-opacity:1;" d="M 4.425781 9 C 3.300781 9 2.925781 7.5 2.550781 6 C 2.25 5.023438 1.949219 3.75 1.5 3.75 C 0.824219 3.75 0.75 4.351562 0.75 4.5 L 0 4.5 C 0 3.898438 0.449219 3 1.5 3 C 2.550781 3 2.851562 4.351562 3.226562 5.851562 C 3.523438 6.898438 3.824219 8.25 4.425781 8.25 C 4.648438 8.25 4.726562 8.101562 4.949219 7.726562 C 5.175781 7.351562 5.550781 6.75 6.375 6.75 C 7.574219 6.75 8.023438 5.773438 8.550781 4.800781 C 9.074219 3.898438 9.523438 3 10.5 3 C 10.949219 3 11.324219 3.148438 11.625 3.449219 C 12 3.898438 12 4.425781 12 4.5 L 11.25 4.5 L 11.625 4.5 L 11.25 4.5 C 11.25 4.5 11.25 4.199219 11.101562 3.976562 C 10.949219 3.824219 10.726562 3.75 10.5 3.75 C 10.050781 3.75 9.75 4.273438 9.300781 5.101562 C 8.699219 6.148438 8.023438 7.5 6.375 7.5 C 5.925781 7.5 5.773438 7.726562 5.550781 8.175781 C 5.324219 8.476562 5.023438 9 4.425781 9 Z M 4.425781 9 "/>
</g>
</svg>
