<?xml version="1.0" encoding="UTF-8" standalone="no"?>
<!DOCTYPE svg PUBLIC "-//W3C//DTD SVG 1.1//EN" "http://www.w3.org/Graphics/SVG/1.1/DTD/svg11.dtd">
<svg width="100%" height="100%" viewBox="0 0 12 12" version="1.1" xmlns="http://www.w3.org/2000/svg" xmlns:xlink="http://www.w3.org/1999/xlink" xml:space="preserve" xmlns:serif="http://www.serif.com/" style="fill-rule:evenodd;clip-rule:evenodd;stroke-linejoin:round;stroke-miterlimit:2;">
    <g id="surface10244">
        <rect x="0" y="0" width="0.75" height="12" style="fill:rgb(102,121,143);fill-rule:nonzero;"/>
        <g transform="matrix(1,-1.22465e-16,-1.22465e-16,-1,1.77636e-15,12)">
            <path d="M0,11.25L12,11.25L12,12L0,12L0,11.25ZM1.875,9.75C1.668,9.75 1.5,9.918 1.5,10.125C1.5,10.332 1.668,10.5 1.875,10.5C2.082,10.5 2.25,10.332 2.25,10.125C2.25,9.918 2.082,9.75 1.875,9.75ZM3.375,9.75C3.168,9.75 3,9.918 3,10.125C3,10.332 3.168,10.5 3.375,10.5C3.582,10.5 3.75,10.332 3.75,10.125C3.75,9.918 3.582,9.75 3.375,9.75ZM4.875,9.75C4.668,9.75 4.5,9.918 4.5,10.125C4.5,10.332 4.668,10.5 4.875,10.5C5.082,10.5 5.25,10.332 5.25,10.125C5.25,9.918 5.082,9.75 4.875,9.75ZM6.375,9.75C6.168,9.75 6,9.918 6,10.125C6,10.332 6.168,10.5 6.375,10.5C6.582,10.5 6.75,10.332 6.75,10.125C6.75,9.918 6.582,9.75 6.375,9.75ZM7.875,9.75C7.668,9.75 7.5,9.918 7.5,10.125C7.5,10.332 7.668,10.5 7.875,10.5C8.082,10.5 8.25,10.332 8.25,10.125C8.25,9.918 8.082,9.75 7.875,9.75ZM9.375,9.75C9.168,9.75 9,9.918 9,10.125C9,10.332 9.168,10.5 9.375,10.5C9.582,10.5 9.75,10.332 9.75,10.125C9.75,9.918 9.582,9.75 9.375,9.75ZM10.875,9.75C10.668,9.75 10.5,9.918 10.5,10.125C10.5,10.332 10.668,10.5 10.875,10.5C11.082,10.5 11.25,10.332 11.25,10.125C11.25,9.918 11.082,9.75 10.875,9.75Z" style="fill:rgb(102,121,143);fill-rule:nonzero;"/>
        </g>
        <g transform="matrix(-1,-1.22465e-16,1.22465e-16,-1,12,12)">
            <path d="M9.598,0C8.992,3.988 7.586,9 6,9C4.418,9 3.008,3.988 2.402,0L1.648,0C2.07,2.727 3.406,9.75 6,9.75C8.594,9.75 9.93,2.727 10.352,0L9.598,0Z" style="fill:rgb(94,156,118);fill-rule:nonzero;"/>
        </g>
    </g>
</svg>
