<?xml version="1.0" encoding="UTF-8"?>
<svg xmlns="http://www.w3.org/2000/svg" xmlns:xlink="http://www.w3.org/1999/xlink" width="12pt" height="12pt" viewBox="0 0 12 12" version="1.1">
<g id="surface10244">
<path style=" stroke:none;fill-rule:nonzero;fill:rgb(40.000001%,47.450981%,56.078434%);fill-opacity:1;" d="M 0 0 L 0.75 0 L 0.75 12 L 0 12 Z M 0 0 "/>
<path style=" stroke:none;fill-rule:nonzero;fill:rgb(40.000001%,47.450981%,56.078434%);fill-opacity:1;" d="M 0 11.25 L 12 11.25 L 12 12 L 0 12 Z M 1.875 9.75 C 1.667969 9.75 1.5 9.917969 1.5 10.125 C 1.5 10.332031 1.667969 10.5 1.875 10.5 C 2.082031 10.5 2.25 10.332031 2.25 10.125 C 2.25 9.917969 2.082031 9.75 1.875 9.75 Z M 3.375 9.75 C 3.167969 9.75 3 9.917969 3 10.125 C 3 10.332031 3.167969 10.5 3.375 10.5 C 3.582031 10.5 3.75 10.332031 3.75 10.125 C 3.75 9.917969 3.582031 9.75 3.375 9.75 Z M 4.875 9.75 C 4.667969 9.75 4.5 9.917969 4.5 10.125 C 4.5 10.332031 4.667969 10.5 4.875 10.5 C 5.082031 10.5 5.25 10.332031 5.25 10.125 C 5.25 9.917969 5.082031 9.75 4.875 9.75 Z M 6.375 9.75 C 6.167969 9.75 6 9.917969 6 10.125 C 6 10.332031 6.167969 10.5 6.375 10.5 C 6.582031 10.5 6.75 10.332031 6.75 10.125 C 6.75 9.917969 6.582031 9.75 6.375 9.75 Z M 7.875 9.75 C 7.667969 9.75 7.5 9.917969 7.5 10.125 C 7.5 10.332031 7.667969 10.5 7.875 10.5 C 8.082031 10.5 8.25 10.332031 8.25 10.125 C 8.25 9.917969 8.082031 9.75 7.875 9.75 Z M 9.375 9.75 C 9.167969 9.75 9 9.917969 9 10.125 C 9 10.332031 9.167969 10.5 9.375 10.5 C 9.582031 10.5 9.75 10.332031 9.75 10.125 C 9.75 9.917969 9.582031 9.75 9.375 9.75 Z M 10.875 9.75 C 10.667969 9.75 10.5 9.917969 10.5 10.125 C 10.5 10.332031 10.667969 10.5 10.875 10.5 C 11.082031 10.5 11.25 10.332031 11.25 10.125 C 11.25 9.917969 11.082031 9.75 10.875 9.75 Z M 10.875 9.75 "/>
<path style=" stroke:none;fill-rule:nonzero;fill:rgb(36.862746%,61.176473%,46.27451%);fill-opacity:1;" d="M 9.597656 0 C 8.992188 3.988281 7.585938 9 6 9 C 4.417969 9 3.007812 3.988281 2.402344 0 L 1.648438 0 C 2.070312 2.726562 3.40625 9.75 6 9.75 C 8.59375 9.75 9.929688 2.726562 10.351562 0 Z M 9.597656 0 "/>
</g>
</svg>
