<?xml version="1.0" encoding="UTF-8"?>
<svg xmlns="http://www.w3.org/2000/svg" xmlns:xlink="http://www.w3.org/1999/xlink" width="12pt" height="12pt" viewBox="0 0 12 12" version="1.1">
<g id="surface4818">
<path style=" stroke:none;fill-rule:nonzero;fill:rgb(100%,100%,100%);fill-opacity:1;" d="M 0.375 1.125 L 11.625 1.125 L 11.625 10.875 L 0.375 10.875 Z M 0.375 1.125 "/>
<path style=" stroke:none;fill-rule:nonzero;fill:rgb(47.058824%,54.509807%,61.176473%);fill-opacity:1;" d="M 11.25 1.5 L 11.25 10.5 L 0.75 10.5 L 0.75 1.5 L 11.25 1.5 M 12 0.75 L 0 0.75 L 0 11.25 L 12 11.25 Z M 12 0.75 "/>
<path style=" stroke:none;fill-rule:nonzero;fill:rgb(47.058824%,54.509807%,61.176473%);fill-opacity:1;" d="M 0 0.75 L 12 0.75 L 12 2.25 L 0 2.25 Z M 0 0.75 "/>
<path style=" stroke:none;fill-rule:nonzero;fill:rgb(41.176471%,65.098041%,90.980393%);fill-opacity:1;" d="M 4.949219 8.25 C 4.5 8.25 4.050781 7.949219 3.824219 7.351562 L 4.5 7.050781 C 4.648438 7.351562 4.800781 7.5 4.949219 7.5 C 5.625 7.5 5.625 6.601562 5.625 6.375 C 5.625 5.851562 5.398438 5.25 4.949219 5.25 C 4.800781 5.25 4.648438 5.398438 4.574219 5.625 L 3.824219 5.398438 C 4.050781 4.800781 4.5 4.5 4.949219 4.5 C 5.773438 4.5 6.375 5.25 6.375 6.375 C 6.375 7.5 5.773438 8.25 4.949219 8.25 Z M 4.949219 8.25 "/>
<path style=" stroke:none;fill-rule:nonzero;fill:rgb(41.176471%,65.098041%,90.980393%);fill-opacity:1;" d="M 7.050781 8.25 C 6.148438 8.25 5.625 7.5 5.625 6.375 C 5.625 5.25 6.226562 4.5 7.050781 4.5 C 7.5 4.5 7.875 4.800781 8.101562 5.398438 L 7.425781 5.625 C 7.351562 5.398438 7.199219 5.25 7.050781 5.25 C 6.601562 5.25 6.375 5.851562 6.375 6.375 C 6.375 6.601562 6.375 7.5 7.050781 7.5 C 7.199219 7.5 7.351562 7.351562 7.425781 7.125 L 8.101562 7.425781 C 7.949219 7.949219 7.5 8.25 7.050781 8.25 Z M 9.375 8.625 L 8.699219 8.398438 C 8.925781 7.800781 9 7.125 9 6.449219 C 9 5.773438 8.925781 5.101562 8.699219 4.5 L 9.375 4.273438 C 9.601562 4.875 9.75 5.625 9.75 6.375 C 9.75 7.125 9.601562 7.875 9.375 8.625 Z M 2.625 8.550781 C 2.398438 7.875 2.25 7.125 2.25 6.375 C 2.25 5.625 2.398438 4.875 2.625 4.199219 L 3.300781 4.425781 C 3.074219 5.023438 3 5.699219 3 6.375 C 3 7.050781 3.074219 7.726562 3.300781 8.324219 Z M 2.625 8.550781 "/>
</g>
</svg>
