<?xml version="1.0" encoding="UTF-8"?>
<svg xmlns="http://www.w3.org/2000/svg" xmlns:xlink="http://www.w3.org/1999/xlink" width="12pt" height="12pt" viewBox="0 0 12 12" version="1.1">
<g id="surface1868">
<path style=" stroke:none;fill-rule:nonzero;fill:rgb(54.509807%,45.882353%,63.137257%);fill-opacity:1;" d="M 6.328125 8.625 C 6.328125 8.410156 6.296875 8.203125 6.25 8.003906 L 6.953125 7.425781 L 6.390625 6.449219 L 5.527344 6.761719 C 5.230469 6.476562 4.867188 6.261719 4.457031 6.144531 L 4.3125 5.25 L 3.1875 5.25 L 3.035156 6.144531 C 2.628906 6.261719 2.261719 6.476562 1.964844 6.761719 L 1.109375 6.449219 L 0.546875 7.425781 L 1.246094 7.992188 C 1.195312 8.195312 1.164062 8.40625 1.164062 8.625 C 1.164062 8.839844 1.195312 9.046875 1.246094 9.25 L 0.546875 9.824219 L 1.109375 10.800781 L 1.953125 10.480469 C 2.253906 10.769531 2.621094 10.988281 3.035156 11.105469 L 3.1875 12 L 4.3125 12 L 4.460938 11.105469 C 4.871094 10.984375 5.242188 10.769531 5.539062 10.476562 L 6.390625 10.800781 L 6.953125 9.824219 L 6.25 9.246094 C 6.296875 9.046875 6.328125 8.839844 6.328125 8.625 Z M 4.871094 8.625 C 4.871094 9.246094 4.367188 9.75 3.746094 9.75 C 3.125 9.75 2.621094 9.246094 2.621094 8.625 C 2.621094 8.003906 3.125 7.5 3.746094 7.5 C 4.367188 7.5 4.871094 8.003906 4.871094 8.625 Z M 4.871094 8.625 "/>
<path style=" stroke:none;fill-rule:nonzero;fill:rgb(47.058824%,54.509807%,61.176473%);fill-opacity:1;" d="M 10.832031 3.375 C 10.832031 3.160156 10.800781 2.953125 10.753906 2.753906 L 11.457031 2.175781 L 10.894531 1.199219 L 10.03125 1.511719 C 9.734375 1.226562 9.367188 1.011719 8.960938 0.894531 L 8.816406 0 L 7.691406 0 L 7.539062 0.894531 C 7.132812 1.011719 6.765625 1.226562 6.46875 1.511719 L 5.613281 1.199219 L 5.050781 2.175781 L 5.75 2.742188 C 5.699219 2.945312 5.667969 3.15625 5.667969 3.375 C 5.667969 3.589844 5.699219 3.796875 5.75 4 L 5.050781 4.574219 L 5.613281 5.550781 L 6.457031 5.230469 C 6.757812 5.519531 7.128906 5.738281 7.539062 5.855469 L 7.691406 6.75 L 8.816406 6.75 L 8.964844 5.855469 C 9.375 5.734375 9.742188 5.519531 10.042969 5.226562 L 10.894531 5.550781 L 11.457031 4.574219 L 10.753906 3.996094 C 10.800781 3.796875 10.832031 3.589844 10.832031 3.375 Z M 9.375 3.375 C 9.375 3.996094 8.871094 4.5 8.25 4.5 C 7.628906 4.5 7.125 3.996094 7.125 3.375 C 7.125 2.753906 7.628906 2.25 8.25 2.25 C 8.871094 2.25 9.375 2.753906 9.375 3.375 Z M 9.375 3.375 "/>
</g>
</svg>
