<?xml version="1.0" encoding="UTF-8"?>
<svg xmlns="http://www.w3.org/2000/svg" xmlns:xlink="http://www.w3.org/1999/xlink" width="12pt" height="12pt" viewBox="0 0 12 12" version="1.1">
<g id="surface2274">
<path style=" stroke:none;fill-rule:nonzero;fill:rgb(100%,100%,100%);fill-opacity:1;" d="M 0.375 3.375 L 10.125 3.375 L 10.125 11.625 L 0.375 11.625 Z M 0.375 3.375 "/>
<path style=" stroke:none;fill-rule:nonzero;fill:rgb(47.058824%,54.509807%,61.176473%);fill-opacity:1;" d="M 9.75 3.75 L 9.75 11.25 L 0.75 11.25 L 0.75 3.75 L 9.75 3.75 M 10.5 3 L 0 3 L 0 12 L 10.5 12 Z M 10.5 3 "/>
<path style=" stroke:none;fill-rule:nonzero;fill:rgb(78.431374%,81.960785%,85.882354%);fill-opacity:1;" d="M 0.375 3.375 L 0.375 2.25 C 0.375 2.023438 0.523438 1.875 0.75 1.875 L 9.75 1.875 C 9.976562 1.875 10.125 2.023438 10.125 2.25 L 10.125 3.375 Z M 0.375 3.375 "/>
<path style=" stroke:none;fill-rule:nonzero;fill:rgb(40.000001%,47.450981%,56.078434%);fill-opacity:1;" d="M 9.75 2.25 L 9.75 3 L 0.75 3 L 0.75 2.25 L 9.75 2.25 M 9.75 1.5 L 0.75 1.5 C 0.300781 1.5 0 1.800781 0 2.25 L 0 3.75 L 10.5 3.75 L 10.5 2.25 C 10.5 1.800781 10.199219 1.5 9.75 1.5 Z M 9.75 1.5 "/>
<path style=" stroke:none;fill-rule:nonzero;fill:rgb(100%,100%,100%);fill-opacity:1;" d="M 1.875 1.875 L 11.625 1.875 L 11.625 10.125 L 1.875 10.125 Z M 1.875 1.875 "/>
<path style=" stroke:none;fill-rule:nonzero;fill:rgb(47.058824%,54.509807%,61.176473%);fill-opacity:1;" d="M 11.25 2.25 L 11.25 9.75 L 2.25 9.75 L 2.25 2.25 L 11.25 2.25 M 12 1.5 L 1.5 1.5 L 1.5 10.5 L 12 10.5 Z M 12 1.5 "/>
<path style=" stroke:none;fill-rule:nonzero;fill:rgb(78.431374%,81.960785%,85.882354%);fill-opacity:1;" d="M 1.875 1.875 L 1.875 0.75 C 1.875 0.523438 2.023438 0.375 2.25 0.375 L 11.25 0.375 C 11.476562 0.375 11.625 0.523438 11.625 0.75 L 11.625 1.875 Z M 1.875 1.875 "/>
<path style=" stroke:none;fill-rule:nonzero;fill:rgb(40.000001%,47.450981%,56.078434%);fill-opacity:1;" d="M 11.25 0.75 L 11.25 1.5 L 2.25 1.5 L 2.25 0.75 L 11.25 0.75 M 11.25 0 L 2.25 0 C 1.800781 0 1.5 0.300781 1.5 0.75 L 1.5 2.25 L 12 2.25 L 12 0.75 C 12 0.300781 11.699219 0 11.25 0 Z M 11.25 0 "/>
<path style=" stroke:none;fill-rule:nonzero;fill:rgb(47.058824%,54.509807%,61.176473%);fill-opacity:1;" d="M 5.25 3.75 L 9.75 3.75 L 9.75 4.5 L 5.25 4.5 Z M 5.25 5.25 L 9.75 5.25 L 9.75 6 L 5.25 6 Z M 5.25 6.75 L 9.75 6.75 L 9.75 7.5 L 5.25 7.5 Z M 3.75 3.75 L 4.5 3.75 L 4.5 4.5 L 3.75 4.5 Z M 3.75 5.25 L 4.5 5.25 L 4.5 6 L 3.75 6 Z M 3.75 6.75 L 4.5 6.75 L 4.5 7.5 L 3.75 7.5 Z M 3.75 6.75 "/>
</g>
</svg>
