<?xml version="1.0" encoding="UTF-8"?>
<svg xmlns="http://www.w3.org/2000/svg" xmlns:xlink="http://www.w3.org/1999/xlink" width="12pt" height="12pt" viewBox="0 0 12 12" version="1.1">
<g id="surface2426">
<path style=" stroke:none;fill-rule:nonzero;fill:rgb(54.509807%,71.764708%,94.117647%);fill-opacity:1;" d="M 1.875 1.125 L 9.375 1.125 L 9.375 10.125 L 1.875 10.125 Z M 1.875 1.125 "/>
<path style=" stroke:none;fill-rule:nonzero;fill:rgb(30.588236%,47.843137%,70.980394%);fill-opacity:1;" d="M 9 1.5 L 9 9.75 L 2.25 9.75 L 2.25 1.5 L 9 1.5 M 9.75 0.75 L 1.5 0.75 L 1.5 10.5 L 9.75 10.5 Z M 9.75 0.75 "/>
<path style=" stroke:none;fill-rule:nonzero;fill:rgb(30.588236%,47.843137%,70.980394%);fill-opacity:1;" d="M 3 2.25 L 3.75 2.25 L 3.75 3 L 3 3 Z M 4.5 2.25 L 5.25 2.25 L 5.25 3 L 4.5 3 Z M 3 3.75 L 3.75 3.75 L 3.75 4.5 L 3 4.5 Z M 4.5 3.75 L 5.25 3.75 L 5.25 4.5 L 4.5 4.5 Z M 6 2.25 L 6.75 2.25 L 6.75 3 L 6 3 Z M 7.5 2.25 L 8.25 2.25 L 8.25 3 L 7.5 3 Z M 6 3.75 L 6.75 3.75 L 6.75 4.5 L 6 4.5 Z M 7.5 3.75 L 8.25 3.75 L 8.25 4.5 L 7.5 4.5 Z M 3 5.25 L 3.75 5.25 L 3.75 6 L 3 6 Z M 4.5 5.25 L 5.25 5.25 L 5.25 6 L 4.5 6 Z M 6 5.25 L 6.75 5.25 L 6.75 6 L 6 6 Z M 3 6.75 L 3.75 6.75 L 3.75 7.5 L 3 7.5 Z M 4.5 6.75 L 5.25 6.75 L 5.25 7.5 L 4.5 7.5 Z M 3 8.25 L 3.75 8.25 L 3.75 9 L 3 9 Z M 3 8.25 "/>
<path style=" stroke:none;fill-rule:nonzero;fill:rgb(100%,76.862746%,61.176473%);fill-opacity:1;" d="M 11.46875 6.421875 L 6.40625 11.484375 L 4.6875 9.765625 L 9.75 4.703125 Z M 11.46875 6.421875 "/>
<path style=" stroke:none;fill-rule:nonzero;fill:rgb(58.823532%,47.843137%,26.666668%);fill-opacity:1;" d="M 9.75 5.234375 L 10.941406 6.421875 L 6.40625 10.957031 L 5.21875 9.765625 L 9.75 5.234375 M 9.75 4.171875 L 4.15625 9.765625 L 6.40625 12.015625 L 12 6.421875 Z M 9.75 4.171875 "/>
<path style=" stroke:none;fill-rule:nonzero;fill:rgb(58.823532%,47.843137%,26.666668%);fill-opacity:1;" d="M 8.792969 5.25 L 9.757812 6.214844 L 9.222656 6.75 L 8.257812 5.785156 Z M 8.792969 5.25 "/>
<path style=" stroke:none;fill-rule:nonzero;fill:rgb(58.823532%,47.843137%,26.666668%);fill-opacity:1;" d="M 7.285156 6.75 L 8.25 7.714844 L 7.714844 8.25 L 6.75 7.285156 Z M 7.285156 6.75 "/>
<path style=" stroke:none;fill-rule:nonzero;fill:rgb(58.823532%,47.843137%,26.666668%);fill-opacity:1;" d="M 5.785156 8.25 L 6.75 9.214844 L 6.214844 9.75 L 5.25 8.785156 Z M 5.785156 8.25 "/>
</g>
</svg>
