<svg xmlns="http://www.w3.org/2000/svg"  viewBox="0 0 16 16" width="16px" height="16px"><path fill="#fff" d="M0.5 0.5H10.5V10.5H0.5z"/><path fill="#788b9c" d="M10,1v9H1V1H10 M11,0H0v11h11V0L11,0z"/><path fill="#8bb7f0" d="M5.5 15.5L5.5 10.2 10.2 5.5 15.5 5.5 15.5 15.5z"/><path fill="#4e7ab5" d="M15,6v9H6v-4.6L10.4,6H15 M16,5h-6l-5,5v6h11V5L16,5z"/><path fill="#fff" d="M9.3 11H11.8V12H9.3z"/><path fill="#fff" d="M11.2 8L9.8 8 8 13 9.2 13 10.5 9 10.5 9 11.8 13 13 13z"/><path fill="#788b9c" d="M2 3H9V4H2z"/><path fill="#788b9c" d="M5 2H6V3.7H5zM2 8V7c3.9 0 5-3.6 5-3.6l1 .3C8 3.7 6.6 8 2 8z"/><path fill="#788b9c" d="M8,7C5.2,7,3.2,4.9,3.1,4.8l0.7-0.7C3.9,4.2,5.6,6,8,6V7z"/></svg>