<?xml version="1.0" encoding="UTF-8"?>
<svg xmlns="http://www.w3.org/2000/svg" xmlns:xlink="http://www.w3.org/1999/xlink" width="12pt" height="12pt" viewBox="0 0 12 12" version="1.1">
<g id="surface1380">
<path style=" stroke:none;fill-rule:nonzero;fill:rgb(100%,100%,100%);fill-opacity:1;" d="M 5.625 0.375 C 2.699219 0.375 0.375 2.699219 0.375 5.625 C 0.375 8.550781 2.699219 10.875 5.625 10.875 C 8.550781 10.875 10.875 8.550781 10.875 5.625 C 10.875 2.699219 8.550781 0.375 5.625 0.375 Z M 5.625 0.375 "/>
<path style=" stroke:none;fill-rule:nonzero;fill:rgb(30.588236%,47.843137%,70.980394%);fill-opacity:1;" d="M 5.625 0.75 C 8.324219 0.75 10.5 2.925781 10.5 5.625 C 10.5 8.324219 8.324219 10.5 5.625 10.5 C 2.925781 10.5 0.75 8.324219 0.75 5.625 C 0.75 2.925781 2.925781 0.75 5.625 0.75 M 1.648438 1.648438 C 0.601562 2.699219 0 4.050781 0 5.625 C 0 8.699219 2.550781 11.25 5.625 11.25 C 8.699219 11.25 11.25 8.699219 11.25 5.625 C 11.25 3 9.523438 0.824219 7.125 0.226562 Z M 1.648438 1.648438 "/>
<path style=" stroke:none;fill-rule:nonzero;fill:rgb(100%,100%,100%);fill-opacity:1;" d="M 1.648438 1.648438 L 5.625 5.625 L 5.625 2.398438 C 6.523438 2.398438 7.199219 1.648438 7.199219 0.824219 C 7.199219 0.601562 7.125 0.375 7.050781 0.226562 C 6.675781 0.0742188 6.148438 0 5.625 0 C 4.050781 0 2.699219 0.601562 1.648438 1.648438 Z M 1.648438 1.648438 "/>
<path style=" stroke:none;fill-rule:nonzero;fill:rgb(96.862745%,56.078434%,56.078434%);fill-opacity:1;" d="M 5.625 0.375 C 5.398438 0.375 5.25 0.523438 5.25 0.75 C 5.25 0.976562 5.398438 1.125 5.625 1.125 C 5.851562 1.125 6 0.976562 6 0.75 C 6 0.523438 5.851562 0.375 5.625 0.375 Z M 5.625 0.375 "/>
<path style=" stroke:none;fill-rule:nonzero;fill:rgb(78.039217%,26.274511%,26.274511%);fill-opacity:1;" d="M 5.625 0 C 5.175781 0 4.875 0.300781 4.875 0.75 C 4.875 1.199219 5.175781 1.5 5.625 1.5 C 6.074219 1.5 6.375 1.199219 6.375 0.75 C 6.375 0.300781 6.074219 0 5.625 0 Z M 5.625 0 "/>
<path style=" stroke:none;fill-rule:nonzero;fill:rgb(40.000001%,47.450981%,56.078434%);fill-opacity:1;" d="M 6.074219 5.175781 C 6.300781 5.398438 6.300781 5.773438 6.074219 6 C 5.851562 6.226562 5.476562 6.226562 5.25 6 C 5.023438 5.773438 2.851562 2.851562 2.851562 2.851562 C 2.851562 2.851562 5.851562 4.949219 6.074219 5.175781 Z M 6.074219 5.175781 "/>
</g>
</svg>
