<?xml version="1.0" encoding="UTF-8"?>
<svg xmlns="http://www.w3.org/2000/svg" xmlns:xlink="http://www.w3.org/1999/xlink" width="12pt" height="12pt" viewBox="0 0 12 12" version="1.1">
<g id="surface14785">
<path style=" stroke:none;fill-rule:nonzero;fill:rgb(40.000001%,47.450981%,56.078434%);fill-opacity:1;" d="M 10.5 1.5 L 10.5 10.5 L 1.5 10.5 L 1.5 1.5 L 10.5 1.5 M 11.25 0.75 L 0.75 0.75 L 0.75 11.25 L 11.25 11.25 Z M 11.25 0.75 "/>
<path style=" stroke:none;fill-rule:nonzero;fill:rgb(40.000001%,47.450981%,56.078434%);fill-opacity:1;" d="M 8.25 3 L 3 3 L 3 4.5 L 3.75 4.5 L 3.9375 3.75 L 5.25 3.75 L 5.25 8 L 4.5 8.25 L 4.5 9 L 7.5 9 L 7.5 8.25 L 6.75 8 L 6.75 3.75 L 8.0625 3.75 L 8.25 4.5 L 9 4.5 L 9 3 Z M 8.25 3 "/>
<path style=" stroke:none;fill-rule:nonzero;fill:rgb(30.588236%,47.843137%,70.980394%);fill-opacity:1;" d="M 9.75 0 L 12 0 L 12 2.25 L 9.75 2.25 Z M 0 0 L 2.25 0 L 2.25 2.25 L 0 2.25 Z M 9.75 9.75 L 12 9.75 L 12 12 L 9.75 12 Z M 0 9.75 L 2.25 9.75 L 2.25 12 L 0 12 Z M 0 9.75 "/>
</g>
</svg>
