<?xml version="1.0" encoding="UTF-8"?>
<svg xmlns="http://www.w3.org/2000/svg" xmlns:xlink="http://www.w3.org/1999/xlink" width="12pt" height="12pt" viewBox="0 0 12 12" version="1.1">
<g id="surface10192">
<path style=" stroke:none;fill-rule:nonzero;fill:rgb(54.509807%,71.764708%,94.117647%);fill-opacity:1;" d="M 0.539062 8.28125 L 8.226562 0.589844 L 11.460938 3.824219 L 3.773438 11.515625 Z M 0.539062 8.28125 "/>
<path style=" stroke:none;fill-rule:nonzero;fill:rgb(30.588236%,47.843137%,70.980394%);fill-opacity:1;" d="M 8.25 1.050781 L 10.949219 3.75 L 3.75 10.949219 L 1.050781 8.25 L 8.25 1.050781 M 8.25 0 L 0 8.25 L 3.75 12 L 12 3.75 Z M 8.25 0 "/>
<path style=" stroke:none;fill-rule:nonzero;fill:rgb(30.588236%,47.843137%,70.980394%);fill-opacity:1;" d="M 6.371094 2.144531 L 6.902344 1.613281 L 8.332031 3.046875 L 7.804688 3.578125 Z M 6.371094 2.144531 "/>
<path style=" stroke:none;fill-rule:nonzero;fill:rgb(30.588236%,47.843137%,70.980394%);fill-opacity:1;" d="M 3.242188 5.335938 L 3.773438 4.804688 L 5.207031 6.238281 L 4.675781 6.765625 Z M 3.242188 5.335938 "/>
<path style=" stroke:none;fill-rule:nonzero;fill:rgb(30.588236%,47.843137%,70.980394%);fill-opacity:1;" d="M 4.824219 3.738281 L 5.355469 3.207031 L 6.3125 4.164062 L 5.78125 4.695312 Z M 4.824219 3.738281 "/>
<path style=" stroke:none;fill-rule:nonzero;fill:rgb(30.588236%,47.843137%,70.980394%);fill-opacity:1;" d="M 1.59375 6.929688 L 2.121094 6.398438 L 3.078125 7.355469 L 2.546875 7.882812 Z M 1.59375 6.929688 "/>
</g>
</svg>
