<?xml version="1.0" encoding="UTF-8"?>
<svg xmlns="http://www.w3.org/2000/svg" xmlns:xlink="http://www.w3.org/1999/xlink" width="60pt" height="60pt" viewBox="0 0 60 60" version="1.1">
<g id="surface866">
<path style=" stroke:none;fill-rule:nonzero;fill:rgb(88.235295%,92.156863%,94.901961%);fill-opacity:1;" d="M 4.800781 58.125 C 3.183594 58.125 1.875 56.8125 1.875 55.199219 L 1.875 4.800781 C 1.875 3.1875 3.1875 1.875 4.800781 1.875 L 55.199219 1.875 C 56.816406 1.875 58.125 3.1875 58.125 4.800781 L 58.125 55.199219 C 58.125 56.816406 56.8125 58.125 55.199219 58.125 Z M 4.800781 58.125 "/>
<path style=" stroke:none;fill-rule:nonzero;fill:rgb(40.000001%,47.450981%,56.078434%);fill-opacity:1;" d="M 55.199219 3.75 C 55.777344 3.75 56.25 4.222656 56.25 4.800781 L 56.25 55.199219 C 56.25 55.777344 55.777344 56.25 55.199219 56.25 L 4.800781 56.25 C 4.222656 56.25 3.75 55.777344 3.75 55.199219 L 3.75 4.800781 C 3.75 4.222656 4.222656 3.75 4.800781 3.75 L 55.199219 3.75 M 55.199219 0 L 4.800781 0 C 2.148438 0 0 2.148438 0 4.800781 L 0 55.199219 C 0 57.851562 2.148438 60 4.800781 60 L 55.199219 60 C 57.851562 60 60 57.851562 60 55.199219 L 60 4.800781 C 60 2.148438 57.851562 0 55.199219 0 Z M 55.199219 0 "/>
<path style=" stroke:none;fill-rule:nonzero;fill:rgb(54.509807%,71.764708%,94.117647%);fill-opacity:1;" d="M 13.125 13.125 L 20.625 13.125 L 20.625 20.625 L 13.125 20.625 Z M 13.125 13.125 "/>
<path style=" stroke:none;fill-rule:nonzero;fill:rgb(30.588236%,47.843137%,70.980394%);fill-opacity:1;" d="M 18.75 15 L 18.75 18.75 L 15 18.75 L 15 15 L 18.75 15 M 22.5 11.25 L 11.25 11.25 L 11.25 22.5 L 22.5 22.5 Z M 22.5 11.25 "/>
<path style=" stroke:none;fill-rule:nonzero;fill:rgb(54.509807%,71.764708%,94.117647%);fill-opacity:1;" d="M 39.375 13.125 L 46.875 13.125 L 46.875 20.625 L 39.375 20.625 Z M 39.375 13.125 "/>
<path style=" stroke:none;fill-rule:nonzero;fill:rgb(30.588236%,47.843137%,70.980394%);fill-opacity:1;" d="M 45 15 L 45 18.75 L 41.25 18.75 L 41.25 15 L 45 15 M 48.75 11.25 L 37.5 11.25 L 37.5 22.5 L 48.75 22.5 Z M 48.75 11.25 "/>
<path style=" stroke:none;fill-rule:nonzero;fill:rgb(54.509807%,71.764708%,94.117647%);fill-opacity:1;" d="M 22.5 15 L 30 15 L 30 18.75 L 22.5 18.75 Z M 22.5 15 "/>
<path style=" stroke:none;fill-rule:nonzero;fill:rgb(30.588236%,47.843137%,70.980394%);fill-opacity:1;" d="M 30 15 L 22.5 15 L 22.5 18.75 L 30 18.75 Z M 30 15 "/>
<path style=" stroke:none;fill-rule:nonzero;fill:rgb(54.509807%,71.764708%,94.117647%);fill-opacity:1;" d="M 33.75 15 L 41.25 15 L 41.25 18.75 L 33.75 18.75 Z M 33.75 15 "/>
<path style=" stroke:none;fill-rule:nonzero;fill:rgb(30.588236%,47.843137%,70.980394%);fill-opacity:1;" d="M 41.25 15 L 33.75 15 L 33.75 18.75 L 41.25 18.75 Z M 41.25 15 "/>
<path style=" stroke:none;fill-rule:nonzero;fill:rgb(54.509807%,71.764708%,94.117647%);fill-opacity:1;" d="M 30 41.25 L 37.5 41.25 L 37.5 45 L 30 45 Z M 30 41.25 "/>
<path style=" stroke:none;fill-rule:nonzero;fill:rgb(30.588236%,47.843137%,70.980394%);fill-opacity:1;" d="M 37.5 41.25 L 30 41.25 L 30 45 L 37.5 45 Z M 37.5 41.25 "/>
<path style=" stroke:none;fill-rule:nonzero;fill:rgb(54.509807%,71.764708%,94.117647%);fill-opacity:1;" d="M 18.75 41.25 L 26.25 41.25 L 26.25 45 L 18.75 45 Z M 18.75 41.25 "/>
<path style=" stroke:none;fill-rule:nonzero;fill:rgb(30.588236%,47.843137%,70.980394%);fill-opacity:1;" d="M 26.25 41.25 L 18.75 41.25 L 18.75 45 L 26.25 45 Z M 26.25 41.25 "/>
<path style=" stroke:none;fill-rule:nonzero;fill:rgb(54.509807%,71.764708%,94.117647%);fill-opacity:1;" d="M 39.375 39.375 L 46.875 39.375 L 46.875 46.875 L 39.375 46.875 Z M 39.375 39.375 "/>
<path style=" stroke:none;fill-rule:nonzero;fill:rgb(30.588236%,47.843137%,70.980394%);fill-opacity:1;" d="M 45 41.25 L 45 45 L 41.25 45 L 41.25 41.25 L 45 41.25 M 48.75 37.5 L 37.5 37.5 L 37.5 48.75 L 48.75 48.75 Z M 48.75 37.5 "/>
<path style=" stroke:none;fill-rule:nonzero;fill:rgb(30.588236%,47.843137%,70.980394%);fill-opacity:1;" d="M 45 22.5 L 41.25 22.5 L 41.25 30 L 45 30 Z M 45 22.5 "/>
<path style=" stroke:none;fill-rule:nonzero;fill:rgb(30.588236%,47.843137%,70.980394%);fill-opacity:1;" d="M 45 33.75 L 41.25 33.75 L 41.25 41.25 L 45 41.25 Z M 45 33.75 "/>
<path style=" stroke:none;fill-rule:nonzero;fill:rgb(54.509807%,71.764708%,94.117647%);fill-opacity:1;" d="M 13.125 39.375 L 20.625 39.375 L 20.625 46.875 L 13.125 46.875 Z M 13.125 39.375 "/>
<path style=" stroke:none;fill-rule:nonzero;fill:rgb(30.588236%,47.843137%,70.980394%);fill-opacity:1;" d="M 18.75 41.25 L 18.75 45 L 15 45 L 15 41.25 L 18.75 41.25 M 22.5 37.5 L 11.25 37.5 L 11.25 48.75 L 22.5 48.75 Z M 22.5 37.5 "/>
<path style=" stroke:none;fill-rule:nonzero;fill:rgb(30.588236%,47.843137%,70.980394%);fill-opacity:1;" d="M 18.75 30 L 15 30 L 15 37.5 L 18.75 37.5 Z M 18.75 30 "/>
<path style=" stroke:none;fill-rule:nonzero;fill:rgb(30.588236%,47.843137%,70.980394%);fill-opacity:1;" d="M 18.75 18.75 L 15 18.75 L 15 26.25 L 18.75 26.25 Z M 18.75 18.75 "/>
</g>
</svg>
