<?xml version="1.0" encoding="UTF-8"?>
<svg xmlns="http://www.w3.org/2000/svg" xmlns:xlink="http://www.w3.org/1999/xlink" width="12pt" height="12pt" viewBox="0 0 12 12" version="1.1">
<g id="surface13183">
<path style=" stroke:none;fill-rule:nonzero;fill:rgb(40.000001%,47.450981%,56.078434%);fill-opacity:1;" d="M 12 11.25 L 0.75 11.25 L 0.75 0 L 0 0 L 0 12 L 12 12 Z M 12 11.25 "/>
<path style=" stroke:none;fill-rule:nonzero;fill:rgb(72.941178%,87.843138%,74.117649%);fill-opacity:1;" d="M 10.875 0.375 C 10.460938 0.375 10.125 0.710938 10.125 1.125 C 10.125 1.539062 10.460938 1.875 10.875 1.875 C 11.289062 1.875 11.625 1.539062 11.625 1.125 C 11.625 0.710938 11.289062 0.375 10.875 0.375 Z M 10.875 0.375 "/>
<path style=" stroke:none;fill-rule:nonzero;fill:rgb(36.862746%,61.176473%,46.27451%);fill-opacity:1;" d="M 10.875 0.75 C 11.082031 0.75 11.25 0.917969 11.25 1.125 C 11.25 1.332031 11.082031 1.5 10.875 1.5 C 10.667969 1.5 10.5 1.332031 10.5 1.125 C 10.5 0.917969 10.667969 0.75 10.875 0.75 M 10.875 0 C 10.253906 0 9.75 0.503906 9.75 1.125 C 9.75 1.746094 10.253906 2.25 10.875 2.25 C 11.496094 2.25 12 1.746094 12 1.125 C 12 0.503906 11.496094 0 10.875 0 Z M 10.875 0 "/>
<path style=" stroke:none;fill-rule:nonzero;fill:rgb(72.941178%,87.843138%,74.117649%);fill-opacity:1;" d="M 7.875 1.875 C 7.460938 1.875 7.125 2.210938 7.125 2.625 C 7.125 3.039062 7.460938 3.375 7.875 3.375 C 8.289062 3.375 8.625 3.039062 8.625 2.625 C 8.625 2.210938 8.289062 1.875 7.875 1.875 Z M 7.875 1.875 "/>
<path style=" stroke:none;fill-rule:nonzero;fill:rgb(36.862746%,61.176473%,46.27451%);fill-opacity:1;" d="M 7.875 2.25 C 8.082031 2.25 8.25 2.417969 8.25 2.625 C 8.25 2.832031 8.082031 3 7.875 3 C 7.667969 3 7.5 2.832031 7.5 2.625 C 7.5 2.417969 7.667969 2.25 7.875 2.25 M 7.875 1.5 C 7.253906 1.5 6.75 2.003906 6.75 2.625 C 6.75 3.246094 7.253906 3.75 7.875 3.75 C 8.496094 3.75 9 3.246094 9 2.625 C 9 2.003906 8.496094 1.5 7.875 1.5 Z M 7.875 1.5 "/>
<path style=" stroke:none;fill-rule:nonzero;fill:rgb(72.941178%,87.843138%,74.117649%);fill-opacity:1;" d="M 10.125 4.125 C 9.710938 4.125 9.375 4.460938 9.375 4.875 C 9.375 5.289062 9.710938 5.625 10.125 5.625 C 10.539062 5.625 10.875 5.289062 10.875 4.875 C 10.875 4.460938 10.539062 4.125 10.125 4.125 Z M 10.125 4.125 "/>
<path style=" stroke:none;fill-rule:nonzero;fill:rgb(36.862746%,61.176473%,46.27451%);fill-opacity:1;" d="M 10.125 4.5 C 10.332031 4.5 10.5 4.667969 10.5 4.875 C 10.5 5.082031 10.332031 5.25 10.125 5.25 C 9.917969 5.25 9.75 5.082031 9.75 4.875 C 9.75 4.667969 9.917969 4.5 10.125 4.5 M 10.125 3.75 C 9.503906 3.75 9 4.253906 9 4.875 C 9 5.496094 9.503906 6 10.125 6 C 10.746094 6 11.25 5.496094 11.25 4.875 C 11.25 4.253906 10.746094 3.75 10.125 3.75 Z M 10.125 3.75 "/>
<path style=" stroke:none;fill-rule:nonzero;fill:rgb(72.941178%,87.843138%,74.117649%);fill-opacity:1;" d="M 7.125 5.625 C 6.710938 5.625 6.375 5.960938 6.375 6.375 C 6.375 6.789062 6.710938 7.125 7.125 7.125 C 7.539062 7.125 7.875 6.789062 7.875 6.375 C 7.875 5.960938 7.539062 5.625 7.125 5.625 Z M 7.125 5.625 "/>
<path style=" stroke:none;fill-rule:nonzero;fill:rgb(36.862746%,61.176473%,46.27451%);fill-opacity:1;" d="M 7.125 6 C 7.332031 6 7.5 6.167969 7.5 6.375 C 7.5 6.582031 7.332031 6.75 7.125 6.75 C 6.917969 6.75 6.75 6.582031 6.75 6.375 C 6.75 6.167969 6.917969 6 7.125 6 M 7.125 5.25 C 6.503906 5.25 6 5.753906 6 6.375 C 6 6.996094 6.503906 7.5 7.125 7.5 C 7.746094 7.5 8.25 6.996094 8.25 6.375 C 8.25 5.753906 7.746094 5.25 7.125 5.25 Z M 7.125 5.25 "/>
<path style=" stroke:none;fill-rule:nonzero;fill:rgb(72.941178%,87.843138%,74.117649%);fill-opacity:1;" d="M 4.125 4.125 C 3.710938 4.125 3.375 4.460938 3.375 4.875 C 3.375 5.289062 3.710938 5.625 4.125 5.625 C 4.539062 5.625 4.875 5.289062 4.875 4.875 C 4.875 4.460938 4.539062 4.125 4.125 4.125 Z M 4.125 4.125 "/>
<path style=" stroke:none;fill-rule:nonzero;fill:rgb(36.862746%,61.176473%,46.27451%);fill-opacity:1;" d="M 4.125 4.5 C 4.332031 4.5 4.5 4.667969 4.5 4.875 C 4.5 5.082031 4.332031 5.25 4.125 5.25 C 3.917969 5.25 3.75 5.082031 3.75 4.875 C 3.75 4.667969 3.917969 4.5 4.125 4.5 M 4.125 3.75 C 3.503906 3.75 3 4.253906 3 4.875 C 3 5.496094 3.503906 6 4.125 6 C 4.746094 6 5.25 5.496094 5.25 4.875 C 5.25 4.253906 4.746094 3.75 4.125 3.75 Z M 4.125 3.75 "/>
<path style=" stroke:none;fill-rule:nonzero;fill:rgb(72.941178%,87.843138%,74.117649%);fill-opacity:1;" d="M 2.625 7.125 C 2.210938 7.125 1.875 7.460938 1.875 7.875 C 1.875 8.289062 2.210938 8.625 2.625 8.625 C 3.039062 8.625 3.375 8.289062 3.375 7.875 C 3.375 7.460938 3.039062 7.125 2.625 7.125 Z M 2.625 7.125 "/>
<path style=" stroke:none;fill-rule:nonzero;fill:rgb(36.862746%,61.176473%,46.27451%);fill-opacity:1;" d="M 2.625 7.5 C 2.832031 7.5 3 7.667969 3 7.875 C 3 8.082031 2.832031 8.25 2.625 8.25 C 2.417969 8.25 2.25 8.082031 2.25 7.875 C 2.25 7.667969 2.417969 7.5 2.625 7.5 M 2.625 6.75 C 2.003906 6.75 1.5 7.253906 1.5 7.875 C 1.5 8.496094 2.003906 9 2.625 9 C 3.246094 9 3.75 8.496094 3.75 7.875 C 3.75 7.253906 3.246094 6.75 2.625 6.75 Z M 2.625 6.75 "/>
<path style=" stroke:none;fill-rule:nonzero;fill:rgb(72.941178%,87.843138%,74.117649%);fill-opacity:1;" d="M 5.625 8.625 C 5.210938 8.625 4.875 8.960938 4.875 9.375 C 4.875 9.789062 5.210938 10.125 5.625 10.125 C 6.039062 10.125 6.375 9.789062 6.375 9.375 C 6.375 8.960938 6.039062 8.625 5.625 8.625 Z M 5.625 8.625 "/>
<path style=" stroke:none;fill-rule:nonzero;fill:rgb(36.862746%,61.176473%,46.27451%);fill-opacity:1;" d="M 5.625 9 C 5.832031 9 6 9.167969 6 9.375 C 6 9.582031 5.832031 9.75 5.625 9.75 C 5.417969 9.75 5.25 9.582031 5.25 9.375 C 5.25 9.167969 5.417969 9 5.625 9 M 5.625 8.25 C 5.003906 8.25 4.5 8.753906 4.5 9.375 C 4.5 9.996094 5.003906 10.5 5.625 10.5 C 6.246094 10.5 6.75 9.996094 6.75 9.375 C 6.75 8.753906 6.246094 8.25 5.625 8.25 Z M 5.625 8.25 "/>
</g>
</svg>
