<?xml version="1.0" encoding="UTF-8"?>
<svg xmlns="http://www.w3.org/2000/svg" xmlns:xlink="http://www.w3.org/1999/xlink" width="12pt" height="12pt" viewBox="0 0 12 12" version="1.1">
<g id="surface1585">
<path style=" stroke:none;fill-rule:nonzero;fill:rgb(100%,100%,100%);fill-opacity:1;" d="M 0.375 2.625 L 11.625 2.625 L 11.625 10.875 L 0.375 10.875 Z M 0.375 2.625 "/>
<path style=" stroke:none;fill-rule:nonzero;fill:rgb(47.058824%,54.509807%,61.176473%);fill-opacity:1;" d="M 11.25 3 L 11.25 10.5 L 0.75 10.5 L 0.75 3 L 11.25 3 M 12 2.25 L 0 2.25 L 0 11.25 L 12 11.25 Z M 12 2.25 "/>
<path style=" stroke:none;fill-rule:nonzero;fill:rgb(78.431374%,81.960785%,85.882354%);fill-opacity:1;" d="M 0.375 2.625 L 0.375 1.5 C 0.375 1.273438 0.523438 1.125 0.75 1.125 L 11.25 1.125 C 11.476562 1.125 11.625 1.273438 11.625 1.5 L 11.625 2.625 Z M 0.375 2.625 "/>
<path style=" stroke:none;fill-rule:nonzero;fill:rgb(40.000001%,47.450981%,56.078434%);fill-opacity:1;" d="M 11.25 1.5 L 11.25 2.25 L 0.75 2.25 L 0.75 1.5 L 11.25 1.5 M 11.25 0.75 L 0.75 0.75 C 0.300781 0.75 0 1.050781 0 1.5 L 0 3 L 12 3 L 12 1.5 C 12 1.050781 11.699219 0.75 11.25 0.75 Z M 11.25 0.75 "/>
<path style=" stroke:none;fill-rule:nonzero;fill:rgb(62.352943%,69.411767%,76.078433%);fill-opacity:1;" d="M 5.25 3.75 L 6 3.75 L 6 8.25 L 5.25 8.25 Z M 5.25 3.75 "/>
<path style=" stroke:none;fill-rule:nonzero;fill:rgb(45.490196%,58.823532%,76.862746%);fill-opacity:1;" d="M 6.375 6 L 4.875 6 C 4.648438 6 4.5 5.851562 4.5 5.625 L 4.5 4.875 C 4.5 4.648438 4.648438 4.5 4.875 4.5 L 6.375 4.5 C 6.601562 4.5 6.75 4.648438 6.75 4.875 L 6.75 5.625 C 6.75 5.851562 6.601562 6 6.375 6 Z M 6.375 6 "/>
<path style=" stroke:none;fill-rule:nonzero;fill:rgb(30.588236%,47.843137%,70.980394%);fill-opacity:1;" d="M 5.25 6 L 6 6 L 6 9.75 L 5.25 9.75 Z M 5.25 6 "/>
<path style=" stroke:none;fill-rule:nonzero;fill:rgb(62.352943%,69.411767%,76.078433%);fill-opacity:1;" d="M 9 3.75 L 9.75 3.75 L 9.75 9 L 9 9 Z M 9 3.75 "/>
<path style=" stroke:none;fill-rule:nonzero;fill:rgb(45.490196%,58.823532%,76.862746%);fill-opacity:1;" d="M 10.125 7.5 L 8.625 7.5 C 8.398438 7.5 8.25 7.351562 8.25 7.125 L 8.25 6.375 C 8.25 6.148438 8.398438 6 8.625 6 L 10.125 6 C 10.351562 6 10.5 6.148438 10.5 6.375 L 10.5 7.125 C 10.5 7.351562 10.351562 7.5 10.125 7.5 Z M 10.125 7.5 "/>
<path style=" stroke:none;fill-rule:nonzero;fill:rgb(30.588236%,47.843137%,70.980394%);fill-opacity:1;" d="M 9 7.5 L 9.75 7.5 L 9.75 9.75 L 9 9.75 Z M 9 7.5 "/>
<path style=" stroke:none;fill-rule:nonzero;fill:rgb(62.352943%,69.411767%,76.078433%);fill-opacity:1;" d="M 2.25 3.75 L 3 3.75 L 3 9 L 2.25 9 Z M 2.25 3.75 "/>
<path style=" stroke:none;fill-rule:nonzero;fill:rgb(45.490196%,58.823532%,76.862746%);fill-opacity:1;" d="M 3.375 9 L 1.875 9 C 1.648438 9 1.5 8.851562 1.5 8.625 L 1.5 7.875 C 1.5 7.648438 1.648438 7.5 1.875 7.5 L 3.375 7.5 C 3.601562 7.5 3.75 7.648438 3.75 7.875 L 3.75 8.625 C 3.75 8.851562 3.601562 9 3.375 9 Z M 3.375 9 "/>
<path style=" stroke:none;fill-rule:nonzero;fill:rgb(30.588236%,47.843137%,70.980394%);fill-opacity:1;" d="M 2.25 9 L 3 9 L 3 9.75 L 2.25 9.75 Z M 2.25 9 "/>
</g>
</svg>
