<?xml version="1.0" encoding="UTF-8"?>
<svg xmlns="http://www.w3.org/2000/svg" xmlns:xlink="http://www.w3.org/1999/xlink" width="30pt" height="30pt" viewBox="0 0 30 30" version="1.1">
<g id="surface1961">
<path style=" stroke:none;fill-rule:nonzero;fill:rgb(25.882354%,30.588236%,36.078432%);fill-opacity:1;" d="M 2.5 3.5 L 27.5 3.5 L 27.5 26.5 L 2.5 26.5 Z M 2.5 3.5 "/>
<path style=" stroke:none;fill-rule:nonzero;fill:rgb(68.627453%,77.254903%,84.705883%);fill-opacity:1;" d="M 27 4 L 27 26 L 3 26 L 3 4 L 27 4 M 28 3 L 2 3 L 2 27 L 28 27 Z M 28 3 "/>
<path style=" stroke:none;fill-rule:nonzero;fill:rgb(68.627453%,77.254903%,84.705883%);fill-opacity:1;" d="M 2 3 L 28 3 L 28 7 L 2 7 Z M 2 3 "/>
<path style=" stroke:none;fill-rule:nonzero;fill:rgb(72.941178%,87.843138%,74.117649%);fill-opacity:1;" d="M 14 20 L 22 20 L 22 21 L 14 21 Z M 8.5 20.398438 L 7.800781 19.601562 L 11.398438 16.5 L 7.800781 13.398438 L 8.5 12.601562 L 12.898438 16.5 Z M 8.5 20.398438 "/>
</g>
</svg>
