<?xml version="1.0" encoding="UTF-8"?>
<svg xmlns="http://www.w3.org/2000/svg" xmlns:xlink="http://www.w3.org/1999/xlink" width="60pt" height="60pt" viewBox="0 0 60 60" version="1.1">
<g id="surface269">
<path style=" stroke:none;fill-rule:nonzero;fill:rgb(100%,100%,100%);fill-opacity:1;" d="M 1.875 54.375 L 1.875 5.625 L 58.125 5.625 L 58.125 46.125 L 48 54.375 Z M 1.875 54.375 "/>
<path style=" stroke:none;fill-rule:nonzero;fill:rgb(47.058824%,54.509807%,61.176473%);fill-opacity:1;" d="M 56.25 7.5 L 56.25 45 L 47.25 52.5 L 3.75 52.5 L 3.75 7.5 L 56.25 7.5 M 60 3.75 L 0 3.75 L 0 56.25 L 48.75 56.25 L 60 46.875 Z M 60 3.75 "/>
<path style=" stroke:none;fill-rule:nonzero;fill:rgb(47.058824%,54.509807%,61.176473%);fill-opacity:1;" d="M 0 3.75 L 60 3.75 L 60 11.25 L 0 11.25 Z M 0 3.75 "/>
<path style=" stroke:none;fill-rule:nonzero;fill:rgb(54.509807%,71.764708%,94.117647%);fill-opacity:1;" d="M 18.75 18.75 L 48.75 18.75 L 48.75 22.5 L 18.75 22.5 Z M 11.25 18.75 L 15 18.75 L 15 22.5 L 11.25 22.5 Z M 18.75 26.25 L 48.75 26.25 L 48.75 30 L 18.75 30 Z M 11.25 26.25 L 15 26.25 L 15 30 L 11.25 30 Z M 18.75 33.75 L 43.125 33.75 L 43.125 37.5 L 18.75 37.5 Z M 11.25 33.75 L 15 33.75 L 15 37.5 L 11.25 37.5 Z M 18.75 41.25 L 48.75 41.25 L 48.75 45 L 18.75 45 Z M 11.25 41.25 L 15 41.25 L 15 45 L 11.25 45 Z M 11.25 41.25 "/>
<path style=" stroke:none;fill-rule:nonzero;fill:rgb(76.078433%,90.980393%,100%);fill-opacity:1;" d="M 30 41.25 L 48.75 41.25 L 48.75 45 L 30 45 Z M 30 41.25 "/>
<path style=" stroke:none;fill-rule:nonzero;fill:rgb(100%,100%,100%);fill-opacity:1;" d="M 43.125 58.125 C 36.75 58.125 30.75 50.625 28.5 46.875 C 30.375 43.875 36.375 35.625 43.125 35.625 C 49.5 35.625 55.5 43.125 57.75 46.875 C 55.875 49.875 49.875 58.125 43.125 58.125 Z M 43.125 58.125 "/>
<path style=" stroke:none;fill-rule:nonzero;fill:rgb(72.941178%,60.784316%,28.235295%);fill-opacity:1;" d="M 43.125 37.5 C 48 37.5 52.875 43.125 55.5 46.875 C 52.875 50.625 48 56.25 43.125 56.25 C 38.25 56.25 33.375 50.625 30.75 46.875 C 33.375 43.125 38.25 37.5 43.125 37.5 M 43.125 33.75 C 33.75 33.75 26.25 46.875 26.25 46.875 C 26.25 46.875 33.75 60 43.125 60 C 52.5 60 60 46.875 60 46.875 C 60 46.875 52.5 33.75 43.125 33.75 Z M 43.125 33.75 "/>
<path style=" stroke:none;fill-rule:nonzero;fill:rgb(78.431374%,81.960785%,85.882354%);fill-opacity:1;" d="M 56.25 31.125 L 56.25 41.625 C 58.5 44.25 60 46.875 60 46.875 L 60 34.5 C 58.875 33.375 57.75 32.25 56.25 31.125 Z M 30.375 52.5 L 21 52.5 C 21.75 53.625 22.5 54.75 23.625 56.25 L 34.125 56.25 C 32.625 55.125 31.5 53.625 30.375 52.5 Z M 30.375 52.5 "/>
<path style=" stroke:none;fill-rule:nonzero;fill:rgb(76.078433%,90.980393%,100%);fill-opacity:1;" d="M 30.375 41.25 L 21 41.25 C 20.25 42 19.875 42.75 19.875 43.125 L 18.75 45 L 27.375 45 C 28.125 43.875 29.25 42.75 30.375 41.25 Z M 34.125 37.5 C 36.75 35.25 39.75 33.75 43.125 33.75 L 27 33.75 C 25.875 34.875 24.375 36.375 23.625 37.5 Z M 34.125 37.5 "/>
<path style=" stroke:none;fill-rule:nonzero;fill:rgb(30.588236%,47.843137%,70.980394%);fill-opacity:1;" d="M 43.125 41.25 C 40.019531 41.25 37.5 43.769531 37.5 46.875 C 37.5 49.980469 40.019531 52.5 43.125 52.5 C 46.230469 52.5 48.75 49.980469 48.75 46.875 C 48.75 43.769531 46.230469 41.25 43.125 41.25 Z M 43.125 41.25 "/>
<path style=" stroke:none;fill-rule:nonzero;fill:rgb(100%,100%,100%);fill-opacity:1;" d="M 48 41.25 C 46.34375 41.25 45 42.59375 45 44.25 C 45 45.90625 46.34375 47.25 48 47.25 C 49.65625 47.25 51 45.90625 51 44.25 C 51 42.59375 49.65625 41.25 48 41.25 Z M 48 41.25 "/>
</g>
</svg>
