<?xml version="1.0" encoding="UTF-8"?>
<svg xmlns="http://www.w3.org/2000/svg" xmlns:xlink="http://www.w3.org/1999/xlink" width="12pt" height="12pt" viewBox="0 0 12 12" version="1.1">
<g id="surface207">
<path style=" stroke:none;fill-rule:nonzero;fill:rgb(100%,100%,100%);fill-opacity:1;" d="M 0.375 1.125 L 11.625 1.125 L 11.625 10.875 L 0.375 10.875 Z M 0.375 1.125 "/>
<path style=" stroke:none;fill-rule:nonzero;fill:rgb(47.058824%,54.509807%,61.176473%);fill-opacity:1;" d="M 11.25 1.5 L 11.25 10.5 L 0.75 10.5 L 0.75 1.5 L 11.25 1.5 M 12 0.75 L 0 0.75 L 0 11.25 L 12 11.25 Z M 12 0.75 "/>
<path style=" stroke:none;fill-rule:nonzero;fill:rgb(78.431374%,81.960785%,85.882354%);fill-opacity:1;" d="M 11.25 3.75 L 11.25 10.5 L 4.199219 10.5 L 3.976562 11.25 L 12 11.25 L 12 3.976562 C 11.773438 3.824219 11.476562 3.824219 11.25 3.75 Z M 11.25 3.75 "/>
<path style=" stroke:none;fill-rule:nonzero;fill:rgb(47.058824%,54.509807%,61.176473%);fill-opacity:1;" d="M 0 0.75 L 12 0.75 L 12 2.25 L 0 2.25 Z M 0 0.75 "/>
<path style=" stroke:none;fill-rule:nonzero;fill:rgb(54.509807%,71.764708%,94.117647%);fill-opacity:1;" d="M 3.75 3.75 L 9.75 3.75 L 9.75 4.5 L 3.75 4.5 Z M 2.25 3.75 L 3 3.75 L 3 4.5 L 2.25 4.5 Z M 3.75 5.25 L 8.625 5.25 L 8.625 6 L 3.75 6 Z M 2.25 5.25 L 3 5.25 L 3 6 L 2.25 6 Z M 3.75 6.75 L 9.75 6.75 L 9.75 7.5 L 3.75 7.5 Z M 2.25 6.75 L 3 6.75 L 3 7.5 L 2.25 7.5 Z M 3.75 8.25 L 9.75 8.25 L 9.75 9 L 3.75 9 Z M 2.25 8.25 L 3 8.25 L 3 9 L 2.25 9 Z M 2.25 8.25 "/>
<path style=" stroke:none;fill-rule:nonzero;fill:rgb(96.078432%,80.784315%,52.156866%);fill-opacity:1;" d="M 6.375 10.050781 L 6.824219 9.523438 L 7.800781 10.351562 L 7.273438 10.949219 L 5.851562 11.398438 Z M 6.375 10.050781 "/>
<path style=" stroke:none;fill-rule:nonzero;fill:rgb(58.823532%,47.843137%,26.666668%);fill-opacity:1;" d="M 6.824219 10.050781 L 7.199219 10.425781 L 6.976562 10.648438 L 6.375 10.875 L 6.601562 10.351562 L 6.824219 10.050781 M 6.824219 9 L 6.074219 9.75 L 5.25 12 L 7.425781 11.25 L 8.324219 10.351562 Z M 6.824219 9 "/>
<path style=" stroke:none;fill-rule:nonzero;fill:rgb(21.176471%,25.098041%,30.19608%);fill-opacity:1;" d="M 5.625 10.949219 L 5.25 12 L 6.300781 11.625 Z M 5.625 10.949219 "/>
<path style=" stroke:none;fill-rule:nonzero;fill:rgb(100%,93.333334%,63.921571%);fill-opacity:1;" d="M 7.574219 10.726562 C 7.5 10.648438 7.425781 10.574219 7.273438 10.574219 C 7.199219 10.273438 6.976562 10.125 6.75 10.050781 C 6.675781 9.898438 6.675781 9.824219 6.523438 9.75 L 9.976562 6.300781 L 11.023438 7.351562 Z M 7.574219 10.726562 "/>
<path style=" stroke:none;fill-rule:nonzero;fill:rgb(72.941178%,60.784316%,28.235295%);fill-opacity:1;" d="M 9.976562 6.601562 L 10.574219 7.199219 L 7.5 10.351562 C 7.5 10.351562 7.425781 10.351562 7.425781 10.273438 C 7.351562 10.050781 7.125 9.898438 6.898438 9.75 C 6.898438 9.75 6.898438 9.675781 6.824219 9.675781 L 9.976562 6.601562 M 9.976562 5.851562 L 6 9.824219 C 6.074219 9.824219 6.449219 9.824219 6.449219 10.273438 C 6.449219 10.273438 6.976562 10.273438 6.976562 10.800781 C 7.5 10.800781 7.425781 11.25 7.425781 11.25 L 11.398438 7.273438 Z M 9.976562 5.851562 "/>
<path style=" stroke:none;fill-rule:nonzero;fill:rgb(96.862745%,56.078434%,56.078434%);fill-opacity:1;" d="M 10.125 6.226562 L 10.574219 5.773438 C 10.726562 5.625 10.875 5.625 11.023438 5.625 C 11.175781 5.625 11.324219 5.699219 11.476562 5.773438 C 11.625 5.925781 11.625 6.074219 11.625 6.226562 C 11.625 6.375 11.550781 6.523438 11.476562 6.675781 L 11.023438 7.125 Z M 10.125 6.226562 "/>
<path style=" stroke:none;fill-rule:nonzero;fill:rgb(78.039217%,26.274511%,26.274511%);fill-opacity:1;" d="M 11.023438 6 C 11.101562 6 11.175781 6 11.175781 6.074219 C 11.25 6.148438 11.25 6.226562 11.25 6.226562 C 11.25 6.226562 11.25 6.375 11.175781 6.375 L 11.023438 6.523438 L 10.648438 6.148438 L 10.800781 6 C 10.875 6 10.949219 6 11.023438 6 M 11.023438 5.25 C 10.800781 5.25 10.5 5.324219 10.273438 5.550781 L 9.601562 6.226562 L 11.023438 7.648438 L 11.699219 6.976562 C 12.074219 6.601562 12.074219 5.925781 11.699219 5.550781 C 11.476562 5.324219 11.25 5.25 11.023438 5.25 Z M 11.023438 5.25 "/>
</g>
</svg>
