<?xml version="1.0" encoding="UTF-8"?>
<svg xmlns="http://www.w3.org/2000/svg" xmlns:xlink="http://www.w3.org/1999/xlink" width="36pt" height="36pt" viewBox="0 0 36 36" version="1.1">
<g id="surface834">
<path style=" stroke:none;fill-rule:nonzero;fill:rgb(9.019608%,9.019608%,9.411765%);fill-opacity:1;" d="M 12.375 3.75 C 10.777344 3.75 9.390625 4.667969 8.707031 6 L 28.125 6 C 29.160156 6 30 6.839844 30 7.875 L 30 27.292969 C 31.332031 26.609375 32.25 25.222656 32.25 23.625 L 32.25 7.875 C 32.25 5.601562 30.398438 3.75 28.125 3.75 Z M 7.875 8.25 C 5.609375 8.25 3.75 10.109375 3.75 12.375 L 3.75 28.125 C 3.75 30.390625 5.609375 32.25 7.875 32.25 L 23.625 32.25 C 25.890625 32.25 27.75 30.390625 27.75 28.125 L 27.75 12.375 C 27.75 10.109375 25.890625 8.25 23.625 8.25 Z M 7.875 10.5 L 23.625 10.5 C 24.671875 10.5 25.5 11.328125 25.5 12.375 L 25.5 28.125 C 25.5 29.171875 24.671875 30 23.625 30 L 7.875 30 C 6.828125 30 6 29.171875 6 28.125 L 6 12.375 C 6 11.328125 6.828125 10.5 7.875 10.5 Z M 7.875 10.5 "/>
</g>
</svg>
