<?xml version="1.0" encoding="UTF-8"?>
<svg xmlns="http://www.w3.org/2000/svg" xmlns:xlink="http://www.w3.org/1999/xlink" width="60pt" height="60pt" viewBox="0 0 60 60" version="1.1">
<g id="surface59">
<path style=" stroke:none;fill-rule:nonzero;fill:rgb(54.509807%,71.764708%,94.117647%);fill-opacity:1;" d="M 30 34.941406 L 12 52.941406 L 7.058594 48 L 25.058594 30 L 7.058594 12 L 12 7.058594 L 30 25.058594 L 48 7.058594 L 52.941406 12 L 34.941406 30 L 52.941406 48 L 48 52.941406 Z M 30 34.941406 "/>
<path style=" stroke:none;fill-rule:nonzero;fill:rgb(30.588236%,47.843137%,70.980394%);fill-opacity:1;" d="M 48 8.121094 L 51.878906 12 L 34.941406 28.941406 L 33.878906 30 L 34.941406 31.058594 L 51.878906 48 L 48 51.878906 L 31.058594 34.941406 L 30 33.878906 L 28.941406 34.941406 L 12 51.878906 L 8.121094 48 L 25.058594 31.058594 L 26.121094 30 L 25.058594 28.941406 L 8.121094 12 L 12 8.121094 L 28.941406 25.058594 L 30 26.121094 L 31.058594 25.058594 L 48 8.121094 M 48 6 L 30 24 L 12 6 L 6 12 L 24 30 L 6 48 L 12 54 L 30 36 L 48 54 L 54 48 L 36 30 L 54 12 Z M 48 6 "/>
</g>
</svg>
