<?xml version="1.0" encoding="UTF-8"?>
<svg xmlns="http://www.w3.org/2000/svg" xmlns:xlink="http://www.w3.org/1999/xlink" width="60pt" height="60pt" viewBox="0 0 60 60" version="1.1">
<g id="surface151">
<path style=" stroke:none;fill-rule:nonzero;fill:rgb(100%,100%,100%);fill-opacity:1;" d="M 3.75 54.75 L 3.75 5.25 L 56.25 5.25 L 56.25 54 C 56.25 54.414062 55.914062 54.75 55.5 54.75 Z M 3.75 54.75 "/>
<path style=" stroke:none;fill-rule:nonzero;fill:rgb(47.058824%,54.509807%,61.176473%);fill-opacity:1;" d="M 55.5 6 L 55.5 54 L 4.5 54 L 4.5 6 L 55.5 6 M 57 4.5 L 3 4.5 L 3 55.5 L 55.5 55.5 C 56.328125 55.5 57 54.828125 57 54 Z M 57 4.5 "/>
<path style=" stroke:none;fill-rule:nonzero;fill:rgb(47.058824%,54.509807%,61.176473%);fill-opacity:1;" d="M 3 4.5 L 57 4.5 L 57 13.5 L 3 13.5 Z M 3 4.5 "/>
<path style="fill:none;stroke-width:1;stroke-linecap:butt;stroke-linejoin:miter;stroke:rgb(54.509807%,71.764708%,94.117647%);stroke-opacity:1;stroke-miterlimit:10;" d="M 13 16.5 L 31 16.5 M 9 16.5 L 10 16.5 M 13 20.5 L 31 20.5 M 9 20.5 L 10 20.5 M 13 24.5 L 31 24.5 M 9 24.5 L 10 24.5 M 13 28.5 L 31 28.5 M 9 28.5 L 10 28.5 " transform="matrix(1.5,0,0,1.5,0,0)"/>
<path style=" stroke:none;fill-rule:nonzero;fill:rgb(76.078433%,90.980393%,100%);fill-opacity:1;" d="M 31.5 42 L 36 42 L 36 43.5 L 31.5 43.5 Z M 31.5 36 L 34.5 36 L 34.5 37.5 L 31.5 37.5 Z M 39 30 L 43.5 30 L 43.5 31.5 L 39 31.5 Z M 39 30 "/>
<path style=" stroke:none;fill-rule:nonzero;fill:rgb(86.274511%,83.529413%,94.901961%);fill-opacity:1;" d="M 39 59.25 C 37.757812 59.25 36.75 58.242188 36.75 57 L 36.75 38.25 L 35.25 38.25 L 35.25 36 C 35.25 35.585938 35.585938 35.25 36 35.25 L 58.5 35.25 C 58.914062 35.25 59.25 35.585938 59.25 36 L 59.25 38.25 L 57.75 38.25 L 57.75 57 C 57.75 58.242188 56.742188 59.25 55.5 59.25 Z M 39 59.25 "/>
<path style=" stroke:none;fill-rule:nonzero;fill:rgb(54.509807%,45.882353%,63.137257%);fill-opacity:1;" d="M 58.5 36 L 58.5 37.5 L 57 37.5 L 57 57 C 57 57.828125 56.328125 58.5 55.5 58.5 L 39 58.5 C 38.171875 58.5 37.5 57.828125 37.5 57 L 37.5 37.5 L 36 37.5 L 36 36 L 58.5 36 M 58.5 34.5 L 36 34.5 C 35.171875 34.5 34.5 35.171875 34.5 36 L 34.5 39 L 36 39 L 36 57 C 36 58.65625 37.34375 60 39 60 L 55.5 60 C 57.15625 60 58.5 58.65625 58.5 57 L 58.5 39 L 60 39 L 60 36 C 60 35.171875 59.328125 34.5 58.5 34.5 Z M 58.5 34.5 "/>
<path style=" stroke:none;fill-rule:nonzero;fill:rgb(54.509807%,45.882353%,63.137257%);fill-opacity:1;" d="M 36 37.5 L 58.5 37.5 L 58.5 39 L 36 39 Z M 46.5 43.5 L 48 43.5 L 48 54 L 46.5 54 Z M 40.5 43.5 L 42 43.5 L 42 54 L 40.5 54 Z M 52.5 43.5 L 54 43.5 L 54 54 L 52.5 54 Z M 52.5 43.5 "/>
<path style="fill:none;stroke-width:1;stroke-linecap:butt;stroke-linejoin:miter;stroke:rgb(54.509807%,45.882353%,63.137257%);stroke-opacity:1;stroke-miterlimit:10;" d="M 28.5 23.5 L 28.5 21.5 C 28.5 20.947917 28.947917 20.5 29.5 20.5 L 33.5 20.5 C 34.052083 20.5 34.5 20.947917 34.5 21.5 L 34.5 23.5 Z M 28.5 23.5 " transform="matrix(1.5,0,0,1.5,0,0)"/>
<path style=" stroke:none;fill-rule:nonzero;fill:rgb(78.431374%,81.960785%,85.882354%);fill-opacity:1;" d="M 55.5 31.5 L 57 31.5 L 57 34.5 L 55.5 34.5 Z M 31.5 54 L 36 54 L 36 55.5 L 31.5 55.5 Z M 31.5 54 "/>
</g>
</svg>
