<?xml version="1.0" encoding="UTF-8"?>
<svg xmlns="http://www.w3.org/2000/svg" xmlns:xlink="http://www.w3.org/1999/xlink" width="60pt" height="60pt" viewBox="0 0 60 60" version="1.1">
<g id="surface29">
<path style=" stroke:none;fill-rule:nonzero;fill:rgb(85.882354%,69.01961%,39.607844%);fill-opacity:1;" d="M 2.25 53.25 L 2.25 6.75 L 17.691406 6.75 L 22.191406 11.25 L 53.25 11.25 L 53.25 53.25 Z M 2.25 53.25 "/>
<path style=" stroke:none;fill-rule:nonzero;fill:rgb(58.823532%,47.843137%,26.666668%);fill-opacity:1;" d="M 17.378906 7.5 L 21.441406 11.558594 L 21.878906 12 L 52.5 12 L 52.5 52.5 L 3 52.5 L 3 7.5 L 17.378906 7.5 M 18 6 L 1.5 6 L 1.5 54 L 54 54 L 54 10.5 L 22.5 10.5 Z M 18 6 "/>
<path style=" stroke:none;fill-rule:nonzero;fill:rgb(96.078432%,80.784315%,52.156866%);fill-opacity:1;" d="M 2.398438 53.25 L 8.125 21.75 L 24.226562 21.75 L 28.726562 18.75 L 59.113281 18.75 L 53.367188 53.25 Z M 2.398438 53.25 "/>
<path style=" stroke:none;fill-rule:nonzero;fill:rgb(58.823532%,47.843137%,26.666668%);fill-opacity:1;" d="M 58.230469 19.5 L 52.730469 52.5 L 3.296875 52.5 L 8.75 22.5 L 24.453125 22.5 L 24.832031 22.246094 L 28.953125 19.5 L 58.230469 19.5 M 60 18 L 28.5 18 L 24 21 L 7.5 21 L 1.5 54 L 54 54 Z M 60 18 "/>
</g>
</svg>
