<?xml version="1.0" encoding="UTF-8"?>
<svg xmlns="http://www.w3.org/2000/svg" xmlns:xlink="http://www.w3.org/1999/xlink" width="30pt" height="30pt" viewBox="0 0 30 30" version="1.1">
<g id="surface449">
<path style="fill-rule:nonzero;fill:rgb(72.941178%,87.843138%,74.117649%);fill-opacity:1;stroke-width:1;stroke-linecap:butt;stroke-linejoin:miter;stroke:rgb(36.862746%,61.176473%,46.27451%);stroke-opacity:1;stroke-miterlimit:10;" d="M 2.484375 3.520833 L 24.567708 3.520833 L 24.567708 11.489583 L 2.484375 11.489583 Z M 2.484375 3.520833 " transform="matrix(0.75,0,0,0.75,0,0)"/>
<path style=" stroke:none;fill-rule:nonzero;fill:rgb(36.862746%,61.176473%,46.27451%);fill-opacity:1;" d="M 3.738281 4.480469 L 5.988281 4.480469 L 5.988281 6.730469 L 3.738281 6.730469 Z M 3.738281 4.480469 "/>
<path style=" stroke:none;fill-rule:nonzero;fill:rgb(36.862746%,61.176473%,46.27451%);fill-opacity:1;" d="M 7.488281 5.234375 L 15.738281 5.234375 L 15.738281 5.984375 L 7.488281 5.984375 Z M 7.488281 5.234375 "/>
<path style="fill-rule:nonzero;fill:rgb(100%,93.333334%,63.921571%);fill-opacity:1;stroke-width:1;stroke-linecap:butt;stroke-linejoin:miter;stroke:rgb(72.941178%,60.784316%,28.235295%);stroke-opacity:1;stroke-miterlimit:10;" d="M 2.484375 29.505208 L 24.567708 29.505208 L 24.567708 37.473958 L 2.484375 37.473958 Z M 2.484375 29.505208 " transform="matrix(0.75,0,0,0.75,0,0)"/>
<path style=" stroke:none;fill-rule:nonzero;fill:rgb(72.941178%,60.784316%,28.235295%);fill-opacity:1;" d="M 3.738281 23.964844 L 5.988281 23.964844 L 5.988281 26.214844 L 3.738281 26.214844 Z M 3.738281 23.964844 "/>
<path style=" stroke:none;fill-rule:nonzero;fill:rgb(72.941178%,60.784316%,28.235295%);fill-opacity:1;" d="M 7.488281 24.722656 L 15.738281 24.722656 L 15.738281 25.472656 L 7.488281 25.472656 Z M 7.488281 24.722656 "/>
<path style="fill-rule:nonzero;fill:rgb(96.862745%,56.078434%,56.078434%);fill-opacity:1;stroke-width:1;stroke-linecap:butt;stroke-linejoin:miter;stroke:rgb(78.039217%,26.274511%,26.274511%);stroke-opacity:1;stroke-miterlimit:10;" d="M 5.510417 16.494792 L 27.515625 16.494792 L 27.515625 24.463542 L 5.510417 24.463542 Z M 5.510417 16.494792 " transform="matrix(0.75,0,0,0.75,0,0)"/>
<path style=" stroke:none;fill-rule:nonzero;fill:rgb(78.039217%,26.274511%,26.274511%);fill-opacity:1;" d="M 6.007812 14.207031 L 8.257812 14.207031 L 8.257812 16.457031 L 6.007812 16.457031 Z M 6.007812 14.207031 "/>
<path style=" stroke:none;fill-rule:nonzero;fill:rgb(78.039217%,26.274511%,26.274511%);fill-opacity:1;" d="M 9.757812 14.964844 L 18.007812 14.964844 L 18.007812 15.714844 L 9.757812 15.714844 Z M 9.757812 14.964844 "/>
<path style=" stroke:none;fill-rule:nonzero;fill:rgb(54.509807%,71.764708%,94.117647%);fill-opacity:1;" d="M 20.839844 5.609375 L 22.863281 3.808594 L 22.863281 7.410156 Z M 20.839844 5.609375 "/>
<path style=" stroke:none;fill-rule:nonzero;fill:rgb(30.588236%,47.843137%,70.980394%);fill-opacity:1;" d="M 22.488281 4.632812 L 22.488281 6.585938 L 21.363281 5.609375 L 22.488281 4.632812 M 23.238281 2.984375 L 20.238281 5.609375 L 23.238281 8.234375 Z M 23.238281 2.984375 "/>
<path style="fill:none;stroke-width:1;stroke-linecap:butt;stroke-linejoin:miter;stroke:rgb(30.588236%,47.843137%,70.980394%);stroke-opacity:1;stroke-miterlimit:10;" d="M 30.572917 7.484375 L 34.671875 7.484375 C 35.6875 7.484375 36.515625 8.3125 36.515625 9.328125 L 36.515625 18.645833 C 36.515625 19.666667 35.6875 20.489583 34.671875 20.489583 L 32.088542 20.489583 " transform="matrix(0.75,0,0,0.75,0,0)"/>
</g>
</svg>
