<?xml version="1.0" encoding="UTF-8"?>
<svg xmlns="http://www.w3.org/2000/svg" xmlns:xlink="http://www.w3.org/1999/xlink" width="60pt" height="60pt" viewBox="0 0 60 60" version="1.1">
<g id="surface124">
<path style=" stroke:none;fill-rule:nonzero;fill:rgb(96.862745%,56.078434%,56.078434%);fill-opacity:1;" d="M 30 57.75 C 14.699219 57.75 2.25 45.300781 2.25 30 C 2.25 14.699219 14.699219 2.25 30 2.25 C 45.300781 2.25 57.75 14.699219 57.75 30 C 57.75 45.300781 45.300781 57.75 30 57.75 Z M 30 6.75 C 17.179688 6.75 6.75 17.179688 6.75 30 C 6.75 42.820312 17.179688 53.25 30 53.25 C 42.820312 53.25 53.25 42.820312 53.25 30 C 53.25 17.179688 42.820312 6.75 30 6.75 Z M 30 6.75 "/>
<path style=" stroke:none;fill-rule:nonzero;fill:rgb(78.039217%,26.274511%,26.274511%);fill-opacity:1;" d="M 30 3 C 44.886719 3 57 15.113281 57 30 C 57 44.886719 44.886719 57 30 57 C 15.113281 57 3 44.886719 3 30 C 3 15.113281 15.113281 3 30 3 M 30 54 C 43.234375 54 54 43.234375 54 30 C 54 16.765625 43.234375 6 30 6 C 16.765625 6 6 16.765625 6 30 C 6 43.234375 16.765625 54 30 54 M 30 1.5 C 14.261719 1.5 1.5 14.261719 1.5 30 C 1.5 45.738281 14.261719 58.5 30 58.5 C 45.738281 58.5 58.5 45.738281 58.5 30 C 58.5 14.261719 45.738281 1.5 30 1.5 Z M 30 52.5 C 17.574219 52.5 7.5 42.425781 7.5 30 C 7.5 17.574219 17.574219 7.5 30 7.5 C 42.425781 7.5 52.5 17.574219 52.5 30 C 52.5 42.425781 42.425781 52.5 30 52.5 Z M 30 52.5 "/>
<path style=" stroke:none;fill-rule:nonzero;fill:rgb(100%,100%,100%);fill-opacity:1;" d="M 2.53125 22.5 C 3.261719 19.820312 4.367188 17.304688 5.800781 15 L 13.261719 15 C 17.382812 10.40625 23.34375 7.5 30 7.5 C 42.425781 7.5 52.5 17.574219 52.5 30 C 52.5 42.425781 42.425781 52.5 30 52.5 C 17.574219 52.5 7.5 42.425781 7.5 30 C 7.5 27.367188 7.976562 24.847656 8.808594 22.5 Z M 2.53125 22.5 "/>
<path style="fill:none;stroke-width:2;stroke-linecap:round;stroke-linejoin:miter;stroke:rgb(40.000001%,47.450981%,56.078434%);stroke-opacity:1;stroke-miterlimit:10;" d="M 26.994792 9.664062 L 20 20 L 25.846354 25.846354 " transform="matrix(1.5,0,0,1.5,0,0)"/>
<path style=" stroke:none;fill-rule:nonzero;fill:rgb(40.000001%,47.450981%,56.078434%);fill-opacity:1;" d="M 30 27.75 C 28.757812 27.75 27.75 28.757812 27.75 30 C 27.75 31.242188 28.757812 32.25 30 32.25 C 31.242188 32.25 32.25 31.242188 32.25 30 C 32.25 28.757812 31.242188 27.75 30 27.75 Z M 30 27.75 "/>
<path style=" stroke:none;fill-rule:nonzero;fill:rgb(77.254903%,83.137256%,87.058824%);fill-opacity:1;" d="M 30 9 C 29.171875 9 28.5 9.671875 28.5 10.5 C 28.5 11.328125 29.171875 12 30 12 C 30.828125 12 31.5 11.328125 31.5 10.5 C 31.5 9.671875 30.828125 9 30 9 Z M 30 48 C 29.171875 48 28.5 48.671875 28.5 49.5 C 28.5 50.328125 29.171875 51 30 51 C 30.828125 51 31.5 50.328125 31.5 49.5 C 31.5 48.671875 30.828125 48 30 48 Z M 49.5 28.5 C 48.671875 28.5 48 29.171875 48 30 C 48 30.828125 48.671875 31.5 49.5 31.5 C 50.328125 31.5 51 30.828125 51 30 C 51 29.171875 50.328125 28.5 49.5 28.5 Z M 10.5 28.5 C 9.671875 28.5 9 29.171875 9 30 C 9 30.828125 9.671875 31.5 10.5 31.5 C 11.328125 31.5 12 30.828125 12 30 C 12 29.171875 11.328125 28.5 10.5 28.5 Z M 10.5 28.5 "/>
<path style=" stroke:none;fill-rule:nonzero;fill:rgb(96.862745%,56.078434%,56.078434%);fill-opacity:1;" d="M 6.320312 18.535156 L 6.320312 6.847656 L 18.011719 18.535156 Z M 6.320312 18.535156 "/>
<path style=" stroke:none;fill-rule:nonzero;fill:rgb(78.039217%,26.274511%,26.274511%);fill-opacity:1;" d="M 7.070312 8.65625 L 16.199219 17.785156 L 7.070312 17.785156 L 7.070312 8.65625 M 5.570312 5.035156 L 5.570312 19.285156 L 19.820312 19.285156 Z M 5.570312 5.035156 "/>
<path style="fill:none;stroke-width:2;stroke-linecap:butt;stroke-linejoin:miter;stroke:rgb(96.862745%,56.078434%,56.078434%);stroke-opacity:1;stroke-miterlimit:10;" d="M 9.505208 6.625 C 8.541667 7.382812 7.661458 8.242188 6.882812 9.184896 " transform="matrix(1.5,0,0,1.5,0,0)"/>
</g>
</svg>
