<?xml version="1.0" encoding="UTF-8"?>
<svg xmlns="http://www.w3.org/2000/svg" xmlns:xlink="http://www.w3.org/1999/xlink" width="30pt" height="30pt" viewBox="0 0 30 30" version="1.1">
<g id="surface1229">
<path style=" stroke:none;fill-rule:nonzero;fill:rgb(54.509807%,71.764708%,94.117647%);fill-opacity:1;" d="M 28.1875 24 L 23.625 19.816406 L 23.625 22.875 L 7.125 22.875 L 7.125 25.125 L 23.625 25.125 L 23.625 28.183594 Z M 28.1875 24 "/>
<path style=" stroke:none;fill-rule:nonzero;fill:rgb(30.588236%,47.843137%,70.980394%);fill-opacity:1;" d="M 23.25 29.035156 L 23.25 25.5 L 6.75 25.5 L 6.75 22.5 L 23.25 22.5 L 23.25 18.964844 L 28.742188 24 Z M 7.5 24.75 L 24 24.75 L 24 27.328125 L 27.632812 24 L 24 20.671875 L 24 23.25 L 7.5 23.25 Z M 7.5 24.75 "/>
<path style=" stroke:none;fill-rule:nonzero;fill:rgb(88.235295%,92.156863%,94.901961%);fill-opacity:1;" d="M 10.183594 6.375 L 6 1.8125 L 1.816406 6.375 L 4.875 6.375 L 4.875 23.832031 L 7.125 23.832031 L 7.125 6.375 Z M 10.183594 6.375 "/>
<path style=" stroke:none;fill-rule:nonzero;fill:rgb(47.058824%,54.509807%,61.176473%);fill-opacity:1;" d="M 7.5 24.207031 L 4.5 24.207031 L 4.5 6.75 L 0.964844 6.75 L 6 1.257812 L 11.035156 6.75 L 7.5 6.75 Z M 5.25 23.457031 L 6.75 23.457031 L 6.75 6 L 9.328125 6 L 6 2.367188 L 2.671875 6 L 5.25 6 Z M 5.25 23.457031 "/>
<path style=" stroke:none;fill-rule:nonzero;fill:rgb(96.862745%,56.078434%,56.078434%);fill-opacity:1;" d="M 8.625 24 C 8.625 25.449219 7.449219 26.625 6 26.625 C 4.550781 26.625 3.375 25.449219 3.375 24 C 3.375 22.550781 4.550781 21.375 6 21.375 C 7.449219 21.375 8.625 22.550781 8.625 24 Z M 8.625 24 "/>
<path style=" stroke:none;fill-rule:nonzero;fill:rgb(78.039217%,26.274511%,26.274511%);fill-opacity:1;" d="M 6 27 C 4.34375 27 3 25.65625 3 24 C 3 22.34375 4.34375 21 6 21 C 7.65625 21 9 22.34375 9 24 C 9 25.65625 7.65625 27 6 27 Z M 6 21.75 C 4.757812 21.75 3.75 22.757812 3.75 24 C 3.75 25.242188 4.757812 26.25 6 26.25 C 7.242188 26.25 8.25 25.242188 8.25 24 C 8.25 22.757812 7.242188 21.75 6 21.75 Z M 6 21.75 "/>
</g>
</svg>
