<?xml version="1.0" encoding="UTF-8"?>
<svg xmlns="http://www.w3.org/2000/svg" xmlns:xlink="http://www.w3.org/1999/xlink" width="30pt" height="30pt" viewBox="0 0 30 30" version="1.1">
<g id="surface1448">
<path style=" stroke:none;fill-rule:nonzero;fill:rgb(88.235295%,92.156863%,94.901961%);fill-opacity:1;" d="M 12.75 16.660156 C 10.890625 16.660156 9.375 15.144531 9.375 13.285156 L 9.375 4.5 C 9.375 2.640625 10.890625 1.125 12.75 1.125 C 14.609375 1.125 16.125 2.640625 16.125 4.5 L 16.125 13.285156 C 16.125 15.148438 14.609375 16.660156 12.75 16.660156 Z M 12.75 16.660156 "/>
<path style=" stroke:none;fill-rule:nonzero;fill:rgb(47.058824%,54.509807%,61.176473%);fill-opacity:1;" d="M 12.75 1.5 C 14.40625 1.5 15.75 2.84375 15.75 4.5 L 15.75 13.285156 C 15.75 14.941406 14.40625 16.285156 12.75 16.285156 C 11.09375 16.285156 9.75 14.941406 9.75 13.285156 L 9.75 4.5 C 9.75 2.84375 11.09375 1.5 12.75 1.5 M 12.75 0.75 C 10.6875 0.75 9 2.4375 9 4.5 L 9 13.285156 C 9 15.347656 10.6875 17.035156 12.75 17.035156 C 14.8125 17.035156 16.5 15.347656 16.5 13.285156 L 16.5 4.5 C 16.5 2.4375 14.8125 0.75 12.75 0.75 Z M 12.75 0.75 "/>
<path style=" stroke:none;fill-rule:nonzero;fill:rgb(96.862745%,56.078434%,56.078434%);fill-opacity:1;" d="M 12.75 28.875 C 9.648438 28.875 7.125 26.351562 7.125 23.25 C 7.125 21.539062 7.894531 19.9375 9.234375 18.863281 L 9.375 18.75 L 9.375 11.625 L 16.125 11.625 L 16.125 18.75 L 16.265625 18.863281 C 17.605469 19.9375 18.375 21.539062 18.375 23.25 C 18.375 26.351562 15.851562 28.875 12.75 28.875 Z M 12.75 28.875 "/>
<path style=" stroke:none;fill-rule:nonzero;fill:rgb(78.039217%,26.274511%,26.274511%);fill-opacity:1;" d="M 15.75 12 L 15.75 18.929688 L 16.03125 19.15625 C 17.28125 20.160156 18 21.652344 18 23.25 C 18 26.144531 15.644531 28.5 12.75 28.5 C 9.855469 28.5 7.5 26.144531 7.5 23.25 C 7.5 21.652344 8.21875 20.160156 9.46875 19.15625 L 9.75 18.929688 L 9.75 12 L 15.75 12 M 16.5 11.25 L 9 11.25 L 9 18.570312 C 7.628906 19.667969 6.75 21.355469 6.75 23.25 C 6.75 26.5625 9.4375 29.25 12.75 29.25 C 16.0625 29.25 18.75 26.5625 18.75 23.25 C 18.75 21.355469 17.871094 19.671875 16.5 18.570312 Z M 16.5 11.25 "/>
<path style=" stroke:none;fill-rule:nonzero;fill:rgb(30.588236%,47.843137%,70.980394%);fill-opacity:1;" d="M 18.75 18 L 23.25 18 L 23.25 18.75 L 18.75 18.75 Z M 18.75 15 L 23.25 15 L 23.25 15.75 L 18.75 15.75 Z M 18.75 12 L 23.25 12 L 23.25 12.75 L 18.75 12.75 Z M 18.75 12 "/>
<path style=" stroke:none;fill-rule:nonzero;fill:rgb(78.039217%,26.274511%,26.274511%);fill-opacity:1;" d="M 18.75 9 L 23.25 9 L 23.25 9.75 L 18.75 9.75 Z M 18.75 6 L 23.25 6 L 23.25 6.75 L 18.75 6.75 Z M 18.75 3 L 23.25 3 L 23.25 3.75 L 18.75 3.75 Z M 18.75 3 "/>
</g>
</svg>
