<?xml version="1.0" encoding="UTF-8"?>
<svg xmlns="http://www.w3.org/2000/svg" xmlns:xlink="http://www.w3.org/1999/xlink" width="30pt" height="30pt" viewBox="0 0 30 30" version="1.1">
<g id="surface1685">
<path style=" stroke:none;fill-rule:nonzero;fill:rgb(76.078433%,90.980393%,100%);fill-opacity:1;" d="M 15 26.625 C 8.589844 26.625 3.375 21.410156 3.375 15 C 3.375 9.921875 6.644531 5.488281 11.421875 3.949219 L 9.234375 8.597656 C 7.417969 10.234375 6.375 12.5625 6.375 15 C 6.375 19.753906 10.246094 23.625 15 23.625 C 19.753906 23.625 23.625 19.753906 23.625 15 C 23.625 12.5625 22.582031 10.234375 20.765625 8.597656 L 18.578125 3.949219 C 23.355469 5.488281 26.625 9.921875 26.625 15 C 26.625 21.410156 21.410156 26.625 15 26.625 Z M 15 26.625 "/>
<path style=" stroke:none;fill-rule:nonzero;fill:rgb(45.490196%,58.823532%,76.862746%);fill-opacity:1;" d="M 10.695312 4.617188 L 8.929688 8.367188 C 7.066406 10.074219 6 12.480469 6 15 C 6 19.960938 10.039062 24 15 24 C 19.960938 24 24 19.960938 24 15 C 24 12.484375 22.933594 10.074219 21.070312 8.367188 L 19.304688 4.617188 C 23.464844 6.332031 26.25 10.390625 26.25 15 C 26.25 21.203125 21.203125 26.25 15 26.25 C 8.796875 26.25 3.75 21.203125 3.75 15 C 3.75 10.390625 6.535156 6.332031 10.695312 4.617188 M 12.113281 3.363281 C 6.882812 4.660156 3 9.371094 3 15 C 3 21.628906 8.371094 27 15 27 C 21.628906 27 27 21.628906 27 15 C 27 9.371094 23.117188 4.660156 17.886719 3.363281 L 20.457031 8.824219 C 22.167969 10.335938 23.25 12.539062 23.25 15 C 23.25 19.554688 19.554688 23.25 15 23.25 C 10.445312 23.25 6.75 19.554688 6.75 15 C 6.75 12.539062 7.832031 10.335938 9.542969 8.824219 Z M 12.113281 3.363281 "/>
<path style=" stroke:none;fill-rule:nonzero;fill:rgb(54.509807%,71.764708%,94.117647%);fill-opacity:1;" d="M 1.125 14.625 L 6.375 14.625 L 6.375 15.375 L 1.125 15.375 Z M 1.125 14.625 "/>
<path style=" stroke:none;fill-rule:nonzero;fill:rgb(30.588236%,47.843137%,70.980394%);fill-opacity:1;" d="M 6.75 14.25 L 0.75 14.25 L 0.75 15.75 L 6.75 15.75 Z M 6.75 14.25 "/>
<path style=" stroke:none;fill-rule:nonzero;fill:rgb(54.509807%,71.764708%,94.117647%);fill-opacity:1;" d="M 14.625 23.625 L 15.375 23.625 L 15.375 28.875 L 14.625 28.875 Z M 14.625 23.625 "/>
<path style=" stroke:none;fill-rule:nonzero;fill:rgb(30.588236%,47.843137%,70.980394%);fill-opacity:1;" d="M 15 24 L 15 28.5 L 15 24 M 15.75 23.25 L 14.25 23.25 L 14.25 29.25 L 15.75 29.25 Z M 15.75 23.25 "/>
<path style=" stroke:none;fill-rule:nonzero;fill:rgb(54.509807%,71.764708%,94.117647%);fill-opacity:1;" d="M 23.625 14.625 L 28.875 14.625 L 28.875 15.375 L 23.625 15.375 Z M 23.625 14.625 "/>
<path style=" stroke:none;fill-rule:nonzero;fill:rgb(30.588236%,47.843137%,70.980394%);fill-opacity:1;" d="M 29.25 14.25 L 23.25 14.25 L 23.25 15.75 L 29.25 15.75 Z M 29.25 14.25 "/>
<path style=" stroke:none;fill-rule:nonzero;fill:rgb(96.862745%,56.078434%,56.078434%);fill-opacity:1;" d="M 15 10.847656 L 9.734375 12.824219 L 15 1.628906 L 20.265625 12.824219 Z M 15 10.847656 "/>
<path style=" stroke:none;fill-rule:nonzero;fill:rgb(78.039217%,26.274511%,26.274511%);fill-opacity:1;" d="M 15 2.511719 L 19.535156 12.148438 L 15.261719 10.546875 L 15 10.449219 L 14.738281 10.546875 L 10.464844 12.148438 L 15 2.511719 M 15 0.75 L 9 13.5 L 15 11.25 L 21 13.5 Z M 15 0.75 "/>
</g>
</svg>
