<?xml version="1.0" encoding="UTF-8"?>
<svg xmlns="http://www.w3.org/2000/svg" xmlns:xlink="http://www.w3.org/1999/xlink" width="30pt" height="30pt" viewBox="0 0 30 30" version="1.1">
<g id="surface2058">
<path style=" stroke:none;fill-rule:nonzero;fill:rgb(76.078433%,90.980393%,100%);fill-opacity:1;" d="M 4.5 26.625 C 3.464844 26.625 2.625 25.785156 2.625 24.75 L 2.625 4.5 C 2.625 3.464844 3.464844 2.625 4.5 2.625 L 24.75 2.625 C 25.785156 2.625 26.625 3.464844 26.625 4.5 L 26.625 24.75 C 26.625 25.785156 25.785156 26.625 24.75 26.625 Z M 4.5 26.625 "/>
<path style=" stroke:none;fill-rule:nonzero;fill:rgb(45.490196%,58.823532%,76.862746%);fill-opacity:1;" d="M 24.75 3 C 25.578125 3 26.25 3.671875 26.25 4.5 L 26.25 24.75 C 26.25 25.578125 25.578125 26.25 24.75 26.25 L 4.5 26.25 C 3.671875 26.25 3 25.578125 3 24.75 L 3 4.5 C 3 3.671875 3.671875 3 4.5 3 L 24.75 3 M 24.75 2.25 L 4.5 2.25 C 3.257812 2.25 2.25 3.257812 2.25 4.5 L 2.25 24.75 C 2.25 25.992188 3.257812 27 4.5 27 L 24.75 27 C 25.992188 27 27 25.992188 27 24.75 L 27 4.5 C 27 3.257812 25.992188 2.25 24.75 2.25 Z M 24.75 2.25 "/>
<path style=" stroke:none;fill-rule:nonzero;fill:rgb(72.941178%,87.843138%,74.117649%);fill-opacity:1;" d="M 6.75 10.125 C 6.128906 10.125 5.625 9.621094 5.625 9 L 5.625 6.75 C 5.625 6.128906 6.128906 5.625 6.75 5.625 L 9 5.625 C 9.621094 5.625 10.125 6.128906 10.125 6.75 L 10.125 9 C 10.125 9.621094 9.621094 10.125 9 10.125 Z M 6.75 10.125 "/>
<path style=" stroke:none;fill-rule:nonzero;fill:rgb(36.862746%,61.176473%,46.27451%);fill-opacity:1;" d="M 9 6 C 9.414062 6 9.75 6.335938 9.75 6.75 L 9.75 9 C 9.75 9.414062 9.414062 9.75 9 9.75 L 6.75 9.75 C 6.335938 9.75 6 9.414062 6 9 L 6 6.75 C 6 6.335938 6.335938 6 6.75 6 L 9 6 M 9 5.25 L 6.75 5.25 C 5.921875 5.25 5.25 5.921875 5.25 6.75 L 5.25 9 C 5.25 9.828125 5.921875 10.5 6.75 10.5 L 9 10.5 C 9.828125 10.5 10.5 9.828125 10.5 9 L 10.5 6.75 C 10.5 5.921875 9.828125 5.25 9 5.25 Z M 9 5.25 "/>
<path style=" stroke:none;fill-rule:nonzero;fill:rgb(72.941178%,87.843138%,74.117649%);fill-opacity:1;" d="M 13.5 10.125 C 12.878906 10.125 12.375 9.621094 12.375 9 L 12.375 6.75 C 12.375 6.128906 12.878906 5.625 13.5 5.625 L 15.75 5.625 C 16.371094 5.625 16.875 6.128906 16.875 6.75 L 16.875 9 C 16.875 9.621094 16.371094 10.125 15.75 10.125 Z M 13.5 10.125 "/>
<path style=" stroke:none;fill-rule:nonzero;fill:rgb(36.862746%,61.176473%,46.27451%);fill-opacity:1;" d="M 15.75 6 C 16.164062 6 16.5 6.335938 16.5 6.75 L 16.5 9 C 16.5 9.414062 16.164062 9.75 15.75 9.75 L 13.5 9.75 C 13.085938 9.75 12.75 9.414062 12.75 9 L 12.75 6.75 C 12.75 6.335938 13.085938 6 13.5 6 L 15.75 6 M 15.75 5.25 L 13.5 5.25 C 12.671875 5.25 12 5.921875 12 6.75 L 12 9 C 12 9.828125 12.671875 10.5 13.5 10.5 L 15.75 10.5 C 16.578125 10.5 17.25 9.828125 17.25 9 L 17.25 6.75 C 17.25 5.921875 16.578125 5.25 15.75 5.25 Z M 15.75 5.25 "/>
<path style=" stroke:none;fill-rule:nonzero;fill:rgb(72.941178%,87.843138%,74.117649%);fill-opacity:1;" d="M 20.25 10.125 C 19.628906 10.125 19.125 9.621094 19.125 9 L 19.125 6.75 C 19.125 6.128906 19.628906 5.625 20.25 5.625 L 22.5 5.625 C 23.121094 5.625 23.625 6.128906 23.625 6.75 L 23.625 9 C 23.625 9.621094 23.121094 10.125 22.5 10.125 Z M 20.25 10.125 "/>
<path style=" stroke:none;fill-rule:nonzero;fill:rgb(36.862746%,61.176473%,46.27451%);fill-opacity:1;" d="M 22.5 6 C 22.914062 6 23.25 6.335938 23.25 6.75 L 23.25 9 C 23.25 9.414062 22.914062 9.75 22.5 9.75 L 20.25 9.75 C 19.835938 9.75 19.5 9.414062 19.5 9 L 19.5 6.75 C 19.5 6.335938 19.835938 6 20.25 6 L 22.5 6 M 22.5 5.25 L 20.25 5.25 C 19.421875 5.25 18.75 5.921875 18.75 6.75 L 18.75 9 C 18.75 9.828125 19.421875 10.5 20.25 10.5 L 22.5 10.5 C 23.328125 10.5 24 9.828125 24 9 L 24 6.75 C 24 5.921875 23.328125 5.25 22.5 5.25 Z M 22.5 5.25 "/>
<path style=" stroke:none;fill-rule:nonzero;fill:rgb(72.941178%,87.843138%,74.117649%);fill-opacity:1;" d="M 6.75 16.875 C 6.128906 16.875 5.625 16.371094 5.625 15.75 L 5.625 13.5 C 5.625 12.878906 6.128906 12.375 6.75 12.375 L 9 12.375 C 9.621094 12.375 10.125 12.878906 10.125 13.5 L 10.125 15.75 C 10.125 16.371094 9.621094 16.875 9 16.875 Z M 6.75 16.875 "/>
<path style=" stroke:none;fill-rule:nonzero;fill:rgb(36.862746%,61.176473%,46.27451%);fill-opacity:1;" d="M 9 12.75 C 9.414062 12.75 9.75 13.085938 9.75 13.5 L 9.75 15.75 C 9.75 16.164062 9.414062 16.5 9 16.5 L 6.75 16.5 C 6.335938 16.5 6 16.164062 6 15.75 L 6 13.5 C 6 13.085938 6.335938 12.75 6.75 12.75 L 9 12.75 M 9 12 L 6.75 12 C 5.921875 12 5.25 12.671875 5.25 13.5 L 5.25 15.75 C 5.25 16.578125 5.921875 17.25 6.75 17.25 L 9 17.25 C 9.828125 17.25 10.5 16.578125 10.5 15.75 L 10.5 13.5 C 10.5 12.671875 9.828125 12 9 12 Z M 9 12 "/>
<path style=" stroke:none;fill-rule:nonzero;fill:rgb(72.941178%,87.843138%,74.117649%);fill-opacity:1;" d="M 13.5 16.875 C 12.878906 16.875 12.375 16.371094 12.375 15.75 L 12.375 13.5 C 12.375 12.878906 12.878906 12.375 13.5 12.375 L 15.75 12.375 C 16.371094 12.375 16.875 12.878906 16.875 13.5 L 16.875 15.75 C 16.875 16.371094 16.371094 16.875 15.75 16.875 Z M 13.5 16.875 "/>
<path style=" stroke:none;fill-rule:nonzero;fill:rgb(36.862746%,61.176473%,46.27451%);fill-opacity:1;" d="M 15.75 12.75 C 16.164062 12.75 16.5 13.085938 16.5 13.5 L 16.5 15.75 C 16.5 16.164062 16.164062 16.5 15.75 16.5 L 13.5 16.5 C 13.085938 16.5 12.75 16.164062 12.75 15.75 L 12.75 13.5 C 12.75 13.085938 13.085938 12.75 13.5 12.75 L 15.75 12.75 M 15.75 12 L 13.5 12 C 12.671875 12 12 12.671875 12 13.5 L 12 15.75 C 12 16.578125 12.671875 17.25 13.5 17.25 L 15.75 17.25 C 16.578125 17.25 17.25 16.578125 17.25 15.75 L 17.25 13.5 C 17.25 12.671875 16.578125 12 15.75 12 Z M 15.75 12 "/>
<path style=" stroke:none;fill-rule:nonzero;fill:rgb(72.941178%,87.843138%,74.117649%);fill-opacity:1;" d="M 20.25 16.875 C 19.628906 16.875 19.125 16.371094 19.125 15.75 L 19.125 13.5 C 19.125 12.878906 19.628906 12.375 20.25 12.375 L 22.5 12.375 C 23.121094 12.375 23.625 12.878906 23.625 13.5 L 23.625 15.75 C 23.625 16.371094 23.121094 16.875 22.5 16.875 Z M 20.25 16.875 "/>
<path style=" stroke:none;fill-rule:nonzero;fill:rgb(36.862746%,61.176473%,46.27451%);fill-opacity:1;" d="M 22.5 12.75 C 22.914062 12.75 23.25 13.085938 23.25 13.5 L 23.25 15.75 C 23.25 16.164062 22.914062 16.5 22.5 16.5 L 20.25 16.5 C 19.835938 16.5 19.5 16.164062 19.5 15.75 L 19.5 13.5 C 19.5 13.085938 19.835938 12.75 20.25 12.75 L 22.5 12.75 M 22.5 12 L 20.25 12 C 19.421875 12 18.75 12.671875 18.75 13.5 L 18.75 15.75 C 18.75 16.578125 19.421875 17.25 20.25 17.25 L 22.5 17.25 C 23.328125 17.25 24 16.578125 24 15.75 L 24 13.5 C 24 12.671875 23.328125 12 22.5 12 Z M 22.5 12 "/>
<path style=" stroke:none;fill-rule:nonzero;fill:rgb(72.941178%,87.843138%,74.117649%);fill-opacity:1;" d="M 6.75 23.625 C 6.128906 23.625 5.625 23.121094 5.625 22.5 L 5.625 20.25 C 5.625 19.628906 6.128906 19.125 6.75 19.125 L 9 19.125 C 9.621094 19.125 10.125 19.628906 10.125 20.25 L 10.125 22.5 C 10.125 23.121094 9.621094 23.625 9 23.625 Z M 6.75 23.625 "/>
<path style=" stroke:none;fill-rule:nonzero;fill:rgb(36.862746%,61.176473%,46.27451%);fill-opacity:1;" d="M 9 19.5 C 9.414062 19.5 9.75 19.835938 9.75 20.25 L 9.75 22.5 C 9.75 22.914062 9.414062 23.25 9 23.25 L 6.75 23.25 C 6.335938 23.25 6 22.914062 6 22.5 L 6 20.25 C 6 19.835938 6.335938 19.5 6.75 19.5 L 9 19.5 M 9 18.75 L 6.75 18.75 C 5.921875 18.75 5.25 19.421875 5.25 20.25 L 5.25 22.5 C 5.25 23.328125 5.921875 24 6.75 24 L 9 24 C 9.828125 24 10.5 23.328125 10.5 22.5 L 10.5 20.25 C 10.5 19.421875 9.828125 18.75 9 18.75 Z M 9 18.75 "/>
<path style=" stroke:none;fill-rule:nonzero;fill:rgb(72.941178%,87.843138%,74.117649%);fill-opacity:1;" d="M 13.5 23.625 C 12.878906 23.625 12.375 23.121094 12.375 22.5 L 12.375 20.25 C 12.375 19.628906 12.878906 19.125 13.5 19.125 L 15.75 19.125 C 16.371094 19.125 16.875 19.628906 16.875 20.25 L 16.875 22.5 C 16.875 23.121094 16.371094 23.625 15.75 23.625 Z M 13.5 23.625 "/>
<path style=" stroke:none;fill-rule:nonzero;fill:rgb(36.862746%,61.176473%,46.27451%);fill-opacity:1;" d="M 15.75 19.5 C 16.164062 19.5 16.5 19.835938 16.5 20.25 L 16.5 22.5 C 16.5 22.914062 16.164062 23.25 15.75 23.25 L 13.5 23.25 C 13.085938 23.25 12.75 22.914062 12.75 22.5 L 12.75 20.25 C 12.75 19.835938 13.085938 19.5 13.5 19.5 L 15.75 19.5 M 15.75 18.75 L 13.5 18.75 C 12.671875 18.75 12 19.421875 12 20.25 L 12 22.5 C 12 23.328125 12.671875 24 13.5 24 L 15.75 24 C 16.578125 24 17.25 23.328125 17.25 22.5 L 17.25 20.25 C 17.25 19.421875 16.578125 18.75 15.75 18.75 Z M 15.75 18.75 "/>
<path style=" stroke:none;fill-rule:nonzero;fill:rgb(72.941178%,87.843138%,74.117649%);fill-opacity:1;" d="M 20.25 23.625 C 19.628906 23.625 19.125 23.121094 19.125 22.5 L 19.125 20.25 C 19.125 19.628906 19.628906 19.125 20.25 19.125 L 22.5 19.125 C 23.121094 19.125 23.625 19.628906 23.625 20.25 L 23.625 22.5 C 23.625 23.121094 23.121094 23.625 22.5 23.625 Z M 20.25 23.625 "/>
<path style=" stroke:none;fill-rule:nonzero;fill:rgb(36.862746%,61.176473%,46.27451%);fill-opacity:1;" d="M 22.5 19.5 C 22.914062 19.5 23.25 19.835938 23.25 20.25 L 23.25 22.5 C 23.25 22.914062 22.914062 23.25 22.5 23.25 L 20.25 23.25 C 19.835938 23.25 19.5 22.914062 19.5 22.5 L 19.5 20.25 C 19.5 19.835938 19.835938 19.5 20.25 19.5 L 22.5 19.5 M 22.5 18.75 L 20.25 18.75 C 19.421875 18.75 18.75 19.421875 18.75 20.25 L 18.75 22.5 C 18.75 23.328125 19.421875 24 20.25 24 L 22.5 24 C 23.328125 24 24 23.328125 24 22.5 L 24 20.25 C 24 19.421875 23.328125 18.75 22.5 18.75 Z M 22.5 18.75 "/>
</g>
</svg>
