<?xml version="1.0" encoding="UTF-8"?>
<svg xmlns="http://www.w3.org/2000/svg" xmlns:xlink="http://www.w3.org/1999/xlink" width="60pt" height="60pt" viewBox="0 0 60 60" version="1.1">
<g id="surface17">
<path style=" stroke:none;fill-rule:nonzero;fill:rgb(85.882354%,69.01961%,39.607844%);fill-opacity:1;" d="M 2.25 53.25 L 2.25 6.75 L 17.691406 6.75 L 22.191406 11.25 L 57.75 11.25 L 57.75 53.25 Z M 2.25 53.25 "/>
<path style=" stroke:none;fill-rule:nonzero;fill:rgb(58.823532%,47.843137%,26.666668%);fill-opacity:1;" d="M 17.378906 7.5 L 21.441406 11.558594 L 21.878906 12 L 57 12 L 57 52.5 L 3 52.5 L 3 7.5 L 17.378906 7.5 M 18 6 L 1.5 6 L 1.5 54 L 58.5 54 L 58.5 10.5 L 22.5 10.5 Z M 18 6 "/>
<path style=" stroke:none;fill-rule:nonzero;fill:rgb(96.078432%,80.784315%,52.156866%);fill-opacity:1;" d="M 2.25 53.25 L 2.25 14.25 L 18.226562 14.25 L 22.726562 11.25 L 57.75 11.25 L 57.75 53.25 Z M 2.25 53.25 "/>
<path style=" stroke:none;fill-rule:nonzero;fill:rgb(58.823532%,47.843137%,26.666668%);fill-opacity:1;" d="M 57 12 L 57 52.5 L 3 52.5 L 3 15 L 18.453125 15 L 18.832031 14.746094 L 22.953125 12 L 57 12 M 58.5 10.5 L 22.5 10.5 L 18 13.5 L 1.5 13.5 L 1.5 54 L 58.5 54 Z M 58.5 10.5 "/>
</g>
</svg>
