<?xml version="1.0" encoding="UTF-8"?>
<svg xmlns="http://www.w3.org/2000/svg" xmlns:xlink="http://www.w3.org/1999/xlink" width="30pt" height="30pt" viewBox="0 0 30 30" version="1.1">
<g id="surface2839">
<path style=" stroke:none;fill-rule:nonzero;fill:rgb(100%,100%,100%);fill-opacity:1;" d="M 3.023438 25.875 C 1.289062 23.445312 0.375 20.59375 0.375 17.625 C 0.375 9.765625 6.765625 3.375 14.625 3.375 C 22.484375 3.375 28.875 9.765625 28.875 17.625 C 28.875 20.59375 27.960938 23.445312 26.226562 25.875 Z M 3.023438 25.875 "/>
<path style=" stroke:none;fill-rule:nonzero;fill:rgb(30.588236%,47.843137%,70.980394%);fill-opacity:1;" d="M 14.625 3.75 C 22.277344 3.75 28.5 9.972656 28.5 17.625 C 28.5 20.453125 27.648438 23.167969 26.03125 25.5 L 3.21875 25.5 C 1.601562 23.167969 0.75 20.453125 0.75 17.625 C 0.75 9.972656 6.972656 3.75 14.625 3.75 M 14.625 3 C 6.546875 3 0 9.546875 0 17.625 C 0 20.855469 1.058594 23.828125 2.832031 26.25 L 26.417969 26.25 C 28.191406 23.828125 29.25 20.855469 29.25 17.625 C 29.25 9.546875 22.703125 3 14.625 3 Z M 14.625 3 "/>
<path style=" stroke:none;fill-rule:nonzero;fill:rgb(71.372551%,78.823531%,83.92157%);fill-opacity:1;" d="M 11.25 21.75 L 18 21.75 L 18 23.25 L 11.25 23.25 Z M 11.25 21.75 "/>
<path style=" stroke:none;fill-rule:nonzero;fill:rgb(96.862745%,56.078434%,56.078434%);fill-opacity:1;" d="M 14.625 16.875 C 14.210938 16.875 13.875 17.210938 13.875 17.625 C 13.875 18.039062 14.210938 18.375 14.625 18.375 C 15.039062 18.375 15.375 18.039062 15.375 17.625 C 15.375 17.210938 15.039062 16.875 14.625 16.875 Z M 14.625 16.875 "/>
<path style=" stroke:none;fill-rule:nonzero;fill:rgb(78.039217%,26.274511%,26.274511%);fill-opacity:1;" d="M 14.625 17.25 C 14.832031 17.25 15 17.417969 15 17.625 C 15 17.832031 14.832031 18 14.625 18 C 14.417969 18 14.25 17.832031 14.25 17.625 C 14.25 17.417969 14.417969 17.25 14.625 17.25 M 14.625 16.5 C 14.003906 16.5 13.5 17.003906 13.5 17.625 C 13.5 18.246094 14.003906 18.75 14.625 18.75 C 15.246094 18.75 15.75 18.246094 15.75 17.625 C 15.75 17.003906 15.246094 16.5 14.625 16.5 Z M 14.625 16.5 "/>
<path style="fill-rule:nonzero;fill:rgb(96.862745%,56.078434%,56.078434%);fill-opacity:1;stroke-width:1;stroke-linecap:butt;stroke-linejoin:miter;stroke:rgb(78.039217%,26.274511%,26.274511%);stroke-opacity:1;stroke-miterlimit:10;" d="M 19 24 L 30 13 " transform="matrix(0.75,0,0,0.75,0,0)"/>
<path style=" stroke:none;fill-rule:nonzero;fill:rgb(47.058824%,54.509807%,61.176473%);fill-opacity:1;" d="M 14.625 3.75 C 14.5 3.75 14.375 3.765625 14.25 3.769531 L 14.25 6 L 15 6 L 15 3.769531 C 14.875 3.765625 14.75 3.75 14.625 3.75 Z M 14.625 3.75 "/>
<path style=" stroke:none;fill-rule:nonzero;fill:rgb(88.235295%,92.156863%,94.901961%);fill-opacity:1;" d="M 26.25 18 L 28.484375 18 C 28.488281 17.875 28.5 17.75 28.5 17.625 C 28.5 17.5 28.484375 17.375 28.480469 17.25 L 26.25 17.25 Z M 26.25 18 "/>
<path style=" stroke:none;fill-rule:nonzero;fill:rgb(47.058824%,54.509807%,61.176473%);fill-opacity:1;" d="M 28.480469 17.25 L 26.25 17.25 L 26.25 18 L 28.484375 18 C 28.488281 17.875 28.5 17.75 28.5 17.625 C 28.5 17.5 28.484375 17.375 28.480469 17.25 Z M 28.480469 17.25 "/>
<path style=" stroke:none;fill-rule:nonzero;fill:rgb(88.235295%,92.156863%,94.901961%);fill-opacity:1;" d="M 0.765625 18 L 3 18 L 3 17.25 L 0.769531 17.25 C 0.765625 17.375 0.75 17.5 0.75 17.625 C 0.75 17.75 0.761719 17.875 0.765625 18 Z M 0.765625 18 "/>
<path style=" stroke:none;fill-rule:nonzero;fill:rgb(47.058824%,54.509807%,61.176473%);fill-opacity:1;" d="M 3 17.25 L 0.769531 17.25 C 0.765625 17.375 0.75 17.5 0.75 17.625 C 0.75 17.75 0.761719 17.875 0.765625 18 L 3 18 Z M 3 17.25 "/>
<path style=" stroke:none;fill-rule:nonzero;fill:rgb(88.235295%,92.156863%,94.901961%);fill-opacity:1;" d="M 8.488281 7.746094 L 9.136719 7.371094 L 8.015625 5.429688 C 7.796875 5.546875 7.585938 5.6875 7.375 5.816406 Z M 8.488281 7.746094 "/>
<path style=" stroke:none;fill-rule:nonzero;fill:rgb(47.058824%,54.509807%,61.176473%);fill-opacity:1;" d="M 8.015625 5.429688 C 7.796875 5.546875 7.585938 5.6875 7.375 5.816406 L 8.488281 7.746094 L 9.136719 7.371094 Z M 8.015625 5.429688 "/>
<path style=" stroke:none;fill-rule:nonzero;fill:rgb(88.235295%,92.156863%,94.901961%);fill-opacity:1;" d="M 26.433594 10.375 L 24.503906 11.488281 L 24.878906 12.136719 L 26.820312 11.015625 C 26.703125 10.796875 26.5625 10.585938 26.433594 10.375 Z M 26.433594 10.375 "/>
<path style=" stroke:none;fill-rule:nonzero;fill:rgb(47.058824%,54.509807%,61.176473%);fill-opacity:1;" d="M 26.433594 10.375 L 24.503906 11.488281 L 24.878906 12.136719 L 26.820312 11.015625 C 26.703125 10.796875 26.5625 10.585938 26.433594 10.375 Z M 26.433594 10.375 "/>
<path style=" stroke:none;fill-rule:nonzero;fill:rgb(88.235295%,92.156863%,94.901961%);fill-opacity:1;" d="M 2.820312 24.875 L 4.746094 23.761719 L 4.371094 23.113281 L 2.441406 24.226562 C 2.5625 24.445312 2.6875 24.660156 2.820312 24.875 Z M 2.820312 24.875 "/>
<path style=" stroke:none;fill-rule:nonzero;fill:rgb(47.058824%,54.509807%,61.176473%);fill-opacity:1;" d="M 4.371094 23.113281 L 2.441406 24.226562 C 2.5625 24.445312 2.6875 24.660156 2.820312 24.875 L 4.746094 23.761719 Z M 4.371094 23.113281 "/>
<path style=" stroke:none;fill-rule:nonzero;fill:rgb(88.235295%,92.156863%,94.901961%);fill-opacity:1;" d="M 21.875 5.816406 C 21.664062 5.6875 21.453125 5.546875 21.234375 5.429688 L 20.113281 7.371094 L 20.761719 7.746094 Z M 21.875 5.816406 "/>
<path style=" stroke:none;fill-rule:nonzero;fill:rgb(47.058824%,54.509807%,61.176473%);fill-opacity:1;" d="M 21.234375 5.429688 L 20.113281 7.371094 L 20.761719 7.746094 L 21.875 5.816406 C 21.664062 5.6875 21.453125 5.546875 21.234375 5.429688 Z M 21.234375 5.429688 "/>
<path style=" stroke:none;fill-rule:nonzero;fill:rgb(88.235295%,92.156863%,94.901961%);fill-opacity:1;" d="M 26.808594 24.226562 L 24.878906 23.113281 L 24.503906 23.761719 L 26.429688 24.875 C 26.5625 24.660156 26.6875 24.445312 26.808594 24.226562 Z M 26.808594 24.226562 "/>
<path style=" stroke:none;fill-rule:nonzero;fill:rgb(47.058824%,54.509807%,61.176473%);fill-opacity:1;" d="M 24.878906 23.113281 L 24.503906 23.761719 L 26.429688 24.875 C 26.5625 24.660156 26.6875 24.445312 26.804688 24.226562 Z M 24.878906 23.113281 "/>
<path style=" stroke:none;fill-rule:nonzero;fill:rgb(88.235295%,92.156863%,94.901961%);fill-opacity:1;" d="M 4.371094 12.136719 L 4.746094 11.488281 L 2.816406 10.375 C 2.6875 10.585938 2.546875 10.796875 2.429688 11.015625 Z M 4.371094 12.136719 "/>
<path style=" stroke:none;fill-rule:nonzero;fill:rgb(47.058824%,54.509807%,61.176473%);fill-opacity:1;" d="M 2.816406 10.375 C 2.6875 10.585938 2.546875 10.796875 2.429688 11.015625 L 4.371094 12.136719 L 4.746094 11.488281 Z M 2.816406 10.375 "/>
</g>
</svg>
