<?xml version="1.0" encoding="UTF-8"?>
<svg xmlns="http://www.w3.org/2000/svg" xmlns:xlink="http://www.w3.org/1999/xlink" width="30pt" height="30pt" viewBox="0 0 30 30" version="1.1">
<g id="surface3244">
<path style=" stroke:none;fill-rule:nonzero;fill:rgb(72.941178%,87.843138%,74.117649%);fill-opacity:1;" d="M 23.265625 28.875 C 23.195312 28.875 23.121094 28.851562 23.058594 28.8125 L 19.074219 26.015625 L 18.84375 25.898438 L 16.433594 25.164062 C 16.332031 25.136719 16.242188 25.125 16.15625 25.125 C 15.703125 25.125 15.328125 25.355469 15.132812 25.753906 L 14.140625 27.929688 C 14.082031 28.046875 13.953125 28.125 13.808594 28.125 L 9.894531 27.394531 L 9.722656 27.378906 L 8.558594 27.375 C 8.460938 27.375 8.367188 27.335938 8.296875 27.265625 L 6.484375 25.453125 C 6.414062 25.386719 6.375 25.289062 6.375 25.191406 L 6.375 23.652344 C 6.375 23.273438 6.1875 22.925781 5.875 22.714844 L 4.292969 21.660156 C 4.1875 21.589844 4.125 21.476562 4.125 21.347656 L 4.125 18.433594 C 4.125 18.03125 3.910156 17.65625 3.558594 17.457031 L 1.421875 16.230469 C 1.230469 16.023438 1.125 15.753906 1.125 15.46875 C 1.125 15.292969 1.164062 15.125 1.246094 14.964844 L 2.90625 12.277344 C 3.113281 11.863281 3.496094 11.625 3.925781 11.625 L 5.25 11.625 C 5.871094 11.625 6.375 11.121094 6.375 10.5 L 6.375 10.058594 C 6.375 9.765625 6.253906 9.476562 6.046875 9.265625 L 5.707031 8.992188 C 5.660156 8.945312 5.621094 8.839844 5.625 8.734375 C 5.628906 8.6875 5.636719 8.640625 5.65625 8.597656 C 5.847656 8.199219 6.339844 7.875 6.75 7.875 L 21.859375 7.875 C 22.164062 7.875 22.460938 8 22.671875 8.222656 L 24.199219 9.78125 C 24.40625 9.996094 24.699219 10.121094 24.996094 10.125 L 25 10.125 C 25.09375 10.125 25.175781 10.117188 25.257812 10.097656 L 28.105469 9.386719 C 28.136719 9.378906 28.167969 9.375 28.195312 9.375 C 28.339844 9.375 28.472656 9.460938 28.535156 9.589844 L 28.804688 10.246094 C 28.851562 10.367188 28.875 10.496094 28.875 10.625 C 28.875 10.761719 28.851562 10.894531 28.808594 11.019531 L 28.328125 12.445312 C 28.296875 12.539062 28.234375 12.613281 28.152344 12.660156 L 26.421875 13.640625 C 25.988281 13.90625 25.789062 14.40625 25.910156 14.882812 L 26.378906 16.972656 C 26.445312 17.265625 26.582031 17.542969 26.777344 17.773438 L 28.042969 19.265625 C 28.09375 19.328125 28.125 19.414062 28.125 19.5 C 28.125 19.585938 28.097656 19.667969 28.042969 19.734375 L 24.570312 24.046875 C 24.265625 24.53125 24.332031 25.101562 24.703125 25.472656 L 25.757812 26.59375 C 25.84375 26.683594 25.882812 26.785156 25.875 26.894531 C 25.867188 27.003906 25.8125 27.101562 25.726562 27.167969 C 25.726562 27.167969 23.542969 28.761719 23.425781 28.84375 C 23.394531 28.859375 23.332031 28.875 23.269531 28.875 Z M 23.265625 28.875 "/>
<path style=" stroke:none;fill-rule:nonzero;fill:rgb(36.862746%,61.176473%,46.27451%);fill-opacity:1;" d="M 21.859375 8.25 C 22.0625 8.25 22.261719 8.335938 22.40625 8.484375 L 23.929688 10.039062 C 24.207031 10.328125 24.59375 10.496094 25.011719 10.5 C 25.121094 10.5 25.230469 10.488281 25.355469 10.460938 L 28.179688 9.71875 L 28.4375 10.335938 L 28.453125 10.375 C 28.484375 10.457031 28.5 10.542969 28.5 10.628906 C 28.5 10.71875 28.484375 10.808594 28.449219 10.910156 L 27.96875 12.335938 L 26.214844 13.332031 C 25.652344 13.675781 25.382812 14.339844 25.542969 14.957031 L 26.011719 17.054688 C 26.09375 17.410156 26.257812 17.742188 26.492188 18.015625 L 27.75 19.5 L 24.277344 23.8125 L 24.25 23.847656 L 24.226562 23.882812 C 23.855469 24.480469 23.941406 25.242188 24.421875 25.722656 L 25.507812 26.863281 C 24.714844 27.441406 23.542969 28.296875 23.265625 28.5 L 19.289062 25.710938 L 19.238281 25.675781 L 19.1875 25.648438 L 19.050781 25.582031 L 19.007812 25.5625 L 18.953125 25.535156 L 18.898438 25.519531 L 16.503906 24.796875 C 16.386719 24.765625 16.269531 24.75 16.152344 24.75 C 15.5625 24.75 15.054688 25.0625 14.785156 25.609375 L 13.828125 27.753906 L 9.964844 27.027344 L 9.929688 27.019531 L 9.824219 27.007812 L 9.757812 27.003906 L 9.722656 27 L 8.5625 27 L 6.75 25.191406 L 6.75 23.652344 C 6.75 23.148438 6.5 22.683594 6.082031 22.402344 L 4.5 21.347656 L 4.5 18.433594 C 4.5 17.898438 4.210938 17.398438 3.746094 17.132812 L 1.664062 15.9375 C 1.558594 15.804688 1.5 15.640625 1.5 15.46875 C 1.5 15.359375 1.523438 15.257812 1.566406 15.160156 L 3.222656 12.472656 L 3.242188 12.445312 L 3.257812 12.414062 C 3.382812 12.160156 3.640625 12 3.925781 12 L 5.25 12 C 6.078125 12 6.75 11.328125 6.75 10.5 L 6.75 10.058594 C 6.75 9.660156 6.59375 9.285156 6.308594 9 L 6.28125 8.96875 L 6.246094 8.941406 L 6.003906 8.75 C 6.132812 8.492188 6.492188 8.25 6.75 8.25 L 21.859375 8.25 M 21.859375 7.5 L 6.75 7.5 C 6.191406 7.5 5.566406 7.917969 5.320312 8.4375 C 5.277344 8.527344 5.253906 8.625 5.25 8.71875 C 5.242188 8.925781 5.320312 9.136719 5.472656 9.289062 L 5.78125 9.53125 C 5.921875 9.671875 6 9.863281 6 10.058594 L 6 10.5 C 6 10.914062 5.664062 11.25 5.25 11.25 L 3.925781 11.25 C 3.359375 11.25 2.839844 11.570312 2.585938 12.078125 L 0.910156 14.800781 C 0.800781 15.011719 0.75 15.242188 0.75 15.46875 C 0.75 15.859375 0.902344 16.242188 1.191406 16.53125 L 3.375 17.785156 C 3.605469 17.917969 3.75 18.164062 3.75 18.433594 L 3.75 21.347656 C 3.75 21.597656 3.875 21.835938 4.082031 21.972656 L 5.664062 23.027344 C 5.875 23.167969 6 23.402344 6 23.652344 L 6 25.191406 C 6 25.386719 6.078125 25.578125 6.21875 25.71875 L 8.03125 27.53125 C 8.171875 27.671875 8.363281 27.75 8.558594 27.75 L 9.6875 27.75 C 9.734375 27.753906 9.777344 27.757812 9.824219 27.761719 L 13.6875 28.488281 C 13.726562 28.496094 13.769531 28.5 13.808594 28.5 C 13.808594 28.5 13.808594 28.5 13.8125 28.5 C 14.089844 28.5 14.351562 28.34375 14.480469 28.085938 L 15.46875 25.921875 C 15.597656 25.65625 15.84375 25.5 16.152344 25.5 C 16.210938 25.5 16.265625 25.507812 16.324219 25.523438 L 18.679688 26.234375 C 18.738281 26.265625 18.796875 26.292969 18.855469 26.320312 L 22.851562 29.125 C 22.980469 29.207031 23.125 29.25 23.269531 29.25 C 23.394531 29.25 23.519531 29.21875 23.632812 29.15625 C 23.660156 29.140625 25.949219 27.46875 25.949219 27.46875 C 26.316406 27.195312 26.351562 26.660156 26.03125 26.339844 L 24.96875 25.210938 C 24.722656 24.960938 24.679688 24.578125 24.863281 24.28125 L 28.335938 19.96875 C 28.445312 19.832031 28.5 19.664062 28.5 19.5 C 28.5 19.332031 28.441406 19.160156 28.328125 19.023438 L 27.066406 17.53125 C 26.90625 17.347656 26.796875 17.128906 26.746094 16.890625 L 26.273438 14.792969 C 26.191406 14.472656 26.328125 14.140625 26.609375 13.96875 L 28.339844 12.988281 C 28.503906 12.894531 28.625 12.742188 28.683594 12.566406 L 29.160156 11.152344 C 29.222656 10.980469 29.253906 10.800781 29.25 10.621094 C 29.25 10.449219 29.21875 10.277344 29.15625 10.113281 C 29.148438 10.085938 29.136719 10.058594 29.125 10.03125 L 28.875 9.429688 C 28.75 9.164062 28.480469 9 28.195312 9 C 28.136719 9 28.078125 9.007812 28.015625 9.023438 L 25.175781 9.730469 C 25.121094 9.742188 25.066406 9.75 25.011719 9.75 C 25.007812 9.75 25.003906 9.75 25.003906 9.75 C 24.804688 9.746094 24.609375 9.667969 24.46875 9.519531 L 22.941406 7.960938 C 22.660156 7.667969 22.269531 7.5 21.859375 7.5 Z M 21.859375 7.5 "/>
<path style=" stroke:none;fill-rule:nonzero;fill:rgb(36.862746%,61.176473%,46.27451%);fill-opacity:1;" d="M 12 18 C 12 18.828125 11.328125 19.5 10.5 19.5 C 9.671875 19.5 9 18.828125 9 18 C 9 17.171875 9.671875 16.5 10.5 16.5 C 11.328125 16.5 12 17.171875 12 18 Z M 12 18 "/>
<path style=" stroke:none;fill-rule:nonzero;fill:rgb(96.862745%,56.078434%,56.078434%);fill-opacity:1;" d="M 15.75 15.1875 C 14.085938 13.316406 10.875 9.269531 10.875 6 C 10.875 3.3125 13.0625 1.125 15.75 1.125 C 18.4375 1.125 20.625 3.3125 20.625 6 C 20.625 9.253906 17.410156 13.308594 15.75 15.1875 Z M 15.75 4.125 C 14.714844 4.125 13.875 4.964844 13.875 6 C 13.875 7.035156 14.714844 7.875 15.75 7.875 C 16.785156 7.875 17.625 7.035156 17.625 6 C 17.625 4.964844 16.785156 4.125 15.75 4.125 Z M 15.75 4.125 "/>
<path style=" stroke:none;fill-rule:nonzero;fill:rgb(78.039217%,26.274511%,26.274511%);fill-opacity:1;" d="M 15.75 1.5 C 18.230469 1.5 20.25 3.519531 20.25 6 C 20.25 8.957031 17.433594 12.664062 15.75 14.617188 C 14.0625 12.671875 11.25 8.972656 11.25 6 C 11.25 3.519531 13.269531 1.5 15.75 1.5 M 15.75 8.25 C 16.992188 8.25 18 7.242188 18 6 C 18 4.757812 16.992188 3.75 15.75 3.75 C 14.507812 3.75 13.5 4.757812 13.5 6 C 13.5 7.242188 14.507812 8.25 15.75 8.25 M 15.75 0.75 C 12.851562 0.75 10.5 3.101562 10.5 6 C 10.5 9.929688 14.867188 14.78125 15.75 15.75 C 16.632812 14.777344 21 9.910156 21 6 C 21 3.101562 18.648438 0.75 15.75 0.75 Z M 15.75 7.5 C 14.921875 7.5 14.25 6.828125 14.25 6 C 14.25 5.171875 14.921875 4.5 15.75 4.5 C 16.578125 4.5 17.25 5.171875 17.25 6 C 17.25 6.828125 16.578125 7.5 15.75 7.5 Z M 15.75 7.5 "/>
</g>
</svg>
