<?xml version="1.0" encoding="UTF-8"?>
<svg xmlns="http://www.w3.org/2000/svg" xmlns:xlink="http://www.w3.org/1999/xlink" width="30pt" height="30pt" viewBox="0 0 30 30" version="1.1">
<g id="surface4624">
<path style="fill:none;stroke-width:1;stroke-linecap:butt;stroke-linejoin:miter;stroke:rgb(58.823532%,47.843137%,26.666668%);stroke-opacity:1;stroke-miterlimit:10;" d="M 19 21 L 3 37 " transform="matrix(0.75,0,0,0.75,0,0)"/>
<path style=" stroke:none;fill-rule:nonzero;fill:rgb(76.078433%,58.823532%,32.549021%);fill-opacity:1;" d="M 9.074219 8.25 C 9.484375 8.25 10.222656 8.378906 11.421875 8.992188 C 13.113281 9.855469 15.046875 11.335938 16.867188 13.15625 C 18.691406 14.980469 20.171875 16.914062 21.035156 18.605469 C 21.914062 20.320312 21.882812 21.273438 21.589844 21.566406 C 21.546875 21.609375 21.40625 21.75 20.976562 21.75 C 20.566406 21.75 19.828125 21.621094 18.632812 21.007812 C 16.941406 20.144531 15.007812 18.664062 13.183594 16.84375 C 11.363281 15.019531 9.882812 13.085938 9.015625 11.394531 C 8.140625 9.679688 8.167969 8.726562 8.460938 8.433594 C 8.507812 8.390625 8.644531 8.25 9.074219 8.25 M 9.074219 6.75 C 8.261719 6.75 7.734375 7.039062 7.402344 7.375 C 6.757812 8.015625 6.289062 9.351562 7.683594 12.078125 C 8.617188 13.902344 10.195312 15.972656 12.125 17.902344 C 14.054688 19.832031 16.125 21.410156 17.949219 22.34375 C 19.25 23.007812 20.234375 23.25 20.976562 23.25 C 21.792969 23.25 22.316406 22.960938 22.652344 22.625 C 23.292969 21.984375 23.765625 20.648438 22.371094 17.921875 C 21.4375 16.097656 19.859375 14.027344 17.929688 12.097656 C 16 10.167969 13.929688 8.589844 12.105469 7.65625 C 10.804688 6.988281 9.820312 6.75 9.074219 6.75 Z M 9.074219 6.75 "/>
<path style=" stroke:none;fill-rule:nonzero;fill:rgb(58.823532%,47.843137%,26.666668%);fill-opacity:1;" d="M 18.75 7.5 C 19.984375 7.5 20.992188 7.828125 21.582031 8.417969 C 23.371094 10.207031 22.601562 15.300781 18.964844 18.9375 C 16.769531 21.136719 13.828125 22.5 11.296875 22.5 C 10.066406 22.5 9.054688 22.164062 8.445312 21.554688 C 7.589844 20.699219 7.292969 19.078125 7.648438 17.214844 C 8.058594 15.046875 9.304688 12.792969 11.0625 11.035156 C 13.242188 8.855469 16.1875 7.5 18.75 7.5 M 18.75 6 C 16.015625 6 12.65625 7.320312 10 9.972656 C 5.789062 14.1875 4.878906 20.109375 7.382812 22.617188 C 8.308594 23.539062 9.699219 24 11.296875 24 C 14.03125 24 17.367188 22.65625 20.027344 20 C 24.238281 15.785156 25.085938 9.800781 22.644531 7.359375 C 21.738281 6.453125 20.351562 6 18.75 6 Z M 18.75 6 "/>
<path style=" stroke:none;fill-rule:nonzero;fill:rgb(58.823532%,47.843137%,26.666668%);fill-opacity:1;" d="M 16.179688 13.847656 C 14.207031 11.878906 12.097656 10.796875 11.460938 11.433594 C 10.824219 12.070312 11.902344 14.183594 13.875 16.152344 C 15.84375 18.121094 17.957031 19.203125 18.59375 18.566406 C 19.230469 17.929688 18.148438 15.816406 16.179688 13.847656 Z M 16.074219 16.046875 C 15.886719 16.234375 15.265625 15.917969 14.6875 15.339844 C 14.109375 14.761719 13.792969 14.140625 13.980469 13.953125 C 14.164062 13.765625 14.785156 14.082031 15.367188 14.660156 C 15.945312 15.238281 16.261719 15.859375 16.074219 16.046875 Z M 2.25 26.25 C 1.421875 26.25 0.75 26.921875 0.75 27.75 C 0.75 28.578125 1.421875 29.25 2.25 29.25 C 3.078125 29.25 3.75 28.578125 3.75 27.75 C 3.75 26.921875 3.078125 26.25 2.25 26.25 Z M 2.25 26.25 "/>
<path style="fill:none;stroke-width:1;stroke-linecap:butt;stroke-linejoin:miter;stroke:rgb(58.823532%,47.843137%,26.666668%);stroke-opacity:1;stroke-miterlimit:10;" d="M 37 3 L 20.5 19.5 " transform="matrix(0.75,0,0,0.75,0,0)"/>
<path style=" stroke:none;fill-rule:nonzero;fill:rgb(58.823532%,47.843137%,26.666668%);fill-opacity:1;" d="M 27.75 0.75 C 26.921875 0.75 26.25 1.421875 26.25 2.25 C 26.25 3.078125 26.921875 3.75 27.75 3.75 C 28.578125 3.75 29.25 3.078125 29.25 2.25 C 29.25 1.421875 28.578125 0.75 27.75 0.75 Z M 27.75 0.75 "/>
<path style=" stroke:none;fill-rule:nonzero;fill:rgb(100%,93.333334%,63.921571%);fill-opacity:1;" d="M 15.027344 28.875 C 7.375 28.875 1.152344 22.652344 1.152344 15 C 1.152344 7.347656 7.375 1.125 15.027344 1.125 C 22.679688 1.125 28.902344 7.347656 28.902344 15 C 28.902344 22.652344 22.679688 28.875 15.027344 28.875 Z M 15.027344 2.625 C 8.203125 2.625 2.652344 8.175781 2.652344 15 C 2.652344 21.824219 8.203125 27.375 15.027344 27.375 C 21.851562 27.375 27.402344 21.824219 27.402344 15 C 27.402344 8.175781 21.851562 2.625 15.027344 2.625 Z M 15.027344 2.625 "/>
<path style=" stroke:none;fill-rule:nonzero;fill:rgb(96.078432%,76.078433%,46.27451%);fill-opacity:1;" d="M 15.027344 1.5 C 22.472656 1.5 28.527344 7.554688 28.527344 15 C 28.527344 22.445312 22.472656 28.5 15.027344 28.5 C 7.582031 28.5 1.527344 22.445312 1.527344 15 C 1.527344 7.554688 7.582031 1.5 15.027344 1.5 M 15.027344 27.75 C 22.058594 27.75 27.777344 22.03125 27.777344 15 C 27.777344 7.96875 22.058594 2.25 15.027344 2.25 C 7.996094 2.25 2.277344 7.96875 2.277344 15 C 2.277344 22.03125 7.996094 27.75 15.027344 27.75 M 15.027344 0.75 C 7.167969 0.75 0.777344 7.140625 0.777344 15 C 0.777344 22.859375 7.167969 29.25 15.027344 29.25 C 22.882812 29.25 29.277344 22.859375 29.277344 15 C 29.277344 7.140625 22.882812 0.75 15.027344 0.75 Z M 15.027344 27 C 8.410156 27 3.027344 21.617188 3.027344 15 C 3.027344 8.382812 8.410156 3 15.027344 3 C 21.644531 3 27.027344 8.382812 27.027344 15 C 27.027344 21.617188 21.644531 27 15.027344 27 Z M 15.027344 27 "/>
<path style=" stroke:none;fill-rule:nonzero;fill:rgb(76.078433%,58.823532%,32.549021%);fill-opacity:1;" d="M 19.5 21.402344 C 19.242188 21.300781 18.953125 21.171875 18.632812 21.007812 C 16.941406 20.144531 15.007812 18.664062 13.183594 16.84375 C 11.363281 15.019531 9.882812 13.085938 9.019531 11.394531 C 8.851562 11.066406 8.722656 10.773438 8.617188 10.5 L 7.027344 10.5 C 7.171875 10.964844 7.378906 11.488281 7.679688 12.078125 C 8.617188 13.902344 10.195312 15.972656 12.125 17.902344 C 14.054688 19.832031 16.121094 21.410156 17.949219 22.34375 C 18.53125 22.640625 19.039062 22.84375 19.5 22.988281 Z M 19.5 21.402344 "/>
</g>
</svg>
