<?xml version="1.0" encoding="UTF-8"?>
<svg xmlns="http://www.w3.org/2000/svg" viewBox="2 18 36 22" width="30pt" height="30pt">
<g id="surface-meter-large">
  <path fill="#66798f" d="M19 16H20V21H19z"/>
  <path fill="#8bb7f0" d="M7,39.5c-1.379,0-2.5-1.122-2.5-2.5V23c0-1.378,1.121-2.5,2.5-2.5h25c1.379,0,2.5,1.122,2.5,2.5v14 c0,1.378-1.121,2.5-2.5,2.5H7z"/>
  <path fill="#4e7ab5" d="M32,21c1.103,0,2,0.897,2,2v14c0,1.103-0.897,2-2,2H7c-1.103,0-2-0.897-2-2V23c0-1.103,0.897-2,2-2 H32 M32,20H7c-1.657,0-3,1.343-3,3v14c0,1.657,1.343,3,3,3h25c1.657,0,3-1.343,3-3V23C35,21.343,33.657,20,32,20L32,20z"/>
  <path fill="#fff" d="M12.229,35.5l-5.317-6.205C10.4,26.2,14.852,24.5,19.5,24.5s9.1,1.7,12.588,4.795L26.771,35.5 H12.229z"/>
  <path fill="#4e7ab5" d="M19.5,25c4.362,0,8.546,1.537,11.885,4.348L26.54,35H12.46l-4.844-5.652 C10.954,26.537,15.138,25,19.5,25 M19.5,24c-5.139,0-9.8,2.003-13.284,5.252L12,36h15l5.784-6.748C29.3,26.003,24.639,24,19.5,24 L19.5,24z"/>
  <path fill="#36404d" d="M23 28L18 35 21 35z"/>
  <path fill="#66798f" d="M19.5 25c-.168 0-.333.017-.5.022V28h1v-2.978C19.833 25.017 19.668 25 19.5 25zM13.106 29.371l.924-.383-1.139-2.751c-.311.12-.619.248-.923.385L13.106 29.371zM26.109 26.238l-1.139 2.751.924.383 1.139-2.749C26.728 26.486 26.42 26.358 26.109 26.238z"/>
</g>
</svg>
