<?xml version="1.0" encoding="UTF-8"?>
<svg xmlns="http://www.w3.org/2000/svg" xmlns:xlink="http://www.w3.org/1999/xlink" width="30pt" height="30pt" viewBox="0 0 30 30" version="1.1">
<g id="surface4378">
<path style=" stroke:none;fill-rule:nonzero;fill:rgb(54.509807%,71.764708%,94.117647%);fill-opacity:1;" d="M 1.875 20.855469 L 1.875 14.09375 L 9.886719 4.179688 L 20.308594 7.15625 L 28.125 2.183594 L 28.125 20.855469 Z M 1.875 20.855469 "/>
<path style=" stroke:none;fill-rule:nonzero;fill:rgb(30.588236%,47.843137%,70.980394%);fill-opacity:1;" d="M 27.75 2.867188 L 27.75 20.480469 L 2.25 20.480469 L 2.25 14.226562 L 10.023438 4.605469 L 20.042969 7.472656 L 20.367188 7.5625 L 20.652344 7.382812 L 27.75 2.867188 M 28.5 1.5 L 20.25 6.75 L 9.75 3.75 L 1.5 13.960938 L 1.5 21.230469 L 28.5 21.230469 Z M 28.5 1.5 "/>
<path style=" stroke:none;fill-rule:nonzero;fill:rgb(72.941178%,87.843138%,74.117649%);fill-opacity:1;" d="M 1.875 28.125 L 1.875 19.351562 L 9.816406 13.910156 L 20.277344 16.898438 L 28.125 13.496094 L 28.125 28.125 Z M 1.875 28.125 "/>
<path style=" stroke:none;fill-rule:nonzero;fill:rgb(36.862746%,61.176473%,46.27451%);fill-opacity:1;" d="M 27.75 14.066406 L 27.75 27.75 L 2.25 27.75 L 2.25 19.546875 L 9.882812 14.316406 L 20.042969 17.222656 L 20.300781 17.292969 L 20.546875 17.1875 L 27.75 14.066406 M 28.5 12.921875 L 20.25 16.5 L 9.75 13.5 L 1.5 19.152344 L 1.5 28.5 L 28.5 28.5 Z M 28.5 12.921875 "/>
</g>
</svg>
