<?xml version="1.0" encoding="UTF-8"?>
<svg xmlns="http://www.w3.org/2000/svg" xmlns:xlink="http://www.w3.org/1999/xlink" width="12pt" height="12pt" viewBox="0 0 12 12" version="1.1">
<g id="surface146">
<path style=" stroke:none;fill-rule:nonzero;fill:rgb(71.372551%,78.823531%,83.92157%);fill-opacity:1;" d="M 1.5 11.25 C 1.085938 11.25 0.75 10.914062 0.75 10.5 L 0.75 1.5 C 0.75 1.085938 1.085938 0.75 1.5 0.75 L 10.5 0.75 C 10.914062 0.75 11.25 1.085938 11.25 1.5 L 11.25 10.5 C 11.25 10.914062 10.914062 11.25 10.5 11.25 Z M 1.5 11.25 "/>
<path style=" stroke:none;fill-rule:nonzero;fill:rgb(47.058824%,54.509807%,61.176473%);fill-opacity:1;" d="M 10.5 0.898438 C 10.832031 0.898438 11.101562 1.167969 11.101562 1.5 L 11.101562 10.5 C 11.101562 10.832031 10.832031 11.101562 10.5 11.101562 L 1.5 11.101562 C 1.167969 11.101562 0.898438 10.832031 0.898438 10.5 L 0.898438 1.5 C 0.898438 1.167969 1.167969 0.898438 1.5 0.898438 L 10.5 0.898438 M 10.5 0.601562 L 1.5 0.601562 C 1.003906 0.601562 0.601562 1.003906 0.601562 1.5 L 0.601562 10.5 C 0.601562 10.996094 1.003906 11.398438 1.5 11.398438 L 10.5 11.398438 C 10.996094 11.398438 11.398438 10.996094 11.398438 10.5 L 11.398438 1.5 C 11.398438 1.003906 10.996094 0.601562 10.5 0.601562 Z M 10.5 0.601562 "/>
<path style="fill:none;stroke-width:1;stroke-linecap:butt;stroke-linejoin:round;stroke:rgb(100%,100%,100%);stroke-opacity:1;stroke-miterlimit:10;" d="M 2.994792 20.494792 L 9.505208 20.494792 L 11.497396 16.497396 L 13.502604 26.497396 L 17.5 8.502604 L 20.494792 32.513021 L 25.494792 14.505208 L 28.502604 25.494792 L 30.494792 20.494792 L 37.005208 20.494792 " transform="matrix(0.3,0,0,0.3,0,0)"/>
</g>
</svg>
