<svg xmlns="http://www.w3.org/2000/svg"  viewBox="0 0 40 40" width="40px" height="40px"><path fill="#788b9c" d="M29.947 8.181H33.853V12.018999999999998H29.947z" transform="rotate(-45.001 31.9 10.1)"/><path fill="#788b9c" d="M18 5H22V8H18z"/><path fill="#e1ebf2" d="M20,38.5c-8.547,0-15.5-6.953-15.5-15.5S11.453,7.5,20,7.5S35.5,14.453,35.5,23S28.547,38.5,20,38.5 z"/><path fill="#788b9c" d="M20,8c8.271,0,15,6.729,15,15s-6.729,15-15,15S5,31.271,5,23S11.729,8,20,8 M20,7 C11.163,7,4,14.163,4,23s7.163,16,16,16s16-7.163,16-16S28.837,7,20,7L20,7z"/><path fill="#fff" d="M20,35.833c-7.076,0-12.833-5.757-12.833-12.833S12.924,10.167,20,10.167S32.833,15.924,32.833,23 S27.076,35.833,20,35.833z"/><path fill="#788b9c" d="M20,10.667c6.801,0,12.333,5.533,12.333,12.333S26.801,35.333,20,35.333S7.667,29.801,7.667,23 S13.199,10.667,20,10.667 M20,9.667c-7.364,0-13.333,5.97-13.333,13.333S12.636,36.333,20,36.333S33.333,30.364,33.333,23 S27.364,9.667,20,9.667L20,9.667z"/><path fill="none" stroke="#66798f" stroke-linecap="round" stroke-miterlimit="10" d="M13.333 16.333L20 23"/><path fill="#66798f" d="M20 21.667A1.333 1.333 0 1 0 20 24.333A1.333 1.333 0 1 0 20 21.667Z"/><g><path fill="#e1ebf2" d="M17,5.5c-0.275,0-0.5-0.225-0.5-0.5V2c0-0.275,0.225-0.5,0.5-0.5h6c0.275,0,0.5,0.225,0.5,0.5v3 c0,0.275-0.225,0.5-0.5,0.5H17z"/><path fill="#788b9c" d="M23,2v3h-6V2H23 M23,1h-6c-0.552,0-1,0.448-1,1v3c0,0.552,0.448,1,1,1h6c0.552,0,1-0.448,1-1V2 C24,1.448,23.552,1,23,1L23,1z"/></g><g><path fill="#e1ebf2" d="M33.293,12.5c-0.166,0-0.322-0.064-0.439-0.182l-3.172-3.172c-0.242-0.242-0.242-0.637,0-0.879 l1.586-1.586C31.385,6.564,31.541,6.5,31.707,6.5s0.322,0.064,0.439,0.182l3.172,3.172c0.242,0.242,0.242,0.637,0,0.879 l-1.586,1.586C33.615,12.436,33.459,12.5,33.293,12.5z"/><path fill="#788b9c" d="M31.707,7c0.033,0,0.062,0.012,0.086,0.036l3.172,3.172C34.988,10.231,35,10.26,35,10.293 c0,0.033-0.012,0.062-0.036,0.086l-1.586,1.586C33.355,11.988,33.326,12,33.293,12c-0.033,0-0.062-0.012-0.086-0.036l-3.172-3.172 C30.012,8.769,30,8.74,30,8.707c0-0.033,0.012-0.062,0.036-0.086l1.586-1.586C31.645,7.012,31.674,7,31.707,7 M31.707,6 c-0.287,0-0.574,0.109-0.793,0.328l-1.586,1.586c-0.438,0.438-0.438,1.148,0,1.586l3.172,3.172C32.719,12.891,33.006,13,33.293,13 c0.287,0,0.574-0.109,0.793-0.328l1.586-1.586c0.438-0.438,0.438-1.148,0-1.586L32.5,6.328C32.281,6.109,31.994,6,31.707,6 L31.707,6z"/></g></svg>