<?xml version="1.0" encoding="UTF-8"?>
<svg xmlns="http://www.w3.org/2000/svg" xmlns:xlink="http://www.w3.org/1999/xlink" width="60pt" height="60pt" viewBox="0 0 60 60" version="1.1">
<g id="surface37">
<path style=" stroke:none;fill-rule:nonzero;fill:rgb(75.686276%,89.019608%,96.862745%);fill-opacity:1;" d="M 58.5 30 C 58.5 45.867188 45.574219 58.5 30 58.5 C 14.429688 58.5 1.5 45.867188 1.5 30 C 1.5 14.132812 14.132812 1.5 30 1.5 C 45.867188 1.5 58.5 14.132812 58.5 30 Z M 58.5 30 "/>
<path style=" stroke:none;fill-rule:nonzero;fill:rgb(44.705883%,56.470591%,73.333335%);fill-opacity:1;" d="M 30 1.5 C 30 1.5 29.996094 1.5 29.996094 1.5 C 29.996094 1.5 29.996094 1.5 29.992188 1.5 C 29.988281 1.5 29.988281 1.5 29.980469 1.5 C 14.125 1.511719 1.5 14.140625 1.5 30 C 1.5 36.152344 3.460938 41.804688 6.75 46.441406 L 6.75 46.5 L 6.796875 46.5 C 11.988281 53.773438 20.484375 58.492188 29.980469 58.5 C 29.988281 58.5 29.992188 58.5 29.996094 58.5 C 29.996094 58.5 29.996094 58.5 30 58.5 C 31.015625 58.5 32.011719 58.433594 33 58.332031 C 33.550781 58.273438 34.09375 58.195312 34.636719 58.109375 C 38.03125 57.546875 41.226562 56.382812 44.117188 54.722656 L 43.003906 53.609375 C 41.582031 54.398438 40.089844 55.074219 38.523438 55.597656 C 36.5625 56.25 34.3125 56.679688 32.609375 56.679688 C 32.742188 56.492188 32.871094 56.277344 33 56.0625 L 33 52.441406 C 31.941406 55.425781 30.816406 57 29.996094 57 C 29.996094 57 29.992188 57 29.992188 57 C 28.738281 56.996094 26.753906 53.367188 25.414062 46.5 L 33 46.5 L 33 45 L 25.144531 45 C 24.703125 42.394531 24.351562 39.402344 24.160156 36 L 33 36 L 33 34.5 L 24.097656 34.5 C 24.035156 33.058594 23.992188 31.570312 23.992188 30 C 23.992188 28.429688 24.035156 26.941406 24.097656 25.5 L 35.890625 25.5 C 35.953125 26.941406 35.992188 28.429688 35.992188 30 C 35.992188 31.035156 35.972656 32.027344 35.941406 33 L 37.425781 33 C 37.453125 32.007812 37.492188 31.023438 37.492188 30 C 37.492188 28.464844 37.453125 26.96875 37.390625 25.5 L 47.722656 25.5 C 47.890625 26.96875 47.996094 28.464844 47.996094 30 C 47.996094 31.019531 47.9375 32.011719 47.859375 33 L 49.359375 33 C 49.4375 32.011719 49.496094 31.019531 49.496094 30 C 49.496094 28.464844 49.390625 26.96875 49.226562 25.5 L 56.613281 25.5 C 56.847656 26.964844 57 28.460938 57 30 C 57 31.019531 56.914062 32.011719 56.792969 33 C 56.734375 33.503906 56.679688 34.003906 56.59375 34.5 L 56.304688 36 C 56.257812 36.207031 56.191406 36.402344 56.136719 36.605469 C 55.566406 38.871094 54.730469 41.027344 53.632812 43.023438 L 54.71875 44.113281 C 56.378906 41.230469 57.558594 38.039062 58.121094 34.621094 C 58.210938 34.089844 58.265625 33.542969 58.324219 33 C 58.429688 32.011719 58.5 31.015625 58.5 30 C 58.5 14.132812 45.867188 1.5 30 1.5 Z M 51.480469 13.5 L 45.875 13.5 C 43.953125 9.558594 41.367188 6.375 38.351562 4.28125 C 43.664062 5.953125 48.203125 9.207031 51.480469 13.5 Z M 29.992188 3 C 31.25 3 33.234375 6.632812 34.574219 13.5 L 25.414062 13.5 C 26.753906 6.632812 28.738281 3.003906 29.992188 3 Z M 21.625 4.289062 C 18.613281 6.386719 16.03125 9.566406 14.113281 13.5 L 8.519531 13.5 C 11.792969 9.210938 16.320312 5.964844 21.625 4.289062 Z M 22.597656 34.5 L 12.265625 34.5 C 12.101562 33.03125 11.992188 31.535156 11.992188 30 C 11.992188 28.464844 12.101562 26.96875 12.265625 25.5 L 22.597656 25.5 C 22.535156 26.96875 22.496094 28.464844 22.496094 30 C 22.496094 31.535156 22.535156 33.03125 22.597656 34.5 Z M 22.664062 36 C 22.847656 39.242188 23.179688 42.269531 23.625 45 L 15.039062 45 C 13.832031 42.304688 12.953125 39.261719 12.457031 36 Z M 22.664062 24 L 12.457031 24 C 12.953125 20.738281 13.832031 17.695312 15.039062 15 L 23.625 15 C 23.179688 17.730469 22.847656 20.757812 22.664062 24 Z M 7.5 14.890625 L 7.5 15 L 13.433594 15 C 12.273438 17.730469 11.410156 20.757812 10.933594 24 L 3.664062 24 C 4.390625 20.679688 5.695312 17.601562 7.5 14.890625 Z M 3 30 C 3 28.460938 3.152344 26.964844 3.390625 25.5 L 10.761719 25.5 C 10.601562 26.96875 10.492188 28.464844 10.492188 30 C 10.492188 31.535156 10.601562 33.03125 10.761719 34.5 L 3.40625 34.5 C 3.160156 33.03125 3 31.535156 3 30 Z M 3.695312 36 L 10.933594 36 C 11.410156 39.242188 12.273438 42.269531 13.433594 45 L 7.566406 45 C 5.757812 42.304688 4.4375 39.261719 3.695312 36 Z M 8.675781 46.5 L 14.113281 46.5 C 15.996094 50.359375 18.515625 53.492188 21.453125 55.589844 C 16.339844 53.878906 11.914062 50.675781 8.675781 46.5 Z M 27.378906 56.683594 C 22.675781 55.648438 18.566406 51.890625 15.777344 46.5 L 23.886719 46.5 C 24.75 51.101562 25.960938 54.675781 27.378906 56.683594 Z M 23.886719 13.5 L 15.777344 13.5 C 18.5625 8.109375 22.675781 4.351562 27.375 3.316406 C 25.960938 5.324219 24.75 8.898438 23.886719 13.5 Z M 24.160156 24 C 24.351562 20.597656 24.703125 17.605469 25.144531 15 L 34.84375 15 C 35.285156 17.605469 35.636719 20.597656 35.828125 24 Z M 32.609375 3.316406 C 37.3125 4.351562 41.421875 8.109375 44.210938 13.5 L 36.101562 13.5 C 35.238281 8.898438 34.027344 5.324219 32.609375 3.316406 Z M 37.324219 24 C 37.140625 20.757812 36.808594 17.730469 36.363281 15 L 44.949219 15 C 46.15625 17.695312 47.035156 20.738281 47.53125 24 Z M 49.054688 24 C 48.578125 20.757812 47.714844 17.730469 46.550781 15 L 52.5 15 L 52.5 14.890625 C 54.304688 17.601562 55.609375 20.679688 56.335938 24 Z M 49.054688 24 "/>
<path style=" stroke:none;fill-rule:nonzero;fill:rgb(75.686276%,89.019608%,96.862745%);fill-opacity:1;" d="M 58.5 30 C 58.5 45.867188 45.574219 58.5 30 58.5 C 14.429688 58.5 1.5 45.867188 1.5 30 C 1.5 14.132812 14.132812 1.5 30 1.5 C 45.867188 1.5 58.5 14.132812 58.5 30 Z M 58.5 30 "/>
<path style=" stroke:none;fill-rule:nonzero;fill:rgb(44.705883%,56.470591%,73.333335%);fill-opacity:1;" d="M 3 24 L 57 24 L 57 25.5 L 3 25.5 Z M 3 24 "/>
<path style=" stroke:none;fill-rule:nonzero;fill:rgb(44.705883%,56.470591%,73.333335%);fill-opacity:1;" d="M 3 34.5 L 33 34.5 L 33 36 L 3 36 Z M 3 34.5 "/>
<path style=" stroke:none;fill-rule:nonzero;fill:rgb(44.705883%,56.470591%,73.333335%);fill-opacity:1;" d="M 6.75 45 L 33 45 L 33 46.5 L 6.75 46.5 Z M 6.75 45 "/>
<path style=" stroke:none;fill-rule:nonzero;fill:rgb(44.705883%,56.470591%,73.333335%);fill-opacity:1;" d="M 7.5 13.5 L 52.5 13.5 L 52.5 15 L 7.5 15 Z M 7.5 13.5 "/>
<path style=" stroke:none;fill-rule:nonzero;fill:rgb(44.705883%,56.470591%,73.333335%);fill-opacity:1;" d="M 43.027344 53.632812 C 39.160156 55.773438 34.722656 57 30 57 C 15.113281 57 3 44.886719 3 30 C 3 14.859375 14.859375 3 30 3 C 45.140625 3 57 14.859375 57 30 C 57 34.722656 55.773438 39.160156 53.632812 43.027344 L 54.730469 44.125 C 57.113281 39.96875 58.5 35.164062 58.5 30 C 58.5 14.132812 45.867188 1.5 30 1.5 C 14.132812 1.5 1.5 14.132812 1.5 30 C 1.5 45.867188 14.429688 58.5 30 58.5 C 35.117188 58.5 39.933594 57.117188 44.113281 54.71875 Z M 43.027344 53.632812 "/>
<path style=" stroke:none;fill-rule:nonzero;fill:rgb(39.215687%,46.666667%,54.901963%);fill-opacity:1;" d="M 60.179688 53.820312 L 47.429688 41.070312 L 52.5 36 L 36 36 L 36 52.5 L 41.070312 47.429688 L 53.820312 60.179688 Z M 60.179688 53.820312 "/>
<path style=" stroke:none;fill-rule:nonzero;fill:rgb(21.176471%,25.098041%,29.803923%);fill-opacity:1;" d="M 48.878906 37.5 L 45.308594 41.070312 L 46.371094 42.128906 L 58.058594 53.820312 L 53.820312 58.058594 L 42.128906 46.371094 L 41.070312 45.308594 L 37.5 48.878906 L 37.5 37.5 L 48.878906 37.5 M 52.5 36 L 36 36 L 36 52.5 L 41.070312 47.429688 L 53.820312 60.179688 L 60.179688 53.820312 L 47.429688 41.070312 Z M 52.5 36 "/>
<path style=" stroke:none;fill-rule:nonzero;fill:rgb(44.705883%,56.470591%,73.333335%);fill-opacity:1;" d="M 29.992188 1.5 C 19.222656 1.5 10.492188 14.261719 10.492188 30 C 10.492188 45.738281 19.222656 58.5 29.992188 58.5 C 30.164062 58.5 30.335938 58.488281 30.503906 58.464844 C 31.351562 58.425781 32.183594 58.3125 33 58.125 L 33 52.460938 C 31.941406 55.433594 30.8125 57 29.992188 57 C 27.957031 57 23.992188 47.46875 23.992188 30 C 23.992188 12.53125 27.957031 3 29.992188 3 C 32.03125 3 35.992188 12.53125 35.992188 30 C 35.992188 31.027344 35.976562 32.027344 35.953125 33 L 37.453125 33 C 37.480469 32.011719 37.492188 31.015625 37.492188 30 C 37.492188 17.761719 35.460938 7.359375 32.609375 3.316406 C 41.296875 5.230469 47.992188 16.449219 47.992188 30 C 47.992188 31.015625 47.949219 32.011719 47.875 33 L 49.382812 33 C 49.453125 32.011719 49.492188 31.015625 49.492188 30 C 49.492188 14.261719 40.761719 1.5 29.992188 1.5 Z M 22.492188 30 C 22.492188 42.238281 24.527344 52.640625 27.378906 56.683594 C 18.691406 54.769531 11.992188 43.550781 11.992188 30 C 11.992188 16.449219 18.691406 5.230469 27.378906 3.316406 C 24.527344 7.359375 22.492188 17.761719 22.492188 30 Z M 22.492188 30 "/>
</g>
</svg>
